<?xml version="1.0" encoding="utf-8"?>
<!-- Generator: Adobe Illustrator 20.0.0, SVG Export Plug-In . SVG Version: 6.00 Build 0)  -->
<svg version="1.1" id="babybottle_children_Image" xmlns="http://www.w3.org/2000/svg" xmlns:xlink="http://www.w3.org/1999/xlink"
	 x="0px" y="0px" viewBox="0 0 71.5 228" style="enable-background:new 0 0 71.5 228;" xml:space="preserve">
<style type="text/css">
	.st0{fill:#75A523;}
</style>
<title>babybottle(children)</title>
<path class="st0" d="M70.1,123.5c0,1.2,0,2.3,0,3.5c0,4.2,0,8.3,0,12.5c0,1.5-0.4,3-0.4,4.5s0.7,3,0.7,4.4s-0.4,3.2-0.4,4.8
	c0,3.8,0.1,7.6,0.1,11.4c0,1.7-0.1,3.4-0.2,5s-0.1,6.2-0.2,9.3s-0.4,5-0.5,7.4s0,2.9-0.1,4.3c-0.1,3.7-0.3,7.3-0.5,11
	c0,0.1,0,0.3,0,0.4h0.6l0.5,2.6h-0.1c-0.4,2.1-1,4.2-1.7,6.2c-1.2,2.9-2.7,5.7-4.6,8.2c-1.4,1.8-3.7,2.9-5.8,4
	c-2,1.2-4.1,2.1-6.3,2.7c-2.9,0.8-5.8,1.3-8.8,1.5c-4.1,0.3-8.2,0.4-12.3,0.5c-6,0.2-11.9-0.6-17.6-2.3c-2.6-0.8-5.3-1.4-7.5-2.7
	s-2.6-2.9-3.7-4.5c-0.5-0.8-0.9-1.6-1.1-2.5c-0.1-0.7-0.1-1.5,0-2.2c-0.1-2.2-0.2-4.4-0.2-6.6s0.1-5,0.2-7.4s0.2-4.6,0.2-6.8
	s-0.2-7.1-0.2-10.6s0.5-8.8,0.7-13.2c0-1-0.3-2.1-0.3-3.2s0.4-2.2,0.5-3.3S0.9,160,1,158.8s0.6-2.5,0.6-3.7s-0.4-3.3-0.3-5
	s0.5-3.4,0.7-5.1s0.2-5.2,0.3-7.8s0.2-3,0.2-4.5s0.1-1.9,0.2-3.1l-0.8,0.8l-0.2-1.6l0.9,1c0.1-1.9,0.2-3.4,0.3-5
	c0.1-3.6,0.3-7.1,0.4-10.7s0.2-6.1,0.4-9.1s0.7-3.1,0.6-4.7C4,95,6.1,90.2,7.2,85.3c0.1-0.1,0.1-0.2,0.1-0.3
	c-0.3-1.2-0.2-1.1,1.5-2.1s0.8-1.2,1.2-1.8l5.7-6.7c2.4-2.7,3.7-6.1,3.7-9.7c0.1-0.8,0.2-1.5,0.4-2.3c0.1-0.4,0.1-0.7,0-1.1
	c-0.5-0.3-1-0.4-1.6-0.3c-1.3,0.3-4.3-1.2-4.5-2.5c0.1-0.3,0.3-0.5,0.6-0.7c-2.2-2.6-1-5.8-0.9-8.7c0-3.2,0.3-6.4,0.9-9.6
	c0.6-3.5,1.5-3.7,5-4c1.4-0.1,3,0.3,4.2-0.2s1.8-1.7,2.6-2.7s4-4.6,5.7-7.1c1-1.6,1.8-3.3,2.4-5c0.4-0.9,0.8-1.9,1.3-3.3L34,18.6
	c0.6-0.9,1.1-1.9,1.5-2.9c0.7-2.7,1-5.4,1.9-8s1-5.4,4.2-6.3C41.8,1.2,41.9,1,42,0.8c1.1-1.1,2.1-1.6,3.4-0.3s2.7,1.7,3.1,2.9
	c0.8,2.1,1.1,4.4,1.1,6.6c0,3.8-0.8,7.7-0.7,11.5c0.1,1.5,1.6,3,2.7,4.5c1.3,1.9,2.7,3.8,4.3,5.5c1.5,1.4,3.2,2.7,5,3.8
	c0.6,0.4,1.4,0.4,2,0.1c1.4-0.9,2.1,0.2,2.5,1c0.8,1.8,1.5,3.8,1.8,5.8c0.2,2,0.2,4.1-0.1,6.1c-0.2,1.9-0.9,3.8-1.3,5.7
	s-3,3.1-4.5,4.6c-0.9,0.7-1.8,1.4-2.8,2c-0.2,0.4-0.2,0.9-0.1,1.3c0.4,2.5,0.4,5.1,1.3,7.3c1.3,2.8,2.9,5.5,4.7,8.1
	c0.9,1.4,2,2.6,2.9,4c1,1.5,1.9,3.1,2.7,4.7c0.2,0.4-0.5,1.3-0.2,1.7c2.4,4,1.5,8.4,1.3,12.6s-0.4,6.7-0.6,10.1s-0.2,8.1-0.3,12.1
	c0,0.2,0.1,0.5,0.2,0.7h-0.3V123.5z M5.3,144.9v-0.6l-0.6,0.9l0,0l0.6-0.5h0.8c0.1-0.2,0.1-0.3,0.1-0.5l-0.4,0.4L5.3,144.9z
	 M6.2,150.2c-0.1,0.1-0.2,0.3-0.3,0.5c0.1,0.2,0.2,0.4,0.4,0.5v-1l0.3-2H6.3l1.6-1.3l0.8-0.4c0.1,0.1,0.2,0.2,0.2,0.3l-0.6,1l-0.7,1
	c0,0.1,0,0.2,0.1,0.3l0.9-0.5l1.1-0.4c0.1,0.2,0.1,0.3,0.1,0.5L8.3,150l-0.6,0.5H7.5L7,151.4l0.7,0.3c-0.1,0.9-0.2,1.8-0.4,2.7H6.9
	l0.2-1.3l-2,0.7l1.1,1l-0.7,1.4l0.8,1.4l1.1-1.1l-1.5,3.8h0.6l-1.4,3.3l1.1-0.6l0.2,0.2l-0.9,1.2l0.6,0.5l3.4-3.8l0.3,0.2L5.6,166
	h0.8v0.5l0.2,2l-1.2,1.4l0.6,0.4l0.6-1.8l0.4,0.4l0.2-0.2c0.1-1.2,0.2-2.4,0.2-3.4H6.9c-0.1-0.1-0.2-0.2-0.2-0.3l1-0.7v0.8h0.2
	l-0.7,3.1l0.8,0.2l-1.1,1.1l0.7,0.5v0.7l0.5-0.2v0.3l-2.2,0.8h1l-0.2,2.7H7v-1.5h0.6l-0.9,3.3c-0.1,0.2-0.2,0.4-0.4,0.6L6,175.8
	L5.7,177l-1.3-0.5l1,0.6l-1.1,3.6l-0.2,0.5l0.5,0.2c0.3,0.1,0.6,0.3,0.8,0.5c-0.1,0.4-0.2,0.8-0.5,1.2c-0.2,0.2-0.5,0.4-0.8,0.6
	l2.4-0.6l-1.8,2l1.2,0.9l0.4-1.1h0.4L6.2,186l1.6-1.2h0.1l-4.8,5.1l3.7-2.7l3.3-2.6c-3.2,3.1-6.5,5.9-8.6,9.8l0.7,0.5l2.5-4.5v1.5
	l0.7-1.7l1.8,0.5c-0.4,0.2-0.7,0.4-1,0.7L2.1,196c-0.3,0.5-0.4,1-0.4,1.5h0.4l2-1.7H3.3l2.7-1.4c-0.2,0.8-0.6,1.6-1.2,2.2
	c-0.2,0.3-0.3,0.7-0.4,1h0.5l1.6-1.3l2.3-1.8l-0.4-0.4l-2.6,3.4l-0.3,1.8L4.8,199l-1.3,2.3l3.3-2.2l0.2,0.2l-2,2.1l-0.7,4.2l3.2-2.3
	L2,209.8l0.4,0.3l5.1-4.4l0.2,0.2l-5.2,6.6l4.9-2.7l0,0l-0.7,1L3,215.7l1.7-0.5v0.3L2,217.3l0.6,0.4c0,1,0.5,1.6,1.8,1.1
	c0.4-0.3,0.9-0.6,1.2-1c-0.4,0-0.7,0.1-1,0.3H3.7c0-0.2,0-0.4,0.1-0.6l2-2.6l0,0l0.7-0.5l0.7-0.5l0.3,0.2L6.9,215l-1.2,1.4l0.3,0.3
	l4.2-2.9c-0.1,0.4-0.3,0.7-0.5,1l-2.6,2.3c-0.1,0.2-0.2,0.4-0.2,0.6h0.5l2.6-1.5h0.6c0,0.1,0,0.3,0,0.4L9,218.4l-1.5,2.1l3.1-1.9
	h0.7c0,0.2-0.1,0.5-0.2,0.7l-1.4,1.3c0.3,0,0.7,0,1-0.2l2.5-0.7l-1,1.6l-0.7,1c-0.1,0.2-0.1,0.5-0.1,0.7h0.7c1-0.6,2.1-1.2,3.2-1.7
	c0.8-0.2,1.7-0.2,2.5-0.2c-0.1,0.8-0.1,1.6-0.2,2.4c-0.1,0.3-0.2,0.7-0.4,1c1.2,0.3,2.3,0.7,3.5,0.8c3.9,0.6,7.8,1.1,11.7,1.5
	c1.9,0.1,3.8,0,5.7-0.3c2.6-0.3,5.1-0.9,7.6-1.4c1.2-0.3,2.4-0.7,3.6-1.1c0.2-0.1,0.4-0.3,0.6-0.5c0.2,0.2,0.3,0.4,0.3,0.7
	c-0.2,0.3-0.5,0.6-0.9,0.8l-1.6,0.6c1.4-0.1,2.7-0.3,4-0.7c0-0.2,0-0.4-0.1-0.6l-0.4-0.9l1.1,0.5l0.9-0.8c0.5,0.1,1-0.2,1.3-0.6
	c-0.1-0.7-0.2-1.4-0.5-2l1.2,1.4l0.8-1.7c0.6,0.3,0.7,0.2,0.8,0l0.4-1.3l0.4-1.4l0.1,2l0.9-1v0.5l2.5-1v-0.3h-2.6l0.6-3l0.2,2.2h0.3
	l1.8-7.3l0.4,0.5l0.2-1.2c-0.4-0.3-0.8-0.4-1.2-0.5c-0.3,0.3-0.6,0.7-0.8,1.1v-1.4l0.7,0.2l1.4-4.1c0.1,0.6,0.2,1.1,0.3,1.7
	c0.2,0.4,0.4,0.9,0.6,1.3l0.3-0.5l-0.6-1.2H63l0.8,2.1c0.1-0.5,0.2-1.1,0.1-1.6c-0.5-0.7-1-1.3-1.6-1.9l0,0l-0.2-1.9h-0.6
	c0.2-0.7,0.3-1.4,0.3-2.1c0-0.3-0.7-0.7-0.7-0.9c0.3-0.8,0.6-1.5,1-2.2l0.2,1.4l0.8-0.8l-0.8-0.6l1.3-0.4v0.7l1,0.2l-1.1-1.2
	c-0.4-0.2-0.8-0.4-1.1-0.7c-0.1-0.5,0-1,0.1-1.5h-0.1c-0.3-0.9-0.5-1.9-0.6-2.9c0.2-0.5,0.6-0.9,1.1-1.1l0.4,0.2
	c0.1,1.3,0.2,2.7,0.3,4c0,0.3,0,0.6-0.1,0.9l1.2-0.9l-0.2-1.5l-0.6,0.2l1-0.9l-0.2,1.1l1-0.5l-0.6-3.5l0.2,0.4l0.6-0.6v-0.2
	l-0.7,0.5v-1.4H64l0.3,1.3h0.1l0.5,3.1L64,191c-0.4-1.3-0.8-2.6-1.3-3.9c-0.2-0.5-0.2-1.1,0-1.6l0.5-0.2c0,0.4,0.1,0.7,0.1,1.1
	c0,0.3-0.1,0.5-0.2,0.8h1.2l-1.2-8.5c-0.4,0-0.3-0.2-0.3-0.3l-1.8-5.8c0-0.2,0-0.5,0.1-0.7h0.6l1.6,5.1h-0.1l1.7,4.5h0.3l-1.3-5.3
	h0.4l2.9,7.6c1.4-1.3,0.8-11.1-0.8-11.8c-0.1,0.2-0.2,0.4-0.2,0.6c0.2,1.8,0.5,3.6,0.7,5.4c0,0.4-0.1,0.8-0.3,1.2
	c-0.2-0.4-0.3-0.8-0.4-1.2c-0.2-0.7-0.2-1.4-0.4-2.1s-0.9-2.8-1.3-4.2s-1-4-1.6-6.4l-0.4,0.8l0.5-3.2h0.4l0.5,2.4l1.6,4h0.2
	l-1.8-8.2l-1.6,1.7l1.7-3.3l-1,0.2l0.4-0.6h-0.5c0-0.7,0-1.3,0-1.9s-0.1-1.2-0.2-1.8s0-0.6,0-0.6l1.9,1v-0.7l-1-5.2l-0.3-0.5
	l-0.5,0.3l-0.2-2.1l0.7,0.8v-1.2l-0.7,0.3l0,0l-0.8-2.5c1.9-1.7,0.9,0.9,1.9,1.7l-0.7-3.8h0.2v0.7h0.2v-0.9
	c-0.4-0.2-0.7-0.5-0.9-0.8c0-0.4,0.1-0.9,0.3-1.3c0.1-0.3,0.2-0.7,0.2-1l-1.3-0.4c0.7-1,1.4-1.8,2-2.6c0.4-0.6,0.7-1.3,0.8-2
	c-0.1-0.9-0.3-1.8-0.6-2.7l1.1,0.5l-1-2.7c-0.1-0.2-0.2-0.5-0.2-0.8c0.3-0.3,0.7-0.5,1.1-0.7c0.2,0,0.3,0.1,0.4,0.3
	c0.2,0.5,0.3,0.9,0.4,1.4h0.2l-0.4-6.9l1-0.8l-0.9-0.3v-3.2l-0.2,0.5c0-2.1-1.9-4.2,0.1-6.4v-0.2l-1.7,0.7l0,0l-0.4-2.3l1.3,2.4
	l-0.3-2l0.3-0.2l0.5,1.3l0.2-2.4c-0.1-0.1-0.1-0.3-0.1-0.5l-0.3-0.2h-1.1l-0.7,1.9l-0.7,0.5c-0.1,0.1-0.2,0.3-0.3,0.5
	c-0.1-0.2-0.2-0.4-0.2-0.6l1.4-3.4l-0.5-1l-0.6,0.7l0.2-2l-7.5,2.4c-3.7,0.2-8.7,0.1-13.4,1s-10.5,0.2-15.8-0.4l-0.2,0.4l-0.2-0.4
	l-1.1,0.4l0.5-0.8c-1,0.2-1.9,0.3-2.9,0.3c-1.7-0.1-3.5-0.5-5.2-0.4c-1,0.2-1.9,0.6-2.8,1.2l0.8,1l-1-0.2l-1.1-0.3
	c-0.3,0.6-0.5,1.2-0.7,1.8l-0.7,2.5c-0.2-0.3-0.5-0.5-0.8-0.7c-1.2,0.4-4,4.8-3.6,6.5l-0.4,1.2c1.2-0.9,1.4-0.9,1.7,0.1l0.3-0.4
	l-0.3,1.7l-0.5-1.3l-0.7,3l1.2-1.6l1.8-1.8l0.9-1.2c0.1,0.1,0.1,0.3,0.1,0.4l-0.6,0.9l-1.6,3l0.4,0.2l0.5-0.7l0.3,0.2l-2.3,2.7
	L7.3,126H7l0.5,1.6l1.4-0.8l-0.4-0.6l1.8-0.7L10,127l-0.6-0.5l-1,3l0.7,0.4l-0.9,0.6l0.5,2l-1.3-0.7l0.2-0.7L7,131.3l-0.2-0.7
	l-1.7,0.9l-0.2-0.9l-0.8,0.5c-0.1,0.2-0.1,0.5,0,0.7l0.4-0.5l-0.8,4.6l2.1,0.7l-2.3,1.3l0.2,0.4l1.4-0.8l0,0l0.6-0.9l1.6-0.3l0,0
	l0.7-0.5l0.2,0.2l-4,3.3l0.3,0.2l4-2.3l-0.7,1.3l0.9-0.4l-0.7,1l0.4,0.2l-0.7,0.9L9,140l-0.8,0.6l0.3,2.2l0,0l-1.3,0.3l0.6-2.5
	L6.1,142h0.6l0.3,0.4l-1.4,0.8l0.2,0.2l1.1-0.7l0.2,0.4l-0.3,0.6l0.6,0.4L6.1,148l0.2,0.2l-0.9,0.5L6.2,150.2z M3.3,187.2l0.3-0.7
	H3.2l-1,1.5L3.3,187.2l-0.8,1.1c-0.2,0.3-0.3,0.7-0.4,1l0.2,0.2l2.4-1.9L3.3,187.2z M20.1,70.8h-0.2c-0.2,0.3-0.4,0.7-0.5,1
	c0,0.4,0,0.7-0.1,1.1c-0.3,0.3-1,0.4-1.3,0.7l-2.9,3.5h-0.3l-6.4,9.1l0.4,0.3l1.2-0.6v0.6H9.7v0.9H9.4v-0.6H9.2V88H8.9v-1.2l-0.8,1
	c1.8,0.2-2.6,2.8,1.2,2.5C9,90.8,8.5,91.2,8,91.5c-0.4-0.2-0.7-0.5-1-0.8v7.8l0.8-0.3C8,98.5,8,98.9,8,99.2c-0.2,0.3-1,0.4-1,0.6
	c-0.2,1-0.3,1.9-0.4,2.9l1.4-0.2l1.2-0.5c0-0.1,0-0.3,0-0.4H8.4v-0.4h-1l2.9-1.8v0.4l5.1-1.4c0.2,0.1,0.4,0.2,0.6,0.1l5.8-1.2
	l7.6-1.2c2.6-0.4,5.3-1,7.9-1.3c1.9-0.3,3.7-0.4,5.6-0.3c2.6,0.2,5.2,0.6,7.9,1l9,1.6c0.8,0,1.5,0,2.3-0.2l-0.3,0.3l6.3,1.7
	c0.2,0.3,0.5,0.4,0.8,0.4c0.2-0.1,0.4-0.3,0.6-0.5c0.2-4-0.2-8-1.4-11.9c-1.2-3.9-3.4-7.5-6.5-10.2h0.1l-1-2h-0.8l0.2-0.6
	c0.1-0.2,0.1-0.4,0.1-0.6c-0.2-0.2-0.4-0.4-0.6-0.5c-0.5-0.1-0.9-0.3-1.3-0.6C58,72,57.7,71.5,57.5,71c-0.2,0.2-0.4,0.3-0.6,0.4
	c-0.4-0.2-0.6-0.4-0.8-0.8c0.3-2.5,0.8-5,1.1-7.4c0-0.6,0-1.2-0.1-1.8l-1.2,0.2l1.1,0.8l-20.5,1.9v-0.4l1.4-0.8h-3.7L25,64
	c-0.4-0.4-0.9-0.7-1.4-1c-0.7-0.3-1.5-0.5-2.3-0.7l0.7,3.1L20.1,70.8z M25.7,37.2l-0.2-0.3l-5.2,1.2c-0.7,0.1-1.4,0.1-2.1,0.1
	c-0.3,0-0.5,0-0.7,0.2c-0.4,0.7-0.7,1.4-1,2.2c-0.5,1.3-1,2.6-1.3,4c-0.3,1.8-0.4,3.7-0.5,5.6s0,6.2,2.6,8.3
	c0.5,0.4,1.5,0.2,2.3,0.3l5.6,1.5c1.7,0.4,3.4,0.7,5.2,0.8l8.5,0.4l4.6,0.2l-0.8-1.1c1.2,0.2,2.4,0.3,3.6,0.3l10.5-1.4
	c3-0.4,5.7-1.6,6.9-4.4c0.9-2.2,1.3-4.6,1.4-7c0.1-3.5,0-7.1-0.4-10.6c-0.1-0.7-2-1.1-3.1-1.7l-0.3,0.6l1.7,1.1L61.4,37l-20.5-1.1
	l1,0.7H30.4v0.2L24,38.4L25.7,37.2z M36.3,95.8l-1.9,0.7l-1.6,0.2L32.6,96l-7.7,4v-0.2h-1.3v1l-0.3-1.3l0.6,0.6l-1.5,1.3l-0.8-0.8
	l0.5-0.5l-0.2-0.2l-1.4,1.1c-0.3,0.6-0.7,1.1-1.1,1.5l-3.2,1.4l-2.5,0.7l1.1-0.9l0,0c0-0.6,0.2-1.1,0.6-1.5c0.2-0.3,0.3-0.7,0.4-1
	c-0.2-0.1-0.5-0.1-0.7-0.1l-1.6,0.9v-0.3l-0.6,0.3l-1,0.7c-0.5,0.5-1,1-1.4,1.5c1,1.2,5,2.3,6.6,0.9l0.8-0.3l-0.8,0.8l1.9,0.5
	c0,0.2,0.2,0.3,0.3,0.4c1.9,0.6,3.9,1.1,5.9,1.4c3.9,0.4,7.8,0.5,11.8,0.6s5.1,0.2,7.7,0c1.7-0.1,3.3-0.4,5-0.7l10-1.8
	c0.7-0.2,1.2-0.7,1.7-1.2c0.1-0.4,0.2-0.7,0.1-1.1l0.7,0.6V104l0.7,0.7l0.5-0.7l1-0.3c0-0.2-0.1-0.4-0.2-0.6h-1.5l-0.6-1.3v1.8
	l-0.3-1.1c-0.1-0.4-0.2-0.8-0.4-1.2c-0.2-0.1-0.5-0.1-0.7-0.1c-0.1,0.6-0.2,1.2-0.3,1.7c0,0.1,0,0.3-0.1,0.4h-0.6
	c-0.1-0.1-0.1-0.3-0.1-0.4c0.2-0.3,0.3-0.7,0.4-1c0.1-0.3,0-0.6-0.2-0.8c-0.3,0-0.6,0-0.9,0.1l0.4,0.8c0.1,0.3,0.2,0.7,0.2,1
	c-0.6-0.3-1-0.9-1.3-1.5l0.3-0.2c0-0.1-0.1-0.3-0.2-0.4l-0.4,0.5l-2.5-1.2c0.4-0.3,0.1-0.1,0-0.1c-0.4-0.2-0.8-0.5-1.2-0.8h1.5
	c-0.1-0.3-0.2-0.7-0.5-0.9c-2.2-0.6-4.4-1.1-6.7-1.5c-3.4-0.5-6.9-0.7-10.4-1h-2L36.3,95.8z M47,16.2c0.7-2,1.3-4.1,1.8-6.2
	c0.4-2.2,0.5-4.5-1.1-6.5l-0.8,0.9v-1c-0.2-1.2-2.6-2.7-3.3-2.1l0.9,1.2c-0.1,0.1-0.3,0.2-0.5,0.3C41.8,1.9,41.9,4,41.3,5
	c-1.8,3-1.4,6.7-3.2,9.9s-1.8,5.3-2.9,7.8c-1,2-2.1,3.8-3.5,5.5c-1.8,2.4-3.8,4.6-5.9,7.2c9.8-0.4,19.3-2.1,28.7-0.1l1.3-0.5
	c-1.6-1.8-3.1-3.6-4.5-5.6c-1.2-2.1-2.2-4.3-3.1-6.6c0.3,0.1-0.1,0.1-0.1-0.1c-0.7-2.1-1.3-4.3-1.9-6.5l0.6-0.2L47,16.2z
	 M68.2,144.5h0.4c0.1-0.9,0.2-1.7,0.2-2.6c0-6.1,0-12.3-0.1-18.4l-0.2-0.3l-0.2,0.2c0,0.5,0.1,1,0.1,1.5s-0.1,0.9-0.1,1.4l-0.7-0.6
	l-0.4,0.6l0.7,1c0-0.1,0-0.3,0-0.4h0.6l-0.2,2.3h0.2L68,135l0,0l-0.6-0.2v1.7h0.2v-1l0.9,0.2l-0.5,1.5h-0.3v0.9l0,0l0.5,2.2
	c-0.2,0.1-0.4,0.3-0.5,0.5c0,0.4,0.1,0.7,0.2,1.1l-0.4,0.8H68L68.2,144.5z M65.4,213.1l-0.6-0.4l-2.4,2.9l0.5-1.9
	c-1,0.6-1.9,1.4-2.6,2.4c0,0.4,0.2,0.8,0.4,1.1h0.5c0.7-0.3,1.4-0.7,2-1.2C64,215.1,64.7,214.2,65.4,213.1L65.4,213.1z M12.4,222.9
	c2.2,1.7,3.9,1.2,4.7-1c0-0.3,0-0.6-0.1-0.9h-0.3L12.4,222.9z M68.7,106.3l-0.6-0.5l-0.4,0.8l1.1,9.2H69v-8.9l-0.2-0.9L68.7,106.3
	L68.7,106.3z M66.4,202.6c-0.6-0.2-0.3-3.2-2.3-0.5v0.2c0.3,0.3,0.6,0.7,0.7,1.2c0.3,0.7,0.6,1.3,1,1.9h0.3c0.2-0.4,0.3-0.9,0.3-1.3
	C66.4,203.6,66.4,203.2,66.4,202.6L66.4,202.6z M67.6,105.8l0.7-1.1l1,1.1c0-1.1-0.1-2.2-0.3-3.3c-0.2-0.4-0.5-0.7-0.9-0.9
	c-0.4,0.7-0.7,1.4-0.9,2.2C67.2,104.5,67.3,105.2,67.6,105.8L67.6,105.8z M4.4,212.3C3,213.1,3,213.1,3,209.6l-1.5,2.6v-0.3H1.1
	l0.7,3.8L4.4,212.3z M1.9,181.7l0.6-0.6l1-1.6l-0.7-1.8l0.7-2.1c0-0.1,0.1-0.3,0.1-0.4H3.2l-0.6,0.7L1.9,181.7z M61.5,219.6
	l-0.4-0.7l-5.7,3.4l0.3,0.6L61.5,219.6z M64.6,137.1c-2.4,0.5-0.1,1.2-0.2,2.2l0.9,2.5c0.2-1.1,0.2-2.1,0-3.2
	c-0.1-0.7-0.2-1.3-0.4-2h-0.3V137.1z M67.3,164.6h-0.5l0.9,7.2h0.6L67.3,164.6z M64.5,157.5h-0.4l1.6,7.4l0.7-0.2L64.5,157.5z
	 M3.6,143.7h0.5l0.7-2.8c-0.3-0.2-0.5-0.6-0.5-1c0-0.3-0.1-0.5-0.2-0.8H3.8c-0.1,0.2-0.2,0.5-0.2,0.7c0,0.4,0,0.9,0,1.3
	s-0.1,0.9-0.1,1.4S3.6,143.3,3.6,143.7z M3.5,167.7H2.9l-0.7,4.8c0.4,0,0.8-0.2,1-0.6c0.1-0.7,0.2-1.3,0.2-2H3.2L3.5,167.7z
	 M66.8,186.4h-0.6l-0.4,3.8l0.3-0.2l0.7,1.2v-4.7V186.4z M66.2,159l1.5,4.3c0.5-0.5,0.8-1.2,0.6-1.9c-0.6-0.9-1.3-1.7-2.1-2.5V159z
	 M65.2,152.4h-0.5l0.9,3.9c0.1,0.6,0.2,1.2,0.4,2.2c0.2-0.3,0.3-0.6,0.4-1L65.2,152.4z M67.5,101.5l-0.6-0.4l-1.4-0.5l-0.6-0.4
	l-0.8,0.8c0.3,0.2,0.6,0.4,0.9,0.6l1.3,0.3l0.4,0.3L67.5,101.5z M69,101.6c0-0.4,0-0.8-0.2-1.2l-3.2-1.5l-0.2,0.4L69,101.6z
	 M5.1,162.4l-0.8-0.2l-0.7,3.5h0.5l1.1-1.6H4.5L5.1,162.4z M8.6,218.1l-0.3-0.4l-2.8,1.8c0,0.1,0,0.3,0.1,0.4l0.5,0.2L8.6,218.1z
	 M66.6,107.1l-0.9-2.3h-0.3v0.9l0.5,1.4h-0.2l0.6,1.4l0.6-1.9h-0.3V107.1z M68.2,152h0.3c0-1.3,0-2.6,0-4c-0.1-0.2-0.2-0.3-0.3-0.4
	c-0.1,0.2-0.3,0.4-0.3,0.6C68,149.4,68.1,150.7,68.2,152z M66.2,150.1v-0.7l-0.4,0.3l1.7,2.2l-0.5-0.4l-0.3,0.9l1.2-0.2l0.4-1.9
	l-0.5,0.6l-1.1-0.3v-0.7h-0.5V150.1z M8.7,221.8l0.9,0.6l1.6-1.7l-0.2-0.3L8.7,221.8z M5.6,174.6H6l0.2-2.2H5.1L5.6,174.6z
	 M4.3,180.5l-2.8,2.1l0.6,0.6l1.3-0.2L4.3,180.5z M3.2,157.6h0.4l0.8-3.1H3.7L3.2,157.6z M2.7,167.1h0.5l0.4-3.6H3.1L2.7,167.1z
	 M1.2,209.1l0.5,0.3l1.4-2.1l-0.5-0.4L1.2,209.1z M5.8,129.3l-0.3,0.6l1,0.3l1.3-2.2L5.8,129.3z M65.5,148.3h0.3l-0.6-4.2h-0.4
	L65.5,148.3z M7.2,108.7l-1.1-1.4v2.6L7.2,108.7z M9.4,101.4l0.2,0.4l2.9-1.2l-0.2-0.4L9.4,101.4z M22.5,99.2v-0.3l-3.1,1.3l0.2,0.4
	L22.5,99.2z M4,168.6h0.7v-2.1H4.4L4,168.6z M47.8,20h0.4l-0.6-3.3h-0.4L47.8,20z M65.7,198.7H66c0-0.7,0-1.4,0-2
	c-0.1-0.2-0.3-0.3-0.5-0.4l-0.2,0.3L65.7,198.7z M5.1,114.4l0.4,0.3l1.8-2l-0.4-0.3L5.1,114.4z M67.4,184.6l-1.6,0.2v0.3h0.5v0.8
	l0.4-0.8l0.5,1.2v-1.9L67.4,184.6z M16.2,99.7v-0.4l-2.3,0.9c-0.1,0.1-0.1,0.3-0.1,0.4h-0.1L16.2,99.7z M1.2,201.7l0.5,0.4l1.2-1.8
	L2.6,200L1.2,201.7z M6.5,114.8l0.6,0.6l1.2-1.2L8,113.9L6.5,114.8z M7.3,107.1v0.8l0.5-0.2l-0.5-1.4l-1.4,1L7.3,107.1z M16.4,102.6
	l0.2,0.4l2.9-1.4v-0.2L16.4,102.6z M18.3,100.5l-0.3-0.3l-1.7,1.6l0.3,0.3L18.3,100.5z M62.1,210.5h-0.4l-0.5,2h0.5L62.1,210.5z
	 M6.8,120.8L5.2,122l0.6,0.5L6.8,120.8z M4.2,151.9H3.6c-0.1,0.4-0.2,0.9-0.2,1.3h0.5L4.2,151.9z M55.9,97.4l-0.2,0.5l1.4,0.6
	l0.2-0.5L55.9,97.4z M9,108.1l0.7,0.2c0.1-0.1,0.1-0.3,0.1-0.4L9,107.3l-0.6,1.2h0.2L9,108.1z M64.8,207.7h-0.3l-0.3,2.2h0.5v-2.3
	L64.8,207.7z M63.9,198.5l0.2,1.4v0.2h0.2l0.6-1.6L63.9,198.5L63.9,198.5z M5.9,170.4l-1.1-1L4,170.5l0.4,0.2L5.9,170.4z M6.2,175.2
	L6,174.7L5,176L6.2,175.2z M3.5,173.8l-0.4-0.3l-0.8,1c0,0.1,0.1,0.3,0.2,0.4L3.5,173.8z M6.4,104.4c0,0.3,0.1,0.6,0.2,0.8l1.1,0.4
	v-0.3L6.4,104.4z M62.8,209.6l0.5,1c0.1-0.4,0.2-0.7,0.3-1.1c-0.1-0.2-0.2-0.3-0.3-0.4L62.8,209.6z M18.3,36.5v0.3l2.1-0.4v-0.5
	L18.3,36.5z M3.8,204.1l-0.2-0.3l-1.4,1.3l0.2,0.2L3.8,204.1z M7.4,139.8v-0.4l-0.8,0.5c-0.2,0.3-0.3,0.6-0.4,0.9L7.4,139.8z
	 M1.3,203.9l0.4,0.2l0.5-1l-0.5-0.2L1.3,203.9z M3.7,161.9h0.4v-1.3H3.9L3.7,161.9z M1.4,199.4l0.4,0.2l0.7-1.3l-0.4-0.2L1.4,199.4z
	 M4.7,155.4l0.3,0.2l0.6-1l-0.3-0.3L4.7,155.4z M23.5,61.7v-0.2H22v0.2H23.5z M65.9,205.8h-0.2v1.8H66v-1.9L65.9,205.8z M4.6,124.7
	H5l0.4-1.2H5.1L4.6,124.7z M3.1,162.5h0.3l0.2-1.6H3.3L3.1,162.5z M66.2,194.4h-0.5c0.1,0.4,0.1,0.7,0.2,1.1h0.3V194.4z M9.5,220.4
	l-0.9-0.9l-0.4,1.1l0.3,0.2L9.5,220.4z M67.6,120.7c-0.1,0.3-0.1,0.7,0,1c0.3,0.2,0.6,0.3,0.9,0.3L67.6,120.7z M17.4,100.4l-0.2-0.3
	l-1.3,0.7l0.2,0.3L17.4,100.4z M67.3,144.1l-0.7,0.6l0.6,0.5L67.3,144.1z M27.5,36.9v-0.2L26,36.9c0,0.1,0,0.3,0,0.4L27.5,36.9z
	 M66.3,142.4l-0.3-0.3c-0.2,0.1-0.4,0.3-0.5,0.5c0,0.2,0.1,0.4,0.2,0.6L66.3,142.4z M63.7,213.4H64v-1.2h-0.4L63.7,213.4L63.7,213.4
	z M46.2,63v-0.2h-1.3v0.3h1.4L46.2,63z M5.5,171.1l0.3,0.2l0.7-0.9l-0.3-0.2L5.5,171.1z M5,128.5H4.5l-0.2,1.2h0.3L5,128.5z
	 M65.5,115.5h0.4c0-0.3-0.1-0.6-0.1-0.9h-0.4C65.4,114.9,65.4,115.2,65.5,115.5z M8.2,110.1l1.1-0.6l-0.4-0.3L8,110.5h0.1L8.2,110.1
	L8.2,110.1z M2.6,185.4l0.3,0.3l0.6-0.8l-0.2-0.2L2.6,185.4z M3.5,159.5h0.3c0-0.2,0-0.3,0-0.5l-0.3-0.3L3.5,159.5L3.5,159.5z
	 M10.2,102.6l-1.3,0.6l0.5,0.5L10.2,102.6z M5.7,152.3v0.3h0.8v-0.5L5.7,152.3z M6.9,144.9H6.7l-0.5,0.5c-0.1,0.1-0.1,0.3-0.1,0.4
	h0.4L6.9,144.9z M64.8,210.1l-0.6,1l0.4,0.8L64.8,210.1z M1.9,184.3l0.2,0.2l0.8-0.9H2.7L1.9,184.3z M65.7,193.3
	c-0.1,0.2-0.2,0.4-0.3,0.6l0.3,0.3L66,194C66,193.8,65.9,193.5,65.7,193.3L65.7,193.3z M14.5,39.1v1.2H15L14.5,39.1z M66.6,118.3
	h-0.2v1.1h0.3v-1.1H66.6z M66.9,116.1h0.3v-1.2h-0.4L66.9,116.1L66.9,116.1z M64.2,140.9c-0.1,0.2-0.3,0.4-0.3,0.6
	c0.1,0.4,0.3,0.7,0.5,1L64.2,140.9z M2.9,198.9l0.3,0.2l0.5-0.9H3.5L2.9,198.9z M5.8,116.5H6l0.4-1H6.1L5.8,116.5z M67,198.8
	L67,198.8l0.1-1.4h-0.2v1.4H67z M66.8,113.2h-0.3l0.4,1h0.2L66.8,113.2z M4.2,158.6h0.3l0.2-1H4.4L4.2,158.6z M63.9,142.4v0.3
	l0.7,0.3v-0.5L63.9,142.4z M66.3,147.9L66.3,147.9l-0.1,1h0.3v-1H66.3z M10.1,110.9h0.3l0.5-1h-0.3L10.1,110.9z M1.8,191.8H2
	l0.6-0.7l-0.3-0.2L1.8,191.8z M8,105.3l-0.2,0.3l0.6,0.4v-0.3L8,105.3z M67.4,116.2h-0.2l-0.3,0.9h0.2L67.4,116.2z M64.8,150.9h-0.3
	v0.6h0.4v-0.6H64.8z M63,142.3h0.3v-0.8h-0.2v0.8H63z"/>
<path class="st0" d="M2.3,121.9l-0.3-1h0.3l0.2,1.1H2.3V121.9z"/>
<path class="st0" d="M7.4,209.8l1.1-1.4l0.3,0.3l-1.5,1l0,0L7.4,209.8z"/>
<path class="st0" d="M62.2,164.2l-0.7-2.2c-0.1,1.2-0.1,1.9-0.2,2.6c0,0.1-0.1,0.3-0.2,0.4l-0.3-0.4l-0.8-2.5c0-0.2,0-0.4,0.1-0.6
	l0.7,0.3l1.9,2.1L62.2,164.2z"/>
<path class="st0" d="M61.5,184.8h-0.1l0.4,3.1h-0.7c-0.2-1.3-0.4-2.6-0.5-4c0.2-0.2,0.4-0.4,0.7-0.5v1.2L61.5,184.8z"/>
<path class="st0" d="M6.9,132.4l-2,1.9h0.6v1.4H5c-0.2-0.9-0.8-1.9-0.5-2.6s1.5-0.6,2.3-0.9l0,0L6.9,132.4z"/>
<path class="st0" d="M59.6,168.4l-0.3-4.4l1,1c0.1,0.2,0.1,0.5,0,0.7l-0.3,2.6L59.6,168.4L59.6,168.4z"/>
<path class="st0" d="M62.3,160.7l-1.3-4.8l0.8-0.2l0.9,4.9h-0.4V160.7z"/>
<path class="st0" d="M61.7,149.4c-0.5-0.7-0.9-1.4-1.2-2.2c0-0.4,0.2-0.8,0.4-1.1c0.5,0.3,0.8,0.6,1.1,1.1
	C62,147.9,61.9,148.7,61.7,149.4z"/>
<path class="st0" d="M6.8,195v-1.5L6.3,194L6,193.6l2.6-1.6c0.1,0.2,0.1,0.5,0.1,0.7L6.8,195z"/>
<path class="st0" d="M6.9,132.4L6.9,132.4l0.6-0.3c0,1.5,0,2.8,0,4.2l0,0l-0.7-0.7l-1,0.6L5.6,136c0.4-0.3,0.8-0.6,1.2-1
	c0.2-0.4,0.1-0.9-0.3-1.2v0.7H6.3L6.9,132.4z"/>
<path class="st0" d="M10.1,114.2l0.4,1.4l0.9-1.2l0.4,0.4v1.2h-0.1v-0.7l-1.2,3.2L10.1,114.2z"/>
<path class="st0" d="M62.8,136.1l-0.8-1.3v2.6h-0.3v-3.8H62l1.1,2.5H62.8z"/>
<path class="st0" d="M51.6,221.8l1.9-2.4l0.4,0.3l-1.7,2.5L51.6,221.8z"/>
<path class="st0" d="M7.9,214l0.4-2l-0.7,0.3H7.5l2.7-1.6L7.9,214z"/>
<path class="st0" d="M11.6,131l-1.6,1.8c-0.2-0.1-0.4-0.3-0.5-0.5c0.1-0.5,0.3-1,0.7-1.4v1.3l1.2-1.4L11.6,131z"/>
<path class="st0" d="M60.1,151.7c0.4,0.7,0.8,1.4,1.1,2.2c0,0.4-0.2,0.9-0.5,1.2c-0.2,0.1-0.5,0.1-0.7,0.1c0-0.1,0-0.3,0-0.4h0.7
	L60.1,151.7z"/>
<path class="st0" d="M8.6,189.6l-0.7-0.8l2-0.9L8.6,189.6z"/>
<path class="st0" d="M9,137l2-2.3h0.5c0,0.2,0,0.3-0.1,0.5l-2.3,1.9L9,137L9,137z"/>
<path class="st0" d="M9.7,138.5l-0.4-0.9l1.7-0.9L9.7,138.5z"/>
<path class="st0" d="M6.1,202.6l1.9-2.7l0.4,0.3l-2.1,2.6H6.1V202.6z"/>
<path class="st0" d="M9.7,183.2l-1.6,1.3l-0.4-0.2l1.7-1.5L9.7,183.2z"/>
<path class="st0" d="M60.7,192.4l-0.7,0.2l0.3-2.5h0.4V192.4z"/>
<path class="st0" d="M8.5,150.3l0.4,0.3l-0.5,1l1.1-0.6c0,0.3-0.1,0.6-0.3,0.9c-0.2,0.1-0.4,0.1-0.6,0l-1.2-1.4l0.8,0.4L8.5,150.3z"
	/>
<path class="st0" d="M61.8,152.5l-0.9-1l-0.5,0.6v-1.6h0.5L61.8,152.5z"/>
<path class="st0" d="M64.1,122.5l-1.3,0.6l-0.2-0.6l1.4-0.6L64.1,122.5z"/>
<path class="st0" d="M64.6,126.3l-0.4-0.8l-0.4,0.2c-0.2-0.2-0.3-0.4-0.3-0.7c0.1-0.3,0.4-0.6,0.6-0.8l0.6,2h-0.1V126.3z"/>
<path class="st0" d="M8.4,142.9l1.3-1.7l0.5,0.5L8.4,142.9L8.4,142.9z"/>
<path class="st0" d="M61.3,165.1l0.4,2.1h-0.3l-0.6-2h0.5V165.1z"/>
<path class="st0" d="M8.1,179.4l1.1-1.4l0.3,0.2l-1.1,1.5L8.1,179.4z"/>
<path class="st0" d="M9.7,166.4l-1.3,1.5l-0.3-0.2l1.2-1.6L9.7,166.4z"/>
<path class="st0" d="M11.4,117.7c0,0.5,0,1,0,1.5l-0.3,0.2c-0.1-0.1-0.2-0.2-0.3-0.4c0.1-0.3,0.2-0.6,0.4-0.8l-0.2-0.5
	C11,117.7,11.4,117.7,11.4,117.7z"/>
<path class="st0" d="M7.8,176.2l0.2-0.4l0.8-0.8l0.2,0.3L7.8,176.2L7.8,176.2L7.8,176.2z"/>
<path class="st0" d="M10,130.3L9.6,130l1.3-1.5l0.2,0.2L10,130.3z"/>
<path class="st0" d="M58.6,190.3l-0.3,1.9c-0.2-0.2-0.4-0.4-0.5-0.7C58,191.1,58.3,190.7,58.6,190.3z"/>
<path class="st0" d="M8.6,164.8l-0.4-0.4l0.7-0.8l0.3,0.3L8.6,164.8z"/>
<path class="st0" d="M8.3,116.8l1.1-1.4l0.2,0.2l-1,1.5L8.3,116.8z"/>
<path class="st0" d="M9.8,168.8l-1.2,1.3l-0.3-0.2l1.2-1.3L9.8,168.8z"/>
<path class="st0" d="M59.2,179.2l-0.7-2h0.3l0.5,2.1h-0.1V179.2z"/>
<path class="st0" d="M56.8,214.4l-0.2-1.4H57l0.2,1.4H56.8z"/>
<path class="st0" d="M13.9,113.3l-1.2,1.3l-0.4-0.5L13.9,113.3z"/>
<path class="st0" d="M61.3,140.7l-0.7,0.4l-0.5-0.2l0.4-0.7L61.3,140.7z"/>
<path class="st0" d="M60.8,143.5l-0.7-0.3l0.5-0.5c0.2,0.2,0.3,0.5,0.4,0.8c-0.1,0.2-0.3,0.4-0.5,0.5l-0.3-0.3L60.8,143.5z"/>
<path class="st0" d="M8.6,133.7c-0.1-0.2-0.2-0.3-0.2-0.5l0.8-0.6l0.2,0.3L8.6,133.7z"/>
<path class="st0" d="M61.5,153.4l0.6-0.8l0.3,0.2l-0.7,1L61.5,153.4z"/>
<path class="st0" d="M63,174.1c-0.1-0.1-0.2-0.3-0.2-0.5l0.4-0.5l0.4,0.4L63,174.1z"/>
<path class="st0" d="M9.2,157l0.9-1.1l0.3,0.2l-0.8,1.2L9.2,157z"/>
<path class="st0" d="M10.5,133.3l1.5-0.7l-1,1.1L10.5,133.3z"/>
<path class="st0" d="M63,132.5l0.3,1.5H63l-0.4-1.5H63z"/>
<path class="st0" d="M8.3,155.5l1-1.2l0.3,0.3l-1.1,1v-0.1H8.3z"/>
<path class="st0" d="M59,148.3l0.5,0.9h-0.6c-0.1-0.3-0.2-0.6-0.2-0.9H59z"/>
<path class="st0" d="M5.7,214.8l-0.3-1.1h0.8L5.7,214.8L5.7,214.8z"/>
<path class="st0" d="M62.2,124.1l-0.9,0.4l0.5-1.3L62.2,124.1z"/>
<path class="st0" d="M62.6,149.7l-0.6,1l-0.3-0.2l0.5-1L62.6,149.7z"/>
<path class="st0" d="M8.4,173.4L8.1,173l0.5-0.6l0.3,0.2L8.4,173.4z"/>
<path class="st0" d="M9.5,144l1.1-1l0.2,0.2l-1.1,1L9.5,144z"/>
<path class="st0" d="M7.8,176.2l-0.6,1.4l-0.4-0.2L7.8,176.2L7.8,176.2L7.8,176.2z"/>
<path class="st0" d="M64.6,118.3v1.3h-0.2v-1.3H64.6L64.6,118.3z"/>
<path class="st0" d="M60.3,133l0.7-1.2h0.2l-0.7,1.2H60.3z"/>
<path class="st0" d="M6.4,156.3l1-1.2h0.2l-1,1.2H6.4z"/>
<path class="st0" d="M5.9,179.5V178h0.2v1.5H5.9z"/>
<path class="st0" d="M62.5,183.7l0.4,1.1h-0.3l-0.4-1.1H62.5z"/>
<path class="st0" d="M8,198.1l1.1-0.8v0.2L8,198.4V198.1z"/>
<path class="st0" d="M58.2,170.8l0.9,0.2v0.3l-0.9-0.2V170.8L58.2,170.8z"/>
<path class="st0" d="M62.4,181.7v0.8h-0.6l0.3-0.8H62.4L62.4,181.7z"/>
<path class="st0" d="M62.8,151.8L63,153l-0.7-0.9L62.8,151.8z"/>
<path class="st0" d="M63.2,128.5l0.5,1.1l-0.5-0.2c-0.1-0.3-0.2-0.6-0.3-0.9h0.2L63.2,128.5z"/>
<path class="st0" d="M64.1,175.5l-0.6-0.8l0.3-0.2l0.5,0.8L64.1,175.5z"/>
<path class="st0" d="M6.4,213.5l0.6-1.1l0.3,0.2l-0.7,1L6.4,213.5L6.4,213.5z"/>
<path class="st0" d="M7,201l-1,0.9l-0.2-0.2l1.1-0.9H7V201z"/>
<path class="st0" d="M55.5,215.9l0.2,1h-0.3v-1h0.3H55.5z"/>
<path class="st0" d="M62.1,121.2l0.6-0.3v1L62.1,121.2z"/>
<path class="st0" d="M61.8,131.6v1.2h-0.1v-1.3h0.2L61.8,131.6z"/>
<path class="st0" d="M7.3,119.5v-1h0.2v1.1L7.3,119.5L7.3,119.5z"/>
<path class="st0" d="M10.9,138.6l-0.9,1l-0.3-0.3l0.9-1L10.9,138.6z"/>
<path class="st0" d="M7.6,162l-0.4,0.5L7,162.2l0.5-0.4v0.2H7.6z"/>
<path class="st0" d="M58.4,159.2l-0.2,0.7h-0.3l0.3-0.6h0.3L58.4,159.2z"/>
<path class="st0" d="M7.9,158.8l-0.6,0.9l-0.2-0.2l0.7-0.9H8L7.9,158.8z"/>
<path class="st0" d="M65.3,122l0.2-0.8h0.2l-0.2,0.8H65.3z"/>
<path class="st0" d="M64.2,109.8l0.7,0.6l-0.4,0.4l-0.6-0.6L64.2,109.8z"/>
<path class="st0" d="M63.9,113.7l0.8,0.5h-1L63.9,113.7L63.9,113.7z"/>
<path class="st0" d="M62.1,188.8l0.3,1.2c-0.2-0.1-0.4-0.3-0.5-0.5C61.9,189.3,62,189,62.1,188.8z"/>
<path class="st0" d="M15.6,78.2c-0.5,0.7-0.9,1.3-1.3,1.8c-0.3,0.3-0.7,0.6-1.1,0.8l-0.4-0.3l1-1l1.3-1L15.6,78.2z"/>
<path class="st0" d="M10.8,94.6l-2.7,1.7L7.8,96l1.3-1.1C9.7,94.7,10.2,94.6,10.8,94.6z"/>
<path class="st0" d="M8.1,93.8l1.1-1.2c-0.1,0.5-0.3,1.1-0.5,1.6c-0.1,0.2-0.3,0.4-0.6,0.4c-0.3-0.1-0.6-0.2-0.8-0.4
	c0.1-0.2,0.2-0.4,0.4-0.5L8.1,93.8L8.1,93.8z"/>
<path class="st0" d="M23.8,66.1l-1.3,0.7c0-0.3,0.1-0.6,0.2-0.8c0.3-0.1,0.7-0.2,1-0.2L23.8,66.1L23.8,66.1z"/>
<path class="st0" d="M61,92.1l-1,0.6l-0.2-1L61,92.1z"/>
<path class="st0" d="M54.4,73.9L53,74.5c0-0.3,0.1-0.6,0.3-0.8C53.7,73.7,54.1,73.8,54.4,73.9z"/>
<path class="st0" d="M54.9,77l1.4,0.7h-2L54.9,77z"/>
<path class="st0" d="M56.9,80l-1,0.4c-0.2-0.1-0.3-0.2-0.3-0.4c0.1-0.2,0.3-0.4,0.5-0.5C56.4,79.6,56.7,79.8,56.9,80z"/>
<path class="st0" d="M61.7,94.4c-0.1,0.4-0.2,0.7-0.3,1.1h-0.5l0.4-1.2L61.7,94.4L61.7,94.4z"/>
<path class="st0" d="M51,68l-0.9,0.6l-0.3-0.3l0.8-0.7L51,68z"/>
<path class="st0" d="M50.9,72.9l0.9-0.8c0.1,0.2,0.1,0.5,0.1,0.7c-0.2,0.2-0.5,0.3-0.8,0.4L50.9,72.9z"/>
<path class="st0" d="M51.5,71.5l-1,0.6l-0.3-0.3l0.8-0.6L51.5,71.5z"/>
<path class="st0" d="M58.4,87c0.2,0.3,0.3,0.6,0.4,0.9c-0.3,0.3-0.6,0.5-1,0.7L58.4,87z"/>
<path class="st0" d="M65.2,84.7c0.1,0.1,0.2,0.3,0.3,0.5c-0.1,0.2-0.2,0.4-0.4,0.5c-0.1-0.1-0.2-0.3-0.3-0.5
	C64.9,85,65,84.8,65.2,84.7z"/>
<path class="st0" d="M56.9,82.7L55.8,84l-0.1-0.1l1-1.3L56.9,82.7z"/>
<path class="st0" d="M60.4,87.5l0.6,0.7l-0.3,0.3c-0.2-0.1-0.4-0.2-0.5-0.4C60.2,87.9,60.3,87.7,60.4,87.5z"/>
<path class="st0" d="M50.9,69.7l0.5,0.5l-1.3,0.5L50.9,69.7z"/>
<path class="st0" d="M66.7,91L66,91.8l-0.2-0.2l0.7-0.8L66.7,91z"/>
<path class="st0" d="M24.9,64.1l-0.7,0.5l-0.3-0.2l0.5-0.4L24.9,64.1z"/>
<path class="st0" d="M50.3,66.6l-0.4,0.6h-0.3l0.4-0.7L50.3,66.6z"/>
<path class="st0" d="M48.9,42.3l0.5-0.3c0.1,0.2,0.2,0.5,0.2,0.7l-1.1,5c-0.1,0.5-0.1,1-0.1,1.5c0,0.9-0.1,1.8-0.3,2.6
	c-0.5,0.9-1.1,1.7-1.8,2.4c-0.8-0.6-1.5-1.3-2-2.1c-1.2-2.6-0.2-5.1,1-7.4c0.3-0.6,0.5-1.4,0.8-2c0.5-0.7,1-1.3,1.6-1.9L48.9,42.3z
	 M48.4,42l-0.8-0.2c-0.5,0.9-0.8,1.9-1.1,2.9c-0.4,2.2-0.7,4.5-0.9,6.7c0.1,0.7,0.2,1.3,0.5,1.9l0.3,0.2c0.2-0.4,0.4-0.9,0.5-1.3
	C47.4,48.7,47.9,45.3,48.4,42L48.4,42z"/>
<path class="st0" d="M42.4,50c-0.4,1.2-0.8,2.4-1.4,3.5c-0.5,0.6-1.2,1.2-1.9,1.6c-0.4-0.7-1.2-1.5-1.1-2.2
	c0.3-3.5,0.7-6.9,1.3-10.4c0.4-0.7,1.1-1.1,1.9-1.1c0.8,0.3,1.4,1.1,1.5,1.9c-0.2,2.1-0.6,4.2-1,6.2c0,0.1,0,0.3,0.1,0.4h0.5
	L42.4,50z M39.1,52.6l0.5,1.5c0.2-0.2,0.4-0.4,0.5-0.6c0.6-3.3,1.2-6.6,1.7-10c0-0.5,0-1-0.1-1.5c-0.5,0.5-1.5,0.8-1.5,1.4
	c-0.6,3.2-0.9,6.3-1.2,9.2H39.1z"/>
<path class="st0" d="M32,53.3c0.1-3.1,0.4-6.2,0.9-9.3c0.2-0.9,2-1.5,3.1-2.2c0.4,0.8,0.6,1.6,0.7,2.5c-0.1,2.8-0.3,5.6-0.5,8.4
	c-0.2,0.7-0.6,1.4-1.2,1.8c-0.5,0.5-1.3,0.7-2,0.6C32.6,54.9,32.4,54,32,53.3z M36,42.8c-0.7,0.4-1.5,0.7-1.6,1
	c-0.4,2.9-0.7,5.7-0.9,8.6c0.1,0.6,0.3,1.2,0.6,1.8c0.3-0.5,0.6-1,0.8-1.6c0.2-1,0.3-2,0.4-3L36,42.8z"/>
<path class="st0" d="M51.8,97.8l2,0.9l-0.3,0.6L51.8,97.8z"/>
<path class="st0" d="M19.1,104.4l-1.3,0.5v-0.2l1.2-0.6L19.1,104.4z"/>
<path class="st0" d="M60.9,103.3v-1.7l0.5,0.9L60.9,103.3z"/>
<path class="st0" d="M68.4,102.9l-0.3,1.2h-0.3l0.4-1.1L68.4,102.9L68.4,102.9z"/>
</svg>
