<svg id="beer_beerwine_Image" data-name="beer(beerwine) Image" xmlns="http://www.w3.org/2000/svg" viewBox="0 0 161.5 183.3"><title>beer(beerwine)</title><path d="M108.1,89.6c2.5-2.6,2.7-5.3,2.4-8.1-0.1-.8-0.3-1.6-0.4-2.4V78.9l0.7,0.4a32.1,32.1,0,0,1,.9-3.7c1.5-4.1,3-8.2,4.8-12.1s6.7-4.6,9.5-1.9,1.8,3.5,1.8,5.4a111.2,111.2,0,0,1-.7,11.2c-0.1,1.6,0,3.3-.7,4.6s-1.1,4.9-.5,7.3c0.2,0.8,1.5,1.4,2.3,2.1,0.7-1,1.9-1.9,2.1-3,0.5-3,.6-6.1,1-9.1,0.8-5.6,1.6-11.2,2.5-16.8,0.1-.3.2-0.7,0.2-1s0-.7,0-1l-1.5,1a2.4,2.4,0,0,0-.4.9l1.2-.2-1.5,1.4a0.8,0.8,0,0,1-.6-0.3,3.2,3.2,0,0,1,.2-1.5,15.6,15.6,0,0,1,1.6-1.9v0.6l0.6,0.3,3.4-7.6-0.7.3h-0.1c1.1-1.8,2.1-3.6,3.2-5.3s2.3-3,3.5-4.5,0.6-3.1,1.3-.5l-0.4,1.9-0.2-1.1-0.9,1.4h0.2l0.7-.9a13.4,13.4,0,0,1-.6,2c-0.4.8-1,1.6-1.8,3.1l0.3-2.3a27.7,27.7,0,0,0-1.8,2.9c-1.3,2.9-2.5,5.8-3.7,8.8-0.2.5-1.7,2,.5,1.7s3.9-1.2,5.8-1.3a44.2,44.2,0,0,1,7.9.4c3.8,0.5,7.6,1.6,11.3,1.7s5.9,2.8,8.7,4.5a22.2,22.2,0,0,1,4.4,3.8c0.5,0.5.3,1.6,0.6,2.3a2.4,2.4,0,0,0,1.7,1.3l-0.2,1.4H177l0.3-1.5c0.1,1.1.1,2.3,0.3,3.5s0.8,3.8,1.1,5.7a55.9,55.9,0,0,1,.5,7,88,88,0,0,1-.4,9.2c-0.6,5.5-1.4,10.9-2,16.3-0.2,1.5,0,2.9-.2,4.4s-0.7,2.1-.7,3.2c0,4.3-2.3,7.8-3.6,11.6-0.4,1.1-.5,2.4-0.9,3.5a11,11,0,0,1-1.3,1.9l-2.2,3.6A17.1,17.1,0,0,1,161,150c-1.5.8-2.7,2.3-4.2,3.2a50.3,50.3,0,0,1-5,1.9c-0.7.3-1.1,1-1.8,1.3a22.8,22.8,0,0,1-2.9.9l-1.1.3-4.3.9-6.5,1c-2,.3-4.1,0-5.9.7s-4.2.7-3.6,3.8c0.2,1.3-.2,2.7-0.3,4.1a1.2,1.2,0,0,0,.2.5l-1.5,2.9-0.4-.2c-4.8,5.4-11.7,6.8-18.1,9.3l0.6-1.3-1.1.8-0.3.9c0.2-.1-0.1.2-0.3,0.2a4.5,4.5,0,0,0-1.4-.5l0.4,0.5-8.4,2.8-2.8.6h0l-6.3,1.2,1,1a8.9,8.9,0,0,1-2.3.8c-2.2.1-4.4,0-6.6,0.3a29.4,29.4,0,0,1-4.5.5c-5.4-.2-10.7-0.5-16.1-1a48.4,48.4,0,0,1-7.1-1.2c-5-1.2-9.9-2.4-14.8-3.7a39,39,0,0,1-7.6-2.7c-3.4-1.8-7.4-3.3-8.8-7.4a16.8,16.8,0,0,1-.4-5.3c0-1.8.2-3.6,0.3-5.3l-0.5-.3,0.4-.7,0.2-1.5H19.1c0.1-1.3.1-2.5,0.2-3.7,0.2-2.9.4-5.8,0.7-8.8s0.9-4.9,1-7.4-0.5-2.7-.6-4.1,0.1-4.1.1-6.1,0.1-4.2.2-6.4,0.2-4.8.3-7.1a3,3,0,0,1,.4-1.5c0-1.7.1-3.4,0-5.1s-0.4-5.8-.4-8.7,0.4-4.7.4-7.1,0.2-6.1.1-9.2-0.5-8.7-.7-13c-0.1-2.3,0-4.6-.1-6.8s-0.4-3.4-.5-5.1,0.1-4.3.1-6.5a8,8,0,0,0-.6-2.1H19.1a2.5,2.5,0,0,0,.8-0.9,7.3,7.3,0,0,0,.1-2.5,13,13,0,0,0-.9-1.8,4.6,4.6,0,0,1-.1-1.4c0-.3,0-0.6,0-0.8H18a3.2,3.2,0,0,1,0-.4c0-.7,0-1.4,0-2.1s0.2-3.1.2-4.7a18.6,18.6,0,0,0-.3-2.7c-0.1-.4-0.2-0.8-0.3-1.2H18l1,0.6,0.6-1.6-0.4-.2-0.4.8L18.2,31c1-2,1.6-4.2,3-5.8A67.5,67.5,0,0,1,27.3,19l0.4-.2,0.2,0.6,1,0.2-0.8.8-4.4,3.2a0.8,0.8,0,0,0,.2.9l-0.6.9-0.5-1-0.6,2,0.3,0.3,0.6-.3-0.6-.5h1.8a2.9,2.9,0,0,1,.3,1L23.1,28l-1.2-.5-1,2.5h1.3l-0.5.4a4.3,4.3,0,0,0-1.1.2c-0.3,1.3-.5,2.4,1.1,3.4,3.9,2.2,7.9,2.2,12,1.1l1.3-.4h0l-0.8-.3,0.2-.2a5.1,5.1,0,0,0,1.2.5,22.2,22.2,0,0,0,3.4.2,33.8,33.8,0,0,0,3.5-.5l1.3-.2,3.4,0.5c4.3,0.3,7.9,2.5,11.7,4.4a16.4,16.4,0,0,0,2.5.7,4.1,4.1,0,0,1,.9.6,1.2,1.2,0,0,0-.4.5,0.8,0.8,0,0,0,.5.9,6.5,6.5,0,0,1,1,1.3c1.4,3.4,4.2,5,7.4,6.2a10.5,10.5,0,0,1,1.5.4l3.2,1.9a6.1,6.1,0,0,0,1.7.3c0.1-2.8.1-2.8,0.8-2.9l-0.6,1,1.7-.6,1.1-.2-2.7,1.5V51c0.9,0,2,.3,2.5-0.1a23.8,23.8,0,0,0,3.1-3.3l-0.3-.2h1.6a21.6,21.6,0,0,0-2,2,27.9,27.9,0,0,0-1.7,2.6l1.5,0.5,1.6,0.9,2.4-2.1L84.8,54a38.9,38.9,0,0,1,3.4,2.8c0.3,0.3.1,1.3,0.2,1.9a5.6,5.6,0,0,0,.8,2,5.9,5.9,0,0,0,1.8,1l-0.9,3.6,3.4-3,0.6,0.3a3.3,3.3,0,0,1-.7,1.3,6.6,6.6,0,0,0-1.8.9h0.6l-0.3.6a13.8,13.8,0,0,0-.4,1.6l0.8,0.4-1.6,4.8,0.8-.2-0.2,2.1c-2.1.7,0.2,2.4-.3,3.7h0.6l-0.4,1.3a1,1,0,0,0,.6.2l1.9-1.6L93.9,79a10.4,10.4,0,0,0,.8-2.9c-0.1-1.7-.5-3.4-0.7-5.2s0.4-.8.4-1.2c0.1-3.6.8-7,3.5-9.4s3.3-1.5,5-2.2a1.2,1.2,0,0,1,.5.3,10.2,10.2,0,0,0,2.5,1.4c1.9,0.4,3.9,3.5,4.4,6.3s-1.1,7.9-2.1,11.8a31.6,31.6,0,0,0-1.1,6.1C107.1,85.7,107.7,87.5,108.1,89.6ZM19.9,37.7l0.9,1.1,0.8-1.2a12.1,12.1,0,0,1,.2,1.2,1.9,1.9,0,0,1-.1.6,1.6,1.6,0,0,0,.8.1,6.3,6.3,0,0,0,1.1-.9,1.7,1.7,0,0,1,.4-0.4l0.6,0.3-0.8.8-0.8,1c-0.1.2-.1,0.6-0.2,0.8a1.4,1.4,0,0,1-.7,0,1.5,1.5,0,0,0-.8.1,2.1,2.1,0,0,0,0,.9H22l0.6-.2,2.6,0.2-0.4.5h0.3a3.2,3.2,0,0,0,.5,1.2,12.8,12.8,0,0,0,3.2,0c1.4-.2,2.9-0.7,4.2-1l0.2,1.2h0.3v0.8l0.4-1L34.7,44l1.3-.8-0.6,1.5,1.4-1.2L37.1,44l0.4-1.5,0.2-.3,0.8,1.1,0.5-.6,1,0.2v0.2l2.7,0.3V43l0.9,0.5v-1l0.4,1,0.4-.5,1.4,0.8-3.2.4H40l-0.9.3a10.9,10.9,0,0,0-2.6.3A45.7,45.7,0,0,0,32.5,47l0.6-1.1-0.5-1.3-0.5.7L31.9,45l-3.5.2H25.5l-1.8-.6v0.9L23,44,22,45.6l1.2,0.5-0.3.5,0.8,0.4-1.1,1.1,1.5-.4v0.3l-2.3,1.8,0.4,0.6-0.3.9h1.4l-0.7.6-0.7.8L22.1,53a4.1,4.1,0,0,0,1.1-.5l2.1-2,0.5,0.4-1.1,1.6a5.9,5.9,0,0,1-1.3,2.2,5,5,0,0,1-1.4.7c0,0.3-.1,1-0.1,1.6a1.6,1.6,0,0,0,.1.5l0.3-.4,1.3-2.4,0.5,0.2L23.8,56l-1.6.6L23,56.9a4.7,4.7,0,0,0-.5.9c-0.2.6-.2,1.2-0.3,1.8a3.7,3.7,0,0,0,1.1-.3l3.7-2.6h0.6a1.2,1.2,0,0,1-.3.5,15.2,15.2,0,0,0-2.9,1.9,12.8,12.8,0,0,0-2.1,3.4,4.3,4.3,0,0,0,.2,1.8,2.5,2.5,0,0,1-.1.6h0.8a0.8,0.8,0,0,0,.4-0.5,4.7,4.7,0,0,0,0-1L24.3,64a6.7,6.7,0,0,1-.6,1.1,8.7,8.7,0,0,0-1,1.8,5.6,5.6,0,0,0,.1,1.7c0,0.4,0,.7,0,1.1l1.2-.7,1.7-1.3-1.9,2.5c-0.4.5-.6,1.1-1,1.7l1.4-.8,0.3-.2,2.6-1.7v0.2l-4.7,4.2H24a3.3,3.3,0,0,0-.3.7c-0.1.8-.2,1.6-0.3,2.5l1.3-.6h0.2l-0.6.7-0.8,1.6,0.3,0.2,1.5-1.2h0.3l-2.4,3.9L23.5,82l5-3.3a19.2,19.2,0,0,1-2.6,2.4l-2.4,2.3,0.4,0.4,2-1.2-2.2,2.7,0.5,0.3-0.7,1.2,3-1.8c-0.6.7-1.2,1.3-1.7,2a21.7,21.7,0,0,0-1.2,2.1L24,89.4,27,87a6.5,6.5,0,0,1-.6,1.2,9.4,9.4,0,0,0-1.8,1.7,8.4,8.4,0,0,0-.6,2.4l1.4-.8,1.5-1.2a16.4,16.4,0,0,1-2.5,3.2,1.7,1.7,0,0,0,0,1h0.3L27.2,93l-3.4,4.2h1l-0.4.3-0.6,1v0.2l0.8-.7,1.5-1.4,0.8-.3a4.3,4.3,0,0,1-.5.8l-1.4,1.4a4.4,4.4,0,0,0-.5.7h0.6l-1.9,3,0.7,0.5,3.3-3.8,0.4,0.4-4.1,5.1,0.3,0.3,1.2-.8,0.2,0.2-2,1.7L23,115a18.6,18.6,0,0,1,1.5-1.6l2.9-2.2h0c-2.4,1.6-4.7,5.7-3.8,6.8l2.5-2.7,0.2,0.2-1.5,2.7,0.8-.6c0,1.5-3.2,1-1.9,3.2l0.4-.2v1.5h0.2l-1.1,3.6h0.4l4.1-4.7a20.3,20.3,0,0,1-2.3,3.6,18.3,18.3,0,0,0-.8,1.9l-1.2,2a0.9,0.9,0,0,0,.2.5l0.4-.2,3.6-4h0.5a1.2,1.2,0,0,1-.1.5l-2.9,3.5-1.3,1.8h0.2l-0.7,7.5,2.8-1.7h0c-0.9,1-1.8,2-2.6,3a5.8,5.8,0,0,0-.6,1.9,1.2,1.2,0,0,0,.1.5l0.4-.3,4.1-4.6a4.6,4.6,0,0,1,1.4-.7l-0.9.9-0.7.7-4,4.9,0.3,0.3,1.8-.8a14.1,14.1,0,0,0-2.3,2.1,7.9,7.9,0,0,0-.6,2.3l6.5-6.9,0.5,0.5-1,.6c-2.8,3.1-6.8,5.3-6.2,10.1l5.6-7.7,0.5,0.4-5.8,7.8-3,18.3,2.4-1.4a6.5,6.5,0,0,1-1.1,1.8,1.6,1.6,0,0,0-.1,1,0.7,0.7,0,0,0,.5.3l3.3-2.5,0.3,0.2L22,171.4l0.2,0.2h0.2l-0.5,1.7,2.7-1.2-2,1.7,0.9,0.9,5.4,2.9a6.8,6.8,0,0,0,1.6,1.5c1.2,0.4,2.6,1.2,3.7.9s2.3-1.7,3.4-2.7l0.5-.3a1.5,1.5,0,0,1-.3.7c-1.2.8-1.6,1.9-.1,2.5a42.4,42.4,0,0,0,6.3,1.5l6.8,1.3c2.9,0.5,5.9,1.1,8.8,1.4s7.8,0.5,11.7.6h5.1a10.7,10.7,0,0,0,3.8-.1l8.2-1.8,6.2-1.1c1.3-.3,2.6-0.8,3.9-1.2s5.6-1.5,8.3-2.6,2.2-1.8,3.3-2.8l0.7-.4a2.1,2.1,0,0,0,.2.7,1.3,1.3,0,0,0,.8.6,11.1,11.1,0,0,0,2.8-.9l6.6-4a6.2,6.2,0,0,0,1.1-1.3l-0.2,1.7c2.1-3,2.1-5.9,2.1-8.7l0.8-3.7a5.3,5.3,0,0,0,1.6.2c0.7-.1,1.4-0.6,2.1-0.8,5.3-.8,10.7-1.3,16-2.5a48.3,48.3,0,0,0,11-4.2c2.4-1.2,4.4-3.3,6.4-5.2a36,36,0,0,0,3.4-4c7.2-10.9,8.4-22.5,9.3-34.1v-2.2a16.4,16.4,0,0,0,.6-3c0.1-2.8.2-5.6,0.1-8.4-0.1-5.4.1-10.8-.6-16.2a28.8,28.8,0,0,0-3.9-9.9c-1-1.7-3.1-2.8-4.9-4a37.7,37.7,0,0,0-4.3-2.3l-0.4.2,0.2,0.4h-0.5a35.9,35.9,0,0,0-5.7-1.4c-4-.3-8.1-0.4-12.1-0.4a30,30,0,0,0-5.6.8c-0.9.2-2.2,0.5-2.4,1.1a26.4,26.4,0,0,0-.9,5.1,11.6,11.6,0,0,0,0,1.7h1c2.7-.8,5.4-2.2,8.1-2.2,4.9,0.1,10.1-.3,14.6,2.7,1.1,0.7,2.5.9,3.6,1.5,2.9,1.7,3.8,4.7,4.8,7.6,0.1,0.4.8,0.7,0.9,1.2a53.9,53.9,0,0,1,1.1,8.3c0.1,5.8-.2,11.6-0.4,17.4a35.7,35.7,0,0,1-.8,6.3c-1.3,5.8-2.4,11.7-4.3,17.4-1.3,4.1-1.6,8.8-5.5,11.8a42.3,42.3,0,0,0-3.3,3.1,21,21,0,0,0-3.9,2.1,10.8,10.8,0,0,1-3.3,1.1,80,80,0,0,1-10.2,1.4,53.2,53.2,0,0,1-9-.8,6.8,6.8,0,0,1-2.4-1.2c-0.5-.3-1.4-0.8-1.4-1.2,0-2.3.3-4.6,0.4-6.8,0.3-4.7.4-9.4,0.8-14s0.9-7.5,1.4-11.3,0.8-4.8,1.1-7.2,0.9-6.6,1.3-9.9c0.2-1.6.5-3.2,0.7-4.9a4.5,4.5,0,0,1-1.6.9c-2.3-.2-5.3-4.6-4.7-6.9s2-6,2.5-9.2a105.2,105.2,0,0,0,.6-10.8c0.2-3.5-1.4-5.6-4-5.6s-5.8,2.5-6.5,5-1.8,6.3-2.7,9.4c-0.3,1.1-.8,2.1-1.2,3.1a2.4,2.4,0,0,1-.3.8,56.5,56.5,0,0,1-1.1,7.1c-0.4,1.3-1.7,2.3-2.5,3.5-0.9-1-2.6-2.2-2.5-3.1,0.6-4.7,1.6-9.4,2.6-14s1.2-7.9-1.9-11.2c-0.5-.5-1.6-0.5-2.4-0.5a3.2,3.2,0,0,0-.9,1.1V62l-0.9,2-0.3-2,1.6-1-4.3.3-0.5.6-0.2-.2,0.6-1.1c-2.4.9-4.4,8.2-3.1,11.7a20.5,20.5,0,0,0,.2-2.7,19.7,19.7,0,0,1,.9-3h0a7.7,7.7,0,0,0,1.4-.6l2.4-1.9,0.4,0.5-0.5.8c1-.1,2,0.1,2.6-0.3s2.6,0.5,3.5,1.3,0.2,0.7.1,0.5l-1.5,1.4a1.5,1.5,0,0,0-.2.4h0.4l1.1,0.4-0.6,1h-0.2l0.2-.7-0.9-.8c-0.6,1-1.2,1.9-1.7,2.9a1.4,1.4,0,0,0,0,1,5.3,5.3,0,0,0,1.4.1l-0.2-.8V71.1l0.6,0.3c1.5,0.5,2.1,1.1.2,1.9a2.8,2.8,0,0,0-.8.7l-1.4,1.6-0.4-.4-0.3,2.2c-0.8.6-1.9,1.1-1.9,1.5a8.5,8.5,0,0,0,1.2,2.6l-1.5,1.4,0.3,0.3,2.1-1.7c-0.6.8-.5,1.1-0.1,1.3l-0.9,3h1.3l-1,1.7-0.6-.3-1.9,2.5-0.7,1.7h4.6l-0.8,1a3.2,3.2,0,0,0-.8.8,3.7,3.7,0,0,0,.9,1l0.8,0.7-1.7,1.1-0.4-.4-0.4,2.4a1,1,0,0,1,.7.9c-0.3.8-.8,1.5-1.2,2.2a6.7,6.7,0,0,0-.3,1.2h1.2a9,9,0,0,0-1.6,1.4c-0.7,1-1.2,2.1-1.8,3.1l1.3,0.3a1.7,1.7,0,0,1,.5.5c-1.8,2-2.2-1.1-3.5-1a2.1,2.1,0,0,1-.3-1.3,9.6,9.6,0,0,1,1-1.9,0.6,0.6,0,0,1,0,.6l-0.3,2,0.9-1.5,1.8-3a2.9,2.9,0,0,1-1.3.3,2.6,2.6,0,0,1-.8-1,1.4,1.4,0,0,1,.1-0.7h0.3l2.6,1.1-0.6-1.5,0.7,0.3-0.3-3.8a1,1,0,0,1-.5.1,1.9,1.9,0,0,1-.9-0.5,1.4,1.4,0,0,1,.1-0.7,2.4,2.4,0,0,0,.6.5,1.4,1.4,0,0,0,1,.1,1.2,1.2,0,0,0,.5-0.9l-3.1-3.9-0.6.4,0.6,2.4c0.4,0.1-.1.5-0.2,0.4a8,8,0,0,1-1.1-1.6,3.2,3.2,0,0,1-.2-1,1.5,1.5,0,0,0-.7.3,3.5,3.5,0,0,0-.3,1.7c2,1.1.9,2.2,0.1,3.3a7.9,7.9,0,0,0-.7,1.8l1.4-.2H96.3l0.6,3.1-1.1-1.4-0.5.5a14.2,14.2,0,0,0-.8,1.8,1,1,0,0,0,.4.6h0.4a0.9,0.9,0,0,1-.1.6c-1.1,1.2-2,2.5-.8,4.2H93.7L93,103.8l1,0.2a1.2,1.2,0,0,0,.2-0.7c0.1-1.2.2-2.4,0.3-3.6V99.2l-0.5.2-0.7.7V98.3a9.9,9.9,0,0,0-2.3.5,2.2,2.2,0,0,0-.5,1.4,2.3,2.3,0,0,0,.1.8H90.2l-0.6-.7a21,21,0,0,1,2.6-2.9c0.4-.3,1.2,0,2,0L96.2,95a1.1,1.1,0,0,0-.3-0.8c-0.5-.6-1.4-1.3-1.4-1.8a47.7,47.7,0,0,1,1.3-4.8,4.6,4.6,0,0,0-.1-1.5c-1.1.4-2.5,1.2-2-1.3a8.6,8.6,0,0,0-1,1.6c-0.3.7-.3,0.8-1,0.4H91.5a8.6,8.6,0,0,0-2.3.8,5.1,5.1,0,0,0-1.2,1.7,0.7,0.7,0,0,0,.3.4,7,7,0,0,0,2.5-.7c1.3-1,2.8-.9,3.1.3-1.4.5-3.4,0.6-2.3,3.1l-0.8-2.8-1.9,1.2,0.5,0.4-0.9,2.3-0.2.4a2.6,2.6,0,0,1-1.2-.5,2.2,2.2,0,0,1,.1-1.2l0.9,0.6,0.6-1c-1,0-2-.3-2.8.1s-0.6,1.3-1,2.2c-0.1-.7-0.6-2-0.2-2.4s1.8-.5,2.7-0.7l0.6-.2L87.9,90a2.7,2.7,0,0,1-.4-1.4,16.6,16.6,0,0,1,2-2.5,16,16,0,0,0-3.3,1.2c-0.3.2,0,1.2,0,1.8l-0.8-.3a5,5,0,0,1,.5-2,20.7,20.7,0,0,1,1.8-2.3l-0.8-1.2,0.9,0.4,1.3-2.4c-1.8,1.5-2.7.9-3.3-.7a2.5,2.5,0,0,0,.3,1.4,0.5,0.5,0,0,1,.1.3l-0.2.2a4.1,4.1,0,0,1-1.2-.5,0.9,0.9,0,0,1-.1-0.9l2.6-3c1.4-1.6,2.4-3.1,1.8-5.5s-0.5-4.7-.6-7.1,0.3-2.3-.2-3.2a54.7,54.7,0,0,0-4.1-6.5,4.2,4.2,0,0,0-2.1-1.1c-0.2-.1-0.6.4-1.4,1.1a4.8,4.8,0,0,0,.3-1.3,1.1,1.1,0,0,0-.5-0.8l-3.1-.7-4.7-1.2a1.7,1.7,0,0,1,.1.7c-0.3.9-.7,1.9-1,2.8a1.1,1.1,0,0,0,.5.9,2.2,2.2,0,0,0,1-.1l1.1-.5a2.5,2.5,0,0,1-.3,1.1l-3.2.6V56.1a2.3,2.3,0,0,0-1.1.4,9.1,9.1,0,0,0-.1,2H69.1l-0.4-1.3c-1.8,1.6-2,2.6-.5,3.4l-0.6.4L67,57.7l-2.1-1.4,0.3-.5a3.1,3.1,0,0,0,1,.8,7.3,7.3,0,0,0,1.8.1,0.8,0.8,0,0,0,.1-0.4,30.9,30.9,0,0,1-.2-3.2,5.4,5.4,0,0,1,.7-1.7l0.2,1.9,1.4-1.8,0.4-.7a14,14,0,0,1-1.8-.9c-1.6-1.2-3.3-2.3-4.9-3.7a43,43,0,0,1-3.3-3.5l-0.8.7a7.4,7.4,0,0,1,.5,1.2,1.5,1.5,0,0,1-.5.4l-0.2-1a4,4,0,0,1-.5,1.2c-0.3.4-1.1,0.5-1.2,0.9a8.4,8.4,0,0,0,.2,2.2l1.2-.7a4.4,4.4,0,0,1-1.9-.7c-0.3-.4-0.1-1.2-0.1-2l1-.3L57,44.1h0.9a1.1,1.1,0,0,0,.3-0.5H57.2l-2.2.3-2-.3H50a1.4,1.4,0,0,0-.6.5H48.9l-0.4-.5-0.3-.3a0.3,0.3,0,0,1,.1-0.3h0.4l0.5,0.2,3.6-.6,3.5-.3c0.2,0.3.3,0.1,0.5,0.1h1.9l-0.4-.9h0.2L61.1,42a2.6,2.6,0,0,0-.6-0.6l-4.8-2.5A20.4,20.4,0,0,0,45.3,36c-3.5,0-6.9.2-10.4,0.5s-4.6.6-6.9,0.9v0.5l-0.4-.4-0.3,2.2-0.6-1-2.1,1.1-0.2-.3,1.1,0.9L25,38l1,0.8V37.3a17.9,17.9,0,0,0-2.3.6,3.9,3.9,0,0,0-1,.9,2.6,2.6,0,0,1-.2-1,5.6,5.6,0,0,1,1-1.3l-1.7,1.1H19.9l1.4-.8-2.6-3.7ZM132.5,86.5c-0.8,4.3-1.6,8.5-2.4,12.7s-1.1,7.2-1.7,10.9-1.3,8.4-1.8,12.7-0.5,5.8-.7,8.7-0.5,7.2-.5,10.8c0,1.6-.1,3.9.8,4.7a10.7,10.7,0,0,0,5.9,2.1,40.1,40.1,0,0,0,8.3-.9c2.2-.4,4.4-1,6.6-1.5l2-.6,0.2,0.5-0.6.3c0.3,0.2.4,0.2,0.5,0.1l6.1-4.8a14.8,14.8,0,0,0,5.1-7.7c0.4-1.7.6-3.5,1.1-5.1s1.5-3.7,2.1-5.6c1.7-5.6,3.1-11.2,2.7-17.1-0.1-2-.1-4-0.2-6.1a6,6,0,0,0-.2-1.1h1c1.9-5.2-2.2-22.6-6-25l0.6-.5a3.4,3.4,0,0,0-.8-0.6,1.6,1.6,0,0,0-.7.2,1.3,1.3,0,0,1-.7.1,36.1,36.1,0,0,0-5-2.8c-1.3-.5-2.9-0.2-4.4-0.3s-4.3-.9-6.5-0.7a40.8,40.8,0,0,0-7.2,1.8c-0.7.2-1.8,0.5-1.9,0.9-0.3,2.3-.4,4.6-0.6,6.9s-0.3,4.9-.4,7.4ZM93.6,80.8l3-2.1,0.2,1.4L95.6,80l0.2,1.2H95.2V80.6a1.1,1.1,0,0,0-.4.4c0.1,1.4-1,1.5-2,1.7l-1,.3v0.5H91v0.7a6.7,6.7,0,0,0,1.7-.1L97,82.4v1.7H96.4l-0.6,1.5,0.7-.2,1.3,0.5a2.5,2.5,0,0,0-.6.7,27.6,27.6,0,0,0-1,2.8l0.9,0.5v0.9l1-.7a6.1,6.1,0,0,0,1.1-1.3,5.9,5.9,0,0,0,.5-1.5c0.1-.4.1-0.9,0.2-1.3s0.4-1.4.7-2.1l-0.3-.2-2.1-.4,0.5-2.3a0.9,0.9,0,0,0,0-.6l-1.3-1.5,0.3-.3,1.5,1.3,1.7-1.9c-2.8,1.6-2.7-1.7-4-1.6ZM101,67.4l-0.5.7a1.6,1.6,0,0,0-.4.4,0.6,0.6,0,0,0,.3.4l0.6-.2h1.2v0.4l1.4,0.4a1.7,1.7,0,0,0,.8.2,2.1,2.1,0,0,0,.7-0.9,10.4,10.4,0,0,0,.6-1.8,6.8,6.8,0,0,0,.1-1.4h-0.5v1.2l-1.1.5-0.3-.4-0.5.8-0.8-1.3L101.5,68l-0.9-1.2-0.4.9ZM56.2,185.6v-0.7l-15.3-2.6v0.5Zm34-99.9,0.2,0.6,2.4-.3a1,1,0,0,0,.2-0.5l-2-.4a2.8,2.8,0,0,0-.7-1.3,3.2,3.2,0,0,0-1.5.4l0.9,2.6Zm10.4-13.9,0.5,0.5a6.9,6.9,0,0,0,.7-2.5c0-.3-1.3-0.5-2-0.7l-0.4.3c0,1,0,2,0,2.8ZM88.2,78.5a2.3,2.3,0,0,0-1.1.5,7.6,7.6,0,0,0-.2,1.9l1.3-.4c0.5,0,.3-1.8,1.2-0.4a0.8,0.8,0,0,0,.2-0.4l-0.9-2.1-0.9.6Zm59.4,69.4v-0.5l-4.6,1.2,0.2,0.6Zm-125-28.5H22.4v7.7h0.3v-7.8Zm154-19.5H177l0.3-7.1H177ZM89.3,66.6H89.1c0,1.1,0,2.1,0,3.2a2,2,0,0,0,.5.8,1.8,1.8,0,0,0,.3-0.8C89.8,68.7,89.5,67.7,89.3,66.6ZM69.4,54.4l1,0.6,1.3-2.2-0.5-.3ZM101,74.5a2.1,2.1,0,0,0,.5-0.6l-0.8-1.2-1.2.8ZM35.2,179.3a3.7,3.7,0,0,0,.6,1.4,6.4,6.4,0,0,0,1.7.7h0.5a1.5,1.5,0,0,0-.3-0.5ZM100,76.3l-0.9.8,0.6,0.7,1.3-1Zm-2.8-1.6h1.2a1.2,1.2,0,0,0,.1-0.6L97.6,73ZM69.3,54.3L68.7,54a1.8,1.8,0,0,0-.5.8,3.9,3.9,0,0,0,.7,1.1ZM176.8,86.1H177V82.3h-0.3v3.7ZM99.6,80.5c-0.3.7-.4,1.1-0.5,1.5a0.7,0.7,0,0,0,.3.4l1.1-.7ZM24.2,52.8H24.1l-2.2,1.9,0.3,0.3ZM89.3,79.9a4.6,4.6,0,0,0,.2,1.7,1.9,1.9,0,0,0,1,.1Zm15.1-5.5a3,3,0,0,0-1.1-.5,2,2,0,0,0-.7.7l0.9,0.3A2.7,2.7,0,0,0,104.3,74.3Zm-9.2,9.5v2.1l0.8-1.5ZM33.2,46.1l0.2,0.3,2-1.5-0.2-.2Zm68.3,13.5v0.4l1.7-.4-0.2-.2ZM98.5,76H99a3.7,3.7,0,0,0-.2-0.9H98.2Zm-8.1,7.2h0.3l0.6-1.3L91,81.9Zm5.3-8.6,0.5,0.6a1.1,1.1,0,0,0,.4-0.4,4.5,4.5,0,0,0-.4-0.8Zm6.5-3.7,0.2,0.3,0.9-.5a0.9,0.9,0,0,0,0-.4Zm-4-1.9a1.4,1.4,0,0,0,.2-0.6L98,67.7l-0.2.3ZM100.6,86h-0.3l0.2,0.9,0.4-.2Zm10.1,90.2h-0.3l-0.2.9h0.5A3.9,3.9,0,0,0,110.6,176.2ZM99.9,65.9l0.2,0.3,0.7-.4-0.3-.3ZM81.6,186.5v0.3l1.2-.3a0.7,0.7,0,0,0,0-.2ZM96.4,73.4h0.3l0.2-1.1H96.7Zm80.3,28.3h0.2v-1.3h-0.2v1.3ZM20.8,135.4l-0.2.2,0.5,0.6h0.2Z" transform="translate(-17.6 -4.7)"/><path d="M31.8,18.3l-1.2-1.1L32.8,16v0.3c7.9-1.8,14.5-7,22.7-7.7l-4.1.9V9.9l6.6-.5-0.9-.8,2.2-.5,2.6-1a4.3,4.3,0,0,1,1.5.4l5.2-1.9a7.8,7.8,0,0,1,3.1-.8c2.6,0.3,5,1.1,7.6,1.4s4.6,0.3,6.9.4a2.8,2.8,0,0,1,1.6.6H86.2a1,1,0,0,0,.2.4L92.7,9a3.8,3.8,0,0,0,1.5-.4L92,7.5a4.1,4.1,0,0,1-1.9-1l2.7,0.3,7.1,1.3a4.7,4.7,0,0,1,1.9.2l2.5,0.2h6.5a1.5,1.5,0,0,1,.6.4l-0.7.4-2.6.6,0.9-.7-4.7.9h0l-1.6.3V9.6a42,42,0,0,0-6.9-.4c-3.3.4-6.6,0.8-9.7-.9a9.4,9.4,0,0,1-1.2-1.1H81.6a1.9,1.9,0,0,0-.7.7L80.7,8l-0.4-.2a53.4,53.4,0,0,0-6.4-1.7c-2.4-1.6-4.1.9-6,1.6V8L62.2,9.3c-0.8.2-2.3-.3-1.7,1.5H58.2c-3.7.1-7.3-.6-10.9,1.1s-6.4,2.6-9.6,3.9ZM58.4,9.4V9.8h1.1a1.3,1.3,0,0,0-.2-0.4Z" transform="translate(-17.6 -4.7)"/><path d="M127.3,15.4l-1.5-.9-0.3.4,0.4,0.6-0.8-.2-1,.5a7.2,7.2,0,0,1,.5-1.1,2.4,2.4,0,0,1,.8-0.4l-3.4-1.5-0.4.3-0.5.3a2.5,2.5,0,0,0,.1-0.5,0.7,0.7,0,0,0-.1-0.5,16.3,16.3,0,0,0-3.6-1.1c-2-.2-4-0.1-6-0.1h-0.1c-1-.2-1.9-0.4-2.1,1a1,1,0,0,1-.5.3,13,13,0,0,0,.4-1.5l-1.1-.6h3.1a61.1,61.1,0,0,1,8,.2c1.8,0.3,3.6,1.4,5.4,2.1l8.3,2.9,8.6,3.6a26.9,26.9,0,0,0,4,.9l-0.7.3c3.8,2.1,3.5,5.6,3.9,8.9a18.1,18.1,0,0,1-1.6,10l0.6,1.3-1.5-.8-1.8,1.4,0.8-5h-0.2l0.3-1.4h0.4l0.6,3.3,1.4-3.8-2.6-.2a2.4,2.4,0,0,1,.7-0.8,7.2,7.2,0,0,1,1.6-.2l-0.9-1h-0.5V23.2l0.7-.2-2.3-2.2-0.6,1.7c-0.2-.6-0.3-1.4-0.7-1.7s-2.3-.8-3.5-1.3l-4.2-2-5-2.3,0.4,1.6-3.2-1.6h-0.1Z" transform="translate(-17.6 -4.7)"/><path d="M139,43.7l-2.6.9h-0.4a1,1,0,0,1,.2-0.5l3.8-2.8L139.3,43a0.6,0.6,0,0,0,0,.4h0.3a0.9,0.9,0,0,0,.4-0.4c0.1-.7.1-1.3,0.1-2l0.7,0.2-1.4,3.3-0.6,1a2.9,2.9,0,0,1-.6.8l-0.6-.4h-0.7a1.6,1.6,0,0,0-.2.6l-0.5,1.1-0.3.6h0.3l0.4-.6,0.4,0.5,0.6-.4-2.2,2,0.4,0.5-1.7.2a1.5,1.5,0,0,1,0-.6,1.7,1.7,0,0,1,.6-0.4l0.5-1.1-1.4.7h-0.5a1.1,1.1,0,0,1,.2-0.4l2.3-1.3a0.3,0.3,0,0,0,.1-0.3l-0.6-.6,1.9-1.2Z" transform="translate(-17.6 -4.7)"/><path d="M132.4,59.1l-1.6,2.2,0.6,0.5a2.6,2.6,0,0,1-.8.5h-0.9a3.3,3.3,0,0,1,.3-0.7l1.3-1.8-1.6-.2,1.5-1.8h0.2l-0.7,1.2,2.9-.6Z" transform="translate(-17.6 -4.7)"/><path d="M69.1,29.4l-1.8,3.7-0.6-.3L68,31l-1,.6-0.2-2.2,0.8,0.4Z" transform="translate(-17.6 -4.7)"/><path d="M43.6,29.3l1.1-.6-0.2-.3-2,.3a10.4,10.4,0,0,1,1-1.7,2,2,0,0,1,1-.1v0.6l1,0.7,0.8-.2-2.3,1.6Z" transform="translate(-17.6 -4.7)"/><path d="M68.3,33.4l1.5-.9v0.3l1.5-.3C71.7,33.6,71.7,33.6,68.3,33.4Z" transform="translate(-17.6 -4.7)"/><path d="M74.1,29.4a13,13,0,0,1,2.2-1.2,5.7,5.7,0,0,1,1.9,0l-0.7,1.2-0.3-.5L74,30.2V29.4h0Z" transform="translate(-17.6 -4.7)"/><path d="M60.8,27.9h0l1-.4a1.5,1.5,0,0,1,.7.4l-0.9.9L60,30a1.9,1.9,0,0,1-1,.1,0.9,0.9,0,0,1-.1-0.4l0.9-.3,1.4-1.2Z" transform="translate(-17.6 -4.7)"/><path d="M81.8,43c-0.5.4-.9,1-1.4,1A1.9,1.9,0,0,1,79,43a12.8,12.8,0,0,1,.5-3.2l0.2,3.7,1.8-.7Z" transform="translate(-17.6 -4.7)"/><path d="M28.8,18.7l1.3-.2a1.7,1.7,0,0,1,1.2-.1l-1.8,1.2H29.1l-0.8-.3L28,19.1a2.5,2.5,0,0,1,.6-1,3.4,3.4,0,0,1,1.7-.4Z" transform="translate(-17.6 -4.7)"/><path d="M74,38.2h0.8a0.6,0.6,0,0,1,0,.3,3.4,3.4,0,0,1-1.8.5l-1.4,1L71,39.3l3.1-2.7v1.6Z" transform="translate(-17.6 -4.7)"/><path d="M47.4,29.1H47.2L47,28.9a3.6,3.6,0,0,1,.7-0.9,1.2,1.2,0,0,1,.5.3l1.1-.3a0.8,0.8,0,0,1,.2.5L47.7,30Z" transform="translate(-17.6 -4.7)"/><path d="M38.3,28.6l-0.5,1.1V29H37.1l1.5-1.2a1.2,1.2,0,0,1,.9-0.3,3.3,3.3,0,0,1,.9.8l-1.4.4H38.3Z" transform="translate(-17.6 -4.7)"/><path d="M135.7,51.4l0.6,0.3-0.4.4-2.3,1.7h-0.5a0.5,0.5,0,0,1-.1-0.4Z" transform="translate(-17.6 -4.7)"/><path d="M93.6,10.7l-3.3,1.8-0.2-.3,0.5-.3a10.4,10.4,0,0,1,1.1-1.2,8.4,8.4,0,0,1,1.5-.7Z" transform="translate(-17.6 -4.7)"/><path d="M119.2,12.9l-2.9,1.9-0.4-.6,3-1.8Z" transform="translate(-17.6 -4.7)"/><path d="M74.9,48.5l0.8,0.2V49l-1.9.3a2.9,2.9,0,0,1,.2-1.2,3.5,3.5,0,0,1,1.1-.7Z" transform="translate(-17.6 -4.7)"/><path d="M93.5,10.9l1.1,0.3-0.3.4a2.5,2.5,0,0,1,.9.9,4,4,0,0,1-.6,1.4l-0.5-.6,0.2-.7H93.6c0-.3,0-0.6-0.1-0.8S93.5,11.4,93.5,10.9Z" transform="translate(-17.6 -4.7)"/><path d="M69,42.6L66.4,44a1.8,1.8,0,0,1-.9-0.4l1-1.1a1.1,1.1,0,0,0,.3.5h0.9Z" transform="translate(-17.6 -4.7)"/><path d="M52.9,17.4c0.1-.4.1,0,0,0H52.4L54.1,15h0V14.5h0.2a3.2,3.2,0,0,1-.1,1.3A10.4,10.4,0,0,1,52.9,17.4Z" transform="translate(-17.6 -4.7)"/><path d="M134.2,54.7L132.5,56a1.4,1.4,0,0,1-.2-0.6l1.4-1.4Z" transform="translate(-17.6 -4.7)"/><path d="M64.5,29.5V28.8l-1.4.9,1.2-1.5A1.5,1.5,0,0,1,65,28Z" transform="translate(-17.6 -4.7)"/><path d="M141.3,32.3L139,33.8l-0.4-.2a0.5,0.5,0,0,1,.2-0.4l2.2-1.1Z" transform="translate(-17.6 -4.7)"/><path d="M70.3,46.5l1,0.9a0.4,0.4,0,0,1,0,.2l-1.3.2a0.8,0.8,0,0,1-.3-0.6Z" transform="translate(-17.6 -4.7)"/><path d="M102.7,17.6l0.8-.5h0l-0.4-1.6a2.6,2.6,0,0,1,1.1.8,1.8,1.8,0,0,1-.6,1.2,2.3,2.3,0,0,1-.9.4V17.6Z" transform="translate(-17.6 -4.7)"/><path d="M101.4,13.6l2.1,0.3-0.9,1.7-0.3-.2,0.3-.8Z" transform="translate(-17.6 -4.7)"/><path d="M112.1,11.2l0.5,0.6-1.3,1.1-0.6-.3Z" transform="translate(-17.6 -4.7)"/><path d="M87.3,48.5l-1.8,1.6-0.2-.2L86.7,48Z" transform="translate(-17.6 -4.7)"/><path d="M91.1,57.9L89.7,59a1.8,1.8,0,0,1-.2-0.7l1.3-.9Z" transform="translate(-17.6 -4.7)"/><path d="M141.4,34.4l-2,1.3-0.4-.2a0.4,0.4,0,0,1,.1-0.4l2.2-.9v0.3Z" transform="translate(-17.6 -4.7)"/><path d="M140.5,42.6l0.6,0.4,0.2-.9a3.5,3.5,0,0,1,.8,1,1.8,1.8,0,0,1-.6.8l-1.3-1.1Z" transform="translate(-17.6 -4.7)"/><path d="M93.3,66.2a2.2,2.2,0,0,1,.2-1.1,2.1,2.1,0,0,1,1.1-.2l-0.8,1.4Z" transform="translate(-17.6 -4.7)"/><path d="M53.8,29.2l1.7-1.6a2.7,2.7,0,0,1-.3,1.1,4.1,4.1,0,0,1-1.2.6Z" transform="translate(-17.6 -4.7)"/><path d="M68,44.8l-0.3,1.6-0.8-.3,0.7-1.4H68Z" transform="translate(-17.6 -4.7)"/><path d="M73.4,17.4l0.2,0.2a0.4,0.4,0,0,1-.1.4,5.1,5.1,0,0,1-2.2,1Z" transform="translate(-17.6 -4.7)"/><path d="M123.6,16l-0.9.5,0.4-1L122,16C122.3,14.6,122.8,14.1,123.6,16Z" transform="translate(-17.6 -4.7)"/><path d="M51.1,29.3L52.9,28a7,7,0,0,1-.7,1.1,3.7,3.7,0,0,1-.9.6Z" transform="translate(-17.6 -4.7)"/><path d="M78,20.5l-1.5,2.2-0.2-.2,1.4-2.3Z" transform="translate(-17.6 -4.7)"/><path d="M85.5,12.5l2.3-2.2h1.1Z" transform="translate(-17.6 -4.7)"/><path d="M93.2,59.7l-1.9,1.9a13.2,13.2,0,0,1,.9-1.9A2.4,2.4,0,0,1,93.2,59.7Z" transform="translate(-17.6 -4.7)"/><path d="M70,17.7l0.7,1L69.6,18l1.1-1.6a2.2,2.2,0,0,1,0,.8A1.8,1.8,0,0,1,70,17.7Z" transform="translate(-17.6 -4.7)"/><path d="M121.9,18.6l-2.2.9a1.3,1.3,0,0,1,.3-0.5l1.7-.8Z" transform="translate(-17.6 -4.7)"/><path d="M64.7,28.9l1.1-.6,0.3,0.4-1,.9Z" transform="translate(-17.6 -4.7)"/><path d="M138.1,41l-1.5,1a1.3,1.3,0,0,1-.1-0.4l1.4-1.1Z" transform="translate(-17.6 -4.7)"/><path d="M89.3,49.5L88,50.8l-0.4-.4,1.3-1.2Z" transform="translate(-17.6 -4.7)"/><path d="M134,19.1l-0.9-.6,0.3-.2h1.6Z" transform="translate(-17.6 -4.7)"/><path d="M141.9,41.1h-1.1l0.7-1.6Z" transform="translate(-17.6 -4.7)"/><path d="M30.5,27.8L28,29.1l-0.2-.5,2.7-.8h0Z" transform="translate(-17.6 -4.7)"/><path d="M28.7,32.9l1.1,1-1.2.6-0.4-.3A12.2,12.2,0,0,1,28.7,32.9Z" transform="translate(-17.6 -4.7)"/><path d="M139.2,37.4a9.4,9.4,0,0,1-.5,1.2l-0.7-.2,0.8-1.2Z" transform="translate(-17.6 -4.7)"/><path d="M127.4,23.8l-1.4.6-0.3-.4,1.6-.6Z" transform="translate(-17.6 -4.7)"/><path d="M99.6,15.7l-0.3-.8,2.3-.4Z" transform="translate(-17.6 -4.7)"/><path d="M54.3,18.7H52.7a1.3,1.3,0,0,1,.2-0.5h1.4v0.5Z" transform="translate(-17.6 -4.7)"/><path d="M91.6,10.6l-1.7.4V10.7l1.7-.6v0.5Z" transform="translate(-17.6 -4.7)"/><path d="M74.1,29.4a2.4,2.4,0,0,1,0-1.1,1.9,1.9,0,0,1,.9-0.4l-0.5.8-0.4.7h0Z" transform="translate(-17.6 -4.7)"/><path d="M71.1,35.6a1.7,1.7,0,0,1,.1.8,3.7,3.7,0,0,1-1.1.7l-0.4-.4Z" transform="translate(-17.6 -4.7)"/><path d="M143.7,31l1.6-1.8,0.2,0.2a1.4,1.4,0,0,1-.3.6L143.7,31h0Z" transform="translate(-17.6 -4.7)"/><path d="M141.6,20.8l0.8,0.4a2.6,2.6,0,0,1-.9.4,1.7,1.7,0,0,1-.7-0.4Z" transform="translate(-17.6 -4.7)"/><path d="M71.2,38.8H69.9V38.3l1.2,0.2v0.3Z" transform="translate(-17.6 -4.7)"/><path d="M122.3,18l1.7-.8,0.2,0.4-1.3.8Z" transform="translate(-17.6 -4.7)"/><path d="M91.6,16.4a3.7,3.7,0,0,1-1.2-.8,1.7,1.7,0,0,1,.4-0.8Z" transform="translate(-17.6 -4.7)"/><path d="M85,50.8L83.5,52l-0.3-.3,1.3-1.4Z" transform="translate(-17.6 -4.7)"/><path d="M61.1,37.2a2,2,0,0,1-.6.5l-0.8-.5a1.1,1.1,0,0,1,.4-0.4Z" transform="translate(-17.6 -4.7)"/><path d="M97.9,30l1.4-.7c0-.4.1-0.2,0-0.1l-1,1.2Z" transform="translate(-17.6 -4.7)"/><path d="M117.8,25.2L117,26V25.1l0.8,0.2h0Z" transform="translate(-17.6 -4.7)"/><path d="M79,29.7l-1.2,1-0.3-.4,1.3-1Z" transform="translate(-17.6 -4.7)"/><path d="M139.2,27.9h-1.3a1.2,1.2,0,0,1,.2-0.5h1.1v0.4Z" transform="translate(-17.6 -4.7)"/><path d="M72,10.4l1.5-1.3,0.3,0.4L72,10.6V10.4Z" transform="translate(-17.6 -4.7)"/><path d="M78.4,18l-1.2.9-0.4-.3,1.4-.9Z" transform="translate(-17.6 -4.7)"/><path d="M82.7,20.3L83,21.2l-0.9.2Z" transform="translate(-17.6 -4.7)"/><path d="M27.6,27.3l-1.2,1-0.2-.2,1.1-1.2Z" transform="translate(-17.6 -4.7)"/><path d="M32.7,28.6l-1,.8L31.4,29l1.4-1.3a0.9,0.9,0,0,1,.1.5l-0.5.2Z" transform="translate(-17.6 -4.7)"/><path d="M25.3,26.1l1.1-.8a1,1,0,0,1,.1.3l-1,.9Z" transform="translate(-17.6 -4.7)"/><path d="M26.6,33.9l-0.9.5-0.4-.2,0.7-.6Z" transform="translate(-17.6 -4.7)"/><path d="M131,17.3l1.2-.4a1,1,0,0,1,0,.4l-1.1.5Z" transform="translate(-17.6 -4.7)"/><path d="M102.9,30.4l-0.3-.4a1.4,1.4,0,0,1,.5-0.5,1.2,1.2,0,0,1,.5.4Z" transform="translate(-17.6 -4.7)"/><path d="M92.1,14.4a1.2,1.2,0,0,1,.2.4l-0.6.7L91.3,15Z" transform="translate(-17.6 -4.7)"/><path d="M35.5,28l1.2-1.4,0.7,0.7L36,28.5Z" transform="translate(-17.6 -4.7)"/><path d="M64.5,13.7a3.8,3.8,0,0,1,1.2.6,1.9,1.9,0,0,1-.3.8Z" transform="translate(-17.6 -4.7)"/><path d="M117.8,25.3a11.2,11.2,0,0,1,.3-1.2h0.7l-1.1,1.2h0Z" transform="translate(-17.6 -4.7)"/><path d="M56.3,35.9H55.4l0.3-.8Z" transform="translate(-17.6 -4.7)"/><path d="M82.6,30.2l0.8-1.8,0.4,0.4Z" transform="translate(-17.6 -4.7)"/><path d="M77.5,34l1.1-1.3a0.9,0.9,0,0,1,.1.4l-1,.9H77.5Z" transform="translate(-17.6 -4.7)"/><path d="M114.2,12.7l-1.6.7-0.2-.2,1-.8Z" transform="translate(-17.6 -4.7)"/><path d="M76.5,38.5l-0.8,1.4-0.4-.7Z" transform="translate(-17.6 -4.7)"/><path d="M70.4,29.5l0.7,0.4-0.9.3a0.9,0.9,0,0,1-.3-0.3Z" transform="translate(-17.6 -4.7)"/><path d="M122.6,23.5l1.2-.4v0.4l-1.2.3V23.5Z" transform="translate(-17.6 -4.7)"/><path d="M145.4,22.8l-0.8.5-0.3-.4,0.9-.4Z" transform="translate(-17.6 -4.7)"/><path d="M143.6,41.4l-1.4.7-0.2-.3,1.4-.6Z" transform="translate(-17.6 -4.7)"/><path d="M109.3,25.1l-1.7.7,0.2-.3,1.4-.7v0.3Z" transform="translate(-17.6 -4.7)"/><path d="M93.3,68.1l-0.9.9-0.2-.3,0.9-.8Z" transform="translate(-17.6 -4.7)"/><path d="M74.5,40.5L74.7,41l-0.6.7-0.4-.5Z" transform="translate(-17.6 -4.7)"/><path d="M57.6,27.9l1-.5a1.7,1.7,0,0,1-.1.7,0.6,0.6,0,0,1-.5.3A1.3,1.3,0,0,1,57.6,27.9Z" transform="translate(-17.6 -4.7)"/><path d="M87.3,9.2a3.7,3.7,0,0,1-1,.7,3.6,3.6,0,0,1-1.1-.3Z" transform="translate(-17.6 -4.7)"/><path d="M19.7,141.3v-1.5h0.3l-0.2,1.4H19.7Z" transform="translate(-17.6 -4.7)"/><path d="M74.2,18.2l0.3,0.3-0.7.5-0.3-.3Z" transform="translate(-17.6 -4.7)"/><path d="M84.2,45.1l0.4,1.7H84.4l-0.5-1.7h0.3Z" transform="translate(-17.6 -4.7)"/><path d="M82.8,45.4l-0.7.9-0.4-.4,0.9-.8Z" transform="translate(-17.6 -4.7)"/><path d="M138.8,31.1v0.8l-0.7-.6Z" transform="translate(-17.6 -4.7)"/><path d="M69.2,7.9L68.4,9H68.2l0.7-1.2Z" transform="translate(-17.6 -4.7)"/><path d="M30,35.3l-0.4-.4,0.5-.4a1,1,0,0,1,.3.4A1.5,1.5,0,0,1,30,35.3Z" transform="translate(-17.6 -4.7)"/><path d="M128.7,16.7l-0.4.9H128l0.2-.9h0.5Z" transform="translate(-17.6 -4.7)"/><path d="M102.5,16.4l-1.1.2V16.4l1.1-.3v0.3Z" transform="translate(-17.6 -4.7)"/><path d="M93.9,29.7l-1.1-.4V29L94,29.4v0.3Z" transform="translate(-17.6 -4.7)"/><path d="M79.9,24l0.7-.6,0.3,0.2-0.6.7Z" transform="translate(-17.6 -4.7)"/><path d="M72.1,30.5l1.1-.5-0.6.9Z" transform="translate(-17.6 -4.7)"/><path d="M68.8,46.2a1.4,1.4,0,0,1-.2-0.5l0.4-.4,0.2,0.2Z" transform="translate(-17.6 -4.7)"/><path d="M22.8,29.8l0.9-.6,0.2,0.3-1,.4H22.8Z" transform="translate(-17.6 -4.7)"/><path d="M25.3,26.5l0.3,1.1H25.4L25,26.6h0.3Z" transform="translate(-17.6 -4.7)"/><path d="M113.8,25.3l-0.3-.5,0.5-.2,0.4,0.2Z" transform="translate(-17.6 -4.7)"/><path d="M116.8,20.2H118v0.2h-1.2V20.2Z" transform="translate(-17.6 -4.7)"/><path d="M47.7,13.2l0.8-.3v0.3l-0.8.4V13.2Z" transform="translate(-17.6 -4.7)"/><path d="M69.2,41.2l1.3-.9v0.2l-1.3.9H69.2Z" transform="translate(-17.6 -4.7)"/><path d="M143.7,31l-1.3.8V31.4l1.4-.4h0Z" transform="translate(-17.6 -4.7)"/><path d="M74.3,41.8l0.7-.4,0.2,0.3-0.8.4Z" transform="translate(-17.6 -4.7)"/><path d="M140.7,28.7l-1.1.4V28.8l1-.5v0.3Z" transform="translate(-17.6 -4.7)"/><path d="M94,28.3H93l0.9-.8v0.7Z" transform="translate(-17.6 -4.7)"/><path d="M30.5,27.8l0.2-.6,0.6,0.3a0.5,0.5,0,0,1,0,.3H30.5Z" transform="translate(-17.6 -4.7)"/><path d="M76.1,9.1l0.8-.9h0.2l-0.8.9Z" transform="translate(-17.6 -4.7)"/><path d="M78.9,24.9l0.6-.8h0.2l-0.5.9Z" transform="translate(-17.6 -4.7)"/><path d="M115.1,21.8l-0.4.8-0.3-.2,0.4-.8h0.3Z" transform="translate(-17.6 -4.7)"/><path d="M51.6,16.6l0.3-.7,0.3,0.2-0.3.7H51.6Z" transform="translate(-17.6 -4.7)"/><path d="M86.1,41.3v1H85.9v-1h0.2Z" transform="translate(-17.6 -4.7)"/><path d="M50.9,16.5v1.1H50.8V16.4h0.2Z" transform="translate(-17.6 -4.7)"/><path d="M131.5,57.7l0.6-.7,0.2,0.2-0.6.7Z" transform="translate(-17.6 -4.7)"/><path d="M80,15.9L79.8,15h0.4v0.9H80Z" transform="translate(-17.6 -4.7)"/><path d="M52.8,15.2l0.4,0.6-1,.4Z" transform="translate(-17.6 -4.7)"/><path d="M93.6,20.1V19.4l0.9-.4Z" transform="translate(-17.6 -4.7)"/><path d="M145.4,19.7l0.7-.3a2.1,2.1,0,0,1,.6.5Z" transform="translate(-17.6 -4.7)"/><path d="M134.3,25.3h-1V25.1h0.9v0.3Z" transform="translate(-17.6 -4.7)"/><path d="M80.7,38.5l0.3-.6,0.3,0.3-0.3.5Z" transform="translate(-17.6 -4.7)"/><path d="M90.9,62.8l1.4-.3a1.2,1.2,0,0,1-.3.5H90.9Z" transform="translate(-17.6 -4.7)"/><path d="M97.1,14l1.1-.5v0.2l-1.1.5V14Z" transform="translate(-17.6 -4.7)"/><path d="M71.8,26.5l-0.5-1.6L72,25.4A4.1,4.1,0,0,1,71.8,26.5Z" transform="translate(-17.6 -4.7)"/><path d="M56.2,19.1H55.5a2.7,2.7,0,0,1,0-.3h0.7v0.3Z" transform="translate(-17.6 -4.7)"/><path d="M144.7,37l-0.7.2-0.2-.2,0.4-.5Z" transform="translate(-17.6 -4.7)"/><path d="M75.5,47.1l0.8-.4V47l-0.8.3V47.1Z" transform="translate(-17.6 -4.7)"/><path d="M96.8,14.1l-0.8.2V14.1l0.8-.2v0.3Z" transform="translate(-17.6 -4.7)"/><path d="M106.3,30.1l1-.7a1.7,1.7,0,0,1-.2.7h-0.8Z" transform="translate(-17.6 -4.7)"/><path d="M135.3,54.3l-0.9,1-0.3-.3Z" transform="translate(-17.6 -4.7)"/><path d="M119.5,25.4h0.8v0.2h-0.8V25.4Z" transform="translate(-17.6 -4.7)"/><path d="M112.3,20.6a1.2,1.2,0,0,1,.2.4l-0.3.4-0.2-.3A2.2,2.2,0,0,1,112.3,20.6Z" transform="translate(-17.6 -4.7)"/><path d="M118.4,15l0.8-.4v0.2l-0.8.5V15Z" transform="translate(-17.6 -4.7)"/><path d="M93.5,73.1v1H93.1l0.2-1h0.2Z" transform="translate(-17.6 -4.7)"/><path d="M88.6,11.2l0.9-.2v0.2l-0.9.3V11.2Z" transform="translate(-17.6 -4.7)"/><path d="M73,92.9l-0.7.2c-1.6.1-2,1.1-1.8,2.4a1.2,1.2,0,0,0,.7,0l1.3-1.2-0.8,2.5H71.5c-0.8-.5-2.6-0.1-1.9-2a16.7,16.7,0,0,0,.5-2.4c-1.1.2-2.1,0.6-2.5,0.3a4.2,4.2,0,0,1-.7-2.2c-0.1-.8-0.2-1.7-0.3-2.7a1.4,1.4,0,0,0,.7.3,4.3,4.3,0,0,0,2-.6c0.5-.5.6-1.4,1-2a19.9,19.9,0,0,1,1.9-2c-0.3,1.6-.5,2.9-0.7,4.3L72.2,88h1.1l-0.8,1.1-0.9,1.2a3.2,3.2,0,0,0,.9.5,1,1,0,0,0,.8-0.3,30.3,30.3,0,0,0,2.3-3c0.6-1,1.1-2.1,1.6-3.1s0.8-3.1,2.9-3.4a2.5,2.5,0,0,0,1.2-1.7,11,11,0,0,0,0-2.6l-1.5-.8,0.3-.2c0.7,0.2,1.6.8,1.9,0.5s0.9-1.4,1.6-2.7l-3.4,1-0.3-.3c1.4-1.5,2.8-2.9,4.3-4.3a3,3,0,0,1,1.3.7,1.3,1.3,0,0,1-.1.6,2.7,2.7,0,0,0-1.2-.5,9.1,9.1,0,0,0-1.5,1.5l1.6,0.5-0.8,3h3.4c-0.5.9-3.2,1.2-.7,3.2a3.1,3.1,0,0,1-1.4-.3,6.7,6.7,0,0,1-.5-1.5,1.7,1.7,0,0,0-.5-0.7l-1.8,1.2a1,1,0,0,0,0,.7h1.6a4,4,0,0,0-.6.8c-0.4.8-.6,1.7-1.1,2.5a7,7,0,0,1-1.2,1.3V81.6H79.9L78,84.5l0.9,0.2a5.8,5.8,0,0,1-.6.9,3,3,0,0,0-.8.6,22.3,22.3,0,0,0,0,2.7,3.7,3.7,0,0,1-1.3,0c-1.9-.4-1.9,1-2.2,2.2a0.4,0.4,0,0,0,.3.3h0.6l1.2-.2a1.4,1.4,0,0,1,.4.6l-1,.2c-0.7.2-1.6,1.1-2.1-.3l-0.8.2a1,1,0,0,0,0,.4h0.6v0.8h0Zm-3.1-5a5.8,5.8,0,0,1-.9,1.1c-1,.6-2.9.8-1.1,2.6C68.9,91.1,68.9,91.1,69.9,87.9ZM70,88.6l0.8,1a1.5,1.5,0,0,0,.4-0.7,5.5,5.5,0,0,0-.6-1.2Z" transform="translate(-17.6 -4.7)"/><path d="M85,108.1a15.9,15.9,0,0,1-1.9-1.7,1.6,1.6,0,0,1,0-1.6l0.8,2.3,2.9-3.1,1.8-1.8a0.9,0.9,0,0,1,.9.1,15.4,15.4,0,0,1,.6,2c-1.7-.6-1.7-0.6-1.7,2.8l0.3-.2,1.1-.7a1.6,1.6,0,0,1,.3.6l-1,1.2a4.1,4.1,0,0,0-.9,1,3.8,3.8,0,0,0,0,1.4l-0.6-.2a20,20,0,0,1,.1-2,2.4,2.4,0,0,0,0-1.3,1.7,1.7,0,0,0-1.4-.5,2.2,2.2,0,0,0-1.1,1.3,6.7,6.7,0,0,0,1.5,1.5l-0.2,2.3h0.4l-0.5,3H86v-1.2a6.6,6.6,0,0,0-1.4,1.9,9.8,9.8,0,0,0,.1,2.4,1.8,1.8,0,0,1-.5.7,1.9,1.9,0,0,0-.4-0.5,1,1,0,0,1-.6-0.7l-1.4-.9c-1.3-.7-0.9-1.7-0.6-2.7s-0.4-.8-0.3-1.1a8,8,0,0,1,2.2-3.1l-0.9,1.7a7.2,7.2,0,0,0-.3,1.2h0.4a4.7,4.7,0,0,0,1.5-1A20.9,20.9,0,0,0,85,108.1Zm-3.8,6.4c2,2.2,2.9.4,3.7-1.2a2,2,0,0,1-.2-0.6l1.2-.8-0.3-.6-0.6-.6-1.4,1.5a1,1,0,0,0,.3.6l0.5,0.4a1,1,0,0,1-.4.3H83a2.1,2.1,0,0,0-1,.1A4.4,4.4,0,0,0,81.2,114.6Zm5.1-4.8a2,2,0,0,0-.5-0.6l-1.1.4v0.2h1.6Z" transform="translate(-17.6 -4.7)"/><path d="M77.5,115.7l0.6,1.2h0l0.5,1.4-0.7-.6L75.7,121l2.3-.9a6.8,6.8,0,0,1-.7,1.1,1.1,1.1,0,0,1-.6,0c-0.1.6-.3,1.2-0.4,1.8a0.6,0.6,0,0,0,.2.5l0.8,0.3-0.6,1-0.9,1.2a0.9,0.9,0,0,0,.4.5,12.1,12.1,0,0,1,2.2.9,1.9,1.9,0,0,1,0,1.1c-0.5-.4-1.2-1.1-1.4-1a18.1,18.1,0,0,0-2.3,2l0.4,0.5,1.1-.2h0.6a2.6,2.6,0,0,1,.3.7l-0.5.2L75.1,132a8.5,8.5,0,0,0,.7.9,0.5,0.5,0,0,1,0,.3,2.1,2.1,0,0,1-1,.1,1,1,0,0,1-.6-0.6c0.2-1.6.6-3.2,0.9-4.9s0.5-2.9.7-4.3a5.9,5.9,0,0,1,.2-1.2c0.5-1.4-.4-1.4-1.3-1.7a12.1,12.1,0,0,1-2.7-2,7.4,7.4,0,0,1-.9-1l-0.3-.4,0.2-.2a2,2,0,0,1,1.1.4c0.8,2.6,1.2-.3,1.8-0.1a0.5,0.5,0,0,0,.2-0.2l-0.8-1.4-0.2-.3-0.5.3H69.8a3.3,3.3,0,0,1-.6-1.1l0.9,0.6c0.2-1.2.4-2.4,0.7-3.6a1.6,1.6,0,0,1,.8-0.6h0.5l-0.4.7a5.3,5.3,0,0,0-.2.8H71.2L71,115.3l0.5-.8,0.2,0.5a3.8,3.8,0,0,0,1.5-.6,14.9,14.9,0,0,1,1.4-1.8,6.2,6.2,0,0,0-.7,1.7,3.1,3.1,0,0,0,.5,1.3,1.4,1.4,0,0,1,.2.6c-0.2,1.1-.5,2.2-0.6,3.3a0.8,0.8,0,0,0,.4.6,1.8,1.8,0,0,0,.9-0.5l2.1-2.2a9.1,9.1,0,0,1-.7-1.2l0.7-.5h0Z" transform="translate(-17.6 -4.7)"/><path d="M68.9,61.6a4.8,4.8,0,0,1,.8,1.6,5.2,5.2,0,0,1-.5,1.9,12.9,12.9,0,0,0-.6,1.2,1.9,1.9,0,0,0,.3.8l0.9-.4-0.5,1.1-1.4-.7a3,3,0,0,0-.6-0.6,1.4,1.4,0,0,0-.7.5,12.9,12.9,0,0,0-1.4,1.4,1.7,1.7,0,0,0,.3.8l0.8-.3,1.3-.4a4.6,4.6,0,0,0-.5.9c-0.2.7-.4,1.4-0.5,2.2s0.3,0.2-.2-0.6h1.2a4.1,4.1,0,0,1,0,1.6,2.8,2.8,0,0,1-1.2.7l-0.6-1.1v1.4l-0.7-.3a10.4,10.4,0,0,0,.6-1.1,10.4,10.4,0,0,0,.3-1.2H65.4c-0.1.1-.1,0.4-0.2,0.5A11,11,0,0,0,64,73a3.5,3.5,0,0,0,.1,1.4l1.2-.6-0.2.8h1.3l-0.2-.8,1.7,0.4-2,1.6-0.5-.4a6.9,6.9,0,0,0-.6,2.2c0.1,1,1.2.5,1.6-.8a8.8,8.8,0,0,0,.2-1l0.6,0.3a4,4,0,0,0-.3.8c-0.2.9-.3,1.8-0.5,2.9l1.4-.7,0.2,0.5c-0.6.2-1.6,0.8-1.8,0.6s-3.6-2.5-1.4-4.6a2.8,2.8,0,0,1-1.3-.6,2.9,2.9,0,0,1-.1-1.9c0.4-.8,1.3-1.4,1.6-2.2s-0.4-1.1-.6-1.7a23.8,23.8,0,0,1-.5-2.7,2.1,2.1,0,0,1,.3-0.8L66,66.8a22.2,22.2,0,0,0,2.9-2.7c0.3-.4-0.3-1.3-0.4-2.1a1.3,1.3,0,0,1,.4-0.5h0Z" transform="translate(-17.6 -4.7)"/><path d="M80.1,125.4l-0.4,1-0.3-.2-0.3-3.9,1-.5v-1.4a3.3,3.3,0,0,0,1,.4h2.9l-1.6.9a3,3,0,0,0,1.1.4,2.3,2.3,0,0,0,1-.6,2.7,2.7,0,0,1,.9-0.7c0.2,0,.5.5,0.3,0.3l-1.4,3-0.6-.9a1.7,1.7,0,0,0-.8-0.7,1.2,1.2,0,0,0-1,.5,4.7,4.7,0,0,0,.3,1.4,6.1,6.1,0,0,1,.1,1.7,16.9,16.9,0,0,1-.6,2.1l-0.3-.4a4.3,4.3,0,0,0,0,1.5,1,1,0,0,0,.9.1,1.6,1.6,0,0,0,.9-0.9,6,6,0,0,0-.2-1.7,0.8,0.8,0,0,1,.1-0.3h0.2l1.4-.7a1.4,1.4,0,0,1,.7.3,1.4,1.4,0,0,0-.6.4c-0.3.8-.5,1.7-0.7,2.6l0.5,0.2,0.8-.9,0.5-.6v0.7c-0.3,1.2-1,1.8-2.3,1.2a6.1,6.1,0,0,0-.8,1.5c-0.3.9-1.2,1.9,0.7,2.1l0.2,0.2a1.3,1.3,0,0,1-.6.4,1.7,1.7,0,0,1-1.1-.3c-0.2-.7,0-1.5-0.2-2.2a9.2,9.2,0,0,0-.7-1.6,3.6,3.6,0,0,1,.9-4.4,0.5,0.5,0,0,0,.1-0.4l-0.6-3v-0.3a12,12,0,0,0-1.5,1.9C79.4,123.8,79.8,124.3,80.1,125.4Z" transform="translate(-17.6 -4.7)"/><path d="M83.7,67.6v0.5a3.6,3.6,0,0,0-1.4.6,7.2,7.2,0,0,0-.1,1.8c-0.9,0-2.1-.3-2.6.1s-0.6,1.6-.8,2.3L76.6,71l-1.5,2.1,1.8,0.2a5.2,5.2,0,0,1-1.7.4,1.1,1.1,0,0,1-.7-0.7,1.8,1.8,0,0,1,.4-1c0.7-1.2,1.3-2.3,2.1-3.4a1.6,1.6,0,0,1,1.3-.6,2.8,2.8,0,0,1,1,1l-0.3.3-1.8.4a0.7,0.7,0,0,0-.1.6l1.4,1,1.4-1.9-0.2-.6a4.3,4.3,0,0,0,1.1.7,4.9,4.9,0,0,0,1.7-1.9c0.2-.6-0.4-1.4-0.6-2.2l-2,1,0.9,1.3a1.4,1.4,0,0,1-.7.1,1.2,1.2,0,0,1-.7-0.7,2.3,2.3,0,0,1,.5-1.6,18.7,18.7,0,0,1,3.1-1l0.8-.2,0.9,1.7V64.6l1.3-.7a2.8,2.8,0,0,1,.4,1.4,5.9,5.9,0,0,1-1.2,1.6H84.6a1.7,1.7,0,0,1-.4-0.6l-0.7-1.5a2,2,0,0,0-.6.9A7.9,7.9,0,0,0,83.7,67.6Z" transform="translate(-17.6 -4.7)"/><path d="M93.3,121.9l-1-2.3-0.7.2v2.4c0.3-.2,0,0.1-0.3.2a1.4,1.4,0,0,1-.8-0.4,3.6,3.6,0,0,1-.5-0.7l-0.9.9-0.4.4a0.9,0.9,0,0,1-.2-0.4,18.9,18.9,0,0,0-.1-4.7c-0.2-.8-0.7-1.8-0.5-2.4,1.3-4.1,3.1-2.1,4.6,0a7.4,7.4,0,0,0-1.3-1,14.1,14.1,0,0,0-2.2-.5,8.5,8.5,0,0,0-.2,2.5c0.1,0.3,1.1.4,1.6,0.6a1.9,1.9,0,0,1,.6.1,4.8,4.8,0,0,1,.8,1.3,4.7,4.7,0,0,0,.5,1.4v-0.8l1.6-.6-0.5,1.1,1,0.2Zm-1.9-4a3,3,0,0,0-1.2.1,10.5,10.5,0,0,0-.9,1.8l0.5,0.4Z" transform="translate(-17.6 -4.7)"/><path d="M74.7,75.8c0,0.7.1,1.4,0.1,2a1.1,1.1,0,0,1-.3.4l-1.2-1.4-0.7-1a1.8,1.8,0,0,0-.7.6,10.3,10.3,0,0,0-.1,2.3l1.1,0.2c0-.1,0,0.1,0,0.2s-1,1-.2,1.6a1.2,1.2,0,0,1-.1.5l-1-.5-0.5-.6a6.5,6.5,0,0,1-.4.9,0.6,0.6,0,0,1-.4.3,0.7,0.7,0,0,1-.5-0.3,8.4,8.4,0,0,1,.1-2.9,18.2,18.2,0,0,1,1.8-2.9,5,5,0,0,0,.1-0.8l0.5-1.3,0.7,1,0.7,2.5,1.2-1.6c1.1,0.9,1.5-.5,2.2-0.7a7.7,7.7,0,0,1,2.7.2,0.3,0.3,0,0,1,0,.2l-0.3.2-1.3.3L77.4,75,77,76.3l-0.5.9-1.3-1.8Z" transform="translate(-17.6 -4.7)"/><path d="M70.9,98.8l-0.3.3-0.4-.5-0.2.4H67.9a14.9,14.9,0,0,1,2.1-1.2,8.6,8.6,0,0,1,1.9-.3l1,0.8,1.1-1.7a13.1,13.1,0,0,1-.4,1.6,2.9,2.9,0,0,1-.5.7l-0.4.4,0.4,0.2,0.3,0.3a1.1,1.1,0,0,1-.1.3c-0.2,1.3-.3,2.6-0.5,3.9a2.8,2.8,0,0,0,.8.6h-1l-1.3.5a3.6,3.6,0,0,0-.7.8,5.7,5.7,0,0,1-1.2-1.4c-0.2-.4.1-1,0.3-2.1l0.3,1.8a0.9,0.9,0,0,0,.2.5h0.9a2,2,0,0,0,.1-0.6,18.1,18.1,0,0,0,.5-2.1,5.9,5.9,0,0,0-.3-1.5L69.8,103v-0.6H68.1l-0.5-.2a2.8,2.8,0,0,1,.4-0.8h0.5a3.4,3.4,0,0,0,1.7-.1A8.5,8.5,0,0,0,71.5,99Zm0.7-.2,0.2,0.3,0.7-.4V98.2Z" transform="translate(-17.6 -4.7)"/><path d="M72.6,126.1l-0.9-1.2a8.7,8.7,0,0,1-1.3-2.5,9.6,9.6,0,0,1,.3-2.8l0.8,0.2L71,120.9a1.2,1.2,0,0,0-.2.6,1.7,1.7,0,0,0,.6.9,2.5,2.5,0,0,0,1.1-.6,3.2,3.2,0,0,1,.7-0.6l-1.1,2.6h0.3a2.5,2.5,0,0,0,.4,1,4.4,4.4,0,0,0,1.4-.4l-1.2,1.2,0.8,1.4v0.3a1.5,1.5,0,0,0-.6.2,28.2,28.2,0,0,0-2,2.5,8.8,8.8,0,0,0,1.2,1.4,0.7,0.7,0,0,1-.6.2,1.6,1.6,0,0,1-1.1-.7,9.4,9.4,0,0,1,.1-2,1,1,0,0,0-.3-0.5c-0.4-.5-1.2-1.1-1.1-1.3a12.3,12.3,0,0,1,1.6-2.2l0.2,0.2-0.5.6a3.6,3.6,0,0,0-.8,1,2.5,2.5,0,0,0,1.2,1.1,1.5,1.5,0,0,0,1.1-.7A2.3,2.3,0,0,0,72.6,126.1Z" transform="translate(-17.6 -4.7)"/><path d="M88.1,129.9c0.4-1.7.7-3.4,1.1-5a3.4,3.4,0,0,1,.6-0.9l0.6,0.5-0.8,2.1a5.6,5.6,0,0,1,1.6,1,5.2,5.2,0,0,1,.4,1.8l-1.3-1.5-0.4.5h0.4a0.8,0.8,0,0,1-.2.3c-1.7.5-1.2,1.3-.5,2.6l-1.8-.8-0.5,1.2v-1.3l-0.4-.2a8,8,0,0,0-.7,2.3c0,0.3.9,0.7,1.4,1a2,2,0,0,1-1.2.2,3.7,3.7,0,0,1-.7-1.4l-0.5-.8a4.5,4.5,0,0,1-.2-0.8h0.5l0.6-.3,1.5-1.3Z" transform="translate(-17.6 -4.7)"/><path d="M69.7,106.5L67.5,108,67,109.1l0.6,0.2a2.2,2.2,0,0,1,1.1.4,11.3,11.3,0,0,1,.1,2.2h0.9l-0.2.6a4.7,4.7,0,0,1-1.3-.8,3,3,0,0,1-.1-1.4c-1.9,2-1.1-.1-1.2-0.6a43.5,43.5,0,0,1-.4-4.8,1.7,1.7,0,0,1,1.2-.7,3.6,3.6,0,0,1,1.3.3l-1.1.8-0.6.6a0.7,0.7,0,0,0,.4.5h1a5.2,5.2,0,0,1,.9-0.5A1.8,1.8,0,0,1,69.7,106.5Z" transform="translate(-17.6 -4.7)"/><path d="M63.8,53.5a14.6,14.6,0,0,0-1.4,2.1,2.3,2.3,0,0,0,.7,1.1l0.6,0.7a1.6,1.6,0,0,1-.7.2l-1.6-1.8-0.5-.4a13.3,13.3,0,0,1-1.1-1.7,13.1,13.1,0,0,1-.5-1.6L59,51.5l0.5-.2,2.1-1.1-1,2.8,0.5,0.5H61l-0.3-.2-0.2.2,0.8,1.2,1.2-.9,1-.7,0.3,0.4h0Z" transform="translate(-17.6 -4.7)"/><path d="M77,95l-2.3.7a3.4,3.4,0,0,1,.9-1.5,6,6,0,0,1,2.5-.2,1.8,1.8,0,0,1,.4.8l3.1-.6c-1.5,1-4,1.1-2.3,4.4l-1.4-1c-0.1-.1-0.1-0.3-0.2-0.4-2.6-.5.5-1.3-0.1-2.1a3.9,3.9,0,0,1-.1-1.2H76.6Z" transform="translate(-17.6 -4.7)"/><path d="M71.4,68.6a0.7,0.7,0,0,1-.5-0.1,7.9,7.9,0,0,1-.2-2.1,14.5,14.5,0,0,1,.4-2.8,22,22,0,0,1,.9-2.5h2.2a7.8,7.8,0,0,0-1.8,1,1.8,1.8,0,0,0-.6,1.4,3.2,3.2,0,0,0,1.3.9l0.4,0.3-0.4.3a5.3,5.3,0,0,0-.1,1,1.2,1.2,0,0,1,0,.4H72.7a3.7,3.7,0,0,0-1.2.1A7.5,7.5,0,0,0,71.4,68.6Z" transform="translate(-17.6 -4.7)"/><path d="M79.4,103.7l1.5-.2v0.7l-1.4.4c0-.9-0.2-2,0.2-2.7s1.5-.8,2.3-1.4a15.4,15.4,0,0,0,1.4-1.4h0.6l-0.3.5-1,2,1.3,0.4a0.7,0.7,0,0,1,.2.3,2.6,2.6,0,0,1-1.3.3,6,6,0,0,1-1.2-1.6Z" transform="translate(-17.6 -4.7)"/><path d="M87.7,101.8l-2.5-1.5-0.3-.7L87,97l-0.9,2.9h0.4l1.5-2,1.1,0.3a8.2,8.2,0,0,0-.5,1Z" transform="translate(-17.6 -4.7)"/><path d="M63.7,59.7l1.7-1.2,0.2,2h-1l0.8,1.1c-1.5-1.1-1.8.1-2.1,1a0.8,0.8,0,0,0,.4.5h0.7a1.3,1.3,0,0,1-.2.6l-1.1.2c0-1,0-2.1-.1-3.1a1.7,1.7,0,0,0-.4-0.7l-0.6-.8a0.9,0.9,0,0,1,.2-0.4L63,59.6,63.6,60V59.7Z" transform="translate(-17.6 -4.7)"/><path d="M96.6,111v0.4l0.4,0.2,1.3-2.7h0.3a4,4,0,0,0-.1,1.2,7.8,7.8,0,0,0,.6,1.2,1,1,0,0,1,.1.5l-1.3.4H95.2v0.4H94.7l1-4.4C97,109.2,94,110.5,96.6,111Z" transform="translate(-17.6 -4.7)"/><path d="M95.7,116.1c2.1,0.4,1.1-1.2,1.3-2l-0.3-.2-0.4.4-0.7.7a1.1,1.1,0,0,1-.3-0.5,2.1,2.1,0,0,1,.5-1.2,1.8,1.8,0,0,1,1.6-.1c1.1,0.7.9,1.7,0.3,2.7l-0.3.5-1,1.4-0.6-1.7h0Z" transform="translate(-17.6 -4.7)"/><path d="M83.9,62.2H82.1c-0.9,0-2.2-.5-1.7,1.3v0.2H79.9a0.7,0.7,0,0,1-.1-0.5c0.1-1.4.7-2.2,2.3-1.8h0.4c0.6-1.9,1.7-.7,2.7-0.5a1.5,1.5,0,0,1,.4.6l-1.7.7,1.5-.7a4.5,4.5,0,0,0-1.3-.2A2.4,2.4,0,0,0,83.9,62.2Z" transform="translate(-17.6 -4.7)"/><path d="M91.3,111.4c-0.4-.4-1.3-0.9-1.2-1.2a14.8,14.8,0,0,1,.8-2.9,9.7,9.7,0,0,1,1.7-.6,1.8,1.8,0,0,1,.6.6l-0.6.3c-0.6.9-1.3,1.7-1.8,2.6a3.2,3.2,0,0,0,.7.8Z" transform="translate(-17.6 -4.7)"/><path d="M93.3,123.8c-0.2.7-.4,1.3-0.5,2a1,1,0,0,0,.3.4l1-1,0.8-1.2a4,4,0,0,1,.2,1c0,0.1-.5.1-0.6,0.3a4.9,4.9,0,0,1-.4.8,2.1,2.1,0,0,1-1.3.6,1.5,1.5,0,0,1-.7-1.2,2.3,2.3,0,0,1,.7-1.7v-2.1l1.1,2.2H93.3Z" transform="translate(-17.6 -4.7)"/><path d="M63.8,53.5l0.7-1.9a11.4,11.4,0,0,1,.9-2,1.3,1.3,0,0,1,1-.4,1.9,1.9,0,0,1,.5.8l-0.6.3c-1.1.3-1.8,0.9-1.3,2.2a1.5,1.5,0,0,0,1,.4h0.7a6,6,0,0,1,0,1,3.5,3.5,0,0,1-.4.8l-1-.3L66,54a0.5,0.5,0,0,0,0-.3l-2.2-.2h0Z" transform="translate(-17.6 -4.7)"/><path d="M76.4,80.1c-0.9.8-1.5,1.3-2,1.8a5,5,0,0,0-.6,1.2l0.7,0.4-0.8.6a3.8,3.8,0,0,1-.8-1.6C73,80.8,74.3,80.3,76.4,80.1Z" transform="translate(-17.6 -4.7)"/><path d="M84.9,89.3a2.7,2.7,0,0,1-1.1-.4,18.8,18.8,0,0,1,0-2.5c0-.6,0-1.1,0-1.7s0-.4,0-0.2l2,0.3a1.1,1.1,0,0,1,0,.7,2.1,2.1,0,0,1-.7.5C83.8,86.9,83.8,88.2,84.9,89.3Z" transform="translate(-17.6 -4.7)"/><path d="M80.4,59.2l-4,2.2,1.7-3.7C77.8,60,79.1,59.3,80.4,59.2Z" transform="translate(-17.6 -4.7)"/><path d="M66.3,81.4l0.3,0.9,2.1-1.1L69.2,82a1.3,1.3,0,0,0-.6,0l-2.1,2L66,81.5h0.4Z" transform="translate(-17.6 -4.7)"/><path d="M84.5,97.9a3.8,3.8,0,0,1-1.6-.2,1.8,1.8,0,0,1-.3-1.5,8.6,8.6,0,0,1,1.7-1.6l0.8,1.3a3.1,3.1,0,0,0-1.3-.2,4,4,0,0,0-.6,1.5Z" transform="translate(-17.6 -4.7)"/><path d="M81.4,60.3l-0.5-.4a16.3,16.3,0,0,1,1.4-2.6,1.4,1.4,0,0,1,1.2.2,2,2,0,0,1,.3,1.1c-0.4-.1-1.3-0.5-1.5-0.3A6.3,6.3,0,0,0,81.4,60.3Z" transform="translate(-17.6 -4.7)"/><path d="M76.8,59.1l-2.1.5a17.9,17.9,0,0,1,.1-2.3,2,2,0,0,1,.7-1.1,2.1,2.1,0,0,1,1-.1,1.7,1.7,0,0,1-.2.6L75,58.3a0.7,0.7,0,0,0,0,.7,0.8,0.8,0,0,0,.7.1l1-.5Z" transform="translate(-17.6 -4.7)"/><path d="M75.5,99.9l-0.6-.6,0.2-.3,3.1,1.8a11.7,11.7,0,0,1-.7,1.6v-2H77l-0.2.9-1.4-.4A3.4,3.4,0,0,1,75.5,99.9Z" transform="translate(-17.6 -4.7)"/><path d="M27.6,103.5a26.1,26.1,0,0,0-1.6,2.2c-0.2.3,0.1,1-.2,1.2a6.6,6.6,0,0,1-1.6.8,5.2,5.2,0,0,1,.6-1.4l2.6-2.9Z" transform="translate(-17.6 -4.7)"/><path d="M73.6,105.7l2.2-2.8,0.5,0.4-0.5.5,0.4,0.4-0.9.7-0.5.6-0.4.8Z" transform="translate(-17.6 -4.7)"/><path d="M63.2,47.9l0.4,0.8-0.5,1.1h1.3l-0.8,1c-0.5-.4-1.4-0.9-1.4-1.3A4.7,4.7,0,0,1,63.2,47.9Z" transform="translate(-17.6 -4.7)"/><path d="M62.4,46.1a1.9,1.9,0,0,0-.8.3,11.9,11.9,0,0,0-.7,1.9l0.9,0.4a0.9,0.9,0,0,1-.2.4,2.8,2.8,0,0,1-1.3-.3,3.2,3.2,0,0,1,.3-1.8,7.6,7.6,0,0,1,1.6-1.4Z" transform="translate(-17.6 -4.7)"/><path d="M77.6,80.7c-0.3-1-1-2.1-.7-2.3a8.1,8.1,0,0,1,2.4-1.3l-0.2,1H78.3Z" transform="translate(-17.6 -4.7)"/><path d="M79.5,108.4l-2,1.9a1.8,1.8,0,0,0,0,.9,3.5,3.5,0,0,1,0,.4,1.3,1.3,0,0,1-.6-0.1,1.7,1.7,0,0,1-.2-1.1,3.6,3.6,0,0,1,1-1.3,11.6,11.6,0,0,1,1.7-.9v0.3Z" transform="translate(-17.6 -4.7)"/><path d="M97.2,66.7c-0.6-1.4.9-4.1,1.8-3.9h0.3a0.6,0.6,0,0,1-.1.3l-2,3.4h0Z" transform="translate(-17.6 -4.7)"/><path d="M81.4,85.2l2.2-3.1,0.8,0.3-0.5.4-1.3,2.3a2.8,2.8,0,0,1-.6.5Z" transform="translate(-17.6 -4.7)"/><path d="M75.9,68.3c0.2,0.1-.2,0-0.2-0.2a6.5,6.5,0,0,1,.3-1.8,1.2,1.2,0,0,1,.7-0.4l2-.5a6.5,6.5,0,0,0-1.5.9A14.6,14.6,0,0,0,75.9,68.3Z" transform="translate(-17.6 -4.7)"/><path d="M71.3,106.7l0.7,3.2a3.3,3.3,0,0,1-1.2-.2,20.9,20.9,0,0,1,.2-3.2h0.3Z" transform="translate(-17.6 -4.7)"/><path d="M27.6,108.1L27,110l-1.5.6,1.5-3.1h0.2l-0.2.8,0.2,0.2,0.3-.7h0.1Z" transform="translate(-17.6 -4.7)"/><path d="M95.8,116.1a5.2,5.2,0,0,0-1.3-.3,12.5,12.5,0,0,0-2.1.5l1.4-.8,0.2-2.7h0.6a1.8,1.8,0,0,0-.1.9c0.4,0.8.9,1.6,1.3,2.4h0Z" transform="translate(-17.6 -4.7)"/><path d="M88.8,94.6a10.1,10.1,0,0,1,2.2-1.5c0.4-.1,1.1.4,1.6,0.7l-0.7.7-0.2-.2H90.5V94l-1.6.6h0Z" transform="translate(-17.6 -4.7)"/><path d="M86.5,71.8a3.4,3.4,0,0,1,1.3.5,1.9,1.9,0,0,1,.2,1.5,4,4,0,0,1-1.4,1.3,2.1,2.1,0,0,1-.9.1l0.6-.6C87.5,73.9,87.9,73.1,86.5,71.8Z" transform="translate(-17.6 -4.7)"/><path d="M69.8,84.5l-1.8,1.8-1.8-1.6h3.5Z" transform="translate(-17.6 -4.7)"/><path d="M73.9,71H72.2a6.9,6.9,0,0,1,.2-1.5,3.4,3.4,0,0,1,.8-1.1l0.7-.4a0.6,0.6,0,0,1,.2.4,1.7,1.7,0,0,1-.5,1C71.7,69.8,72.7,70.3,73.9,71Z" transform="translate(-17.6 -4.7)"/><path d="M31.2,85.6l2.5-.9a12,12,0,0,1-1.2,1.9,13.6,13.6,0,0,1-1.9,1.5l1.8-2.4H31.2Z" transform="translate(-17.6 -4.7)"/><path d="M32.5,110.1l1-1.7L33,108l1.6-.6a0.8,0.8,0,0,1,.2.4l-1.2,1.4-1,1.2v-0.2Z" transform="translate(-17.6 -4.7)"/><path d="M73.9,85.6l0.7,0.6-0.2.2a1,1,0,0,1-.5-0.4,2.7,2.7,0,0,1,.1-1.5,5.5,5.5,0,0,1,1.6-1.2,0.7,0.7,0,0,1,.5.3,0.7,0.7,0,0,1-.3.5Z" transform="translate(-17.6 -4.7)"/><path d="M92,104.3a2,2,0,0,0-.7-0.4,1.9,1.9,0,0,0-.8.6,10.8,10.8,0,0,0-.7,1.3,8.2,8.2,0,0,1,.1-1.2,1.7,1.7,0,0,1,.4-0.5l0.5-.6,0.8-.6a0.5,0.5,0,0,1,.3.3A11.4,11.4,0,0,1,92,104.3Z" transform="translate(-17.6 -4.7)"/><path d="M74.9,107.9a7,7,0,0,0-.5,1.7,3.5,3.5,0,0,0,.9,1.2,1.8,1.8,0,0,1-.9.4,1.7,1.7,0,0,1-.8-0.6l1.1-2.8h0.3Z" transform="translate(-17.6 -4.7)"/><path d="M24.5,55.6a2.8,2.8,0,0,1,.3-1.3,5,5,0,0,1,2.6-1.3Z" transform="translate(-17.6 -4.7)"/><path d="M69.1,95.5l-2.5.5,1.1-1.5Z" transform="translate(-17.6 -4.7)"/><path d="M75.7,64.1l0.2-2.6c2,1.8,2,1.8-.2,2.6h0Z" transform="translate(-17.6 -4.7)"/><path d="M88.8,94.6c0,0.7-.1,1.5-0.1,2.2a0.9,0.9,0,0,1-.3.3,4.1,4.1,0,0,1-.9-1.2,6.7,6.7,0,0,1,1.4-1.3h0Z" transform="translate(-17.6 -4.7)"/><path d="M95.9,121.7a2.9,2.9,0,0,0,.5.8l1.2,0.8H98a0.9,0.9,0,0,1-.2.4,2.3,2.3,0,0,1-1.4.1,7.9,7.9,0,0,1-.9-1.9Z" transform="translate(-17.6 -4.7)"/><path d="M68.9,68.7l1,2.1a0.6,0.6,0,0,1-.3.4H68.8l-0.7-.3V70.1Z" transform="translate(-17.6 -4.7)"/><path d="M68.1,75.7l1.2,2.5-0.4.3a2.6,2.6,0,0,1-1.2-1A5.9,5.9,0,0,1,68.1,75.7Z" transform="translate(-17.6 -4.7)"/><path d="M79.7,110.6l-1.2,1a5.4,5.4,0,0,1,.6-1.6,2.5,2.5,0,0,1,1.3-.3v1.1Z" transform="translate(-17.6 -4.7)"/><path d="M68.4,75.1a14.4,14.4,0,0,1,.7-1.7,1.7,1.7,0,0,1,.8-0.4v0.5h1.1Z" transform="translate(-17.6 -4.7)"/><path d="M23.7,158.1l-1.3,2.5H22.1a0.7,0.7,0,0,1-.1-0.5l1.8-1.9h0Z" transform="translate(-17.6 -4.7)"/><path d="M87.2,68.7l0.2,0.5-2.2-1.1c0,0.2-.1-0.2.1-0.3a1.4,1.4,0,0,1,1-.4A4.4,4.4,0,0,1,87.2,68.7Z" transform="translate(-17.6 -4.7)"/><path d="M30.5,155.2l-0.6-.2h-1l1.3-1.1,1.5,0.5a1.8,1.8,0,0,0-.8.1A2.1,2.1,0,0,0,30.5,155.2Z" transform="translate(-17.6 -4.7)"/><path d="M33,95.2a1.9,1.9,0,0,1,.2-1,8.4,8.4,0,0,1,1.6-.7l-1.3,2Z" transform="translate(-17.6 -4.7)"/><path d="M30.7,104.3l2.9-3.5,0.4,0.4-3.1,3.3Z" transform="translate(-17.6 -4.7)"/><path d="M29.8,77.6l2-2.2h0.5a1.1,1.1,0,0,1-.1.5L30,77.8Z" transform="translate(-17.6 -4.7)"/><path d="M69.8,84.5l-0.4-2.7h0.4l1,2.1-1,.6h0Z" transform="translate(-17.6 -4.7)"/><path d="M95,120.8c0.6-.1-2.1-0.7,0-0.7v-0.8C95.8,119.4,95.8,119.6,95,120.8Z" transform="translate(-17.6 -4.7)"/><path d="M102.2,91.3a9.4,9.4,0,0,1-1.2-1.7,1.9,1.9,0,0,1,.2-0.9l0.6,0.8,0.3,0.2h0.7Z" transform="translate(-17.6 -4.7)"/><path d="M86.5,127.3l1.4,1.1-1.1.7-0.7-1.5Z" transform="translate(-17.6 -4.7)"/><path d="M66.8,63.8a2.3,2.3,0,0,1,1.2,0,1,1,0,0,1,0,1.2l-0.4-.5L66.2,66l0.5-2.2h0Z" transform="translate(-17.6 -4.7)"/><path d="M66.8,63.8l-1.4.6a5,5,0,0,1-.4-1,1.4,1.4,0,0,1,.2-0.8h0.4a3.1,3.1,0,0,0,.2.5l1,0.8h0Z" transform="translate(-17.6 -4.7)"/><path d="M98,94.4l1,2-1.3.5Z" transform="translate(-17.6 -4.7)"/><path d="M85,119.7l0.4-2.2,1.2,1.3a0.4,0.4,0,0,1,.1.2l-0.7.4Z" transform="translate(-17.6 -4.7)"/><path d="M77.5,89.4l-0.5,2.2a1.9,1.9,0,0,1-.5-0.8,6.1,6.1,0,0,1,.3-1.4h0.7Z" transform="translate(-17.6 -4.7)"/><path d="M80.7,90.9l0.9,2.3a0.5,0.5,0,0,1-.2.3,1.9,1.9,0,0,1-.9-0.4A13.9,13.9,0,0,1,80.7,90.9Z" transform="translate(-17.6 -4.7)"/><path d="M26,136.1a2.5,2.5,0,0,1,.4-1,3.6,3.6,0,0,1,2.1-1l-2.5,2h0Z" transform="translate(-17.6 -4.7)"/><path d="M87.1,72.6a3.5,3.5,0,0,1-1.1.9,2.7,2.7,0,0,1-1-.6,4.6,4.6,0,0,1,1.1-.8A2.3,2.3,0,0,1,87.1,72.6Z" transform="translate(-17.6 -4.7)"/><path d="M73.4,54.3l-0.3,2-0.2-1.1-1,.7a2.1,2.1,0,0,1,.1-1.1A4.2,4.2,0,0,1,73.4,54.3Z" transform="translate(-17.6 -4.7)"/><path d="M27.3,111.2l2-2.8,0.5,0.4-2.5,2.3h0Z" transform="translate(-17.6 -4.7)"/><path d="M25.3,47.3H24l2.8-1.3-1.9,2.4-0.3-.2Z" transform="translate(-17.6 -4.7)"/><path d="M91.1,96.1l0.7-1,0.3,0.5-1.8.8V94.8Z" transform="translate(-17.6 -4.7)"/><path d="M30.2,119.2l3.3-3.5,0.2,0.2-3.3,3.5Z" transform="translate(-17.6 -4.7)"/><path d="M32.4,78.4l-1-.8,1.8-.7Z" transform="translate(-17.6 -4.7)"/><path d="M100.9,63.8l-0.4.4a1.3,1.3,0,0,1-.7-0.5,2.9,2.9,0,0,1,0-1l0.9-.2-0.4,1.1Z" transform="translate(-17.6 -4.7)"/><path d="M27.9,106.4l2-1.7,0.3,0.4-2,1.7Z" transform="translate(-17.6 -4.7)"/><path d="M25,61.7a3.6,3.6,0,0,1-.6.9,4.5,4.5,0,0,1-1.1.5l1.3-1.7Z" transform="translate(-17.6 -4.7)"/><path d="M68.7,114a5.3,5.3,0,0,1-1.3.6,2.5,2.5,0,0,1-1.1-.2,0.6,0.6,0,0,1-.1-0.4h0.2Z" transform="translate(-17.6 -4.7)"/><path d="M33.5,111.5l1.6-.5-0.9,1.6Z" transform="translate(-17.6 -4.7)"/><path d="M68.9,61.6c-0.1-.7-0.1-1.5-0.2-2.2a0.5,0.5,0,0,1,.1-0.3h0.4l0.9,0.8-1.2,1.6h0Z" transform="translate(-17.6 -4.7)"/><path d="M79.7,98.7l1.3-.6-0.2-.3,0.2-.2,0.7,0.9a0.5,0.5,0,0,1-.3.4Z" transform="translate(-17.6 -4.7)"/><path d="M32.8,50.2l-0.5-.6,1.7-1,0.2,0.2Z" transform="translate(-17.6 -4.7)"/><path d="M30.9,136.6l2.3-.9a10.9,10.9,0,0,1-.6,1.3,3,3,0,0,1-.7.6Z" transform="translate(-17.6 -4.7)"/><path d="M80.3,87.6l0.9,1-0.4.4-1.1-.9Z" transform="translate(-17.6 -4.7)"/><path d="M29.3,73l0.4-1.2,1.4-1L31.4,71Z" transform="translate(-17.6 -4.7)"/><path d="M104.8,62.7a2.9,2.9,0,0,1,.5,1.1,3,3,0,0,1-.9.8,0.9,0.9,0,0,1-.4-0.4A11,11,0,0,1,104.8,62.7Z" transform="translate(-17.6 -4.7)"/><path d="M66.9,99.5V97.7h1.3Z" transform="translate(-17.6 -4.7)"/><path d="M33.1,79.7L31.2,81,31,80.6l1.9-1.3Z" transform="translate(-17.6 -4.7)"/><path d="M72.4,72.4l1.4-.9h0.5a0.3,0.3,0,0,1,0,.3L74,72l-1.3.7Z" transform="translate(-17.6 -4.7)"/><path d="M79.5,113.8L78,113l0.6-.5,1,1.1v0.2Z" transform="translate(-17.6 -4.7)"/><path d="M78.1,116.9v-1.2h1.4l-1.5,1h0Z" transform="translate(-17.6 -4.7)"/><path d="M25.5,132.4l-0.8,1.6-0.5-.3,0.9-1.5Z" transform="translate(-17.6 -4.7)"/><path d="M80.6,112.8l-1.8-.6a1.9,1.9,0,0,1,.9-0.5A3.5,3.5,0,0,1,80.6,112.8Z" transform="translate(-17.6 -4.7)"/><path d="M33.6,98.8a2.4,2.4,0,0,1-.2-0.9l0.9-.8,0.3,0.3Z" transform="translate(-17.6 -4.7)"/><path d="M32.4,63.2l-1.8,1.6-0.2-.2,1.6-1.7Z" transform="translate(-17.6 -4.7)"/><path d="M28,129.7l-1.5,1.6-0.3-.2,1.5-1.7Z" transform="translate(-17.6 -4.7)"/><path d="M33.4,105.5l0.9-1.9,0.5,0.3-1.4,1.5h0Z" transform="translate(-17.6 -4.7)"/><path d="M77.6,54.1v0.5l-1.6.9-0.2-.3Z" transform="translate(-17.6 -4.7)"/><path d="M27.9,99l1.6-1.2,0.2,0.3-1.6,1.3Z" transform="translate(-17.6 -4.7)"/><path d="M26.5,156.2l1.2-1.7,0.4,0.3-1.4,1.5H26.5Z" transform="translate(-17.6 -4.7)"/><path d="M80.3,131.9a4.2,4.2,0,0,1-1.4-.2,1.9,1.9,0,0,1-.3-1Z" transform="translate(-17.6 -4.7)"/><path d="M35.1,53.1l-1.4.6a1.6,1.6,0,0,1,.1-0.6l1.3-.3v0.4Z" transform="translate(-17.6 -4.7)"/><path d="M32.6,58.6l-1.2.9-0.3-.3,1-.9Z" transform="translate(-17.6 -4.7)"/><path d="M26.1,134.5l-1.8.2v-0.4H26v0.3Z" transform="translate(-17.6 -4.7)"/><path d="M80.3,89.3l2,0.6a1.5,1.5,0,0,1-.1.6Z" transform="translate(-17.6 -4.7)"/><path d="M77.5,115.7a0.7,0.7,0,0,1,0-.3l0.6-1,0.4,0.3-1,1h0Z" transform="translate(-17.6 -4.7)"/><path d="M29.3,51.7L27.7,53l-0.3-.2a3.2,3.2,0,0,1,.7-0.8A4.4,4.4,0,0,1,29.3,51.7Z" transform="translate(-17.6 -4.7)"/><path d="M32.3,91.7l-2.2,1.8h0.1l2-2.1h0.2Z" transform="translate(-17.6 -4.7)"/><path d="M46.4,179.6H44.7l-0.2-.2a0.4,0.4,0,0,1,.1-0.3l2,0.3v0.2Z" transform="translate(-17.6 -4.7)"/><path d="M73,92.9l0.6,1.5H73q0-.8,0-1.7h0Z" transform="translate(-17.6 -4.7)"/><path d="M29.9,112.4l-1.4,1-0.2-.2,1.3-1.1Z" transform="translate(-17.6 -4.7)"/><path d="M28.8,83.5l-1.5,1.1-0.2-.3,1.5-1.1Z" transform="translate(-17.6 -4.7)"/><path d="M30.2,84.6l1.6-1.7L32,83l-1.6,1.7Z" transform="translate(-17.6 -4.7)"/><path d="M93.9,127.3l1.2,0.2a1.1,1.1,0,0,1-.4.4l-0.9-.3v-0.4Z" transform="translate(-17.6 -4.7)"/><path d="M27.8,175.9l-0.8.6-0.3-.5h1.1Z" transform="translate(-17.6 -4.7)"/><path d="M81.3,87.9l-0.6-1.2,0.3-.2,0.6,1.2Z" transform="translate(-17.6 -4.7)"/><path d="M71.8,59.1V57.4L72.4,58l-0.3,1.2H71.8Z" transform="translate(-17.6 -4.7)"/><path d="M80.5,118.6l1.5,1.1a3.1,3.1,0,0,1-1.2,0A2.7,2.7,0,0,1,80.5,118.6Z" transform="translate(-17.6 -4.7)"/><path d="M23.7,158.1l0.7-1h0.4a0.5,0.5,0,0,1,0,.3h-1l0.6,0.6-0.7-.2h0Z" transform="translate(-17.6 -4.7)"/><path d="M25.9,71.8l1-.6,0.2,0.4-1,.6Z" transform="translate(-17.6 -4.7)"/><path d="M34.6,127.7l-1.1,1.2v-0.2l0.9-1.2Z" transform="translate(-17.6 -4.7)"/><path d="M85.8,121.9l0.9-.8,0.2,0.3-0.6,1.2Z" transform="translate(-17.6 -4.7)"/><path d="M27.3,60.4l-2.1,1.4a1.2,1.2,0,0,1,.1-0.6Z" transform="translate(-17.6 -4.7)"/><path d="M28,120.9l1.2-1,0.2,0.3-1.2.9Z" transform="translate(-17.6 -4.7)"/><path d="M21.8,165.8a7.4,7.4,0,0,1-.6,1.3,1.7,1.7,0,0,1-.8.1Z" transform="translate(-17.6 -4.7)"/><path d="M32.9,72.9l-0.3-.3,0.6-.9L33.5,72Z" transform="translate(-17.6 -4.7)"/><path d="M24.6,50l1-.9,0.2,0.3-1,.9Z" transform="translate(-17.6 -4.7)"/><path d="M33.8,51.4l1-.8,0.2,0.3-1.1.8Z" transform="translate(-17.6 -4.7)"/><path d="M26.5,86.9l1.2-.5,0.2,0.3-0.5,1.1Z" transform="translate(-17.6 -4.7)"/><path d="M33.5,129.5l-1.1,1-0.2-.2,1-1.1Z" transform="translate(-17.6 -4.7)"/><path d="M31.7,65.4l1.3-.2-0.8.7Z" transform="translate(-17.6 -4.7)"/><path d="M75.4,101a2.6,2.6,0,0,1-.3.7H74.6l0.4-.9h0.4Z" transform="translate(-17.6 -4.7)"/><path d="M84.1,74.3l0.5-1,0.3,0.3-0.5,1Z" transform="translate(-17.6 -4.7)"/><path d="M100,93.5l-0.3.9-0.5-.2,0.5-.8H100Z" transform="translate(-17.6 -4.7)"/><path d="M25.7,152.2l-0.2-.6-0.3.4H25.1l0.7-.8,0.3,0.2Z" transform="translate(-17.6 -4.7)"/><path d="M93.3,108.5l-0.6,1.4H92.5l0.5-1.5h0.3Z" transform="translate(-17.6 -4.7)"/><path d="M31.7,61.2l1.1-1.3,0.2,0.2-1.2,1.3Z" transform="translate(-17.6 -4.7)"/><path d="M24.7,166.4l-1.1.6v-0.2l1.1-.8Z" transform="translate(-17.6 -4.7)"/><path d="M32.1,169.1l1.1-1.2,0.2,0.3-1.3,1H32.1Z" transform="translate(-17.6 -4.7)"/><path d="M34,124.1L33,125.2l-0.2-.2,0.9-1Z" transform="translate(-17.6 -4.7)"/><path d="M31.4,96.6l1.1-.9,0.2,0.2-1,.9Z" transform="translate(-17.6 -4.7)"/><path d="M78.6,124.9l-1.5-.2v-0.3l1.5,0.2v0.2Z" transform="translate(-17.6 -4.7)"/><path d="M32.4,110.6l-1,.8H31.3l0.8-1Z" transform="translate(-17.6 -4.7)"/><path d="M85.7,77.3l0.2,0.8H85.5V77.3h0.3Z" transform="translate(-17.6 -4.7)"/><path d="M80,56.6l-0.5-.9,0.3-.2,0.4,0.9Z" transform="translate(-17.6 -4.7)"/><path d="M83.6,124.7l-0.7.5a0.8,0.8,0,0,1-.1-0.4l0.6-.4Z" transform="translate(-17.6 -4.7)"/><path d="M27.8,175.9h0l0.3-1,0.6,0.4Z" transform="translate(-17.6 -4.7)"/><path d="M27.4,90.3l1.2-.8v0.2l-1.1.9Z" transform="translate(-17.6 -4.7)"/><path d="M29.2,39.5l0.7-.8h0.3l-0.7.8Z" transform="translate(-17.6 -4.7)"/><path d="M30.2,79.7l1.4-1v0.2l-1.4.9V79.7Z" transform="translate(-17.6 -4.7)"/><path d="M25,75.8l0.8-.4a0.7,0.7,0,0,1,.1.3l-0.7.5Z" transform="translate(-17.6 -4.7)"/><path d="M77.8,107.3v1.1H77.6v-1.1h0.3Z" transform="translate(-17.6 -4.7)"/><path d="M29.2,116.2l-0.6.5a1.4,1.4,0,0,1,.1-0.5l0.4-.2Z" transform="translate(-17.6 -4.7)"/><path d="M75.7,64.1l-0.5.9-0.4-.3,0.9-.6h0Z" transform="translate(-17.6 -4.7)"/><path d="M30.5,101.4l-0.5.4a1,1,0,0,1-.2-0.4A1.1,1.1,0,0,1,30,101Z" transform="translate(-17.6 -4.7)"/><path d="M32,89l-0.6.9-0.3-.2,0.7-.9Z" transform="translate(-17.6 -4.7)"/><path d="M32.4,165.5l0.8-.6,0.2,0.2-0.7.7Z" transform="translate(-17.6 -4.7)"/><path d="M72.9,184.6h1.2v0.2H72.8v-0.3Z" transform="translate(-17.6 -4.7)"/><path d="M21.3,164.5l0.5,0.7H21.4l-0.4-.7h0.2Z" transform="translate(-17.6 -4.7)"/><path d="M46.9,43.6a4.6,4.6,0,0,1-.2-0.7h0.4v0.8H46.9Z" transform="translate(-17.6 -4.7)"/><path d="M34.3,119.4l-0.7.9-0.2-.2,0.8-.9h0.2Z" transform="translate(-17.6 -4.7)"/><path d="M86.2,122.6l0.2,1.1H86.2l-0.3-1h0.3Z" transform="translate(-17.6 -4.7)"/><path d="M84,79.9l-0.6.4a1,1,0,0,1-.1-0.4l0.6-.3v0.2Z" transform="translate(-17.6 -4.7)"/><path d="M23.7,154.3l0.6-.9h0.2l-0.6.9Z" transform="translate(-17.6 -4.7)"/><path d="M33,56.1l-1,.5V56.3l0.9-.3H33Z" transform="translate(-17.6 -4.7)"/><path d="M92.6,111.4l0.6-.6,0.3,0.2-0.7.6v-0.2Z" transform="translate(-17.6 -4.7)"/><path d="M24,156.3l-0.6.3-0.2-.3,0.5-.4Z" transform="translate(-17.6 -4.7)"/><path d="M31.1,152.8l-0.2-1.1,0.6,0.7Z" transform="translate(-17.6 -4.7)"/><path d="M33.4,105.5l-0.7.9-0.2-.3,1-.6h0Z" transform="translate(-17.6 -4.7)"/><path d="M25.4,174.1l-0.7.4-0.2-.2,0.6-.5Z" transform="translate(-17.6 -4.7)"/><path d="M98.3,97.2l0.8,0.3v0.3l-0.8-.3V97.2Z" transform="translate(-17.6 -4.7)"/><path d="M79.2,86.8l-0.3.9H78.6l0.3-.9h0.3Z" transform="translate(-17.6 -4.7)"/><path d="M25.2,45.3L25.4,46H25.1l-0.3-.8h0.3Z" transform="translate(-17.6 -4.7)"/><path d="M32.9,99.5l-0.7.6H32.1l0.6-.7Z" transform="translate(-17.6 -4.7)"/><path d="M98.7,98.4l-0.7.5-0.2-.2,0.6-.5Z" transform="translate(-17.6 -4.7)"/><path d="M70,184.4h0Z" transform="translate(-17.6 -4.7)"/><path d="M63.9,48.3a1.1,1.1,0,0,1-.2-0.4l0.3-.4,0.3,0.3Z" transform="translate(-17.6 -4.7)"/><path d="M76.5,115.4l0.3-.8H77l-0.2.9H76.5Z" transform="translate(-17.6 -4.7)"/><path d="M47.3,43.7l0.7-.2v0.2l-0.7.3V43.7Z" transform="translate(-17.6 -4.7)"/><path d="M24,40.6l-0.5-.4,0.2-.2,0.5,0.4Z" transform="translate(-17.6 -4.7)"/><path d="M83.4,132l0.7,1.3-1-1.1Z" transform="translate(-17.6 -4.7)"/><path d="M123.6,161.8l0.6,0.7-0.2.2-0.6-.7Z" transform="translate(-17.6 -4.7)"/><path d="M97.4,77.3l-0.7.9-0.2-.3,0.8-.8h0.1Z" transform="translate(-17.6 -4.7)"/><path d="M103.3,68.6l-0.4-.9h0.3l0.4,0.8Z" transform="translate(-17.6 -4.7)"/></svg>