<svg id="bodies_healtheffects_Image" data-name="bodies(healtheffects) Image" xmlns="http://www.w3.org/2000/svg" viewBox="0 0 408.2 459.5"><title>bodies(healtheffects)</title><path d="M26.4,450.5a3.3,3.3,0,0,0,.7.8c0.7,0.4,1.6,1.2,2.1,1s1.9-1.6,1.8-2.1c-1.2-3.3-2.5-6.5-4-9.6-0.6-1.4-1.8-2.6-2.3-4.1a13.3,13.3,0,0,1-.1-4.1,18.8,18.8,0,0,1,.3-3.8,67.4,67.4,0,0,1,2.3-8.4c0.9-2.5,2.6-2.5,4.5-.5l-2.8.6a51.3,51.3,0,0,0-2.2,7.3,46.4,46.4,0,0,0-.1,7.2L26,433.5H25.6a9.4,9.4,0,0,0,.5,2.1c1.4,2.7,2.9,5.3,4.2,8.1s1.7,4.5,2.5,6.7a0.7,0.7,0,0,1-.1.5c-0.6,1.3-4.8,3.3-5.8,2.5-3.3-2.5-6.4-5.2-9.5-7.9-0.4-.4-0.3-1.4-0.4-2.4l-0.6.7-0.8-2.9,0.8,1.4c-3.4-6.5-4.1-13.5-3.3-20.9l-0.8,1H12a11.8,11.8,0,0,0,.7-1.9q1.2-7.5,2.2-14.9a34.8,34.8,0,0,0,.4-4.6c0-3.4-.1-6.8-0.1-10.2,0-.8,0-1.7,0-2.5,0-5.7-.1-11.4-0.1-17.1,0-2.9.4-5.9,0.3-8.8,0-6.1-.2-12.3-0.3-18.4,0-4.4-.1-8.8.1-13.2a64.6,64.6,0,0,1,.9-7.2c0-.2.4-0.3,0-0.5l0.7-6.3a31,31,0,0,0,.3-3.1,36.2,36.2,0,0,1,1.2-9.1c0.5-2-.3-4.2-0.3-6.4s0.6-2.8.7-4.2c0.3-4,.5-8.1.7-12.1q0.4-8.6.8-17.2c0.2-5.1.4-10.3,0.6-15.4s0.3-8,.5-12,0.6-8.8.9-13.2,0.5-9.1,1.1-13.6c1.3-9.2,2.8-18.4,6.1-27.2,1.1-3,2.8-5.7,3.9-8.7a10.7,10.7,0,0,1,4.5-5.6c2.6-1.7,4.9-3.9,7.7-5.2a47.9,47.9,0,0,1,9.4-2.6A73,73,0,0,1,65,159.2c4.9-.4,9.9-0.3,14.8-0.5,1.5-.1,3.2.8,4.3-1.1,0.2-.4,1.5-0.2,2.3-0.8a26.8,26.8,0,0,0-4.6-1.3c-4.8-.5-8.6-2.9-12.6-5.3l-0.5-.4c-2.4-.9-5-1.6-5.4-4.8-0.7,3.2,1.8,3.9,3.8,5.3-3.5.5-3.8-2.8-5.8-4.7,0.5-2.8,1-6.3,1.8-9.7q2.3-9.4,5-18.8c0.8-2.7,2.3-5.3,3.1-8,1.8-6.7,3.4-13.5,5.1-20.3,0.9-3.5,1.8-7,2.8-10.5a1.4,1.4,0,0,0,.2-0.6c-1-3.6,1.4-6.6,2-9.9a57.2,57.2,0,0,1,2.9-10.1c2.9-8.1,7.4-15.4,12.2-22.4,1.5-2.2,3.7-4,5.5-6.1a34.3,34.3,0,0,1,16.8-10.5c4.6-1.3,9.5-2.9,14.5-1.8,3,0.6,6,.9,9,1.3V17.6L157,23a21.8,21.8,0,0,1,10.9,8.6c2.1-.6,2.6.8,3.1,2.2l-1.5-1.2a2.2,2.2,0,0,0,.7,1.6,2.3,2.3,0,0,0,.8-0.4l1.4,1.6-0.6.2,1.5,3.6,0.6-.3-1.5-3.6a20.2,20.2,0,0,1,6.2,13c0.2,2.7.8,5.5,1,8.2s0.3,6.3.6,9.5,1,6.6,1.1,10c0.2,6.4-.1,12.7,0,19.1s-0.4,14.3,1.4,21.3c0.9,3.4,1.7,6.9,2.4,10.3,0.1,0.6-.8,1.3-0.7,2,0.2,3.5.7,7.1,0.8,10.6a36.6,36.6,0,0,1-.7,5.8c-0.2,1.3-.3,2.6-0.5,3.9-0.9,5.7-5.5,6.1-9.9,6.9l-10.3,2.1c3.2,0.9,5.8,1.8,8.5,2.4l14.8,3.2c3.4,0.7,6.8,1.2,10.1,2s6.2,2.1,9.3,3.1l4.6,1.2a4.8,4.8,0,0,1,1.7.8c3.4,2.8,6.7,5.8,8.2,10s1.6,7.8,2.2,11.7,1.1,8.7,1.5,13,0.8,10.5,1.3,15.8c0.1,0.7.5,1.4,0.5,2.1,0,4.5-.1,9,0,13.5,0.1,6.3.2,12.6,0.3,18.8,0,0.4.3,0.7,0.4,1.1a7.5,7.5,0,0,1-.2,1.5c0,3.6.1,7.7,0,11.7s-0.7,7.1-1,10.7c-0.1.6,0,1.3,0,1.9l-1.6,25.6q-0.5,8.4-1,16.9c-0.2,2.8-.3,5.6-0.4,8.4s0.1,7.5,0,11.3c-0.3,5.7-.7,11.3-1.2,17-0.6,8-2,16.1-1.8,24.1,0.1,5.3-.5,10.5-0.2,15.7a2,2,0,0,0,.7,1.1,47.7,47.7,0,0,0,0,5.4c0.5,3.8,1.2,7.5,1.6,11.3a29.3,29.3,0,0,1-.1,7.4,75.9,75.9,0,0,1-2.4,10.1,36.8,36.8,0,0,1-2.9,7,78.9,78.9,0,0,1-5,7.7,45.8,45.8,0,0,1-3.3,3.7c-1.8,2-3.5.7-5.2-.1l-0.7-.4-0.6-1-0.4.4,1,0.6a2.8,2.8,0,0,1-1.2.4,2.9,2.9,0,0,1-.8-1.4c-0.8-3.7,1.8-6,3.6-8.6,3.8-5.2,5-11.1,4.5-17.4a43.2,43.2,0,0,0-1.1-5.6l-0.7-.2a26.9,26.9,0,0,0-2,4.4c-0.7,2.6-.9,5.2-1.5,7.8a9.2,9.2,0,0,1-1.3,3.5c-0.3.4-1.8,0.4-2.5,0.1a2.6,2.6,0,0,1-1.5-1.8c0-6,0-12.1.4-18.1,0.2-3,1.6-5.8,2.3-8.7a34.1,34.1,0,0,0,1-7.2c0-8.5-.1-16.9-0.2-25.4-0.1-6.5.1-12.9-.3-19.4-0.7-10.6-1.7-21.2-2.6-31.8a5.2,5.2,0,0,0-.3-0.8v5.3h-0.5a5.9,5.9,0,0,1-.5-1.7c0.1-2.3.4-4.6,0.3-6.8s-0.9-6.7-.9-10c0.1-7.1.6-14.2,0.7-21.3s-0.2-14-.3-21c-0.1-3.1-.3-6.2-0.4-9.3-0.3-6.4-.4-12.8-0.8-19.2-0.2-2.7-1-5.3-1.3-8s-0.5-5.9-.7-8.8c-0.1-.8-0.2-1.6-0.3-2.4h-0.3c-1,2.4-1.8,4.9-2.9,7.2s-1.8,2.4-2.3,3.7-1.2,4.5-1.9,6.8c-1.2,3.9-2.6,7.7-3.8,11.7s-2.8,9.7-4.1,14.6c-0.1.3,0.2,0.8-.2,1l-4.2,16.8,1.1-.6c-0.4.9-.7,1.5-0.9,2.2a17.3,17.3,0,0,0-.4,1.9c-2.9,0,.5,2-0.5,2.7s0.1,1,0,1.4c-0.6,2-1.4,4-1.8,6.1s-0.5,4.6-.9,6.9-1.2,4.4-1.7,6.6a3.7,3.7,0,0,1-.1,1.1l-0.7,5.4a2.4,2.4,0,0,1-.4-0.8,24.6,24.6,0,0,1,.6-8.9c0.9-3.3,1.2-6.7,1.9-10,0.2-1.1.7-2.1,0.9-3.2,1-6.3,1.9-12.6,2.9-18.9a110.6,110.6,0,0,1,2.4-11.1c1.8-6.4,3.6-12.9,5.8-19.2s4.4-11.4,6.6-17.1c0.7-1.7,1.3-3.4,2.1-5.1a29.4,29.4,0,0,1,2.2-3.3l1.2,1.7,0.5-2.2h0.7c0.3,2.6.6,5.2,0.8,7.9s-0.1,5.1.7,7.4c2.1,6.1,1.5,12.4,2.3,18.6,0.3,2-.3,4-0.4,6.1s0,4.2,0,6.3c0,4.9.1,9.8,0,14.6s-0.1,10.4-.2,15.6c-0.1,2.5-.4,4.9-0.4,7.4a41.9,41.9,0,0,0,.4,4.8,6.3,6.3,0,0,1,.9,1.8c0,3-.1,6,0,9a14.8,14.8,0,0,0,.9,3.2,3,3,0,0,1,.1,1.1,20.1,20.1,0,0,0-.4,2.1,26.4,26.4,0,0,0,.2,4.2,14.2,14.2,0,0,0,1,2,6.7,6.7,0,0,1,.3,2c0,1.7,0,3.3,0,5s0.1,1.8.1,2.7c0.2,6.3.4,12.7,0.7,19,0.2,3.9.5,7.7,0.6,11.6,0.2,6.2-.2,12.4.5,18.6,0.3,3.2-.4,6.2-0.4,9.3a83.9,83.9,0,0,1-.5,8.7c-0.1.8-1,1.5-1.2,2.3a67.8,67.8,0,0,0-1.4,8.8c-0.3,4.8-.4,9.6-0.4,14.5a15,15,0,0,0,.7,3.2c0.7-.9,1.7-1.7,2-2.8,0.7-2.8.8-5.7,1.6-8.4a33.7,33.7,0,0,1,2.8-6,1.2,1.2,0,0,1,2.1.4c0.5,3.1.8,6.2,1.2,9.3a24.9,24.9,0,0,1-2.2,14.1c-0.8,1.8-1.7,4.2-3.1,4.9s-1.5,2.2-1.7,3.4,1.5,2.8,3.6,2a10.7,10.7,0,0,0,5.8-5.6c2.1-4.2,4.6-8.2,6.5-12.5a25.7,25.7,0,0,0,2-14.5c-0.9-6.2-1.2-12.5-2.2-18.6a62.5,62.5,0,0,1,.2-19.1c0.6-4.1.5-8.4,0.8-12.6s1-11.2,1.3-16.8c0.5-8.8.8-17.6,1.2-26.3,0.2-5.2.3-10.4,0.5-15.7a14.5,14.5,0,0,1,.6-2.4,2.3,2.3,0,0,0,.1-1.2c-1.3-3.3.1-6.7,0.1-10,0.1-6.2.9-12.4,1-18.6s-0.2-13.4-.1-20.1c0-2.2.5-4.3,0.8-6.5a1.1,1.1,0,0,0-.2-0.7c0.1-10.4.2-20.6,0.2-30.8,0-2.3-.5-4.5-0.5-6.8s0.5-2.1.3-3.2l-0.2,1.2a6.8,6.8,0,0,1-.3-1c-0.2-2.1-.3-4.2-0.5-6.3-0.5-4.2-.9-8.4-1.6-12.6s-1.2-8.4-2.8-12.2-3.9-5.7-6-8.6l-0.6.3v1.7a4.6,4.6,0,0,1-1-.6c-4.2-4.1-9.8-5.7-15.2-6.9-7.4-1.6-15-2.4-22.5-3.5-3.2-.5-6.4-0.4-9.5-1.1s-3.2-2-4.4-3.5l-3.3.7v-0.4a2.9,2.9,0,0,0,.9-0.5l1.4-1.8a2.1,2.1,0,0,1,1-.7l10.3-2.1c2.2-.4,4.4-0.6,6.6-0.9l1.7-.4-0.9-1.2a10.8,10.8,0,0,0,2.2-.7c2.2-1.3,2.6-3.8,2.8-5.9a88.7,88.7,0,0,0,.1-13.5,81.4,81.4,0,0,0-2-15c-1.2-4.5-.5-8.9-0.9-13.4a68.2,68.2,0,0,1,0-8c0.1-5.3.4-10.5,0.2-15.8s-1.1-8.6-1.5-12.9c-0.2-2.4.2-4.8,0-7.1a23.9,23.9,0,0,0-1.3-6.2,25.7,25.7,0,0,0-2.7-4.5v1.5c-1.9-14.9-12.5-22-24.6-27.8l0.3,0.4,0.4,0.7-1.5-.2a94.7,94.7,0,0,1-8.8-3.7c-3.1-1.6-6.2-.9-9.4-1a6.4,6.4,0,0,0-2-.1l-9.4,3.1-4.1,1.1c-7.1,1.5-11.8,6.1-15.9,11.6-1.9,2.6-4.2,4.9-5.7,7.7a115.1,115.1,0,0,0-5,11.6,5.8,5.8,0,0,0,0,2c-2,.6-2,2.3-2.2,4a4.2,4.2,0,0,1-.1.7L80.9,80.6c-1.2,4.6-2.5,9.2-3.6,13.8-0.7,2.7-1.2,5.5-1.8,8.2s-1.3,6.6-2,9.9-1.2,4.2-1.9,6.3c-1.3,3.9-2.7,7.7-3.9,11.6a113.4,113.4,0,0,0-2.9,11c-0.2.9,0.7,2.4,1.5,3.1a31.9,31.9,0,0,0,5.6,4.1c1.4,0.8,3.1,1.1,5.4,1.8l-3.1.3v0.4a34.2,34.2,0,0,0,5.2.9,15.6,15.6,0,0,1,8.7,3.3c1,0.7,2.6.5,3.9,0.9l5.4,1.5a6.5,6.5,0,0,1-1.9,1.3c-3,.5-6.1,1.1-9.2,1.3s-4.5-.3-6.8,0c-5.4.6-10.7,1.4-16,2.1-3.1.4-6.2,0.6-9.3,1.1a46.8,46.8,0,0,0-5.9,1.9,8.2,8.2,0,0,0-1.5.5c-3.2,1.8-7,3-9.5,5.6s-4.6,6.9-6.2,10.7a77.9,77.9,0,0,0-3.4,12.1c-0.8,3.4-.7,7.1-2,10.4s-0.2,7.5-.7,11.2-1.1,8.4-1.4,12.7-0.8,10.7-1.1,16c-0.4,9.3-.6,18.6-0.9,27.9-0.2,6.3-.5,12.6-0.9,18.9-0.3,4.7-.5,9.5-0.9,14.2-0.2,3-.8,5.9-1.1,8.8s-0.7,8.2-1.1,12.5l-0.5-1.8H16.6c0.3,1.8.6,3.5,0.8,5.3s-0.7.9-.7,1.4a3.9,3.9,0,0,0,.6,1.5v0.2c-0.7.8-1.4,1.2-1.4,1.7-0.1,2-.5,4.2.1,5.9,1.4,3.7.8,7.5,0.9,11.2,0,1.3-.3,2.5-0.3,3.8s0.6,5.3.5,8a42.1,42.1,0,0,1-.8,5.3A36.2,36.2,0,0,0,16,374c0,2.8,0,5.5.1,8.3,0.2,6.1.6,12.2,0.6,18.4,0,4.4.1,8.8-.9,13a49.8,49.8,0,0,0-1.7,13.9,10.2,10.2,0,0,0,.1,2.9c1.4,3.8,2.8,7.6,4.6,11.1,0.9,1.8,2.6,3.2,3.9,4.8s1,1.8,1.7,2.6a9.5,9.5,0,0,0,2,1.4l-1.7-.3v0.6ZM225.3,273.3h0.4V260.1h-0.4v13.2ZM66.9,148.2l0.6-.5L65,144.9l-0.5.4ZM81.6,70.8h0.5L83,67H82.6ZM15.6,412.6h0.5v-4.2H15.8Zm150-251.8v-0.4l-2.5-1-0.3.7Zm16.3-9.4-0.5-.3-1,1.6,0.5,0.4ZM176.3,41.8l-0.5.2,0.7,2.1,0.5-.2Zm1.3,221.5h-0.3l-0.5,2H177Zm-9.6-103.5v0.3l1.3,0.3h0Zm57.6,99.2h0.3v-0.8h-0.3v0.7ZM62.2,161.2v-0.2H61.4v0.2h0.7ZM167.9,310.1h0.3v-0.5h-0.2v0.5Zm0.1,0.7h-0.3v0.7h0.2v-0.6ZM17.7,317h0.2v-0.4H17.7V317Zm162.2-60.8v0h0.2ZM25.3,435.5c-0.2-.2-0.1-0.1,0,0S25.3,435.3,25.3,435.5ZM85.3,155.1l0.8,0.2,0.2-.2h-1ZM14.4,432.9h0.2c0-.2,0-0.3,0-0.5H14.4v0.5Z" transform="translate(-12 -16.6)"/><path d="M127.6,145.5l6.5-8.6c0.8-1.1,1.3-.8,2,0.1,2,2.5,1.2,5.3.9,8a57.2,57.2,0,0,0-.4,8.2c0.1,3.3-1.1,5-4.3,5.5l-4.8.8c-0.1,1.3-.4,3.1-0.6,4.9a20.3,20.3,0,0,1-1,5.4V158.9l-0.6-.2a4.5,4.5,0,0,0-.6,1.4c-0.1,3.7-.2,7.5-0.3,11.2,0,0.2-.1.4-0.8,0.6l-0.7-12a4.9,4.9,0,0,0-1.3.7c-2.2,2.4-4.7.9-7,.2a3.4,3.4,0,0,1-1.6-2.8c0.5-5.2,1.3-10.3,2.1-15.4a2.6,2.6,0,0,1,.2-0.7c1.3-2.8,2.1-3,4.2-.8l3.9,4.1c0.3-3.6.8-6.9,0.7-10.1-0.6-10.8,1.2-21.4,2.2-32.1a48.5,48.5,0,0,0-1.2-17.3c-0.9-3.3-5.4-6.7-8.8-7.3a8.2,8.2,0,0,1-6-6.2l-0.5-2.7c-2-.2-3.9.1-5.4-0.6-7.9-3.3-10.9-10.1-8.2-17.7,1.4-3.9,4.4-6.7,7.3-9.6a50.5,50.5,0,0,1,14.6-9.9,14,14,0,0,1,11.4-.5,66.1,66.1,0,0,0,8.1,2.1c4.4,1.1,7.9,3.9,10.7,6.4,1,0.2,1.6.1,1.9,0.4a61.5,61.5,0,0,1,5.2,6.9,59.8,59.8,0,0,1,4.4,9.1c0.4,0.9-.4,2.4-0.7,3.5a30.5,30.5,0,0,1-1.9,5.7c-1.5,2.9-2.6,6.2-5.8,8a5.7,5.7,0,0,0-3.2,5c-0.1,3.8-2.7,5.8-5.8,6.7s-5.5.5-8.2,0.6a1.5,1.5,0,0,1-.9-0.5,15.1,15.1,0,0,0-9.8-4.5l2.2,3.3c2,3.1,1.9,6.7,1.8,10.1-0.1,8-.9,16-1.2,24-0.3,5.8-.3,11.6-0.6,17.3-0.2,3.8-.7,7.6-0.9,11.4a30.9,30.9,0,0,0,.3,4.4l1.4-2a1.5,1.5,0,0,0,.2-0.8c-0.1-2.9-.4-5.8-0.2-8.6,0.8-12.7,1.5-25.4,2.6-38.1,0.4-4.8,1.6-9.5,2.6-14.3a3.5,3.5,0,0,1,1.2-1.4l0.6,0.4a12,12,0,0,0-.7,1.4c-0.4,1.5-.9,3-1.2,4.6s-0.8,4.2-1,6.3-0.2,4.9-.4,7.4-0.6,3.7-.7,5.5c-0.3,4.9-.5,9.9-0.8,14.8s-0.8,11-1.2,16.5C127.6,143.5,127.6,144.4,127.6,145.5ZM146.7,42a3.9,3.9,0,0,1-1.3.9c-1.4.2-2.8,0.2-4.2,0.5a17.7,17.7,0,0,0-11.1,7.2,10.4,10.4,0,0,0-1.4,4.3,2.6,2.6,0,0,0,1.8,1.1,19.1,19.1,0,0,0,3.7-2.4c1-.7,1.9-1.6,3.1-2.6a2.8,2.8,0,0,1,0,1c-1.9,1.6-3.6,3.6-5.7,4.8-4,2.2-9.1.9-12.8,4.4-2.2,2-4.8,3.6-7.1,5.6-0.4.4-.1,1.6-0.1,3s0.2,3.6,1.3,4.3a16.4,16.4,0,0,0,7.6,2.8c5.4,0.3,10-2.6,14.8-4.8a6,6,0,0,1,1.7-.2c1.4-.2,3.2,0,4.2-0.7s2.7-3,3.9-4.6c2.8-3.7,5.3-7.7,10.8-7.7a1.7,1.7,0,0,0,.9-1.2c0.1-.9-3.2-2.9-4.4-2.9s-2.8.3-3.3,2.1a5.3,5.3,0,0,1-5.1,4,3.6,3.6,0,0,0-2.3,2,26.9,26.9,0,0,0-1.2,4.8c-1.4-2.1.1-7.1,2.1-7.5s4.9-1.3,5.8-4.2a16.2,16.2,0,0,1,1.3-3.7,28.6,28.6,0,0,1,3.1-3.9,4.1,4.1,0,0,1,1.2-.7,6.2,6.2,0,0,0-1.1-1.9c-2-1.6-4.1-3.1-6.2-4.6l-6.7-5-8.5,7.8-8.6,7.6c0.3-.8.3-1.8,0.8-2.2,2.7-2.5,5.5-4.9,8.2-7.4s3.8-3.7,5.5-5.7a1.9,1.9,0,0,0-.4-1.6c-0.9-.3-2.5-0.6-2.8-0.1-1.5,2-2.2,4.5-3.9,6.3-3.2,3.5-6.8,6.8-12.2,6a1.1,1.1,0,0,0-.8.7c-0.5,2.4-.9,4.9-1.4,7.3s-0.3,3.5,1.4,4.4,2.3-.2,3.4-0.4l3.2-1c2-.6,4.9-0.4,4-4a1.4,1.4,0,0,1,.2-0.6,13.8,13.8,0,0,1,5.7-7.4C137.5,42.8,141.7,41.2,146.7,42ZM103.8,53.8c-1.9-.9-2.4-0.7-2.9,1.4s-0.2,3,2.1,2.7a7.7,7.7,0,0,1,2.1-.2c3.2,0.4,5.6-1.9,8.4-2.6a0.6,0.6,0,0,0,.3-0.5c-0.2-2.9,4-4.9,1.5-8.2-0.3-.4-0.5-1.3-0.6-1.3a3.4,3.4,0,0,0-1.9.7c-1.3,1.5-2.4,3.2-3.6,4.7a2.7,2.7,0,0,1-.7.5,1.3,1.3,0,0,1-.2-0.5,8.2,8.2,0,0,1,4.4-6.3,1.5,1.5,0,0,0,.4-1.4c-0.5-1.2-1.3-2.3-1.6-3.6s-0.8-1.2-1.6-.6-3.1,2.5-4.7,3.6c-4.5,3.1-7.6,7.1-8.6,12.5-0.5,2.9.5,5.6,2.2,8.2l0.8-1.5c0.7-1.3,1.5-2.3.6-4s0.2-4.5,1.7-5.5a5.1,5.1,0,0,0,1.3-2c0.3-.6.3-1.2,0.5-1.8,1-2.7,3.4-3.9,5.3-2.5a2.2,2.2,0,0,1,.4.9,1.3,1.3,0,0,1-.7.1c-1.6-.9-2.9-0.4-3.4,1.1A50.2,50.2,0,0,0,103.8,53.8ZM122,36.2c0.2,1,.3,1.9.6,2.8s4.2,3.6,5.6,2.1a44.7,44.7,0,0,0,4.5-6.4,1.5,1.5,0,0,0-.5-1.4,12.1,12.1,0,0,0-9.8.1,3.6,3.6,0,0,1-1.5-.1V32.9l1.4-.7-0.4-.8-9.1,4.3,1.5,1.1c-3,.9-1.8,2.8-1.1,4.4a4.8,4.8,0,0,0,.6,1c3.2,4.5,8.7,4.3,11.9.6l-1.8-.6C121.8,41.1,120.5,37.2,122,36.2Zm2.4,41.8,1.1,0.8,6.3,3.4c0.8,0.5,1.4,1.6,2.1,1.6a60,60,0,0,0,8.3-.2c0.8-.1,1.4-1.2,2.1-1.5s2.9-4.3,1.9-5.9a2,2,0,0,1,.1-0.8,1.6,1.6,0,0,0-.1-0.9c-1.7-.7-3.4-1.9-5.1-1.9a29,29,0,0,0-8,1.6C130.2,75.3,127.4,76.7,124.4,77.9Zm-0.7,78.6a3.6,3.6,0,0,0,.6-1.5c-0.6-4.2-.2-8.8-4.3-11.7-0.3-.2-0.5-0.6-0.8-0.9l-1.7-1.2a9,9,0,0,0-1,2.3c-0.7,4.7-1.2,9.4-1.8,14a17.9,17.9,0,0,0,0,2.1,45.6,45.6,0,0,0,5.2,0C121.7,159.5,123.7,159.2,123.7,156.5Zm-8.4-95.5c-0.4-1.3-.7-2.5-1.2-3.7a1.4,1.4,0,0,0-1.2-.6c-2.8.7-5.5,1.8-8.3,2.3a5.6,5.6,0,0,0-4.8,4.6,1.2,1.2,0,0,0,.4.9c2.7,2.5,5.6,4.3,8.8,3.8Zm12.6,85.4a4.4,4.4,0,0,1,1.1.8,3.2,3.2,0,0,1-.6,1.1l-0.5.2c-1,1.1-.6,5.5.8,6.3a24.9,24.9,0,0,0,4.8,2.3,1.9,1.9,0,0,0,1.5-1,14,14,0,0,0,.1-3.3,29.3,29.3,0,0,1-.1-4.2c0.3-2.1,1.1-4.1,1.2-6.2a22.6,22.6,0,0,0-.5-4.7h-0.9Zm28.7-85.8A2,2,0,0,0,156,60c-1.6.4-3.7,0.3-4.8,1.3-2.9,2.8-5.5,6.1-8.1,9.2-0.7.8-.6,1.5,0.5,1.8l5.1,1.3h0.4c2-2.2,4.3-4.3,5.9-6.8S156.2,62.8,156.7,60.6ZM154,47.9L149.8,53l6.3,1.5-0.5-3.2,1.5,0.5ZM124.2,79.2l-2.6-.4a0.8,0.8,0,0,0-.4.5l1.2,1.6Z" transform="translate(-12 -16.6)"/><path d="M390.3,358.3a6.1,6.1,0,0,1,1.6-1.7c1.3-.6,1.3-1.3.9-2.6a22.6,22.6,0,0,1-.4-4.5l-0.4.4c-0.6-1.3,1-3.5,2.5-3.6a13.4,13.4,0,0,0,3.6-.7,2.6,2.6,0,0,0,1.1-4c-1.3-1.9-2.7-3.6-3.9-5.6a4.9,4.9,0,0,1-.7-2.8c0.2-2.8.9-5.5,1-8.3,0.3-4.7.6-9.4,0.5-14.1a15.9,15.9,0,0,0-3.5-10.3,50.5,50.5,0,0,0-8.7-7.4l0.3,0.9c-4.1-6.6-11.2-7.8-17.8-9.4s-13.6-.7-20.1,1.2v0.7l4.4-.7c-8.8,2.5-17,6-23.4,13.2h2.1a5.2,5.2,0,0,1-.9.8c-5.2,2.3-7.7,6.7-9.7,11.7-0.7,1.6-2.2,2.9-2.8,4.5s-1.3,4.6-2.1,6.8a11.9,11.9,0,0,0-.5,7.8,4,4,0,0,1-1,.9l0.5,4.6,1.1-.2c0.6,4.2,1,8.3,4.2,11.7s6.7,8.6,10,13a2,2,0,0,0,.9.6,5.9,5.9,0,0,1,1.4.3,16,16,0,0,1,.2,2.3c0.1,1.5.4,3.1,0.5,4.6a7,7,0,0,1,.1,2.3c-0.6,2.4-.7,5.4-2.3,7a32.8,32.8,0,0,1-10.2,7.4c-3.9,1.7-8.4,1.8-12.7,2.6s-8.7,1.9-12.6,4.7-3.3,4.3-3.7,7.1-1.4,6.2-1.7,9.3c-0.5,4.7-.7,9.4-1,14.2-0.6,7.4-1.6,14.9-1.5,22.3,0,3.8-.4,7.5-0.7,11.2s-0.6,7.9-.8,11.9a1.2,1.2,0,0,1-.5,1l-0.3-3.6-0.5,1.7h-0.3c0.1-1.2.4-2.5,0.4-3.7,0.3-5.8.6-11.5,1-17.3s1-13.1,1.5-19.6,1-14,1.7-20.9a46.9,46.9,0,0,1,2-10.1c0.6-1.7,2.3-3.1,3.7-4.4a22.1,22.1,0,0,1,10.6-4.9c4.9-1,9.7-2.4,14.6-3.7a11.4,11.4,0,0,0,1.9-1.3c1.8-1,3.7-2,5.6-2.8s2.9-3.4,3.4-5.5a22.4,22.4,0,0,0,.3-6.1,24.8,24.8,0,0,0-1.2-5.6c-0.2-.5-1.2-0.8-1.8-1.1a2.1,2.1,0,0,1-.7-0.4c-3.5-4.8-7.4-9.4-10.3-14.5a28.3,28.3,0,0,1-3.8-15.1,69.5,69.5,0,0,1,2-14.7c1-3.4,3.4-6.5,5.4-9.5A61.5,61.5,0,0,1,333.8,291a41.5,41.5,0,0,1,3.7-3c5.3-3,10.7-5.7,17-5.3l15.1,1.1a69.5,69.5,0,0,1,7.2,1.2,4.2,4.2,0,0,1,1.4,1.1l14.1,9.3-1.7.3,1.2,1.9,0.3-.5a2,2,0,0,1,1,.3,29.4,29.4,0,0,1,4.7,13.1c0.2,3.2.8,6.4,1.3,9.6s-0.5,6.9-2.2,10.2a6,6,0,0,0-.1,4.7c1.2,2.6,3,5,4.5,7.5a2.8,2.8,0,0,1-.3,1.8c-1,2.7-3.4,3.1-5.8,3.7-0.4.1-.8,1.3-0.8,1.9s0.2,3.2.3,4.7a9.1,9.1,0,0,1-.3,1.6c-0.5,3.2-1,6.3-2.5,9.2a1,1,0,0,0-.1.6,16.7,16.7,0,0,1,.5,3.5,6.3,6.3,0,0,1-1.2,3.2l-4.2,2.5a1.3,1.3,0,0,1-.8.2c-2.5-.5-4.9-1.3-7.4-1.4a12.4,12.4,0,0,0-6,1.4c-4.2,2.3-4.1,5.4.1,7.6a25.2,25.2,0,0,0,5.4,2,35,35,0,0,0,5.4.7,4,4,0,0,1,1.4-.1l12.6,1.7v0.3l2.3,0.5a10.1,10.1,0,0,1,2.3.2c2,0.8,4.2,1.5,5.8,2.8s3.8,2.5,4,5.3c0.1,1.1.8,2.1,1.2,3.2s0.9,4,1.5,5.9,2.2,5.1,2.6,7.8c0.8,5.9,1.2,11.9,1.6,17.8q0.9,12.8,1.6,25.6c0.2,3.2.2,6.5,0.1,9.7a13.1,13.1,0,0,1-.8,3.2,0.6,0.6,0,0,1-.4.3,1.2,1.2,0,0,1-.6-0.6c0-1.1.1-2.1,0-3.2q-0.6-10.1-1.3-20.3c-0.2-3.6-.5-7.3-0.9-10.9s-1-7.5-1.4-11.3c-0.2-2,.1-4-0.2-6-1.4-7.3-1.4-14.7-5-21.6-2.8-5.4-7.1-6.4-12.2-7.1-6.8-.9-13.6-1.8-20.3-3a41.1,41.1,0,0,1-7.2-2.5c-3-1.1-3.8-5.5-2.3-7.9s2.7-1.7,4.3-2.1c4.1-1.2,8.2-.4,12.3-0.3s6.8-2.6,5.4-7c-0.7-2.1.1-2.6,1.2-3.7a4.5,4.5,0,0,0,.8-2.7C391.7,359.3,391,358.9,390.3,358.3Zm6.9-32.5h0.4v-5.3h-0.4v5.3Zm-51.8-39.1-0.2-.8-3.9,1.3,0.2,0.7ZM416,415.4h0.8l-0.6-3.7h-0.5ZM285.4,448H285v1.9h0.2Z" transform="translate(-12 -16.6)"/><path d="M68.6,344.4a7.3,7.3,0,0,1,.2,2.1c-0.4,1.6-1.1,3.1-1.5,4.7s-1,5-1.7,7.4S63,365.7,62,369.3s-1.9,8.3-2.8,12.5-2.1,10.1-2.9,15.2c-0.4,2.5-.2,5-0.4,7.6s-0.8,5.3-1,7.9-0.4,5.9-.4,8.9,0.3,5.7.4,8.6c0,1.3-.3,2.6-0.3,3.9a105.1,105.1,0,0,0,.3,11.7c0.9,7.2.2,14.5,0.2,21.7,0,2.8-1.7,5.5-2.9,8.8a6,6,0,0,1-.3-1.4c0.5-4.4,1.3-8.9,1.6-13.3s0.4-9.2.4-13.9c0-6.4-.3-12.8-0.4-19.1-0.1-3.9-.1-7.7,0-11.6,0.3-7,.7-14,1.2-21,0-.7.6-1.4,0.7-2.1,0.4-2.8.5-5.5,0.9-8.3s1.4-6.6,2.3-9.8c1.3-4.7,2.8-9.4,4.1-14.2s3.1-10.7,4.6-16.1c0.3-1.2-.2-2.8.4-3.9,2.3-4.8,1.6-10,.9-14.8-1.3-8.2-.6-16.4-1-24.6a62.8,62.8,0,0,1-.3-7.3l0.2,0.9,0.5-.3c-0.6-3.1-1.3-6.1-1.7-9.3s-0.5-6.4-.8-9.6-0.8-8.4-1.3-12.7-1.2-10.7-1.9-16a65.8,65.8,0,0,0-1.5-9c-1.4-5.2-1.9-10.6-3.1-15.9a5.1,5.1,0,0,0-.3-0.7H56.6a20.4,20.4,0,0,1,.5,2.7,6.3,6.3,0,0,1-.3,2.1l-3.2,10.8a26.7,26.7,0,0,0-1,2.5c-0.5,2.5-.9,5.1-1.3,7.6s-1.2,7.6-1.9,11.4c-0.4,2.2-1.1,4.4-1.5,6.6-0.6,3.9-1,7.9-1.6,11.8s-1.2,5.5-1.5,8.2a44.3,44.3,0,0,0-.1,8.2,14.7,14.7,0,0,1-.4,3.9c-1,5.8-1.6,11.6-2.2,17.4-0.3,2.4-.1,4.9-0.4,7.4-0.5,4-1.4,8-1.9,12.1s-0.6,8.4-1,12.6c-0.8,6.9-1.8,13.8-2.5,20.7s-1.4,15.6-2.1,23.4a30,30,0,0,0-.4,3.3,15.9,15.9,0,0,0,.6,2.6,2.8,2.8,0,0,1,0,1.3c-1,3.4-.2,6.7.6,10.1,1.6,6.9,4.5,13.6,4.2,21-0.1,2.5-.3,5-0.6,7.4s-2.5,3.1-4.9,2.3l1.4,1.9v0.3c-0.6-.4-1.6-0.8-1.7-1.3-0.5-2.3-.7-4.6-0.9-6.9-0.4-4.3-.8-8.6-1.3-12.9a2,2,0,0,1,.9.7c1.8,3.9,2.1,8,1.9,12.3a13,13,0,0,0,.9,4.4,3,3,0,0,0,1.6.3,30.4,30.4,0,0,0,.9-4.2,49.3,49.3,0,0,0,.4-5,37.1,37.1,0,0,0-3.1-15.3c-1.8-4.3-3.2-8.7-2.6-13.6,0.8-6.9,1.3-13.9,2-20.9,0.6-5.3,1.4-10.6,1.8-15.9,0.3-3.6.2-7.3,0.4-10.9s0.7-8.2.9-12.3,0.1-8,.6-11.9c0.7-6.5,1.6-12.9,2.9-19.2a4.5,4.5,0,0,0,.9-1.4c0.4-3,.7-6.1,1.1-9.1,0.8-7.4,1.5-14.8,2.4-22.2,0.6-4.7,1.5-9.3,2.4-13.9q1.7-9.6,3.5-19.2c0.6-3.4,1.4-6.7,1.9-10.1s0-4.4.6-6.5,2.3-6.3,3.6-9.5a0.8,0.8,0,0,1,.6-0.2,6.1,6.1,0,0,1,1.2,2c0.8,4.4,1.4,8.9,2.2,13.4s1.8,10.6,2.8,15.9c0.5,2.5,1.2,5.1,1.5,7.6,0.6,4.3.9,8.6,1.5,12.9,0.1,0.5.9,0.9,1.4,1.4a11.4,11.4,0,0,1,.9,1.4l-0.5.3-1-1.4H66.8l0.3,2.5,1,7.9c0.7,6.1,1.5,12.2,2.1,18.3,0.2,1.8-.5,3.6-0.6,5.4-0.1,5.9-.1,11.8-0.1,17.7,0,1.6-.3,3.3.1,4.8,1.5,5.2,0,10.2-.6,15.3A5,5,0,0,1,68.6,344.4Zm-31.1-4.6H38l1-14H38.4ZM40.8,313h0.4v-1.3H41Zm-1.4,10.5H39.2l-0.3,1h0.3Z" transform="translate(-12 -16.6)"/><path d="M143.1,241.2a2.7,2.7,0,0,1-1.2.7c-1.2-.4-2.4-0.9-3.8-1.5a2.3,2.3,0,0,1,.9-0.6c1.6-.2,3.3-0.1,4.9-0.3a2.2,2.2,0,0,0,1.5-1.1c0.6-1.5-.8-3.9-2.2-4.5s-3.4.1-4.2,1.9a28.9,28.9,0,0,0-1.1,2.8c-0.3.9-.5,1.8-0.9,3.5a7.3,7.3,0,0,1-.7-2c0.4-4.2,2.3-7.5,6.2-9.4l0.7-.2,2,0.3-1.3,1.5a5.1,5.1,0,0,1,3,5.3,2.5,2.5,0,0,1-.2,1.4c-1.6,1.7-.4,3.5-0.5,5.2-0.2,3.7,2.3,4.6,4.8,6s6.5,3,10.3,2.4a6.7,6.7,0,0,0,4.8-4.3c2.8-9.3.4-18.4-1.7-27.4a90.3,90.3,0,0,0-9.8-24.4c-2.4-4.1-5.3-7.9-8-11.7a65.1,65.1,0,0,0-5.6-7.2,7.2,7.2,0,0,0-7.4-1.8c-1.6.5-3,2.3-3.8,3.9a16.4,16.4,0,0,0-2.1,10.3c0.2,1.4-.4,3,0,4.4,0.7,3.2,1.8,6.5,5.8,6.8a13.1,13.1,0,0,0,5.6-1.2c2.3-.9,4.4-2.2,6.6-3.3a1.3,1.3,0,0,1,.7.2,3.5,3.5,0,0,1-.8,1.4l-8.1,4.2c-2.6,1.4-5,.5-7.2-0.7s-4-3-3.8-6.1,0-8.2.7-12.1c0.4-2.3,2.1-4.5,3.6-6.5s2.1-2.6,3.4-2.9a8.9,8.9,0,0,1,8.7,3.4c2.7,3.4,4.8,7.3,7.6,10.7a73.7,73.7,0,0,1,10,17,96.5,96.5,0,0,1,7.2,25.5,79.6,79.6,0,0,1,.6,12.9,15.1,15.1,0,0,1-2,7.1c-0.9,1.5-3,2.6-4.8,3.2-4,1.2-7.7-.4-11.1-2.5-1.2-.7-2.3-1.4-3.5-2a1.6,1.6,0,0,0-1,.8c-1.9,3.5-3.6,7.1-5.6,10.5-0.5.9-1.6,1.4-2.8,2.4l0.3-1.9-0.2-.2c-4.3,1.9-6.6-1.6-9.2-3.7a37.6,37.6,0,0,1-5.2-5.2,9.4,9.4,0,0,1-.9-10,4.3,4.3,0,0,0,.1-2.8c-1.2-4.5.3-7.7,4.4-9.8a1.3,1.3,0,0,0,.5-1.1,28.2,28.2,0,0,1-2-14.9c0.3-2.4.3-4.9,1-7.2s3.4-3.4,5.6-1.5,5,5.2,7.9,7.2,4.3,6.3,6.8,9.2,5.2,9.3,6.9,14.4l0.3,0.9c0.7-1.3,1.5-3.9,2.1-3.8,2.2,0.2,4.3,1.4,6.4,2.2l-0.3,1-2.7-.9-3.3-1.2a37.3,37.3,0,0,0,0,4,17.5,17.5,0,0,1,.4,3.9l-1.7-2.4c0.1,0.8.2,1.3,0.2,1.7a8.6,8.6,0,0,1-.1,1.1,2.4,2.4,0,0,1-.9-0.7c-0.6-2.1-1-4.3-1.8-6.3-1.5-4-2.8-8.2-5.1-11.7-3.4-5.1-7.5-9.7-11.5-14.5-0.7-.9-2.1-1.3-3.1-2s-1-1.1-1.6-1.6a1.5,1.5,0,0,0-1.1-.5,2.8,2.8,0,0,0-1.6,1.2,38.6,38.6,0,0,0-.6,4.5,1.5,1.5,0,0,1-.4,1v-1.4h-0.1c0,3.9-.2,7.7.1,11.6,0.1,0.7,2,1.3,3.5,1.7l-1-1.9c2.9-1.4,2.8,2.6,4.9,2.6l1.6-5.8h0.5l0.3,1.2,1.8-1.9-0.8,5.8c2.8-.7,2.7-3.9,5.3-5.4l-1.2,2.7h0.6a7.5,7.5,0,0,1,0,2.2c-0.4,1.4-.9,2.6,1.3,2.7a2.1,2.1,0,0,1,.8.7,2.9,2.9,0,0,1-.7.6c-1.9.7-4,1-5.8,2s-2.4,3.1-2.4,5.3h0c-0.9-1.3-1.6-2.8-2.8-3.7s-2.1-.2-3.1-0.2l-0.5.2a6.3,6.3,0,0,0-6.1,7.8,3.5,3.5,0,0,0,.7,1,4.8,4.8,0,0,0,.8-0.8c1.3-2.2,7.3-3.4,9.3-1.6l-5.7,1V239H131c-2.1.9-3.7,1.4-5.1,2.1a10.6,10.6,0,0,0-2,1.9,4.9,4.9,0,0,0-.8,6.3,28.6,28.6,0,0,0,4.7,5.6,64.9,64.9,0,0,0,5.6,4.8,2.5,2.5,0,0,0,1.8.5c2.2-.4,4.7.1,6-2.7s3.2-5.9,3.6-9.5a10.9,10.9,0,0,0-.7-5.9,3.3,3.3,0,0,0-1.2-.9v-1l-0.7.8Zm-8.8-10.8c1.7-1.3,3.3-2.4,4.7-3.6a5.3,5.3,0,0,0,.8-2h-2a5.4,5.4,0,0,1-1.7,0,3.2,3.2,0,0,1-.2-1.4c0-.2,0-0.5,0-1.3l-1,2.2a4.1,4.1,0,0,1-.8,1.4,4.5,4.5,0,0,1-1.2-.5l-1.7-.3C133.5,230,133.5,230,134.3,230.4Zm-4.3-3.2-2-3.2-0.9.5c0.5,1.3.9,2.5,1.5,3.7a4.7,4.7,0,0,0,1.8-.6,2.2,2.2,0,0,0,.4-1.1h-0.3Zm24.2,10.6H154l0.3,1.2v-1.3Z" transform="translate(-12 -16.6)"/><path d="M107.2,192.7a10.2,10.2,0,0,0-2.7,8.1,3.1,3.1,0,0,1-.3,1.1l-0.8-.9a6,6,0,0,0-1.5-1.5c-0.2-.1-0.9.7-1.4,1a6.7,6.7,0,0,0,1.6,1.6,7.9,7.9,0,0,0,2.8.8,3,3,0,0,1,2.9,3c0,1.7-.2,4-1.3,5.1-3.8,3.8-5.4,8.5-6.8,13.5-0.9,3.2-2.5,6-6.5,6.2a1.6,1.6,0,0,0-.7,1.3,1.7,1.7,0,0,0,1.1,1.1,6.6,6.6,0,0,0,2.3-.6c1.5-.5,2.5.3,2.5,1.9s0.2,3,.3,4.5h0.9a26.5,26.5,0,0,0,0-3.2c-0.5-4.1-.5-8,1.5-11.8a19.1,19.1,0,0,1,1.7-2.9,2.1,2.1,0,0,1,1.7.5c1.2,3.8,2.4,7.6,3.4,11.5,0.3,1-.4,2.3-0.6,3.5a11.8,11.8,0,0,0,0,1.7l0.7,0.2,1.6-4.2c1.2-3.4-1-6.1-1.8-9.1s-1.5-5.5-2-8.3c-0.1-.8.5-1.8,0.9-2.6s1.8-3.1,2.6-4.7c2.2-3.9,6-4.6,9.8-5.1a2.2,2.2,0,0,1,1.6,1.5c0.1,3.5-.1,7.1,0,10.6a37.4,37.4,0,0,1-6.8,22.9c-2.1,3-4.8,5.5-7.3,8.2s-7,5.5-11.1,7.4a5.1,5.1,0,0,1-7-2.5c-1.4-3.2-3.5-6.2-3.1-10,0.7-7.1.5-14.2,3.2-21,2-5.1,3.2-10.4,4.9-15.6A101,101,0,0,1,98.7,193c1.7-3.4,4.2-6.5,6.5-9.7s3.3-4.3,5-6.4,9.5-3.2,10.6,2.4,2,12.5-.3,18.7c-1.1,2.9-7.1,6.3-10.1,6.1s-5.8-5.5-4.1-7.9C106.9,195.3,106.9,193.8,107.2,192.7Zm3.1,9.8c4.4-.3,9.2-3.4,9.7-6.5a42.8,42.8,0,0,0-.5-17.2,4.4,4.4,0,0,0-5.6-2.9,0.7,0.7,0,0,0-.4.5c0.5,1.6-.3,1.7-1.6,1.4a1.5,1.5,0,0,0-1,.6c-2.4,2.8-4.9,5.5-7,8.4a36.1,36.1,0,0,0-4.9,8.3c-1.8,5-4.8,9.5-5.3,15-0.3,2.9-2.3,5.6-3.3,8.5a70.9,70.9,0,0,0-2.2,7.8,24.8,24.8,0,0,0-.6,5.4c0,5.2-.3,10.5.4,15.6,0.3,2.3.7,6.1,4.9,5.9H93l-0.5.8,0.4,0.7,10-4.9-0.3-.7-5.1,2.4a4.8,4.8,0,0,1,1.8-1.5,35.8,35.8,0,0,0,5.1-3.1c2.2-1.8,4.1-4,6.1-6s1.8-1.2,2.3-2a39.5,39.5,0,0,0,6.3-20.5c0.1-3.7-.1-7.5-0.3-11.2a2,2,0,0,0-1.4-1.3,9.5,9.5,0,0,0-3.8,1.6,39,39,0,0,0-4.4,4.6c-1.9,2.2-2.9,4.7-1.7,7.6s1.8,2.8,2.4,4.3a17.3,17.3,0,0,1,0,12.9c-0.6,1.4-1.1,2.9-2.8,2.3s-1.3-2.2-1-3.1c1-3.3-.2-6.3-0.9-9.4a46.1,46.1,0,0,0-1.7-4.7l-0.5,1.1a4.2,4.2,0,0,1-.4.9c-2.4,3.2-2.5,6.8-2.1,10.6a20.3,20.3,0,0,1-.2,4.6,2.4,2.4,0,0,1-1.9.3,3.5,3.5,0,0,1-1.6-4.5c0.3-1-.2-1.4-1.3-1.1s-2.5.4-2.9-.1a7.4,7.4,0,0,1-1.1-3.6,3.5,3.5,0,0,1,1.8-.8c2.1-.3,3.9-1.1,4.6-3.4a58.8,58.8,0,0,1,2.5-7.7c1.7-3.6,3.8-7,5.7-10.4a2.3,2.3,0,0,0-1.4-3.5,12.2,12.2,0,0,1-4-1.9,4.5,4.5,0,0,1-1.1-3.1c0-.4,1.5-0.7,2.2-1.2a4.1,4.1,0,0,0,1.6-1.3c0.9-1.8,1.6-3.8,2.6-5.6a4.5,4.5,0,0,1,1.8-1.1,4.8,4.8,0,0,1,.7,1.7,9.9,9.9,0,0,1-.4,2.8c-0.5,1.8-1.4,3.6.4,5.3A16.5,16.5,0,0,1,110.2,202.5Z" transform="translate(-12 -16.6)"/><path d="M84.3,349.6l0.3-.7H84.3l-0.9.9a1.2,1.2,0,0,0,.4.5,4.1,4.1,0,0,0,1.4.6c2.5,0.2,1,1.4.5,2.2a31.3,31.3,0,0,1-2.1,2.7c0.4-1.4.7-2.2,0.9-3s0.2-1.7-1.2-1.1a1.4,1.4,0,0,1-1-.6c0.1-1.4.1-3,2.1-3.2a2.5,2.5,0,0,0,.1-1.6,6.4,6.4,0,0,0-1.4-1.5,3.6,3.6,0,0,0,1-1.2c0.4-1.9,1.3-3.3,3.3-2.4a5.2,5.2,0,0,1,2.2,3.2c0.5,2,.8,2.3,2.6,1.1a2.2,2.2,0,0,1-.2-1.1c1.6-2.3.5-4.5-.4-6.6s-4.6-2.8-7-1.3c-6.8,4-6.8,10.3-5.9,16.9,0.1,0.6.3,1.2,0.3,1.8,0.1,3.5,2.6,5.4,4.9,7.4s6,0.9,6.8-1.2a9.1,9.1,0,0,0-.5-5.9c-0.3-.8-2-0.1-2.8,1.2a3.7,3.7,0,0,1-2.3,1.3c-0.4.1-.9-0.7-1.4-1.2a1.1,1.1,0,0,1,.1-0.6c1.9,1,2.6.5,3.3-1.5a2.6,2.6,0,0,1,2.3-1.1c1.9,0.5,2.7,2.5,2.5,5.8h1.1a2.5,2.5,0,0,1-.2,1.2c-1.4,1.4-2.7,3.5-4.4,4.1a8.2,8.2,0,0,1-9.8-5.2c-1.6-4.6-3.4-9.3-1.8-14.2,0.8-2.5,1.9-5.4,3.8-6.9s2.4-4.3,2.6-6.8c0.3-5,.3-10.1,2.7-14.8,1.3-2.6,1.9-5.7,3.6-8a20.6,20.6,0,0,1,16.3-8.4c4.6-.2,9.2-0.1,13.8-0.1,2.8,0,6.4,3.7,6.6,6.9,0.3,6.7.4,13.4-2.5,19.6-1.1,2.2.1,3.6,0.5,5.3l2.4,10.9-0.6.2-1.1-3.1c-1.6-4.7-3.4-9.3-4.6-14-0.6-2.2,0-4.7.1-7a2.4,2.4,0,0,1,.9-0.8,3.4,3.4,0,0,1,.2,1.2c-0.6,2.6-.8,5.1,1.5,7.4,0.7-4.9,1.5-9.7,2-14.6,0.3-2.9.3-5.9-1.6-8.2a17.5,17.5,0,0,0-3.9-2.9,2.4,2.4,0,0,0-1.1.4l-0.7.2-4.6-.2a14.5,14.5,0,0,0-1.7-.4c-2.9.2-5.8,0.3-8.7,0.8-5.4.8-12.9,5.6-14.6,11.9a10.1,10.1,0,0,0-.1,1.1l2.3-3.6c-2.7,7.8-5.9,15.3-5.7,24.1,4.5-2.1,7.4,0,10.2,3.4,2.1-1.6,4.3-3.1,6.4-4.9s6.6-3.3,10.4-3.1l3.7,0.2a5.2,5.2,0,0,0,1.6-.6,4.2,4.2,0,0,0-.6-1.2l-5.1-4.9-0.7-.4-1.3-.3a1.3,1.3,0,0,1,.3-0.6c0.6-.1,1.5-0.4,1.8-0.1,2.3,2,4.6,4.1,6.8,6.3s3.6,8.4,5.1,12.7c0.5,1.6,1.1,3.2,1.7,4.9a3.5,3.5,0,0,1,0,1.1,2.5,2.5,0,0,1-.7-0.7c-1.5-4.3-3-8.6-4.4-13-0.5-1.6-1-2.5-3.1-2.1s-5.8-.4-8.5.3-5.4,2.6-8,4.1-2.7,2-4.1,2.9-2.4,2.6-1.5,4.7-1.9,3.4-3.4,3.7-2.8-1.1-3.1-3a10.7,10.7,0,0,0-1-2.4,5.1,5.1,0,0,0-1.6,1.6c-0.3,1.1-.6,2.4,1.1,3s0.4,1.6.1,2.2a5.4,5.4,0,0,1-1.8,1.4Zm36.5-49.5v0.3l0.6,0.2v-0.2Z" transform="translate(-12 -16.6)"/><path d="M336.5,424.1l-1.1.3-0.3-.3,1.8-1.6c0.5,0.9,1.4,1.7,1.4,2.6s0.9,3.2,3.1,3.3a3.6,3.6,0,0,0,3.6-3.1,4.5,4.5,0,0,1,1.1-2.1c1-1,.3-4.9-1.1-5.9-3.1-2.2-6.9-1.4-10,1.4s-6.6,8.7-9,13.5c-1.4,2.9-2,6.2-2.9,9.3s-1.3,4.9-2,7.3a1,1,0,0,0,.2.8l0.8-2.7h0.2l-2.1,17.7,1.7-.5a5.5,5.5,0,0,0,1.3,7.3c2.7,2.3,5.7,1.2,8.2-1.6,0,0.5,0,.7,0,0.9v0.8l2.5-1.9-0.5-.3a3.1,3.1,0,0,1,.5-1.5c5.3-3.3,7.1-9,8.3-14.4s1.1-11.2,1.6-16.8c0.1-.7,0-1.4,0-2l-1.9.8a10.1,10.1,0,0,0-5.3,7.4l1.5-1.8c-0.2,1.8-.7,3.5-0.5,5s1.3,3.5,1.9,5.3a9.8,9.8,0,0,1,.4,3,10.1,10.1,0,0,1-.5,2.8,1.4,1.4,0,0,1-1,.8,1.7,1.7,0,0,1-1.4-.5c-0.8-2-1.4-4.1-2.2-6.1a2.4,2.4,0,0,0-1.1-1.4,1.7,1.7,0,0,0-1.5.7c-1.4,2.5-2.7,5-4.2,7.5a2.9,2.9,0,0,1-2.2,1.2c-1.2-.1-2-0.7-1.6-2.3,1-4,3.3-7.3,5.5-10.7a35.5,35.5,0,0,0,2.6-4.8,2,2,0,0,0-.3-1.8,4,4,0,0,0-2.7-.3c-1.9.8-2.4,0.6-3.2-1.5s0.7-2.3,2.1-2.7l2.6-.7a1.2,1.2,0,0,1,1,.9,21.3,21.3,0,0,0,3.1.1,2.1,2.1,0,0,0,1.6-.8,3.2,3.2,0,0,0-.1-2.1c-0.8-2.1-1.7-4.2-2.5-6.3a2,2,0,0,1,.6-1,49.2,49.2,0,0,0,2.8,5.7c1.7,2.5.9,5.2-1.9,6.3l-1.2.4a12.8,12.8,0,0,0-2-.9,17.7,17.7,0,0,0-3.1-.5,4.4,4.4,0,0,0-1.6.5,0.8,0.8,0,0,0,0,.6l1.7,0.6a22.1,22.1,0,0,1,4,.9c1.5,0.7,1.6,2.6.7,4-2.6,3.9-5.1,7.9-7.4,11.9-0.4.7-.1,2-0.1,3.6,0.4-.9.5-1.3,0.7-1.6a70.6,70.6,0,0,1,4.4-7.3c2-2.5,2.9-2.3,4.2.5a35.2,35.2,0,0,1,1.2,3.9l0.8,2.2,0.6-.2a8,8,0,0,0,.1-2.9c-0.6-2-1.5-3.8-2.1-5.7a17.2,17.2,0,0,1-.9-3.6c-0.4-3.4,2.7-8.4,5.8-9.8l2.6-1.3a1.1,1.1,0,0,1,.9.4c0.3,1.9.7,3.7,0.8,5.6a10.8,10.8,0,0,1-.2,3.3c-1.5,6.8-2.6,13.8-4.8,20.4a20.1,20.1,0,0,1-8.5,10.6,10.5,10.5,0,0,1-9.2,1c-0.9-.3-1.5-1.4-2.2-2.2a2.4,2.4,0,0,0-.2-0.4c-2.1-.2-1.6-1.8-1.6-3,0.1-5.7,0-11.5.7-17.1s2.4-9.4,3.4-14.1,4.1-10.2,7.4-14.5,5.7-5.7,9-8.1,3.9-.8,5.3,1.4v0.2c4.1,1.6,2.6,5.1,2.8,8,0.1,0.8-.7,1.7-1.1,2.6s-1.2,2.1-1.6,3.2-1.6,1.8-3.2,1.6C337.7,430.5,337.1,427.3,336.5,424.1Z" transform="translate(-12 -16.6)"/><path d="M101.5,349.6a24.7,24.7,0,0,0-4.2-1,8.4,8.4,0,0,0-3.4.7c-0.3.1-.3,1.1-0.4,1.7a3,3,0,0,0,1.2,0c2.2-1,7.3.2,8.4,2.3s0.2,2.3.2,3.4c0.1,4.9.2,9.8,0.2,14.7s-0.4,12.4-.3,18.5a45.9,45.9,0,0,0,1.3,8A57.3,57.3,0,0,0,106,404a13.7,13.7,0,0,0,1.5,2.6c-1.6,1-2.3,5.8-1,6.9a44.1,44.1,0,0,0,5,4.2c2.3,1.5,3.2,3.8,4,6.2a9.2,9.2,0,0,0,1.7,3.4,2.6,2.6,0,0,0,2.6-.2,8.3,8.3,0,0,0,1.8-3.8,7.6,7.6,0,0,1,5.5-6c2.1-.6,3.6-3.5,3.5-6a39.6,39.6,0,0,1,.5-7.8c0.2-1.2,2-2.1,2.2-3.2a133.5,133.5,0,0,0,2.7-16.6c0.4-5.9,0-11.9-.1-17.8,0-2.9-.5-5.9-0.1-8.7s1.8-4.2,2.9-6.2a12.5,12.5,0,0,1,1.8-1.7,7.7,7.7,0,0,0,.8-1.5l-1.6.6a16.3,16.3,0,0,1-2.6,1.6c-1,.3-2,0.2-1.8-1.4a74.4,74.4,0,0,0,.3-7.6,8.6,8.6,0,0,0-1-2.7l-1,.2c-0.1,4.1-.3,8.1-0.2,12.2,0.3,8.4.9,16.8,1,25.2a118.3,118.3,0,0,1-1.1,16.8c-0.4,2.7.1,6.2-2.7,8-1,.6-2.7.3-4,0.4a1.7,1.7,0,0,1,.2-0.9l2.7-1.4c2.8-1.4,2.8-4.3,3-6.7,1-13.2,1.3-26.3-.1-39.5-0.5-4.4.2-9,.5-13.4a2.5,2.5,0,0,1,1.7-1.7,2.2,2.2,0,0,1,2.3,2.6c0,1.9-.3,3.9-0.2,5.8a12,12,0,0,0,.8,2.8,25.9,25.9,0,0,1,2.4-2,3.2,3.2,0,0,1,1.9-.6,1.8,1.8,0,0,1,.8,1.4,16.3,16.3,0,0,1-.2,2.7,14.1,14.1,0,0,0-1.8,1.1,9.7,9.7,0,0,0-3.5,8.2c0.2,8.6.4,17.2,0,25.8-0.2,5.1-1.4,10.3-2.3,15.4-0.2,1.1-1.2,2-1.6,3.1s-0.5,2.8-.8,4.3-0.8,5.7-1.9,8.2-2.8,2.7-4.5,3.6-3.2,4.2-4,6.8-3.1,3.7-4.7,2.7a8,8,0,0,1-1.9-2.5c-0.4-.6-0.7-1.3-1.1-2a13.7,13.7,0,0,0-4.7-5,12.1,12.1,0,0,1-5.3-8.5c-0.2-1.2.5-2.5,0.6-3.7a6.9,6.9,0,0,0-.2-3c-2.5-6.1-2.6-12.4-2.6-18.8s0.2-12.6.1-18.9c0-4-.3-8-0.7-12-0.2-1.7-3.6-3.1-5.2-2.5H96.2a12.8,12.8,0,0,1-3.4-.2c-0.3-.1-0.2-1.7-0.1-2.6a2.4,2.4,0,0,1,2.9-2.1,46,46,0,0,1,4.7.7C100.8,348.2,101.1,349.1,101.5,349.6Z" transform="translate(-12 -16.6)"/><path d="M175.3,469.7c0-1.7,0-3.3,0-5,0.1-4.7.1-9.3,0.4-14s1-10,1.5-15.1,0.7-7.9,1.1-11.8c0.1-1.3.5-2.7,0.6-4a7.9,7.9,0,0,0-.3-1.9,3.6,3.6,0,0,1-.2-1.2,42,42,0,0,0-.4-16c-0.3-1.6.1-3.3,0.1-5s0-5.6-.2-8.4-0.3-6.2-.8-9.3c-1.1-7.2-2.3-14.3-3.5-21.4-0.9-5.4-1.9-10.7-2.9-16-0.2-.9-0.5-1.8-0.7-2.8a3.6,3.6,0,0,1,.3-1.3,0.9,0.9,0,0,0,.1-0.5c-2.4-2.6-1.3-6.1-2-9.1a22.6,22.6,0,0,1-.8-5.8,18.4,18.4,0,0,1,1.2-4.4h0.2l0.7-1.3c0.1,0.7.3,1.4,0.3,2.2a17.7,17.7,0,0,1-.1,5.3l-0.7-4.5H169l2.4,18.8H172l0.2-1.1h0.3l0.7,6.3h-0.3c0.3,2,.4,3.7.8,5.4,0.8,4.1,1.7,8.1,2.4,12.2,0.4,1.9.4,3.9,0.7,5.9a3.2,3.2,0,0,0,.7,1.2,3.7,3.7,0,0,1,.5,4.3c-0.6,1.2,0,3,.2,4.6,0.6,4.5,1.5,9.1,1.8,13.6a154.3,154.3,0,0,1,.5,17.3c-0.4,9.7-1.2,19.4-2,29-0.1,1.9-.9,3.8-1.1,5.7s-0.4,5.8-.6,8.7c-0.3,6.2-.6,12.4-0.9,18.7,0,0.4-.1.8-0.1,1.2h-0.5Zm4.6-68.9h-0.4l0.2,2.2H180Zm0.1,3.3h-0.2v1.8H180v-1.8Zm-7.8-66.4h-0.4L172,339h0.3Z" transform="translate(-12 -16.6)"/><path d="M351,339.4c1.7-2.6,3.1-5.4,5.2-7.6s3.2-.9,4.8-0.9c4.7,0.1,9.2-1.1,13.8-2s6.3-2.5,9.2-4,3.1-3.3,3.6-5.2a32.9,32.9,0,0,0,.9-9,3,3,0,0,0-4.2-2.8,38.8,38.8,0,0,0-1.1-4.5,2.9,2.9,0,0,0-1.7-1.7c-2.5-.6-5.1-0.8-7.6-1.4-0.5-.1-0.9-1-1.3-1.5a25.8,25.8,0,0,1-2.1-3.4c-1.2-2.7-3.7-2.2-5.7-2.1s-3.6,1-5.5,1.5l-1.9.2,0.8-1.5c-1.7-1.2-7.3-1.4-9-.1s-3,2.6-4.5,3.9l-2.6,2.3a4.4,4.4,0,0,1-1.4.4l0.7-2a25.5,25.5,0,0,0-4.1,2.6,35.9,35.9,0,0,0-4.1,4.8,15.1,15.1,0,0,0-1.3,3l-0.6,1.1a2.9,2.9,0,0,1-.5-1.4,26.5,26.5,0,0,1,2.5-5.2c2.1-3,4.6-5.8,8.6-6,1.7-.1,2.2-0.8,3.1-2,2.8-3.6,6.9-4.5,11.4-3.2,1.8,0.5,3.8.3,5.7,0.4s5.7-.5,7.9.6,2.8,3.6,4.3,5.5a3.2,3.2,0,0,0,1.6,1.2c2.2,0.5,4.4.7,6.5,1.3a2.9,2.9,0,0,1,1.5,1.8c0.5,1.7.4,3.6,2.9,4.2,1,0.2,2.1,1.8,2.4,2.9a13.3,13.3,0,0,1-.7,9.9,49,49,0,0,1-4.8,7.9c-1.1,1.3-3,1.9-4.6,2.7l-4.7,2.3a8.6,8.6,0,0,0-1.7-.4c-3.6.2-7.1,0.7-10.7,0.8s-6.6,1-9.8,5.8a4.7,4.7,0,0,1-1.3.9h0Z" transform="translate(-12 -16.6)"/><path d="M357.8,464.4l1.1,1.9c-2.6-.9-6.3-9.9-7.3-15.9a46.9,46.9,0,0,1,.2-17.3,3,3,0,0,1,.9,1.2c0,1.3-.3,2.5-0.3,3.8s0.1,4.1.1,6.2a14.7,14.7,0,0,0,.1,3c0.9,3.9,1.5,7.9,3,11.5a19.7,19.7,0,0,0,5.3,6.5,33.6,33.6,0,0,0,8.3,5.7c2.4,1.1,5,3,8,1.2,1-.6,2.6-1.1,2.1-2.9a1.2,1.2,0,0,1,.4-1c1.3-1.2,1.1-2.6.8-4.1s-0.6-5.2-1-7.8a4.1,4.1,0,0,0-1.3-2.1c0.6-7.3-1.8-14.3-3.4-21.5s-5.8-13-10.7-18.4a12.7,12.7,0,0,1,7.8,7.1A76.7,76.7,0,0,1,376,431a79.8,79.8,0,0,1,2,9.4c0.5,2.4.9,4.9,1.3,7.4s0.5,6.1,1.7,8.7,1.2,6.5,1,9.5a13.4,13.4,0,0,1-3.8,7.5c-1,1-3.8.2-5.8,0.2h-0.2c-6.3-.5-9.8-5.4-14-9.1h-0.3Z" transform="translate(-12 -16.6)"/><path d="M374.5,307.7a6.9,6.9,0,0,1,1.1,1.2c1,2.4,2.1,4.8,2.9,7.2a10.1,10.1,0,0,1,.4,3.5,1.6,1.6,0,0,1-1.3.8,3,3,0,0,1-2-1c-1.1-1.9-1.8-3.9-2.9-5.8a7.8,7.8,0,0,0-2.3-2.3c-3.4-2.4-7.5-2-10.1,1.1-0.6.8-.5,2.2-0.7,3.2,2.7,0.6,5.2.4,7.4,2.7s1.1,2.1,1.3,3.6a13.8,13.8,0,0,1-2.1-.6c-3-1.4-6-.3-6.7,2.9s-1.9,3.3-4.1,3.3a1.2,1.2,0,0,1-.7-1,59.5,59.5,0,0,0,1.5-6.4,5.1,5.1,0,0,0-1.3-3.2c-1-1.3-2.3-.6-3.6-0.1a14.4,14.4,0,0,0-7,5.3,21,21,0,0,0-1.8,4.5l-0.7,1.6c2.6,2,3.9,5.3,4.4,9.3l-0.9-.5,1.2,12.1h-0.7l-0.5-2.8c-0.5-2.9-1-5.9-1.4-8.8-0.1-.8,0-1.7-0.2-2.5a9,9,0,0,0-.9-2.5c-1.2-2.2-2.7-4.3-3.8-6.5s2.8-5.9,4.5-6.1a4.2,4.2,0,0,0,1.5-.8c2.3-1.5,4.4-3.4,6.9-4.3s6.3,1.1,5.9,5.5a21.2,21.2,0,0,1-1.2,4.3l-0.5,1.6c1.7-.2,2.2-0.8,2.6-2.9a14.7,14.7,0,0,1,1.5-3.7,2,2,0,0,1,1.4-.4h5a10.8,10.8,0,0,0-2.1-1.2c-1.8-.5-3.8-0.6-5.5-1.2s-1.8-1.2.1-2.1l-1.6-.9c0-2.4,2.1-4.3,5.8-5.2,6.4-1.5,11.7,3.1,12.8,9a5.5,5.5,0,0,0,.9,1.7l0.5-.2a5.3,5.3,0,0,0-.2-1.8c-1-2.5-2-5.1-3-7.6A6.8,6.8,0,0,1,374.5,307.7Zm-6.8,12.1-0.4-.2-0.2.2,0.3,0.3Zm-24.2,11.5h-0.2l0.3,0.5h0.2Z" transform="translate(-12 -16.6)"/><path d="M143.3,334l1.7-.3-1.1,4.9-1-1.2-0.3.2a30.5,30.5,0,0,0-.2,4.6c0,0.3,1.2.7,1.9,0.8s0.6-.7.9-1.1a39.1,39.1,0,0,1,3.4-4.1c0.3-.3,1.7.1,2.2,0.5a2.4,2.4,0,0,1,0,2,15.2,15.2,0,0,1-1.4,2.4c1.6,0.3,3.2.6,4.7,1a1.6,1.6,0,0,1,.5,1.5,13.8,13.8,0,0,1-2.1,1.9,1.7,1.7,0,0,1-.1-0.9,25.4,25.4,0,0,1,1.9-2.2c-2.1.2-3.5,0.4-4.9,0.4a8.4,8.4,0,0,1-2.1-.6v-0.6l-1.8.6c-2.6.9-4.1,0.3-5-2.2a30.7,30.7,0,0,1-1.3-4.7c-0.3-1.4,2.2-4.3,3.9-4.9,7.2-2.6,13.6,1.9,14.9,8.8,0.5,2.9,1.5,5.9,1.5,8.8s-1.4,4-2.4,6-1.3,2.7-2.4,3.3a13.1,13.1,0,0,1-6.2,1.7c-2.7-.2-5-1.5-5-4.3,0-4.5.2-4.9,3.8-5.9,0.4-1.6.5-3.1,1.3-4.1s2,0.3,3,.4v0.7H150a1.9,1.9,0,0,0-.9.2,0.9,0.9,0,0,0-.1.9,1.4,1.4,0,0,0,1,.3,3.1,3.1,0,0,1,3.7,2.5c0.2,0.6-.9,1.5-1.4,2.3-0.6-1.8-1.7-1.1-2.9-.6a5.9,5.9,0,0,1-.7-0.4c-0.9-.1-2.1-0.5-2.8-0.1a3.7,3.7,0,0,0-1,2.6c-0.1,1.1-.1,2.6.5,3.1a6.5,6.5,0,0,0,6,1c2.2-.6,6.8-5.2,6.8-7.5a34.3,34.3,0,0,0-.4-6.9,35.7,35.7,0,0,0-1.9-7.3c-1-2.5-6.7-6-9.9-4.7a22.8,22.8,0,0,1-2.9.8V334Zm3,8.4,0.4,0.6c1.3-1,2.6-2,3.8-3a2.1,2.1,0,0,0-.5-1.3,1.3,1.3,0,0,0-1.1.3C147.9,340,147.1,341.2,146.3,342.3Zm1.8,8.2,4.5,1.2C152.5,349.7,151.2,349.2,148.1,350.5Z" transform="translate(-12 -16.6)"/><path d="M349.2,386.6c-0.3,2.5-4.6,5.9-6.9,5.2s-1.7-2.1-1.6-3.6a27,27,0,0,0,.2-3c-0.3-3.1-1-6.2-1.1-9.3,0-1.3,1-3.5,1.7-3.6a6.6,6.6,0,0,1,4.4,1.5c1.4,1.1,2.2,2.9,3.4,4.2a1.5,1.5,0,0,0,1.5,0c1.9-2.1,3.7-4.4,5.7-6.4s1.9-.8,2.8-1.1,1.2,2.2,1.1,3.3a109.7,109.7,0,0,1-1.2,11.7,12.6,12.6,0,0,1-2.2,4.8c-0.8,1.2-2.8.7-3.9-.5A35.7,35.7,0,0,0,349.2,386.6Zm-0.6-3.5c0.3-2,.2-2.3-1.4-3.6a1.7,1.7,0,0,1-.3-0.6A31.2,31.2,0,0,0,345,375a6.3,6.3,0,0,0-2-1.4c-0.4.8-1.2,1.7-1.2,2.5,0,2.9.5,5.8,0.6,8.7a46.1,46.1,0,0,1-.4,5.2c3.4,0.3,5.1-1.3,7.2-7h-0.6Zm7.8,5.8a2.2,2.2,0,0,0,.4-0.7c0.3-1.9.4-3.7,0.8-5.6s1.3-5.2,1.7-7.8c0.1-.8-0.7-1.8-1-2.8a12.5,12.5,0,0,0-2,1.1c-3.4,2.7-4.5,6.7-6,10.5a1.1,1.1,0,0,0,.4,1C352.6,386,355.2,386.4,356.4,388.9Zm-3.1-.6v0.3h0.6v-0.2h-0.6Zm2.6,1.6-0.3-.2h-0.2a0.6,0.6,0,0,0,.1.3h0.4Z" transform="translate(-12 -16.6)"/><path d="M349,307.2c-0.6,1.1-1.3,2.2-1.9,3.4s-1.9,4.3-3.1,6.4a19.2,19.2,0,0,1-3.2,3.5,4.5,4.5,0,0,1-1.5.6l1,0.8-0.3.7a7.4,7.4,0,0,1-2.5-1.2,21.6,21.6,0,0,1-1.8-3.2,2.1,2.1,0,0,0-1-.4,6.1,6.1,0,0,0-.4,1.1c-0.1.7-.2,1.4-0.3,2.3-1.5-1.2-1-4.2.4-4.2a5.3,5.3,0,0,1,2.7,1.2,8.5,8.5,0,0,1,1.4,2.1c1.9-2,3.9-3.7,5.3-5.9s1.5-4,2.2-6.1a4.7,4.7,0,0,1,5.6-2.7l-1.4,5a19,19,0,0,0,3.7-.9,3.8,3.8,0,0,0,1.8-2c0.8-2.4,1.2-5,2.3-7.3s2.5-1.7,3.8-2.4a3.2,3.2,0,0,1,1,1.6,15.9,15.9,0,0,1-1,3.2,2.3,2.3,0,0,0-.3,1.2,3,3,0,0,0,1.5,1c2,0.5,4,.7,5.9,1.4s3.3-.5,4.6-1.6a4.7,4.7,0,0,1,5.3-1l-2.5,2.9a2.6,2.6,0,0,1-.6-0.8,3,3,0,0,1,.6-1.1,5,5,0,0,0-1.3.6c-2.7,2.9-5.8,2.7-9.2,1.3a6.5,6.5,0,0,0-2.1-.5c-2.8-.1-3.6-1-3.1-3.7a7.6,7.6,0,0,0,.1-1.3c0-.6-0.1-1.3-0.1-1.9s-1.5,1.1-1.8,1.8-0.6,3.4-1.1,5a16.5,16.5,0,0,1-1.5,3.1c-0.8,1.5-5.7,4-7.3,3.4s-0.8-1.5-.7-2.2a13.4,13.4,0,0,1,1.3-3Z" transform="translate(-12 -16.6)"/><path d="M100.8,346.6l0.4-1.8c0.5-2.4,1-4.8,1.6-7.2a3,3,0,0,1,1.3-1.4,1.5,1.5,0,0,1,1.3-.1,3.6,3.6,0,0,1,.9,1.4c2,4.5.1,9,.2,13.6,0.3,8.2.3,16.3,0.3,24.5,0,2.3-.4,4.6-0.4,6.9,0.1,5.1.4,10.2,0.8,15.3,0.1,1.1,1,2.2,1.6,3.2a1.4,1.4,0,0,0,1.2.1c4.7-1.5,9.5-2.2,14.3-.9a0.9,0.9,0,0,1,.6.8l-2,.2c-2.2-.1-4.4-0.3-6.6-0.2a22.1,22.1,0,0,0-4.4.8,3.3,3.3,0,0,0-1.3.9,12.9,12.9,0,0,1-1.1,1.3c-0.9-.4-2.1-0.9-2.4-1.6-2.4-6.2-2.2-12.6-2-19.1s0-14.6,0-21.8c0-3.1.3-6.1,0.4-9.2s0-7.9,0-11.9a7.4,7.4,0,0,0-.5-2,0.8,0.8,0,0,0-.4-0.3,2.4,2.4,0,0,0-.7,1c-0.4,3.1-.7,6.2-1,9.4-0.1.8-.3,1.7-0.5,2.5-0.3-.8-0.5-1.7-0.8-2.5A12.5,12.5,0,0,0,100.8,346.6Z" transform="translate(-12 -16.6)"/><path d="M107.2,471.6l0.3-4.3h-0.6a3,3,0,0,1-.3-1.3c2.1-6.7,4.1-13.4,6.4-19.9a20.2,20.2,0,0,1,3.6-5.6c1.3-1.6,4.7-.7,5.8.9,3.4,4.8,3.2,10.6,4.4,16,0.8,3.5.8,7.3,1.3,10.9,0.2,1.4.6,2.7,0.8,4.1a3.8,3.8,0,0,1-.5,1.5,3.8,3.8,0,0,1-.8-1.2c-0.9-4.4-1.6-8.8-2.6-13.1s-2.2-8.5-3.3-12.7c-0.4-1.6-.7-3.2-1.2-4.7a1.5,1.5,0,0,0-1.4-.5c-5,2.6-6,7.8-7.5,12.5s-2.7,11.5-4,17.3h-0.4Zm15.7-25.7h0.4l-0.7-2.6h-0.5Z" transform="translate(-12 -16.6)"/><path d="M390.9,423.6l-3.5,44.9h-0.3c0-2.8-.1-5.7,0-8.5,0.5-8.6,1-17.3,1.8-25.9,0.4-4.2,1.2-8.5,1.8-12.7a2.7,2.7,0,0,1,.6-0.9c0.5,0.4,1.4.8,1.5,1.3,0.9,3.8,1.7,7.7,2.5,11.6a47.9,47.9,0,0,1,1.2,7.1c0.2,4.7.2,9.3,0.2,14s0.2,8.7.3,13.1a7,7,0,0,1-.4,1.7,4,4,0,0,1-.8-1.4c-0.2-4.8-.3-9.6-0.6-14.4-0.1-2.6-.6-5.2-0.8-7.8s-0.2-5.7-.5-8.5c-0.6-4.5-1.4-8.9-2.2-13.3l-0.2-.4h-0.8Z" transform="translate(-12 -16.6)"/><path d="M141.3,299.8a51.1,51.1,0,0,1,5.9,1.1,3.2,3.2,0,0,1,1.5,5c-1.7,2.2-3.8,4.1-5.5,6.3s-3.5,5.1-5.6,7.3-4.7,5-8.5,5a1.9,1.9,0,0,1-1.1-1.5,33.3,33.3,0,0,0,.1-18.1,2.2,2.2,0,0,1,1.1-1.8c3.3-1,6.6-1.9,10-2.8a12.5,12.5,0,0,1,2.1-.2v-0.3Zm-0.7,1.5-7.2,2.2c-3.6,1.2-3.6,1.2-2.9,4.9,0,0.1,0,.2,0,0.4,0.7,4.4,0,8.7-.8,13a1.2,1.2,0,0,0,.1.9,1.3,1.3,0,0,0,1.1,0,74.5,74.5,0,0,0,7.6-6.3c2.7-2.8,4.9-6,7.3-9a10.9,10.9,0,0,0,2.1-3,2.5,2.5,0,0,0-1.3-2.1A49.2,49.2,0,0,0,140.6,301.3Z" transform="translate(-12 -16.6)"/><path d="M373.5,447a68.2,68.2,0,0,1-7-3,5.6,5.6,0,0,1-2-2.9c-0.7-1.9-1-4-1.6-5.9a3.1,3.1,0,0,0-.8-0.9c2.6-1.8,6.3-2.5,5.9-7.5-1.4,2.8-3.1,4.1-5.6,4.4-0.8.1-2,1.4-2.4,1.2a21.3,21.3,0,0,1-5.1-4.1c-1.3-1.6-3.3-3.2-2.4-5.6a69.6,69.6,0,0,1,3.5-7.4,2.4,2.4,0,0,1,1.2-.3l-0.5,1c-1.1,1.7-2.6,3-1.9,5.5s0.5,4.1,2.1,5.8c3.1,3.2,6.5,3.2,9.4-.1a2.5,2.5,0,0,1,2.4,0c1.8,2.7,2,3.3-.9,5.1s-2.7,1.8-4.2,2.9c0.9,2.3,1.8,4.7,2.9,7a3.6,3.6,0,0,0,2,1.3,35.5,35.5,0,0,0,3.6,1,2,2,0,0,1,1.6,2.7h0Z" transform="translate(-12 -16.6)"/><path d="M304.2,432.6l1.9-6.6,2.5-8.9,1.1,0.2c-0.2,1.1-.3,2.3-0.6,3.4-0.9,3.3-1.9,6.6-2.7,10s-2,8.4-2.6,12.6-1.2,11.3-1.8,16.9a60.7,60.7,0,0,1-1.9,10.2c0-1.4,0-2.9,0-4.3s0.9-3-.6-4.5,0.1-2,.2-3.1c0.8-5.6,1.5-11.2,2.4-16.8,0.5-3.1,1.4-6.1,2.1-9.1h0Z" transform="translate(-12 -16.6)"/><path d="M310.8,417.2c2.4,3.2,1.8,6.6,2.1,9.9,0.5,5.2,1.2,10.5,1.3,15.7,0.2,6.8,0,13.6-.1,20.4,0,3,.1,5.9.1,8.9a5.2,5.2,0,0,1-.6,1.6,7.4,7.4,0,0,1-.4-1.5c-0.1-7.4-.2-14.8-0.4-22.2-0.2-5-.6-10-0.9-14.9s-0.5-8.2-.8-12.3c-0.1-1.3-.6-2.5-0.7-3.7A6,6,0,0,1,310.8,417.2Z" transform="translate(-12 -16.6)"/><path d="M351.4,433.4c1.8-3.2,2.8-3.7,4.6-1.4s4.1,4,5.2,6.5,2.1,7.4,3,11.1l4.3,16.8a4.3,4.3,0,0,0,.5.9l0.7-.3c-0.5-1.6-1.1-3.2-1.4-4.9a26.3,26.3,0,0,1-.5-4.1,2.2,2.2,0,0,1,.8-0.8,1.9,1.9,0,0,1,.4.6l1,6.4a3.7,3.7,0,0,1,.3,1.4,20.4,20.4,0,0,1-1.2,2.6,12.7,12.7,0,0,1-1.9-1.8c-3.3-4.8-2.6-10.6-4.1-15.8s-3.2-11.5-6.5-16.5C355.6,432.5,354,431.2,351.4,433.4Z" transform="translate(-12 -16.6)"/><path d="M325.7,328.5c-0.4,2,.5,3.2,1.9,4.3s5.7,4.2,7.9,6.8a18.8,18.8,0,0,1,3.5,7c0.4,1.5-.3,3.4-0.9,5.2a2.7,2.7,0,0,1-.3-0.9,15.2,15.2,0,0,0-3.5-11.2c-2-2.3-4.7-4.1-7.1-6.1a8.2,8.2,0,0,1-2.1-2.3c-2.1-4.3-2.3-8.9-1.8-13.5s1.7-7.6,5.7-9.4a2.9,2.9,0,0,1,1.2,0l-0.7.8a44.6,44.6,0,0,0-3.6,5.1c-2.2,4.2-1,8.7-.9,13.1A2.4,2.4,0,0,0,325.7,328.5Z" transform="translate(-12 -16.6)"/><path d="M152.1,215.3a54.7,54.7,0,0,1-5.7-.1,3.3,3.3,0,0,1-2.1-1.4,28.3,28.3,0,0,1-3.3-6.5,5.3,5.3,0,0,1,1.1-4.2,32.7,32.7,0,0,1,5.2-4.2,1.6,1.6,0,0,1,.7-0.1,2.1,2.1,0,0,1-.3.9l-3.8,3c-1.8,1.5-2.5,3.5-1.6,5.7,1.7,3.9,3.9,5.5,6.6,4.8,0.7-.2,1.3-1.4,1.6-2.3a34.5,34.5,0,0,0,.9-3.5,2,2,0,0,1,.6-0.6,1.8,1.8,0,0,1,.4.7c-0.1,1.1-.3,2.1-0.3,3.1s-0.1,3-.1,4.6h0Z" transform="translate(-12 -16.6)"/><path d="M160.2,232.8l-4.6-2c-4.8-2-6.7-7.9-6.8-11.5a2.5,2.5,0,0,1,1.3-2,5.1,5.1,0,0,1,4.5,2.6c1,1.6,1.8,3.4,2.6,5.1a1.4,1.4,0,0,1-.3.6,3.7,3.7,0,0,1-.9-0.7c-1.2-1.8-2.4-3.7-3.7-5.4s-1.3-.4-2-0.6a5.9,5.9,0,0,0-.3,2.1c1.1,4.3,3.4,7.7,7.8,9.4a14.3,14.3,0,0,1,2.6,1.7Z" transform="translate(-12 -16.6)"/><path d="M373.5,447l0.9,1.3-5.5.6a3.1,3.1,0,0,1-.7-1,4.1,4.1,0,0,0-.7,1.2c-0.3,2.5.8,4,3.1,5.1s4.3,2,4.6,5.5l-4.6-1.7a1.2,1.2,0,0,1,.1-0.9,1.3,1.3,0,0,1,1.1,0l2.2,1.2,1.1-.4a32.9,32.9,0,0,0-4.9-2.5,4.3,4.3,0,0,1-3.4-4.3c0-.6-0.3-1.2-0.2-1.8s0.2-1.7.5-1.8a9.5,9.5,0,0,1,2.9-.4l3.6-.2h0Z" transform="translate(-12 -16.6)"/><path d="M118.7,326.6a13.8,13.8,0,0,1-2.4-1.4c-2-1.7-3.8-3.5-5.7-5.2a5.9,5.9,0,0,1-.8-1.1,3.9,3.9,0,0,1,1.5,0l5.4,2.5c0.3-1.2.6-2.4,1-3.7a2.8,2.8,0,0,1,1-.8,4.6,4.6,0,0,1,.1,1.3C118.4,320.8,117.2,323.5,118.7,326.6Z" transform="translate(-12 -16.6)"/><path d="M342.9,348.2a4.1,4.1,0,0,1-.6-1.3c-0.3-2.7-.2-5.4-0.7-8s-1.4-3.4-2.1-5.2a6.2,6.2,0,0,1-.2-1.3,3.4,3.4,0,0,1,1.2.6c2.4,3.1,2.9,6.7,3,10.4,0,1.5.2,3,.3,4.5Z" transform="translate(-12 -16.6)"/><path d="M152.1,215.4c2.7-1.3,3.7,1.1,4.9,2.5s1.2,2.7,1.7,4.1a1.9,1.9,0,0,1-.3.9,1.8,1.8,0,0,1-.8-0.5c-0.7-2.7-2.1-4.9-4.8-6a2.4,2.4,0,0,1-.6-1.1h0Z" transform="translate(-12 -16.6)"/><path d="M337.7,330.9l-3.1-9.6c1.2,1.1,2.8,1.9,3.1,3s0.4,4.3.5,6.5h-0.5Z" transform="translate(-12 -16.6)"/><path d="M153.5,214.2c0-1.2,0-2.5,0-3.7s0.1-2.4.2-3.6a3.7,3.7,0,0,1,.6-1.1l0.5,1c1.4,2.2.2,4.3-.3,6.4a5,5,0,0,1-.5,1h-0.6Z" transform="translate(-12 -16.6)"/><path d="M359.8,415.4l-1-.4c0.2-2,1.5-2.1,2.9-1.7l1.6,0.6a1.4,1.4,0,0,1-.1.7h-1.9l-1.5.2v0.7Z" transform="translate(-12 -16.6)"/><path d="M351,339.4l-1.1,6.1-0.7-.2,1.8-5.9h0Z" transform="translate(-12 -16.6)"/><path d="M17.5,335.4l-0.2,3.2H16.7l0.4-3.2h0.4Z" transform="translate(-12 -16.6)"/><path d="M304.3,432.6l-0.6-2h0.6q0,1.1,0,2.1h0Z" transform="translate(-12 -16.6)"/><path d="M168.9,342.7v-2.1l0.3,2h-0.3Z" transform="translate(-12 -16.6)"/><path d="M21.2,236.2v2.2H20.7l0.2-2.2h0.2Z" transform="translate(-12 -16.6)"/><path d="M58.9,389.9l-0.6,1.4-0.4-.2,0.6-1.4Z" transform="translate(-12 -16.6)"/><path d="M387.4,469.4v1.2H387v-1.2h0.5Z" transform="translate(-12 -16.6)"/><path d="M136.9,243.8l-0.6-1.4h0.3l0.6,1.4h-0.3Z" transform="translate(-12 -16.6)"/><path d="M387.5,473.4l-0.7-.7,0.4-.5,0.7,0.5Z" transform="translate(-12 -16.6)"/><path d="M339.4,425.7v0.8H339v-0.8h0.4Z" transform="translate(-12 -16.6)"/><path d="M185.7,231.5l0.5-.9h0.2l-0.3.9h-0.4Z" transform="translate(-12 -16.6)"/><path d="M55.5,450.6v-0.9h0.3v0.9H55.5Z" transform="translate(-12 -16.6)"/><path d="M224,256.3v1h-0.2v-1H224Z" transform="translate(-12 -16.6)"/><path d="M51.4,253.9v1.4H51.1v-1.4h0.2Z" transform="translate(-12 -16.6)"/><path d="M16.7,342l0.2-.9h0.2v1H16.7Z" transform="translate(-12 -16.6)"/><path d="M350.3,348.3v-0.7h0.1v0.7h-0.1Z" transform="translate(-12 -16.6)"/><path d="M193.3,218.2l0.3,0.2-0.2.3-0.2-.2A0.7,0.7,0,0,1,193.3,218.2Z" transform="translate(-12 -16.6)"/><path d="M17.2,339.9H16.9a0.2,0.2,0,0,1-.1-0.2l0.2-.2Z" transform="translate(-12 -16.6)"/><path d="M332.8,469.2l-0.4.3-0.2-.2,0.2-.2h0.3Z" transform="translate(-12 -16.6)"/><path d="M201.8,348.8v-0.7H202v0.7h-0.2Z" transform="translate(-12 -16.6)"/><path d="M33.2,384.3l-0.6.2-0.2-.2,0.2-.4Z" transform="translate(-12 -16.6)"/><path d="M143.5,221l-0.3.2-0.2-.2v-0.3Z" transform="translate(-12 -16.6)"/><path d="M339.1,424l0.2-1.1V424h-0.2Z" transform="translate(-12 -16.6)"/><path d="M350.5,346.4v0.4l-0.2-.2v-0.2Z" transform="translate(-12 -16.6)"/><path d="M128.7,221l-0.3.2-0.2-.3h0.1Z" transform="translate(-12 -16.6)"/><path d="M35.9,349.1a1.5,1.5,0,0,1,0-.3H36a1.2,1.2,0,0,1,.1.3H35.9Z" transform="translate(-12 -16.6)"/><path d="M171.7,329.3v0.2h-0.2v-0.2h0.2Z" transform="translate(-12 -16.6)"/><path d="M15.2,399.6H15.1v-0.2l0.2-.2v0.2Z" transform="translate(-12 -16.6)"/><path d="M122.2,71.4c-0.4-3.4,1.7-5.8,3.8-7.6a18.6,18.6,0,0,1,8.4-3.9c5.7-.9,8.7-5.4,9.7-9.9,0.2-.8.1-2-1.5-1.4a1.6,1.6,0,0,1-.7-0.4l0.4-.6c0.9,0.4,2.3.6,2.6,1.3,2,4.1-1.7,6.1-3.6,8.7a16,16,0,0,1-3.1,2.6,1.7,1.7,0,0,0-.6.5,13.3,13.3,0,0,1-7.2,8.3,19.8,19.8,0,0,1-4.1,1.1,1.6,1.6,0,0,1-.7-0.5,2.3,2.3,0,0,1,.7-0.9c0.9-.3,2-0.2,2.7-0.8a60.2,60.2,0,0,0,5.6-4.7c0.4-.4.3-1.2,0.4-1.9a4.8,4.8,0,0,0-1.8.2c-1.8.9-3.3,2.4-5.2,2.9C124.3,65.5,123.7,68.8,122.2,71.4Z" transform="translate(-12 -16.6)"/><path d="M114.4,178.2l1.2-.7,0.3,1.2Z" transform="translate(-12 -16.6)"/></svg>