<svg id="brown-rice-syrup_rice_Image" data-name="brown-rice-syrup(rice) Image" xmlns="http://www.w3.org/2000/svg" viewBox="0 0 153.8 276.7"><title>brown-rice-syrup(rice)</title><path d="M34.7,131.3l-6.2,5.3,0.4,0.5,3.4-1.9,1.9-1.2h0.5a0.4,0.4,0,0,1,.1.4,23.2,23.2,0,0,1-1.9,2.3c-1.4,1.3-2.8,2.6-4.2,4.1,16.2-15.2,36.4-18.7,58-20l-6-2.5-8.5-4c-1.4-.6-2.9-1-4.4-1.6l-3.4-1.5a2.4,2.4,0,0,1,1-.1l9.8,4.2c4.1,1.8,8.1,4,12.8,4,2.3,0,4.6.9,6.9,1.2l12.9,1.3a22.6,22.6,0,0,0,2.7-.1c-0.1-1.2-.1-2.5-0.2-3.7s-0.5-1.4-.4-1.9-0.7-2-2-2.1c-3.3-.1-6.6-0.1-9.9-0.4s-8.8-1-13.2-1.7a28.7,28.7,0,0,1-4.8-1.3c-2.9-1-5.8-1.9-8.5-3.1s-4.1-2.2-6.2-3.1l-7.4-3.1a28.9,28.9,0,0,1-3.1-1.7c-2.2-1.3-4.6-2.6-6.7-4.1a33,33,0,0,1-3.5-3.4,0.6,0.6,0,0,0-.6,0c-1,1-1.5,4.7-.4,5.6a131.2,131.2,0,0,0,10.3,8.5c2,1.4,4.6,2.1,6.9,3.1l3.8,1.8a69.9,69.9,0,0,1-8.2-3.1c-3.5-1.8-6.9-4.1-10.2-6.2-1.2-.8-2.7-1.6-3.3-2.8a11.1,11.1,0,0,1-1.3-5.5c0-.9,1.9-1.6,3-2.4a3.6,3.6,0,0,0,.7,1c1.9,1.4,3.9,2.7,5.6,4.2,4.6,3.9,10.4,5.2,15.7,7.7,1.9,0.9,3.6,2.2,5.6,2.9,3.6,1.4,7.1,3.1,10.9,3.9a157.8,157.8,0,0,0,15.7,2c3.2,0.3,6.5.5,9.7,0.5a2.3,2.3,0,0,0,1.5-1.7,31.9,31.9,0,0,0-.3-5.6,1.7,1.7,0,0,0-1.2-1l-9.5-1.2-8.4-1.2h0.1l0.6-.6-1.4-.3-10-2.1-3.7-.8a5.1,5.1,0,0,1-.7-0.9,5.1,5.1,0,0,0-1.5-.8l-6.8-2.1L56.9,91.7a1.1,1.1,0,0,1-.3-0.5l0.5-.2h1l-0.7-.8-3.2-2.6a3.2,3.2,0,0,0-1,0,1.6,1.6,0,0,1-.9-0.4l-3.2-3.5-2.8,7.4a2.5,2.5,0,0,1-.8.8H45.2a7.8,7.8,0,0,0,.5-1.1c0.7-2.5,2-5.1,1.9-7.6s-1.7-7.1-2-10.6a28.7,28.7,0,0,1,.6-8.4c0.3-1.5,1.9-2.6,2.4-4.1,2-6,7.6-7.7,12.4-10.4,0.9-.5,2.4-0.1,3.6-0.1h1.2L65,48.2l0.4-.3L66.2,49l0.2-.2A19.6,19.6,0,0,0,65,46.9c-3-3.1-5.8-6.3-9-9.2a101.2,101.2,0,0,0-8.2-6.3L37.5,24c-0.7-.5-1.5-0.8-2.2-1.2a1.4,1.4,0,0,1-.3-0.5h0.6c4.3,2.8,8.7,5.6,12.9,8.6s5.9,4.4,8.8,6.6a35.3,35.3,0,0,1,9.6,10.3c1.8,3.1,2.9,6.5,4.5,9.7s3.1,5.3,4.7,7.9H75.9a94.2,94.2,0,0,1,4.9-8.7,12.6,12.6,0,0,1,4.4-3.6,15,15,0,0,0,6.9-7.9,17.4,17.4,0,0,0,.9-9,7.4,7.4,0,0,0-.7-1.5c-1.3-3.3-4.1-1.8-6.3-1.9s-4.4.2-6.6,0.1c-4.9-.3-9.9-0.2-14.5-1.5s-7.3-4-10.8-6.1l-7.2-4.5-5.3-3.6a10,10,0,0,1-1.1-1.1,9.6,9.6,0,0,1,1.7.6c2.8,1.6,5.6,3.2,8.3,5s5.5,4.1,8.5,5.9a25.7,25.7,0,0,0,13.1,4.1c4.5,0,9.1-.2,13.6-0.3a16.2,16.2,0,0,0,2.3.2c1.7-.3,3.3-1,5-1.1a43.2,43.2,0,0,1,7.7-.1,35.6,35.6,0,0,1,8.6,1.6c3,1.1,5.7,2.9,8.6,4.3s3.9,1.2,5.6,2.2c3.4,1.9,6.7,4.1,9.9,6.3s5.8,4.3,8.7,6.6c1.2,0.9,2.2,2.1,3.4,3.2l-0.6-1.5h0c0.5,0.7,1,1.3,1.4,2.1a22.8,22.8,0,0,0,2,3.7c0.5,0.6,1.7.7,2.6,0.7a10.7,10.7,0,0,1,7.4,3.1,51.4,51.4,0,0,1,5,4.8c0.9,1.2,1.2,2.9,1.8,4.3a5.5,5.5,0,0,0,.6,1l0.6-.9,0.4-.7c0.2,1.7.4,3.2,0.5,4.6s1,4.2.5,6.1-2.3,4.2-3.5,6.4a11.5,11.5,0,0,0-.5,1.1h0.3l1.3-1.3a3.1,3.1,0,0,0,.3-0.9l0.6,0.4a19.4,19.4,0,0,0-2.4,3.3,103.5,103.5,0,0,0-4.4,10.7c-0.3,1,.8,2.5.9,3.8a7.3,7.3,0,0,1-.4,3.5c-1.3,3.1-.1,5.9,1,8.7,2,5.2,4.3,10.2,6.3,15.4a39.8,39.8,0,0,1,1.3,5.8l0.3-.2c0,2.1-.1,4.4,0,6.6s1,5.7,1,8.5c0.1,5.1-.3,10.1-0.4,15.2s0.2,8.7.1,13.1-1,11.7-1.3,17.5c-0.2,3.3.4,6.6-.1,9.9-0.6,4.8-1.9,9.4-2.7,14.2-0.3,2,.1,4.2.1,6.3a1.9,1.9,0,0,1-.4.7v0.3c1.7,1.2.8,2.9,0.8,4.4a16.1,16.1,0,0,1-.6,3.9c-0.5,2.3-1.2,4.6-1.8,6.9s-1.4,6.8-2.1,10.2a6,6,0,0,1-1.2,2.5c-0.3.4-1.3,0.1-1.9,0.3l-6.7,2.1c-1.6.5-3.1,1.3-4.7,1.8s-5.8,1.3-8.6,2.1l-12,3.5a13.5,13.5,0,0,1-2.4,0c-3,.3-6,0.7-9.1.8s-6.6-.1-9.9-0.1H96.7c-4.2.1-8.3,0.5-12.5,0.3s-5.3-.9-8-1.3-2.4,0-3.6-.1l-7.2-1.1-6.8-1-3.5-.9c-2.3-.4-4.7-0.7-7.1-1.2s-5.2-1.5-7.8-2.3l-8.8-2.9a1.7,1.7,0,0,0-.8.9c-0.7,1.7-1.4,3.4-2,5.1a3.9,3.9,0,0,0,.2,1.5l1.7-.4a6.8,6.8,0,0,1-1.5,1c-0.5-.4-1.3-1.1-1.2-1.6,0.5-2,1.2-3.9,2-6.3-1.1,1.3-1.8,2.3-2.6,3.1a7.9,7.9,0,0,1-1.6,1l-0.2-1.6-0.3-2.6,0.7,1.7,1.9-3.5a1.9,1.9,0,0,0-2.6,1.8H24.6c-2.4,1.4-1.7-.3-1.4-1.4s-1.4-4.4-2.9-4.8a0.5,0.5,0,0,0-.3.4c1.5,4.8,2.6,9.6,4.5,14.2,0.8,1.9,3,3.3,4.8,4.8a37.6,37.6,0,0,0,5.1,3.8,73.4,73.4,0,0,0,9.4,5.2c4.3,1.8,8.9,3.2,13.3,4.8a0.5,0.5,0,0,0,.5-0.2l-4.4-2v-0.4l2.9,1.1c4.1,1.6,8.1,3.3,12.3,4.6a58.5,58.5,0,0,0,8.5,1.9c2,0.3,4.1.3,6.1,0.5a82.3,82.3,0,0,0,9,.7c6.9-.2,13.8-0.6,20.8-1.1a41.2,41.2,0,0,0,4.9-.8l11.6-2.2a53.8,53.8,0,0,0,6.3-1.1c4.6-1.4,9.5-2.1,13.4-5.2a3.8,3.8,0,0,0,.7-1l0.4-.6-16,5.9-0.2-.5,4.7-1.7a82.5,82.5,0,0,0,9.1-3.6c1.8-1,3.3-2.7,4.8-4.3a50.2,50.2,0,0,0,3.1-4H156a1.1,1.1,0,0,1,.2.7c-0.8,1-1.5,2-2.4,3l-3.2,3.4,0.6,0.5c1.5-1.8,3.6-3.5,4.5-5.6a150.3,150.3,0,0,0,5.7-14.8c1.5-4.6,2.7-9.2,4-13.9l0.6-2.2a7.2,7.2,0,0,1,.1,2.2c-1,4-2,8-3.2,11.9a106.9,106.9,0,0,1-3.6,10.6,45,45,0,0,1-4.5,8.4c-1.3,1.8-3.2,3.1-4.9,4.7a0.8,0.8,0,0,0,.1.6h1.1c-2.2,1.1-3.9,2-5.7,2.7a62,62,0,0,1-7.5,2.7c-3.4.9-6.9,1.4-10.3,2.1s-7.3,1.9-11.1,2.6-7.3,1.1-10.9,1.7a1.4,1.4,0,0,1-.7-0.3,0.4,0.4,0,0,1,0-.3h0.7a3,3,0,0,0,1.6-.4h-3.4l-10.5.7c-3.4.1-6.8,0.3-10.2,0.1a54.6,54.6,0,0,1-6.9-1.2l-0.7-.2a16.6,16.6,0,0,0-2.7-.9c-1.1-.2-2.3.1-3.4-0.2s-3.2-.9-4.7-1.3L61,287.5c-1.6-.5-3.1-1.2-4.7-1.6s-5.9-1.1-8.5-2.2a108.1,108.1,0,0,1-10.3-5.3c-1.6-.9-3.2-2-5.3-3.3l1.1,1.5-0.3.2-1.3-1.3c-1.7-1.6-3.5-3.2-5.2-4.9a24.2,24.2,0,0,1-5.3-9.9c-0.7-2.4-2.1-4.6-2.4-7s-0.1-6.6-.2-10a77.5,77.5,0,0,0-.7-8.7c-0.1,1.9-.4,3.7-0.4,5.6s0.1,3.1.2,4.6a2.2,2.2,0,0,0,0,.5l0.4,1.1H17.9a4.5,4.5,0,0,1-.4-1.4c0.2-5.8.5-11.6,0.7-17.5,0.1-2.7-.3-5.4-0.2-8.1,0-5.6.1-11.3,0.4-16.9s0.6-9,.9-13.4c0.2-2.5.5-4.9,0.7-7.3a4.9,4.9,0,0,0-.2-0.9L17,193l-0.3-.2a1,1,0,0,1-.2-0.7,53.7,53.7,0,0,0,3.4-16.7,1.6,1.6,0,0,0-1-1.3l0.2,3.4H18.7a13.1,13.1,0,0,1-.3-3.7c1.4-6.4,3-12.8,4.5-19.2a47.5,47.5,0,0,0,.6-5.4H22.9c-0.3.9-.6,1.9-0.9,2.8a1.6,1.6,0,0,1-.6.5,1.6,1.6,0,0,1-.1-0.6c1.2-5.7,2.6-11.3,3.7-17s1.7-9.1,2.4-13.7l-1.6,4.2H25.6a27.2,27.2,0,0,1,1-3.4l6.3-13.5a1.8,1.8,0,0,0-.1-0.6,1.7,1.7,0,0,1,0-1l6.9-7.4a15.3,15.3,0,0,0,.8-1.6,2,2,0,0,1,.9-0.3,2.2,2.2,0,0,1,.1,1.1c-1,1.5-2,2.9-3,4.3s-1.4,1.6-2.1,2.4a0.7,0.7,0,0,0-.1.3l0.6-.2,6.1-2.9a1.6,1.6,0,0,1,.7.1,0.9,0.9,0,0,1-.1.5l-4,2.8h0L43,103c-3.9,1.9-8.5,2.9-9.9,7.8h0.3L33,112.1l2.3-1.2a15.6,15.6,0,0,1,2-1.2c-4.3,2.1-6.1,5.7-6.1,10.4l0.8-.5,6.8-3.8a2.8,2.8,0,0,1,1.3,0,4.3,4.3,0,0,1-.6,1.1l-1.7,1.4h0l1.5-2.2-0.3-.5c-2.7,1.8-5.8,3.2-8.1,5.4s-0.6,3.8-.9,6.2l6.2-5.5H35.5l1.2-.7,0.8-.4,1.3-.5a9.7,9.7,0,0,1-1,1.1l-7.3,6a3.6,3.6,0,0,0-.5,1.6l1.3-.5a25.1,25.1,0,0,1,4.1-2.1,24.4,24.4,0,0,0-3.3,2.1,21.8,21.8,0,0,0-2.5,3,0.9,0.9,0,0,0,.1.5l0.4-.2,2.8-2.6,1.4-.6L31,131.3l-0.8.9,0.2,0.3,0.9-.6,4.3-2.7h0.5a1.5,1.5,0,0,1-.2.6l-1.3,1.3,0.3-1.4-6.2,4.6,0.4,0.5a19.5,19.5,0,0,1,2-1.6ZM150.5,77.5c-0.9,0-2.1-1.2-2.7.6a3.9,3.9,0,0,1-.6,1.1c-2.1-.7-1.7,2.8-3.7,2.1v0.2c0,1.1,0,2.3,0,3.4a21.7,21.7,0,0,0,3.7-3.7l3.4-3.8c0.5-1.3,1-2.5,1.5-3.8s1.3-2.1-.6-2.7l-1.1-.5a16.7,16.7,0,0,0,.1,2.1,3.4,3.4,0,0,0,1.1.3l-0.5.5a4,4,0,0,0-.8.2C149.8,74.9,147.8,76.4,150.5,77.5Zm-24.9,33.6h0l-0.7,2.1c1-.4,2.6-0.4,3-1.1a43,43,0,0,0,2.4-6.2c0.3-.9.3-1.5-0.9-1.4s-2.4-.1-2.4,1.7a8.2,8.2,0,0,1-.9,2.4,19.3,19.3,0,0,1,.5-2.2,13.2,13.2,0,0,0,.1-1.7,24.8,24.8,0,0,0-3.3.3,2.4,2.4,0,0,0-.5,1.4c-0.3,2-.6,4-0.9,6a3.5,3.5,0,0,0,.2,1.5,1.3,1.3,0,0,0,1-.1,18.1,18.1,0,0,0,1.6-1.7Zm-8.9.7h0l0.2,2,2.4-.3,1.8,0.3a1.3,1.3,0,0,0,.4-0.8c0.3-1.4.5-2.8,0.7-4.1s0.4-2.6.6-3.9a0.5,0.5,0,0,0-.4-0.3,10.5,10.5,0,0,0-2.4,0c-1.4.3-3.5-.2-3,2.5a1.7,1.7,0,0,1-.1.7c-0.1-.8-0.2-2.4-0.5-2.4a18,18,0,0,0-3.7.5c0.3,0.5.2,0.3,0.1,0.3l-1.9-.8a1.8,1.8,0,0,0-.5,1.1c0,1.9.1,3.7,0.3,5.6a3.3,3.3,0,0,0,.3,1.2c0.8-.1,2,0.6,2.1-1s0.2-2.3.4-4.2c0,1.6-.1,2.5,0,3.4s0.1,1.7.6,1.9,2.4,0.8,2.4-1.2Zm26.2-1a2.2,2.2,0,0,1-.7.7,21,21,0,0,1-3.6,1l-8.9,1a2.6,2.6,0,0,0-1.8,1.1,32,32,0,0,0-1.7,4.9,2,2,0,0,0,.5,1.4c4-.5,8-0.9,12-1.6a31.5,31.5,0,0,0,6.2-1.8c1.2-.5,2-1.6,3.1-2.2s2.2-.8,3.2-1.5a72.2,72.2,0,0,0,6.6-4.8c0.7-.6,1-1.9,1.4-2.9a19.4,19.4,0,0,0,.6-2.5H159l0.4,1.9L157,104c0,0.4-.1-0.1,0-0.2h0.7l4-12.5-8,5.5-0.4-.6,6.6-3.9a0.6,0.6,0,0,0-.6,0l-6.8,3.1L146,97.9h-1a2.8,2.8,0,0,1,.7-0.8c3.1-1.4,6.4-2.6,9.4-4.1a35.7,35.7,0,0,0,5.9-3.7,31,31,0,0,0,3.3-3.5c2.3-2.4,3.2-8.8,1.7-11.7l-0.5-.5a3,3,0,0,0-.4.6,65.9,65.9,0,0,1-1.9,6.4c-1.7,4.2-5.3,6.8-9.2,8.7s-10.3,4.1-15.5,6.1c-1.4.6-2.9,1-3.5,2.7a2,2,0,0,1-.5.5,3.5,3.5,0,0,1,.5-1.3,5,5,0,0,0,.2-0.8h-0.8L130.8,98h-1a2,2,0,0,0-.7.7c-0.5,1.3-.9,2.5-1.3,3.8a5,5,0,0,0-.1,1.1l3.5-.8a2.5,2.5,0,0,0,.8-0.5,7,7,0,0,0,.6,1.2l11.6-3.1,4.1-1.4a13.1,13.1,0,0,1-3.7,2.4,20,20,0,0,1-3.3.9l-7.2,1.7c-1.1.3-2.6,0.4-3,1.1a30.7,30.7,0,0,0-2.5,6,2.5,2.5,0,0,0,.4,1.6l11.4-1.6,2.3-.3h0ZM103.9,81l-1.4-1,5.1-.3a6.8,6.8,0,0,0,.1.8l1.6-.2-1.3-.6c5.3-.6,10.8.1,16.1-3.2h-2.1c-2.9.2-5.5,2.8-8.8,1.3l0.6-.2,6.9-1.2c5.5-.8,10.2-3.3,14.6-6.4l2.1-1.6a1.7,1.7,0,0,1-.3.6l-6.4,5.3a1.6,1.6,0,0,0-.2.7h0.7l2-1a4.1,4.1,0,0,0,1.2-.3c1.1-1.3,2.2-2.6,3.3-4l1-1.4-0.3-.2-0.8.5a5.9,5.9,0,0,0,1.5-1.8,20.9,20.9,0,0,0,.8-4.9c0-.4.9-2.4-1.2-1.7a1.2,1.2,0,0,1-.2-0.5c0.2-4-2.2-6.7-4.6-9.5a7.2,7.2,0,0,1-.7-1.3,1.6,1.6,0,0,1,.8-0.2,5.5,5.5,0,0,1,1.2,1,60.7,60.7,0,0,1,4.4,4.8,27.4,27.4,0,0,1,3.7,5.9c1.5,3.7.2,8.2,3.4,11.4-1.3-.4-1.3-0.4-1.1,1.8l2.1,0.9-1-2.7,1.2,0.4,0.2-1.8h0.4l-0.7,4.6,0.7,0.2,0.8-2.6a34.3,34.3,0,0,0-.1-4.4c0-.2-1.1-0.3-1.9-0.5l-1.8-3.3h0.2l2.5,3.1a14.7,14.7,0,0,0-1.5-4.9,16.1,16.1,0,0,1-1.3-2.7c-0.4-1.6-.3-3.4-0.9-4.9s-1.7-1-2.5-1.7-4.2-4.5-6.6-6.4-4.1-2.3-6.1-3.5-1.7-1.4-2.6-1.9c-3-1.6-5.9-3.2-9-4.6s-7.5-3.2-11.3-4.7h-0.8a2.7,2.7,0,0,0,.1.7c0.9,2,1.8,4.1,2.8,6.1s1.2,2.2,1.9,3.3h0.3l-1.1-3.7c0.8,1.8,1.5,3.6,2.1,5.4a1.7,1.7,0,0,1-.1.7,1.6,1.6,0,0,1-.6-0.4l-1.3-2.4c-1.7-3.2-3.4-6.5-5.3-9.6-0.3-.4-1.2-0.5-1.9-0.7a4.3,4.3,0,0,0,.2,1.2l3.1,6.1,0.5,0.3a1.6,1.6,0,0,0,.1-0.6l-0.7-2.1c0.7,1.8,1.3,3.6,2,5.3s1.2,3.2,2.3,3.8a39.5,39.5,0,0,0,8.2,2.7,14.2,14.2,0,0,0,4.3.1,1.5,1.5,0,0,0,.8-1.2,38.2,38.2,0,0,0-2-3.7l-0.6-.7a6,6,0,0,0-.2,1.4c0.1,1,.3,2,0.4,3.1-0.9-.5-2.1-0.9-2.6-1.7a51.5,51.5,0,0,1-3-5.2H115l0.9,2.7h-0.2l-2.3-6.5,6.1,3,0.6-.7,4.6,7.5,0.2-.4a6,6,0,0,1,.2,1.1,0.9,0.9,0,0,1-.3.5l-1.3,1.2a2.8,2.8,0,0,1-1.1.9,12.3,12.3,0,0,1-3.2-.1l-7-1.5-4.1-.8a1.5,1.5,0,0,1-.2-0.7h0.6l1.4,0.4V46.1l-6.3-.6v0.6a2.6,2.6,0,0,1-1.2.1,7.4,7.4,0,0,0-6.7.3l-1.6.9c-0.8.3-1.9,0.3-2.5,0.9s-3.7,3.5-5.5,5.3-3.5,2.4-4.6,4.1-1.9,4.6-2.8,6.9l-0.3.3L78,64.3l-0.3-.5a0.9,0.9,0,0,0-.4.3,37.7,37.7,0,0,0-.3,6.4A7.5,7.5,0,0,0,79,74.3a19.9,19.9,0,0,0,3.8,2.9L86,79.2,91.4,82l0.4-.8-3.4-1.6a1.6,1.6,0,0,1-.8-0.5,1.4,1.4,0,0,1,.1-0.8H88l2.9,2L96,83.5l4.5,2.4L88.8,81.7H88.4a0.6,0.6,0,0,0,.1.3,14.3,14.3,0,0,0,2.5,1.5l8.8,2.9,1.7,0.5-1-1a32.8,32.8,0,0,1,3.7,2.1,24.5,24.5,0,0,1,3.2,2.9c1.6,1.7,3.3,3.3,2.9,6s0.8,1.6,1.8,1.4a3.1,3.1,0,0,0,.5-1.4,5.1,5.1,0,0,1,.1-0.8,4,4,0,0,0-1-4.8c-1.9-2-4-3.9-6.9-4.4H107l-3.1-1.6-1.7-2.2c0,0.6,0,.9,0,1.2h-0.3L101,83.2l-1.7-2.5a3.9,3.9,0,0,0-.8-0.6,1.1,1.1,0,0,1,.3-0.4l4-1.3a9.6,9.6,0,0,1,1.7.1l8.3-.5a0.9,0.9,0,0,1-.7.5L101,80a1,1,0,0,0-.4.5l4.1,4.9L103.9,81a15.3,15.3,0,0,0,.9,1.8,2.8,2.8,0,0,0,.9.7H106a3.5,3.5,0,0,0-.3-0.9l-1.1-1.5A1.4,1.4,0,0,0,103.9,81ZM25.7,239.6l3-2.5v0.2l-4.9,6.2,0.4,0.3,2.8-2.6,0.2,0.2L22.1,247l1.6,1.3,0.7-.9,4.2-5.6,0.5,0.3a5.2,5.2,0,0,1-.5.8c-1,1.2-2,2.3-2.9,3.5a10.5,10.5,0,0,0-.9,2.5l2-1.1,0.5-.4,2-1.2a8.3,8.3,0,0,1-.4,1.4c-0.2.4-.6,0.7-0.8,1.2a3.9,3.9,0,0,0-.4,1.7,22,22,0,0,0,4,2l8.5,2.7c2.7,0.9,5.3,1.9,8,2.5s5.5,0.7,8.2,1.2,5.4,1.4,8.1,1.8c5,0.8,10,1.4,15,2.1,0-.9.1-2-0.1-2.2-2.1-1,0-1.8.2-2.5a64.1,64.1,0,0,1,2.6-6.8,2.3,2.3,0,0,1,1.2-.4,2.4,2.4,0,0,1,.2,1.1,56,56,0,0,1-2.4,5.2c-1,1.8-1.7,3.8-.1,5.1s3.2,1.3,4.9,1.3,4.2-.7,6.3-0.7,5.3,0.1,7.9.2l8.1,0.3c1.6,0,3.1-.1,4.7-0.2l7.4-.6c0.3-1.8.4-3.3,0.8-4.8s0.7-1.7-.9-1.6a1.2,1.2,0,0,1-.5-0.3l0.4-.3c1.5,0.3,2-.7,2.4-1.9a19.2,19.2,0,0,1,1.3-2.6,1.6,1.6,0,0,1,.7-0.3,1.5,1.5,0,0,1,.1.7l-2,4,2.7-1.4,0.7-.3a0.8,0.8,0,0,1,.1.4l-0.6.7c-1.2,1-3.5.8-3.6,3.1s-0.2,2.2-.2,3.4l2.7-.9h0.4a0.6,0.6,0,0,1,0,.5l-1.2,1.4a7.9,7.9,0,0,0,1.7,0l9.4-2.4c3.7-1,7.5-1.9,11.1-3.1s8-2.8,12-4.1a7.6,7.6,0,0,1,2.9.1,1.3,1.3,0,0,1,.4.5,3.2,3.2,0,0,0,.4-0.8l1.4-6.5c0.9-4.3,1.8-8.6,2.6-12.9a3.7,3.7,0,0,0-.3-1.3c-0.8,2.5-1,5-1.6,7.4s-1.5,5.3-2.3,8a2,2,0,0,1-.4.6,2.6,2.6,0,0,1-.1-0.8c1.2-4.9,2.6-9.7,3.5-14.6,0.6-3.4.5-6.9,0.9-10.3,0.8-7.3,1.9-14.6,2.6-22,0.5-5.5.5-11.1,0.7-16.6a2.5,2.5,0,0,0-.6-1l-0.3-.4h0.7c1.3-4.7.5-9.5,0.6-14.3s0.5-9.9.8-14.8h-0.3l-1.3,12h-0.5l1.1-11.3c-1.4,2.1-2.3,4.5-3.8,6.5s-3.5,3.5-5.3,5.3a2.7,2.7,0,0,1,.6-1.2l0.6-1.1a26.2,26.2,0,0,0-3.4,3.3c-2.2,2.3-4.1,4.9-6.6,6.7a31.6,31.6,0,0,1-7.9,3.6,79.2,79.2,0,0,1-10,3c-3.7.8-7.6,1.1-11.4,1.8s-6.7,1.8-10.1,2-7.5-.2-11.3-0.4l-0.4-.3a1.3,1.3,0,0,1,.5-0.4h4.1a1.2,1.2,0,0,0,.9-0.3,15.8,15.8,0,0,0,.4-2c0.2,0.7.3,2.1,0.6,2.2a66,66,0,0,0,7,.3,1.7,1.7,0,0,0,1-.6c-0.5-1.6-1.2-3.1-2-5.2l-0.2,4.4a1.7,1.7,0,0,1-.2-1c0-1-.1-2-0.1-3l-3.4.2,0.2,1.9c-0.5-2.2-2.1-2.1-3.8-1.9h-0.7a6.4,6.4,0,0,0,.2.7l1.2,3c-1.6-1.3-.8-4.5-3.2-3.9l-3.5-.2,0.7,3.6c-0.5-1.3-.9-2.3-1.3-3.3a1.8,1.8,0,0,0-.7-0.5,1.9,1.9,0,0,0-.4.6c-0.1.7-.1,1.4-0.1,2.1a2,2,0,0,1-.4.7,2.3,2.3,0,0,1-.5-0.6,9.2,9.2,0,0,0-.9-2.7c-0.4-.5-1.4-0.5-2.2-0.7a4.2,4.2,0,0,0-.2,1c0,1,.2,2,0.2,3a1.9,1.9,0,0,1-.4.7,3.5,3.5,0,0,1-.5-0.7l-1.5-4.1a0.8,0.8,0,0,0-.6-0.3,0.7,0.7,0,0,0-.3.5c-0.1,1-.2,2-0.3,2.9,0.7-2.8-.2-4.1-3.1-3.7a1,1,0,0,0-.6.8c0.2,1.1.5,2.1,0.7,3.2a21.3,21.3,0,0,1-1.1-2.8,11.8,11.8,0,0,0-.7-1.3l-1,.7-0.7-.7,0.4,2.3,0.5-1.1c0.1,1.1.3,1.9,0.3,2.7a0.9,0.9,0,0,1-.3.4l-0.3-.4c-0.4-1.2-.8-2.5-1.3-3.6a2.1,2.1,0,0,0-1.2-.5,0.7,0.7,0,0,0-.3.4c0.1,1.6.2,3.2,0.3,4.8a2.2,2.2,0,0,1-.2.8H80.1l-1-2.5h0.2l0.8,1.3c0-1.8,0-3.3-.1-4.7a3.4,3.4,0,0,0-1.2-.4,2.6,2.6,0,0,0-.1.8c0.2,0.9.4,1.8,0.6,2.7a14.5,14.5,0,0,1-1.1-2.8,2.1,2.1,0,0,0-.5-0.6,4,4,0,0,0-.3.7,4.8,4.8,0,0,0,0,.7c0,0.2,0,.5-0.1.7,0.5-2.6-1.3-2.6-3-2.8q0,1.8,0,3.6c-1.6-4.1-1.6-4.1-1.9-4l-2-1-0.2.6-1.7-1.8L68,172.9l0.6-.4-2.6-3c-1.8-1.8-3.9-3.4-5.2-5.4s-1.8-4.3-2.7-6.5c-1.8-4.3-.5-8.4,1.2-12.2,1-2.3,3.3-4,4.9-6A31.3,31.3,0,0,1,76,129.8c2.2-1,4.6-1.6,6.9-2.4h0.5v0.2l-0.5.3c-3,1.2-6.3,2-9,3.8s-6.1,5.1-9,7.8a26,26,0,0,0-4.5,5,15,15,0,0,0-2.2,11.4c0.8,3.7,2,7.5,5,10.2l5,4.4c0.5,0.4,1.2.5,1.7,0.8s1.3,2.3,2.8.8h0.5c0.6,1.8,2.2,1.6,3.5,1.9a0.6,0.6,0,0,0,.5-0.2,3.4,3.4,0,0,0,.2-0.8,3.4,3.4,0,0,0,.8.9,8.7,8.7,0,0,0,1.9.6,0.9,0.9,0,0,0,.4-0.4l0.6-.9,0.8,0.9,1,0.8,0.5-1,0.4-.8a1.4,1.4,0,0,1,.6.3c0.1,1.9,1.6,1.6,2.7,1.7a2.3,2.3,0,0,0,1.7-.6,3,3,0,0,0,.1-1.6l1,1.5a1.2,1.2,0,0,0,.2.4l1.7,0.8a6.6,6.6,0,0,0,.3-1,10.5,10.5,0,0,1,0-1.3,18,18,0,0,1,.7-1.9l1.3,1.6a0.9,0.9,0,0,1,.1.3,11.7,11.7,0,0,0,.7,2.1,3,3,0,0,0,1.2.7c0.1-.6.2-1.3,0.3-1.9a10.9,10.9,0,0,1,.3-1.2,4.3,4.3,0,0,1,.5,1c0.4,2.2,2.4,3.2,4,2.4l1.4,0.3a0.5,0.5,0,0,0,.4-0.3l-0.9-3.5h-0.3l-0.2,2.8a21,21,0,0,1,0-2.9,2.2,2.2,0,0,1,.5-0.8,3.4,3.4,0,0,1,.5.8c0.6,1.8.1,4.7,3.6,3.9a1.3,1.3,0,0,0,.6-1,10,10,0,0,0-.6-1.9c1.1,1,.4,3.3,2.9,3s3.6,0.3,2.4-2.7l0.7,0.9,1.1,1.4a14.6,14.6,0,0,1,1.3-1.6,1.5,1.5,0,0,1,1-.2l3.6,0.3,1.6,0.8a5.1,5.1,0,0,1-1.7-.2,8.9,8.9,0,0,0-2.1.3,0.6,0.6,0,0,0-.3.5l2.3,4.9,0.5,0.2a1.7,1.7,0,0,0,.1-0.5c0-1-.1-2-0.2-3,0.2,0.9.3,1.9,0.5,2.8a0.9,0.9,0,0,0,.4.6l2.7-.7-1.3-4.5c0.6,1.2,1.1,2.5,1.6,3.8a2,2,0,0,0,.6.5,1.4,1.4,0,0,0,.3-0.6c-0.1-1.8-.2-3.6-0.3-5.4a4.1,4.1,0,0,1,0-.5l0.5,0.3,2.4,3.9a10.5,10.5,0,0,0,1.1,1.2,14,14,0,0,0,.2-1.7c0-1.7,0-3.3,0-5a11.2,11.2,0,0,1,.3,3.6c-0.1,3.3-.1,3.4,3,3.2a0.9,0.9,0,0,0,.4-0.8,41.1,41.1,0,0,0-1.6-3.9c-0.5-1-1.1-2-1.9-3.3-0.3.4-.1,0,0,0a1,1,0,0,1,.8.3l2.7,5.8a4.2,4.2,0,0,0,.7.8,3,3,0,0,0,.5-0.8c0.4-1.5.8-3.1,1.2-4.6a2.1,2.1,0,0,1,.3-0.5,1.3,1.3,0,0,1,.5.4c0.4,1.3.6,2.6,1.1,3.9a5.6,5.6,0,0,0,1.2,1.5c0.5-.5,1.3-0.9,1.3-1.5a24.6,24.6,0,0,0,.1-4.4,4.4,4.4,0,0,0-.7-1.4h0.1a51.3,51.3,0,0,0,5-2.6c3.7-2.5,8.6-3,11.4-6.9h0.1a5.7,5.7,0,0,0,3.2-4.7c0.1-.5-0.3-2.1,1.2-0.8a0.6,0.6,0,0,0,.5-0.3c0.8-2.4,1.7-4.8,2.4-7.2s0.5-3.4-1.6-4.5a17.4,17.4,0,0,1-3.1-2.6,7.5,7.5,0,0,1,2.6,1.4c1.1,1.1,2.6,2.3,2.7,3.6a15.5,15.5,0,0,1-1,6.2c-0.7,2.1.9,2.3,2,3.1l0.9-1.5,0.2-.3H165l-0.6,2.2-2.9-1.1a16.8,16.8,0,0,1,.3,2.6,9.9,9.9,0,0,1-.5,2.1l-1.5-1.4a2,2,0,0,0-.2-0.4h-0.6l-1.5,7.3,0.7,0.3,3.7-4.6,0.6-.6a8.8,8.8,0,0,0,2.2-1.7,13.1,13.1,0,0,0,1-3.1h0.2l-0.4,2.3a1.7,1.7,0,0,0,.8-1.2c0.1-1.7.2-3.5,0.3-5.2a1.8,1.8,0,0,1,.5-0.7,2,2,0,0,1,.2.6c0,1.2,0,2.3,0,3.5h0.5l0.9-5.4a10.4,10.4,0,0,1-.8-2.1,81.2,81.2,0,0,0-4.5-6.9,32.2,32.2,0,0,0-11.9-9.1c-2.5-1.3-5.2-2.3-7.8-3.5a14.9,14.9,0,0,0-3.5-1.4c-2.5-.4-5-0.4-7.5-0.7l-6.8-.8a1.4,1.4,0,0,0-1,.3c-0.2,1.3-.2,2.7-0.4,4-0.6,3-1.3,6.1-2,9.1a1.7,1.7,0,0,1-.1-1.4l2.4-13.8a4.2,4.2,0,0,0,0-.9c-0.6.2-1.7,0.2-1.8,0.6a10.9,10.9,0,0,0-.5,3.1c-0.2,2.3-.4,4.6-0.6,6.8a0.5,0.5,0,0,1-.2-0.5c0.3-2.9.6-5.7,0.9-8.6a2,2,0,0,0-.4-0.8,2.3,2.3,0,0,0-.7.8,10.5,10.5,0,0,0,0,1.8,3.1,3.1,0,0,1-.3-1.1,2.7,2.7,0,0,0-.4-1.3,3.3,3.3,0,0,0-3.5,4v0.2l0.3-.2-0.4,5.8h-0.1v-3.6l-0.4-.4c0.1-1.1.6-2.3,0.3-3.3s1.8-1.9-.3-2.4a0.9,0.9,0,0,0-.7.5,18.7,18.7,0,0,0-.4,2.4,11.5,11.5,0,0,0-.2-1.5l-0.6-1.5a10.2,10.2,0,0,0-.3,1.6c0,2.2,0,4.4,0,6.7a12,12,0,0,1-.2-4.2,17,17,0,0,0-.2-2.8c-0.2-1.5-1-1.4-1.9-.6H112c-0.9-.6-0.9-0.6-1.2.3a2.2,2.2,0,0,0-.5-1l-5.9-.5-6.7-.4c-2.1-.2-4.2-0.8-6.3-0.8a58.8,58.8,0,0,0-8.1.8l-9.9,1.8H72.7v-0.8H72.3c-3.1-.4-5.7,1.3-8.7,1.7-4.8.6-9.4,2.4-14,4a58.8,58.8,0,0,0-8.2,3.9c-2.3,1.2-4.5,2.6-6.7,4.1a23.3,23.3,0,0,0-2.7,2.4,1.4,1.4,0,0,0,1,0l2.2-.4a8.8,8.8,0,0,1-1.3,1.9l-7.6,6.2a2.3,2.3,0,0,0-.3,1.1l0.8-.2,6.7-3h0.4a0.4,0.4,0,0,1,.1.4l-2.7,2.3,2.2-1.7-0.5-.6-1.2.4a23.6,23.6,0,0,1-4,2.4c-2.4.8-2.8,2.6-2.9,4.6a6.7,6.7,0,0,0,.6,2.1l0.9-.6a5,5,0,0,0-.3.9,9.4,9.4,0,0,0,0,1.1,2.9,2.9,0,0,0,.9-0.3,6.3,6.3,0,0,0,1.7-1.5,6.5,6.5,0,0,0,.5-2.1l-1.4.7-1.7.5a1.1,1.1,0,0,1-.1-0.6l5.1-5.4c-0.5.7-1.1,1.4-1.6,2.2a3,3,0,0,0-.2,1.1l0.8-.2,2.3-1a4,4,0,0,1,1.2-.1l-0.4,1.2a20.6,20.6,0,0,0-1.2,3.4,6,6,0,0,0,.5,2.2l0.6-2.2,0.4-.8a2.6,2.6,0,0,1,.5.9c0.3,3,.6,6,0.9,9,0.5-1.9.7-3.7,1-5.6a8.4,8.4,0,0,1,.6-1.6,9.3,9.3,0,0,1,.7,1.9c0.3,1.8.4,3.5,0.7,5.9,0.2-1.1.3-1.6,0.5-2.1s0.4-1.1.6-1.6a7.6,7.6,0,0,1,.8,1.7c0.3,1.4.5,2.7,0.7,4.1a16.3,16.3,0,0,0,.6-2.9,16.3,16.3,0,0,1,.7-2.1,13.1,13.1,0,0,1,.7,2.1c0.3,2.2.6,4.4,0.9,6.6h0.5V165c0.3,1.2,0,2.4.4,3.4s1.4,1.4,2.5,2.5c-0.5-4-.9-7.2-1.3-10.4a1.7,1.7,0,0,0-.3-0.6,2.5,2.5,0,0,0-.3.6l-0.6,3.9H44l1-4.8a1.7,1.7,0,0,1,.7.4c0.3,2,.6,4.1.9,6.1s0.3,1.7.4,2.5h0.3l0.2-.9c0.2,0.6.1,1.2,0.3,1.8a6.7,6.7,0,0,0,.8,1.5,5.5,5.5,0,0,0,.2-1.3c-0.2-1.4-.4-2.8-0.6-4.2H48l-0.2,1.8a7.1,7.1,0,0,1,.1-2.3l0.2-.9a3.5,3.5,0,0,1,.5,1c0.3,1.8.6,3.6,0.9,5.4a1.9,1.9,0,0,0,.4.6,3.1,3.1,0,0,0,.2-0.7c0-.6,0-1.2,0-1.8a21.5,21.5,0,0,0,.4,2.2,3.7,3.7,0,0,0,1.4,1,4.6,4.6,0,0,0,.1-1.1c-0.2-1.2-.5-2.3-0.7-3.4h0a7,7,0,0,1,.5,1.1c0.3,1.4.6,2.8,1,4.2h0.3v-0.9l2,2a1.8,1.8,0,0,0,.8.2,2.8,2.8,0,0,0,0-.7l-0.7-3.7-0.8-3.9-0.8,3.1a8.2,8.2,0,0,1,.2-2.2,2.6,2.6,0,0,1,.7-0.8,4,4,0,0,1,.5,1c0.2,1,.2,2.1.4,3.1s0.7,2.8,1,4.3H57l0.2-3.4a12.1,12.1,0,0,1,.2,2.2,4.8,4.8,0,0,0,.4,2.2c0.3,0.4,1.1.4,2.1,0.7l0.5,0.7,0.4-3.5c0.1,1-.3,2.5.2,2.9a57.8,57.8,0,0,0,6.1,3.9L65.2,173c0.1,1.7.2,2.8,0.3,3.9a1.9,1.9,0,0,1-.3.7,1.7,1.7,0,0,1-.6-0.5c-0.4-1-.6-2.1-1-3.1l-1.8-5.1-0.6,1.4a1.1,1.1,0,0,1,.5-1,1.1,1.1,0,0,1,.8.6,27.2,27.2,0,0,1,1.1,2.7l1.3,4.1a16.3,16.3,0,0,0,0-3.1c0-.9.1-1.8,0.2-2.7l0.8,2a3.1,3.1,0,0,1,0,.4l1.5,5.8h0.5v-4.7a14,14,0,0,1,.4,3.3c0.1,0.7.2,1.9,0.7,2a39.5,39.5,0,0,0,5.3,1.4,6.6,6.6,0,0,0,1.5,0l-0.5-1.2-0.5-1.3a12.1,12.1,0,0,1,1.3,2.2,4.9,4.9,0,0,0,1.1,1,5.5,5.5,0,0,0,.3-1.1c0-.9,0-1.8,0-2.7a4.8,4.8,0,0,1,.3,1.5c0.2,0.8.4,2.3,0.8,2.4,4.4,0.3,8.8.5,13.3,0.6h7.7a1,1,0,0,1-.8.7H89.2a79.4,79.4,0,0,1-11.1-.6A78.5,78.5,0,0,1,65.9,179a57.3,57.3,0,0,1-9.8-4.4c-1.3-.8-2.8-0.1-4.2-1.6s-3.7-1.5-5.6-2.1c-4.4-1.3-8.8-2.8-12-6.3s-3.4-2.3-5.1-.1c-0.4.5-1.1,0.8-1.5,1.3l-2.2,2.5,4.8-2.1h1a2.3,2.3,0,0,1-.2,1.1l-4.9,4.8-3.2,2.7,0.5,0.5,4.8-2.8a4.2,4.2,0,0,1,1.1-.3,3.5,3.5,0,0,1-.6,1.2L23.4,178l0.8,0.8,0.5-.3,3.7-2.2a1.8,1.8,0,0,1,.9.2,2,2,0,0,1-.2.8l-5.2,5.1a3.6,3.6,0,0,0-.5.7,1.6,1.6,0,0,0,.7.3l3-.7,1.5-.3a9.4,9.4,0,0,1-.8,1.5c-0.5.7-1.5,1.3-.1,2a59.2,59.2,0,0,0,6.9,3.3c4.9,1.7,9.9,3.3,14.9,4.6,3.4,0.9,7.1,1,10.6,1.5l12,2.1c2.7,0.5,5.4,1.1,8.1,1.4s3.6,0,5.4.1,2.8,0.5,4.3.5c4.1-.1,8.2-0.2,12.2-0.7s7.3-1.4,10.9-1.9,5.2-.4,7.8-0.6,2.3,0.2,3.4,0l7.9-1.5c3.5-.7,7.1-1.2,10.6-2.1s4-1.6,6.1-2.2l7.6-2.2,7.8-2.1c1.3-.3,3.5,1.8,2.9,2.8s-1.8,2.7-3,3.2c-2.8,1.1-5.8,1.4-8.7,2.3s-5.3,2.3-8,3c-4.3,1.1-8.6,1.8-13,2.7s-6.5,1.4-9.8,1.9-5.6.1-8.4,0.4-4.9,1-7.3,1.4-5.1.5-7.6,0.7-7.7.8-11.5,0.8a72.6,72.6,0,0,1-9.6-.6c-4.5-.5-8.9-1.2-13.4-1.9s-9.4-1.7-14-2.7a141.4,141.4,0,0,1-15.8-3.9c-4.3-1.5-8.3-4-12.5-6a0.9,0.9,0,0,0-.7,0,2.1,2.1,0,0,0-.4.8h0.3l-1.7,3,0.5,0.3,1.8-2.1a3.8,3.8,0,0,1,.9-0.5,4.6,4.6,0,0,1-.5,1.1L22.3,196l2-1a29.1,29.1,0,0,0-2,2.5,3.3,3.3,0,0,0-.2,1.5h1.4a1.7,1.7,0,0,1-.2.8c-2,2-1.4,4.7-1.8,7a5.7,5.7,0,0,0,.2,1.6l1.1-.8c-0.5,1-.8,1.5-1,2.1a6.4,6.4,0,0,0-.2,1.3h1.7a4.5,4.5,0,0,1-.2,1.2c-0.5,1.1-1,2.1-1.8,3.6l1.8-1.1-2.1,4,3.8-3.2,0.3,0.2-3.2,4,3.2-1.7a1.7,1.7,0,0,1,.7,0,2.9,2.9,0,0,1-.2.6l-3,4.6a24.8,24.8,0,0,1,3.4-1.7,2.8,2.8,0,0,1,1.6.5,2.2,2.2,0,0,1-.3,1L25,226.5l-2.1,2.7,1.5-.6c-0.9,1.1-2.3,1.7-2.9,2.8s-0.1,2.7-.1,4.6a33.1,33.1,0,0,1,1.9-3.4c1.4-1.9,2.9-3.7,4.3-5.5h0.5a0.7,0.7,0,0,1-.1.4,6.8,6.8,0,0,0-1.4,1l-4.1,5.6a6,6,0,0,0,2.7-1.4H26a2.3,2.3,0,0,1-.4.6c-1.4,1.1-3.1,2-4,3.4s-0.1,2.8-.1,4.3l0.4-.2,4.8-6.8a4.4,4.4,0,0,0,.3-1.6l-0.7-.2,1.7-.6a1.4,1.4,0,0,1,.2.7l-2.6,4.2-3.3,4.9,1.4-.6-0.4.4c-1.8,1.2-2,2.9-1.4,4.9ZM73.8,66.2l0.7-.2c-0.5-1.2-.8-2.5-1.4-3.6-1.4-2.9-2.8-5.9-4.5-8.7a12,12,0,0,0-3.2-3.2c-0.4-.3-1.4,0-2.1.2-2.2.5-4.6,0.5-6.2,2.9s-2.1,1.4-3,2.3a17.5,17.5,0,0,0-1.9,2.9,2.2,2.2,0,0,1-.5.6,4.3,4.3,0,0,0-1.3.8c-1,1.8-1.8,3.6-2.7,5.4-2.3,4.6-1.4,9,.6,13.4,1,2.3,2.3,4.5,3.2,6.5a5.3,5.3,0,0,1,1.6.3l4.5,3a63.3,63.3,0,0,0,8.1,4.8,109.8,109.8,0,0,0,12.5,4.4c5.3,1.6,10.7,2.9,16.1,4.2,3.7,0.8,7.4,1.3,11.1,2h2.2c0.6,0,1.7,0,1.8-.3a5.8,5.8,0,0,0-.1-2.2,0.9,0.9,0,0,0,0-.1c-0.2-1.1.7-2.7-1.5-3-6.1-.9-12.3-1.8-18.4-3a82.6,82.6,0,0,1-10.6-3c-3.9-1.3-7.7-2.9-11.5-4.5a15.3,15.3,0,0,1-3.1-1.9c-2.8-2-5.6-4-8.2-6.2a9.6,9.6,0,0,1-2.5-3.9c-0.9-2.4-2-5-1.9-7.5s1.6-3.8,2.7-5.4c2.6-3.8,5.6-7.4,10.1-9.2a8.1,8.1,0,0,1,1.8-.3l-1.6.9v0.2h1.7l0.7,0.2a2.4,2.4,0,0,1-.2.7,1.1,1.1,0,0,1-.6.4c-1.9.4-4.1,0.2-5.5,1.2s-3.2,3.5-4.8,5.3a7.4,7.4,0,0,1-1.3,1.7c-1.2.7-2.4,4.5-1.6,5.4-1,1.4.4,5.9,2.3,7.2a6.3,6.3,0,0,1,.1-0.7c0.4-2.3.5-4.7,1.4-6.7A21.1,21.1,0,0,1,61.4,64a11.9,11.9,0,0,1,3.3-1.8A51.1,51.1,0,0,1,69.6,60c0.3-.1,1,0.6,1.5.9l-0.3.3a20,20,0,0,0-3.5.8c-3,1.3-5.9,2.6-7.6,5.7a19.2,19.2,0,0,1-1.5,2.1,0.8,0.8,0,0,0-.7.7c-0.7,3.9-2.9,8,1.7,11.1a0.9,0.9,0,0,0,.9-0.1,42.4,42.4,0,0,1,3.2-4c1-.9,2.6-1.3,3.5-2.3,2.5-2.6,7.2-2.8,10.3-1.1l-1.3.2c-1-.1-2.1-0.6-2.9-0.4a26.6,26.6,0,0,0-6,2.4,17.9,17.9,0,0,0-4.7,4c-0.6.7-2.6,2-.6,3.2a88.7,88.7,0,0,0,9.5,5.1,87.3,87.3,0,0,0,9.1,3.3,88.2,88.2,0,0,0,8.8,2.5c2.3,0.5,4.8.3,7.1,0.8,4.3,0.8,8.5,1.8,12.8,2.7a0.7,0.7,0,0,0,.6-0.4c0-4.3-2.5-7-6-8.7s-7.4-2.7-11-4.2a25.3,25.3,0,0,1-5-2.7,76,76,0,0,1-8.7-6.7c-1.4-1.3-2-3.6-3-5.4l-2.8-4.6a2.4,2.4,0,0,1,0-1.1,4.4,4.4,0,0,1,.6.8A11.6,11.6,0,0,1,73.8,66.2Zm95,77.4c-0.4-2.5-.7-5-1.4-7.3a63.7,63.7,0,0,0-2.9-7.9c-1.3-3.1-3.1-5.9-4.2-9.1a64.8,64.8,0,0,1-1.8-8.1,1.8,1.8,0,0,0-.5-1,1.1,1.1,0,0,0-.9.3c-1,1-1.8,2.5-3,3.1a96.1,96.1,0,0,1-11.8,5.5c-2.9,1-6,1.2-9.1,1.7a24.2,24.2,0,0,1-4.4.4c-2.8-.1-4,0.7-3.8,2.7C142.6,123.6,157,130.3,168.8,143.6ZM138.9,91.3l-0.7-.5a0.6,0.6,0,0,1,.1-0.5c1.3-1.4,2.7-2.7,3.9-4.1a1.4,1.4,0,0,0-.1-1.3,3.8,3.8,0,0,0-1.8-.2c-0.2,0-.3.8-0.4,0.7s-3.4,1.9-4.6-.7a2.2,2.2,0,0,0-1.1-.3,3.8,3.8,0,0,1,0,1,2.6,2.6,0,0,1-.6,1.5,5.1,5.1,0,0,1-1.9.2l-0.5.3-0.3-.5a3.3,3.3,0,0,1,1-.3l1.4,0.3-1.5-1.9a1.6,1.6,0,0,0-.6.5,3.4,3.4,0,0,0-.2,1,4.2,4.2,0,0,0-1-.5h-1.5a0.8,0.8,0,0,0-.3.6,2.2,2.2,0,0,0,.7.5l0.2,0.2-2.6.8c0.1-.7.9-2.1-1.2-1.9l-3.1.4a3.9,3.9,0,0,0-.8.5l-0.7.2-1.9-.2a1.3,1.3,0,0,0-.2.6l1.4,0.6h0.2a2.8,2.8,0,0,0-.9,1.1c-0.1.9,0.3,1.7,0.2,2.6a22.3,22.3,0,0,1-.5,4,11.5,11.5,0,0,1-1,1.9,1.5,1.5,0,0,0,.8.6h2.9c0.5,0,2.3.2,2.4-.2a22.7,22.7,0,0,0,.6-4.9,6.8,6.8,0,0,0-.2-1.5h0.3l0.4,1.2,1.1-4.4a72.2,72.2,0,0,1-1.5,7.6,11,11,0,0,0-.1,2.1c1.5-.4,3.4-0.3,4.3-1.2s2.2-3.8,3.2-5.7l0.4-.5,0.3,0.2-3.6,6.6a21.7,21.7,0,0,1,3.6-1.4c2.7-.5,4.1-1.9,4.3-4.6a0.7,0.7,0,0,1,.2-0.4h0.4a1.1,1.1,0,0,1,0,.5l-0.2.9ZM148.1,81c4.1-.1,6,2.4,6,7.4,3.4-.9,7.5-5.3,8-8.8a8.7,8.7,0,0,0-.4-2.4L161,78.7a12.7,12.7,0,0,0-1-3c-0.9-1.3-2.4-2.3-3-3.7s-1.8-1.5-2.9-.8a3,3,0,0,0-.4,1.5l-0.2.5-1.6,4.6a1.4,1.4,0,0,1-.3.6Zm15.4-1.9c-0.2.3,0,.1,0-0.1,0.2-3,.8-6,0.3-8.9s-2.2-3.2-3.5-4.6a19.1,19.1,0,0,0-3.7-3.1,10.3,10.3,0,0,0-2.8-.7l-2.8-.9h-0.7a1.1,1.1,0,0,0,0,.3l1.1,2.8,2.1,5.4a1.4,1.4,0,0,0,.8.8,12,12,0,0,0,2.2-.1V69.5l0.8,0.8,1.2,1.8ZM144.5,92.4v0.4c2.1-.8,4.4-1.5,6.4-2.5s3.1-1.2,2.2-3.3a10.9,10.9,0,0,0-2.1-3.6c-1-1-2.1-3.2-4-1-0.3.3-.4,0.8-0.6,1.1l-7.6,10.2a1.9,1.9,0,0,0-.2.7h0.8Zm-21,9.4a3.7,3.7,0,0,0,.2,2.1c0.7,0.9,3.4-.2,3.8-1.3s0.7-1.7.9-2.5a5,5,0,0,0-.1-1.6l-7.8,1.2a1.4,1.4,0,0,0-.1-0.3c-1.2.1-3-1.6-3.1,0.9a2.9,2.9,0,0,0-.6-1.5,5.1,5.1,0,0,0-2.2-.1l1.2,0.7c-2.3-.4-2.9.4-2.6,2.1s-0.1.8-.1,1.1,0.2,1.3.3,1.9l3.5-.7a47.5,47.5,0,0,0,4.9-.3C122.6,103.4,123.2,102.2,123.5,101.8ZM94.9,32.1A2.6,2.6,0,0,1,96,32l4.2,5.4,1.3,1.8,0.4-.3-2.7-4.4,0.4-.2,4.3,7.8-0.5.3-4.4-6.7a49.1,49.1,0,0,0,2,6.7,2.2,2.2,0,0,1,0,.7l-0.6-.4L99.1,41c0.1,1.2.3,3,.9,3.1a52.2,52.2,0,0,0,7.5.7,0.8,0.8,0,0,0,.4-0.6c-0.3-.8-0.7-1.6-1.1-2.4l-1.3-2.7a17.7,17.7,0,0,0,.8,3.7,3,3,0,0,1,0,.8H106l-1.4-1.7,0.2-.2,0.9,0.9-0.7-2.1c-1-2.7-2.1-5.3-3-8s-1.8-1.5-3-1.5H96.7a6.6,6.6,0,0,0-1.8.1A2.8,2.8,0,0,0,94.9,32.1Zm14.5,56.5,2,1.8c1.4,1.5,2.6,3,1.9,5.3s-1.5,3.6,1.8,2.4c0.5-.2,1.1.1,1.6-0.1a1.5,1.5,0,0,0,1-.7c0.3-1.2.2-2.6,0.8-3.7s0.3-5.5-1.3-6.4a4.3,4.3,0,0,0-1.8,0,2.4,2.4,0,0,0,.7.8c0.3,1.6.6,3.2,0.9,4.8a1.9,1.9,0,0,1-.2.7l-0.3-.7a17.9,17.9,0,0,0-1.1-3.7c-0.2-.4-1.4-0.4-2.1-0.6a2.2,2.2,0,0,0-.1.9c0.4,1.1,1,2.1,1.3,3.2a37.4,37.4,0,0,1,.7,3.8c-1.1-3.3-1.1-7-4.7-9h1.2a0.4,0.4,0,0,0,0-.4c-0.6-.8-1.2-1.6-1.8-2.3a1.5,1.5,0,0,0-.9,0,3.7,3.7,0,0,1-1,.1l-2.2-.6c0.3,0.7.5,1.8,1,2.1a35.7,35.7,0,0,0,4.5,1.9l0.4,0.2a0.9,0.9,0,0,1-.3.3Zm40.1,77.8a31.1,31.1,0,0,1,0,3.6,13.3,13.3,0,0,1-.8,2.6,18.1,18.1,0,0,1-1.9-1.6,7.2,7.2,0,0,1-.6-1.4,2.6,2.6,0,0,0-.6-0.6,2,2,0,0,0-.4.7c-0.1,1.4-.1,2.8,0,4.2a1.9,1.9,0,0,0,.6.9,51.8,51.8,0,0,0,6.8-3.7c1.3-1,2.2-2.6,3.3-3.9s1.4-1.3,1.3-1.7a19.5,19.5,0,0,0-1.7-3.5l-1.3,2.3h-0.1l-0.3-.6-3.5,1.3a5.7,5.7,0,0,0,.4,1.4l1.7,3.6H152Zm-27.6-51.5a11.5,11.5,0,0,0-2.5-.3,2.1,2.1,0,0,0-.6,1.2,13.6,13.6,0,0,0-.3,1.9l-0.5,4.1a7.1,7.1,0,0,0,2.1,0,4.2,4.2,0,0,0,1.3-1l0.2,0.8,0.7-.3c1.4-.2,2.6-0.1,2.9-0.6a13.5,13.5,0,0,0,1.3-3.4h-0.5l0.8-3.5c-1.1.3-2.9-.4-2.8,1.6a2.1,2.1,0,0,0-.6-0.9A6.5,6.5,0,0,0,121.9,114.8ZM24.6,158.3H23.8l-0.9,14.1h0.4l1-4.8,0.7,1,6.1-6.1-0.6-.6L27,164.5l-0.9.3a2.7,2.7,0,0,1,.2-0.9,2.6,2.6,0,0,1,.8-0.8c2-1.2,2.1-2.5.5-4l-0.3-.2a2.8,2.8,0,0,0-1.4-.4,1.6,1.6,0,0,0-.6,1.1c-0.3,1.6-.4,3.2-0.7,5.5v-6.7Zm-6,66.4h0.3a9.2,9.2,0,0,1,0-1,1.2,1.2,0,0,1,.2-0.4,0.9,0.9,0,0,1,.3.3c0.1,1.2.2,2.3,0.2,3.5,0.1,4.9.2,9.8,0.3,14.6a2.3,2.3,0,0,0,.3.7,1.8,1.8,0,0,0,.5-0.7c0.1-1.4.1-2.8,0.1-4.2,0-4.3,0-8.5-.1-12.8,0-1.4-.3-2.8-0.5-4.2a5.2,5.2,0,0,0-.8,2l-0.2.4a0.9,0.9,0,0,1-.2-0.4q0.2-3.6.5-7.1l0.3-3.7H19.2Zm20.7-64.1H38.8c0,1.2,0,2.5,0,3.7a7.2,7.2,0,0,1-.3,1.4,7.8,7.8,0,0,1-.6-1.2,9.5,9.5,0,0,1-.3-1.7c-0.2-2.1-.5-4.3-0.7-6.5a22.7,22.7,0,0,0-1,6.4c0,0.8-.2,2.2.2,2.4,2.1,1.3,4.3,2.4,6.5,3.5a0.8,0.8,0,0,0,.3-0.5c-0.1-1.3-.3-2.5-0.5-3.8s-0.2-2.1-.3-3.2H41.5c0,1.8,0,3.7,0,5.5a2.7,2.7,0,0,1-.3.8,2.3,2.3,0,0,1-.4-0.6ZM115.8,116h0.6a15,15,0,0,0-.8,3.2c0,0.9.2,2.5,0.7,2.7s1.5-.9,1.6-2,0.3-2.2.4-3.3,0.1-1.2.1-1.8h-2.2a9.2,9.2,0,0,0-2.7-.5,4.1,4.1,0,0,0-.4,1.6,1.2,1.2,0,0,0,.4.5,19.4,19.4,0,0,1,.8,5.1,0.9,0.9,0,0,0,.7.4,0.7,0.7,0,0,0,.4-0.5C115.5,119.6,115.6,117.8,115.8,116Zm28.9,55.1h-0.3l1.2-2.7,1.7,2.5h0l1.1,1.4a5.9,5.9,0,0,0,.8-1.6,15.6,15.6,0,0,0,0-2.6c0-.6-0.1-1.3-0.1-1.9l-2,.8c-1.7.9-3.3,2-4.9,2.8s-1.1.5-.4,1.4a18.7,18.7,0,0,1,1.1,2.2,18,18,0,0,0,1.6,1.9,17,17,0,0,0,.4-1.9A17.6,17.6,0,0,0,144.6,171.1ZM140.9,65.4c0.3,3.1-3.5,5.8-.6,9.3l0.9-2.1h-1.7c2-.7,2-0.8,1.4-2.6a0.8,0.8,0,0,1,.1-0.6c0.4-.6,1.3-1.2,1.3-1.8a31.2,31.2,0,0,0-.8-7,41.1,41.1,0,0,0-2.8-6.1l-0.6.2c2.9,4.9,3.9,9.8.6,15l0.7,0.2ZM25,145h0.4a2.5,2.5,0,0,0,.4-0.7c0.6-3.2,1.1-6.3,1.7-9.5s1.2-4.7,1.7-7.1,0.5-3.3.8-4.9a0.7,0.7,0,0,0-.2-0.3l-0.3.3-0.7,1.9H28.6l2.3-9.4-0.8-.2-2.9,12.8h0.2l0.9-2.6h0.1Zm88.9-64.2a1.4,1.4,0,0,0,.6.3,16.6,16.6,0,0,0,3.4-.2c2.8-.7,5.9.2,8.4-2h0.3l1.3,0.4a5,5,0,0,0-.2-1.5,2.2,2.2,0,0,0-1.1,0l-1.4.4a3.3,3.3,0,0,1,1.5-1l2.4-.9a2.9,2.9,0,0,0,.7-0.9h-1a23.6,23.6,0,0,0-3.7.9,33.4,33.4,0,0,0-3.7,2v0.3l3.1-.6v0.5Zm-1,36.5c-0.1-.6-0.2-1.1-0.3-1.7a2.5,2.5,0,0,0-.4-1.4,1.6,1.6,0,0,0-1.5,0,3.4,3.4,0,0,0-.3,1.9c0.1,1.7.4,3.3,0.6,4.9a5.2,5.2,0,0,0,.3.9,2.4,2.4,0,0,0,1.1-.6,16.8,16.8,0,0,0,.7-2.6c-0.1,1.1-.2,1.8-0.3,2.6a1.5,1.5,0,0,0,.4.6,1.8,1.8,0,0,0,.7-0.6c0-1.2,0-2.4-.1-3.6a1.4,1.4,0,0,0-.4-0.7Zm26.5,59.3h-0.1V177l3.7-1.1a0.8,0.8,0,0,0,.4-0.6l-2.5-4.4a1.2,1.2,0,0,0-.8-0.6,1.3,1.3,0,0,0-.7.9C139.4,173,139.4,174.9,139.4,176.7ZM120.1,45.6l0.2-.3c0.2-1.2.4-2.5,0.5-3.7a0.8,0.8,0,0,0-.2-0.6l-4.2-2.6-1.3-.5a10.4,10.4,0,0,0,.4,1.2l3,6.2a15.4,15.4,0,0,0-1.2-4.6,1.3,1.3,0,0,1,.1-0.6l0.3,0.2,0.9,2.2ZM22.3,229.5l4.2-6.3a4.2,4.2,0,0,0,.3-1.3l-1.6.4-0.3.3c-1,.8-2.5,1.4-2.9,2.5S22.1,227.6,22.3,229.5ZM31,167.3l-0.3-.4H30.1a16.1,16.1,0,0,0-2.6,1.3,26.7,26.7,0,0,0-3.6,3,3.8,3.8,0,0,0-.3,1.9,2.9,2.9,0,0,0,0,.5l0.5-.2,4.4-4Zm83.7,12.8c-0.3,1.4.1,2.2,1.8,1.7l1.6-.2a0.5,0.5,0,0,0,.2-0.5l-2.1-4.2a4.3,4.3,0,0,0-.7-0.8,3.4,3.4,0,0,0-1,1.2A13.5,13.5,0,0,0,114.8,180.1ZM141.3,79.7l-0.6.4-0.5-.2c0-.5.1-1,0.1-1.5a4,4,0,0,0-.1-0.8l-1.2.5a1.6,1.6,0,0,0,.2.8l0.4,0.5-1.7-.9c-0.2.8-.4,1.6-0.7,2.3a10,10,0,0,1-1,1.4,1.9,1.9,0,0,0,1.1.5,6.8,6.8,0,0,0,1.8-1.1,11.1,11.1,0,0,0,2-.4A5,5,0,0,0,141.3,79.7Zm-30.1,25.4a4.6,4.6,0,0,0,1.4-.9,19.3,19.3,0,0,0-.1-4.1c-0.1-.4-1.1-0.7-1.8-0.8a2.1,2.1,0,0,0-.6,1.2,13.6,13.6,0,0,0,.2,2.9A8.9,8.9,0,0,0,111.2,105.1ZM35,138.9c-2.9-.3-8.6,4.5-8.5,6.7ZM149.1,60.8a14.6,14.6,0,0,1-.4,1.5c-0.5,1.2-1.5,2.4-.1,3.6a3.9,3.9,0,0,1,.7,1.3,7,7,0,0,0,.3,1.1,2.3,2.3,0,0,0,.9.5l-0.7-1.6a4.3,4.3,0,0,1-.1-0.9l0.8,0.2,0.6-.2ZM21.1,194.3h0.5l0.5-6.2H21.6l-0.3,2.1H21.1v-2.3H20.8l-1.2,11.4h0.9l0.6-8.5h0.2Zm113.7-21.9-1.5,6.3,0.2,0.2,2.8-.7-0.5-1.5c-0.1-.5-0.2-1-0.3-1.5ZM143.9,76l-1-.5a1.2,1.2,0,0,1,.2-0.5l0.2-.5a1.3,1.3,0,0,0-.6.4c-0.2.7-.3,1.5-0.5,2.3a3,3,0,0,0-.3.7,3.8,3.8,0,0,0,1.5,1.5,2.1,2.1,0,0,0,1.5-1.3A7.3,7.3,0,0,0,143.9,76Zm-6.6.6c0.8-.4,1.9-0.6,1.9-1a10.9,10.9,0,0,0-.3-2.9h-0.6l-2,3.2,0.4,1.6h0.5C137.3,76.9,137.3,76.4,137.3,76.6ZM20.3,176.8h0.5l2.1-15.8H22.4Zm14.5-12.6c-0.2-2.1-.4-4.2-0.6-6.2a2.4,2.4,0,0,0-.4-0.7,3.8,3.8,0,0,0-.5.9c-0.3,1.2-.6,2.5-0.9,3.8a0.5,0.5,0,0,0,0,.4ZM96.2,32.6L97,40.5C98.8,37.8,98.3,33,96.2,32.6ZM33.2,134.8l-0.7.4a32.5,32.5,0,0,0-3.4,2.5,6.9,6.9,0,0,0-1.1,2.1,4.5,4.5,0,0,0,1.4-.7Zm-3,22.7-0.3-.5-1.9.8,0.5,0.7c1.4,2,2.4.8,3.3-.4a2.1,2.1,0,0,0,.1-1.2H31.3Zm97.7-73.1a14.3,14.3,0,0,0-1.8-2.2c-0.2-.2-0.9.3-1.7,0.6l-0.5-.2a7.5,7.5,0,0,0,.3,1.6,1.1,1.1,0,0,0,.9.4Zm-3.2,90.6c0,1.6,0,3,0,4.5a1.7,1.7,0,0,0,1.1.2,6.3,6.3,0,0,0,1.3-.6Zm-31-131c1.2-1.2,2.5-5.4.4-7.3ZM25.9,261.6l0.4,0.2,3.7-4a6,6,0,0,0-1.7-.5C27.5,258.7,26.7,260.1,25.9,261.6ZM133.6,83.1a7.7,7.7,0,0,0-1.3-2.3c-0.2-.2-1.2.5-1.8,0.8s1.2,1.6,1.8,2.3ZM28.8,176.7l-1.1.5-3.9,2.9a3.5,3.5,0,0,0-.6,1.4,0.6,0.6,0,0,0,.1.3l1-.7a11.2,11.2,0,0,0,1.5-1.1Zm64.3-5.1H92.3a25.5,25.5,0,0,0,.1,3.5c0,0.2,1,.4,1.5.5a0.6,0.6,0,0,0,.4-0.4Zm-65.3,2.1c-3.2,1-5.3,3.3-4.4,4.6ZM130.2,82.7H130l-0.6-1.1-1.4.8,2,1.8,0.4-1,0.7,0.8h0.2l-1.2-2.3-0.3.2Zm31.3,73.6-0.5-2c-0.5.7-1.3,1.4-1.3,2.1s0.8,1.5,1.2,2.2ZM144.8,70.7h-0.4a15.9,15.9,0,0,0-.9,3.2c0,0.5.7,1,1.1,1.5a1.1,1.1,0,0,0,.4-0.4C145,73.5,144.9,72.1,144.8,70.7ZM94.7,45.2l3.1-.8,0.8-.3-1.4-1.6H96.9ZM30.2,156.4l-0.6-2.2L27,156.8a1,1,0,0,0,.4.4Zm127.1,3.3c-1.5.7-1.7,2.7,0,4.5v-4.5ZM24,219.5c-1.8.4-3.1,3.2-2,4.5ZM112.7,86.2l0.4-.7-1.1-.9a7.9,7.9,0,0,0,0,.9,5.1,5.1,0,0,0,.3,1.5,1.7,1.7,0,0,0,.9.9,4.1,4.1,0,0,0,1.5-.2l-1-1Zm-5.8-2.7,0.9-.6a26.5,26.5,0,0,0-1.5-2.6l-1.1.5Zm5.5-.2,0.9-.3c-0.1-.6-0.2-1.3-0.3-1.9a0.6,0.6,0,0,0-.5-0.4l-1.6.5Zm21-4a3.1,3.1,0,0,0-1.1-.4,2.7,2.7,0,0,0-1.3.5,1.5,1.5,0,0,0-.2.8l-0.9-.4h-1a0.6,0.6,0,0,0,0,.4C129.8,81.1,132.6,80.5,133.3,79.4Zm9-6.7h0.9l0.6-4.6h-0.7ZM113.8,180.4h0.4c0-1.1,0-2.3,0-3.4l-1-.2a0.6,0.6,0,0,0-.4.4ZM32.7,149.9l-0.3-.4a23.4,23.4,0,0,0-2.7,1.9c-0.2.2,0.1,1,.2,1.6l1.5-1.7Zm-11.8,18H20.4l-0.9,5.6h0.7ZM20.5,221h0.3v-7.3H20.5V221Zm0.3-37.2h0.4l0.7-5.7-0.2-.2-0.4.2C21.1,180.1,20.9,182,20.7,183.9ZM152.1,71c0.5-2.2-.3-3.8-1.8-3.6ZM135.2,81.8l-1.1-2.1a4.9,4.9,0,0,0-1,.8,18.7,18.7,0,0,0,1.2,2.1ZM24.9,141.2H24.6l-1.3,6.7h0.6Zm85.7-58.4a12.2,12.2,0,0,0-1.3-1.7,2.6,2.6,0,0,0-1,.4l1.5,1.8Zm36.5-21.6,0.7-.4-2.1-3.3a1.2,1.2,0,0,0-.3.4ZM18.3,213.5h0.2l0.4-5.8H18.3v5.8ZM121.2,84.8l-0.6-.8a4,4,0,0,0-.5-0.9l-1.6.8a9,9,0,0,0,1.5,1A2.8,2.8,0,0,0,121.2,84.8Zm1.6-2.6-1,.9,1.2,1.7a1.8,1.8,0,0,0,.6-0.4C123.4,83.7,123.2,83.1,122.8,82.3ZM20.2,203.7h0.5c0.2-.9.4-1.8,0.6-2.6a0.9,0.9,0,0,0-.2-0.6,1.4,1.4,0,0,0-.8.2C20.3,201.7,20.2,202.7,20.2,203.7ZM75.6,65.6l-0.7.3,1.3,3.5,0.6-.2ZM91.7,179.2h0.4a19.2,19.2,0,0,0-.2-2.5,1.9,1.9,0,0,0-1-.5l-0.2.3Zm31.5-98.5a3.8,3.8,0,0,0,1.3.8l2.5-.5a1.5,1.5,0,0,0-.2-0.6,0.7,0.7,0,0,0-.6-0.1l-1.9.9V80.6ZM80.5,256.1l0.5,0.2,1.8-4.2-0.5-.2ZM26.3,185l1.6-2-0.3-.3-2.2,1.4ZM118.7,81.1l-1.4.8a1.3,1.3,0,0,0,.5.4l2.3-.6Zm13-5.3h-0.4a3.5,3.5,0,0,0,.2,1.2,5.3,5.3,0,0,0,1,1c0.5-1.3.5-1.3-.9-1.6V75.8Zm4.8,0.4-0.7-.3c-0.3.6-.7,1.2-1,1.8l0.7,0.5ZM98.2,39.1H97.6l0.2,3.2h0.8ZM19.3,201.5H19.1v5.6h0.3v-5.6ZM141.5,78.1h-0.3c0.2,0.8.3,1.5,0.5,2.3a0.7,0.7,0,0,0,.7.2,1,1,0,0,0,.5-0.6Zm3.2-2.6-0.3.5,1.3,1.4,0.5-1.5ZM22.8,178.6H22.3L22,183.1h0.4Zm8.2-25.4H30.4v3.1h0.2Zm65,26.2h0.3c0-.8,0-1.7,0-2.5H95.5ZM134.4,76.3L136,75l-0.4-.3-1.6,1Zm7.4-2.5-0.6-.2c-0.2.7-.4,1.3-0.6,2l0.6,0.3Zm-20.4,8.3,1.5-1-0.4-.3-1.7.7Zm-89,77.5-0.5-.4-1.2,1.4,0.6,0.4ZM138.3,71.5l-0.4-.3-1.3,2a0.4,0.4,0,0,0,.1.3h0.4ZM115.1,84.4l-0.4.2a19,19,0,0,0,.9,1.8,1.6,1.6,0,0,0,.8,0Zm22.1-.7-1.5.6,1.1,1.3ZM21.6,175.4h0.5l0.4-3.7H22.2ZM146,60.2l-0.2.2,1.5,2.3h0.4a0.4,0.4,0,0,0,.2-0.3ZM31.6,153.4H31.4c-0.1.8-.2,1.6-0.3,2.5a1.3,1.3,0,0,0,.3.5,1.3,1.3,0,0,0,.4-0.5C31.8,155,31.6,154.2,31.6,153.4Zm83.9-71.7-1,.5a1.6,1.6,0,0,0,.6.5,5.5,5.5,0,0,0,1.3-.4Zm15-3.5-0.7-1.3a1.5,1.5,0,0,0-.5.6,9.8,9.8,0,0,0,.7,1.4Zm6,4.9-1.2-.9a5.3,5.3,0,0,0-.6,1,0.8,0.8,0,0,0,.5.4A4.7,4.7,0,0,0,136.4,83.1ZM21.4,213l0.5,0.4,1.1-1.8H22.5Zm3.3,42.8,0.6,0.9,0.8-.7-1-.9Zm-0.6-98.1h0.7l0.2-1.8H24.3Zm94.5-72.6a2,2,0,0,0-.4.6,1.4,1.4,0,0,0,.6.8,1.8,1.8,0,0,0,.8-0.5Zm12.1-8.6-0.5.2,0.7,1.8,0.5-.4Zm11.5,5.5-0.5-.4-1.1.6,0.6,0.8Zm-8.7,4.1,0.4-.2a9,9,0,0,0-.6-1.3l-0.7.2Zm-15,.2-1.6-1.1-0.4.3,1,1Zm21.4-10.5-1.3,1.5,0.3,0.3,1.2-1.1A1.8,1.8,0,0,0,139.8,75.8Zm-10.3,2.9-0.9-1.2a0.9,0.9,0,0,0-.2.4l0.6,1.3Zm13.4,6,0.3-.2-0.8-1.4-0.5.5Zm-2.7-1.3a4.4,4.4,0,0,0-1.3-.4,2.2,2.2,0,0,0-.8.5l1,0.7ZM98.6,37.1l-0.5.2L99,39.5h0.3ZM121.1,83l-0.4.2,0.9,1.8,0.5-.3Zm-6.7,3.3,0.4-.2-0.8-1.5h-0.6Zm-86.1,161-0.9.9-1,1.4,0.2,0.2,1-1.2ZM141.9,74.5h0.5a13.4,13.4,0,0,0,0-1.5,1.1,1.1,0,0,0-.5-0.3v1.8ZM46.2,67h0.3l0.8-2.7H46.9Zm114.7,96.2,0.4,0.2,1.1-1.5-0.4-.3ZM29.2,150.3l-0.4-.3-1.1,1.5,0.3,0.3ZM136.7,80.8l0.4-.2-0.6-1.3-0.6.3ZM122.5,43.8h-0.3l0.8,2,0.5-.2ZM125,86l0.9-.5a2.8,2.8,0,0,0-.9-0.3,1.9,1.9,0,0,0-.7.3Zm22-8.7h0.5l0.4-1.3h-0.6A10.6,10.6,0,0,0,147,77.3ZM21.4,195.5H21.2v2.4h0.2v-2.4ZM88.1,120v0.4l2.3,0.2v-0.4Zm23-33.8,0.4-.3-0.9-1.2-0.4.2ZM25.8,135.4h0.4l0.4-2.5H26.4Zm-5.7,75.3h0.4c0-.7,0-1.5,0-2.2l-0.3-.2ZM94,32.5H92.6a2.8,2.8,0,0,0,.7.7,0.9,0.9,0,0,0,.7-0.2A1,1,0,0,0,94,32.5ZM28,137H27.7l-0.5,2.7h0.3Zm94.2-52.3-0.8.9,0.9,0.4,0.4-.3Zm17.7-2.1-0.4.3,0.6,1.1,0.4-.4ZM23.5,255.8h0.4c-0.1-.4-0.2-0.9-0.4-1.3H23.2Zm93.1-171,0.6-.4a1.2,1.2,0,0,0-.5-0.4l-0.8.5ZM19.8,206l0.3,0.3,0.9-1-0.4-.3ZM128.5,80.7l-0.6-.7-0.4.4a3.8,3.8,0,0,0,.5.7ZM96.9,174.3H96.5l0.4,1.5h0.3Zm49.6-99.6h-0.3l0.5,1.5h0.2ZM114.2,174.8l0.6,0.7,0.6-.4a1.4,1.4,0,0,0-.5-0.5A1.7,1.7,0,0,0,114.2,174.8Zm-94,71.4H19.9l-0.6,1.5h0.3ZM120.3,86.6a1.9,1.9,0,0,0,.4-0.7,1,1,0,0,0-.5-0.4l-0.3.3A4.4,4.4,0,0,0,120.3,86.6Zm-2-1.5,0.3-.3-0.8-.8a0.9,0.9,0,0,0-.1.4ZM25,155.7l0.4-.2-0.8-1.4H24.4Zm133.2,1.2h0.4l0.3-1.1-0.3-.2ZM40.5,256.4h-1l0.3,1ZM84,173.6H83.7v1h0.4Zm43.9-90.3-0.3.2,0.7,0.8,0.3-.2Zm-19.5-.1h0.3l-0.6-1.3-0.3.2ZM94.1,31.5l-0.4-.3-0.5.5a1.2,1.2,0,0,0,.2.4Zm43.6,53.1-0.2.4,0.9,0.4,0.2-.4Zm-22.2-1.2v0.3h1.3V83.4h-1.3ZM111.3,80v0.3h1.3V80h-1.3ZM19.1,193.8h0.3l0.2-1.8H19.4Zm5.5,63.5-0.3-.2-0.5.8,0.3,0.2ZM123.9,85.6l-0.6-.3-0.3.3,0.4,0.4ZM81.2,173.7H80.9v0.8h0.4v-0.8ZM142.5,52.4l-0.2.2,0.8,0.8,0.2-.2ZM18.9,196.4h0.2v-1.6H19Zm6.7-59.6h0.3l0.2-.8-0.3-.2ZM143,81.1l-0.3-.2-0.5.6,0.2,0.2ZM33,156.7l-0.3-.2-0.3.7h0.3ZM147.2,77.9l-0.7-.7-0.4.7,0.3,0.2Zm-13.6.5-0.4-.2-0.5.4,0.3,0.2Z" transform="translate(-16.4 -16.1)"/><path d="M76.3,53.5C73.3,40.8,64,33.5,52.6,28l0.5-.5,2.5,1.4c2.6,1.5,5.6,2.7,7.8,4.7s7.2,4.8,8.8,9.1a53,53,0,0,0,3.2,6.6c0.7,1.2,1.7,2.3,2.4,3.5a5.8,5.8,0,0,1,.4,1.7,3.9,3.9,0,0,1-1.7.1c-2.6-1.1-4.8-2.7-6.1-5.4a48.2,48.2,0,0,0-4.1-7.9c-1.4-2-3.6-3.4-5.5-5.1a2.2,2.2,0,0,1-.3-0.5h0.6a49.2,49.2,0,0,1,5.3,4.8c1.1,1.3,1.5,3.2,2.5,4.7A62.4,62.4,0,0,0,73.6,52c0.8,1,2.3,1.5,3.4,2.1a1.5,1.5,0,0,0,.8-0.1,2.9,2.9,0,0,0-.4-0.7A3,3,0,0,0,76.3,53.5Z" transform="translate(-16.4 -16.1)"/><path d="M35.2,272l-1.7.7a6.8,6.8,0,0,1-.8-2.5,10.1,10.1,0,0,1,1.2-2.7,2.8,2.8,0,0,0,.1-0.7l-0.6.2-2.8,2a3,3,0,0,1-1,.2,2.1,2.1,0,0,1-.1-0.9l2.8-6a1.2,1.2,0,0,1,.5-0.3,1.4,1.4,0,0,1,0,.5l-2.5,5.1a1.8,1.8,0,0,0,0,.7l0.7-.3,3.4-2a0.6,0.6,0,0,1,.6.2,1.4,1.4,0,0,1-.1.7l-1.5,4.5Z" transform="translate(-16.4 -16.1)"/><path d="M39.6,113.4l2.2-2.2-0.4-.5-4.2,2.7L33.3,116a1.6,1.6,0,0,1-.8-0.1,2.4,2.4,0,0,1,.3-0.7,14.1,14.1,0,0,1,3.2-2.8l-2.7,3,6.8-4.3,2.3-1.3h0.5a0.5,0.5,0,0,1,0,.5l-3.2,3.1H39.6Z" transform="translate(-16.4 -16.1)"/><path d="M34.7,120.7l-1.6,2,2.5-.9-3.5,2.4a1.8,1.8,0,0,1-.9-0.2,1.6,1.6,0,0,1,.2-0.8Z" transform="translate(-16.4 -16.1)"/><path d="M38.2,274.4a4.7,4.7,0,0,1-1.2.3c-0.6,0-1.5,0-1.7-.4a2.7,2.7,0,0,1,.3-1.8,13.3,13.3,0,0,1,1-1.8,7.1,7.1,0,0,1-.2,1.8c-0.5,1.4-.5,2.1,1.3,1.7Z" transform="translate(-16.4 -16.1)"/><path d="M33.3,277.2l6.6,3.4-0.2.4-6.7-3.4Z" transform="translate(-16.4 -16.1)"/><path d="M33.4,128.2a4.8,4.8,0,0,0,1.2-.7l2-2.3h0.6a1.8,1.8,0,0,1-.2.5L34.2,129Z" transform="translate(-16.4 -16.1)"/><path d="M38.8,108.5l2.4-1.4h0.4a0.9,0.9,0,0,1,0,.4,15.6,15.6,0,0,1-3,2.1l2.1-1.8-1.9.8H38.8Z" transform="translate(-16.4 -16.1)"/><path d="M39.7,105.9l-2.8,2.2-0.2-.3,3-1.9h0Z" transform="translate(-16.4 -16.1)"/><path d="M37.8,118.4L35,120.7l-0.2-.3,3-2h0Z" transform="translate(-16.4 -16.1)"/><path d="M143.8,50.9l-1.6-1.3a0.6,0.6,0,0,1,.1-0.4,0.8,0.8,0,0,1,.6.2l0.9,1.6h0Z" transform="translate(-16.4 -16.1)"/><path d="M54.2,89.6l-1-1.3,0.2-.2,1,1.3Z" transform="translate(-16.4 -16.1)"/><path d="M143.8,50.9l1.2,2.1h0l-1.3-2.1h0Z" transform="translate(-16.4 -16.1)"/><path d="M36,111.8l1.1-.9,0.2,0.2-1.1.9Z" transform="translate(-16.4 -16.1)"/><path d="M41.4,277.2l-1.2-.3v-0.3l1.2,0.4v0.2Z" transform="translate(-16.4 -16.1)"/><path d="M36.4,108.5l-1.2,1H35.1l1.2-1.1Z" transform="translate(-16.4 -16.1)"/><path d="M36.2,116.1l-1,.8H35.1l1-.8h0.1Z" transform="translate(-16.4 -16.1)"/><path d="M142.8,110.9a12.7,12.7,0,0,1,1.8-1,43.3,43.3,0,0,1,7.1-2l-0.8.5-5,1.7-3.2.7h0Z" transform="translate(-16.4 -16.1)"/><path d="M41.9,234.5l-8.8-1.2a0.9,0.9,0,0,1-.6-0.7,1.2,1.2,0,0,1,.7-0.8c2.9-.8,5.9-1.3,8.6-2.5s8.1-4.3,12.2-6.2c1.4-.7,3-0.7,4.6-1a5.7,5.7,0,0,1-.3,2.3,18,18,0,0,1-8.9,7.3Zm16-10.9a3.4,3.4,0,0,0-1.4-.6c-1.4.8-2.7,1.7-4,2.5a63.6,63.6,0,0,1-7,3.4c-3.2,1.2-6.5,2.1-9.8,3.2a3.9,3.9,0,0,0-.9.6,2.8,2.8,0,0,0,.9.3,51.4,51.4,0,0,0,7.8-.6,34.3,34.3,0,0,0,7.6-2.7,19.7,19.7,0,0,0,4.1-3.3C56.1,225.6,56.8,224.7,57.9,223.6Z" transform="translate(-16.4 -16.1)"/><path d="M57.1,248.1a22.6,22.6,0,0,1-3.8-1.3c-3.7-2-7.1-4.4-10.9-6.1s-7-2.1-10.5-3.2a0.8,0.8,0,0,1-.2-1.5c2.6-1.9,5.6-1.2,8.2-.7s6.9,2.5,10.3,3.9a18.1,18.1,0,0,1,8.1,7,2.2,2.2,0,0,1,.1,1,1.7,1.7,0,0,1-.8-0.3c-3.2-5.4-8.7-7.3-13.9-9.7a10.2,10.2,0,0,0-2-.2c-0.4-.1-0.6-0.5-1-0.6l-1.5-.2-5.4.2a5.9,5.9,0,0,0-1.2.8C42.5,237.9,49.3,244.1,57.1,248.1Z" transform="translate(-16.4 -16.1)"/><path d="M99.5,168.6c-2.2-.4-4.4-0.8-6.7-1-3.9-.3-6.4-2.7-9.1-5.2s-4.1-7.5-5.1-11.7a14.2,14.2,0,0,1,1.8-10.8,20.6,20.6,0,0,1,10.1-9,38.6,38.6,0,0,1,14.8-2.9,1.4,1.4,0,0,1,.7.4,1,1,0,0,1-.1.4l-0.6-.2a16.4,16.4,0,0,0-3.3.3c-4.1,1.1-8.2,2-12.2,3.5a12.6,12.6,0,0,0-5.6,3.9,32.6,32.6,0,0,0-4.6,9c-1.2,3.7.2,7.3,1.3,10.9s5.1,8,9.4,10.1c2.1,1,4.7.9,7.1,1.3l2.1,0.7v0.3Z" transform="translate(-16.4 -16.1)"/><path d="M120.7,168.7l6.2-1.8c3.9-1.3,8-2.2,11.5-4.3s5.7-4.7,8.2-7.4,3-8.2.5-12.3-7.8-8.4-13.3-10.6a5.8,5.8,0,0,1-1.1-.8,4.7,4.7,0,0,1,1.2.2c5.6,2.4,10.6,5.6,13.9,10.9s2.5,10.6-1.4,14.1a81.7,81.7,0,0,1-11.4,8.7c-2.1,1.3-5.1,1.3-7.6,2l-6.6,1.8v-0.5Z" transform="translate(-16.4 -16.1)"/><path d="M32,202.9l-2.1,2.3a1.2,1.2,0,0,0,0,.8c0.2,1.2.9,2.5,0.6,3.5a2.8,2.8,0,0,1-3.5,2.3c-3.4-.7-3.6-1.4-2.8-5.1s0.7-5.2,1.1-7.8a1.3,1.3,0,0,1,1-.7c0.8,0,1.6.4,2.4,0.5S32,200.4,32,202.9Zm-6.2,2.5a9.3,9.3,0,0,0,1.8-.5,11.1,11.1,0,0,0,3.3-1.9c0.3-.4,0-2-0.5-2.5a6.8,6.8,0,0,0-3-1.2,1.4,1.4,0,0,0-1.1.8c-0.5,2.6-.9,5.2-1.1,7.9a3.3,3.3,0,0,0,1,2.6,2,2,0,0,0,3.3-.9c0.3-.9.5-2.3,0-2.8S27.2,206,25.8,205.4Z" transform="translate(-16.4 -16.1)"/><path d="M145.7,200.8c0.7,0.7,1.9,1.3,1.8,1.9a6.8,6.8,0,0,1-1.5,3.6c-0.8.8-1.4,1-.2,2a11,11,0,0,1,1.9,3.3,0.8,0.8,0,0,1-.3.7,0.9,0.9,0,0,1-.7-0.3l-3.3-4.3a1.1,1.1,0,0,0-.8.3c-0.6,2-1.1,4-1.6,6.1a2.9,2.9,0,0,1-.6.8,2.1,2.1,0,0,1-.4-0.9c0.8-3.8,1.6-7.7,2.7-11.4C142.8,201.8,144.4,201.5,145.7,200.8Zm-3.3,4.4a9.5,9.5,0,0,0,1.4,1.3,9,9,0,0,0,2.3-2,3,3,0,0,0,.1-2,1.4,1.4,0,0,0-1.1-.4C144.3,202.9,143.6,203.8,142.4,205.1Z" transform="translate(-16.4 -16.1)"/><path d="M40.1,204.6l-2.4,2.6a1.3,1.3,0,0,0-.4.9c0.7,1.8,1.5,3.5,2.3,5.3a1.9,1.9,0,0,1-.1.9,2.1,2.1,0,0,1-1-.5c-0.7-1.6-1.1-3.3-1.9-4.8a7.2,7.2,0,0,0-1.9-1.7,19.2,19.2,0,0,0-.8,2.1c-0.2,1-.3,2-0.5,2.9a1.6,1.6,0,0,1-.6.5,1.5,1.5,0,0,1-.3-0.7q1.1-5.2,2.3-10.3a0.7,0.7,0,0,1,.5-0.4c1.8-.2,3.9-1.3,4.3,1.7,0.1,0.4.1,0.7,0.1,1.1Zm-0.8-.2c-0.9-1.2-1.5-2.6-1.8-2.5-2.1.6-2.5,2.4-2.7,4.3a2.8,2.8,0,0,0,1.7.3A18.9,18.9,0,0,0,39.3,204.5Z" transform="translate(-16.4 -16.1)"/><path d="M59.1,258.5c-0.6-.2-1.5-0.2-1.7-0.5a3.7,3.7,0,0,1-.3-2.3c0.2-.9.8-1.9-1-1.4a0.8,0.8,0,0,1-.6-0.3,0.8,0.8,0,0,1,.2-0.5c2.7,0.2,2.4-2.4,3.5-3.7a4,4,0,0,1,1-.6l-0.3.8-1.3,2.7a1.2,1.2,0,0,0,.6.4l2.6,0.5,0.7-.6c0,0.5.1,0.9,0.1,1.4s-0.1,2.2-.1,3.3l0.2,0.2a1.9,1.9,0,0,0,.8-0.5l1.7-3.3a2.7,2.7,0,0,1,.6-0.6,2.1,2.1,0,0,1,.3.9c-0.2,1-.7,2.1-0.9,3.1s-0.5,2.3,1.4,2l0.3,0.2a0.9,0.9,0,0,1-.3.5c-1.5.7-2-.3-2.5-1.3a0.6,0.6,0,0,0-.4-0.4c-2.2.4-2.6-.1-2.4-2.5a2.1,2.1,0,0,0-.8-1.7c-0.7-.1-2,0-2.2.4s-1.7,2.4.3,3.2l0.5,0.3v0.4Z" transform="translate(-16.4 -16.1)"/><path d="M84.4,207.4c-0.8,1.2-1.9,2.2-2.1,3.3s-0.7,5.1-1,7.6a0.8,0.8,0,0,1-.7.4,0.7,0.7,0,0,1-.4-0.5,67.5,67.5,0,0,1,1.5-9.2c0.3-.9,2.2-1.6,3.5-1.8a3,3,0,0,1,2.3,1.9c0.2,0.9-.5,2.1-0.8,3.2l-0.4.3c-2.1.3-.9,1.1-0.3,1.9a41,41,0,0,1,2.1,3.8,0.5,0.5,0,0,1-.2.4,1.6,1.6,0,0,1-1-.2c-0.8-1.4-1.3-2.8-2.1-4.1a5.7,5.7,0,0,0-1.5-1.1l-0.7-.7,1-.3c1-.3,2.2-0.5,2.9-1.2s0-1.7-.2-2.6S85.4,208,84.4,207.4Z" transform="translate(-16.4 -16.1)"/><path d="M53.7,215.6c1-2,1.8-3.6,2.7-5.1a4.8,4.8,0,0,1,1.3-1.1,6.1,6.1,0,0,0,0,1l0.8,4.1c0.8-1.8,1.5-3.3,2.2-4.8s1.6-3,2.4-4.4l0.5-.2a1.3,1.3,0,0,1,.2.7c-0.6,1-1.4,2-1.9,3.1s-1.8,4.3-2.7,6.3a3,3,0,0,1-1.2.8,3,3,0,0,1-.5-0.9c-0.1-1.1-.2-2.3-0.4-4.1-1.1,1.9-1.9,3.3-2.7,4.6a5.1,5.1,0,0,1-1.5,1,5.9,5.9,0,0,1-.4-1.5c0-3,.1-6.1.2-9.1a2,2,0,0,1,.3-0.7,1.8,1.8,0,0,1,.4.7c0,2.7-.1,5.5-0.2,8.2A9.1,9.1,0,0,0,53.7,215.6Z" transform="translate(-16.4 -16.1)"/><path d="M126.7,229.2c0.9,0.7,2,1.2,2.2,1.9a2.6,2.6,0,0,1-1.1,2.3,52.5,52.5,0,0,1-7.8,3.3c-1.3.4-2.8,0-4.2-.2a3.8,3.8,0,0,1-1.2-.7,4.5,4.5,0,0,1,1.1-1.5l6.7-3.3Zm-11,6,0.3,1c1.9-.4,3.9-0.7,5.8-1.2a18.1,18.1,0,0,0,3.7-1.5,16.2,16.2,0,0,0,2.5-1.8,0.7,0.7,0,0,0-.1-0.6c-0.9-.2-1.9-0.7-2.7-0.4a58.1,58.1,0,0,0-5.7,2.7Z" transform="translate(-16.4 -16.1)"/><path d="M57.2,232.7a9.6,9.6,0,0,1-2.2.5,9.9,9.9,0,0,1-2-.5c0.3-.9.4-2.2,1-2.5,2.5-1.3,5.1-2.4,7.7-3.4a1.1,1.1,0,0,1,.8.6,4.7,4.7,0,0,1-2.4,4.6l-3.7,2.5a1.7,1.7,0,0,1-.9.2,0.6,0.6,0,0,1-.3-0.3l0.7-.6Zm-2.3-.5c2.4-.7,5.1-0.9,6.5-3.4a1.1,1.1,0,0,0,.2-0.8,1,1,0,0,0-.9-0.3l-6.2,3.4a0.9,0.9,0,0,0-.2.8A1.3,1.3,0,0,0,54.8,232.3Z" transform="translate(-16.4 -16.1)"/><path d="M83.4,227.7a4.9,4.9,0,0,1,1.3.9c-0.2.7-.4,1.8-1,2.1-2.6,1.4-5.2,2.7-7.9,3.8a6.6,6.6,0,0,1-2.7.1,1.7,1.7,0,0,1-.5-0.7,1.4,1.4,0,0,1,.6-0.3,13.1,13.1,0,0,0,9.8-3.4,4,4,0,0,0,.7-1.2,3.5,3.5,0,0,0-1.3,0l-10.4,4.6H71.3a1.7,1.7,0,0,1,.2-0.8l4.6-2.1Z" transform="translate(-16.4 -16.1)"/><path d="M86,235.9a16.9,16.9,0,0,1-2.9.5,5.3,5.3,0,0,1-1.8-.7,4,4,0,0,1,.9-1.2l8.9-5.3a2.7,2.7,0,0,1,1.8-.4c2.7,0.7.8,1.8,0.1,2.7s-3.6,4.2-6.6,4.6H86.1v-0.2Zm-1.7-.6a11.3,11.3,0,0,0,7.7-3.7,12.7,12.7,0,0,0,1.2-2l-2,.3-0.3.2-7.1,4.5a5.1,5.1,0,0,0-.9.9h1.5Z" transform="translate(-16.4 -16.1)"/><path d="M116.4,230.5c0,3.6-2.5,4.1-4.3,5.2a21.6,21.6,0,0,1-4.4,2,2.1,2.1,0,0,1-1.9-.7,2.5,2.5,0,0,1,.6-2.1,53.1,53.1,0,0,1,5-3.8,6.6,6.6,0,0,1,2.8-1.3A5,5,0,0,1,116.4,230.5Zm-9.1,6.3,1.3-.5c2.2-1.3,4.5-2.7,6.6-4.1a2.2,2.2,0,0,0,0-1.5,1.5,1.5,0,0,0-1-.1,5.8,5.8,0,0,0-1.7.8l-5.5,4.2a1,1,0,0,0-.4.7A1.6,1.6,0,0,0,107.3,236.8Z" transform="translate(-16.4 -16.1)"/><path d="M42.3,209.2c0.2-3.3,2.1-6,4.3-5.8a4.7,4.7,0,0,1,4.3,4.5c-0.2,4-2.6,6.5-6,6.3C43.4,214,42.1,211.6,42.3,209.2ZM50,207a10.1,10.1,0,0,0-1.7-2,6.1,6.1,0,0,0-2.3-.6H45.3a6.5,6.5,0,0,0-1.6,7.6,2.2,2.2,0,0,0,3.3.9C49.1,212,49.6,209.9,50,207Z" transform="translate(-16.4 -16.1)"/><path d="M77.3,236.9c3.8-.6,5.4,1.2,6.8,3.4a13.3,13.3,0,0,1,1.9,3.5c0.2,0.8-.2,2.6-0.7,2.7a4.9,4.9,0,0,1-3.5-.4,11.4,11.4,0,0,1-5-7.8A2.4,2.4,0,0,1,77.3,236.9Zm8,7.6c0.1-2-3.3-6.4-5.3-6.6-0.4,0-2.8-1.8-2.2.9a11.7,11.7,0,0,0,5,7A1.5,1.5,0,0,0,85.3,244.5Z" transform="translate(-16.4 -16.1)"/><path d="M65.7,234.4l-3.6-1.7a1.3,1.3,0,0,1-.2-1l9.7-4.7a1.2,1.2,0,0,1,1.1.5,1.5,1.5,0,0,1,0,1.3,12.5,12.5,0,0,1-6.5,5.1H66Zm-1.6-3.2,1,0.6-0.7.6-0.4.4,0.4,0.2c2.7,0.1,6.6-2.5,7.7-5.7Z" transform="translate(-16.4 -16.1)"/><path d="M89.4,237.2c-1.9,3.2,1.1,3.9,2.1,5.4a18.8,18.8,0,0,0,2.6,3.2,7.2,7.2,0,0,0,2.4,1,11.7,11.7,0,0,0-.6-2.8,9,9,0,0,0-6.6-5,0.9,0.9,0,0,1-.3-0.4,1.4,1.4,0,0,1,.6-0.4c1.6,0.7,3.4,1.2,4.5,2.3s2.4,3.6,3.5,5.5a1.1,1.1,0,0,1-.2,1,2.2,2.2,0,0,1-1.6.4,33.9,33.9,0,0,1-3.5-3c-1.5-1.5-3-2.9-4.5-4.5s-0.9-1.5-.7-1.7A7,7,0,0,1,89.4,237.2Z" transform="translate(-16.4 -16.1)"/><path d="M154.5,204.5c0-1.1,0-2.1,0-3.2a2.6,2.6,0,0,1,.5-0.9,2.3,2.3,0,0,1,.7.9c-0.2,2.4-.4,4.7-0.8,7.1s-1.5,3-3.3,2.2a4.1,4.1,0,0,1-1.9-3,25.5,25.5,0,0,1,.6-5.7,2.5,2.5,0,0,1,.8-0.9,5,5,0,0,1,.2,1.2c-0.1,2.1-.4,4.2-0.4,6.3a2.1,2.1,0,0,0,1.4,1.3,1.8,1.8,0,0,0,1.2-1.1c0.5-1.4.7-2.9,1-4.3h-0.2Z" transform="translate(-16.4 -16.1)"/><path d="M139.5,229.7l1.4,0.7c-0.4,1.2-.6,2.9-1.5,3.5a23.1,23.1,0,0,1-6.6,2.9c-0.8.2-2-1-3.1-1.6a1.1,1.1,0,0,1,.3-0.6l7.8-4.4A7.2,7.2,0,0,1,139.5,229.7Zm-7.8,5.7,1.5-.2c2.2-.8,4.3-1.5,6.4-2.4,0.4-.2.4-1.3,0.6-2a3.5,3.5,0,0,0-1.6-.1l-7.2,3.9a2.2,2.2,0,0,0-.5.5Z" transform="translate(-16.4 -16.1)"/><path d="M106.8,137c-2.2,1-4.6,1.6-6.3,2.9a24.4,24.4,0,0,0-5,5.7c-2.2,3.3-3.1,7-1.1,10.6,0.8,1.5,2.8,2.6,4.5,3.3a22.9,22.9,0,0,0,5.3.9,8.7,8.7,0,0,1-7.2-1.2c-4.6-3.1-5.3-5.1-3.4-11a17.2,17.2,0,0,1,10-10.8A11.9,11.9,0,0,1,106.8,137Z" transform="translate(-16.4 -16.1)"/><path d="M61.4,243.1c-2.9.3-4.2-1.8-5.4-3.9a10.4,10.4,0,0,1-.7-2.9,20.2,20.2,0,0,1,3.8-.7,5.1,5.1,0,0,1,3,.9,15.1,15.1,0,0,1,3.5,3.8c0.2,0.4-.9,1.9-1.7,2.4S62.3,242.9,61.4,243.1Zm-3.6-7.3c-0.6.7-1.8,1.7-1.7,2.2a5.7,5.7,0,0,0,7.2,3.9c1.1-.3,2.4-1,1.2-2.5A7.9,7.9,0,0,0,57.8,235.7Z" transform="translate(-16.4 -16.1)"/><path d="M107.7,240.4c0.2-2.8,2-1.9,2.8-1.5a40.5,40.5,0,0,1,6.9,4.3c0.5,0.4,0,2.1,0,3.2s-2.5.1-3.4-.5a48.3,48.3,0,0,1-5.4-4.2A4.6,4.6,0,0,1,107.7,240.4Zm2.5-1.2-1.6.9,0.9,0.9c1.8,1.5,3.5,3,5.4,4.4s1.3,0,2,0,0.2-1.6-.1-1.8C114.7,242.1,112.4,240.7,110.2,239.2Z" transform="translate(-16.4 -16.1)"/><path d="M158.2,204.9c-0.2,1.4-.3,2.8-0.5,4.2a2.1,2.1,0,0,1-.5.7,2,2,0,0,1-.5-0.8,66.2,66.2,0,0,1,1-8.8,4,4,0,0,1,2.9-2.3,2.4,2.4,0,0,1,2.8,2.4C163.5,203.5,161,205.9,158.2,204.9Zm-0.5-1.2,0.7,0.4a8.1,8.1,0,0,0,2.4-.4c1.5-.8,1.9-2.2,1.5-3.8a1.2,1.2,0,0,0-.5-0.8,2.5,2.5,0,0,0-1.5-.2C159.3,200.4,158.5,202.1,157.7,203.7Z" transform="translate(-16.4 -16.1)"/><path d="M96.5,214.3c0-3.8,2.2-6.3,5.3-5.8,0.7,0.1,1.2,1.5,1.8,2.3l-0.3.3-0.5-.2c-0.8-.4-1.8-1.3-2.5-1.1s-2.7,1.3-2.6,2.9,0.4,3.2,1.2,3.8,3.7,0.6,5-1.2a2.1,2.1,0,0,1,.9-0.4,1.9,1.9,0,0,1,.1.9c-0.6,1.4-3.6,2.6-5.3,2.2S96.5,216.2,96.5,214.3Z" transform="translate(-16.4 -16.1)"/><path d="M102.9,229.4c0.9,0.8,1.6,1.1,1.6,1.4a4.5,4.5,0,0,1-.6,2.2c-2,3.1-5.1,4.4-8.7,4.7H93.3a1.1,1.1,0,0,1-.2-0.8Zm-8.6,7.9a2.5,2.5,0,0,1,.9-0.5c2.9,0.3,7.1-2.1,8.2-4.8a4,4,0,0,0,.1-0.9,2.1,2.1,0,0,0-1,0l-8.2,5.7A0.8,0.8,0,0,0,94.4,237.4Z" transform="translate(-16.4 -16.1)"/><path d="M129.4,206.3a6.4,6.4,0,0,0-.1-0.9c-1.1,0-2.6-.4-3.3.2s-1.1,3.3,1.4,4.2c0.9,0.3,2.1,1,2.2,1.7a4.4,4.4,0,0,1-1.3,2.7c-0.9,1.1-1.8,2.6-3.6,2a2.9,2.9,0,0,1-1.4-.7,2.6,2.6,0,0,1,0-1.3,2.7,2.7,0,0,1,.8.4c0.9,1.1,1.8,1.1,2.7,0,2.6-2.9,2.5-2.9-.9-4.7-0.8-.4-1.9-1.6-1.8-1.9a7.7,7.7,0,0,1,2.4-3.6c0.8-.5,2.3,0,3.5.2a0.7,0.7,0,0,1,.4.5Z" transform="translate(-16.4 -16.1)"/><path d="M104.7,248.6l-1.5-1.7-4.9-6.3A1.4,1.4,0,0,1,98,240a0.6,0.6,0,0,1,.3-0.4l0.5,0.4c1.7,2.3,3.4,4.7,5.2,7a1.8,1.8,0,0,0,1.7.3,1.7,1.7,0,0,0,.6-1.4c-0.4-2.8-3.6-5.7-6.4-5.9l-0.5-.3a1.3,1.3,0,0,1,.5-0.5,7.4,7.4,0,0,1,2.9.7c2.1,1.5,4.2,3.2,4.5,6S106.6,248.3,104.7,248.6Z" transform="translate(-16.4 -16.1)"/><path d="M46.3,253.5l2.9-4.8a21.9,21.9,0,0,1,1.5-2h0.6a1.3,1.3,0,0,1,0,.6l-4.6,8.2a1.1,1.1,0,0,1-.7.4,2.2,2.2,0,0,1-.7-1.1c-0.2-1.8-.2-3.5-0.4-5.3a3,3,0,0,0-.5-1,3.8,3.8,0,0,0-.6.9l-1.8,5.3a1.2,1.2,0,0,1-.5.3,1.3,1.3,0,0,1-.2-0.6l2.6-6.9a0.8,0.8,0,0,1,.5-0.3,4.5,4.5,0,0,1,1.3,1.6C45.9,250.1,46.1,251.7,46.3,253.5Z" transform="translate(-16.4 -16.1)"/><path d="M114.6,208.3l-5.6.8a0.7,0.7,0,0,0-.4.6c-0.1,2.4-.2,4.8-0.2,7.2a1.1,1.1,0,0,0,.8.7l3.1-.7a2.6,2.6,0,0,1,.9.2,2.3,2.3,0,0,1-.7.8,34.3,34.3,0,0,1-4.4.8,2.2,2.2,0,0,1-.7-1.5c0.1-2.2.8-4.6,0.3-6.6s1.2-2.5,2.6-2.9a10,10,0,0,1,3.1-.2A3.6,3.6,0,0,1,114.6,208.3Z" transform="translate(-16.4 -16.1)"/><path d="M117.4,159.4c2.2-.9,4.6-1.5,6.4-2.8a32,32,0,0,0,6.2-6.6c2-2.8.9-8.3-1.8-10.3-0.8-.6-2.1-0.5-3-1.1,1.1,0.2,2.4,0,3.2.6,4.1,3.1,4.3,10.6.3,14a56.8,56.8,0,0,1-5.6,4.7,18.6,18.6,0,0,1-4.7,1.7A2,2,0,0,1,117.4,159.4Z" transform="translate(-16.4 -16.1)"/><path d="M75,243.2c-1,1-1.7,2.1-2.4,2.1s-1.7-.9-2.1-1.7-0.6-2.7-1.3-3.8a19.9,19.9,0,0,0-2.9-3.1l-0.3-.5a1.6,1.6,0,0,1,.7-0.4c1.7,0.7,3.6,1,4.9,2.2S73.9,241.3,75,243.2Zm-5.5-5.6c0.5,1.7,1,3.7,1.7,5.5a5.6,5.6,0,0,0,1.3,1.5c0.3-.7,1-1.5.9-2C72.8,240.3,71.7,238.3,69.5,237.6Z" transform="translate(-16.4 -16.1)"/><path d="M48.3,158.9c-3.8-1.8-4.7-5.5-5.6-9s5.7-13.7,10.6-15.2a6.4,6.4,0,0,1,1.5-.2,39.5,39.5,0,0,0-3.4,2.5,46.5,46.5,0,0,0-5.6,5.4c-2.1,2.7-3.2,5.8-1.8,9.2s2.3,4.5,3.5,6.7A2.6,2.6,0,0,0,48.3,158.9Z" transform="translate(-16.4 -16.1)"/><path d="M142.9,235.1a31,31,0,0,1,3.6-3.9,27.1,27.1,0,0,1,5.2-2.9c0.4-.2,1.2.4,1.9,0.6a3.7,3.7,0,0,1-.6,1.3,35.6,35.6,0,0,1-4.4,3.7,16.4,16.4,0,0,1-3.6,1.2,3.4,3.4,0,0,0-.8.6l-0.3.3Zm2.4-1.8,0.4,0.6a5.3,5.3,0,0,0,2.1-.4c1.6-1.1,3.1-2.5,4.6-3.7a1.7,1.7,0,0,0,.3-0.7,1.4,1.4,0,0,0-.7-0.1Z" transform="translate(-16.4 -16.1)"/><path d="M65.6,208.9l-1.4,6.3-0.4,1.7a6.5,6.5,0,0,1-.7-1.1,1.8,1.8,0,0,1,.2-0.7l2-8a0.8,0.8,0,0,1,.4-0.5,1.1,1.1,0,0,1,.6.5l2.3,7.7c0.2,0.7.6,1.4,0.8,2.2a2.9,2.9,0,0,1-.1,1,2.7,2.7,0,0,1-.8-0.8c-0.5-1.4-1-2.8-1.5-4.2s-0.8-2.6-1.2-3.9H65.6Z" transform="translate(-16.4 -16.1)"/><path d="M133.5,214.8c0.4-1.8,1.1-3.5,1-5.2s-1.1-2.9-1.7-4.3l-0.4-1,0.4-.2a2.8,2.8,0,0,1,.8.7l1.6,2.5h0.5l2.6-4.3a1.7,1.7,0,0,1,.7-0.6,1.2,1.2,0,0,1,.6.2l-0.5.8c-2.1,3.4-4.3,6.8-4.4,10.9a2.5,2.5,0,0,1-.6,1Z" transform="translate(-16.4 -16.1)"/><path d="M141.8,236.4c2.9-.2,4.5,1.8,6.3,3.5a2.1,2.1,0,0,1,0,2c-1,.6-2.4,1.4-3.2,1a42.2,42.2,0,0,1-6.1-3.7,1,1,0,0,1,0-.8,1.3,1.3,0,0,1,.5-0.4,2.9,2.9,0,0,0,.3.7,7.7,7.7,0,0,0,1.5,1.6,11.4,11.4,0,0,0,3.3,1.7c0.8,0.2,1.8-.3,2.7-0.5a7.6,7.6,0,0,0-1.1-2.4c-1.6-1.6-3.4-2.6-5.7-1.4a1.4,1.4,0,0,1-.6-0.3,1.3,1.3,0,0,1,.3-0.5Z" transform="translate(-16.4 -16.1)"/><path d="M136.6,242.4c-1.4-1.2-2.7-2.5-4.2-3.5a9.4,9.4,0,0,0-2.7-.8l-0.4-.3,0.4-.2c2.9-.4,7.1,2.9,7.3,5.8s-1.2,1.9-3.2,1.2a9.9,9.9,0,0,1-5.8-5.7,1.5,1.5,0,0,1,.2-0.7,2.7,2.7,0,0,1,1.1.8c0.9,2.8,3,4.1,5.5,5.1a3.2,3.2,0,0,0,1.5-.5Z" transform="translate(-16.4 -16.1)"/><path d="M95.5,254.4l0.2-1.1c-0.7.2-1.8,0.1-2.1,0.6a8.6,8.6,0,0,0-.8,3.3,2.6,2.6,0,0,0,1.3.9l2.6,1.1a4.8,4.8,0,0,1-.9,1.8,12.9,12.9,0,0,1-2.9,1.6,3.3,3.3,0,0,1-1.5,0l-0.8-.3,0.8-.4,3.6-1.5a1.1,1.1,0,0,0,.4-1,1.3,1.3,0,0,0-.9-0.5c-1.2-.2-2.7,0-2.8-1.9s1.2-4.6,2.8-4.8,1.5,0.7,2.3,1Z" transform="translate(-16.4 -16.1)"/><path d="M126,242.6c0.2,3.4-2.1,2.4-3.1,1.9a40.5,40.5,0,0,1-5.8-4.3,1.7,1.7,0,0,1-.1-1l0.4-.2a3.3,3.3,0,0,0,.4.8l3.9,3.2a3.4,3.4,0,0,0,1.4.8,7.9,7.9,0,0,0,2-.2c-0.4-.9-0.5-2.1-1.2-2.6a44,44,0,0,0-5.2-2.6,1.2,1.2,0,0,1-.3-0.4,1.2,1.2,0,0,1,.5-0.3,10.9,10.9,0,0,1,7,4.4A0.5,0.5,0,0,1,126,242.6Z" transform="translate(-16.4 -16.1)"/><path d="M137.4,256.7a58.6,58.6,0,0,1,2.9-5.5c0.3-.4,1.4-0.2,2.2-0.3a4.5,4.5,0,0,1-.4,2,9,9,0,0,1-2.2,1.3,1,1,0,0,0-.5.5c-0.1.7-.1,1.4-0.1,2.1a2.4,2.4,0,0,0,1.1-.2L143,254a3,3,0,0,1,1.2-.4,2.3,2.3,0,0,1-.4,1,51,51,0,0,1-4.6,3.2C139,258,138.2,257.3,137.4,256.7Zm2.8-3.1,1.4-1.7-0.5-.5-1.2,1.5A2.4,2.4,0,0,0,140.1,253.7Z" transform="translate(-16.4 -16.1)"/><path d="M102.8,260.7c0.6-1.3,1-2.5,1.5-3.7a2,2,0,0,1,.8-0.7l0.5,0.2a4.8,4.8,0,0,1-.3.9c-0.7,1.5-1.4,3-2.1,4.5a4.3,4.3,0,0,1-1,1,8.2,8.2,0,0,1-.4-1.3,11.3,11.3,0,0,1,0-1.5h-0.2l-1.8,1.4c0-.8,0-1.5,0-2.3s0-1.6.1-2.4a2.3,2.3,0,0,1,.3-0.7,1.8,1.8,0,0,1,.5.7c0.1,0.8,0,1.6,0,2.3l1.8-1.1Z" transform="translate(-16.4 -16.1)"/><path d="M137.7,255.1l-1.9,4.2h-0.6a1.2,1.2,0,0,1-.1-0.8,25.6,25.6,0,0,0,1.2-2.7,6.4,6.4,0,0,0-.1-2,6.1,6.1,0,0,0-1.8,1.3c-0.9,1.3-1.5,2.8-2.2,4.2a1.9,1.9,0,0,1-.7.4,2.1,2.1,0,0,1-.2-1q1-2.5,2.1-5a1.7,1.7,0,0,1,.9-0.2h0.6c0.7-.1,1.6-0.6,2-0.3A4,4,0,0,1,137.7,255.1Z" transform="translate(-16.4 -16.1)"/><path d="M108.7,263.1c-0.6-.5-2.3-1.3-2.3-2.1s1.1-2.6,1.9-3.8a1.7,1.7,0,0,1,1.2-.7,2.2,2.2,0,0,1,1.6.3c0.8,1.4,0,2.4-1.2,3.1a4.7,4.7,0,0,1-1.8.3h-0.9a2.4,2.4,0,0,0,.3,1l3.4,0.5h1a2.2,2.2,0,0,1-.6.7Zm2-5-0.8-.9-2.1,1.8a1.9,1.9,0,0,0,.9.4A17,17,0,0,0,110.7,258.2Z" transform="translate(-16.4 -16.1)"/><path d="M75.2,259.9a14.2,14.2,0,0,1-2.4.8,1.6,1.6,0,0,1-.7-1.2,8.4,8.4,0,0,1,1.4-3.2,10.5,10.5,0,0,1,3-1.8,1.1,1.1,0,0,1,.5.6c-0.2,1.2-.6,2.4-0.8,3.6a2.9,2.9,0,0,0,.6,1.3l0.2,0.3a1,1,0,0,1-.4.4,1.7,1.7,0,0,1-1-.1A1.4,1.4,0,0,1,75.2,259.9ZM73,258.4a11.5,11.5,0,0,0,.4,1.4h0.5l2-3.9-0.5-.2Z" transform="translate(-16.4 -16.1)"/><path d="M125.1,259a51.3,51.3,0,0,1,2.9-4.4c0.4-.5,1.3-0.4,2-0.6a6,6,0,0,1-.6,2.4c-0.5.6-1.6,0.8-2.3,1.3a2.6,2.6,0,0,0-.7,1.4,1.1,1.1,0,0,0,.2,1,1.1,1.1,0,0,0,1-.1l1.8-1.4a1,1,0,0,1,.6-0.3,0.6,0.6,0,0,1,.4.4,0.8,0.8,0,0,1-.4.5,20.3,20.3,0,0,1-2.4,1.5,1.9,1.9,0,0,1-1.5.1A5.6,5.6,0,0,1,125.1,259Zm2.2-2.5,0.4,0.4a9.7,9.7,0,0,0,1.3-1,3.9,3.9,0,0,0,.5-1.1H129Z" transform="translate(-16.4 -16.1)"/><path d="M53.5,257.6l-1-2.1a2.1,2.1,0,0,1,0-.7l-0.8.2a6.3,6.3,0,0,1-1.5.8,2.2,2.2,0,0,1-1.6-.3,2.5,2.5,0,0,1,.3-1.8,17.9,17.9,0,0,1,2.7-2.6,2,2,0,0,1,1.1.5,0.6,0.6,0,0,1,0,.5H52.2c-0.5.1-1.3-.1-1.6,0.2a11.7,11.7,0,0,0-1.2,2.3,9.4,9.4,0,0,0,2.4-.6,6.2,6.2,0,0,0,1.2-1.6,0.7,0.7,0,0,1,.6-0.2,0.7,0.7,0,0,1,.3.6C53.8,254.4,53.7,255.8,53.5,257.6Z" transform="translate(-16.4 -16.1)"/><path d="M146.2,250.7a17.9,17.9,0,0,1,3.3-1.8c0.4-.1,1.1.8,1.7,1.3a1.3,1.3,0,0,1-.4.6,0.6,0.6,0,0,1-.6-0.2c-1.1-2.3-2-.6-2.5.3s-1.5,3.4-2.3,5.1a2.6,2.6,0,0,1-.9.7,2.9,2.9,0,0,1-.2-1c0.3-1.5.7-3,1.1-4.5a3.3,3.3,0,0,1,.3-0.6Z" transform="translate(-16.4 -16.1)"/><path d="M113.2,262.7c-0.1-1.4-.5-2.8,0-3.6s2-1.7,3.1-2.5a1.7,1.7,0,0,1,1,.7,3.2,3.2,0,0,1-.9,1.8,21.6,21.6,0,0,1-2.7,1.3,1.5,1.5,0,0,0,.2,1,0.9,0.9,0,0,0,.8.2l2.2-.8h0.7a1.4,1.4,0,0,1-.3.7Zm1-4.2,0.4,0.6,1.9-1.3a1.4,1.4,0,0,0-.1-0.5Z" transform="translate(-16.4 -16.1)"/><path d="M114.4,153.9c-5.2-.4-8.1-2.1-9.8-5.6a0.9,0.9,0,0,1,0-.4l0.4,0.2c1.4,1.4,2.6,3.3,4.3,4.1,3.6,1.6,7.3,1.3,10.2-1.8l0.6-.3a2.9,2.9,0,0,1-.6.8Z" transform="translate(-16.4 -16.1)"/><path d="M74.3,206.4c-0.7,2.2-1.5,4.2-2.1,6.2s-0.4,2.3-.8,3.5a2.8,2.8,0,0,1-1.1,1H69.8l0.4-1.1,3.1-8.8a3.4,3.4,0,0,1,.9-0.9Z" transform="translate(-16.4 -16.1)"/><path d="M68.1,259.9c0.4-1.8.4-3.8,1.2-5.2s2.4-1.4,3.7-2a1,1,0,0,1,.2.4,0.7,0.7,0,0,1-.5.3c-2-.9-2.1,1-2.5,2a42.3,42.3,0,0,0-1.2,4.5,0.8,0.8,0,0,1-.6.4A1,1,0,0,1,68.1,259.9Z" transform="translate(-16.4 -16.1)"/><path d="M90.8,217.2c0.4-2.7.8-5.2,1.3-7.7a1.3,1.3,0,0,1,.5-0.4,1.4,1.4,0,0,1,.3.6c-0.2,2.7-.5,5.3-0.8,8a1.5,1.5,0,0,1-.6.5Z" transform="translate(-16.4 -16.1)"/><path d="M70.2,145.3c-1.4,3.8-.1,7.1,2.5,10.4C69.1,153.4,68.3,148,70.2,145.3Z" transform="translate(-16.4 -16.1)"/><path d="M114,211.8l0.8,0.5a2.7,2.7,0,0,1-.7.5l-3.9,1.2a3,3,0,0,1-1-.1,2,2,0,0,1,.6-0.8Z" transform="translate(-16.4 -16.1)"/><path d="M109.7,135.9l1.2-9.4h0.6l-1.5,9.4h-0.3Z" transform="translate(-16.4 -16.1)"/><path d="M119.7,138.5l0.5-5.5h0.1v2.3l0.9-1.9h0.2l-1.5,5h-0.2Z" transform="translate(-16.4 -16.1)"/><path d="M115.5,140.1c-0.6,2-1.3,3.9-2,5.9a1.7,1.7,0,0,1-1.2-.8l1,0.6a25.5,25.5,0,0,0,1.1-2.9,24,24,0,0,0,.5-3Z" transform="translate(-16.4 -16.1)"/><path d="M119.1,146l0.7-6.8h0.4l-0.8,6.8h-0.3Z" transform="translate(-16.4 -16.1)"/><path d="M115.1,139.2l0.4-5.5h0.4l-0.5,5.5h-0.3Z" transform="translate(-16.4 -16.1)"/><path d="M74.5,137.7l-2.9,4.1-0.3-.2,2.8-4.1Z" transform="translate(-16.4 -16.1)"/><path d="M71.4,178l0.8,1.3v-3.4h0.3c0,1.1,0,2.1,0,3.2a1.4,1.4,0,0,1-.4.5l-0.9-1.5Z" transform="translate(-16.4 -16.1)"/><path d="M51.3,167l-0.6-1.8L50,166.5c0.2-1,.3-1.5.4-1.9h0.4a4.7,4.7,0,0,1,.6,1.2,5.7,5.7,0,0,1,0,1.3h0Z" transform="translate(-16.4 -16.1)"/><path d="M120.2,131.5l0.6-3.8h0.3l-0.6,3.8h-0.3Z" transform="translate(-16.4 -16.1)"/><path d="M57.6,167.8v-0.3h0.3a9.5,9.5,0,0,1,.7,2.5Z" transform="translate(-16.4 -16.1)"/><path d="M117.1,135.8l-0.8,4h-0.2l0.7-4h0.3Z" transform="translate(-16.4 -16.1)"/><path d="M71.4,142.3l-1,2.7H70.1l1-2.7h0.3Z" transform="translate(-16.4 -16.1)"/><path d="M101.7,179.3l-1.7,2.1-0.5-.2a0.6,0.6,0,0,1,0-.3l0.4,0.2a6.1,6.1,0,0,0,1-1.1,3.3,3.3,0,0,0,.2-1Z" transform="translate(-16.4 -16.1)"/><path d="M70.9,177.7l-0.8-3.2h0.3l0.7,3.2H70.9Z" transform="translate(-16.4 -16.1)"/><path d="M87.1,181.5l1.8-1a4.8,4.8,0,0,1-1,1.2A1.1,1.1,0,0,1,87.1,181.5Z" transform="translate(-16.4 -16.1)"/><path d="M109.9,139.1l-1,2.8h-0.2l1-2.8h0.2Z" transform="translate(-16.4 -16.1)"/><path d="M121.3,174l-1.7-.8a1,1,0,0,1,.6-0.3A6.9,6.9,0,0,1,121.3,174Z" transform="translate(-16.4 -16.1)"/><path d="M117.2,135.3v-2.5h0.1v2.6h-0.1Z" transform="translate(-16.4 -16.1)"/><path d="M59.2,172.5l0.3,2H59.2l-0.3-2h0.3Z" transform="translate(-16.4 -16.1)"/><path d="M157.6,167.2l1.4-1.6h0.1l-1.3,1.7Z" transform="translate(-16.4 -16.1)"/><path d="M25.7,239.6l-1.9,1Z" transform="translate(-16.4 -16.1)"/><path d="M116.6,140.7v2h-0.1v-2h0.1Z" transform="translate(-16.4 -16.1)"/><path d="M113.3,136l-0.5,1.6h-0.2l0.5-1.6h0.2Z" transform="translate(-16.4 -16.1)"/><path d="M107.8,146.2l-0.4.9h-0.3l0.4-.9h0.3Z" transform="translate(-16.4 -16.1)"/><path d="M113.6,134.3l0.2-1.1h0.2l-0.2,1.1h-0.2Z" transform="translate(-16.4 -16.1)"/><path d="M58.8,170.6l0.2,1.1H58.8l-0.3-1.2h0.3Z" transform="translate(-16.4 -16.1)"/><path d="M53.3,170.2v-1h0.1v1H53.3Z" transform="translate(-16.4 -16.1)"/><path d="M114.2,131.4v1.1H114v-1.1h0.1Z" transform="translate(-16.4 -16.1)"/><path d="M111.2,182l-1-.2v-0.2h0.9V182Z" transform="translate(-16.4 -16.1)"/><path d="M99.2,74.1l-4.7.5V75l6.8,1a4,4,0,0,1-1.3.5c-4.4-.9-9.3.6-13.5-1.9a4.2,4.2,0,0,1-1.1-.5c-1.3-1.2-3.1-2.1-3.6-3.6-1.9-5.3.2-8.7,5.8-10.3a2.3,2.3,0,0,1,1.2.3,1.3,1.3,0,0,1,0,.4H87.9a1,1,0,0,0,0,.5h0.4l1.6-.2-1.1,1.1a29.5,29.5,0,0,0-3.7,4.7c-1,1.9,1.1,4.9,3.3,5.4s2.2,1.3,3.4,1.5a38.1,38.1,0,0,0,5.4,0h2v0.2ZM89,74.2L83.4,69l1.5,3.6h0ZM85.3,63.3l-0.4-.2-2.4,6.5a1.1,1.1,0,0,0,.2.7Zm0.5-1.3-0.2-.2L82.8,64l0.6,0.6Zm4.9,12.2v0.4l1.6,0.6,0.2-.3Z" transform="translate(-16.4 -16.1)"/><path d="M96.7,54.1H93.3c2.9-2.4,10-1.9,13,.9l-5.6-1.4V54l11.3,6.5-0.2-1c1.3,2,.7,3.3-2.2,5.1a22.1,22.1,0,0,1-9.3,3A58.2,58.2,0,0,0,93.5,69l1.9,0.2-0.3.5h0.5a41.7,41.7,0,0,0,5.3-.2c2.4-.4,4.7-1.1,7-1.6v0.6l2.3-.5,1.1-.3a2,2,0,0,1-.7.6L103,69.6c-2.2.3-4.5,0.5-6.7,0.6a36.9,36.9,0,0,1-4.2-.4H89.8A2.9,2.9,0,0,1,89,69H88.6L99,66.5v0.3l-3.1.9v0.4a16,16,0,0,0,2.5-.6c0.6-.2,1-0.9,1.6-1.1a9.7,9.7,0,0,1,1.3.1,26.5,26.5,0,0,0,4.2-1.1,33.6,33.6,0,0,0,4.4-2.2,2.1,2.1,0,0,0,1.1-1.3,2.9,2.9,0,0,0-1.4-1.7c-1.8-.7-3.7-1-5.5-1.5l-1.2-.4,1.1,0.6a0.8,0.8,0,0,1,.2.4,1.6,1.6,0,0,1-.8.1,19,19,0,0,1-1.7-1.8l5.4,1.2,0.2-.7-4.4-1.2a41.4,41.4,0,0,0-4.9-1c-2.1-.2-4.3-0.2-6.4-0.4H91a0.5,0.5,0,0,1,0-.2l0.6-.2,5.1-.5V54.1Zm12.5,10-0.3-.3-1.7,1.4,0.2,0.3Zm-8.7-9-0.2.5,2.1,0.7V56ZM90.1,69v0.3h1.7V69H90.1ZM99,53.8V53.4l-1.4-.2v0.4Z" transform="translate(-16.4 -16.1)"/><path d="M106.4,54.4c2.2,1,4.6,1.9,6.7,3.1s2.1,2,3.1,3,3,3.5,1.3,5.9a3.6,3.6,0,0,1-1.8,1.1,8.6,8.6,0,0,1-3.8.3,17.6,17.6,0,0,0,2.3-.5c4-1.4,4.7-3.4,1.8-6.6a17.6,17.6,0,0,0-8.5-5.3l-1.2-.6Z" transform="translate(-16.4 -16.1)"/><path d="M116.1,44.3L115.9,43h0.3l0.6,2.2a0.5,0.5,0,0,1-.2.3,1.6,1.6,0,0,1-.7-0.4l-3.8-6v0.8l-1.8-4.5,0.3-.2,5.2,9.3Z" transform="translate(-16.4 -16.1)"/><path d="M97.9,80.7H97.7l-1.4-.5,1,2,0.6,1-0.2.2a7.3,7.3,0,0,0-.7-0.9l-4.7-4.2-0.6,1V78a5.6,5.6,0,0,1,1.2.4L95.1,80a1.3,1.3,0,0,0,.6-0.2l-0.3-.4L95.1,79l0.2-.2h0.5Z" transform="translate(-16.4 -16.1)"/><path d="M112.1,42.1l0.8,0.8-0.8-2.7h0.3l1.9,5.3a1.1,1.1,0,0,1-.2.5l-0.4-.4L112,42.2h0.2Z" transform="translate(-16.4 -16.1)"/><path d="M111,40.8l-3.5-7.3h0.3l3.6,7.3Z" transform="translate(-16.4 -16.1)"/><path d="M144.6,63l0.7,0.9-0.3.2-0.7-.9Z" transform="translate(-16.4 -16.1)"/><path d="M148.3,99.7a4.9,4.9,0,0,1,.8-1.1,12.5,12.5,0,0,1,4.4-1.7Z" transform="translate(-16.4 -16.1)"/><path d="M156,105.7l-3.3,1.9-0.2-.5,3.5-1.4h0Z" transform="translate(-16.4 -16.1)"/><path d="M134.4,99.2l-1.6,2.7h-0.2L134,99Z" transform="translate(-16.4 -16.1)"/><path d="M156,105.7l0.4-1.1,0.4,0.3-0.9.8h0Z" transform="translate(-16.4 -16.1)"/><path d="M124.1,87.6l-1.9,7.4H122c0.2-1.2.5-2.4,0.6-3.6s0-2.4,0-3.5a0.5,0.5,0,0,1,.1-0.3l0.5-.2Z" transform="translate(-16.4 -16.1)"/><path d="M120.8,97.5c0.2-2,.5-3.9.8-5.8a16.8,16.8,0,0,1,.5-2c-0.1.7-.1,1.5-0.2,2.2s-0.6,3.7-.9,5.6h-0.2Z" transform="translate(-16.4 -16.1)"/><path d="M127.4,95.4l2.1-6.6h0.3l-1.8,6.7Z" transform="translate(-16.4 -16.1)"/><path d="M124.1,94.6l-0.5,3.2h-0.3l0.6-3.2h0.3Z" transform="translate(-16.4 -16.1)"/><path d="M135.7,88.5l-1,1.7-0.3-.2,1.1-1.6Z" transform="translate(-16.4 -16.1)"/><path d="M160.8,80.8l0.3-1.9h0.3l-0.3,1.9h-0.4Z" transform="translate(-16.4 -16.1)"/><path d="M116.6,111.8l-0.3-3h0.3q0,1.5,0,3h0Z" transform="translate(-16.4 -16.1)"/><path d="M119.3,109.5v-1.1h0.2l-0.2,1.1h-0.2Z" transform="translate(-16.4 -16.1)"/><path d="M114,100.5v2.6h-0.2l-0.2-2.6H114Z" transform="translate(-16.4 -16.1)"/><path d="M102.7,37.6l1.9,3.6-0.3.2-1.6-3.7h0Z" transform="translate(-16.4 -16.1)"/><path d="M102.7,37.6L101.2,35l0.3-.2,1.2,2.7h0Z" transform="translate(-16.4 -16.1)"/><path d="M100,32.2l1.1,2H101l-1.1-2H100Z" transform="translate(-16.4 -16.1)"/><path d="M116.9,94v1.8h-0.4V94h0.3Z" transform="translate(-16.4 -16.1)"/><path d="M125.5,111.1v-1.6h0.3l-0.3,1.6h0Z" transform="translate(-16.4 -16.1)"/><path d="M121.7,115.6v1.7h-0.1l-0.2-1.7h0.3Z" transform="translate(-16.4 -16.1)"/></svg>