<svg id="cigarette_smokers_Image" data-name="cigarette(smokers) Image" xmlns="http://www.w3.org/2000/svg" viewBox="0 0 226.6 213.3"><title>cigarette(smokers)</title><path d="M249.4,0.1l4.3,5.2h0L251.5,3l-2.8-2.9h0.7Z" transform="translate(-30 -0.1)"/><path d="M242.3,0.1l-1.2.9-0.2-.2,0.7-.7h0.6Z" transform="translate(-30 -0.1)"/><path d="M240.7,0.1l-2.3.8,1.3-.8h1Z" transform="translate(-30 -0.1)"/><path d="M203.2,183.6c-1.2,2.7,2,1.6,3,1.9s3.6,0.5,5.5.5a11.5,11.5,0,0,1,2.3-.1c-0.8.2-1.7,0.8-2.4,0.6s-1.8.7-2.4,1.6a6.3,6.3,0,0,1-1,1v-2.5l-1,1.7-0.6.5a2.3,2.3,0,0,1-.2-0.9,2.5,2.5,0,0,1,.6-1l0.8-.4a1.6,1.6,0,0,0-.2-0.5,2.8,2.8,0,0,0-1.2.3,2.2,2.2,0,0,0-.4.9l-0.7-1.4-0.4.2c-0.2.5-.2,1-0.4,1.6h0.5l-0.3.5-1,1.6c0-.7,0-1.5.1-2.2s0.2-1,.3-1.5l-1.2,1.4a10.6,10.6,0,0,0-.7,1.3,7.2,7.2,0,0,1,0-1.9,2.8,2.8,0,0,1,.9-0.9l0.4-.3a10.2,10.2,0,0,0-1.5-.9,1.2,1.2,0,0,0-.7.5l-3.3,3.7a3.2,3.2,0,0,0-.9,1.2c-0.1.6,0.7,1.7-.9,1.4l-0.2.3c-0.2,1.3-.3,2.7-0.5,4s-0.5,2.3-.8,3.8l1.1-.8c-0.1.5-.2,1.1-0.3,1.6a2.7,2.7,0,0,0-.1,1.4c0.5,1.1,1.3,2.1,1.8,3.1a3.9,3.9,0,0,1-.2,1.6c-0.2-.1.1,0.2,0.3,0.1a5.3,5.3,0,0,0,.9-1l0.7,0.4-0.5.5,1.4,0.5a17.6,17.6,0,0,1-1.2-2.1,6.4,6.4,0,0,1-.5-2.3c0-2.1.2-4.1,0.4-6.2a34.8,34.8,0,0,1,.5-4.3V196l0.4-1h0.3c-0.3,1.2-.9,2.4-0.8,3.5,0.3,2.8.8,5.6,1.4,8.3a2.8,2.8,0,0,0,1.3.5c0-.4,0-0.7-0.1-1.1s-0.7-3.4-.9-5.1-0.4-4.6-.6-7l-0.4.5h-0.1l0.4-.7a7.8,7.8,0,0,1,.1-1l0.3-.2a4.1,4.1,0,0,1,.2.8,17.9,17.9,0,0,0,.3,4l0.6-2.3h0.3a23.5,23.5,0,0,0-.6,3.4,18.8,18.8,0,0,0,.4,3.2,1.6,1.6,0,0,0,.7-0.5c-0.1-2.4-.2-4.8-0.2-7.2,0.1,1.1.2,2.1,0.3,3.2a4.2,4.2,0,0,0,.3.8,2.1,2.1,0,0,0,.7-0.7c0.2-1.1.4-2.2,0.5-3.2l1,4.6h0.3l0.8-5.5h0.5v6.4h0.5l0.9-7.9a2.7,2.7,0,0,1,.3.6c0.1,1.5.3,3,.4,4.4a1.4,1.4,0,0,0,.3.5,1.6,1.6,0,0,0,.3-0.5,15,15,0,0,1,.9-3.8l1.2,4.1c0.3-1.8.5-3.1,0.7-4.4a15.4,15.4,0,0,1,.8-2.3,4.5,4.5,0,0,0,.4-0.7L212,189l-1.6-1.2,4.8,2c-2.2-.1-2.2.8-1,2.4v-1.7l0.4,0.2,0.7-.9a3.5,3.5,0,0,1,.8-1.3,3.2,3.2,0,0,1,1.5.4,1.5,1.5,0,0,1,.4-0.7,2.8,2.8,0,0,1,1.1-.1h0.5l2.7-1.3a2.9,2.9,0,0,1,1.4-.1,0.8,0.8,0,0,1,.5.5,1.6,1.6,0,0,1-.5.6c1.4,2,.1,3.7-0.6,5.6a4.3,4.3,0,0,0,0,1.4c0,0.9.5,2-1.2,1.8a0.8,0.8,0,0,0-.6.5,8.6,8.6,0,0,0-.5,3.2,37.8,37.8,0,0,0,1.6,4.3,6.2,6.2,0,0,1,.1,2.1,2.9,2.9,0,0,0-.9.6l-6.2.7h-5.8l0.2,1.4-1-1.3-0.4-.2-2.6,1,0.2,0.9a3.2,3.2,0,0,0-1.1-1l-5.1-.7-2-.3-0.4,1.7h-0.4c-1.3-2.1-3.2-1-4.9-1s-5.7.4-8.6,0.5h-4.3l1.6,0.9v0.3l-1.7-.7a3.5,3.5,0,0,0-1.3-.2l-12,.9c-1,.1-2,0.7-3.1.9s-1.8-.3-2.7-0.2l-10.1.6a1.2,1.2,0,0,0-.5.3l-0.5.4a1,1,0,0,0-.2-0.5l-0.8-.3-7.6-.3c-2-.1-4.1-0.4-6.1-0.4a10.5,10.5,0,0,0-2.7.8H131c-2.5-.3-5.1-0.7-7.6-0.8s-7.8-.5-11.7-0.5c-1.5,0-3.1.4-4.6,0.5a21.8,21.8,0,0,1-3-.2l0.5,0.9-0.8-.2-4.6-.6-9.6-.4a13,13,0,0,1-4.1-.4c-3.8-1.5-7.5-.6-11.4-0.3-5.7.5-11.5,0.6-17.2,0.9l-1.9.3-11.6.7c-1.4.1-2.9-.2-4.3-0.1a4.8,4.8,0,0,0-1.8,1.2l-0.4.6c0.1-2.2-.9-1.8-2.2-1.4s-1.5-.8-1.9-1.5c-4-6.7-3.5-13.4-.3-20.3,0.5-1.1.4-2.5,1.1-3.3a4.3,4.3,0,0,1,2.9-.9c4.3-.2,8.6-0.2,12.8-0.4,0.7,0,1.4-1,2-1.6h0l-0.7,1.5h1.8l16.6-1.5a15.6,15.6,0,0,0,3.3-1.2,1,1,0,0,1,.7.2,4.4,4.4,0,0,0,1.5.9l11.5-.2,1.9-.2h0.2c1.3,2.5,3.2.5,4.8,0.7,4.1,0.4,8.2.6,12.2,0.6s10.6-.2,15.9-0.2,9.5,0.3,14.3.3c2.5,0,5-.6,7.5-0.8l10.8-.5c5.9-.2,11.7-0.4,17.6-0.3,4.4,0,8.7.6,13,.7s9.9,0,14.9,0A34.7,34.7,0,0,0,203.2,183.6Zm-61.7,5.2h-0.3a2.7,2.7,0,0,1-.2-1.1c0.6-2-.1-2.6-2-1.8a1.2,1.2,0,0,0-.7.4c-0.1.8-.1,1.6-0.2,2.4a4,4,0,0,1-.5,1.1,5.1,5.1,0,0,1,0-1.3c0.5-2,0-2.7-2.1-2.5a17.8,17.8,0,0,0-2.4.1,4.9,4.9,0,0,0-2,1.1,4.1,4.1,0,0,0-.6,1.5c0.1-.6.1-1.1,0.2-1.7a0.8,0.8,0,0,0-.3-0.6l-1.9-.3a3.1,3.1,0,0,1,0,.6l-0.9,3.7a4.5,4.5,0,0,1,0-2.3c0-.8,1.1-2.1-1-2.1-3.6,0-7.3-.2-10.9-0.3a1.4,1.4,0,0,0-1,.8,25.6,25.6,0,0,0-.5,3,2.3,2.3,0,0,1-.1-1.6,12.7,12.7,0,0,0-.1-2.1h-0.5l-9.4.3a2.2,2.2,0,0,0-1.5.8,21.8,21.8,0,0,0-1.4,3,10.7,10.7,0,0,1,.8-3.1,2.7,2.7,0,0,0,.1-0.9l-2.4-.2L99.3,187l-0.9,2.3a1.9,1.9,0,0,0,0,.6H98.1a1.2,1.2,0,0,1-.2-0.7l1.4-3.4c-0.9,0-1.8-.2-2.4.2a4.6,4.6,0,0,0-1.1,2.1,20.8,20.8,0,0,0-.6,2,8.4,8.4,0,0,1,.8-3.6l0.3-.9a3.5,3.5,0,0,0-1.6,0,3,3,0,0,0-1,1.4c-0.4.8-.7,1.6-1,2.5l-0.5-.2,1.8-4.4c-1.7.7-3.1,1-3.9,1.8s-0.9,2.2-1.4,3.4a1.5,1.5,0,0,1-.5.4,1.1,1.1,0,0,1-.1-0.5l1-2.9,0.5-1.2a5.2,5.2,0,0,0-1.9-.4,3.7,3.7,0,0,0-1.1,1.2l-0.7.5-0.3-.7c-3.7,1.6-3.3,16.5.5,20l0.7-.3a2.8,2.8,0,0,0-.1.7,2.9,2.9,0,0,0,.4,1.5,3.1,3.1,0,0,0,1.5.3,8.5,8.5,0,0,0-.2-1.3c-0.8-2.3-1.6-4.6-2.3-6.9a9,9,0,0,1-.1-2.6c0-.8.1-1.7,0.1-2.5A17.8,17.8,0,0,0,89.9,208l-1.2-7.2,3.3,6.9,0.6-.2L92,199.8a0.5,0.5,0,0,1,.4.4l1,5.6a2.2,2.2,0,0,0,.4.6l0.5-.7,0.6-1.4a6.6,6.6,0,0,0,.5-1.6c0.1-1,0-2,0-3h0.4v1h0.4l1.1-5.3h0.3L96.8,205l1.6-.8c0.1,0.5.3,1.1,0.3,1.6s0.1,1.6.2,2.7l0.9-1.2c-0.4.9-.6,1.3-0.7,1.6a0.6,0.6,0,0,0,.1.5H100a0.6,0.6,0,0,0,.1-0.4c-0.2-1.3-.4-2.7-0.6-4s-0.3-1.4-.5-2.7l0.9,1.6,0.9-4.9a2.4,2.4,0,0,1,.3-0.6l0.3,0.2a13.4,13.4,0,0,1-.1,2.2c-0.2,1.3-.6,2.5-0.9,3.8h0.4l0.6-1.2a10.7,10.7,0,0,1,.1,1.1c0,1,0,2,0,3h0.7l1-4.5,0.5,1.4c0.2-1.3.2-2.1,0.4-3s0.3-1.6.5-2.4h0.2l-1.1,8.9a8.3,8.3,0,0,0,1.7-2.2,16.8,16.8,0,0,1,1.4-1.6,7.9,7.9,0,0,1,.4,1.6,16.4,16.4,0,0,1-.2,2.2h0.5l0.5-6.8H108l-0.3,4.5,0.8-1,0.7-.7a5.1,5.1,0,0,1,.1,1c0,0.9-.1,1.7-0.2,2.6a1.8,1.8,0,0,0,.3.6,1.5,1.5,0,0,0,.5-0.6c0.1-1.6.1-3.2,0.2-4.7s0.3-2.5.4-3.8h0.2v5.3a5.6,5.6,0,0,1,1.7.6,17.3,17.3,0,0,1-.2,2.6l0.8-.3-0.4,1.3a0.8,0.8,0,0,0,.1.5h0.9a0.4,0.4,0,0,0,.2-0.3q-0.1-2.3-.2-4.6c-0.1-1.2-.1-2.4-0.2-3.7h0.2l0.5,5.2h0.3l0.4-1.4a12.5,12.5,0,0,1,.1,2.9,1.8,1.8,0,0,0,.2.6l0.4-.4,1-1.8h0.2l-1.7,4c0.8-1,2.7,1.3,2.5-1.3s-0.6-5.1-.6-7.6a26.3,26.3,0,0,1,.7-4.6h0.2l-0.8,7.4,1.5-.5a4.8,4.8,0,0,1,.3,1.3c-0.1,1-.3,2.1-0.5,3.4a5.4,5.4,0,0,0,1.1-1.8c0.1-1.3,2.6-1.3,1.3-3.6s0.2-4.2.3-6.3h0.1l0.6,10.1c0.7-.6.7-0.6,2.4,1.7l1.1-10.2h0.4v10.9c3.3-2.7,2.7-6.8,3.5-10.5v9.5l0.3,0.2,2.4-5,0.4,5.8h0.4v-6.2h0.4l0.4,5,2.7-4.2a6.3,6.3,0,0,0,.4-1.3c0,0.4,0,.8,0,1.1l0.3,0.4,0.6-5.5a14.5,14.5,0,0,1,0,3.8,2.2,2.2,0,0,0,.2,1,4.2,4.2,0,0,1,.7,1.6,22.4,22.4,0,0,1-1,3.4l2.9-4a31.7,31.7,0,0,0,1.4-5.6,3.2,3.2,0,0,1,.5-0.9,1.6,1.6,0,0,1,.1.5c-0.3,2.8-.8,5.6-1,8.4a21.1,21.1,0,0,0,.4,4,14.2,14.2,0,0,0,1.7-4.2c0.3-1.4.4-2.9,0.7-4.3s0.8-2.7,1.3-4.6l-0.8,9.5,0.8,0.2,2.3-5.1-0.3,3.3H148l1.1-8.2a65.5,65.5,0,0,1-.6,7.8,8.8,8.8,0,0,0,.1,1.5l0.9-1.1,0.6-.8,0.7-.5a2.5,2.5,0,0,1,.2.9c-0.3,1.4-.6,2.9-1,4.3a1.5,1.5,0,0,0,0,.6h0.2a6.5,6.5,0,0,0,1.4-2.1c0.3-1.5.1-3.1,0.3-4.7s0.7-3,1.1-4.6h0.3l-1.4,9c4.6-5.6,1.8-.3,2.1.6l0.4-.6,3.6-9.2,0.4-.5a1.9,1.9,0,0,1,.1.7c-0.2,1-.6,2-0.7,3s-0.5,4.9-.8,7.4a11.8,11.8,0,0,0,3.1-4.1,33.2,33.2,0,0,0,1-5.5,2.1,2.1,0,0,1,.5-0.7,3.6,3.6,0,0,1,.2,1c-0.2,2.1-2,3.9-.3,6.3,0.5,0.7-.1,2.3-0.3,3.6h0.7c2.1,0,1.5-1.9,1.8-2.9,0.9-2.7,1.4-5.6,2.2-8.4a1.8,1.8,0,0,1,.7-0.6,2.8,2.8,0,0,1,0,.8c-0.4,1.1-.9,2.2-1.1,3.4s-0.8,3.8-1.2,6.2c1.4-1.5,2.3-3.1,3.5-3.7s1.3-3,1.9-4.6l1.2-3.1h0.5a1.2,1.2,0,0,1,0,.3c-0.7,2.9-1.5,5.8-2.1,8.7a4.1,4.1,0,0,0,.2,1.4l1.4,1.8,0.9-1.1,0.6-.9,2.2-4.2-0.6-.4-3.8,4a6,6,0,0,1,1.5-2.2,7.8,7.8,0,0,0,3.5-6.9,2.4,2.4,0,0,1,.7-1,1.3,1.3,0,0,1,.2.6,22,22,0,0,0-.6,2.3c-0.3,2.5-1.6,5.1.1,8.2,0.8-1.8,1.6-3.3,2.2-4.8s0.9-3.6,1.4-5.3a1.1,1.1,0,0,1,.4-0.3,1.5,1.5,0,0,1,.2.7,18.8,18.8,0,0,0-.9,2.8c-0.3,2.1-.4,4.3-0.6,6.8l2.3-2.1-0.6,2.2a1.9,1.9,0,0,0-.1.5h0.2a6.3,6.3,0,0,0,1.4-2.1c0.4-2.4.6-4.8,0.9-7.1a7.9,7.9,0,0,1,.9-2c-0.2.8-.4,1.7-0.6,2.5s-0.6,4-.9,5.9l0.7,0.2a18.3,18.3,0,0,0,2.6-3.3,50.8,50.8,0,0,0,1.8-5.6,1.6,1.6,0,0,1,.5-0.5,4,4,0,0,1,0,.7c-0.4,2.5-.9,5-1.2,7.5a9.1,9.1,0,0,0,.5,2.6l1.6-1.8,0.5-.3a1.4,1.4,0,0,1,.2.6c-0.1.6-.3,1.2-0.5,1.8a2.4,2.4,0,0,0,1.1-1.7c0-1.6-.3-3.2-0.3-4.8a23.1,23.1,0,0,1,.9-4.1,1.8,1.8,0,0,1,.5-0.6,1.7,1.7,0,0,1,.3.7c-0.3,2.1-.7,4.3-0.9,6.4a6.2,6.2,0,0,0,.6,2.1c1.7-.6,2.7.2,3.2,1.7a1.2,1.2,0,0,0,.5.3v-0.5L195,205a49.8,49.8,0,0,1-1.2-5.1,18.7,18.7,0,0,1,.1-4.2,14.3,14.3,0,0,1,.7-1.9c0.3-1.1.4-2.2,0.7-3.2a1.1,1.1,0,0,1,.7-0.2h0.5a1.2,1.2,0,0,0,0-.5,10.6,10.6,0,0,1-.6-1.3,11.4,11.4,0,0,1-.3-1.8l0.2-.2v0.7l1.3,0.3,0.5,0.4c0-.3,0-0.5,0-0.8s0-.5,0-0.7l0.7,0.2h0.4l0.7-1.7-0.6-.2-3.2.2a1.3,1.3,0,0,0-1,.5c-0.4,1-.7,2-1,3a13.6,13.6,0,0,1,.3-2.5,1.1,1.1,0,0,0-.5-0.9h-3.5c-1.1,0-2.2-.3-2.1,1.4a4,4,0,0,1,0,1,2.5,2.5,0,0,1-.4.7l-0.2-.7c-0.3-.8-0.5-2.4-0.9-2.4-3.9-.4-7.9-0.6-11.8-0.9h-1.9l-0.2,4.4a7.2,7.2,0,0,1-.3-3.3c0.1-1.8-1.2-1.3-2.1-1.2a2,2,0,0,0-.9,1.3,28.3,28.3,0,0,0-.7,2.8,1.3,1.3,0,0,1-.3-1.1c0.5-1.8.8-3.4-2-2.7h-0.8a0.6,0.6,0,0,0-.3.4c-0.2,1.3-.3,2.6-0.4,3.9a0.3,0.3,0,1,1-.6-0.1c0.1-.8.3-1.6,0.3-2.4a3.4,3.4,0,0,0-.2-1.7,4.9,4.9,0,0,0-2.4.1c-0.3.1-.3,1-0.4,1.5l-0.3,2c-0.1-.7-0.2-1.3-0.3-2s-0.3-1.6-.6-1.7c-2.2-.2-4.4-0.3-6.6-0.4a1,1,0,0,0-.7.3c-0.1,1,0,2-.1,3a5.6,5.6,0,0,1-.6,1.5,10.2,10.2,0,0,1-.1-1.4c0.1-.8.2-1.7,0.2-2.5a1.5,1.5,0,0,0-.4-0.9c-0.9.2-2.2,0.1-2.7,0.7s-0.5,2-.8,3.1h-0.3V185c-2.3-.7-3.7.2-3.9,3a1.2,1.2,0,0,1-.2-0.5c-0.1-.8.1-2.1-0.2-2.2s-2.2-.1-2.2,1.6A13.8,13.8,0,0,1,141.6,188.7Zm77.1,10.8c0,0.6.1,1.1,0.1,1.6a1.5,1.5,0,0,0,.3.5,7.3,7.3,0,0,0,.7-2.4c0-.5-0.9-1-1.4-1.4a10.2,10.2,0,0,1-2.2-1.7c-0.3-.4.1-1.4,0.2-2l1.9,0.4c0.9,0.2,2.3.7,2.5,0.4a10.2,10.2,0,0,0,.8-2.9,2,2,0,0,1,.6-0.6l0.7,1.6,0.5-3.9-1.4-1.6-2.3,3.3-0.4-.3c-0.8.7-1.4,1.5-2.2,2.1a3.1,3.1,0,0,1-1.6.5,4.5,4.5,0,0,1-1.3-.3,2.3,2.3,0,0,0,.2,1,1.9,1.9,0,0,0,.9.3,1.3,1.3,0,0,1-1.2-.2,3.9,3.9,0,0,1-.6-0.8,4,4,0,0,0-1.4,1.2c-0.2.5,0.4,1.2,0.4,1.8,0,3,0,6.1,0,9.1h0.7a2.9,2.9,0,0,0,.4-0.9c0-2.3-1.6-4.9,1.5-6.3a1.5,1.5,0,0,1-.2.7,3.4,3.4,0,0,0-.8,4.1c0.3,0.7-.2,1.8-0.4,2.7a1.6,1.6,0,0,0-.1.7,1.9,1.9,0,0,0,1,.8l3.8,0.2a8.6,8.6,0,0,0,1.7-.3l-0.8-.9a2.5,2.5,0,0,1-.2-0.7,3,3,0,0,0,1,.7l1.6-.3-0.6-1.2-0.7-1.5a2.9,2.9,0,0,0-.7-1l-2.4,1-0.7-1.1c-0.3-.5-1-1.1-0.9-1.5,0.4-2.1-.9-3.2-1.9-4.6l-0.8-1.2,0.3-.3,0.6,1,0.2,0.2c1,1,2.3,1.9,2.2,3.7s0.8,0.9,1.3,1.3A5.2,5.2,0,0,0,218.6,199.5ZM54.4,188.1c-3.1,1-4.7,7.6-2.5,12.6ZM73.1,202c1.6-4.4-1.9-7.6-1.6-11.5a92.6,92.6,0,0,0-1.1,9.2,2.2,2.2,0,0,0,.2.8,2.8,2.8,0,0,1,.3-0.7l1.1-1,0.3,0.8Zm-36.8-9-0.7-.4c-0.1,1-.1,2.1-0.2,3.1a1.7,1.7,0,0,0,.3.6l0.4-.5,1.2-3.1-1.4,6.1a2.1,2.1,0,0,0,.1.7h0.4a11,11,0,0,0,1.4-2.7c0.5-2.1.7-4.3,1.1-6.5,0.1-.6.3-1.1,0.5-2.3l-1.8,3Zm39.6,10.8h0.7V188.2l-1.6,4.6v-0.2a1.8,1.8,0,0,0-.1.5c0.2,1.2.5,2.3,0.7,3.5S75.7,201.4,75.9,203.8ZM81,191l1.1,9.6c0.1-2.6-.1-5.1.2-7.7s1-5,1.6-8.1L82.3,187l-2,3a2,2,0,0,1-.7.4l1,0.6A0.4,0.4,0,0,0,81,191Zm-33.2,0c-0.3.4-1.1,0.8-1.2,1.4-0.2,2.5-.2,5-0.2,7.5a4.4,4.4,0,0,0,1.4.5,4.8,4.8,0,0,0,.3-1.3c0-.8-0.3-1.6-0.3-2.4S47.8,192.7,47.8,191Zm11.9,1-0.9-.4-0.3,7a1.8,1.8,0,0,0,1.1-1.1c0.7-1.9,1.4-3.8,2-5.8a16.3,16.3,0,0,0,.4-2.4H61.4Zm-1.3,12.4a1.4,1.4,0,0,0,.3-0.6q-0.5-4-1.1-8a6.2,6.2,0,0,0-.5-1.2c-0.5.3-1.4,0.6-1.5,1a49.6,49.6,0,0,0-.6,5.1l1.5-1.3,0.4-.6a1.1,1.1,0,0,1,.4.4C57.8,200.8,58.1,202.5,58.4,204.3Zm4.1-3.3h0.4a8,8,0,0,0,.9-2.4,34.4,34.4,0,0,0-.4-4.8,1.2,1.2,0,0,0-.6-0.8,1.4,1.4,0,0,0-1,.7,28.2,28.2,0,0,0-.1,4.1,5.6,5.6,0,0,0,1,1.7V201Zm-19.6-8.7L42.4,202h0.7c0.4-2.3.9-4.5,1.2-6.8S45.6,192.8,42.9,192.3Zm161.7,10h-0.2c-1.9,0-1.6,1.2-1.1,2.2a28.1,28.1,0,0,0,2.5,3.6,1.9,1.9,0,0,0,.9-0.1,4.6,4.6,0,0,0-.1-0.7Zm16.1-3.7c-0.1.2,0.1-.1,0.1-0.4s-0.4-2.1,1.3-2.2a1.1,1.1,0,0,0,.4-0.8,12.8,12.8,0,0,0-.3-1.8,6.1,6.1,0,0,0-.6,1.2c-0.4,1.6-1.8,1.7-4,.3a1,1,0,0,0-.7-0.2,0.9,0.9,0,0,0-.3.8,6.5,6.5,0,0,0,1.5,1.8A18.6,18.6,0,0,0,220.8,198.5ZM55.7,188.6h0.3l1.4-1.1c0,0.6,0,1.2,0,1.8a1,1,0,0,0,.2.3l0.3-.2c0.6-.7,1.1-1.5,1.8-2.2a3,3,0,0,1,1.1-.4l0.3,1a1.3,1.3,0,0,0,.1.4h0.3l1.2-1.9-1.6-.2H59.5C57.7,186.1,55.6,185.7,55.7,188.6Zm8.8,7.7h0.3l3.6-9.9-0.6-.3-1.6,3-0.8-.5Zm12.2-9.3,1-1.2a2.2,2.2,0,0,1,.8-0.3,2,2,0,0,1,.1.7l-0.9,2.9a11.1,11.1,0,0,0,1.8-3.8,0.7,0.7,0,0,0-.5-0.3H73.3c-0.4,0-.7.2-0.5,0.2v2.5l1.6-2,0.2,2.4,1.4-2Zm-32.2,1.4c-2.5,1.3-4.1,6.5-3,9.6Zm165.6,7h-0.4c0.1,1.9.2,3.8,0.3,5.8a17.3,17.3,0,0,0,.2,2.9,8.2,8.2,0,0,0,1.1,3c0.3,0.4,1.3.2,2,.3v-0.6h-0.7a2,2,0,0,1-1-.3c-0.4-2-.8-4-1.1-6S210.3,197.2,210.2,195.5ZM134.4,210l0.4-2.7a4.6,4.6,0,0,1,.2-0.7,1.5,1.5,0,0,1,.6.5c0.1,0.7,0,1.5.1,2.2a0.7,0.7,0,0,0,.4.4l0.5-.2a12.3,12.3,0,0,0,.3-2.7,8.2,8.2,0,0,0-.7-2.1,14.9,14.9,0,0,0-1.4,1.6c-0.5.7-.8,1.5-1.2,2.2l-0.6.9Zm-52.3-5.8,1-1.6a1.9,1.9,0,0,1-.7-0.3c-0.5-3.3-.9-6.7-1.4-10a2.6,2.6,0,0,0-.7-0.9,1.9,1.9,0,0,0-.6.7,33.5,33.5,0,0,0,.6,4.3C80.7,198.8,81.4,201.2,82.1,204.2Zm-8.3-5.9c0.3-2.6.5-4.5,0.6-6.5a3.6,3.6,0,0,0-.5-1.3c-0.6.5-1.7,1-1.6,1.3C72.6,193.9,73.2,195.8,73.8,198.3Zm92.3,11a2.3,2.3,0,0,0,1.1-.3c0.5-1.3,1-2.6,1.4-3.9a1.3,1.3,0,0,0-.1-0.5l-0.5.2c-0.9,1-1.9,2-2.7,3a1.7,1.7,0,0,0-.1,1.2A1.7,1.7,0,0,0,166.1,209.3ZM78.2,191.6H77.6a1.8,1.8,0,0,0-.2.5c-0.1,2.1-.1,4.2-0.1,6.3a2.2,2.2,0,0,0,.3.8,2.3,2.3,0,0,0,.6-0.9c0.1-.8,0-1.7,0-2.5S78.2,193,78.2,191.6Zm128,8.9h-0.6L207,207h0.4a1.2,1.2,0,0,0,.5-0.6c-0.3-1.7-.7-3.4-1-5Zm-20.5,3-0.5-.4a23.8,23.8,0,0,0-2.6,3c-0.2.3,0.6,1.2,1,1.8h0.6ZM67.3,196.1h0.9v0.6a6.4,6.4,0,0,0-.3,1.4,4.2,4.2,0,0,0,.4,1.2,2.2,2.2,0,0,0,.8-0.9c-0.1-1.5-.2-3.1-0.4-4.6a2.5,2.5,0,0,0-.6-0.9,3.8,3.8,0,0,0-.7,1.2A13.1,13.1,0,0,0,67.3,196.1Zm4.1-7.5c-1.8,1.5-2.7,7.3-1.4,8.6ZM203.9,197c-0.4,1.1-.9,2.5-1.3,3.9a1.4,1.4,0,0,0,.3,1l2-.2a1,1,0,0,0,.1-0.8Zm-2.2,4.3a5.2,5.2,0,0,0-.8,1.3,9.1,9.1,0,0,0,.6,2.6,12.1,12.1,0,0,0,1.9,2.1l-0.3-1.7a1.6,1.6,0,0,0,0-.2ZM49.2,191H49.1c0.2,2.9.5,5.9,0.8,8.8l0.4,0.3a1.5,1.5,0,0,0,.2-0.7,12.9,12.9,0,0,1-.6-2.1c-0.1-2,0-4.1,0-6.1Zm104.2,18.6a0.5,0.5,0,0,0,.2.4l2.5,0.2,0.3-.2-0.7-3.4ZM80.8,188.8l1.4-2.8c0.2-.4.3-0.8,0.4-1.1s-2.3.3-2.4,0.6A11.5,11.5,0,0,0,80.8,188.8Zm25.7,16.3h-0.4l-2.1,4.6a0.6,0.6,0,0,0,.4.4h1.8l-0.4-.3-0.9-.8,0.9,0.3,0.3-.2C106.3,207.5,106.4,206.3,106.5,205.1ZM66.6,193.8H65.8l-0.4,8.4h0.4Zm93.1,12.8-1.8,2.6-0.4.3a1.6,1.6,0,0,0-.2.5l3-.5ZM32.3,200.8H33l0.7-3.7,0.3-1.3,1,1.3c0-1.3,0-2.3,0-3.3H34.4Zm117,9.7,1.1-4.9a0.4,0.4,0,0,0-.1-0.3H150A3.6,3.6,0,0,0,149.3,210.5ZM85.5,208l-2.1-4.9C82.4,205.7,82.4,205.8,85.5,208Zm-6.5-14H78.6c0.1,1.8.2,3.6,0.3,5.4a1.1,1.1,0,0,0,.7.3,0.5,0.5,0,0,0,.3-0.4C79.7,197.6,79.4,195.8,79,194.1Zm49.7,16.1c1.1-.3,2-0.3,2-0.6a28.7,28.7,0,0,0,.6-3.6h-0.4Zm18.2-4.4h-1c0,1.4-.1,2.8-0.1,4.1a1.5,1.5,0,0,0,1,.7,3.5,3.5,0,0,0,1.2,0l-0.2-1.4-1.6,1a15,15,0,0,1,0-2.1A22.3,22.3,0,0,1,146.9,205.7Zm45.1-.7-1.3,1a3.8,3.8,0,0,0,1.2,1.6c0.3,0.2,1-.4,1.5-0.6ZM47.4,187.7l-0.6-.2-1.9,6.3,0.6,0.2Zm10.4,3.1-1.8,2.3-0.5-.5-0.4,1.9C57.9,194.6,57.8,192.6,57.8,190.9Zm161-1.8-0.5-.5-0.2,1.5,1.1-.3,2.2-1.2,0.9-.7a1.4,1.4,0,0,0-.6-0.4,2.9,2.9,0,0,0-1,.5Zm-98.6,16.9h-0.8a25.1,25.1,0,0,0,.1,3.8,8.8,8.8,0,0,0,2.2.2v-1.6l-0.6.5-0.9.7a4.9,4.9,0,0,1-.3-1.3C120,207.5,120.1,206.7,120.3,205.9Zm94.9-14.4,1.1,0.9a7,7,0,0,0,1.1-2c0.1-.4-0.7-0.9-1-1.3ZM35.6,191l1.5-2.2,1-1.4L37.8,189h0.1l1.6-2C37.3,186.8,35.2,188.8,35.6,191Zm55.1,14.3H89.8l0.5,3.4,0.9-.3C91.1,207.5,90.9,206.4,90.7,205.3Zm120.6-2.1h0.5v-7h-0.5v7ZM53.2,198.1h0.5l0.9-6.1-0.4-.2a0.5,0.5,0,0,0-.4.3C53.7,194.2,53.5,196.2,53.2,198.1Zm-3.8,3.7H48.7L49,207h0.7Zm17.6-3.7H66.4v6.2h0.3Zm73.2,9.5-0.8-.5-1.6,2.2,1,0.6Zm-100.1-9h0.3c0.2-2.4.3-4.7,0.5-7.1a1,1,0,0,0-.3-0.4,1.1,1.1,0,0,0-.4.4C40.2,194,40.2,196.4,40.2,198.7Zm12.3-9,2.5-3.2C53.1,186.2,51.9,187.8,52.5,189.7Zm15.7-4.5-2.5.4-0.3,2a0.7,0.7,0,0,0,.1.4h0.4ZM176,208.6l0.5-.3,1.2-3.1a0.5,0.5,0,0,0-.2-0.3l-0.5.2a13.8,13.8,0,0,0-1.4,2.1A3,3,0,0,0,176,208.6Zm33.1-4.9h0.5l-0.3-5.4h-0.7ZM50.2,192.1l0.7,0.2,1.2-4.1-0.6-.2Zm78,15.1-0.5-.2-1.5,2.7a4.3,4.3,0,0,0,1.3.1A20.8,20.8,0,0,0,128.1,207.2Zm-70.6,1.9v0.6l6.4-.3v-0.3H57.6Zm17.7-.9-0.7-1.6-1.6-.3-0.6.8Zm-8.3-3L66.2,208l2.1-.4Zm-27.8-12H38.8c0,0.8.1,1.7,0.1,2.5s-0.1,2.1-.1,3.1a1.6,1.6,0,0,0,.3.6l0.2-.3C39.4,197.2,39.3,195.2,39.2,193.2Zm20.3,15.1c-3.8.7-1.5-2.9-3.1-4.1a22.7,22.7,0,0,0,.8,4.1C57.3,208.6,58.7,208.4,59.5,208.4Zm10,0.6a3.1,3.1,0,0,0-.9-0.9l-2.6.6V209h3.5Zm28.2-.9h0.6c0-.9,0-1.9,0-2.8l-0.5-.2V208ZM32,203.5H31.7c0.1,1,.2,2,0.4,3a2.6,2.6,0,0,0,.7.9l0.3-.2Zm29-6.9H60.6V201H61v-4.4Zm-25.1-8.2-0.3-.2-2,3.8,0.6,0.3Zm108.7,18h-0.5l-1.1,3.8,0.6,0.2ZM48.5,192.4H48.2l0.4,6.5H49Zm14.3-1.1,0.7,0.2,1-3.5H64Zm-17.9-1.9,0.4,0.2,1.6-2.7-0.7-.3ZM112,205.4h-0.6v3.4h0.3Zm13,1.7h-0.4l-1,2.6a0.5,0.5,0,0,0,.1.4,1.1,1.1,0,0,0,.6-0.2C124.6,208.8,124.8,207.9,125,207ZM68.7,187.7H69l1.1-1.9a4.4,4.4,0,0,0,.2-0.7H69.7Zm-21.1,2.3,1.5-2.4a1.5,1.5,0,0,0,0-.7,1.9,1.9,0,0,0-.8.2C48,187.8,47.9,188.6,47.6,189.9Zm-5.4,19.3h0.3v-4.3H42.3v4.3Zm54.6-2.4H96.5a5.3,5.3,0,0,0-.1,1.8,2.5,2.5,0,0,0,1.2.8l0.4-.2a0.3,0.3,0,0,0,0-.3H97.7a1.7,1.7,0,0,1-.6-0.6A10.5,10.5,0,0,1,96.9,206.8Zm6.2-.7h-0.3v3.1h0.5Zm-28-9.8H74.8v3.5h0.3v-3.5ZM46.9,209.6v-0.7l-2.7-.2a3.1,3.1,0,0,0,0,.5Zm138.8-3.4h-0.4l-0.4,1.7h1.3Zm-147.8.6h0.3c-0.1-.9-0.1-1.7-0.2-2.6a2,2,0,0,0-.2-0.5,1.5,1.5,0,0,0-.5.4C37.4,205,37.7,205.9,37.9,206.8ZM52,211l1-.7,0.7-.7a4.6,4.6,0,0,0-1.1-.5,0.8,0.8,0,0,0-.7.4A7,7,0,0,0,52,211Zm122.3-3.9-0.5-.2-1.3,1.7a2.2,2.2,0,0,0,1.2,0A4.6,4.6,0,0,0,174.3,207.1ZM78.9,189.8H78.4l-0.3,2.7h0.7v-2.7Zm-9.8,15.9h0.3v-4.4H69.1v4.4ZM34.2,192.8l-0.5-.2-0.9,2.8,0.5,0.2Zm87.2,12.5h-0.6c0,0.8,0,1.7,0,2.5h0.3Zm-10.5,2.6h-0.5l-0.6,1.5a2.4,2.4,0,0,0,1.1-.1A4,4,0,0,0,110.9,207.9Zm-28-.1,0.8-.8-1.9-1.1-0.2.3ZM56,208.9l-1.3.6a1.4,1.4,0,0,0,.6.3l1.5-.3Zm13.8-.6a2,2,0,0,0,.6.5l1.2-.4-1.1-.6A2.1,2.1,0,0,0,69.8,208.3Zm47.6-2.5h0.5l0.4-2.1h-0.6Zm-43-3.3H73.7c0,0.7,0,1.4,0,2.1h0.3Zm114.7,5,0.2,0.4,1.5-.2-0.5-1Zm-80.6-1.4h-0.2c0,1.1,0,2.2,0,3.3h0.3a0.3,0.3,0,0,0,.2-0.3C108.7,208.1,108.6,207.1,108.5,206.1Zm39.1,0.5h-0.3l-0.6,2.6h0.5ZM40.9,187.2l-0.5-.2-0.8,2.6h0.2Zm0.8,15.7H41.4v3.4h0.2v-3.4Zm170.7-9.5a8.9,8.9,0,0,0,1.1-1.6,2.7,2.7,0,0,0-.5-1.1ZM46.8,200.5H46.3l0.5,2.3h0.4Zm3.5-11.6h0.2l1.2-2.1-0.5-.2Zm72.5,17.7h-0.5c-0.1.6-.1,1.3-0.2,1.9l0.3,0.2Zm85-4.1h0.3V200h-0.3v2.5ZM96,206.3h0.5l-0.3-2H95.7Zm83.9,0h-0.3l-0.7,1a3.3,3.3,0,0,0-.2.8h0.4Zm-83.4-4.9H96.2c0,0.8,0,1.5,0,2.3h0.3c0-.6,0-1.1,0-1.7S96.5,201.7,96.5,201.4ZM64.9,185.7a3.8,3.8,0,0,0-1.4.3,2.8,2.8,0,0,0,.1,1.2Zm5.7,2.3-0.5-.2-0.7,1.8,0.4,0.2Zm80.1,22.5h1.2l-0.3-1.5ZM45.4,194.5H45.1l-0.2,2.8h0.3Zm163.1-6.6h0.4l0.6-1.4h-0.6ZM137.4,205h0.4l0.4-1.8h-0.3ZM84.2,185.7l0.4,0.4,1.1-1-0.3-.3Zm-12,18.8h0.5l-0.2-2.1H72.1v2.1Zm-19.5-4.4H52.5v2.7h0.3v-2.7Zm101.1,6.6h-0.4l-0.6,1.7h0.4Zm-92-4.3H61.4v2.3H62Zm-15.4,8.2v-0.2H44.1v0.4Zm94.4-.5h0.3l-0.5-1.8h-0.3v1.1h0.3v0.8ZM71.3,183.7l0.2,0.5,1.2-.6v-0.4Zm-2.7,8-0.4-.4-1.1.9,0.3,0.3Zm10.5,16.5v-0.3H77.2V208Zm15.7-1.9H94.5a5.1,5.1,0,0,0,0,1.2,4,4,0,0,0,.8,1ZM32.5,193.5l-0.4-.2-0.6,1.6h0.3ZM58,206.9h0.4l-0.5-1.7H57.6Zm130.4-.8h-0.2l-0.9,1.3,0.3,0.4Zm-20.4,2.4,0.4,0.2,0.6-1.4-0.4-.2Zm-67.1.3-0.2.2a3.7,3.7,0,0,0,.7.8,1.3,1.3,0,0,0,.7-0.2Zm117.4-7.9-2.2-.4a9.3,9.3,0,0,0,1.6.8A1.3,1.3,0,0,0,218.3,200.9Zm-124.4,7a2.6,2.6,0,0,0,0,1,4.5,4.5,0,0,0,1.3.2ZM44.4,187.2l-0.4-.3-0.8,1.2,0.3,0.2Zm16.7,19.7-0.4-.2-0.5.8,0.6,0.3Zm1.9-3.3h0.3l0.2-2.4H63.2Zm81.9,5.7-0.4-.2-0.4,1.2h0.3Zm28.2-2.8,0.4,0.2,0.6-1.1-0.3-.2Zm-66.1,3,0.4,0.2,0.5-.9-0.2-.3Zm74-1.5a2.6,2.6,0,0,0,1.1-.2,2,2,0,0,0-.1-0.9ZM51,202.6H50.7v1.7h0.3v-1.7Zm-2.7,4.5H47.9l-0.2,1h0.5v-1Zm25.8-6.7H73.8v1.2h0.4C74.2,201.2,74.2,200.9,74.1,200.5Zm133.7-2.7h-0.3V199h0.3C207.8,198.5,207.8,198.1,207.8,197.8ZM48.7,209.5l0.2-.4-0.9-.4v0.3Zm15.1-16.8-1.1-1-0.4.5Zm7.4,13.1h0.3l-0.2-1.3H70.8Zm-36.2-5.4h0.3v-1.9H35v1.9Zm35.3,7.2,0.2-.3-1-.5v0.2Zm-28.7.7h0.3l-0.3-1.1H41.1Zm95.2-3.1h0.3v-1.2h-0.3v1.2Zm-92.8,1.3H43.6L44,208h0.3Zm36.2-.1h0.2v-1.4H80.1v1.4Zm80.7,0.5h0.3c0-.5,0-0.9,0-1.4h-0.2V207ZM50.4,207H50.1v1h0.3C50.5,207.6,50.5,207.3,50.4,207ZM80,203.4h0.3v-2Zm-24.5,4.1h0.3l-0.2-.9H55.3Zm-7.6-1H48v-1.3H47.9v1.3Zm91.7-.1,0.3,0.2,0.6-1.1h-0.2ZM35.7,209.1H35.5l0.7,1,0.3-.2Zm22.6-17.6h0.2l0.4-1.2H58.7Zm20.2,13.9-0.3.2,0.5,0.7,0.2-.3Zm-25.1,3.1v-0.3l-1.3.2v0.2h1.3Zm39.5-1.3H92.7v1H93v-1Zm-31-18.3h0.3l0.3-1.3H62.3Zm-31,13.5H31v-1.8H30.9v1.8ZM178,207.2h-0.3l-0.3.8h0.3ZM76.7,188.4l0.3,0.2,0.4-.9H77.2Zm15.2,19.7H91.6v0.7h0.4Z" transform="translate(-30 -0.1)"/><path d="M253.6,5.3c3.3,5.3,3,11.2,3,17.1s-3,9.3-5.4,13.5c-0.8,1.4-2.9,2-4.4,2.9l1.2,1.2,1.4-1c-4.1,3.1-5.5,7.7-7.2,12.2l-0.6-.4,0.4,4.9-0.5-.2c1,3.2,2.3,6.1,2.9,9.2a42,42,0,0,1,.3,8.9c-0.4-3-.7-6-1.3-9s-1.6-5.9-2.6-9.4a4.2,4.2,0,0,0-.5,1.2A49.6,49.6,0,0,1,243,77.8l0.6-8.1,0.6,9.2h0.3L245.3,65a1.4,1.4,0,0,1,.4.7c-0.2,4.6,0,9.4-.9,13.9a166.6,166.6,0,0,1-5,18c-0.8,2.6-2.3,4.9-3.5,7.4a1.6,1.6,0,0,0,0,1l2.5,9.3a0.9,0.9,0,0,1-.2.5h-0.3a4.8,4.8,0,0,1-.2-0.7l-0.9,7.6h-0.4l0.7-6.9h-0.3c-0.4,1.6-.4,3.4-1.2,4.8-2.3,4.5-5.2,8.6-9.9,11.1-0.7.3-.6,2.2-0.8,3.3s-1,5-1.4,7.6q-0.9,6.5-1.7,13a59.7,59.7,0,0,0-.7,9.1c0.2,5.4.8,10.7,1.3,16.1,0,0.5.2,1,.3,1.5l-0.2.2a1.3,1.3,0,0,1-.5-0.5c-0.5-5.6-1.4-11.3-1.3-16.9,0.2-7.3,1.3-14.7,2.1-22,0.4-3.2,1-6.4,1.6-9.6,0-.1,0-0.3,0-0.1l-4.4,2a1.1,1.1,0,0,0-.2.8c0,1.3,0,2.7-.1,4s-0.3,3.1-.5,4.7a68.2,68.2,0,0,0-.4,8.5l0.4-.8c-0.2,3.1-.6,5.9-0.6,8.6s0.4,5.5.6,8l-0.4-.2c0.2,1.9.2,3.8,0.5,5.6s0.8,3,1.1,4.4a0.9,0.9,0,0,1-.6.2,1.5,1.5,0,0,1-.5-0.4l1.3,4.4h-0.6l-2.5-10.9H218l0.8,3.6h-0.2V146.6h-0.4c-0.3,4.1-.8,8.1-0.8,12.2s0.4,8.1.3,12.2l-0.6-12.2h-0.4v6.4h-0.3l-0.6-7.8-0.6,1.8h-0.2c0.1-.8.1-1.6,0.2-2.4,0.2-3.2.3-6.4,0.6-9.6s0.8-5.6,1.2-8.4c0.1-1.1.2-2.1,0.3-3.2a0.7,0.7,0,0,0-.5-0.5,1.8,1.8,0,0,0-.7.3l0.4,0.2-0.5,4.9c-0.4,3.9-.9,7.9-1.1,11.8a97.7,97.7,0,0,0,.2,10.8,80.8,80.8,0,0,0,1.3,11c0.5,2.4,1.8,4.7,2.7,7l0.3,0.7-0.2.2a3.1,3.1,0,0,1-1.2-1,80.3,80.3,0,0,1-2.4-8.8,108.8,108.8,0,0,1-1.6-12.7,71,71,0,0,1,.5-9.2c0.3-4.4.7-8.9,0.9-13.3,0-.6-1.4-1.3-2.1-1.9a8.8,8.8,0,0,1-3.4-7.5,11.3,11.3,0,0,1,.3-2.6l0.7,6.9H212c-0.2-1.2-.5-2.5-0.5-3.7a22,22,0,0,1,0-3.9,6.7,6.7,0,0,1,.8-2.1l0.6-1.7h0.2l-0.2.9,3.5-4.9,0.3,0.2-2.7,4.4,0.4,0.2,0.9-1,4.6-5.4a1.5,1.5,0,0,0,0-1.1c-0.3-.9-0.6-1.8-0.9-2.8a14.1,14.1,0,0,0-2.8,1.9,50.4,50.4,0,0,0-5.8,6.8c-1,1.6-1.3,3.7-1.6,5.6a16.8,16.8,0,0,0,0,3.4c-1-1.2-.9-6.2.4-8.4s3.4-4.9,4.8-7.5c0.4-.7-0.3-2-0.7-2.9-1.5-3.5-3.1-7-4.7-10.6l-2.2-5h-0.6l1.7,8.9a3.2,3.2,0,0,1,0,.5,1,1,0,0,1-.4-0.3c-0.4-2.8-1-5.6-1.2-8.4a40.3,40.3,0,0,1,.4-6.4,14.6,14.6,0,0,0,.3-2.2l-0.8,2h-0.3l3.6-8.3h-0.3l-0.3.4-0.6.8-0.2-.2a3.6,3.6,0,0,1,.6-1.1c0.5-.5,1.6-1,1.6-1.5a5.5,5.5,0,0,0-.9-2.9,19.6,19.6,0,0,0-2.3-2.6l-0.2-.2c-2.6-.2-1.6-2-1.2-3.2a70.1,70.1,0,0,1,3.3-9.9c1.5-3.4,3.7-6.4,5.4-9.7,0.3-.6-0.1-1.7-0.4-2.5-1-2.7-2.9-5.2-3.1-7.9a25.9,25.9,0,0,1,1.2-9.5,41.6,41.6,0,0,1,4.2-9.7,12.4,12.4,0,0,1,7.2-5.9c1.2-.3,2.7.4,3.6,0.6,1.4-2.7,2.6-5.7,4.5-8.1s4.5-4.3,7-6.2c-2.9,3.4-7.4,5.4-8.1,10.5h0.1a32.7,32.7,0,0,0-2.1,4.4c-0.2.6,0.5,1.4,0.8,2.2a9,9,0,0,1,.1.9c0.1,0.5.3,1.1,0.4,1.6a6.9,6.9,0,0,0,.9-1.3,11,11,0,0,0,.4-2.1v1.2l3-7c-0.9,4-4.2,7.6-2,12.4l0.8-3.8-0.6,7.7c-0.2-1.2-.5-2.8-0.9-4.3a1.6,1.6,0,0,0-.7-0.4v-1h-0.4a2.9,2.9,0,0,0,0,.8h0.4l-2.3,15h0.5l0.7-2.8v8.9c3.6-4.9,3.4-10.1,3-15.4,0.1,1.1.2,2.2,0.3,3.3s0.2,2.2.3,3.4l0.4-.4a63.5,63.5,0,0,1-1.4,6.7c-0.3,1-1.5,1.8-2.1,2.7a7.8,7.8,0,0,0-.5,2.1c0,0.3,0,1.1,0,1.9l0.3,0.2,0.4-.3a8.2,8.2,0,0,1,1.6-1.8l3.1-7-0.2,2.9h0.4l2-7.5-0.5,4.3h0.3l1.6-8h0.3l-1,11h1l2.9-11.9-0.2,2.7a33.5,33.5,0,0,1-.3,4.3,13.1,13.1,0,0,1-1.2,2.3,16.1,16.1,0,0,0-.6,2.2c1-.3,2.2-0.2,2.9-0.8a17.2,17.2,0,0,0,2.6-3.3,2.4,2.4,0,0,0,0-1c4-3.4,5-8.4,6.2-13.3l-4,8.1c1.2-3,2.5-6.3,3.7-9.6s1.4-4.9-.7-7.3v0.2l-1-.8c-0.1.5-.2,1-0.3,1.4a56,56,0,0,1-1.2,7c-0.3,1.2-1.6,2.1-2.4,3.1h0l0.8-1.7h-0.7c1.9-2,2.5-4.5,2.7-7.1s0.2-5.7.2-8.5a3.8,3.8,0,0,0-.7-1.4h0l1.5,1.3c-0.1,1.6-.2,3.2-0.2,4.8a0.8,0.8,0,0,0,.4.6,1.2,1.2,0,0,0,.6-0.3c3.8,3.3,2.4,7.5,1.5,11.6s-1.5,5.2-2.3,7.8c2.7-1.7,4.9-3.8,4.7-7.4l0.6,0.2a30.2,30.2,0,0,1-1,4.3,35.1,35.1,0,0,1-2.2,4l-2.2,4c3.4-.7,9.7-17.2,7.4-19.9l-0.4,2.1c1.5-6.5-3.3-10.5-6.3-15.2l5.6,6.9-1.9-3.2a1.8,1.8,0,0,1-.1-0.6L253,8.4a58.9,58.9,0,0,0,3.2,5.5c-0.4-1.6-.7-3.1-1.2-4.7s-1-2.6-1.4-3.9h0ZM233.5,45.8l0.4-2.6h-0.3l-1.4,5h0.2l1.1-2.4L233.2,47l-0.2.8c-0.8,2.1-2,4.1-3,6.2a1.9,1.9,0,0,0,.4,1.1h0.4c0.6-1.1,1.1-2.2,1.6-3.4s1.3-3.6,2-5.3l0.5-.9-1-.4Zm-2.9,71.5a11.4,11.4,0,0,0,.2-2.2,23.2,23.2,0,0,0-.6-2.8c-0.8,1.1-2,2-2.4,3.3s0.1,2.8,0,4.2-0.3,4.2-.5,6.3H227V115.5l-0.7.5c-1.5.5-2.2,1-1.6,2.9a20.2,20.2,0,0,1,.9,6.3c0,1.6-.6,3.3-1.1,5.5l1.7-1.6-0.6,1.5a11,11,0,0,0,2.4-1.6,17.7,17.7,0,0,0,1.8-2.9c1.1-1.5,2.4-9.9,1-10.7Zm9.8-65.1-2,4.4a8.9,8.9,0,0,1-.1-4.6c1-3.1,2.2-6.2,3.5-9.6l-2.2,1.1c-0.6.4-1.4,0.7-1.5,1.2s-0.2,3.8-.4,5.7c-0.3,3.4-.7,6.8-1.2,10.2-0.2,1.7-.5,3.3-0.8,4.9h0.2l0.4-1.2v4.3h0.4l0.6-2.8h0.2l-0.9,5.1,0.8-.6c1.2,3.5-1.3,22.2-2.8,22.7l1.9-11.9H236c-0.6,3-1.1,6-1.9,9s-1.6,5.7-2.4,8.6h0.3l1-1.8a4.4,4.4,0,0,1-.3,1.4l-0.4,1.3c3.7-6.7,7.1-13.4,8.1-21.1,0,0.7-.2,1.3-0.2,1.9a15.4,15.4,0,0,0,.3,2.2c2.1-7.4.1-14.2-.4-21v4.3h-0.3v-5h-0.5v3.7a43,43,0,0,1,.5-8.7c0.2-1.4.4-2.8,0.7-4.2a1.4,1.4,0,0,0,.6-0.4l1.7-5.9,0.2,1.5,5.2-8.8-0.2-.2-4.6,6.4-0.4-.2,4.4-6.3c-6.1,3.5-6.8,9.5-8.4,15.1a7.7,7.7,0,0,0-.1.8h0.3l1.9-4.3Zm-13.8,48.2-3-3.6,0.3,0.2-4.7-13.3-0.6,1h0V74.3a17.4,17.4,0,0,0-.5,5.3c0,0.2,0,.5,0,0.7H218a3.3,3.3,0,0,1-.2-0.9c0-.6,0-1.3,0-2a10.7,10.7,0,0,0-1.8,2.6c-0.5,1.6-.5,3.4-0.9,5s-0.6,5,1.4,7.1a1.2,1.2,0,0,1,.1.5,1.4,1.4,0,0,1-.7-0.2l-1.3-2-0.7.2,2,10.4h-0.1l-0.6-3.3c-1,2.1.7,8.5,2.2,9l-1.7-5.1a63.2,63.2,0,0,1,2.7,7,1.4,1.4,0,0,0,.5.4,1.7,1.7,0,0,0,.2-0.7c-0.1-.6-0.3-1.2-0.5-1.8s0.6,0.2.6,0.3,0.7,1.9,2,1.1,0.9,0,1.2-.2,2.2-1.3,2.4-2.2-0.7-2-1.2-2.9a28.7,28.7,0,0,0-1.8-2.5h0l3.5,4.2a0.6,0.6,0,0,0-.1-0.3L219,94.4a1.6,1.6,0,0,1-.1-0.6l0.5,0.3c0.5,0.9,1,1.9,1.6,2.7l5.4,7.6c1.6-.9,2-1.8.8-2.9a4.6,4.6,0,0,1-.6-1L228,102a1.9,1.9,0,0,0,0-.7l-1-1.4h-0.5v0.6Zm-8.5-71h0c-0.3,1.2-.7,2.4-0.9,3.7-0.5,2.8-1.2,5.6-1.4,8.5-0.1,1.3.4,2.7,0.7,4.3l1.1-1.7,1.8-2.8h0c-0.5,2.3-3.2,3.9-1.7,6.9l5.8-17.8a10.2,10.2,0,0,1-.3,3.7c-1.1,3.2-2.3,6.3-3.5,9.4s-1.9,4.3-2.9,6.4l-0.5.2V50l0.5-2.6-0.7-.2c-0.7,1.8-1.3,3.6-2.1,5.4s-2.4,4.7-3.3,7.2-2.3,7.1-3.3,10.7,0.8,4.7,1.7,4.9l5.2-18.3c0,2.3-.7,4.4-1.1,6.5s-0.4,4.4-.6,6.6h0.6l0.7-3.7a5.8,5.8,0,0,1-.2,2.5c-0.6,1.7-.4,3.3,1.1,4.4a1,1,0,0,0,.7,0c0.5-1.4.9-2.8,1.4-4.2l1.2-4a0.5,0.5,0,0,1,.2.6c-0.8,2.4-1.6,4.8-2.2,7.2-0.2.8,0.3,1.7,0.5,2.6h-0.3l-0.7-.4v1.1h-0.2L215,80.8l2.7-4.6c0.4-3.6.9-7.4,1.3-11.3a5.1,5.1,0,0,0-.2-1.3h0l1.6-6.1h-0.3l-0.7,1.1h0.4l7-20.6-0.6,3h0.6l1.1-4.9-0.7-.2-0.3.8L226,23.7l0.6,0.2c-0.1-1.2-.1-2.2-0.2-3.3A1.1,1.1,0,0,0,226,20l-1.9.7a2.2,2.2,0,0,0,.2.6l1.1,1.7-3.2-2.3,1-.3c2.3-.4,3.8-2.1,3.5-4a2.6,2.6,0,0,0-1.1-1h-0.5a1.6,1.6,0,0,1-2.2-.3c-3.2,1-9.3,7.5-8.1,8.7-3.9,3.5-5,19.8-1.4,21.9l-0.4-5.2h0.4v2.7l0.5-.6,0.3,6.9,0.9-1.3c1.3-1.6.3-3.3,0.4-5,0-3.5.6-6.9,0.9-10.4a3.5,3.5,0,0,0-.3-1.4l-0.4-.2a8,8,0,0,0-.4,1.2l-1.2,6c-0.8-2.3,2.2-12.6,4-14a26.1,26.1,0,0,0-1.6,3.6,18.2,18.2,0,0,0-.3,3.4h0.5Zm9.9,10.1-0.5,1a78.6,78.6,0,0,1-2.3,7.8c-1.3,3.3-3.4,6.3-4.4,9.7a50,50,0,0,0-1.9,10.7,70.8,70.8,0,0,0,0,10.5,35.3,35.3,0,0,0,1.3,5.8h0.7c-1-8.2,1.6-15.8,3.8-23.4l-0.8,3.7h0.2l4-10.9h0.3L227.4,59h0.1l-3.9,10.9,0.5,0.2,1.6-3.6h0.1l4.3-10.2-0.5.4L228.1,52l-1.3,3-0.2-.2-1.4,1.4c1.4-3.2,4.4-5.4,3.3-9.3l-0.4.5V39.6ZM212.5,93.3h-0.3l1.1-9.2-0.8-.2L210,91.2c0.5-2.3,1.4-4.6,2-6.9s0.5-2.7.8-4L212,80a27.1,27.1,0,0,0-2.7,3c-3.7,5.5-3.3,11.1-.4,16.7a4.7,4.7,0,0,0,.8.9,8.6,8.6,0,0,0,.2-1.2c0-1,0-2,0-2.9l-0.2.2,2.9,8.9h-0.2l-1.7-3.7a2.5,2.5,0,0,0-.3,2.2c1,1.9,2.2,3.6,3.2,5.5s1.7,2.7,3.4.7l0.6-.3a1.2,1.2,0,0,0,.4-2.1c-2.4-1.9-2.9-4.5-3.1-7.3s-0.5-7.9-.8-11.8a3.9,3.9,0,0,0-.5-1.1,2.7,2.7,0,0,0-.5.8C212.9,90.1,212.7,91.7,212.5,93.3Zm17.2-23.8-0.2,1.1c-0.6,3.4-1.3,6.7-1.7,10.2s-0.2,5.1-.4,7.6a9.2,9.2,0,0,0,2.3,6.6,15.6,15.6,0,0,0,0-2.1,21.3,21.3,0,0,1-.7-3.9c0-1.3.7-2.5,0.9-3.8,0.5-3.6,2.5-6.4,4.1-9.4,0.8-1.4.8-3.2,1.2-4.9l-0.7-.2-0.6,1.6c-0.2.5-.3,1.1-0.5,1.6a13,13,0,0,1-.7,1.3c2.3-4.5,2-8.5-1.7-12.3l-2,7.1h0.4Zm5.7,5.4H235a78.6,78.6,0,0,0-3.9,8.3,34.3,34.3,0,0,0-1.4,7.8,18.8,18.8,0,0,0,.5,4.8,3.6,3.6,0,0,0,1.1,1.3c0.2-.4.4-0.8,0.5-1.2a22.6,22.6,0,0,0,.7-2.3c1-4.3,2-8.7,2.8-13.1A33.4,33.4,0,0,0,235.4,74.9Zm-17.1,50.5a6.1,6.1,0,0,1,.5,1.4c0,1.9,0,3.9,0,5.8s0.1,1.5.1,2.2h0.4c0.2-.8.3-1.5,0.4-2.3s0.1-1.8.2-2.8c0.2,1.5.2,3,.2,4.4a0.8,0.8,0,0,0,.6.5,3.7,3.7,0,0,0,3.4-4.8l-0.3-.7-1-3.4-0.7.5-1.3-3.9,0.3-.2-0.5-1.2-0.6.5c-1.9,1.7-2.2,3.9-2.2,6.2s0,2.4,0,3.7h0.6v-6Zm19.3-76.7-0.5-.2-0.4.8c-1.1,2.5-2,5.2-3.3,7.6s-1.8,6.7.3,8.9l0.4,0.3a1.4,1.4,0,0,0,.2-0.4c0.2-1.6.3-3.1,0.4-4.1l0.2,1.1a16.7,16.7,0,0,0,1.4-5.1c0.2-1.6-.2-3.2,0-4.7A26.2,26.2,0,0,1,237.6,48.7Zm-9,80.4,0.6,0.2c0.6-1.2.9-2.7,1.8-3.4,3-2.3,3.5-5.8,4.6-9a7.4,7.4,0,0,0-1.7-7.7h-0.3a0.6,0.6,0,0,0-.2.4c0.2,1.9.5,3.8,0.6,5.6a29.1,29.1,0,0,1-.2,3.7h-0.5v-9.2h-0.9C233.5,116.5,233.1,123.2,228.6,129.1Zm6.5-24.5c3.5-2.2,10.3-26.3,8.7-28.2-0.9,3.7-1.6,7.5-2.8,11.2s-3.1,8.7-4.6,13Zm-8.4-13L228,71c-2,3.7-3.6,19.5-1.4,21.3V91.5h0.1ZM212.7,63.2a39.8,39.8,0,0,0-1.2,4.8c-0.3,2.9-2.4,5.7-.3,8.7l0.6,0.7a3.2,3.2,0,0,0,.4-1c0.1-2.5,0-5.1.1-7.6S212.5,65.5,212.7,63.2Zm18.8-4.6a1.4,1.4,0,0,0,.7-0.2,47.8,47.8,0,0,0,5.5-14.6L237,44.9l-0.3-.2Zm-5.9,49.4v-1a3.5,3.5,0,0,0-1,.3l-3.3,2.6a0.7,0.7,0,0,0-.2.6l1.9,2.4,3.3-4.1-0.3-.4,0.3-.8Zm-3.8-23.2c-1.4,2.1,2.3,12.9,4.1,13.3ZM236,97.9l0.6,0.2,3.3-10v0.4h0.2l0.7-2.1-0.6.7-0.3-2h-0.6Zm-23.6,31.7c-0.2,1.1-.8,2.5-0.4,3.6s1.7,1.9,2.7,3.1c0-1.4.1-2.3,0-3.1a23.5,23.5,0,0,0-.5-2.4h-0.8l1-2.8a6.3,6.3,0,0,0-1.2,1.9Zm-1.9-71.1-0.5-.2c-1,2.5-2.2,4.9-3,7.4a41,41,0,0,0-1.2,6,2.1,2.1,0,0,0,.7.8,1.1,1.1,0,0,0,.4-0.4c0.5-2.6.9-5.2,1.6-7.7S209.8,60.4,210.5,58.5Zm14.9,17.4h-0.2a35,35,0,0,0-.9,5.2c-0.1,2.6.2,5.3,0.3,7.9a2,2,0,0,0,.4.7,2.6,2.6,0,0,0,.2-0.7c0-2.5-.1-5-0.1-7.5S225.3,77.8,225.4,75.9Zm-12.5,2.9,0.7,6.2h0.7l0.6-6.4a1.1,1.1,0,0,0,.1-0.2l-0.2-.7-2.2,1.1h0.3Zm31-39.7,0.8,0.7,6-7.4-0.8-.6Zm-19,81.1h-0.3c-0.5,1.3-1,2.7-1.4,4a1.5,1.5,0,0,0,.2.7h-0.1l1.1,2.9h0.6v-7.4Zm2.4-78.1-0.7-.3L222,53.4l0.7,0.3Zm-10.4,85.6h-0.3c-0.4,1.3-.8,2.5-1,3.8a3.8,3.8,0,0,0,.3,2.1,5.1,5.1,0,0,0,1.3,1.3,3.7,3.7,0,0,0,.4-1.3C217.4,131.6,217.1,129.6,216.8,127.7Zm7.5-10-0.8-.3c-0.7.8-1.9,1.6-2.1,2.5s0.7,2.2,1.1,3.3h0.2Zm-7.5,28.8h0.4c0.4-1.8.8-3.5,1.1-5.3s0.7-3.6,1-5.4a1.4,1.4,0,0,0-.3-0.6,1.9,1.9,0,0,0-.8.6c-0.3,1.9-.4,3.8-0.7,5.6S217,144.9,216.8,146.6Zm-2.5-70.8a13.2,13.2,0,0,0-1.5,1.3,1.8,1.8,0,0,0-.2,1l0.4,0.2c0.6-.7,1.8-1.4,1.8-2a14.3,14.3,0,0,0-1.1-3.9h-0.7l-0.5,4Zm21.4-1.3H237c-0.1.3-.1,0.5-0.2,0.8l-0.6,5.4c1.6-1.4,1.4-8.2,0-10.1Zm5.7-5.6h0.7l-1.5-10.9h-0.9Zm-11.2-7.4-0.6-.2-3.3,12.6h0.5Zm-7.2,14.9h-0.7l0.5,7.3h0.7l0.7-5.4-0.4.5Zm9.1,34.2c-1.5.6-1.3,5.8,0,7.4v-7.4Zm-8.2-33.8,2.2-8.2C224.5,71,222.6,73.2,223.9,76.6Zm-8.2,48.9,5.4-7.8C217.7,119.2,216.8,122.3,215.7,125.5Zm26.6-57.1h-0.4V78h0.4V68.4ZM230.4,56.6l0.5,0.2,4.2-9.3-0.5-.2ZM226.7,93l-0.4.2,2.7,5.4,0.7,1.1a4,4,0,0,0,0-1.7C228.7,96.3,227.7,94.6,226.7,93Zm-1,.7-0.6.3,3.3,6.7,0.7-.4Zm9.5,12.4,1.5,9C237.5,114.3,236.8,107.9,235.2,106.1Zm-18.2,41h-0.8l-0.6,8.5H216Zm4-34.4a1.2,1.2,0,0,0,.2-0.4,11.9,11.9,0,0,0-.6-1.6,1.2,1.2,0,0,0-.7,0,3.6,3.6,0,0,0-.1,1.3,12,12,0,0,0,.6,1.5,9.3,9.3,0,0,1,.3,1.1l1-1.4a1.8,1.8,0,0,0,0-.8Zm8.3-88.1-1,1.4-0.6-.3,0.8,2.8H229l0.5-7.3h-0.4L228.7,25Zm0.2,28,0.7,0.2,2.5-6.5-0.5-.2Zm-2.3-24.1h-0.8l0.7,5,0.2,0.2a1,1,0,0,0,.3-0.4C227.5,31.7,227.4,30.1,227.2,28.4Zm-10.5,92.9h-0.3c-0.7,1.3-1.4,2.7-1.9,4.1a9.5,9.5,0,0,0-.3,2.2l1-1.9v-0.2Zm6.3-8,0.4,0.4,3.4-3.8-0.5-.5Zm0.8-25.9h-0.4l1.1,5.1,0.7-.2ZM221.4,117l-1.1-1-3.3,3.8,0.2,0.2Zm-8.2,6.3a1.5,1.5,0,0,0-.7.4c-0.2,1.2-.4,2.5-0.6,3.8a1.4,1.4,0,0,0,0,.5h0.2l0.2-.5Zm17.1-18.6-1.2-1a11.5,11.5,0,0,0-1.1,1.7,2.2,2.2,0,0,0,.6.9Zm-2.7-84.1h0.7V17.3h-0.6v3.3ZM227,111l0.6,0.4,1.6-3-0.6-.3Zm-15.5-32-0.6-.5-2.4,3.3L209,82ZM227,112.1l-0.2-.2-3.1,1.8a1.5,1.5,0,0,0-.4.6l0.3,0.2Zm4.2-5.7-0.5-1-1.5,2.2a2.3,2.3,0,0,0,.5.6Zm-1.1,5.4-0.3-.4-2.2,1.6a1.5,1.5,0,0,0,0,.8l0.5-.2Zm-1-61,0.5,0.2,1.5-3.5-0.4-.2Zm-0.5-30.1h-0.5l-0.4,4.5h0.4Zm-9.5,120.1h-0.4l-1.1,5.1h0.3Zm11.2-83.2-0.4-.2-1.3,3.2,0.5,0.2Zm-9.7,58.6,0.5,0.5,1.7-1.9-0.5-.2Zm-4.4-4,0.2,0.2,2.2-1.6a0.5,0.5,0,0,0,.1-0.4l-0.4-.2Zm-1.7,17.3,0.5,0.2,1.3-3.8h-0.3Zm-0.7-5.5,0.4,0.2,1.4-3-0.4-.2Zm13.5-88h0.6V33.1h-0.4Zm9.1,63.7h-0.3l-1.9,3.7,0.4,0.2ZM214.8,84h-0.2c-0.2.7-.5,1.4-0.7,2.1a2.1,2.1,0,0,0,.2.9,2.7,2.7,0,0,0,.4-0.7C214.6,85.4,214.7,84.7,214.8,84Zm20.6-13.8h0.3c0-1,.1-2,0.1-3l-0.2-.3a0.9,0.9,0,0,0-.3.3C235.3,68.2,235.3,69.2,235.4,70.2Zm1.7-26.4h0.6l-0.3-2.1h-0.3v2.2Zm-9.2,62.3-0.6-.2-0.6,1.6a1.2,1.2,0,0,0,.6-0.1A9.1,9.1,0,0,0,227.9,106.1Zm8.2-10.5h-0.4L235,98.2h0.5Zm-15.7,22.7,0.6,0.6,2.3-2.3-0.8-.8Zm6.4-9.3,0.3,0.2,1.4-2.1-0.4-.2Zm-3.9-22.4h0.3V84.3h-0.5ZM228,63.8l1.5-2.9h-0.2l-0.8,1.3-0.3-.6Zm-2.3,51.1,0.3,0.4,1.2-1.1-0.5-.5Zm8-8.9,1.3-.2-0.5-1ZM216,120.2l0.2,0.2,1.8-2.3-0.2-.2Zm26.8-41.9h-0.3l-0.6,3.9H242Zm-7.9,29h-0.5l0.4,1.6H235ZM228,30.1h0.4l-0.3-2.4h-0.3Zm7.8,11.6h0.4l0.3-1.8H236Zm-6.8,9.5h-0.4l0.2,1.7H229V51.1ZM211.1,77.6l-0.9-1a0.8,0.8,0,0,0-.2.3l0.7,1Zm19.2,32.6,0.3,0.3,1.2-1.1-0.2-.2Zm3.9-9.8h0.4l0.4-1.3-0.3-.2Zm-6.9,5.4-0.4-.5-0.6.7a1.2,1.2,0,0,0,.3.4Zm7.4,15.7H235l0.8-2.2h-0.3Zm16.8-86.6h-0.2L250,36.6h0.2ZM240.7,56l0.4-.2-0.4-1.2-0.4.2Zm-21.6,54.4,0.4,0.2,0.5-.9h-0.4Zm0.5,28.2h0.3l0.4-1.7H220Zm20.6-55.9H240l-0.4,1.9h0.3Zm-18.6,26.2-0.2-.3-1,.7,0.2,0.3Zm9.8-47h-0.3l0.3,1.2h0.3Zm0.1,40.1h0.3l0.3-1.1h-0.3Zm3.3-55h0.3l0.4-1.2h-0.2ZM231,100.8h0.3l0.2-1h-0.3Zm-0.1-2.5,0.3-.2-0.6-.9h-0.2Zm3.3,5.8H234l-0.5,1.1h0.3Zm-8.7-.8a6.1,6.1,0,0,0,.5,1.2h0.5Zm7.7,4.5-0.4-.3a0.5,0.5,0,0,0-.3.3,1.2,1.2,0,0,0,.3.4Zm-6-82.9h0.2V23.5h-0.2v1.4Zm0.1,43.4H227l-0.3,1.4h0.2Zm-8,47.7,0.2,0.3,0.8-.6v-0.2Zm-6.2,9.7h0.3l0.2-1h-0.3Zm4.1,26h-0.2V153H217Zm11-21.8-0.5-.4-0.7.8,0.4,0.3Zm1.8-26h0.3l-0.3-.8h-0.3ZM231,108l0.3,0.2,0.5-.7-0.2-.2Zm-5.4-9.4-0.2.2,0.6,0.7,0.2-.2Zm-12.6,29h0.2l0.3-1.2h-0.2Zm-3.4-25.6h0.2l-0.2-1h-0.3Z" transform="translate(-30 -0.1)"/><path d="M244.7,25.8l-1.3,1.4-2.4,2.6c0,0.3,0,0,0-.2a4.4,4.4,0,0,0,.1-0.8,2.9,2.9,0,0,0-.3-0.7,2.1,2.1,0,0,0-.3.6c-0.3,2.8-.6,5.6-0.8,7.6l-2.3-22.6h-1l1.8,11.8h0l-1-2.6a0.8,0.8,0,0,0-.3-0.5l0.5,4.7-2.8-14.7h-0.2l-0.4-.2,2.9-5.4h0L236,9.5l0.8,0.4c0.5-4.4,4.2-4.8,7.2-6.1h-0.4l-2,1.1,1,0.9a50.1,50.1,0,0,1,3.8,5.2c-1.2-1.4-2.4-2.8-3.5-4.3s-2.7-1-3.4.4a14.7,14.7,0,0,0-1.7,5.6c-0.1,2,.8,3.9,1.2,5.9a29,29,0,0,1,.2,3.4l1.1-1.2L240,19.5h0.5c0.4,1.5.8,3,1.1,4.6s0.3,2.2.5,3.3l1.1-.4,1.5-1h0Zm-3.8-2-0.3,2.1-0.5-3.8h-0.3v1.8h-0.2V22.8l-0.4,2.1h0.2l0.4-.8v6.7h0.4l0.3-4.6a0.7,0.7,0,0,1,.3.5l0.3,0.9a1.8,1.8,0,0,0,.4-0.8C241.3,26.1,241.2,25.3,240.9,23.8Zm-4.7-9.1h0.3a19.1,19.1,0,0,0,.4-3.1,4.4,4.4,0,0,0-.8-1.6,3.4,3.4,0,0,0-.6,1.4A27.3,27.3,0,0,0,236.2,14.6Zm2.2-7.3,0.2,0.2,1.2-1.4-0.3-.2Zm-3.1,8h0.2v-2h-0.2v2Zm0.4,1.9h0.2l-0.3-1.5h-0.3Zm5.1,5.8H241l-0.2-1.1h-0.2Z" transform="translate(-30 -0.1)"/><path d="M219.8,185.8l-4.7.2v-0.7a3.9,3.9,0,0,0-1.1-.4l-5.3-.3h-3.1a2.1,2.1,0,0,1-.8-0.4l0.8-.2,8.8,0.3h4a1.5,1.5,0,0,1,.6.4h-0.6a3.7,3.7,0,0,0-2,.7l7.8-.5a17.7,17.7,0,0,1-2.3,1.1l-2,.3h-0.4Z" transform="translate(-30 -0.1)"/><path d="M196.6,193.8l1.5-2.7,0.4-.4a0.7,0.7,0,0,1,.2.3c0,0.1-.2.3-0.2,0.4l-1,4.6a6,6,0,0,0-.4,1.2c0,1.4.1,2.7,0.2,4.1s0.2,1.3.2,1.9C196.6,200.3,195,197.3,196.6,193.8Z" transform="translate(-30 -0.1)"/><path d="M200.7,187.1L199,190l-0.4.3a1.2,1.2,0,0,1,0-.5l2-3a2.1,2.1,0,0,1,.8-0.4,2.6,2.6,0,0,1-1.1,2.6l0.8-1.6Z" transform="translate(-30 -0.1)"/><path d="M240.6,9.2l0.9-1.3,0.5,0.4Z" transform="translate(-30 -0.1)"/><path d="M255.4,20.6l-0.3,3h-0.2l0.3-3h0.2Z" transform="translate(-30 -0.1)"/><path d="M246.6,14.5l-0.2-2.7h0.2l0.2,2.7h-0.1Z" transform="translate(-30 -0.1)"/><path d="M246.9,7.1l-1.5-1.6,0.2-.2,1.2,1.8h0Z" transform="translate(-30 -0.1)"/><path d="M235.8,32.3l0.3-1.4h0.3L236,32.3h-0.2Z" transform="translate(-30 -0.1)"/><path d="M236.9,7.2l1.2-1.8h0l-1.2,1.8h0Z" transform="translate(-30 -0.1)"/><path d="M238.3,25.7l0.5,1.7h-0.3V25.7h0Z" transform="translate(-30 -0.1)"/><path d="M245,11.7l-0.3-1.4H245l0.3,1.4H245Z" transform="translate(-30 -0.1)"/><path d="M196.1,201.9l-0.5-.8,0.2-.2,0.5,0.7Z" transform="translate(-30 -0.1)"/><path d="M238.1,5.3l1-1.1,0.2,0.2-1.2.9h0Z" transform="translate(-30 -0.1)"/><path d="M242.6,8.2l1,0.7V9l-1-.8h0.1Z" transform="translate(-30 -0.1)"/><path d="M243.6,38.3l-1.1.9h-0.1l1.1-.9v0.2Z" transform="translate(-30 -0.1)"/><path d="M221.8,26.3l-0.8.5-0.2-.8-2.6,3.4h0c0.1-1.7,3.3-5.1,4.9-5.4h0.5l-0.4.3-1.9,1,0.5,0.7h0Z" transform="translate(-30 -0.1)"/><path d="M156.2,190c-0.1-1.4-.3-2.8-0.4-4.1l0.3-.2a1.6,1.6,0,0,1,.8.4c-0.1,1.3-.2,2.7-0.4,4h-0.3Z" transform="translate(-30 -0.1)"/><path d="M123.7,189.8c0-.4-0.1-0.8-0.1-1.2s0.1-.6.1-0.9,0-1,0-1.5h0.4a16.6,16.6,0,0,1,.1,1.9,14.6,14.6,0,0,1-.2,1.6h-0.3Z" transform="translate(-30 -0.1)"/><path d="M118.6,186.3l-0.6,3h-0.3l-0.3-.2,0.7-3h0.5Z" transform="translate(-30 -0.1)"/><path d="M104.3,189l1.1-2.3h0.4a3.1,3.1,0,0,1-.1.7L105,189l-0.3.8Z" transform="translate(-30 -0.1)"/><path d="M181.6,185.9l-0.8,3.4h-0.4l0.7-3.4h0.5Z" transform="translate(-30 -0.1)"/><path d="M107.6,189.1l1-2.7a0.9,0.9,0,0,1,.2.4c-0.2.9-.4,1.7-0.6,2.6Z" transform="translate(-30 -0.1)"/><path d="M183.6,189c0-.8,0-1.7,0-2.5l0.4-.3a1.9,1.9,0,0,1,.1.5c0,0.8-.1,1.6-0.1,2.4h-0.4Z" transform="translate(-30 -0.1)"/><path d="M190.4,186.3a1.2,1.2,0,0,1,.5.4,4.2,4.2,0,0,1-.9,2.3Z" transform="translate(-30 -0.1)"/><path d="M178.7,185.4l-0.4,3.4h-0.4l0.4-3.4h0.4Z" transform="translate(-30 -0.1)"/><path d="M120.5,188.8c0-1,0-1.7,0-2.5l0.3-.2a1.2,1.2,0,0,1,.5.5,15.1,15.1,0,0,1-.3,2l-0.3.3h-0.1Z" transform="translate(-30 -0.1)"/><path d="M134.7,187l-0.6,2.5h-0.4l0.5-2.5h0.5Z" transform="translate(-30 -0.1)"/><path d="M110.9,189.5l0.5-2.6h0.3l-0.4,2.6h-0.4Z" transform="translate(-30 -0.1)"/><path d="M176.1,186.1l-0.6,2.9h-0.3l0.5-2.9h0.3Z" transform="translate(-30 -0.1)"/><path d="M113.3,200.3l0.4-2.3,0.3-.2a0.5,0.5,0,0,1,.1.2l-0.5,2.3h-0.2Z" transform="translate(-30 -0.1)"/><path d="M132.7,199.4l-0.3,1.4h-0.2l0.3-1.4h0.2Z" transform="translate(-30 -0.1)"/><path d="M86.3,194.8l0.5-1.5H87l-0.5,1.5H86.3Z" transform="translate(-30 -0.1)"/><path d="M217.3,206.1l-2.5-3a0.4,0.4,0,0,1,.2-0.3h0.4c0.8,1,1.2,2.6,3.1,2.2v0.3Z" transform="translate(-30 -0.1)"/><path d="M221.8,26.3a1.8,1.8,0,0,1,.8.2,21.2,21.2,0,0,1,.8,3.5l-1.6-3.7h0Z" transform="translate(-30 -0.1)"/><path d="M217.4,57.5l-1.6,4.1h-0.2l1.5-4.1h0.3Z" transform="translate(-30 -0.1)"/><path d="M214.5,64.8l0.9-2.7h0.1l-0.7,2.7h-0.2Z" transform="translate(-30 -0.1)"/><path d="M214.1,38.5v1.1h-0.2v-1h0.4Z" transform="translate(-30 -0.1)"/><path d="M219.4,41.5l0.2-1.1H220l-0.6,1h0Z" transform="translate(-30 -0.1)"/><path d="M215.4,56.2l-0.2.8h-0.3l0.2-.8h0.2Z" transform="translate(-30 -0.1)"/><path d="M218.8,63.5l-0.2,1.4h-0.3l0.5-1.3h0Z" transform="translate(-30 -0.1)"/><path d="M222,100.2l-0.8-.3c0.2,1,.5,1.8.6,2.7a3.1,3.1,0,0,1-.3,1.2,2.1,2.1,0,0,1-.8-0.5c-1.7-3.6-3.4-7.1-3.6-11.3-0.1-2.1-.6-4.1-0.6-6.3l0.3,3.5,0.4-2.4h0.2l-0.2,1.9h0.2l0.2-.8c-0.7,4.8,1.8,8.5,4.3,12.2h0Zm-1.2,2.3,0.7-.3-3.4-7.9-0.6.2Z" transform="translate(-30 -0.1)"/><path d="M218.8,84.8L218,87.4h-0.4l1.1-2.5h0Z" transform="translate(-30 -0.1)"/><path d="M223.5,59.3l-4.1,13.6a19.2,19.2,0,0,1,.4-3.3c1.1-3.4,2.4-6.8,3.6-10.3h0.1Z" transform="translate(-30 -0.1)"/><path d="M225.9,51.7l-3.1,7.9-0.4-.2,3.3-7.8h0.2Z" transform="translate(-30 -0.1)"/><path d="M226.1,56.2l1.2-.5-0.9,1.2L225,61h-0.2Z" transform="translate(-30 -0.1)"/><path d="M224.1,58.1l0.4-1.1h0.3l-0.4,1.1h-0.3Z" transform="translate(-30 -0.1)"/><path d="M227.2,49.2l-0.6,1.1h-0.1l0.5-1.2h0.2Z" transform="translate(-30 -0.1)"/><path d="M210.1,95.9V94.2h0.1v1.6h-0.1Z" transform="translate(-30 -0.1)"/><path d="M240.4,78.4V69.7h0.1v8.6h-0.1Z" transform="translate(-30 -0.1)"/><path d="M239.3,65.7l0.8,3.4h-0.3l-0.8-3.4h0.2Z" transform="translate(-30 -0.1)"/><path d="M233,97.1l0.5-.9h0.2l-0.4.9H233Z" transform="translate(-30 -0.1)"/><path d="M230.6,117.3c-0.6,2.4-1.2,4.8-1.9,7.2a30.4,30.4,0,0,1-2,4.1,2.1,2.1,0,0,1-.5.5c1-2.2,2.2-4.4,3.1-6.6A43.7,43.7,0,0,0,230.6,117.3Z" transform="translate(-30 -0.1)"/></svg>