<svg id="cigarettepack_smokers_Image" data-name="cigarettepack(smokers) Image" xmlns="http://www.w3.org/2000/svg" viewBox="0 0 204.1 195.2"><title>cigarettepack(smokers)</title><path d="M196.4,136.2c-0.3,1.3-2.1,2.7.1,3.9a2.9,2.9,0,0,0,1,.1h0l0.4,0.8a1.6,1.6,0,0,0-.8.1c-0.5,1.1-1,2.3-1.6,3.7l2.6-.7-0.3-3.2a2.9,2.9,0,0,0,1.4-.3,14.1,14.1,0,0,1,.9-1.6c-0.3.7-.5,1.3-0.7,2a1.5,1.5,0,0,0,.1.7,1.3,1.3,0,0,0,.6-0.2l1.1-2.2c0.3,1.2-2.3,2.5-.2,3.1l-1.4.7a2.8,2.8,0,0,0,.2.8l-5.2,1.6,0.7-1.8a14.2,14.2,0,0,0,1.1-2.8c0.1-.4-0.7-0.9-1.2-1.3a0.7,0.7,0,0,0-.6.2c-0.5,1.4-1.1,2.9-1.5,4.3a2.9,2.9,0,0,0,.4,1.2l-1.9.8c2.7-4.6,3.4-8,1.8-8.7l-2.7,6.8a26.3,26.3,0,0,0-1.4,3.9c-0.3,1.3.7,1.4,1.6,1l6.7-3.2,0.3-.2,12.4-3.3a2.2,2.2,0,0,0,.8-1,4.2,4.2,0,0,1,.5.8,0.7,0.7,0,0,1-.3.6l-10.2,3.2-1.6.7,0.5-1-3.9,1.8v0.3l1.1-.3c-2.6,1.5-4.9,3.9-8.3,2.4l-3.8-2.1h-0.1l3.1,2.3a4.7,4.7,0,0,1,.8,1.2,3.6,3.6,0,0,1-1.8-.3c-2.5-2.6-5-5.3-7.4-7.9l-0.7-.8a7.3,7.3,0,0,1,1.2.8c0.4,0.4.7,0.9,1.1,1.3l0.7,0.5a2.7,2.7,0,0,0-.2-0.8l-2.6-3.6-8.4,5.9v-0.2l-7.7,5,0.2-.7-5.9,3.4-7.3,4.6-9.9,6.4-6.8,4.3-5,2.9-7.1,4.3c-2.3,1.3-4.7,2.3-6.9,3.8s-6.3,4.8-9.5,7-5.7,3.7-8.6,5.5-3,2.2-4.5,3.1-2.5,1-3.6,1.7a37.5,37.5,0,0,0-4.2,3.2A10.7,10.7,0,0,0,83,203a0.8,0.8,0,0,1-.4.4c-0.6,0-1.8.1-1.9-.1-0.8-2.8-3.1-4.2-5.2-5.9a74.5,74.5,0,0,1-5.6-5.7l-6.5-6.5c-1.7-1.8-3.3-3.7-5.1-5.3s-5-4-7.3-6.1-2.6-3-3.9-4.4l-5.9-6.4c-1.7-1.9-3.2-3.8-4.8-5.7l-3.6-4.4L26.8,146a8.8,8.8,0,0,1-.1.9l-0.4,1.6a9,9,0,0,1-.2-1.6c0.1-2.7-2.2-3.8-3.6-5.5s-3.3-4.4-5.2-6.4a6.5,6.5,0,0,1-1.8-5.3c0.3-4.3.7-8.6,1.1-12.9,0.2-1.4.8-2.8,1-4.2s0.8-5.7,1.2-8.6l0.2-.2,0.3,0.3a6.2,6.2,0,0,0,1.4-1.5c1.5-3.6,5.6-3,8.1-5a57.3,57.3,0,0,1,5.8-3.9l4.8-2.8c1.6-1,3.1-2.3,4.7-3.3l5.5-3.2,11.2-6.6,8-4.2c3.7-2,7.3-4.3,11.1-6.2s8.2-4,12.3-6L93,61.3l0.4-.2H93.2l2-1h0.6c3.2-1.7,6.5-3.3,9.7-5s4.8-2.9,7.2-4.4l7-4c1.7-.9,3.4-2.5,5.1-2.6,4.3-.4,6.9-3.6,10.4-5.5h0.5L128,44.2l-1.5,1.3,0.3,0.2,1.2-1.5,6.1-3.6L145.9,33h0.3l-0.3.9,3-1.9a1.4,1.4,0,0,1,1-.3c1.7,1,2.8-.2,3.9-1l10.6-8.5,0.8-.5,1.3-.6a7.2,7.2,0,0,1-1,1.2,40.7,40.7,0,0,0-5.7,5l5.6-3.8,1.1-.8c5.7-4.1,11.3-8.3,17-12.3,1.5-1.1,3.5-2.3,5.2-2.3,3.2,0.1,6.6.5,8.7,3.7s2.5,6.2.9,9.3a37.9,37.9,0,0,1-3.8,5.6,2.5,2.5,0,0,1-1.1-.1l-8.8,6.6L173,41.5l-5.4,4.1a0.5,0.5,0,0,0-.2.4l0.3,0.2a50.8,50.8,0,0,1,5.3,3.1c1.8,1.4.9,3.4,0.6,5.2a21.2,21.2,0,0,1-1.2,3.2,0.5,0.5,0,0,0,.3.4,18.7,18.7,0,0,0,4.4.7c2.8-.2,3.7,2,5,3.7s0.2,1.5.4,2.2a1.1,1.1,0,0,0,.3.5h0.3l0.5-.5a5.1,5.1,0,0,1-.2,1l-1.3,3.3c3.2-.2,5.4.9,7.7,3.3s0.7,5.4,0,8.1l2-.5-0.4.9c2.5,0.8,5.8,0,7.6,3.1l-3.8-1.8v0.3l2.9,2.3a1.3,1.3,0,0,1,.5.8c0.1,1.1.1,2.3,0.2,3.4a2.9,2.9,0,0,0,1.2.1c2.6-.5,3.8,1.3,5.1,3a8.7,8.7,0,0,0,1,.6,4.2,4.2,0,0,1,.7,1l0.8,1.5,1.7,0.5h0.4s-0.1.2,0,.3a17.1,17.1,0,0,0,1.2,2.2c0.7,0.9,1.5,1.7,2.2,2.6l0.8,1.2c0.7,0.9,1.2,2.4,2.5.6h0.5l-1.1,1.5,1.6-.4h0.7a3.1,3.1,0,0,1-.4.7l-2.6,2.7-0.3,1.1v0.3c-2.3-.1-2.5,2.2-3.7,3.3a2.8,2.8,0,0,0-.4,2.1,3,3,0,0,0,1,1.1,16.8,16.8,0,0,0,1.4-2.6,9.9,9.9,0,0,0,.2-2.4l2.5,6,0.6-.2c0.2-2,.4-4,0.6-6s0.1-2.8.2-4.1a1.1,1.1,0,0,1,.4-0.8,2.5,2.5,0,0,1,1.1.4,3.6,3.6,0,0,1-.1.6l-0.4,3,1.8-.7c-3.3,1.8-1.2,5-2.1,7.6a3.6,3.6,0,0,1-.1-0.5,0.5,0.5,0,0,0-.2-0.5,8.4,8.4,0,0,0,0,1.7,1,1,0,0,0,.9.3,2.4,2.4,0,0,1,.8-0.8,5.1,5.1,0,0,0-1.1,1.1,9.2,9.2,0,0,0-1,2.8c-0.2,1.5.1,3.1-.2,4.6s-1.1,5.2-1.5,7.9,0.1,3.4-.2,5a32.9,32.9,0,0,1-1.7,5.1,1.1,1.1,0,0,1-.5.3,2.1,2.1,0,0,1-.1-0.6l2.2-16.8-0.4-1-1.8,4.5,0.5,0.4,0.7,0.2a1.6,1.6,0,0,0-.8.1,15.1,15.1,0,0,0-1.4,1.9,4.2,4.2,0,0,1-.7,1.1,7.7,7.7,0,0,0,.9-2.2,3.9,3.9,0,0,0-.7-2.2c-0.7-1.2-1.7-2.2-2.5-3.4h0l-1.9-3.4a2.3,2.3,0,0,0-1.2.6c-0.4.7-.6,1.4-1.1,2.1l1.5-4.2,2.2,3.3,0.4,0.4,0.4-.4,1.7-4.3a2,2,0,0,0-.1-0.8l-0.4.6a1,1,0,0,1-.5.5,12.5,12.5,0,0,0,1.1-2.5,5.8,5.8,0,0,0-.4-2.1l-1,1.1,0.2-1.5-1.3,2.2h-0.1l0.7-1.7-0.4-.2-2.4,5.3,0.3-1.6h-0.3l-1.9,3.1-2.9,5.2a1,1,0,0,0,0,.4l-0.6.5,1.6,1.5,0.3-.2-1.3-1.8,1.3,1.2,0.8-1.2-0.2,2.5-0.9-.6,1.3,1.5,0.3-.5,3,2.3,0.3-.4,0.3,0.9-0.4.3,0.5,0.4,0.3-.4,0.2-.3h0.1a1.8,1.8,0,0,0-.1.3,1.7,1.7,0,0,0,0,.4l-1.2,2.3,0.2-2.3h-0.5l-2.4-2.1-0.9-.8c-0.7-.8-1.4-1.1-1.5-0.1a3,3,0,0,0-.5-1.6c-1.8-1.7-1.8.6-2.2,1.3a10.9,10.9,0,0,0-.8,3l-0.5-.2-0.2,1.2-1.3,2.7,0.3-2.4a4.9,4.9,0,0,0,1-2.2,2.6,2.6,0,0,0-1.6-.7,14.4,14.4,0,0,0-2.8,3.5,31,31,0,0,0-1.8,5.2c-0.4,1.3-.6,2.7-1,4.1H191l4.2-11.4c-0.1,1.1.1,2.3-.3,2.7a2,2,0,0,0,.1,3.4Zm-28.1,1.2a1.6,1.6,0,0,0-.4-0.5,0.8,0.8,0,0,0-.5.3c0.2,0.5.4,1,.8,2.1v-1.9h0.4l-0.2-1.8h-0.6Zm-8.4,0,0.2-1.9h-0.6l0.4,1.9,0.2,2.1h0.6l-0.2-2.1h-0.6Zm9.1,2.2-0.5-.7a6,6,0,0,0,.5,2.7h0.3L169,140v-0.3l0.6,1.2h0.4l-0.8-2.5h-0.3ZM94.2,174a9.2,9.2,0,0,0,.6-1.2,5.4,5.4,0,0,0,.1-1.1H94.6l-1,2.6h0.3l0.3-.4v2l1.2-2.4a1.3,1.3,0,0,0-.2-0.6l-0.5.3Zm-5.9,15.4,0.4-.9a0.8,0.8,0,0,0-.7.5,1.1,1.1,0,0,0,.3.4l0.3,3.6h0.7a21.7,21.7,0,0,0-.4-2.3A4.5,4.5,0,0,0,88.3,189.4Zm56.4-43.7,1.2,2.3a4.4,4.4,0,0,0,.1-2.6,7.5,7.5,0,0,0-.7-1.5l-0.5,1.8-0.6.3c0.2,0.9.4,1.8,0.6,2.6a2.3,2.3,0,0,0,.5.7,2.7,2.7,0,0,0,.3-1.1C145.2,147.4,144.9,146.5,144.6,145.7Zm-6.7.7-0.6-1a4,4,0,0,0-.5,1c-0.2,1.1-.4,2.1-0.5,3.2h0.8l0.8-3.3h0.4c-0.1-.7-0.1-1.3-0.2-2h-0.3a5.8,5.8,0,0,0-.1,1A7.9,7.9,0,0,0,137.9,146.4Zm6.1,3.8-0.8-2.3a3.1,3.1,0,0,0-.3,4.3l0.4,0.2,0.8-2.2,0.6-.4c-0.3-.8-0.6-1.7-1-2.5h-0.2ZM85,186.9l0.4-3.2H84.8l-0.5.6v-1.5a1.9,1.9,0,0,0-.6.8,27.7,27.7,0,0,0,.3,3.1,5,5,0,0,0,.5,1.1l0.4-.9,0.2,4.6c0.7-1.1,1.4-1.6,1.4-2.1a19.7,19.7,0,0,0-.8-3.3Zm83.5-59.6a3.7,3.7,0,0,0,.7-0.9,12.9,12.9,0,0,0,.4-1.8h-0.8l-0.3,2.9h-0.6l-0.4-1.7h-0.7l-0.3,3.1,0.7-.5-0.3,2.4h0.7Zm-44.4,31.4,0.7-1.6a6,6,0,0,0-1.9,1.7,1.3,1.3,0,0,0,.2.6l0.5-.3,0.5-.5c-1.5,1.9.2,3.2,0.7,4.8h0.7v-3.3l-0.7.6,0.6-3.2Zm-2.8,4,0.9-1.5a4.6,4.6,0,0,0,.4-1.1,0.9,0.9,0,0,0-.3-0.4l-0.7.9-1.8,2.7,1.5-.5a5.8,5.8,0,0,0-.2,1.6,7.7,7.7,0,0,0,.7,1.7c1.9-2.8,2.1-4,1-5.1ZM97.9,176.5v3.1h0.8l0.3-1.9-0.8.4,0.6-1.8,0.7,0.4-0.4-1.9-0.5,1.1-0.6.6-0.7-5.5-1.1,1.5,0.6-2a1.6,1.6,0,0,0-.9.9,4.6,4.6,0,0,0-.2,1.1h0.5l0.9,5.4Zm6.2-13.5,0.6,0.9c0.5-1.4,1.1-2.7,1.6-4a15.3,15.3,0,0,0,.4-1.9l-1.2.8-0.3-.2a5.9,5.9,0,0,0-1.9,1.3c-0.2.3,0.5,1.1,0.9,2v1l-1.3-2.5a7.8,7.8,0,0,0,.1,3h0.3l0.3,2.8h0.5V163Zm-17.3,7.4c-3.1.7-6.7,5.6-5.6,8.2l1.3-4v0.9l0.9-1.3c0.4,0.3.4,0,.5-0.2l2.9-3.6,0.6,0.3a10.9,10.9,0,0,0-.4,1.7,16.6,16.6,0,0,0,.3,2.6h0.4l1.7-3.8-0.6-.3-0.9,1.5a8,8,0,0,1,.8-2.1l1.1-1.8-0.2-.3Zm5.3,2-0.5-3.1v0.2a10.8,10.8,0,0,0-1.4,2.3c-0.1.4,0.4,1.1,0.6,1.7l0.7-.8v2.9h0.3l0.3,2.4,2.6-7.6H94.1v1.1l-0.8-2.9a18.1,18.1,0,0,0-.8,2,1.1,1.1,0,0,0,.5.4l0.5,2.4H93.2l-0.3-.8-0.4.3-0.5-.5h0.5l-0.2-1.2H92v1.2Zm83.8-93.8-4.8-.5,5.7,6.6c1.8-1.8-.8-3.1-0.9-4.9l1.8,3.3c2.6-1.5,1.6.8,2.1,1.7a2.3,2.3,0,0,0,.3-1.7,17.9,17.9,0,0,0-1.5-2.6v0.9l-2.7-2.9,2.5,1.1h-0.9l1.7,1,1-.9a26.3,26.3,0,0,0-3.6-2.1,14.7,14.7,0,0,0-3.6-.6,4,4,0,0,0-1.3.7h1.2Zm-23.5,54.6h0a7.7,7.7,0,0,0-.4,1.8,3.3,3.3,0,0,0,.6,1.2l0.3-.2,0.9-2.1c0.3-.7.4-1.3,0.7-2l-0.5-.3,1.7-1.2,0.7,5.3h1.1c-0.1-1.8-.2-3.5-0.4-5.2a2.1,2.1,0,0,0-1.3-1.3,42.6,42.6,0,0,0-4.4,2.3c-1.4.8-3.3,1.3-4.2,2.6a22.9,22.9,0,0,0-2.8,5.9c-0.2.5,0.4,1.3,0.6,1.9h0.3c0.5-1.1,1-2.2,1.4-3.3a7.7,7.7,0,0,0,.3-1.4c1.9,0.4.8-1.4,1.4-1.9l0.8-.9h0.3c0,0.3-.1.6-0.1,1s-0.1,1-.1,1.6h-0.7v4.6h0.6l0.4-1.8a1.9,1.9,0,0,0,.3-1,15.3,15.3,0,0,0-.5-1.8l1.4,2.9,0.6-1.8,0.5-1.7-0.4-.2-0.2,1.7h-0.6L151,134h-0.7l0.3,1.5h-0.4v-2.3l1.5,1.2ZM82.6,187.5l0.2-1.5H82.4v1.5h0.4c0.6,3.9-.7,8.2,1.9,11.9l-1.7-1.5a1,1,0,0,0-.5.3,18.6,18.6,0,0,0-.3,2.2,0.7,0.7,0,0,0,.5.2c1.7-.9,3.4-1.8,5-2.9s5.5-4,8.2-6.1a1.8,1.8,0,0,0,.2-1.7c-0.7-1.3-1.7-2.6-2.5-3.8a5.6,5.6,0,0,0-.1,2.7c0.1,0.8.3,1.5,0.3,2.3l-0.5.3-0.7-.7-0.6-.9a9.4,9.4,0,0,0-.6,1.4,3.4,3.4,0,0,0,.2.9c0,0.4,0,.9.1,1.3l-0.9-.8a1,1,0,0,1-.2.3l-1.2,1-1.2-2.2-0.4-.4a1,1,0,0,0-.3.4c-0.1.9,0,1.8-.1,2.7a7.4,7.4,0,0,1-.2,1.1l-0.8-.9-1.7-2.5v-0.4l0.7-1.2-0.5-.2-0.4,1.4-0.3-5.3H83.2l-0.4,1.8Zm113.5-73.6h0l0.7-7.3-6.7,5c0.1,0-.1-0.2-0.3-0.1l-2.7.9-5.1,2.2a0.5,0.5,0,0,0-.2.4,0.5,0.5,0,0,0,.2.4l2.4,1.2,1.7-2,1.3-1.4a18.7,18.7,0,0,1,.3,2.1c0,1.3,0,2.6,0,4.5l0.5-1.8h0.3l-0.6,2.8h-0.5l-0.4-5a5.4,5.4,0,0,0-.5,1.9,3.7,3.7,0,0,1-.4.8l-0.4-1c-0.1-.4-0.2-0.8-0.3-1.3a1.5,1.5,0,0,0-.7.4,2.6,2.6,0,0,0-.3,1.6c1.5,2.8,3.2,5.4,4.7,8.2s1.6,3.8,2.5,6.2l0.4-.8,8-10.8a19.8,19.8,0,0,0,2.6-3.6,13.7,13.7,0,0,0,.6-4,2.5,2.5,0,0,0-.2-0.8,2.1,2.1,0,0,0-.5.7c-0.2,1.1-.3,2.2-0.5,3.2a1.5,1.5,0,0,1-.5.5,1.6,1.6,0,0,1-.4-0.6c0-1.3.1-2.7,0.1-4s0-2,0-3.3v0.2c0-.8.1-2.1,0.2-3.4l0.2-.2a0.9,0.9,0,0,1,.3.3c0,0.9,0,1.8,0,2.7s0,3.1,0,4.6c0.9-3.4,1.4-6.9,1.9-10.4a1,1,0,0,0-.2-0.4c-1.2,1-3,1.9-3.4,3.2s-0.4,4.2-.5,6.4,0,1.4,0,2.1h0.3l0.6-2.2c-0.3,2.4-.6,4.8-0.9,7.1a0.9,0.9,0,0,1-.3.3,1.2,1.2,0,0,1-.3-0.5c0.2-4,.4-8,0.5-12.1a4.3,4.3,0,0,0-.3-1.2c-0.6.4-1.6,0.8-1.7,1.3a40.1,40.1,0,0,0-.4,5.1l-0.3-2.7a2.8,2.8,0,0,0-.4,1.2ZM70.6,189.1h0c1.1,1.2,2,2.4,3.2,3.5l5.3,4.9a6.1,6.1,0,0,0,1.2.7,2,2,0,0,0,.2-0.7c-0.1-1.4-.3-2.8-0.4-4H78.9v1.6a3.8,3.8,0,0,1-.5-0.8l-2.8-17.6a1.1,1.1,0,0,1,.2-0.5,1,1,0,0,1,.4.3c0.5,3.2,1,6.4,1.6,9.6s0.8,4.1,1.3,6.2a34,34,0,0,0,.2-6.5c-0.2-2.2-1-4.5-1-6.7a7.2,7.2,0,0,0-1.3-4.1,8.3,8.3,0,0,0-1.2-.9l-5-5.6-3.7-4.3-4.1-5-0.2.5q0.7,8.4,1.4,16.8l0.6,0.4a9.6,9.6,0,0,0,0,1.3c0.2,1.8-.1,3.9.8,5.4S68.9,187.3,70.6,189.1ZM87.9,67h0l3-2.2H90.7l-7.1,3.8a12.8,12.8,0,0,0-1.9.7l-3.6,2.2-4.4,2.8-1.3.5,0.2,0.3,1.1-.8,3.4-1.5c-6,4-13,6.5-18.2,11.7L61,81.7l-2.8,1.3c-3.7,2.1-7.5,4.1-11.1,6.3s-9.5,6.2-14.3,9.3H32.3l0.3-.4,3-2.6a47.3,47.3,0,0,0-5.7,3l-7.4,4.4a3.3,3.3,0,0,1-1.3.2H20.6a1.3,1.3,0,0,0-.2.7,9.6,9.6,0,0,0,1,1.6c1.2,1.6,2.5,3.1,3.6,4.7s1.9,3.4,3.1,4.9,3.7,4.1,5.4,6.2,3.9,5.5,6.1,8,6.2,7,9.3,10.5,5.1,6.4,7.8,9.5,4.3,4.5,6.4,6.9,4.9,5.9,7.4,8.7,5.4,5.6,8.1,8.4a1.2,1.2,0,0,0,1,.3,19.7,19.7,0,0,0,2.3-1.4l3-2.1,19.5-12.6a22.2,22.2,0,0,0,3.3-3.3,7.9,7.9,0,0,0,.8-1.1l-0.4,1.4V155l70-40.3-4.9-6.1c-0.7-.9-1.6-1.6-2.4-2.4s-2.2-2.1-3.1-3.2-1.7-2.4-2.6-3.5-3-3.2-4.4-4.9-3.4-4.3-5.1-6.5l-4.8-6.2-7.7-10.5c-1.5-2-3.1-3.8-4.7-5.7s-3.5-4.1-5-6.4-1.2-3.4-2.2-4.9-4.1-5.7-6.1-8.5l-4.7,2.9-13.6,7.9L93.7,64.2C91.8,65.2,89.8,66,87.9,67Zm50.5-28.5h-0.2l-9.9,6.8a1.5,1.5,0,0,0-.5,1.2c1.6,2.1,3.4,4,4.8,6.2s0.9,3.2,1.8,4.5,4,4.8,5.9,7.3,5.4,6.8,8,10.2,5.9,8.2,9,12.2,5.5,6.9,8.4,10.3,4.9,5.6,7.3,8.3,3.2,3.8,5,5.6a28.7,28.7,0,0,0,3.7,2.7,1.2,1.2,0,0,1,.3-0.4c1.8-.9,3.8-1.7,5.5-2.7,4-2.4,8-4.8,11.9-7.5a86.3,86.3,0,0,0,7.1-5.9,1.1,1.1,0,0,0,0-1,17.1,17.1,0,0,0-3.2-1.8,21.3,21.3,0,0,0-3.4-.7v0.4l0.8,0.5-1.2.2-1.9.5c-1.3.5-2.6,1.3-3.9,1.7s-3.2.6-4.8,0.9l-1.6.5,2.1,0.3a3.7,3.7,0,0,1-1.4.5l-4.2-.9h-0.4c-0.8,1.1-1.4.7-2.2-.2s-1.3.2-1.5-.1-3.3-3.6-4.9-5.4l-9.9-12c-0.9-1.1-1.6-2.2-2.4-3.3l-0.3.2,1.6,2.7h-0.2l-8-10.5h-0.1l0.5,0.9c-2-.1-11.4-13.6-10.8-15.4a1,1,0,0,0,.3.4l0.5-.2L144.5,52a5.6,5.6,0,0,0,.2,1.5l0.3,1.4c-1.9-2.7-2.3-5.5-1-9.1v1.5l5.2-6.6v0.7a23.1,23.1,0,0,0,2-5.5,1.9,1.9,0,0,0-.5-1.2,2.1,2.1,0,0,0-.8.2V32.5l-11.6,6.8Zm32.7,3a5.8,5.8,0,0,1-.2-1.7c2.2-5.1.5-10.3-4.3-12.2-1.6-.6-3.5-1.3-5.3.4a25.9,25.9,0,0,1-6.7,4.7c-2.4,1.1-2,2.8-2.1,4.6a5.2,5.2,0,0,1-.6,2.8c-1.2,1.7-2.7,3.1-4,4.7s-3.4,4.1-2.6,6.9a23.9,23.9,0,0,0,2.4,4.8,4.4,4.4,0,0,0,1.2.8l11.5-8.5a10.1,10.1,0,0,0,2.8-1.3c1-.7,1.9-1.6,2.9-2.3ZM27.8,123h0.1l1,22.5c0.3-4,.6-7.8.8-11.5s0.4-7.5.6-11.2h0.3l-0.9,22.9H29.3l1.4,1.6,0.7-8.6h0.3l-0.4,6.1h0.2l1.6-11.3a7.4,7.4,0,0,1,.1,1c-0.5,4.2-1,8.4-1.4,12.6a8.5,8.5,0,0,0,.6,2.6h0.5l1.2-16.9a9.1,9.1,0,0,1,.1,3.2c-0.2,4.8-.4,9.5-0.5,14.3,0,0.8.7,1.6,1.2,2.3h0.3l0.2-2a2.5,2.5,0,0,0,0-.3c0-3.1-.1-6.1-0.1-9.2s0.2-3.2.2-4.8h0.7v18.1a38.6,38.6,0,0,0,1-7.9c0.2-4.2.3-8.5,0.4-12.7a9.6,9.6,0,0,1,.3-1.6,13.1,13.1,0,0,1,.2,1.5c0,1.7,0,3.3,0,5.5l1-3.5a2.1,2.1,0,0,1,.4-0.6,1.6,1.6,0,0,1,.4.6c0,2.2,0,4.3,0,6.5s0,2.8,0,4.2h0.2l0.2-1.6c-0.1,2.8-.2,5.5-0.4,8.3s0,5.7,2.8,7.7V146.8a1.1,1.1,0,0,0-.5.9c-0.1,3.4-.3,6.9-0.4,10.3a1,1,0,0,1-.3.4,1.1,1.1,0,0,1-.3-0.4c0-1.5-.1-3,0-4.5,0.3-4.3.7-8.7,1-13,0.1-1.1,0-2.2,0-4l-1.4,6.2c0.2-1.7.6-3.4,0.8-5a4.6,4.6,0,0,0-.2-2.9c-1.7-2.4-3.7-4.5-5.5-6.8s-1.9-2.7-3-4.3l-0.4,1.3a12.4,12.4,0,0,0-1.2-3.2c-1.7-2.3-3.7-4.3-5.4-6.6s-3.6-5.3-5.4-7.9l-0.6.2c-0.2,1.9-.5,3.7-0.6,5.6s-0.3,6.1-.5,9.2a36.2,36.2,0,0,1-.7,3.8,10,10,0,0,0,1.3-3.4,3.5,3.5,0,0,1,.8-1,8.1,8.1,0,0,1,.3,1.2c0.2,1.4.3,2.9,0.4,4.4h0.2v-3.6a100.2,100.2,0,0,1,.3,10.2c0,2,.5,3.7,2.4,4.8,0-.4,0-0.7,0-1,0.1-2.3.1-4.6,0.2-7a1.2,1.2,0,0,1,.2-0.4l0.2,0.2c0,1.5-.1,3,0,4.4s-0.6,4.9,1.9,6.8c0-.9,0-1.6,0-2.4,0.2-3.4.4-6.7,0.5-10.1s0-6.4,0-9.6a15.7,15.7,0,0,1,.2-1.6,17.4,17.4,0,0,1,.2,1.8c0,6.6-.1,13.1-0.1,19.7,0,1.6.2,3.2,0.3,4.9h0.7V123Zm28.5,42.6h0.1a66.7,66.7,0,0,1-.1,8.2,2.9,2.9,0,0,0,1.2,2.7l1.4,1.1,0.5,0.2a0.5,0.5,0,0,0,.2-0.4c-0.1-2.5-.4-5-0.4-7.5s0-5.2,0-7l1.1,15.8h0.4v-8.3a48.1,48.1,0,0,1,.4,6.4c0.1,2.2,1.9,5,3.2,5.2l-1.8-21.5a40.1,40.1,0,0,0-2-3.9,9.2,9.2,0,0,0-2-2,5.9,5.9,0,0,0-1.4-.6v4.5h0.2l0.3-1.2,0.9,0.7-0.3.4-0.4-.3a11.4,11.4,0,0,0-.3,2.2c0.2,4.3.5,8.7,0.7,13a1.6,1.6,0,0,1-.2.6,1.5,1.5,0,0,1-.4-0.6c-0.2-3.4-.2-6.7-0.5-10.1a71.9,71.9,0,0,0-1.6-12c-0.5-2-2.7-3.6-4.2-5.5v6.1h0.2l0.3-1.2H52l-0.7,2,0.4,0.2a13.8,13.8,0,0,1-.2,1.5,0.5,0.5,0,0,1,.2.3q0,4.8-.1,9.7a1.3,1.3,0,0,1-.3.5,1,1,0,0,1-.3-0.4c-0.1-4.7,0-9.3-.2-14-0.1-2,.3-4.5-0.7-5.9s-4.7-5.2-7.1-7.8H42.8a1.2,1.2,0,0,0-.1.4c0.2,4,.4,7.9.6,11.9,0,0.8,0,1.7,0,2.5a11.7,11.7,0,0,0,.3-2.5,0.9,0.9,0,0,1,.2-0.3,0.7,0.7,0,0,1,.1.3c-0.2,2.4-.5,4.9-0.5,7.3a19.4,19.4,0,0,0,1,6.5c0.6,1.5,2.2,2.6,3.6,4.1V144.4h0.3v21.3h0.2l0.7-5.6a51,51,0,0,1-.1,5.8,8,8,0,0,0,.2,3.2,7.8,7.8,0,0,0,2.1,2.3l3.7,3.2-0.9-23.1h0.3l0.9,19.5h0.3Zm103-99.1c0.1-1.1.3-1.9,0.4-2.8,0.1-2.6-1.8-4.2-3.2-6a17.4,17.4,0,0,1-1.2-2h0.2l2.9,4,0.2-.2L156.9,56l3,2.4V57.8l2,2.5a1,1,0,0,1-.1.6l-0.3,1.8c0.7-1,1.5-2.2,1.2-3a16.8,16.8,0,0,0-2.6-3.9h-0.7l-0.6-.7h1.8l-2.8-1.6V53.4a3.8,3.8,0,0,1,1.4.7c1.2,1.6,2.4,3.2,3.5,4.8l0.7,0.8,0.5-1.2-0.6,5.1a14.4,14.4,0,0,0,1.6-6.1c-0.1-1.3-1.4-2.5-2.3-3.6a4.4,4.4,0,0,0-5.7-1.2c-1.5.9-2.9,2-4.4,3a0.6,0.6,0,0,0-.1.6l2.6,2.8,2.6,2.8-0.4.3-1.6-2.5,1.6,7.5,0.3-4.9Zm55,49.1h0.1c0.1,0.5.2,1,.3,1.5a6.8,6.8,0,0,1-.1,1,2.9,2.9,0,0,1-1-.4c-1.1-1.2-1.8-.7-2.2.6s-1.2,3.5-2,5.5h-0.1l2.3,4.7,0.7-.3,1.6-5.1-2.1,2.4,1.4-2.5,1.4-1.9-0.5,2.4c-0.1.4-.1,0.9-0.1,1.3a3.3,3.3,0,0,0,1.1-1.2c0.4-2.3.6-4.7,0.8-7a1.6,1.6,0,0,0-.4-0.8l-1.8-3-0.3-.4a1.5,1.5,0,0,0-.3.5,15.7,15.7,0,0,0-.5,3.4c0,0.5.9,0.9,1.3,1.3l0.4-1.3A2.2,2.2,0,0,0,214.4,115.6ZM187.5,14.3l0.4-.2c-0.5-1-1.1-2-1.7-3a1.1,1.1,0,0,0-.8,0,4.6,4.6,0,0,0-.6.5l-4.2,2.2,1.7,0.2a5.2,5.2,0,0,1-.8.8l-3.1,1.8,1.6,6.6V20.9a29.6,29.6,0,0,0,.6,4.8,18.3,18.3,0,0,0,1.9,3.4l-1-10.1h-0.7a8.4,8.4,0,0,1,.3,1.3,6.6,6.6,0,0,1-.1,1.2l-1.8-2.4,0.3-.2,1,1.8a14.3,14.3,0,0,0-1-3.6,1.7,1.7,0,0,1,.2-0.8,1.9,1.9,0,0,1,.6.4l1.7,2.8,0.7-.2c-0.3-1.1-.7-2.3-1-3.4a3.5,3.5,0,0,1,.1-1.1l0.7,0.9,0.9,1.1a9.1,9.1,0,0,0-.3-2.9,2.3,2.3,0,0,1,.3-0.9,2.5,2.5,0,0,1,.7.7c0.3,0.9.4,1.8,0.8,2.6a6.8,6.8,0,0,0,1.1,1.4c-0.4-1.9-.6-3.4-0.9-4.8a2.2,2.2,0,0,1,.2-0.8,2.5,2.5,0,0,1,.5.6l1.6,4h0.2l-0.4-3.2ZM176.9,74.4l5.9,4.7a6.9,6.9,0,0,0-3.9-5.2l-0.4-.4h0.6c3.2,0.6,4.9,2.7,6.1,5.5a29.1,29.1,0,0,0-2.7-5c-0.2-.2-0.1-0.6-0.3-0.9a12.3,12.3,0,0,0-1.3-1.6,1.6,1.6,0,0,0-.8.1l-0.7.2-4.1,3.2a1.8,1.8,0,0,0-.4,1.2l6.3,4.1h-0.1l0.2,1C181.9,77.5,178.3,76.7,176.9,74.4Zm12.7,10.4a23.8,23.8,0,0,1,3.1,3.1c0.5,0.7.4,1.8,0.6,2.7,0.5-.6,1-1.7.6-2.2a33.4,33.4,0,0,0-4-4.5,1.9,1.9,0,0,0-1.8-.2,19.3,19.3,0,0,0-2.7,2.2,0.4,0.4,0,0,0,0,.4l3.1,3.9,0.8-.4,0.2,0.4c0.1,0.4.1,0.8,0.2,1.2a1.9,1.9,0,0,0,.7-0.7,1.6,1.6,0,0,0-.2-1.2l-3.5-4a11.5,11.5,0,0,1,3,2.5c0.9,1.1,1.7,2.2,2.5,3.2C192.8,88.7,191.9,86.6,189.6,84.8Zm-1.4,7.7a3,3,0,0,0,0-1.6,37.7,37.7,0,0,0-2.8-3.6,2.2,2.2,0,0,0-1.1-.7c-0.9.7-1.7,1.6-2.5,2.3l-0.8.3-1.4,1.1,0.7,0.6a18.6,18.6,0,0,1,2.3,1.7,21.8,21.8,0,0,1,1.9,2.4l0.6-.3L182.4,90l0.2-.2,3.2,4.5,0.8-.3c-0.2-1-.2-2.2-0.8-3a13.9,13.9,0,0,0-3-2.2,1.1,1.1,0,0,1-.2-0.4h0.5ZM172.3,87l0.5-.4-4.3-5.4a3.3,3.3,0,0,1-.3-0.6l0.5-.2,0.9,0.6,3.6,3.5-0.2.2L171.1,83l2.9,6.2c1.1-2.1.3-3.5-.7-4.9s-2.1-2.6-3.1-3.9l0.3-.3,4.8,6.4c0.1-.6.6-1.3,0.3-1.7a15.5,15.5,0,0,0-2.4-4,6.2,6.2,0,0,0-3.3-1.8c-0.9-.2-1.9.6-2.9,1ZM162.8,67c0.9,1.4,1.5,2.2,1.9,3l2,3.9a1.7,1.7,0,0,0,.7.4l0.5-1.9H168l0.9-1.1a4.8,4.8,0,0,1,.4,1c0.1,0.7.1,1.4,0.1,2.5,1.3-2.5-.3-4.1-0.9-5.9a3.5,3.5,0,0,0-1.3-1,8.1,8.1,0,0,0-2.4-1.7,2.6,2.6,0,0,0-1.1,0,6,6,0,0,0,.5,1.6c0.7,1.1,1.5,2,2.2,3h-0.2l-3.3-4.9-1.5,2.3,0.4,0.2,0.2-.7,1.6,1.8ZM116.2,169.6a7.2,7.2,0,0,0-.1,1.3c0.4,1.6.8,3.1,1.1,4.7a1.7,1.7,0,0,1-.2.7l-0.5-.3a1.9,1.9,0,0,0-1.1-.1c-1,1.1-1.9,2.3-2.7,3.3l-0.8-.4c-0.7.8-1.2,1.7-2,2.8l0.8-.4a72.3,72.3,0,0,1,6.2-3.9c1.9-.9,3.6-1.9,4.1-4.1a1.7,1.7,0,0,0-.1-0.7l0.9-4.1-0.8-.2-1.5,5.2a1.1,1.1,0,0,1-.3.6h-0.5a27.3,27.3,0,0,1-1.9-2.3A9,9,0,0,1,116.2,169.6Zm57-101.3a1.6,1.6,0,0,0-.2-0.5l-2.9-3.4a14.4,14.4,0,0,1-1.1-1.8h0.2l4.7,6.3,0.7-.3a26.4,26.4,0,0,0-1.5-3.9c-1-1.7-2.3-3.5-4.5-2.8s-2.9,1.9-4.3,3a0.6,0.6,0,0,0,.1.5l3.5,2c-0.5-1-.7-1.9-1.2-2.2a4.4,4.4,0,0,0-2-.1,8.6,8.6,0,0,1,2-.7,5.5,5.5,0,0,1,1-.5Zm4.2-38.5a6.4,6.4,0,0,0,.2,1.3,1.8,1.8,0,0,0,.6.5,1.3,1.3,0,0,0,.3-0.5,46.1,46.1,0,0,0-.7-4.6,5.4,5.4,0,0,0-1.1-1.6l-0.3.2,0.5,1.3-4.2-3.2,1.8,2.6a12.3,12.3,0,0,1,.7,1.6l-1.4-1a2.5,2.5,0,0,0-1-.1,0.4,0.4,0,0,0-.1.3,14.3,14.3,0,0,1,3.2,9l0.5-2.9h0.3ZM39.4,136H39.2c-0.2,1.3-.5,2.6-0.6,3.8-0.3,5.2-.6,10.3-0.8,15.5a4,4,0,0,0,1,1.6l0.6-.2V136Zm60.4,36.1-0.4,3.5,1.6-2.3a8.8,8.8,0,0,0-.5,1.5l0.5,0.3,0.8-2.1h-0.3l-0.4.4v-3.4l-0.5,1-1.1-4.6a3.4,3.4,0,0,1-.9-1.2l-0.7-1.3c-0.1.5-.3,1-0.4,1.5a3.4,3.4,0,0,0,.2.9l-0.5-.9H96.9l0.5,2.5,1.2-1.9-0.9,2.4,0.6-.4-0.3,2.5-0.3-.4-0.5.2,1.4,4.4h0.5L98,170.8h0.2l0.9,2.5Zm1.3,14.5,1,0.3,1.6-2.4-0.2.8a2.3,2.3,0,0,0,1.2-1.1l4-6.1a2.3,2.3,0,0,0-.1-1.2h-0.3c-0.8,1.1-1.6,2.3-2.3,3.4s-0.9,1.8-1.4,2.7-0.3-.4-0.2-0.5-0.4-2.5-.7-3.8l-0.5.2a15.6,15.6,0,0,0-1.1,2.6C101.7,183.2,101.4,184.9,101,186.6Zm-3.6,4.1,4-3.2-0.7.4-0.4-2.2-0.4.5-1.1-3.4a7,7,0,0,0-.4,3.1c0,0.7.2,1.5,0.2,2.2l-1-1.9-0.9-1.1c-0.1-.5-0.2-1.4-0.4-2.3a2.9,2.9,0,0,0-.5-0.8,2.7,2.7,0,0,0-.8,1.1C95.8,185.4,96.6,188,97.5,190.6Zm67.7-62.2h-0.4c-0.1-.8-0.1-1.5-0.2-2.3l0.4-.3a2.9,2.9,0,0,0,.9-0.5c0.3-.4.5-0.9,0.8-1.4a2.2,2.2,0,0,1,.8-0.4v0.3c0.1,0.6.1,1.2,0.2,1.8H168a6.1,6.1,0,0,0,.3-1.5,14.6,14.6,0,0,0-.4-2l-1.8.7-3.2,2c-1.3.8-3.3,1.1-2.2,3.5l-0.7-1.6h-0.2l1.1,4h0.2l-0.3-2.8,0.7,2.6,1.4-5.3,1.9,3.8ZM177.3,22.9a20,20,0,0,1-1.4-3,3.4,3.4,0,0,1,.6-1.6l0.6,0.6,1.9,3.2h0.3l-1.1-4.8-0.8,1.4,0.4-1.9-5.4,3.8,3.3,4.6a10,10,0,0,0-1-3.1,3.6,3.6,0,0,1-.1-0.8l0.7,0.6,2,3,0.4-.2-1.2-2.1Zm-0.6,68.1,0.2-.7a3.2,3.2,0,0,1-.7,1c-1,.7-0.5,1.2.1,1.7l2,1.3,4.1,2.4a1.3,1.3,0,0,0,.9-0.5,0.7,0.7,0,0,0,.1-0.6l-4.8-2.7-0.5-.3a0.5,0.5,0,0,1,0-.5h0.6l4.2,1.9a6.2,6.2,0,0,0-2.3-2A24,24,0,0,0,176.7,90.9ZM164.1,78.4l0.6-.4-1.2-1.8a2.4,2.4,0,0,1-.2-0.7l0.5,0.3,1,1.2,0.8-.4c-0.8-1.4-1.2-3.2-2.3-4.3s-3.1-1.9-5.2-3Zm-20.2,61.1,1.8-4.4a1.9,1.9,0,0,0,.1-0.6h-0.6l-6.8,4.2a2,2,0,0,0-.5,1.5,2.7,2.7,0,0,1,1.3,3h0.2l0.3-.5,1.8-4.4a10.7,10.7,0,0,1,.9-1.4l1,1.3A8.5,8.5,0,0,1,143.9,139.5Zm-18.1,7.1L126,147h0.4l-0.3.6-1.9,3.6,0.9,0.4,0.5-1.9,0.2-.6,1.4-2,0.4-.5a6.5,6.5,0,0,0,1.1-.6c0.3-.3.5-0.7,0.3-0.5l-0.4,4.2,1,0.2,0.7-2.5v0.2a5.7,5.7,0,0,0,1-1.7,12.8,12.8,0,0,0,0-2.6h-0.2ZM90.1,183.5h0.4l0.7-1.4H90.7l0.5-1.2v0.9a5.4,5.4,0,0,0,.1-3,1.3,1.3,0,0,0-.3-0.4l-0.5.8v-4.1l-0.8,1.3V173H88.9l-1.1,4.9,0.7,0.2,0.6-.9a3.4,3.4,0,0,1-.2.8c0.1,1.1.3,2.3,0.4,3.4l0.8-.5v2.8Zm101-100.6,4.7,1.7a3,3,0,0,0-.8-1.1l-4.5-.9a1.6,1.6,0,0,0-.6.7l6.2,6.7a13.1,13.1,0,0,0,.5-2.4c0-2-1.6-2.6-3-3.5H193a1.3,1.3,0,0,0,.2.5l2.2,2.3a2.9,2.9,0,0,1,.5,1.1h-0.1ZM167,58.5a1.9,1.9,0,0,0,.2-0.7c-0.8-2-1.2-4.2-2.5-5.8s-1.5-3.3-3.7-1.7l-1.2.7-0.5.6,0.6,0.3a3.9,3.9,0,0,1,1.6.5c1.4,1.5,2.6,3.2,4,4.8l0.3,0.3a0.8,0.8,0,0,0,.2-0.4,20.5,20.5,0,0,0-2.1-4c-0.6-.8-1.9-1.1-2.9-1.7C163,50.6,165.5,53.6,167,58.5Zm8.8,83.2-0.5-.6a1.4,1.4,0,0,1-.2.4l-1.1.8a7.8,7.8,0,0,1,.2-1.3,5.8,5.8,0,0,0,.7-2,7.4,7.4,0,0,0-1-2.2,8.9,8.9,0,0,0-1,1.5,6.1,6.1,0,0,0-.2,1.5l-0.6-.2a4.6,4.6,0,0,0-.6,1,5.8,5.8,0,0,0-.2,1.6,13.4,13.4,0,0,0,.2,1.5l-1-1.1h-0.4l0.4,1.9,1-.3,1-.6Zm-32,18.7,0.3,0.4,7.9-4.2-0.4-.6-1.5,1h-0.5a1.9,1.9,0,0,1,.1-0.6,33.9,33.9,0,0,0,1.7-3.2,3.1,3.1,0,0,0-.4-1.5,2.4,2.4,0,0,0-.7.8c-0.2.8,0.4,1.7-1.2,2.2s-1.6,2.3-2.5,3.3A23.7,23.7,0,0,1,143.7,160.4Zm-37.2,10.4h0.3l0.2-.3c0.1,1,.3,2.4.6,3.7a2.4,2.4,0,0,0,.7.8,1.6,1.6,0,0,0,.4-0.6c0.1-1.5.2-2.9,0.2-4.4a2.2,2.2,0,0,0-.5-0.9l-0.5.3,0.5-2.1h-0.4l-0.4.7,0.3-1.8h-0.4l-1.4,3.2,0.4,0.2,0.9-1.4h0.1ZM152.2,156c1.5-1.8,5-1.5,5.2-4.5s-0.8-3.2-1.4-5.3a3.8,3.8,0,0,0-.7,1.3c0.4,1.2.9,2.3,1.3,3.5a2.9,2.9,0,0,1,0,1l-0.7-.6-0.8-.5ZM192.6,22.3a6.5,6.5,0,0,0-1.7-6.4,0.7,0.7,0,0,0-.6,0,0.7,0.7,0,0,0-.1.6c0.1,0.6.2,1.2,0.3,1.8h-0.2l-0.9-3.3H189l1.2,4.9h0.2V18.9h0.1l1.3,5.2h0.2V20.3h0.2ZM92.7,179.9l1.1,4a5.7,5.7,0,0,0,.4-6.9l-1.1,1.9,0.4-1.7,0.3-1.4-0.3-.2-0.4,1.2a3.1,3.1,0,0,0-1,1.6A4,4,0,0,0,92.7,179.9ZM181.8,70.7c1.8,2.2,4.3,3.3,5,6.2l-4-4.3a1.7,1.7,0,0,0,.5,1.3l3.1,4.1,0.5,0.6a2.9,2.9,0,0,0,.5-0.6c0.7-1.8-.3-4.5-2.5-6A14.2,14.2,0,0,0,181.8,70.7Zm-48.1,96.2,3.1-1.1a1.9,1.9,0,0,0,1-.5c0.8-1.6,1.6-3.3,2.3-4.9a2.7,2.7,0,0,0-.1-1.3h-0.4l-0.7,1.4-0.6.8-1.5,2.4a4.1,4.1,0,0,0,.1,1.4l-0.9-1.3Zm54.7-33.8a3.9,3.9,0,0,0,1-1.3c-1.2-2.7-2.5-5.3-3.8-7.9a2.1,2.1,0,0,0-.7-0.5,2.2,2.2,0,0,0-.4,1.1c0.2,0.6.7,1.1,0.9,1.6l2.1,5.4,0.2,0.2h0.6v1.6Zm-31.2,12h0.2a5.8,5.8,0,0,0,1-1.8,5.3,5.3,0,0,0-.5-1.9l-0.8.9,0.7-2.1-0.7.8,0.3-2.5a21.3,21.3,0,0,0-2.2,3.7c-0.2.6,0.4,1.5,0.6,2.3l0.5-.2,0.2,2.2h0.4Zm-24,1.6h0.6l2.2-4.3a4.6,4.6,0,0,1,1.1-.9l-0.4-1.5h-0.5l-3.2,1.7a5,5,0,0,0-1,1.1v0.2l0.9-.2,0.6-.4a6.2,6.2,0,0,1,0,1.1C133.6,144.9,133.4,145.9,133.2,146.8Zm21.8-8.4h0.4a23.5,23.5,0,0,0,.1-3.4,4.2,4.2,0,0,0-.8-1.4l-0.2,1.7h-0.1l-0.3-.6c-1.3,1.3-1.2,4.2.3,5.7ZM19.9,135V122.4C18.4,125.5,18.8,134.2,19.9,135Zm91.5,43.3-0.7-1.8-0.4.2-2,3.1-2.9,4.2a3.5,3.5,0,0,0-.3.7l0.5-.3a5.8,5.8,0,0,0,1.4-.9Zm-9.1-13.5h-0.6v1.1l-0.7-3.8-0.7,1.6H100l0.4-1.6-0.7-.2-0.7,3h0.5l1.3,5Zm32.1,0.2-0.9-1.3a3.7,3.7,0,0,0-.7.8,10.2,10.2,0,0,1-.9,2c-1.3,1.5-2.6,2.8-4,4.2a1.1,1.1,0,0,0-.1.4h0.5a19.1,19.1,0,0,0,3.1-2.2A39.8,39.8,0,0,0,134.4,165ZM178.3,60.8l-0.2.2-1-.6-1.3-.4a0.6,0.6,0,0,0-.1.3,3.3,3.3,0,0,0,1.1,1c1.6,0.5,3.3.8,3.1,3.1a3.3,3.3,0,0,0,.4,1.1,4.5,4.5,0,0,0,1.4-.7,1.4,1.4,0,0,0,0-1.2,5.2,5.2,0,0,0-1.1-1.5l-3.2-2.8-0.4.4ZM121.5,174.7c4.1-1.8,6-5,4.4-6.9Zm10.7-23.5,1.1-5.1h-0.8V147a6.4,6.4,0,0,0-2.1,2.8,22.5,22.5,0,0,0-.5,4h0.8l0.8-3.5Zm15-11.1c-1.7,1-2,5-.6,6.2a6.9,6.9,0,0,0,.9-1.2c0.6-1.3,1.4-2.5.3-3.9h-0.3Zm8.1-78.1c0.3,1.1.5,1.9,0.6,2.6a1.7,1.7,0,0,1-.1.6,1.6,1.6,0,0,1-.3-0.5,6.8,6.8,0,0,0-4.4-6.1,2.7,2.7,0,0,0-1.1.1,2.2,2.2,0,0,0,.6.5c2.1,0.7,4.8,4.8,4.5,7l-1.2-1.8a8,8,0,0,0,1.1,2.6h0.3C156.6,66.2,156.7,63,155.4,61.8ZM138.6,164.3a9.6,9.6,0,0,0,1.7-.9c0.9-.8,2.6-0.7,2.2-2.8s1-2,1.5-3a2.3,2.3,0,0,0-.1-1.2l-0.3-.3-0.3.3c-0.5,1-1,2-1.6,3S139.9,162.6,138.6,164.3Zm39.8-140,1.1,6.7h0.4V28.7l0.8,1.1a4.4,4.4,0,0,0,.4-1.7c-0.3-1.2-.7-2.4-1.1-3.6l-0.6-1.9a3,3,0,0,0,0,1.2A2.2,2.2,0,0,1,178.4,24.3Zm4.6,3.1L181.5,32c2.1-2.7,2.8-11.9.8-13.3ZM113.2,159.8c-2,2.3-2.1,4.6-.3,6.8l0.5-3,0.3,0.4h0.4Zm38.2-16.2c2.4-1.2,2.6-4.3.3-6.4ZM188.2,23.5l1.1,0.8,0.4,0.2a0.5,0.5,0,0,0,.3-0.4l-1.4-7.1h-0.8ZM119.1,156l-0.8-1.5h-0.4l0.8,3.4H119v-0.9l1.6-1.7a1,1,0,0,0,0-.8H120a1.5,1.5,0,0,0,.2-0.6c-0.1-.7-0.3-1.5-0.5-2.2a3.6,3.6,0,0,0-1,1.4A15.9,15.9,0,0,0,119.1,156Zm51.6-86.3,0.7-.3,0.6,3.2c0.5-.8.9-1.8,0.6-2.4a21.5,21.5,0,0,0-2.5-3.2l-0.4.3,0.3,1.2a4.2,4.2,0,0,0-.5-0.9l-0.8-.4a1.2,1.2,0,0,0-.2.5l2,3.2h0.3L170,68.3Zm-3,70.5a16.1,16.1,0,0,1,.2,1.6,6.8,6.8,0,0,1-.2,1.1l-0.9-.7h-0.5c-1.8,1.3-.2,2.5.1,3.8a2.8,2.8,0,0,0,.5.8l0.2-.2a6.6,6.6,0,0,1,.4-2C168.5,143.2,169,141.9,167.6,140.2Zm-6.3,8.7a4.9,4.9,0,0,0,1-1.6,3.2,3.2,0,0,0-.6-1.5h-0.5l-2.1,4.6a1.1,1.1,0,0,0,.2.5l2.9-2.1-0.3-.4ZM89.5,183.3c-0.3,1-.5,1.3-0.6,1.7a6.2,6.2,0,0,0-.1,1.2h0.2a8.2,8.2,0,0,1,.2-0.9l0.3-.3,0.5-1.7H89.6l-1.1-3.8H87.7c0,1.2,0,2.3,0,3.5S87.7,185.4,89.5,183.3Zm3,2.9h0.6c-0.1-.9-0.2-1.9-0.4-2.8a12.4,12.4,0,0,0-.6-1.7,3.2,3.2,0,0,1-.5,1.1c-2.3,1.9.4,3.2,0.8,4.8V185Zm92.6-159a3,3,0,0,0,.6-1.2c-0.4-1.8-.8-3.5-1.3-5.2a0.9,0.9,0,0,0-.4-0.4l-0.2.2c0.2,2.2.4,4.3,0.7,6.5a1.5,1.5,0,0,0,.7.3V27.1Zm-21.8,108,0.6,1.6h0.4a4.7,4.7,0,0,0,.2-5.6l-1.4,4h0.2Zm-14.1,9.2c-1.8,2.1-2.2,5.1-.5,6.4l0.4-4.7,0.3,1.1,0.3,0.3,0.2-.3Zm13-11c2.4-2.2,2.5-3.9.5-6l-0.9,4.8h0.3l0.8-1.1Zm28,2.5c-0.2,1-.5,2-0.7,3a1.7,1.7,0,0,0,.6.8l0.4-.2,1.2-5.1-2.8,1.1a0.8,0.8,0,0,0-.3.7,2.1,2.1,0,0,0,.5.7l0.5-.5Zm-78.1,31.2-1-3-0.5.2c-1.7,1.9,0,3.6.3,5.3h0.4ZM96,174c-1.7,1.3-1.4,4.9.2,6v-1.2l0.3,0.4H97Zm19.7-16.1h0.5v-5.7c-1.1.8-2.9,0.8-1.5,2.6A9.7,9.7,0,0,1,115.7,157.9Zm59.4-96.3a7.2,7.2,0,0,0-.6-2.2c-0.9-1.3-3.9-.8-4.4.7a0.5,0.5,0,0,0,.2.4l1.6,0.5,0.4-1.3,1.1,0.9ZM108.7,163a5.5,5.5,0,0,0,1.2-1.7,14,14,0,0,0-.1-2.6h-0.5l-0.8,2.4a8.4,8.4,0,0,0-.8,3.1,1.4,1.4,0,0,0,.5.5Zm49.6-30,1.1-5.7C156.8,127.6,156.5,129.1,158.3,133ZM190.4,14.3a13.8,13.8,0,0,0-.7-2.8,3.8,3.8,0,0,0-1.5-1,1.6,1.6,0,0,0-.4.8c0.5,1.1,1,2.2,1.6,3.2a4.1,4.1,0,0,0,.7.8ZM167.4,50.4l-0.6.7,1.7,3.9h0.2l0.3,1.9c0.5-1,1-2.2.7-3.2S168.2,51.4,167.4,50.4ZM120.8,152.7c0.6-.9,1.3-1.7,1.8-2.6a3.1,3.1,0,0,0,.1-1.3h-1C119.2,149.6,120.2,151.2,120.8,152.7Zm-0.9,10.5c-1.1.5-.8,4.9,0.7,6.8v-4.8l-0.7.6v-2.6ZM192.1,16l2.1,5.7A3.9,3.9,0,0,0,192.1,16ZM161.3,64.7h0.5a10.2,10.2,0,0,0-.2-1.5c-0.5-1.9-.4-4.2-2.7-5.1h-0.4a0.4,0.4,0,0,0-.1.3l1.8,3.8,0.5-.4a3,3,0,0,1,.6.9A18.3,18.3,0,0,1,161.3,64.7Zm26.1,7.4,0.3-.3,1.7,2.5c0.3-2.1-2.3-4.5-4.1-4.2l2.9,4.4,0.3-.2Zm8.5,34,0.3,0.5,7.2-4.6-0.5-.7ZM95.4,169.8c-0.1-1.5-.2-3.1-0.3-4.6H94.7A3,3,0,0,0,95.4,169.8Zm11.1,8.2h1l-0.4-5.3H106Zm18-14.6-1.1-.4-1.7,5.2,0.9,0.3ZM198,131.4l0.2-.3,1.4-3.8a0.7,0.7,0,0,0-.4-0.5l-0.5.2-1.7,2.8a1.7,1.7,0,0,0-.3.7Zm-111.5,56h1v-5h-1v5Zm20.3-25.6h-1.1c-0.2,1.5-.4,3.1-0.6,4.6a0.6,0.6,0,0,0,.4.4l0.3-.3a9.4,9.4,0,0,0,.7-1.9A22,22,0,0,0,106.8,161.8Zm15.1-3.9,1.2,0.4,1.4-4.2-1.2-.4Zm19.8-16.8h-1l-0.8,4.9,1.2,0.2Zm60.2-51.2h-3.7l1,2.4a1.2,1.2,0,0,0,.4-1,8.4,8.4,0,0,1,.2-0.9l0.7,0.3,1.1,1Zm-91.6,76.8h-1.4l0.9,4.9,0.5-.2C110.3,170,110.3,168.4,110.3,166.7ZM196.6,19.8h0.6V13.6h-0.7v1.9L196,14.2a11.4,11.4,0,0,0-.1,1.4,2.1,2.1,0,0,0,.7.5v3.7ZM153.4,63.5l0.7-.3L151,60l-0.7.6L153,65Zm27.4,59.2h-0.4a13.2,13.2,0,0,0,.2,1.6c0.1,0.5.4,0.9,0.6,1.4l0.4,1.4h0.3a14.2,14.2,0,0,0,.1-1.4,1.3,1.3,0,0,0-.2-0.5H182l0.3,0.6,0.7-.3-1.6-3.2H181l0.7,2h-0.2Zm-21.1,24.1v1h0.5l-0.9-3.4h-0.7c-0.2,1-.4,2-0.5,3.1a2.3,2.3,0,0,0,.5,1ZM133,156.3c2.3-1.6,2.7-4,1.3-5.1v1.5l-0.7-1Zm61.8-48.8-0.4-.6-6.2,4-0.7.6a1.4,1.4,0,0,0,.7,0Zm-82.7,47.3-0.3-.2a13.8,13.8,0,0,0-1,1.4c-0.7,1.1-1.6,2.2-.5,3.6l0.2,0.2,0.3-.2Zm15.1-6.1a2.2,2.2,0,0,0-.6.8,19,19,0,0,0,.6,2.3h0.4a7.8,7.8,0,0,0,1.1-2.3c0.1-.5-0.6-1-0.9-1.6l-0.3,1.1Zm8.2,11.7a18.7,18.7,0,0,0,1.4-2.8,3,3,0,0,0-.5-1.5h-0.3C134.9,156.8,134.5,159.3,135.5,160.4Zm-15.6-.7h-0.4c0.1,0.4.1,0.9,0.3,1.3l0.4,0.2a16.7,16.7,0,0,0,1.9-2.6c0.2-.3-0.4-1-0.6-1.5l-1.5,2.7v-0.2ZM165,48.4a11.5,11.5,0,0,0,1.3,1.9,3.3,3.3,0,0,0,1.4.4,7.1,7.1,0,0,0-.2-0.7l-0.8-2.2a0.7,0.7,0,0,0-.3-0.4H165c0,0.2.1,0.4,0,.6A2.3,2.3,0,0,1,165,48.4ZM163.3,72l0.4-.5-3.7-3.1-1.2.8Zm-29.8,77.9-0.5-.2a27.2,27.2,0,0,0-1,2.5,1.9,1.9,0,0,0,.5.8l0.7-.8a6.1,6.1,0,0,0,.8-1.7,6,6,0,0,0-.1-1.8h-0.3v1.2ZM97.8,183.4l0.7-.2L97.3,178l-1.1,2.7,0.5-.2ZM171.6,53.9c0.1-2.4-1.7-5.3-3.5-5.6Zm8.3,82.3-0.8,1.8c-0.2.6-.4,1.3-0.6,2l1.4-.8a2.4,2.4,0,0,0,1.1-1A7.3,7.3,0,0,0,179.9,136.3Zm4-9.8,0.4-.2-2.3-6-0.9.4Zm12.7-32.1-2.9-.2a1.3,1.3,0,0,0-1,.5c-0.3.9-.4,1.6-1.5,0.8h-0.4a3.5,3.5,0,0,0-.2.8H191Zm-53.9,50.4-1-.2-0.9,3.9,1.2,0.2Zm33.6-17.4,0.8,0.2,1.3-3-0.5-.2-0.9,1.5a10.9,10.9,0,0,1,.7-1.7,2.9,2.9,0,0,0-.1-1.2l-0.4.2Zm-2.7-64.9,1.3,1.6,1.2,1.6,0.5-.3,0.4,0.9,0.2,0.5a0.9,0.9,0,0,0,.2-0.3C177.6,64.9,175.4,62.5,173.6,62.5ZM137,143.6a0.9,0.9,0,0,0-.1-0.4h-0.5a7.9,7.9,0,0,0-1.2,2,3.1,3.1,0,0,0,.6,1.5,1.5,1.5,0,0,0,.5-0.4l1.1-2.7a2.9,2.9,0,0,0,.1-0.7h-0.3A5.5,5.5,0,0,0,137,143.6Zm50.8-2a1.7,1.7,0,0,0,.7-0.5c0.1-.9.1-1.8,0.1-2.7h-0.4C186.9,139.2,186.5,140.2,187.8,141.5ZM96.6,189.6l-1.7-6.3C94,184.2,95.1,188.5,96.6,189.6Zm45.8-50.5h-0.5l0.5,3.4,0.9-1.6a2.6,2.6,0,0,0,.4-1.3,6.4,6.4,0,0,0-.9-1.6Zm20.9,9.8c1.1-.7,2.2-1.1,2.5-1.8s-0.3-1.5-.6-2.7Zm22.4-2.1-0.3.4,3,1.9a1.6,1.6,0,0,0,.8-0.2v-0.3h-0.7l0.2-1.4c0.1-.6.2-1.3,0.3-1.9l-0.4-.2-0.6,1.6a8.5,8.5,0,0,0-.2.9l-1.2-.4ZM170.5,139H171c0-1.2,0-2.4,0-3.5h-0.5l-1.5,2.9,0.8-.7ZM102,175.6v-1.6h-0.5l-0.9,2.4,0.5,0.2,0.3-.3-0.2,2.1H102l0.6-2.8H102Zm-19,8.1h0.4v-2.1h0.4v0.8h0.4l-0.7-3.6H83v4.9ZM177.7,61.9l-0.9.7,1.3,2.6c0.3-.4.9-0.9,0.8-1.2A9.9,9.9,0,0,0,177.7,61.9Zm-48.3,93.2h0.5l-0.3-2.8h-0.7l-0.7,4.4H129v-2.5Zm-14.9,18c-0.2.8-.3,1.6-0.5,2.3a2.4,2.4,0,0,1-.5.7,5.8,5.8,0,0,0-.9,1.1,1.9,1.9,0,0,0,.2.9l0.7-1,0.5-.6C114.6,175.5,116.4,174.8,114.5,173.1ZM90.6,184.9l-0.9.2,0.9,4.5,0.8-.2Zm24-29-0.6-1.4-0.3.7-0.5-1a3.6,3.6,0,0,0-.7,1.1,16.4,16.4,0,0,0-.1,2.3Zm28.9-13.1c0.3,0.4.7,1.9,1.2,0.1s-0.3-1.3-.5-2h-0.3l-1,4h1Zm-7.4,11.4-0.8-.3-1.5,4.1,0.9,0.3ZM195.6,18.7a13.6,13.6,0,0,0-1.2-3.1,5.6,5.6,0,0,0-1.9-1.1l-0.2.2a1.6,1.6,0,0,0,.3.6ZM152.2,58.4l0.5-.2a18.6,18.6,0,0,0-.6-1.8h-0.4L149,58.2l1.7-.4H151Zm-1.6,83.7h-0.9l0.7,4,1-.2Zm-58,27.5,1.6-4.1C92.2,166.5,91.2,167.5,92.5,169.6Zm88.1-40.2-0.9-.3-1.2,3.8,0.9,0.3ZM138,154.4l1,0.2,0.6-3.8-1-.2Zm29.6-16.4-0.6-.2a4.5,4.5,0,0,0-1.5,1.1,2.3,2.3,0,0,0,.3,1.5,1.5,1.5,0,0,0,.6.4Zm-62.1,29.5,0.4,0.7a1.6,1.6,0,0,0,.5-0.4,15.9,15.9,0,0,0,1.1-2.5,3.3,3.3,0,0,0-.2-1.4h-0.4Zm7.3,0.5h-0.7c-0.1,1.4-.3,2.7-0.3,4.1a1.5,1.5,0,0,0,.5.6,1.8,1.8,0,0,0,.4-0.8,20.8,20.8,0,0,0-.5-2.2h0.6C112.9,169.1,112.9,168.5,112.8,168ZM195.9,13.1l-1.6-1.9-0.7.5c0.3,0.8.8,1.6,1.2,2.4ZM174.8,119.1l-0.3-.4-1.9,1.2a1.2,1.2,0,0,0-.5.6,17.7,17.7,0,0,0,.8,1.8l1.2-1.1a0.6,0.6,0,0,0-.1-0.5h-0.5l-0.6.2a0.8,0.8,0,0,1-.1-0.3l0.6-.4Zm-48.6,52.7,0.4-.2,2.9-3.3a0.7,0.7,0,0,0-.2-0.7,0.7,0.7,0,0,0-.6.1l-2.5,3.4A1.7,1.7,0,0,0,126.2,171.8Zm64-161,2.4,2.1a5.3,5.3,0,0,0,.1-2c-0.1-.3-1-0.4-1.5-0.5A2.8,2.8,0,0,0,190.2,10.8Zm12.3,80.4c-0.2.8-.2,0.8-2.6,0.3,0.3,0.7.6,1.6,0.9,1.6a15.8,15.8,0,0,0,3-.1ZM82.1,179.2l0.7,0.3,1.7-4.3-0.7-.3Zm46.6-14.5-0.6-1.2a2.6,2.6,0,0,0-.7.7,11,11,0,0,0-.5,2,2.9,2.9,0,0,0,.2.9h0.4Zm50.7-130,0.7,0.3c0.4-1.1.8-2.2,1.1-3.3a4.9,4.9,0,0,0,0-1.3h-0.4ZM133.2,155.2l-1-.2-0.7,3.2,1,0.2Zm30.7-12.7h-0.3c0.1,0.5.2,0.9,0.2,1.4a1,1,0,0,1-.2.4l-0.3-.3-0.4-.8c0,0.8,0,1.6.1,2.4a0.9,0.9,0,0,0,.3.3,13.3,13.3,0,0,0,1.1-2.2A2.7,2.7,0,0,0,163.9,142.5Zm-61.4,25.3h-1.1c-0.1,1.2-.1,2.3-0.2,3.5l0.3,0.2,0.3-.2ZM85.3,184l0.8,0.2,0.8-3.9-0.8-.2Zm62.3-35.3h-1.2l0.7,3.4,0.5-.2C147.6,151,147.6,149.8,147.6,148.7ZM116.3,160h-0.9c0.1,1.2.1,2.3,0.2,3.5a1.6,1.6,0,0,0,.7.3V160ZM87.1,180.8h0.8l-0.3-3.3a1.6,1.6,0,0,0-.8.1,2.2,2.2,0,0,0-.2.9h0.2Zm31.5-8h0.5l-1.3-4.8a2.1,2.1,0,0,0-.4-0.5,1.4,1.4,0,0,0-.3.6C117.6,169.6,118.1,171.2,118.6,172.8Zm21.3-19.1c-0.4.9-.9,1.3-0.9,1.8a8.9,8.9,0,0,0,.8,2.1,2.4,2.4,0,0,0,.6-1A24.2,24.2,0,0,0,139.9,153.7Zm-25.4,6.8h0.6v-3.7h-1Zm51.3-27.7h0.9l-0.4-4.1h-0.7Zm-48.5,24.5h-0.8c0,1.1,0,2.2,0,3.2a2.5,2.5,0,0,0,.3.7,1.8,1.8,0,0,0,.5-0.7C117.4,159.5,117.3,158.4,117.3,157.3ZM84.6,177a1.4,1.4,0,0,0-.4.5c0.2,1,.4,1.9.6,2.8H85l0.3-1.7,0.5-.2L85.4,177H85.1l0.2,1.7Zm98.3-34.7a5.9,5.9,0,0,0-.1-2.1,2.2,2.2,0,0,0-1.4-.6,1.4,1.4,0,0,0-.5.7Zm-15.4-10.2,0.4,0.2,2.5-4.6a1.2,1.2,0,0,0-.2-0.6l-0.4.4-0.6,1.4Zm11.7,2.8,0.7,0.4,1.4-3.2a0.8,0.8,0,0,0-.3-0.5h-0.3Zm-47,17.6-0.9-.2-0.6,3.4,0.9,0.2ZM186.8,26.3h0.7c-0.1-1.3-.2-2.5-0.4-3.8h-0.8Zm-1.4,44.9c-0.6-.6-1-1.5-1.6-1.7s-1.5.3-2.9,0.6Zm-48.3,80.3,0.9,0.2,0.9-3.3-0.9-.2Zm38.2-17h-0.9l0.5,3.3h0.9Zm-66.1,21.8a6.4,6.4,0,0,0-1.3,1.8,5.5,5.5,0,0,0,.3,2.1h0.3l1.2-3.3-0.9.7Zm70.5-29h-0.4a11.2,11.2,0,0,0-1.4,2,2.9,2.9,0,0,0,.3,1.5h0.3ZM170.4,22.1l-0.4.6,3.5,2.7,0.4-.5Zm1.8,110.5,0.8,0.2c0.3-.8.6-1.6,0.8-2.5a2.5,2.5,0,0,0-.3-1.1h-0.3Zm-44,26c0-.8,0-1.3-0.1-1.9a3.4,3.4,0,0,0-.3-0.9h-0.3l-0.7,3.1h0.7v-1Zm30.7-19.6,0.4,2.5h0.7l-0.6-2.9a1.5,1.5,0,0,0-.2-0.6l-0.5-.2-0.4,2.4ZM100,180.9l-0.9.2,1,3.8h0.5Zm72.4-48.2h-0.7v3.2h0.9v-3.2ZM171.6,53h0.7a3.8,3.8,0,0,0,.5-1.8c-0.1-.4-1-0.7-1.5-1Zm-18.4,93.1-0.7.2,0.9,3.5,0.8-.2Zm-31.8,9.2,0.6,0.4c0.6-.9,1.2-1.7,1.7-2.6a1.7,1.7,0,0,0-.4-0.8ZM155.7,31.7l-0.3-.6L152,33.1a0.4,0.4,0,0,0,0,.4h0.4Zm23,88.9,0.8,0.2,1-3.5-0.6-.2Zm-40.6,40-0.8-1.4-1.4,2.4,0.2,0.3Zm14.2-9.4,0.7-.2-0.7-3.2-0.3-.4a1,1,0,0,0-.3.4C151.9,148.9,152.1,150,152.3,151.2Zm32.8-8.4c3,0.1,1.8-1.3,1.3-2.7Zm1.1-124.2-0.9.4,1.3,3,0.5-.2ZM115.8,171.3l-0.8.3,1.1,3.2,0.4-.3C116.3,173.3,116,172.3,115.8,171.3ZM158.5,135h1c0-1.1,0-2.2,0-3.3h-0.4Zm13-14.4-0.5-.2-1.7,3.9,0.6,0.3ZM96.3,168.3l-0.8-.2c-0.2.9-.4,1.9-0.6,2.8l0.6,0.3Zm85.1-94-0.3.2,1.9,3.5h0.3a0.9,0.9,0,0,0,.3-0.4Zm-17,68.4h1c0.1-.8.1-1.5,0.1-2.3a1.5,1.5,0,0,0-.6-0.4Zm-10.6,5.1,0.9-.2-0.8-3h-0.4C153.6,145.8,153.7,146.8,153.8,147.8ZM113,158.9l-0.4-.2-0.6,1.2a2.5,2.5,0,0,0-.9,1.1,6,6,0,0,0,.1,1.7Zm59.8-89.7,0.3-.3-3.8-3.5-0.4.4Zm-61.8,93-0.8-.2-0.9,3,0.7,0.2Zm14.7-11h-0.6c0.1,0.8.1,1.7,0.2,2.5a2,2,0,0,0,.4.7,1.9,1.9,0,0,0,.5-0.8C126.1,152.9,125.9,152,125.7,151.2Zm63.1-6.8h0.5V141h-0.8Zm-12.6-11.9h-0.7l0.3,3.3h0.7Zm-63.3,35.8h0.9l0.4-2.9h-0.7Zm9.8,1.3h0.2l2.5-3.6a1,1,0,0,0-.2-0.6h-0.4Zm-15.1-10.8a7.5,7.5,0,0,0-1.1,1.9,2.8,2.8,0,0,0,.8,1.2l0.7-1.7h-0.3v-1.3Zm100.7-55.4h-0.3l0.8,6.8h0.4ZM91.2,167.9l-0.5-.2a21,21,0,0,0-1.3,2,2,2,0,0,0,.1,1.1h0.3Zm113.9-66.2h-0.3l-1.1,8.2H204Zm-81.6,49.2-0.6-.4-1.8,2.9,0.3,0.4Zm21.7,3.8H146l-0.3-2.9h-0.8Zm-40.5,25.8h0.5l-0.7-3.3-0.3-.2a0.7,0.7,0,0,0-.3.4Zm94.1-55h-0.2l-3.5,5.1,0.4,0.3ZM111.2,172h-0.8l-0.2,3H111Zm43.6-25.5,0.7-.2-0.6-2.4a1.3,1.3,0,0,0-.4-0.4,1.2,1.2,0,0,0-.4.4C154.4,144.8,154.6,145.6,154.9,146.5Zm29.6-7.8,0.3,0.2,0.6-.8a0.7,0.7,0,0,0,0-.4l-0.8.3a2.2,2.2,0,0,0-1,.6,3.1,3.1,0,0,0-.1,1.4,1,1,0,0,0,.4.4l0.4-1Zm17.7-18.1-0.4-.3-3.7,4.7h0.1Zm-1.4,4,0.5,0.3,2.3-4-0.4-.2ZM187.9,137l-0.9-.4-0.5,2.1H187ZM53.1,84.9l0.2,0.3,3.8-2.1,0.4-.4H56.9ZM178.7,133h-0.5l-1,3.1,0.7,0.2Zm-34.5,23.3H145l-0.4-2.6h-0.4C144.2,154.6,144.2,155.4,144.2,156.3Zm-10.4-8.1,0.8,1.1c0.3-.7.5-1.3,0.7-2a1.7,1.7,0,0,0-.6-0.5Zm53.5-54.5H187l-0.9,3.1a0.5,0.5,0,0,0,.2.5l0.5-.2C187,95.9,187.1,94.8,187.3,93.7Zm-25.9,47.7h0.7v-2.7h-0.6v2.7Zm16.3-3.5,0.5,0.2,1.1-2.2a1.1,1.1,0,0,0-.2-0.6h-0.3Zm-20.7-.5h0.7l0.5-2.7h-0.7Zm41.7,7.5,0.9-2.4a1.3,1.3,0,0,0-.4-0.4l-1.1,1.7A4.2,4.2,0,0,0,198.8,144.8Zm-71.2,15.9h-0.7l-0.3,2.8h0.7Zm-2.4-13.4-0.5-.5-1.8,2.1,0.5,0.4ZM176.4,35.6l-1.2,3.2,1.8-1.6ZM139,156.7h-0.7l0.2,2.3,0.7-.2C139.2,158.1,139.1,157.4,139,156.7Zm32.6-33.4-0.7-.3-0.7,2.6h0.4Zm-61,52.5-0.8-2a2.6,2.6,0,0,0-.6,1,4.8,4.8,0,0,0,.4,1.4Zm67.8-58.7h-0.3l-1.5,2.8a1.1,1.1,0,0,0,.2.5l0.4-.2Zm-2.7,7.9-0.6-.2c-0.3.6-.6,1.3-0.8,2a1.3,1.3,0,0,0,.3.7h0.2ZM84.7,174.4l0.6,0.3,1.4-2.9-0.4-.2ZM212.9,105l0.8,1.1,0.7-.7a12.8,12.8,0,0,0-1.1-1.4ZM104.9,165.7h-0.6v2.7h0.6v-2.7ZM148.4,58.3l-0.5.3,1.3,2.5h0.3l0.2-.3Zm2.7,91h-0.5l1.2,2.9H152a0.8,0.8,0,0,0,.1-0.5ZM185.3,134l0.6,0.3,0.9-1.7-0.9-.4ZM126,161.1h0.5v-2.8H126v2.7Zm1.9,0h0.6l0.5-2.5h-0.7Zm-37.7,29h0.3l-1-3.4-0.6.2ZM168.6,84.4l0.4-.3-2.6-3.3-0.3.2ZM119.5,161h-0.7v2.5h0.5Zm-4.4,1.6h-0.6l0.4,2.8h0.7Zm50.4-113a7.9,7.9,0,0,0-1.3-1,1.8,1.8,0,0,0-.8.4,9.3,9.3,0,0,0,1.2,1.1A2.6,2.6,0,0,0,165.5,49.5Zm18-19.5h-0.3l-1.1,3.1,0.7,0.2ZM140.6,153l-0.3.2a4.5,4.5,0,0,0,.1,1.1,7.9,7.9,0,0,0,.7,1.2l0.4-.4Zm-8.2,7.5-0.8-.2c-0.1.7-.1,1.4-0.2,2.1h0.4Zm-11-4.7-0.5-.2-1.3,2.6,0.5,0.2ZM96.3,169h0.8l-0.3-2.3H96.4C96.3,167.5,96.3,168.3,96.3,169Zm6.2-9.9,0.2,0.2,3.7-2.1-0.3-.4Zm85.8-14.5-0.9-1.8a2.6,2.6,0,0,0-.7.9,3.8,3.8,0,0,0,1,1.1A1.2,1.2,0,0,0,188.3,144.7ZM82,178.7H81.2c0,0.8,0,1.7,0,2.5h0.3ZM177.7,70.7H178V67.5h-0.5Zm-62.1,80.8-0.2-.3-4.1,2.6,0.2,0.3Zm-30,40.7,0.5,0.2,1.2-2.8-0.5-.2Zm0.4-17.5H85.4l0.5,1.9a1,1,0,0,0,.2.5h0.4Zm98.2-44.5h-0.6a13.4,13.4,0,0,0-.1,1.8,1.7,1.7,0,0,0,.7.4v-2.1Zm-70.6,40.1,0.6,0.2,0.8-2.3-0.7-.2Zm55.6-93.9h-0.6l-0.5,2.4h0.7Zm-23.6,75.1,1,1.6a1.1,1.1,0,0,0,.3-0.5c-0.2-.7-0.5-1.4-0.8-2Zm-46,27.7H98.8c0,0.8-.1,1.5-0.1,2.3H99Zm4.5-4.7-0.5-.9-0.9,1.7a1.4,1.4,0,0,0,.4.4Zm11.4-4-0.5-1a11.4,11.4,0,0,0-.8,1.5,1.5,1.5,0,0,0,.5.6Zm15.2-10.2h0.5v-2.3h-0.5v2.3ZM172.1,22.5l-0.4-1.6-1.8.8ZM192,17l0.4-.2-1.4-2.4-0.5.3ZM175.9,72.7l0.6,0.2,0.8-2.1-0.6-.2Zm-40.3,77h-0.7l0.6,2.2h0.4Zm50-19.7,0.5-.2-0.8-2.6-0.6.2Zm-13.4-4.7-0.5-.3-1.2,2.4,0.5,0.2ZM82,191.5h0.3c0-.8,0-1.6,0-2.4a0.7,0.7,0,0,0-.5-0.3,0.5,0.5,0,0,0-.3.4C81.6,189.9,81.8,190.7,82,191.5Zm50.5-30.9h0.7v-2h-0.5C132.6,159.3,132.6,159.9,132.5,160.6ZM169,122.9h0.5l0.7-1.7a2.1,2.1,0,0,0-1.1.3A3,3,0,0,0,169,122.9Zm-38.4,32.2h-0.7l0.3,2h0.4C130.6,156.5,130.6,155.8,130.6,155.1Zm32.6-16.4h0.6l-0.4-2.6h-0.5Zm-46.9,27.4h0.5l0.3-1.4h0.2l-0.3-1.1h-0.4ZM102.1,174l0.7,0.2,0.6-2.1H103Zm32.5-14.4H134c0.1,0.6.2,1.2,0.4,1.7h0.5Zm51.7-20.4-0.6-.3-0.9,2.1,0.5,0.2Zm25.9-33.6h0.3l-0.2-3.3h-0.5Zm-83,53.5h0.5v-2.3h-0.6v2.2Zm-27.4,13.3h0.4a2.9,2.9,0,0,0,.6-0.8,5.7,5.7,0,0,0,.1-1.4h-0.2ZM184,129.3l0.9,1.8a1.1,1.1,0,0,0,.3-0.5c-0.2-.6-0.5-1.2-0.8-1.7Zm-23.3,8.9h0.4v-2.6h-0.4v2.5Zm9-6.9-0.4-.2-1.4,2.3,0.4,0.2Zm-56.9,43.4h0.6l-0.2-2.2h-0.5v2.2Zm-3.2-9.5h-0.6l-0.3,2.2H109C109.2,166.5,109.3,165.9,109.5,165.2ZM179.4,65h-0.6l-0.3,2h0.7ZM105.8,174.8h-0.5l0.7,3.2h0.3Zm62-110.1a2.2,2.2,0,0,0-.3.7l0.8,1.3,0.5-.4Zm1.8-40.5,0.3-.3-1.1-1.3-0.7.5ZM126.3,150.6h-0.5l0.6,2.5h0.4Zm15.5,3.9h0.2l-0.6-2.2-0.3-.6a1.4,1.4,0,0,0-.3.7C141.2,153,141.5,153.7,141.9,154.5Zm-36.4,13.6h-0.6V170a1.9,1.9,0,0,0,.7-0.6A4.5,4.5,0,0,0,105.5,168.1ZM156.9,138l-0.4-.2-0.9,2a0.5,0.5,0,0,0,.1.4h0.3Zm40.4-51.2h0.5L196.8,84l-0.5.2Zm-45.6,57.7H152l-1.1-2.9h-0.2a0.6,0.6,0,0,0-.1.4ZM86.3,179.3l-0.5-.2-0.9,2.4,0.5,0.2Zm92.5-93.2,0.3,0.3,2-1.8a0.3,0.3,0,0,0,0-.3h-0.3Zm-12.4,49-0.4-.2-1.5,3h0.3ZM184.1,121h-0.4L184,123l0.6-.2Zm-1.4.1h0.5l-0.5-2.2-0.4.2C182.4,119.6,182.6,120.3,182.7,121Zm-7,3.3h0.4l1-2.6h-0.4Zm6.4,5.2,0.6,0.2,0.3-1.7h-0.4ZM88.3,186.9l-0.5-.2-0.5,1h0.1l0.3-.2-0.3,1.3h0.5Zm40.9-23.6h0.4v-2h-0.4v2ZM118.8,151l-0.3-.2-1.1.9,0.8,0.6Zm47.1-90.4h0.5V58.2h-0.3ZM189.3,9.5V8.9l-1.7.4a1.7,1.7,0,0,0,0,.5ZM113.6,173.2h0.5v-1.9h-0.5v1.9ZM184.8,32l1.1-1.5-0.3-.3-1.3,1.2ZM114.5,164.3h-0.6l0.5,1.9h0.3Zm16.3-3.6-0.6-1.1a1.4,1.4,0,0,0-.4.6,6.3,6.3,0,0,0,.4,1.2Zm19.2-98.9-0.3.2,1.7,2.9,0.3-.2Zm10.8,80.5H161a3.5,3.5,0,0,0,.4-1,1.7,1.7,0,0,0-.3-0.8h-0.4C160.8,141.2,160.7,141.7,160.7,142.3Zm6.3-88,0.5-.3-1-1.7h-0.3Zm29.8,38.2a2.7,2.7,0,0,0-.4,1.1,1,1,0,0,0,.6.6,0.9,0.9,0,0,0,.5-0.5A7.1,7.1,0,0,0,196.8,92.5Zm12.9,11.5h0.4l-0.5-3h-0.3Zm-31.3,17.3H178l-0.2,1.8h0.6v-1.9Zm-9.9,3.3h0.5a15.3,15.3,0,0,0,0-1.6,1.2,1.2,0,0,0-.5-0.3v2Zm-30.7,31h0.5l-0.5-2.1h-0.5Zm46.5-11.3h0.2l-0.8-2.6-0.5.2Zm-6.7-16,0.3,0.2,1.1-2a0.3,0.3,0,0,0-.2-0.3h-0.3Zm-0.6-7,0.5,0.2,0.8-2h-0.4Zm10.1-92,0.4,0.2,1-1.6-0.5-.3Zm-15.1,91.9h-0.6l0.4,1.8h0.5Zm-60.1,55.2-0.5-1.3a1.7,1.7,0,0,0-.3.8,4.2,4.2,0,0,0,.5,1.1Zm76-161.7h-0.3l1.1,2.8,0.4-.2ZM147.5,154.3l0.4,0.2,0.9-1.8-0.5-.2Zm27.8-25.2,0.8-1.9a0.8,0.8,0,0,0-.2-0.4l-1,1.6A2.1,2.1,0,0,0,175.3,129.2ZM208.2,113v-0.4a3.6,3.6,0,0,0-1.1,0,2.4,2.4,0,0,0,0,.9ZM76.8,180.8H76.6l0.6,3.7h0.3Zm28.5-9.3h0.5l0.2-1.7h-0.6ZM176.9,35.2l0.4,0.5,0.7-1.4-0.3-.3Zm0.2,95.6h-0.5l0.2,1.9h0.5ZM192.7,24.6a1.7,1.7,0,0,0-.8-0.2,1.8,1.8,0,0,0-.6.7,1.4,1.4,0,0,0,.4.6ZM174.3,131.2h-0.5l-0.5,1.9h0.4Zm-14.3-.8h-0.4l0.5,2.2h0.4Zm23,5h-0.6l0.3,1.6h0.3C183.1,136.4,183.1,135.9,183.1,135.4ZM137,154.6a1.5,1.5,0,0,0-.3.6l0.6,1.6,0.3-.3Zm67.3-25.3-0.6.6,1.5,1.1,0.2-.2Zm-99.8,43.5H105c0-.4.1-0.9,0.1-1.3h-0.4ZM62.3,80l-0.2-.3-2.3,1.4,0.2,0.3Zm50.1,94.1h-0.5l0.3,2h0.3v-2Zm91.7-74.2,0.2,0.5,1.6-.5V99.5Zm-58,56.6,0.4,0.2,1-1.7-0.3-.2Zm-42.4,12.8h0.6c-0.1-.4-0.1-0.9-0.2-1.3h-0.4v1.5ZM168.3,76h-0.4l-0.3,1.8H168Zm7.1,53.7h0.4l0.7-2h-0.3Zm-43.5,34.2h0.5l0.5-1.7h-0.3Zm-31.6,17.2h0.5c-0.1-.5-0.1-1-0.2-1.6h-0.4v1.6ZM181.7,138l0.6-.9-0.3-.3-0.9.6Zm-11.9-7.7h0.5l0.5-1.5h-0.4ZM138.6,38.2l0.2,0.3L141,37V36.8ZM118,156.9h-0.4l0.4,2.1h0.4Zm55.8-27.8h0.4v-1.6h-0.4v1.6Zm-71.3,37.5h-0.4l0.4,2h0.4Zm95.8-74.7-0.3.2,0.8,1.3,0.5-.3Zm2.1,33.1-0.4-.2-0.9,1.5h0.4ZM86.7,176.8h0.4l-0.5-2.1H86.3ZM173.4,23.3l0.3-.2-1.2-1.7-0.3.2Zm-5.8,118.2-0.4-.7a1.4,1.4,0,0,0-.5.6,2.6,2.6,0,0,0,.5.8Zm9.7-24-0.3-.2-1,1.6,0.4,0.2Zm-7.8-58.4H170l0.4-1.6h-0.4Zm-35.8,98.1h-0.4l0.2,1.8H134ZM184.6,29l0.4,0.2,0.6-1.5-0.5-.2ZM92.7,188.3H92.3l0.4,2.1h0.3ZM174.1,74.1l0.2,0.2a3.4,3.4,0,0,0,.8-0.9,1.7,1.7,0,0,0-.4-0.8h-0.3l0.2,0.8Zm-39.4,89.6,0.4,0.2,0.8-1.6h-0.3Zm-9.2-15.8h-0.2l-1.4,1.8,0.2,0.2,1.2-1.6ZM17.9,130.5H17.8v2.1h0.4Zm121.8,21.2h0.4l-0.4-1.8h-0.4Zm15.7-11.5H155l-0.4,1.6h0.3Zm25.6-5.7h-0.3l-0.4,1.7h0.3Zm-62,34.6h-0.3l0.6,1.9h0.2ZM177.2,86h-0.5l-0.3,1.7h0.3Zm-35.4,65h-0.2l0.9,2.5h0.3Zm-11.4,12.5h-0.4l-0.4,1.4H130ZM194.1,23.6h0.4l0.3-1.4h-0.5ZM139,148.8h0.4l-0.5-1.7h-0.4Zm29.7-3.2,0.2,0.2a3.9,3.9,0,0,0,.9-0.7,1.9,1.9,0,0,0-.2-0.8Zm3.2-120.8-0.3.3,1.3,1,0.2-.3Zm-5.2,36.9h0.4l0.6-1.8h-0.3Zm5.7,64.8-0.2-.2-0.9,1.3a1.8,1.8,0,0,0-.1.7Zm2.4,3.2h-0.4v1.3h0.4C174.8,130.5,174.8,130,174.8,129.6ZM184,16.3h0.3l-0.6-2.1h-0.3Zm-82,146.5h0.3c-0.1-.6-0.2-1.2-0.3-1.8h-0.3Zm87.6-68.2H190a9.1,9.1,0,0,0,.6-1.1,1.7,1.7,0,0,0-.4-0.5Zm-31.5-27H158v1.9h0.4V67.6Zm-39.6,97.7h-0.4l0.6,2.2H119Zm47-115.1-0.4.2,0.9,1.3,0.3-.2Zm41.3,81.8-1.1-.8-0.2.3,1,0.8ZM184.6,81.2l0.2,0.2,1.1-1.2-0.4-.3Zm-43.8,76.2h-0.3v1.5h0.3v-1.5Zm23.5-86.1-0.4.2,0.9,1.3,0.3-.2Zm16.5,56.6h-0.5l0.2,1.4h0.4ZM100,177.4H99.6l0.2,1.5h0.4ZM185.7,13.5h-0.3l0.5,1.6h0.3Zm4.2,14.8,1.3-1.1a2,2,0,0,0-.3-0.7Zm-9.7,39.3h0.4c0-.4,0-0.9,0-1.3h-0.4v1.4ZM151.7,39l-0.3-.2-0.8,1.7h0.2Zm-25.7,125h-0.5a7.3,7.3,0,0,0,0,1l0.4,0.2v-1.2Zm54.8-95.2h0.4l0.4-1.5h-0.2Zm-41.1,76.5h-0.3l0.5,1.5h0.3Zm31.1-69.5h-0.4L170.1,77h0.4Zm10.8,6.7H182V80.9h-0.2ZM89.6,189.6H89.2l0.5,1.7H90Zm44.5-28.4-0.4-.4a2.5,2.5,0,0,0-.4.6,1,1,0,0,0,.3.5Zm-29.2,9.3-0.4-.7a1.2,1.2,0,0,0-.3.5,2,2,0,0,0,.3.7Zm64.2-43h0.3l0.5-1.4h-0.3Zm38.8-29-0.6-.9a0.9,0.9,0,0,0-.3.4l0.5,0.8ZM136,148.8h-0.3l0.4,1.7h0.3Zm2.7-4.3h0.4l-0.3-1.4h-0.4ZM142,156l-0.4-.2-0.5,1.3h0.3Zm-5.6-3.4H136l0.2,1.3h0.4Zm-21,14.2h-0.4l0.3,1.1h0.3Zm-1.9,3.3h-0.4c-0.1.3-.1,0.7-0.2,1l0.3,0.2ZM137,151.5h-0.4l0.2,1.2h0.4Zm3.9-2h0.3l-0.5-1.6h-0.4Zm-0.5,1.1h0.4l-0.7-1.6h-0.3Zm-44.6,16h0.4c0-.3-0.1-0.7-0.1-1H95.8v1Zm70.3-91.4h-0.3v1.2h0.4V75.1Zm28.7,54.2H195l1.3-1.9-0.2-.2ZM178.1,33h0.4V31.9h-0.4A8.8,8.8,0,0,0,178.1,33ZM153.5,143.3h0.4l0.4-1.4H154Zm28.2-13.1h-0.4l0.2,1.1h0.3v-1.1ZM170.8,75.9h0.4l-0.5-1.4h-0.2ZM187.2,146a2.1,2.1,0,0,0,.2-0.6l-1.3-.9ZM161.8,69.1l-0.3.3,1.1,1,0.2-.2ZM97.6,168.8H97.2L96.8,170h0.4Zm91.4-75.3h0.3c0.1-.5.1-0.9,0.2-1.4h-0.3Zm-6-10.9-0.2-.2-0.8,1.1,0.3,0.2Zm-55.3,72.5-0.4-.6-0.4.7a0.8,0.8,0,0,0,.2.3Zm48.4-23.9h0.3l0.7-1.7h-0.3Zm2.9-8h-0.4l-0.2,1h0.3ZM161.2,145l-0.4-.2-0.5.9h0.3Zm48.3-22-0.3-.2-0.5.9,0.4,0.3ZM176.4,19.5l-0.3.2,0.7,1.5H177ZM126.7,155.5h-0.4v1.2h0.4v-1.2Zm-9.2,10.6h-0.3l-0.6,1.3H117Zm58-44.3h0.3l0.7-1.3h-0.3Zm12-95.2h-0.3l-0.4,1.3h0.3ZM108.9,176.9h0.3l-0.2-1.5h-0.3v1.5Zm71.6-57.7,0.4,0.2,0.4-1-0.4-.2Zm-8.1,5.4h0.4v-1.1h-0.3v1.1Zm15.8-44.3h0.3l0.5-1.2h-0.4Zm-4.6,46.6h-0.4a4.5,4.5,0,0,0,.1.7h0.5Zm-66.3,36.8,0.4,0.2,0.3-1.1h-0.3ZM192.4,13.4l-0.2.3,1,0.5,0.2-.2Zm0.1,12.2,0.3,0.2,0.6-.9h-0.3Zm-31,107.5h0.4v-1.1h-0.3C161.5,132.3,161.5,132.7,161.6,133.1Zm4.7-107.7-0.2-.7-1,.4ZM96.7,182.4H97L96.8,181H96.4Zm83.4-151h-0.4l-0.3,1.1h0.3ZM165.2,62.1h-0.3v1.1h0.3V62.1ZM188,78.4h-0.3l-0.5,1h0.3Zm-50.4,62.2h-0.2l0.5,1.3,0.3-.2Zm35.1-80.2-0.4.4,1.1,0.9,0.3-.3Zm9.5,56.9h-0.4a7.7,7.7,0,0,0-.2.8H182Zm-5,19.2h-0.4l-0.2,1h0.3Zm-11.4-9.6H166l0.4-1.1h-0.3ZM97.3,163.5a6.7,6.7,0,0,0-.8,1.2,2,2,0,0,0,.3.7ZM172.8,74h-0.2v1.3h0.2V74Zm-41.9,88.4h-0.3v1.1H131v-1.1Zm30-29h-0.3l0.3,1.1h0.4Zm-1,11h0.4l-0.5-1.1h-0.2Zm1.9-1.5,0.3,0.2,0.8-1.2h-0.2Zm5.6-86.3h0.3l-0.4-1h-0.3Zm19.2,25.7h-0.4V83h0.3C186.7,82.7,186.7,82.5,186.7,82.2Zm-19.3,50.2h-0.2l-0.3,1.3h0.3Zm1-81.8,0.2-.2-0.7-1.1-0.3.2Zm7.9,87.4H176v0.9h0.3A6.7,6.7,0,0,0,176.3,138ZM190.8,12.1h-0.3l0.6,1.4h0.2Zm-2.8,131h0.2v-1.1h-0.3v1.1Zm-30.3,4.4h-0.4v0.8h0.3A6.6,6.6,0,0,0,157.7,147.6Zm24.6-13.5H182a3.2,3.2,0,0,0-.1.7h0.4v-0.8Zm17.8-7.9,0.3,0.2,0.6-.8-0.2-.2ZM184.9,84.4l0.3,0.2,0.6-.9-0.3-.2Zm-23.5,51.8h0.3l-0.2-1.2h-0.3Zm-35.9,21.9h0.3c0-.3,0-0.6,0-0.8h-0.3v0.9Zm49.8-96v0.3l0.7,0.3a1.3,1.3,0,0,0,0-.3Zm-20.4-2.2h-0.2l0.6,1.4h0.2ZM103.3,166.9h0.2l-0.3-1.5h-0.2Zm93.5-75.1,0.3,0.2,0.5-.9h-0.2Zm-17.4,34.3a1.7,1.7,0,0,0,.4-0.6,0.9,0.9,0,0,0-.3-0.4,1,1,0,0,0-.3.3A1.5,1.5,0,0,0,179.4,126.1Zm-54.8,28.1h0.2l-0.4-1H124Zm78.7-34.9H203l-0.6.8,0.3,0.2Zm-87.6,50.1H116l-0.3-.8h-0.3Zm91.9-63.3h-0.3l0.3,1.4h0.1v-1.4ZM177.7,36.2H178l0.2-.8H178Zm-10.5,98.4h0.3l0.2-.7-0.3-.2ZM155,149h0.4v-0.7H155C154.9,148.5,155,148.8,155,149Zm-50,25.3h0.4v-0.9h-0.3Zm55.7-31.1h0.2l-0.5-1h-0.2Zm-53.5,13.3,0.2,0.3,0.8-.6v-0.2Zm7.1,5.5h0.3l-0.3-.9h-0.2Zm51-30.9h0.3l-0.3-1.2h-0.2Zm16.4,1.8h-0.2L181,134h0.2Zm-8.7-70.2-0.2.2,0.7,0.6,0.2-.2Zm12.6-40.9h-0.3l0.3,1.1h0.2ZM99.2,177.2h0.3l0.2-.8H99.3v0.8ZM150,151.4h0.3v-1h-0.3v1Zm23.8-79.1h-0.3v1.2h0.2V72.2ZM158,148.7h-0.3l0.2,0.9h0.3v-0.9Zm36.6-52.5,0.2,0.2,0.9-.7V95.5Z" transform="translate(-15.4 -8.1)"/><path d="M206.1,143l1.9-4.5a2.4,2.4,0,0,0,.9.7,3.3,3.3,0,0,0,1-.5l0.3,0.5-1.2,3.1a2.2,2.2,0,0,1-.6.6,3.2,3.2,0,0,1,.1-0.8c0.2-.6.5-1.2,0.7-1.8a2,2,0,0,0-.1-0.8,2.4,2.4,0,0,0-1.2.3c-0.6,1.1-1,2.3-1.5,3.4h-0.3Z" transform="translate(-15.4 -8.1)"/><path d="M204.1,137.5l0.7-.9-0.3,1.5,0.5-.9,0.6,0.5,0.6-1.2v1.9l-1.3,1.4v-1.7a20.6,20.6,0,0,0-1.4,2.3,6.6,6.6,0,0,1-1.2,2.3l1.6-5.3h0Z" transform="translate(-15.4 -8.1)"/><path d="M197.5,140.3l1.9-5.1a13.5,13.5,0,0,0,.4-1.5l1-.8-0.9,2.9-0.2-.2-2.1,4.7h0Z" transform="translate(-15.4 -8.1)"/><path d="M211.5,134.2l1-4h0.5l-1.3,4h-0.2Z" transform="translate(-15.4 -8.1)"/><path d="M208.6,121.2l-1.1-2.9h0.6l0.6,2.7h-0.1Z" transform="translate(-15.4 -8.1)"/><path d="M206.2,134l-0.6,1.6h-0.3l0.6-1.6h0.2Z" transform="translate(-15.4 -8.1)"/><path d="M204.1,137.5l-1.6-.7,0.2-.3,1.4,1.1h0Z" transform="translate(-15.4 -8.1)"/><path d="M87.9,67l-2.4,1.6-0.2-.4L87.9,67h0Z" transform="translate(-15.4 -8.1)"/><path d="M82.7,69.5l-1.8,1.3-0.2-.3,2-1h0Z" transform="translate(-15.4 -8.1)"/><path d="M82.7,69.5l1.3-.6v0.3l-1.4.4h0Z" transform="translate(-15.4 -8.1)"/><path d="M22.9,118c0.1,1.9.3,3.7,0.3,5.6,0.1,3.9,0,7.8,0,11.7a3,3,0,0,1-.4,1,2.9,2.9,0,0,1-.4-1c0.1-4.5.3-9.1,0.4-13.6,0-1.2-.1-2.5-0.2-3.7h0.3Z" transform="translate(-15.4 -8.1)"/><path d="M20.9,123l-0.3-4.2-0.8.6,0.9-5.6V112a5,5,0,0,1,.4,1.3c0,3.2,0,6.4,0,9.7H20.9Z" transform="translate(-15.4 -8.1)"/><path d="M24.3,113.5v16.3H24V113.5h0.3Z" transform="translate(-15.4 -8.1)"/><path d="M22.5,110.2v6.7H22.4v-6.7h0.1Z" transform="translate(-15.4 -8.1)"/><path d="M31.9,134.5v1.6H31.7v-1.6h0.2Z" transform="translate(-15.4 -8.1)"/><path d="M31.4,138.2v-1.4h0.2v1.4H31.4Z" transform="translate(-15.4 -8.1)"/><path d="M29,128.3l0.3-1.8h0.2l-0.3,1.8H29Z" transform="translate(-15.4 -8.1)"/><path d="M45.1,144.5l0.2,1.9h0.2l0.3-1.7H46c-0.3,2.9-.6,5.9-0.8,8.8s0,4-.1,6a2.8,2.8,0,0,1-.4.9,2.6,2.6,0,0,1-.3-0.8q0.2-7.3.4-14.5A2.7,2.7,0,0,1,45.1,144.5Z" transform="translate(-15.4 -8.1)"/><path d="M60.9,159.6c0.3,2.3.5,4.3,0.8,6.2s0.7,6.5,1,9.8c0.1,1.4.3,2.7,0.4,4.1a1.6,1.6,0,0,1-.3.6,1.4,1.4,0,0,1-.4-0.5q-0.8-9.8-1.6-19.5A4.5,4.5,0,0,1,60.9,159.6Z" transform="translate(-15.4 -8.1)"/><path d="M52.4,149.1l-0.6.8H51.7l0.6-1.3a4.4,4.4,0,0,1,.5,1.2q0.5,6.6.9,13.2c0.1,1.8.2,3.6,0.3,5.4a2.7,2.7,0,0,1-.2.8,2.8,2.8,0,0,1-.3-0.8q-0.4-9-.8-18C52.6,150.1,52.5,149.7,52.4,149.1Z" transform="translate(-15.4 -8.1)"/><path d="M46.7,142.1a10.6,10.6,0,0,1,.6,2.4c0,4-.2,8-0.2,12,0,1.6,0,3.2-.1,4.8a1.5,1.5,0,0,1-.3.5,1.2,1.2,0,0,1-.3-0.5c0.1-2.6.3-5.2,0.3-7.7S46.7,146.1,46.7,142.1Z" transform="translate(-15.4 -8.1)"/><path d="M43.7,148.2l0.6-4.3h0.2L44,148.2H43.7Z" transform="translate(-15.4 -8.1)"/><path d="M58.5,158.8l0.4,1.8H58.6l-0.3-1.9h0.2Z" transform="translate(-15.4 -8.1)"/><path d="M65.4,165.2l1.3,11.1v-3.2h0.1c0.2,2,.3,3.9.5,5.8s0.4,2.9.7,4.4a1.8,1.8,0,0,1-.2.7,1.5,1.5,0,0,1-.5-0.5c-0.5-3.7-1-7.4-1.5-11.1l-0.8-6.5a5.7,5.7,0,0,1,0-.7h0.4Z" transform="translate(-15.4 -8.1)"/><path d="M70.6,189.1c-0.8-4.6-1.8-9.3-2.5-13.9A39.9,39.9,0,0,1,68,169l1.5,14.4H70v-1.2c0.4,2.3.8,4.5,1.1,6.7l-0.6.2h0Z" transform="translate(-15.4 -8.1)"/><path d="M73.6,189.3l-0.8-6H73c0.3,2.3.7,4.6,1,6.9a1.9,1.9,0,0,1-.4.8,2.3,2.3,0,0,1-.6-0.8c-0.7-3.9-1.4-7.9-2.1-11.8a29.5,29.5,0,0,1-.3-3.6L73,189.4h0.6Z" transform="translate(-15.4 -8.1)"/><path d="M76.3,189.2l-0.4-5.6H76c0.3,2.7.7,5.4,1,8.2a1,1,0,0,1-.2.4,1.3,1.3,0,0,1-.4-0.4c-0.7-3.2-1.4-6.5-2.1-9.8a52.7,52.7,0,0,1-.8-6.2l2.4,13.5h0.4Z" transform="translate(-15.4 -8.1)"/><path d="M70.1,180.1v1.7H70l-0.2-1.7h0.3Z" transform="translate(-15.4 -8.1)"/><path d="M73.3,175.3l-0.5-2.2h0.1l0.6,2.1H73.3Z" transform="translate(-15.4 -8.1)"/><path d="M64.7,176.1v-1.6h0.1V176H64.7Z" transform="translate(-15.4 -8.1)"/><path d="M72.5,178.1l0.2,2H72.5v-2Z" transform="translate(-15.4 -8.1)"/><path d="M69.8,178v1.3H69.8L69.6,178h0.2Z" transform="translate(-15.4 -8.1)"/><path d="M196.1,113.9c-0.1,1.7-.2,3.3-0.3,5s-0.4,4.4-.8,6.6a4.9,4.9,0,0,1-.9,1.6,4,4,0,0,1-.4-1.3c0.2-3.8.5-7.6,0.7-11.4l0.2-.3-0.5,7.2h0.4l0.2-1.8h0.1v1.6h0.2l1.2-7.2h0Z" transform="translate(-15.4 -8.1)"/><path d="M190.3,112.2v7.4h0.2l0.4-1.9h0.2l-0.5,5.8h-0.5V112.3h0.1Z" transform="translate(-15.4 -8.1)"/><path d="M197.6,113.8v2.5h0.3l0.4-1.5-0.7,5.5c-0.1.8-.2,1.5-0.3,2.3a1.4,1.4,0,0,1-.3.5,1.3,1.3,0,0,1-.3-0.5c0.2-2.2.4-4.5,0.6-6.7,0.1-.7,0-1.4,0-2.2h0.2Z" transform="translate(-15.4 -8.1)"/><path d="M192,118.2c0,3.7,0,6.6,0,9.6a0.9,0.9,0,0,1-.3.4,1.3,1.3,0,0,1-.3-0.5c0.1-2.1.2-4.2,0.3-6.2S191.9,119.7,192,118.2Z" transform="translate(-15.4 -8.1)"/><path d="M191.8,113.7l-0.7,1.7,0.5-3h0.4v5.8h-0.2v-4.6Z" transform="translate(-15.4 -8.1)"/><path d="M191.1,117.2v-1.9l0.3,1.9h-0.3Z" transform="translate(-15.4 -8.1)"/><path d="M194.4,113.5l0.3-1.2h0.2l-0.3,1.2h-0.2Z" transform="translate(-15.4 -8.1)"/><path d="M213.2,120l-1.6,4-0.4.9a6.5,6.5,0,0,1,.2-0.9l1.4-4.1Z" transform="translate(-15.4 -8.1)"/><path d="M152.3,133.2l0.8-2.4h0.3a1,1,0,0,1,.1.5l-1.2,2h0Z" transform="translate(-15.4 -8.1)"/><path d="M156.8,142.8v1.5l-0.4-.3A10.4,10.4,0,0,1,156.8,142.8Z" transform="translate(-15.4 -8.1)"/></svg>