<svg id="gluten-free_gluten-free_Image" data-name="gluten-free(gluten-free) Image" xmlns="http://www.w3.org/2000/svg" viewBox="0 0 173.4 174"><title>gluten-free(gluten-free)</title><path d="M57.1,24.8H56.9l-1.8.5a6.1,6.1,0,0,1,1.5-1.4l10.6-4.4c2.1-.9,4.6-1.2,6.4-2.6,3.3-2.6,7.4-2.4,11-3.9a41.1,41.1,0,0,1,18.3-3.1c6.9,0.4,13.8.7,20.5,2,3.8,0.7,7.3,3.1,10.9,4.9s4.2,2.4,6.4,3.6a0.6,0.6,0,0,0,.5,0l6.4,5.1,7.1,5.8a77.4,77.4,0,0,1,7.8,7,77.4,77.4,0,0,1,8.4,11,114.5,114.5,0,0,1,8.3,16.1,45.1,45.1,0,0,1,3.5,17.5c0,2.3.6,4.5,0.7,6.8s-0.1,5.5.1,8.3c0.1,1,.8,1.9,1.2,3a2.5,2.5,0,0,1,.2,1.8c-2.4,3.1-3,6.8-3.9,10.6a107.8,107.8,0,0,1-3.9,12.4,65.7,65.7,0,0,1-4.4,9.7c-2.8,4.9-5.9,9.7-9,14.4a43.1,43.1,0,0,1-3.2,3.5c-4.2,5.1-9.6,8.9-15.2,12.4a95.7,95.7,0,0,1-11.7,6.3c-3.1,1.4-6.4,2.2-9.6,3.3s-7.8,2.9-11.8,4-7.4,1.3-11,2c-1.7.3-3.4,0.8-5.1,1l-10.2.6c-2.7.2-5.4,0.8-8.2,1a25.3,25.3,0,0,1-4.9-.4,24.9,24.9,0,0,1-5.1-.9c-1.8-.6-3.3-1.8-5.1-2.6s-4.1-1.5-6.1-2.5-5.6-2.9-8.4-4.5a14.7,14.7,0,0,1-3.2-2.4c-0.7-.8-1-2-1.7-2.7s-4.6-4-6.6-6.2-4.2-5-6.3-7.5l-6.5-7.8a11.3,11.3,0,0,1-1.6-2.1c-0.7-1.4-1.1-3-1.8-4.4s-2-3.2-2.7-4.9a53.3,53.3,0,0,1-2.2-6.8c-1.1-4.2-2.3-8.3-3-12.5a64,64,0,0,1-.9-12.6,63.2,63.2,0,0,1,2-11.4c1.3-5.9,2.7-11.7,4.4-17.5,0.8-2.7,2.5-5.2,3.9-7.8,3.3-5.8,6.5-11.6,10.1-17.2a50.5,50.5,0,0,1,7.3-9c4.9-4.8,10.2-9.2,15.4-13.7A17.2,17.2,0,0,1,57.1,24.8Zm93.8,114.9,1.1,1.4a20.5,20.5,0,0,1,1.7,2.3c0.5,0.9,1,1.1,1.7.2,2-2.6,3.9-5.4,5.9-8.1a1.3,1.3,0,0,0,0-.8c-0.1-.7-0.5-1.5-0.3-2,1.2-2.2,2.7-4.3,3.8-6.5s3.2-7.3,4.8-10.9a14.6,14.6,0,0,0,.6-2.4c-1.4-.3-1.2-1-0.9-2.2,1-4,1.6-8.1,2.4-12.2a57.8,57.8,0,0,0,1.3-8.9c0.1-3-.8-6.1-0.9-9.1a36.7,36.7,0,0,0-4-15.4,101,101,0,0,0-6.4-11.3c-2.6-3.9-5.5-7.6-8.4-11.3a41.6,41.6,0,0,0-14.6-11.4c-3.6-1.7-7.5-2.7-11.2-4.3s-5.8-3.1-8.7-4.5c-1.1-.5-2.5-0.4-3.6-0.8s-2.5-1.5-3.8-1.8c-6.4-1.2-12.8-.2-19,1.1a100.5,100.5,0,0,0-15.5,4.7,81.5,81.5,0,0,0-11.1,5.6,85.4,85.4,0,0,0-8.3,5.5,42.4,42.4,0,0,0-6.3,5.3c-3,3.3-5.7,6.8-8.5,10.3a2.2,2.2,0,0,0-.5,1.5c2.7,2.8,5.5,5.5,8.3,8.1s4.3,3.5,6.3,5.4,5.1,5.1,7.7,7.6,4.5,3.9,6.8,5.8l0.9,0.7-1.7.4,1.4,0.3H72a0.6,0.6,0,0,1,.1.5c-2.3,2.5-4.5,5.2-7,7.6s-1.5,1.1-2.1.2h0l-4.4-4.2c-1.4-1.5-2.6-3.2-4.2-4.5s-5.7-4.3-8.5-6.5l-5.2-4.3a60.4,60.4,0,0,1-5.2-4.3c-1.3-1.3-2-2.2-2.9.3s-2.9,7.8-4.2,11.7A117.9,117.9,0,0,0,25,90.1a45.2,45.2,0,0,0-1,9.5c0,3.4.4,6.8,0.7,10.1s0.3,7.5,1.1,11,2.8,6.7,3.7,10.2c1.6,6.6,5.4,12,9.7,17a82.5,82.5,0,0,0,6.8,6.3c2.6,2.4,5.1,5.1,7.9,7.3a35.2,35.2,0,0,0,7.6,4.8,79.2,79.2,0,0,0,10.4,3.4,59.2,59.2,0,0,0,9.6,2.3,66.1,66.1,0,0,0,9.6-.2,47.5,47.5,0,0,0,6.6-.4c3.7-.7,7.3-1.7,10.9-2.4s9.4-1.4,13.5-4.1c1.5-1,3.2-1.6,4.8-2.4s1.6-1.2,2.5-1.6,2.1-.4,3.1-0.8a15.1,15.1,0,0,0,1.8-1.3c0.4-.2,1-0.1,1.3-0.4l7-5.6a0.7,0.7,0,0,0,.2-0.6l-3.6-5.5a1.1,1.1,0,0,1-.2-0.9l7.9-7.9a1,1,0,0,1,.8.1ZM61.7,31.5L62,32l9.9-5.6-0.3-.5ZM32.6,64.7l-0.5-.2-3.9,8.9L29,73.7Zm-9.3,49.7h0.4c0-2.2.1-4.5,0-6.7s-0.5-4.5-.8-6.8H22.7ZM90.9,20.1l-0.2-.6-8.4,2.3v0.4Zm-9.8,2.6-0.2-.5-6.7,2.4,0.2,0.5Zm39.2-.9,0.2-.6L116.1,20l-0.2.6ZM105.7,171v-0.4L99.9,172v0.5Zm39.1-18.1-0.3-.3-4.7,3.5a0.6,0.6,0,0,0,.7,0l3.4-2.3A7.8,7.8,0,0,0,144.9,152.9Zm1.3-118.3,0.4-.4-2.7-2.9-0.7.8Zm26.9,20.9h0.3l-3.6-5.9-0.4.2Zm-129.7,2,0.2-.3-1.8-2.1-0.6-.3a2.3,2.3,0,0,0-.3.7ZM180.6,77.8h0.5l-0.7-2.9h-0.5ZM70,170.4v0.4l3.1,0.9v-0.5ZM53.8,37.5l-1.9,1.4a1,1,0,0,0-.1.5h0.3Zm-31,60.6H23V95.4H22.8v2.6ZM129.6,26.5V26.3l-2.2-.6V26ZM28.8,133.1h0.3l-0.7-2.2H28.1Zm121.7,9.2h0.2l-0.8-1.8h-0.2ZM65.3,88.6l-1.4.5a1.1,1.1,0,0,0-.2.5Zm-21.9,66h0.3l-0.3-1H43.2ZM35.5,46.1l0.3,0.2,0.6-1.1H36.2Z" transform="translate(-11.4 -9.8)"/><path d="M110.7,65.4L112,66c0-.4.1-0.8,0.2-1.2a0.9,0.9,0,0,1,.2-0.6c2.7-.9,3.3-3.2,4.2-5.6s2.2-2.6,3.1-4.1c2.1-3.3,5.5-2,8.3-2.4a23.7,23.7,0,0,1,4.6.3h0.6c1.1-.5,1.6.1,1.9,1.6,0.5,3.4-2.1,5.1-3.7,7.3s-6.7,5.2-11,6.4c-2,.5-3.7,2.1-5.5,3.2l-2.5,1.8,0.9,0.5a7,7,0,0,1-.3,1.5c-0.9,1.9-2,3.7-2.7,5.7a2.8,2.8,0,0,0,.5,2.6c0.7,0.5,2.5.7,2.9,0.3a63.5,63.5,0,0,0,4.3-5.7c1.4-1.9,2.5-4.1,4.3-5.5a36.3,36.3,0,0,1,8.2-4.3,18.2,18.2,0,0,1,5.6-.9c3-.2,3.7.8,2.1,3.3s-5.1,7.5-7.8,11.2a4.3,4.3,0,0,1-2.1,1.2c-3.2,1.1-6.5,1.8-9.6,3.1s-7.2,3.9-8,8.6c-0.1.6-.9,1-0.9,1.5a34.9,34.9,0,0,0,.3,4,1.6,1.6,0,0,1,0,.3l-0.2,1.8a8.4,8.4,0,0,0,2.6-.1c0.5-.2.7-1.1,1.2-1.5s1.6-1.2,2.2-1.9,2.3-3.1,3.8-4.2a30.2,30.2,0,0,1,6.4-3.7,19.3,19.3,0,0,1,5.9-1.4c1.3-.1,2.7.5,4,0.8h1.7l-0.4.8a0.4,0.4,0,0,0,.1.3c2.1,0.9.4,2.2,0.1,3-3,5.9-8.6,8.5-14.5,10.3-3.3,1-6.7,1.5-9.9,2.5-0.7.2-1,1.4-1.7,2a38.3,38.3,0,0,0-3.6,3.8l1.4-1,1.3-.7-0.8,1.2c-1,1.2-2,2.2-3.4.6a9.9,9.9,0,0,1-1.8-2.6c-1-2.4-3-2.5-5.1-2.7-4.5-.4-9.2-0.4-13.6-1.4s-7.7-2.4-9.9-6a17.9,17.9,0,0,1-1.8-5.4c-0.3-1.6,1.4-2.7,3.1-2.7a50.9,50.9,0,0,0,8.1-.2c2.7-.3,4.9.7,6.9,2a16.8,16.8,0,0,1,4.3,4.2c1.4,1.8,4.4,3.4,6.6,3a0.9,0.9,0,0,0,.7-0.3,20.9,20.9,0,0,0,1.1-5.6L104,95.9a9.2,9.2,0,0,1-.5-1.8c-0.2-2.9-1.1-5.6-3.8-7-1-.5-2.7.2-4,0s-5-1.1-7.6-1.6a0.9,0.9,0,0,0-.8.1l2.2,0.9,0.7,0.4a1.7,1.7,0,0,1-.8.4A44,44,0,0,1,84,84.1c-3.4-2.5-4.8-6.2-5.6-10.3-0.3-1.7.5-1.6,1.4-1.7,4.4-.4,9-1.4,13.2.4,1.7,0.8,3,2.8,4,4.6s4.5,4.4,5.9,4a1.3,1.3,0,0,0,.6-1c0.2-1.8.2-3.6,0.3-5.4l-0.7.2a4.3,4.3,0,0,1-.7-0.8,34.2,34.2,0,0,0-2.6-4.6,4.5,4.5,0,0,0-2.8-1.1c-1.2-.2-2.5.2-3.7,0.1a19.2,19.2,0,0,0-3.4-.6c-0.6-.1-1.5.1-1.8-0.2a36.3,36.3,0,0,1-4-5.6c-0.9-1.7-1-4-2-5.6s0.9-2.1,1.7-2.5c4.1-1.7,7.9-.2,11.3,2,1.6,1.1,2.5,3.2,3.8,4.8a24.7,24.7,0,0,0,2.6,2.7,2.4,2.4,0,0,0,1.5.5,6.4,6.4,0,0,0,1.3-2.5c0.6-4.4-.5-8.2-4.6-10.5a6.6,6.6,0,0,0-2-.6,8.1,8.1,0,0,1-6.6-5.7,67,67,0,0,1-2.1-8.6C88.8,34,90.8,34,92,34a8.4,8.4,0,0,1,7.6,4.8c1,1.9,1,4.4,1.8,6.5a9.6,9.6,0,0,0,2.2,2.7,2.2,2.2,0,0,0,.9-0.8c-0.4-3-.9-6-1.2-9a24.2,24.2,0,0,1-.2-6.7c0.4-2.4,1.6-4.6,2.6-6.9a7.5,7.5,0,0,1,.7-0.7,15.2,15.2,0,0,0,.8-1.6,3.6,3.6,0,0,1,.2-0.6h0.4c3.3,3.4,6.3,7.1,5.8,12-0.2,2.2-2.2,4.1-3,6.3a20.1,20.1,0,0,0-.8,5.2,6.3,6.3,0,0,0,.5,2.2,0.9,0.9,0,0,0,.7.5c2.7-.5,4.3-2.4,5.7-4.5s4.3-4.1,6.9-5.8,7.3-1.4,10.9-.2a1.9,1.9,0,0,1,.5.8h-0.7a1.4,1.4,0,0,0-.8.5A11,11,0,0,1,126,48a8.9,8.9,0,0,1-4.7.1c-2.6-.6-4.3.8-6,2.3-4.2,3.6-4,8.6-4.4,13.5a4.3,4.3,0,0,0,.2,1.1Zm-5.1-22.5h-0.2a10.2,10.2,0,0,1,.3,2.8,7.8,7.8,0,0,1-1.3,3.1,2.5,2.5,0,0,1-2.1-.5,14.3,14.3,0,0,1-2.4-4.8c-0.8-4-2.4-7.2-6.7-8.3-1.6-.4-3,0.2-3,1.8a13.3,13.3,0,0,0,.4,3c0.8,3.8,2.6,7,6,9.1a2.5,2.5,0,0,0,1.2.1h1.2l2.2,0.4a4.3,4.3,0,0,1,2,.9,8.4,8.4,0,0,1,.7,2.1c0.6,1.4,1.6,2.6,1.8,4a35.3,35.3,0,0,1-.4,6.9,2.2,2.2,0,0,1-3.2,1.6,16.4,16.4,0,0,1-3.2-3.1c-1.4-1.7-2.3-4-3.9-5.2s-6.6-3.2-10.4-1.9a1.8,1.8,0,0,0-1,1c1.2,3.2,2.5,6.5,4,9.6,0.4,0.8,1.4,1.2,2.1,1.8a24.9,24.9,0,0,0-2.7-3,2.1,2.1,0,0,1,.1-1.1l0.7,0.4c1.2,0.9,2.2,2.3,3.5,2.7a25.4,25.4,0,0,0,6.4.7c3,0.1,4.2,2.4,5.7,4.3s1.7,5.5,1.5,8.4c-0.1,1.1.9,2.6-1.7,2.6s-6.1-2.2-6.7-4.3-5.7-6.2-9.4-5.4a62.8,62.8,0,0,1-7.2.6,0.6,0.6,0,0,0-.3.5c0.2,1,.5,2,0.8,2.9,0.9,3,2.4,5.7,5.6,6.9a53.7,53.7,0,0,0,7.8,2.3c1.8,0.3,3.7-.1,5.5-0.1s3.4,0.5,4.1,2.3-0.2,1.2-.1,1.7,0.9,1.2,1,1.8a21.9,21.9,0,0,1,1,5.4,13.3,13.3,0,0,1-1.3,4.6,1.9,1.9,0,0,1-1.5.9c-1.2-.3-2.8.5-3.7-1.3s-2.1-2.1-3.3-3.1a39.2,39.2,0,0,0-4.5-3.8,10.1,10.1,0,0,0-7.2-1.4c-1.4.2-3.1,2.1-4.7,0.1H76.8c-1.5,0-2.3.5-1.8,2.2a24.6,24.6,0,0,0,1,3.3,41.2,41.2,0,0,0,2.2,3.7,18,18,0,0,0-1.8-4.7,1.5,1.5,0,0,1,.1-0.7L76.8,97c1,1.5,1.6,3.4,2.9,4.4a21.1,21.1,0,0,0,6.2,3.2,48.3,48.3,0,0,0,6.6,1.3L92,104.8a1.7,1.7,0,0,1,.7-0.2l2.3,0.7,4.1,1a8.1,8.1,0,0,1-.4-1.1l0.4-.2a34.3,34.3,0,0,1,5.1,3c1,0.8,1.5,2.2,2.1,3.3a2.2,2.2,0,0,0,1-.6c0.7-1.5,1.3-3.1,2-4.7a0.8,0.8,0,0,1,.5-0.3l2.8-.6c1-.2,1.8-2.2,3.2-0.6h0.3l2.5-.7,7.5-1.9a9.7,9.7,0,0,0,1.4-1c1.6-.8,3.4-1.3,4.7-2.4s2.6-3.3,3.9-5-0.1-2.7-1.2-2.8-5.3-.7-7.7,0a20.5,20.5,0,0,0-7.3,4.1c-2.7,2.3-4.9,5.2-7.5,7.6a3.6,3.6,0,0,1-3.4.2,4.6,4.6,0,0,1-1.4-3.6,34.3,34.3,0,0,1,1.6-5.9l-0.2.3-0.9,1a2.9,2.9,0,0,1,.2-1.4l6.7-7a7.2,7.2,0,0,1,1.1-1.5,15.7,15.7,0,0,1,2.5-.7c0.9-.3,1.8-0.8,2.8-1s2.8,0,3.9-.6a40.5,40.5,0,0,0,5.1-3.9l2.4-2.1-1.1.4-1,.2a2.3,2.3,0,0,1,.6-0.9,11.8,11.8,0,0,0,5.8-6,8.3,8.3,0,0,0,.4-2l-2-.2-1.5.2a38.4,38.4,0,0,0-5.8,1.3c-1.5.6-2.8,1.8-4.3,2.6a11,11,0,0,0-5.2,5.4c-0.6,1.5-1,3.2-1.9,4.4a7.7,7.7,0,0,1-3.9,2.8c-1.1.3-3.4-.6-3.6-1.4a11.3,11.3,0,0,1,.2-5.6c0.6-2.3.6-4.9,2.8-6.7s1.8-2.7,3.1-3.4a10.8,10.8,0,0,1,4.9-1.3c3.3-.2,6.2-1.1,8.4-3.4A32,32,0,0,0,133,57a14,14,0,0,0,1.1-3.6h-1.8l-8.9.6c-3,.2-4.2,2.7-5.5,4.8s-2.4,4.6-3.7,6.8-1.8,1.6-2.2,1.4-2.4-1.5-2.4-2.4a35.6,35.6,0,0,1,.5-7.2,10.9,10.9,0,0,1,1.2-4,18.1,18.1,0,0,1,3-3.2c1.9-1.9,4.1-3.3,7-2.8,5.9,1.2,8.6-2.1,11.1-6.7a2.6,2.6,0,0,0-.6-2.5c-2.5-1.2-8.8.6-10.6,2.7a33.2,33.2,0,0,1-4.3,4.9,62.2,62.2,0,0,1-7,4.4,0.7,0.7,0,0,1-.5-0.4,16.1,16.1,0,0,1-.9-4.4,19.6,19.6,0,0,1,1.2-5.7c0.5-1.4,1.7-2.6,2.4-4,1.5-3-.7-10-4.1-11.9-1,1.8-2.4,3.4-2.9,5.3a24.4,24.4,0,0,0-.7,8.5c0.3,2.2,1.9,4.2,2.8,6.3a2.7,2.7,0,0,1-.5,1.3l-0.5-.8Z" transform="translate(-11.4 -9.8)"/><path d="M85.6,157.6a16.1,16.1,0,0,1,.2,2.5,1.7,1.7,0,0,1-1.1.7l-3.4.7a1.2,1.2,0,0,1-.8,0,1.7,1.7,0,0,1-.3-1.1c0.6-2.9,1.3-5.7,1.8-8.6s1.2-7.2,1.6-10.8a4.4,4.4,0,0,1,6.1-3.4c1.7,0.9,3.7,1.4,5.2,2.7s1.4,5.7-.9,7.2-2.3,1.1-3,2.1-0.2,2,.3,2.7,2.8,4.1,4.2,6.1a17.2,17.2,0,0,0,1.3,1.3,1,1,0,0,1,.3.7,1.2,1.2,0,0,1-.8.5H93.8c-2.3.2-2.2-1.9-3.1-3.1s-2.2-3.2-3.4-4.7H86.8Zm9.6,2-0.9-1.2c-1.2-1.9-2.5-3.8-3.7-5.7s-0.9-2.1-1.4-3.1a2.2,2.2,0,0,0-.7-0.6,4.4,4.4,0,0,1,1.1-.4c2.9-.3,5.4-3.4,5-6.2s-2.2-2.8-3.9-3.7-6.6-.7-6.3,2.7a8.5,8.5,0,0,1-.1,2.4c-1,5-2.1,10.1-3.1,15.1a4.6,4.6,0,0,0,0,1.1l2.9-.3a1.2,1.2,0,0,0,.2-0.7c0.6-2.9,1.2-5.8,1.8-8.7a2,2,0,0,1,.7-0.7,4,4,0,0,1,.6.7,12.7,12.7,0,0,0,.8,2c1.1,1.7,2.3,3.2,3.5,4.9S93.1,160.5,95.3,159.7Z" transform="translate(-11.4 -9.8)"/><path d="M135.2,126.6c-0.5,3.6-1,7.1-1.5,10.5a0.8,0.8,0,0,1-.6.5,13.7,13.7,0,0,0-2.1.1c-1.9.5-1.8-.5-1.6-1.8,0.7-5.7,1.4-11.5,2.1-17.2a1.3,1.3,0,0,1,.9-0.6c0.5-.1,1.1.2,1.7,0s1.6,0.8,2,1.8,1.5,3.1,2.4,4.6a23.6,23.6,0,0,0,1.4,2.2l0.5,0.4a1.4,1.4,0,0,0,.3-0.5c0.1-2.7.1-5.3,0.2-8a0.7,0.7,0,0,1,.2-0.5h0.5l2.4-.2,1-.4a7.2,7.2,0,0,1,.7,2.3c-0.1,2-.5,4-0.6,6s0.1,4.4-.3,6.5,1.2,3.4-1.1,3.9c-4.1.7-4.4,0.3-5.8-3.7A55.1,55.1,0,0,0,135.2,126.6ZM143,135a1.7,1.7,0,0,0,.8-1c0.3-4.7.6-9.4,0.8-14.1a6.4,6.4,0,0,0-.2-1.2c-0.7.4-2,.7-2.1,1.2-0.5,3.3-.7,6.6-1.1,9.9a1.9,1.9,0,0,1-.5.7l-0.4-.6c-0.7-1.6-1.3-3.2-2.1-4.8s-2-3.1-2.6-4.7-1.3-1.7-2.3-1.4-0.7,1.1-.9,1.8a8,8,0,0,0,0,1.2c-0.6,4.7-1.3,9.3-1.9,14a1.2,1.2,0,0,0,.3.8c0.8-.1,2.3-0.3,2.3-0.6,0.4-3.6.5-7.1,0.8-10.7a5.2,5.2,0,0,1,.6-1.4l0.6,1,0.7,1.2c0.9,1.8,1.7,3.7,2.8,5.5S139.2,135.6,143,135Z" transform="translate(-11.4 -9.8)"/><path d="M94.3,117.5c-0.2-3-.2-2.8,3.2-2.8s1.4,1.7,1.4,2.8a61.8,61.8,0,0,1-.8,6.2c-0.7,4.2-2,8-6.2,10.2-1.6.8-5.1-.8-6.5-2.6s-1.4-5.1-1.5-7.7,0.6-4.2-.1-6,0.4-1.4.7-2.1h0.5a5.4,5.4,0,0,0,1.9.2,10,10,0,0,0,2.1-1.2c0,0.9.1,1.9,0.1,2.8-0.2,2.5-.5,5.1-0.5,7.6,0,0.9.8,1.8,1.2,2.7,1.1-1.1,2.7-2,3.2-3.3S93.9,119.8,94.3,117.5ZM88.2,116l-2.8.8a1.2,1.2,0,0,0-.6.9c0.1,3.5.3,7,.5,10.5,0.1,1.6,3,4.5,4.5,4.7s4.9-1.5,5.9-4.9,1.4-7.2,2.3-10.7c0.4-1.6-.3-1.8-1.4-1.6a2.5,2.5,0,0,0-1.6.8c0,3.6.3,7.2-2.3,10.3-0.9,1.1-3.7,2.2-4.1,1.3a10.3,10.3,0,0,1-.9-4C87.6,121.3,88,118.5,88.2,116Z" transform="translate(-11.4 -9.8)"/><path d="M115.7,156.2l5.8,0.5a0.8,0.8,0,0,1,.5.5c-0.4,1.6-.8,3.3-1.3,4.8a1.5,1.5,0,0,1-1.1.4h-7.8a1.9,1.9,0,0,1-.6-1.5c0.8-4.9,1.6-9.7,2.4-14.6a31.8,31.8,0,0,1,.6-4.6,2.8,2.8,0,0,1,2.3-1.3c2.4,0.1,4.9.4,7.3,0.7h1.3c-0.4,2-.7,4-1.1,6l-0.5.2c-1.6-.3-3.2-0.7-4.8-0.8a2.1,2.1,0,0,0-1.5,1.1c0.2,1-1.5,2.7,1,2.9a3.5,3.5,0,0,1,1.7.7,20,20,0,0,1-1.1,3.8c-0.1.2-1-.2-1.5,0A6.6,6.6,0,0,0,115.7,156.2Zm-2.9,0-0.6,4.7a0.5,0.5,0,0,0,.1.4h0.6a12.7,12.7,0,0,1,2.8-.1c3.4,0.7,4.7,0,4.8-2.5,0-.4,0-0.9,0-1.3l-4.5.5a2.3,2.3,0,0,0-.7.4,2.8,2.8,0,0,1-.3-1,14.1,14.1,0,0,0,.4-2.6c-0.1-1.5.5-1,1.2-.7a2.3,2.3,0,0,0,1.5.2,5.5,5.5,0,0,0,.7-2.1,2,2,0,0,0-1-.5h-1.7l-0.5-.2a1.4,1.4,0,0,1-.4-0.8,38.7,38.7,0,0,1,1.4-4,1.6,1.6,0,0,1,1.1-.9c1.5,0.1,3,.3,4.4.5h1.1c0.3-1.2.5-2.5,0.7-3.8h-0.3c-2.6.2-5.2,0.4-7.6-1a1.3,1.3,0,0,0-1,.7c-0.3,1.8-.4,3.7-0.7,5.6S113.3,153.6,112.8,156.1Z" transform="translate(-11.4 -9.8)"/><path d="M59.2,132.8c-2.9.1-5.5-2.3-6-5.4A16,16,0,0,1,54.8,117c2-3.7,7.9-6.9,11.5-3.2,1.9,1.9,0,2.8-.8,4a14.3,14.3,0,0,1-1.5,1.9,1.7,1.7,0,0,1-.7.3,3.4,3.4,0,0,1-.1-0.6c0-.6.1-1.2,0.1-1.9s-2.9-.3-3.6.3c-2.6,2.6-2.3,6-1.2,9.2a2.2,2.2,0,0,0,1.8,1c0.5,0,1-.8,1.6-1.3l-1.1-.4c-0.7-.1-2.3,1.1-1.3-1.1s0.2-2.1.5-2.3a10.6,10.6,0,0,1,3.9-.4c3.6,0.3,1.6,2.8,1.5,4.4s-3.2,5.4-5,5.8A7.5,7.5,0,0,1,59.2,132.8Zm1.1-7.2h1.2l1.8,0.2c-0.8,1.1-1.3,2.9-2.3,3.1s-4-1.2-3.7-3.8a37.3,37.3,0,0,1,1.3-6.7c0.6-2,3.9-2.8,5.5-1.6a3.6,3.6,0,0,0,1.1.4c0.2-.7.9-1.8,0.6-2.2s-3-2.2-5.3-1.4a8.4,8.4,0,0,0-5.3,4.9c-1.4,3-2,6.2-.8,9.3a7.9,7.9,0,0,0,3.4,3.9c3.6,1.9,7.4-2.9,7.5-5.9a10,10,0,0,0,.1-2,20.1,20.1,0,0,0-4.3-.6A11,11,0,0,0,60.3,125.6Z" transform="translate(-11.4 -9.8)"/><path d="M99.9,144.1c-0.1-4.2,1.2-4.2,4.6-3.9a42.5,42.5,0,0,0,5-.2,0.8,0.8,0,0,1,.6.4,33.8,33.8,0,0,1-.4,5.2c-0.1.4-1.3,0.8-2,.9a15.2,15.2,0,0,1-2.8-.3c-1.1-.1-1.6.1-1.9,1.6s-0.1,2.6,2,1.8,2.6,0.2,2.5,2.3-1.6,3.6-4.2,2.6h-0.7a10.6,10.6,0,0,0-.2,1.6l0.5,0.2,5,0.5a1,1,0,0,1,.6.7c-0.5,1.3-.7,2.9-1.6,3.9s-2.1-.2-3.1-0.2-3.4.3-5.1,0.2-1.5-2-1.4-3c0.4-3.1,1.3-6.2,1.8-9.3S99.7,145.5,99.9,144.1Zm9.5-2c-0.3-.3-0.8-1.2-1.5-1.3a27.9,27.9,0,0,0-4.5,0c-1.4,0-2.5.3-2.6,2.2a38,38,0,0,1-.6,5.5c-0.6,3.4-1.4,6.8-1.9,10.2-0.2,1,.1,2,1.6,1.9s4.5,0,6.8-.3c0.4,0,.6-1.4.9-2.1a0.7,0.7,0,0,0-.3-0.6,16.1,16.1,0,0,0-3.3-.5c-1.6,0-3.5.5-2.1-2.2,0-.1-0.1-0.2-0.1-0.3s1-1.2,1.2-1.1c2.9,1,3.1.9,3.5-2a1.2,1.2,0,0,0-.2-0.9,2.9,2.9,0,0,0-1.3-.1c-0.8.1-1.7,0.4-2.4,0.2s-0.5-1.3-.5-2c0.1-3,1-3.5,3.9-3,0.9,0.1,2.4,1.1,2.8-.8S109.2,143.4,109.4,142.1Z" transform="translate(-11.4 -9.8)"/><path d="M123.4,123.8c1.7-.3,2.5.3,2,2.2s-0.1,1.5-.3,2.2a1,1,0,0,1-.6.7l-2.8-.2a1.1,1.1,0,0,0-.9.5,4.2,4.2,0,0,0,0,1.7l5.2,0.3a1.2,1.2,0,0,1,.9.6c0.1,1.2-.1,2.4,0,3.6s-1.5,2.1-2.9,1.9a71.6,71.6,0,0,0-7.1-1.2c-2-.1-2.2-0.3-1.7-2.3s1.3-6.3,2-9.5,0.8-3.6,1.2-5.3a3.5,3.5,0,0,0-.3-1.3v-0.6h0.8a17.7,17.7,0,0,0,3.5.9c2.1,0.1,4.2-.3,6.3-0.3a2,2,0,0,1,1.2,1.1c0.2,0.4-.2,1-0.1,1.5,0.8,2.9-1.2,2.8-3,2.7a23.3,23.3,0,0,1-3.9-1.1h-0.5a13.4,13.4,0,0,0-.3,1.7l0.4,0.3h1.1Zm-2.4-1.9a2.8,2.8,0,0,1,1-1c1.3,0.3,2.6,1,3.9,1.1s2.9,0.9,3-1.9-0.8-1.2-1.9-1.2-4.3-.2-6.4-0.3a2.2,2.2,0,0,0-1.4.3c-0.6,2.1-1.1,4.3-1.5,6.4s-1,5.5-1.4,8.3a2.3,2.3,0,0,0,.1,1.3l7.5,1.5c1.7,0.4,2.5-.3,2.2-2a9.6,9.6,0,0,0-.2-1.7,1.6,1.6,0,0,0-1-.9,24.4,24.4,0,0,0-2.8.2c-2.3.1-2.9-.7-2.2-2.9a8,8,0,0,1,.3-1.1L121,127l0.7,0.7,0.6,0.3c2.5,0.6,2.2-1.3,2.4-2.7a1,1,0,0,0-.7-0.6C122,124.8,119.9,125.3,121,121.9Z" transform="translate(-11.4 -9.8)"/><path d="M69.8,160.1a19,19,0,0,1-2.8.1,1.3,1.3,0,0,1-.8-1c0.4-4,1-8,1.4-12s0.4-5.6.8-8.4c0.1-.3,1.4-0.6,2.2-0.7l7.7-1.1a0.8,0.8,0,0,1,.6.2,0.9,0.9,0,0,1,.1.6c-0.1,1.1-.2,2.2-0.4,3.2a0.8,0.8,0,0,1-.5.6,24.7,24.7,0,0,0-3.7.4c-0.4.1-.6,1.2-0.8,1.8a14.6,14.6,0,0,0-.3,2l3.1,0.3a3.8,3.8,0,0,1,1.7.3c0.2,0.2,0,1,0,1.5a4.7,4.7,0,0,1,0,1.5,1.8,1.8,0,0,1-1,1.1c-1.6.1-3.2-.1-4.8,0.1s-0.4,1.5-.5,2.3-0.1,3.8-.4,5.7a4.3,4.3,0,0,1-1.2,1.6Zm1-5.6c0.1-.9.2-2.3,0.4-3.7a1.9,1.9,0,0,1,1-1c1.9,1.1,4.7,0,5-2.2a0.7,0.7,0,0,0-.4-0.6c-1.3-.1-2.6,0-3.9-0.2a1.5,1.5,0,0,1-.7-1.2c0-.7.5-1.4,0.5-2.1s1-2.6,2.6-2.6,2.5-.6,2.5-2.3a0.6,0.6,0,0,0-.4-0.5l-7.6.8a0.9,0.9,0,0,0-.6.3c-0.2,1.6-.2,3.2-0.4,4.8-0.5,4.3-1.1,8.5-1.5,12.8-0.1.8-.1,2.2,0.2,2.3,2.1,0.7,3.4-.4,3.3-2.6C70.8,156.1,70.8,155.5,70.8,154.5Z" transform="translate(-11.4 -9.8)"/><path d="M68.3,131.2c0.4-4.6.8-9.6,1.2-14.5a2.4,2.4,0,0,0-.4-0.8,0.8,0.8,0,0,1-.1-0.5l0.8-.5L73,114l2.4-.4c-0.1.7,0,1.3-.2,2-0.6,3.2-1.2,6.4-1.8,9.6l-0.3,1.1c-0.4,1.7,0,2.5,1.9,2.2a41.3,41.3,0,0,1,4.3-.2c2-.1,1,1.8,1.5,2.6a2.7,2.7,0,0,1,0,2.1,2.4,2.4,0,0,1-1.4,1.5c-3.2,0-6.5-.2-9.7-0.3S68.1,132.8,68.3,131.2Zm6.4-1.8v-0.2l-2.6-.3a0.7,0.7,0,0,1-.4-0.6c0.1-.6.4-1.2,0.5-1.8,0.7-3.7,1.5-7.3,2.2-11a2.9,2.9,0,0,0-.3-1.2c-1.2,1-3.8.3-3.8,2.9,0,0.7.1,1.3,0.1,2-0.3,4.3-.7,8.5-1,12.8a1.8,1.8,0,0,0,1.3,1.2l7.1,0.3c1.7,0.1,2.7-.1,2.3-2.2s-0.1-1.2-.3-1.8a0.6,0.6,0,0,0-.5-0.4Z" transform="translate(-11.4 -9.8)"/><path d="M105.2,135.5a1.6,1.6,0,0,1-.9,0,2.6,2.6,0,0,1-1-1.4c0.5-4.1,1.2-8.2,1.7-12.3a1.3,1.3,0,0,0-.8-0.5,22.5,22.5,0,0,1-2.8-.3c-2.1-.6-0.8-2.3-1-3.6a3.3,3.3,0,0,1,.2-1.4,8.5,8.5,0,0,1,.5-1.2,5.8,5.8,0,0,1,.4,1.4c0,0.8-.3,1.7-0.2,2.5s3,2.4,4.1,1.6l0.6-.2a2.3,2.3,0,0,1,.7,1.2c-0.3,1.9-.7,3.7-1.1,5.6s-1,4.9-1.5,7.3l1,0.4c1.2,0.4,1.8.1,1.9-1.3,0.4-3.8,1-7.5,1.6-11.2a1.2,1.2,0,0,1,1-.5l4.8,0.2a3.2,3.2,0,0,0,.4-1.7c-0.1-1,1.1-2.5-.9-2.8a24.5,24.5,0,0,0-3.5.1,40.3,40.3,0,0,1-4.3-.1,33.1,33.1,0,0,1-3.8-.8l-0.4-.3a0.9,0.9,0,0,1,.2-0.6h0.5a47.4,47.4,0,0,0,5.3.9,25.9,25.9,0,0,0,6.6-.2c2.3-.5,1.1,1.2,1.1,1.7a8,8,0,0,1-.2,3.5c-0.2.5-1.2,0.8-1.9,0.9s-2.5-.1-3.7.1a1.8,1.8,0,0,0-.7,1.2q-0.7,4.7-1.3,9.3C107.6,135.6,107.6,135.6,105.2,135.5Z" transform="translate(-11.4 -9.8)"/><path d="M86.6,143.8c0.1-.2.6-1.6,1.2-1.7s3.5-.8,3.8,1.6a2.2,2.2,0,0,1-2.2,2.8C88.2,146.6,86.6,146.7,86.6,143.8Zm2.5,2.6a12.2,12.2,0,0,0,1.4-2.5c0.1-.3-0.6-0.7-1-1.1a25,25,0,0,0-1.9,2A15.7,15.7,0,0,0,89.1,146.4Z" transform="translate(-11.4 -9.8)"/></svg>