<svg id="juice_kidsfood_Image" data-name="juice(kidsfood) Image" xmlns="http://www.w3.org/2000/svg" viewBox="0 0 160.6 183"><title>juice(kidsfood)</title><path d="M90.9,208.5l-3.3,2.2,0.2,0.6c-1.2.3-2.4,0.8-3.5,0.7-2.7-.3-5.3-1.2-8-1.3s-8.2.2-12.3-.1-10.2-1.1-15.4-1.7l-14.8-1.7-13.8-1.6a88.6,88.6,0,0,1-11.3-1.9,16.8,16.8,0,0,1-6.7-3.5c-0.9-.8-0.7-3.2-0.6-4.8,0.4-4.8,1-9.6,1.4-14.5s0.5-10.2,1-15.2c0.8-7.8,1.9-15.7,2.8-23.5,0.6-5.8,1.2-11.7,1.7-17.5,0.9-9.6,1.8-19.2,2.6-28.8,0.4-5,.5-9.9.8-14.9,0.1-1.9.2-4,1.1-5.6l1.4-2.5a42.6,42.6,0,0,1,5.5-6.8L31.5,53.9l4.4-5.1c2.6-2.8,6-2.3,9.2-1.9s4.9,1.5,7.4,1.8,7.6,0.6,11.5.9L68.6,50l11.2,0.8L90.1,52c1.4,0.1,2.8-.2,4.2,0s3.6,1,5.4,1.3a1.7,1.7,0,0,0,1.4-.8,53.5,53.5,0,0,0,1.5-5.6c0.9-4.2,1.2-8.7,2.7-12.7s3.3-5.8,8.9-4.6,8.6,1.5,12.9,2.3c2.7,0.5,5.5,1.2,8.2,1.9l8.8,2.5a66.5,66.5,0,0,1,15.4,6c2.5,1.4,3.5,2.7,1.8,5a5.6,5.6,0,0,1-3.7,1.8,23.3,23.3,0,0,1-5.2-.5l-0.4-.2c-0.2-2.4-2.6-1.6-3.8-2.4a17.1,17.1,0,0,0-5.2-2c-2.9-.7-5.8-1.2-8.7-1.7L126.8,41,119,39.9c-1.4-.2-2.7-0.6-4.1-0.7a2.7,2.7,0,0,0-.9,1.2c-0.2.3-.2,0.7-0.4,1.1h-0.4a2.3,2.3,0,0,1-.4-0.9,8.7,8.7,0,0,1,.1-1.2,3,3,0,0,0-.1-0.7,1.3,1.3,0,0,0-.6.2,1.8,1.8,0,0,0,.1.8,1.3,1.3,0,0,1,.1.6l-1.2.6c-0.6,3.7-1.3,7.7-1.9,11.8a2.4,2.4,0,0,0,1.2.6l4.6,0.9c2.9,0.5,5.8.7,8.6,1.4a19.3,19.3,0,0,1,5.7,2.6c0.9,0.6,1.3,1.7,2.7,1.1a2.1,2.1,0,0,1,.3.8c-0.4,3.6-.7,7.2-1.2,10.8s-1.4,9.2-2,13.8a60.1,60.1,0,0,0-.5,6c-0.2,5-.2,10-0.4,15s-0.4,7.9-.9,11.8-1.3,8.7-2,13.1-1.5,9.6-2.3,14.3c-0.4,2.9-.9,5.8-1.2,8.7-0.9,7.3-1.7,14.6-2.5,21.9-0.3,2.8-.6,5.6-1,8.4-0.2,1.1-.6,2.2-0.9,3.3a1.2,1.2,0,0,0,.5.8l1.5,1.2a6.1,6.1,0,0,1-1.1,1.1c-3,1.8-6.1,3.5-9.1,5.4s-5.3,3.7-7.9,5.7-3.3,2.9-4.9,4.4a13.4,13.4,0,0,1-2.7,2.1A11,11,0,0,1,90.9,208.5Zm-37.1-42H51.9c-1,0-2.5,1.9-2.8-.8s1.6-3.8,3-3.5a1.1,1.1,0,0,1,.3.9,13.7,13.7,0,0,1-.6,1.9,9.2,9.2,0,0,1,1.5-1.2,3.9,3.9,0,0,1,1.5.5l1.9-1.2,0.7,1.6a3.2,3.2,0,0,1,.8-0.9l2.8-.9a1,1,0,0,0,0-.6c-4.4-1.3-8.8-2.9-13.3-3.7a21.2,21.2,0,0,0-11,.9L34,160.6l5.6,1.1c-0.1-.3-0.2-0.8-0.4-1.2a2.7,2.7,0,0,1-.4-0.6,1.1,1.1,0,0,1,.6-0.5,2.5,2.5,0,0,1,.7.9c0.3,0.8.4,1.5,0.7,2.4l1.7-2,1.3,1.1h1.7a16,16,0,0,1,.1,2.6l2-2.5,0.5,2.7,0.7-.5-0.2.6c-0.3,1.2-1.7,2.9,1.2,2.5s2.8-.5,4.2-0.8l2.6-1.9a0.9,0.9,0,0,0,0-.4H55.9ZM27.4,189.9h0c-0.2,1.2-.3,2.3-0.5,3.5s-0.4,3.7-.5,5.5a2.4,2.4,0,0,0,.9-1.4L30.2,187a2.2,2.2,0,0,1,.6-0.7,1.8,1.8,0,0,1,.3.8c-0.2,1.2-.5,2.4-0.7,3.6-0.5,3.3-1,6.6-1.4,9.9l0.7,0.2,1.4-3.7a19.1,19.1,0,0,1-1,4.3,1.1,1.1,0,0,0,.6.8,6.7,6.7,0,0,0,1.4-.4h0.9l-1,1.1h0a8.1,8.1,0,0,0,8.5-1.8,37.1,37.1,0,0,0,6.1-6c3-4.2,4.4-9.1,5.4-14.1,0.2-1.1.4-2.2,0.6-3.9a13.4,13.4,0,0,0-1.5,2.4,17.5,17.5,0,0,0-.6,3.2,2.9,2.9,0,0,0,.3,1l-1.3-.3c-0.2,1.6-.3,3.5-0.6,5.5a1.4,1.4,0,0,1-.9.8,1.1,1.1,0,0,1-.8-0.6c-0.2-.9-0.3-1.8-0.5-2.7s-0.3-1.5-.5-2.2a1.6,1.6,0,0,0-.5-0.5h0.8L46,182v-1.8l0.3-1.2a2.5,2.5,0,0,1,.4.8c0.1,2.6.2,5.1,0.4,7.7a6.5,6.5,0,0,0,.6,1.7,1.6,1.6,0,0,0,.5-0.6c0.2-1.6.5-3.1,0.6-4.7s0-2.6,0-4.1l0.7,0.8c0.2-2.1.3-3.9,0.5-5.8a1.6,1.6,0,0,1,.3-0.5,1.8,1.8,0,0,1,.4.7c0,0.9,0,1.9,0,2.8h0.7a35.4,35.4,0,0,0,.6-6.1c-0.3-3.4-.4-3.1-3.8-3.3-1.8-.1-3.5-1.1-5.2-1.8a19.3,19.3,0,0,1-2.8-1.7c-0.2-.1-0.3-0.4-0.5-0.6a2.3,2.3,0,0,0-1.1-.7c-1.6.2-3.2,0.7-4.7,0.7a5,5,0,0,1-3-.7c-2.4-1.8-4.2-4.4-7.7-4a0.9,0.9,0,0,1-.4-0.6,1.4,1.4,0,0,1,.8-0.6l6.4,2.7,0.6,0.2a2.5,2.5,0,0,0,.3-0.8,13.1,13.1,0,0,0-.1-1.9c-0.3-2.5-.7-5-1.1-7.5a2,2,0,0,0-1.3-.6,9.1,9.1,0,0,0-1.7,0l0.2-.8H25.6c-3.2.4-6.6,0.2-9.5,1.4a11.6,11.6,0,0,0-5.8,5.2c-1.1,2.2-.6,5.2-0.8,7.9l-0.2,2.5a20.2,20.2,0,0,0,1.2-4.2,2.3,2.3,0,0,1,.5-0.7,1.6,1.6,0,0,1,.4.7c-0.5,2-1,4-1.5,6l-1,4.2,1.5-1.7,0.4,0.2-2,7.3,0.3-.3-1.6,8.6a5.7,5.7,0,0,0,1-2.2l3.5-13.2a5,5,0,0,1,.7-1.2,7,7,0,0,1,0,1.2,7.1,7.1,0,0,1-.3,1.1l-2.1,7.2c-0.3.9-.4,1.8-0.6,2.7a18.2,18.2,0,0,1-1.2,5.5c-0.4,1.2-1.4,2.4-1.6,3.6s-0.4,4.9-.6,7.4a1.3,1.3,0,0,0,0,.7,1,1,0,0,0,.7.2H9.8c1.1,0.1,1.8.1,1.8-1.4a10.1,10.1,0,0,1,.6-2.6,8.4,8.4,0,0,1,0,1.9,4.8,4.8,0,0,0,.1.9,3.7,3.7,0,0,0,.7-0.8l1.9-4.5c-0.4,1.7-1,3.4-1.5,5l-0.7,1.6a6.9,6.9,0,0,1,1.7.1,12.9,12.9,0,0,1,2,1l0.5,0.3,6.5,1.2,6.4,0.9-2.1-2.7H27.1a2.1,2.1,0,0,1-.9-0.5c0-1.8.1-3.6,0.3-5.4S27.1,191.4,27.4,189.9Zm77.5-41.8h0l-0.9,1.8c1.5-1.4,2.8-3,4.1-4.5l6.2-6.6a0.6,0.6,0,0,1,1.1.6l-2.1,3.3-2.2,2.9a0.5,0.5,0,0,0,.5-0.2c1.6-1.7,3.2-3.5,4.9-5.1s3.8-2.2,3.5-4.9a17.6,17.6,0,0,1,.5-3.5l-0.3.4c2.4-11.3,2.9-23.1,3.2-35.1l-1.8,2.7a6.5,6.5,0,0,1,.6-1.8,0.9,0.9,0,0,0,0-.4H122a6.9,6.9,0,0,0-1.4,1.1c-1.1,1.4-2.1,2.8-3,4.3a24.5,24.5,0,0,0-1.4,3l0.4,0.2,1.7-2.1a5.9,5.9,0,0,1-1.1,2.2l-2.4,3h0l0.9-1.3,0.7-1.5a4.6,4.6,0,0,0-1.1.5,15.7,15.7,0,0,0-1.3,1.4h0l2-3.5,2.6-4.1-0.5-.3-8,10.5h-0.9l1.4-2.3a1.6,1.6,0,0,0,.5-0.8l2.7-3c2.5-2.5,3.8-6.2,7.5-7.5l1.7-.7,3.3-21.6-0.7.6-2.4,3.1h0l2.2-3.7a4.1,4.1,0,0,0,.2-0.7h-0.4L123.2,76a17.7,17.7,0,0,0-1.2,1.5l0.2-1.5h-0.4l-2,2.3-0.2-.2-4,6.3h-0.1l3.1-6.3A115.8,115.8,0,0,0,111.2,89c-2.1,3.3-4,6.7-6,10.1s-2.7,3.8-3.3,5.9a106.3,106.3,0,0,0-1.9,11.4q-0.7,4.7-1.3,9.4c-0.4,3.6-.8,7.3-1.2,10.9-0.2,1.4-.5,2.7-0.9,4.6l1.8-2.2h0.1l-2.3,4.1h0.2l6.7-9.4c-4.6,6.4-9.4,12.7-8.4,21.1,0.8-1.5,1.6-3.3,2.6-5s2-3.4,3-5h0.2L95,156l-0.6-.3a7.3,7.3,0,0,0-.2,1q-0.3,3-.5,6.1c-0.1.6-.1,1.3-0.1,1.9l1.3-.8L93,167.4l1-.2a8.6,8.6,0,0,0-1.2,2.4,4.4,4.4,0,0,0,1.6,4.1c1.6,1.5,2.8,3.5,4.1,5.4,1.8-2.9,3.6-5.9,5.5-8.8l5.9-8.7,0.4,0.2-4.5,9.6h-0.1l1.6-4.6-0.7.8c-2.1,3.4-4.1,7-6.5,10.2a4.9,4.9,0,0,0-.5,5.6l1.7-2.6h0.1l-1.7,3,0.8-.5a5.5,5.5,0,0,0-.7,1.9c0.2,3.5.6,7,.9,10.6l0.5,0.2,6.5-3.9,2.9-7.5a59.3,59.3,0,0,0-4.2,4.5c-1,1.4-1.7,3-2.6,4.5a3.4,3.4,0,0,1-1.4.8,0.9,0.9,0,0,1-.2-0.4l2.5-5.4a18.3,18.3,0,0,1-1.5,4.2v0.4h0.3l0.9-1.3,6.2-7.2a1.7,1.7,0,0,1,.8-0.2,2.8,2.8,0,0,1-.1.7l-1,2.1-0.8,1.7a19.9,19.9,0,0,0,2.2-3.2c0.5-.9,1.5-1.6,1.6-2.5,0.5-4,.7-8,1.3-12,1.1-7.5,2.5-15,3.7-22.4,0.4-2.4.7-4.8,1-7.5l-8.8,11.4a16.8,16.8,0,0,1,.9-1.7l7.6-10.9a2,2,0,0,0,.2-0.7,1.9,1.9,0,0,0-.8.3l-9.3,9.8c-0.8.8-1.4,1.7-2.1,2.6l-0.3-.3,7.4-11.6-0.5.2c-1.5,1.6-3.1,3.1-4.6,4.8s-4.4,5.4-6.6,8.1l-0.8.8h-0.2l0.6-.8,1.1-1.8Zm-77.2.3c0.2-.7.4-1.3,0.5-2s0.2-1.2.2-1.8l1.6,0.5,2.2,1v-0.2l1.3,0.5a3.5,3.5,0,0,0,0,1.5,4.4,4.4,0,0,0,1.6,1.9c1.7,0.8,3.6,1.1,5.4,1.8a3,3,0,0,1,1,1.2,0.6,0.6,0,0,1-.3.4H40.7L35.1,151a0.8,0.8,0,0,0-.5.5c0,2,0,4.1,0,6.2l0.4-.3a16.1,16.1,0,0,1,11.6-4.6,45.7,45.7,0,0,1,9.3,1.6c1.6,0.4,3.6.9,4.6,2.1a60.3,60.3,0,0,1,4.9,7.9,3.3,3.3,0,0,1,.2,1.1l-1.2-.5c-1-.5-1.6-2.1-3.3-1s-4.5,2.3-6.8,3.4-1.8.7-1.6,2.2a39.1,39.1,0,0,1,.6,8.6,28.8,28.8,0,0,1-1.9,7.9c-1.4,3.7-2.7,7.6-5,10.7s-4.8,4.1-7.3,6.1l-0.5.6,15.6,1.5a0.4,0.4,0,0,0,.2-0.3c-0.3-3-.8-6.1-0.9-9.1a13.9,13.9,0,0,1,.9-5.9c1.4-3.1,2.9-6.5,5.2-8.9s5.3-3.1,8.1-4.5l2.6-1.2a11.7,11.7,0,0,0-2.1-1.7c-1.6-.8-3.3-1.3-4.9-2a1,1,0,0,1-.4-0.7c1.8-2.4,4.6-2.7,7.3-3.1a1.3,1.3,0,0,1,.5.6,5.7,5.7,0,0,0,.6,1.2c0.4,0.5,1,.8,1.5,1.3l3.7,3.8h0.5c2.1-3.1,5.5-3.4,8.7-4.2,0.9-.2,2.5-0.4,2.6-0.8,1.1-8.3,2.1-16.6,3.1-24.9s2.2-15.5,3.2-23.3c0.5-3.5.6-7.1,1.1-10.6,0.9-6,1.9-11.9,2.8-17.8,0.3-1.7.7-3.4-2-3.7s-6.4-1-9.5-1.5L70.7,85.2c-2.4-.4-4.7-0.6-7.1-0.8-6.1-.5-12.2-0.8-18.3-1.4-3.9-.4-7.7-1.2-11.6-1.8L17.8,78.3a0.9,0.9,0,0,0-.7.3c-0.2,1.7-.5,3.3-0.6,5s-0.1,6.1-.2,9.1-0.6,5.6-.8,8.4-0.3,4.7-.5,7-0.7,4.7-.9,7.1-0.1,3.3-.3,5q-0.8,9.2-1.8,18.5c-0.4,3.5-.8,7-1.2,10.4-0.1,1.3-.2,2.6-0.3,4.2C15.6,148.1,21.9,148.8,27.7,148.4ZM19.2,73.6l1.2,0.3c4.2,0.9,8.3,1.9,12.5,2.7s6,0.9,9,1.4,7.2,1.4,10.8,1.8,5.5,0,8.2.1a73.1,73.1,0,0,1,8.1.6c4.5,0.7,9,1.5,13.5,2.4,2.7,0.6,5.2,1.6,7.9,2.4l6.5,1.7a2.7,2.7,0,0,0,1.5.3,18.9,18.9,0,0,0,3.6-2.6c1.7-1.7,3.1-3.6,4.7-5.3s5.9-5.6,8.8-8.5,7-7.2,10.5-10.9a0.8,0.8,0,0,0-.3-0.7L109.3,56a0.6,0.6,0,0,0-.5.3c-0.3,2.2-.7,4.5-1,6.7s-0.5,7.4-3.4,10.3a3.4,3.4,0,0,1-4.5.7c-1.6-.9-2.4-4.1-1.6-7.1s1.7-7.5,2.4-11.3a1.4,1.4,0,0,0-.7-1.1,26.5,26.5,0,0,0-3.6-.1c-3.5.1-7,.3-10.5,0.3s-7-.3-10.5-0.6c-5-.4-10-0.8-15-1.5S50.7,51,45.9,50.1c-1.2-.2-2.5-1-3.6-0.7a7.2,7.2,0,0,0-3.1,2.2c-1.6,1.7-3,3.6-4.6,5.3L20.8,71.3A17.8,17.8,0,0,0,19.2,73.6Zm60.7,125h0.3c0-.6-0.1-1.2-0.1-1.8a1.3,1.3,0,0,1,.4-0.5,1,1,0,0,1,.4.4c0,2.2,0,4.4.1,6.6a7,7,0,0,0,.3,1.2,56.7,56.7,0,0,0,.8-5.7c0.1-1.8-.2-3.7-0.3-5.6a3.3,3.3,0,0,1,.3-1.1,1,1,0,0,1,.4.4c0,0.9,0,1.9,0,2.8s0,4.2,0,6.3h0.8l0.6-9.1h0.2v13.8l-0.2-1.8-0.4,1-0.4,1a5.9,5.9,0,0,1-.4-1c-0.1-.8-0.2-1.6-0.3-2.4a6.7,6.7,0,0,0-.3,3.3c0.2,0.7,1,1.1,1.5,1.7l0.8-.8,0.6,1.5c0.1-.6.2-0.8,0.2-1.1,0.4-2.8.8-5.7,1-8.5s0.5-6.9.8-10.4c0.5-5.5,1-11.1,1.4-16.6a1.3,1.3,0,0,0-1-.7L80.7,173c-1.4.3-3.4,2.7-3.1,3.6l2.6,7.2a5.4,5.4,0,0,0,1.4-.9l3.2-3.6a2.3,2.3,0,0,1,1.2-.2,1.7,1.7,0,0,1,0,.9c-1,1.3-1.9,2.9-3.2,3.7s-2.7,2.9-5.1,2.3a8.6,8.6,0,0,0-2.5,0l-6.1.4-0.3-.2a0.6,0.6,0,0,1,.3-0.4l3.7-.7c1-.3,2.8-0.7,2.8-1.1a8.2,8.2,0,0,0-3.4-7.2,2.5,2.5,0,0,0-2-.4,21.4,21.4,0,0,0-2.5,1.5l-6.1,3-0.8.6,0.6,0.4a15.2,15.2,0,0,0-5.9,8.9c-1.2,4.6-2.2,9.2,2.6,12.6a0.5,0.5,0,0,1,.1.4H57.9l-1.9-1H55.4c0.4,0.9.7,2.4,1.3,2.6a47.8,47.8,0,0,0,6.8,1.1l2.9,0.2h0.1c0.2-1.5.3-2.9,0.5-4.2a3.7,3.7,0,0,1,.7-1.2,2.8,2.8,0,0,1,.7.9c0.2,0.9.2,1.9,0.4,2.9a10.1,10.1,0,0,0,.3,1.2,3.8,3.8,0,0,0,.4-0.9c0.2-1.2.3-2.4,0.6-3.6a1.4,1.4,0,0,1,.4-0.5,1.2,1.2,0,0,1,.4.4c0.1,1.1,0,2.3.1,3.4a5.1,5.1,0,0,0,.7,1.5,3.6,3.6,0,0,0,.8-1.1c0.4-1.8.7-3.6,1.1-5.5l0.6,6.4h0.7l1.1-9.9H76v1.5l0.7-.3a3.6,3.6,0,0,1,.6,1.1c0.2,1.3.2,2.6,0.3,3.8V204H76c0.6,1,.9,2.3,1.7,2.6s1.4-.4,1.3-1.6c-0.2-3.3-.3-6.6-0.3-9.8a2.7,2.7,0,0,1,.5-1l0.2,0.9Zm62-160.3a2.4,2.4,0,0,1-.8.9,1.9,1.9,0,0,1-1.1-.5,10.5,10.5,0,0,0-1.6-1.1,3.4,3.4,0,0,0-2-.3c-0.7.2-1-2.9-1.9-.2a0.7,0.7,0,0,1-.7.3c-1.4-.7-2.8-1.6-4.3-2.2a7.7,7.7,0,0,0-2.6-.4h-2.3c-0.3,0-.6-0.3-1-0.4a15.7,15.7,0,0,1-2.2.1c-0.8-.1-1.6-0.7-2.4-0.8a8.3,8.3,0,0,0-2,.2h-0.6L115,38l2,0.4h0.7l11.6,2c3.1,0.5,6.2.6,9.2,1.4a95.4,95.4,0,0,1,9.7,3.1c2.1,0.8,4.1,2,6.3,2.5a12.2,12.2,0,0,0,5.1.1c1.3-.2,1.4-2.9.2-3.6L153,40.4h-0.7a1.3,1.3,0,0,0-.1.5L152,41.9a5.2,5.2,0,0,1-1.5-.4,20.2,20.2,0,0,1-2-1.6V41l-4-2.6C144.3,39.6,144.3,39.6,141.9,38.3ZM124.2,72.2l-1.5,3.7,1.6-1.4c0.8-.8,2.1-1.6,2.4-2.6a41.5,41.5,0,0,0,.6-6.5,1.1,1.1,0,0,0-.2-0.4l-0.4.2-8.3,8.3-5,4.8c-2.9,2.9-5.9,5.8-8.6,8.9-1.1,1.3-1.6,3.1-2.2,4.8a2.9,2.9,0,0,0,.4,1.4,3.4,3.4,0,0,0,.6-0.7l1.4-3.7h0.4v0.6l4.9-5.5a6.3,6.3,0,0,1,1.6-.9,8,8,0,0,1-.4,1.5l-2.9,5.8-0.5.3,2.1-5.3c-3.6,1.2-8.5,12-8.1,17.6,1.6-2.5,3.3-4.8,4.8-7.3s3-5.6,4.7-8.3,4.6-7.1,7-10.7a8.4,8.4,0,0,1,1.7-1.5l-0.3,1.9,0.3,0.4Zm-22.6-9.3c-0.5,2.3,1.5,4.3.4,6.9s0,2.2-1.8,1.4c0.6,1,.4,3.2,2.4,2.1s3.5-3.8,3.9-6.5,0.7-6.3,1.1-9.4c0.6-4.8,1.4-9.6,2.1-14.4,0.4-2.9-.8-4.8-3.2-4.6l1.7,2.3h-0.7c-0.1.6-.1,1.2-0.2,1.7a4.8,4.8,0,0,1-.4.8,4.2,4.2,0,0,0-.4,1.3c0,0.7.2,1.4,0.2,2.1a5.5,5.5,0,0,1-.6,1.6l-0.7,1.5-0.6.6c1.1,1.5-.3,2.7-0.5,4s-1.1,2.1-1,3.1a48.3,48.3,0,0,0,.9,5.6,7.9,7.9,0,0,1,0,1.5,5.5,5.5,0,0,1-1.2-.6A12,12,0,0,1,101.6,62.9Zm-4,120.2a4.2,4.2,0,0,0,.4-1.2l-4.5-7.5a1.1,1.1,0,0,0-.5.3c-0.3,3.6-.6,7.2-0.8,10.8-0.1,1.8-.4,3.6-0.4,5.3s0,4.1.1,6.1,0.2,2.8.3,4.2a4.2,4.2,0,0,0,.9-2.6c0-2.8-.1-5.6-0.1-8.4a1.3,1.3,0,0,1,.5-0.5,1.1,1.1,0,0,1,.3.4c0,0.5,0,.9,0,1.4,0,2,0,4,0,6.1h0.9c0-3.3,0-6.6,0-10a1.8,1.8,0,0,1,.3-0.7,1.1,1.1,0,0,1,.4.4c0.1,2,0,4,.2,6a28.5,28.5,0,0,0,1,4.2H97a7.1,7.1,0,0,0,.4-2.4,43.6,43.6,0,0,0-1-4.5l1.1,1.7-0.6.8,0.7-.3a14.6,14.6,0,0,0,.3,1.7,2.1,2.1,0,0,0,.6.6,2.2,2.2,0,0,0,.2-0.8c-0.1-.5-0.3-1-0.3-1.4s-0.4-3.7-.7-5.6-0.8-4.1-1.2-6.1a1.2,1.2,0,0,1,.4-0.5,2,2,0,0,1,.5.5A8.7,8.7,0,0,1,97.5,183.1Zm-62-24.6c3-.4,6-0.9,8.9-1.1,6.4-.3,12.1,2.3,17.9,4.5h0.4a0.4,0.4,0,0,0,.1-0.4c-1.2-1.7-2.1-4.1-3.8-5a37.3,37.3,0,0,0-9.6-2.8c-4.6-.9-8.6.8-12.4,3.3A15.7,15.7,0,0,0,35.5,158.4ZM113.5,34.9a8.1,8.1,0,0,0-.6-2.4,5.4,5.4,0,0,0-2.2-2.3c-0.6-.2-1.6.6-2.3,1.1a1.5,1.5,0,0,0,.3,1,4.8,4.8,0,0,1,3.1,3.6,14.9,14.9,0,0,0,.9,2l0.7-1.9A8.6,8.6,0,0,0,113.5,34.9ZM91.2,200l-1.1,5.3,0.9-.7,7.4-6.6a14.7,14.7,0,0,0,1.7-2.6l-2.1,1.1-1.3,2L95,196.2c-0.6,1,.7,3.1-1.6,4l-0.8,2.2Zm15-165.5,2,2.7a4,4,0,0,0,.9,1.2,1.3,1.3,0,0,0,1.3-.1c0.9-1.2.3-3.6-1.1-4.4S106.4,33.5,106.2,34.5ZM28.7,201l0.6-8.9C28.1,192.7,27.6,200,28.7,201ZM134.8,34.7a3.9,3.9,0,0,0,.9,1.1c0.5,0.2.9,2.3,1.8,0.2a0.9,0.9,0,0,1,.7.1l2.2,2-0.2-2.2Zm-16-3.4-0.8.5a0.9,0.9,0,0,0,.3.6l3.5,1.8h0.4a1.3,1.3,0,0,0-.2-0.7Zm-17.1,27-0.9.3,1.7,4.8,0.6-.2Zm11.5,127.3-0.5-.3-3.3,5.9,0.5,0.3ZM114,32.7v4.8a17.1,17.1,0,0,0,1.3-4.1A4.8,4.8,0,0,0,114,32.7ZM31.8,162.2v0.4h5.7v-0.4H31.8ZM104.4,44.7l-0.8.2,1.1,3.3a1.1,1.1,0,0,0,.4-0.4C104.9,46.8,104.7,45.8,104.4,44.7Zm27.5-11-0.6.6,2.2,2.1a2.5,2.5,0,0,0-.1-1.2A13.3,13.3,0,0,0,132,33.7ZM100.7,62.3h-0.4a8.8,8.8,0,0,0-.3,2.3c0,0.3.9,0.5,1.6,0.9ZM76,203.2H75.5c0,1,0,2.1,0,3.1a0.8,0.8,0,0,0,.5.4,0.5,0.5,0,0,0,.4-0.3C76.3,205.4,76.1,204.3,76,203.2ZM125.2,34.7l0.5-.7-2.2-1.7-0.5.6ZM65,170.1l0.2,0.6,2.7-.9a3,3,0,0,0-.4-0.6Zm-20.7-3.9,0.4-3.2a3.6,3.6,0,0,0-1.3,1.9A3.2,3.2,0,0,0,44.3,166.2Zm56.3-96.6H101l-1-3-0.3-.3a0.9,0.9,0,0,0-.3.3Zm50-28.4,1-1.1-1.7-1.1h-0.4ZM67.9,203.4H67.6c-0.1.9-.2,1.8-0.3,2.7a0.4,0.4,0,0,0,.2.4H68C68,205.4,68,204.4,67.9,203.4Zm-59.3-29c-0.1,1.1-.3,1.9-0.3,2.7a1,1,0,0,0,.2.4l0.7-2.3A2.7,2.7,0,0,0,8.6,174.4ZM113.7,31.2l-0.3.6,2,0.9,0.4-.2ZM51.6,163.6l-0.5-.2L50,166l0.5,0.2ZM142.2,36.5l-0.7.6,1.8,1.4,0.3-.2Zm-68.7,168H73.1c0,0.7,0,1.4,0,2.1h0.6ZM42.7,161.9H42.2c-0.2.7-.3,1.3-0.4,2l0.4,0.2Zm2.3,4.6,0.2,0.4,1.2-.2-0.3-.9ZM145.8,38.2a10,10,0,0,0,1.7,1.2,3.8,3.8,0,0,0,1.4-.6Zm-43,12.4h-0.4l0.5,2.1h0.4ZM77.3,184.3v0.4h1.1a1.5,1.5,0,0,0,.1-0.4Zm51.9-151-0.2.3,0.9,0.6,0.2-.7Zm-23.6,6h-0.4l0.5,1.7h0.2Zm-22,164H83.3v1.5h0.4v-1.5Zm-0.5-.4-0.4-.5a1.3,1.3,0,0,0-.3.5,1,1,0,0,0,.3.4ZM104.9,43.2h0.3l-0.4-1h-0.2ZM67.2,171.4v0.3h0.9a2,2,0,0,0,0-.3H67.2ZM9.3,167.5H9.6v-0.8H9.2v0.8Zm71.5,37.9h0.2l0.3-1H81Zm36.4-172V33.2l-0.6-.3-0.2.3Z" transform="translate(-1.4 -29.2)"/><path d="M16,208.8a2.5,2.5,0,0,1-.1-1.2,8.2,8.2,0,0,1,1.1-1.5,2.4,2.4,0,0,1,.9.9,3.9,3.9,0,0,1-.8,1.3Z" transform="translate(-1.4 -29.2)"/><path d="M27.4,103.8l2.8,2.2,0.7,0.5a2,2,0,0,0,.4-0.7c0.1-1.5.6-3.2,0.2-4.6s-2.9-2.6-5.7-1.4l-1.4.4c0.3-.5.6-1.3,1-1.4a16.5,16.5,0,0,1,5.2-.4c1.8,0.3,2.8,3.9,2.2,6a46.1,46.1,0,0,0-1.4,7.6c-0.1.5,1.2,1.1,1.8,1.7l0.8,0.6a4.2,4.2,0,0,1-1.3.7c-1-.9-2.2-1.7-2.6-2.8s-1-.7-1.5-0.4a5,5,0,0,1-7.8-2.4C20,107,22,104.5,25.1,104Zm-2.1,7.8c1.5,0,5.2-2.4,5.2-3.4s-2.6-3.3-4.5-3.3-4.1,1.4-4.1,3.5A3.7,3.7,0,0,0,25.3,111.6Z" transform="translate(-1.4 -29.2)"/><path d="M62.1,105.2c0.1,3.3-1.7,7.2-5.5,7.4-0.8,0-1.7-1.3-2.6-2.1a1.4,1.4,0,0,0-.4-0.4,0.5,0.5,0,0,0-.4.3l-3.4,9.5-1.2,3.8a1.3,1.3,0,0,1-.6.6,0.6,0.6,0,0,1-.5-0.3,1.3,1.3,0,0,1,0-.8c1.3-3.6,2.8-7.1,3.9-10.7a45.9,45.9,0,0,0,1.4-7.7c0.1-.7-0.5-1.5-0.7-2.3a0.9,0.9,0,0,1,.1-0.8,1,1,0,0,1,.8,0c0.6,2.4,2,1,3.1.6s4.7-.1,5.8,1.9A2.6,2.6,0,0,1,62.1,105.2Zm-6.2,6.4c2.7-.1,4.3-1.7,4.9-4.8,0.2-.9-0.2-2.5-0.7-2.7a7.7,7.7,0,0,0-4.3-.4c-0.7.2-1.3,1.6-1.6,2.6a5.6,5.6,0,0,0,.4,2.9A15,15,0,0,0,55.9,111.6Z" transform="translate(-1.4 -29.2)"/><path d="M48.1,104.5c-0.4,3.3-2,6.9-5,7.2-1,.1-2-0.5-3.1-0.7a1.5,1.5,0,0,0-1.2.4c-1.1,3.3-2.1,6.6-3.2,9.9a1.2,1.2,0,0,1-.7.6,0.8,0.8,0,0,1-.7-0.2,1.3,1.3,0,0,1,.2-0.8c1.4-4.1,2.9-8.2,4.1-12.4a24.5,24.5,0,0,0,.8-6.1c0-.5-1.2-0.9-1.8-1.4l-0.8-.6a1.9,1.9,0,0,1,.7-0.5c1,0.6,2,1.3,3,1.8a3.8,3.8,0,0,0,1.6,0c1.4-.1,3.1-0.7,4.2-0.1S47.7,103.8,48.1,104.5Zm-1.3,2.2c0.1-3.3-1.1-4.9-3-4.5a5.4,5.4,0,0,0-3.1,2c-0.6,1-.6,2.5-0.7,3.8a2.1,2.1,0,0,0,.4,1.6c1,0.4,2.6,1,3.2.6A19,19,0,0,0,46.8,106.8Z" transform="translate(-1.4 -29.2)"/><path d="M76.3,108.1c-0.7.2-1.9,0.2-1.9,0.5s-0.2,2.2.3,2.6a6.4,6.4,0,0,0,3.6,1.3c0.9,0,1.8-1,2.7-1.5a1,1,0,0,1,.9-0.1,2.1,2.1,0,0,1,.4,1.1,0.7,0.7,0,0,1-.4.5c-0.9.4-1.9,1.2-2.8,1.1s-3.6-.2-4.8-1.1-1.6-6.4,1.2-7.9a13.6,13.6,0,0,1,4.9-1.6c0.6-.1,1.6,1.2,1.8,2.1s-0.7,1.5-1.3,1.8a37.7,37.7,0,0,1-4.5,1.6v-0.5Zm2.9-4.8-4,3.3c0.7,0.2,1.6.7,2.2,0.5a23.6,23.6,0,0,0,3.5-1.9Z" transform="translate(-1.4 -29.2)"/><path d="M78,134.6l-4.2-1a1.3,1.3,0,0,0-.8.9c0,1.3-.9,3.2,1.3,3.3a16,16,0,0,0,4-.7l1.6-.3a0.7,0.7,0,0,1,.2.4,4.4,4.4,0,0,1-1.3,1.1,10.1,10.1,0,0,1-3.4.8c-3.5-.1-4-0.8-3.6-4.3s3.1-5.2,5.7-5a2.6,2.6,0,0,1,2.5,3,6.8,6.8,0,0,1-1.2,2.2Zm-1.1-4.2L74.8,132a7.6,7.6,0,0,0,2.2,1.1c0.5,0.1,1.2-.5,1.8-0.9Z" transform="translate(-1.4 -29.2)"/><path d="M44.4,129.4l-2.6,7.2a4,4,0,0,1-4.6,2.8,3.6,3.6,0,0,1-1.9-1.8c-0.2-.4.2-1.1,0.3-1.7h0.7a0.7,0.7,0,0,1,.2.3c0.3,0.6.5,1.8,0.9,1.8s2-.1,2.3-0.6a71.4,71.4,0,0,0,2.9-7.5l-1.8-.9-1.7-.5a5.2,5.2,0,0,1,1.6-.5l6.3,0.4a1.9,1.9,0,0,1,.6.8,2.2,2.2,0,0,1-.8.3Z" transform="translate(-1.4 -29.2)"/><path d="M66.7,112.5l2.4,1.1a1.6,1.6,0,0,1,.3.7l-1,.2-4.3-.2-1.4-.4a3,3,0,0,1,1-.8c2.3-.4,2.2-2.5,2.8-4s2.2-5.9,3.1-8.9a11,11,0,0,0,.2-2.4H67.7a2.4,2.4,0,0,1-.8-0.4,1.6,1.6,0,0,1,.5-0.7,16.5,16.5,0,0,1,3.2-.4,1.4,1.4,0,0,1,.8,1.1c-0.9,2.9-1.8,5.8-2.8,8.7l-2,5.7C66.6,112.4,66.7,112.7,66.7,112.5Z" transform="translate(-1.4 -29.2)"/><path d="M47.8,135c0.6-1.3,1.3-2.5,1.8-3.8a4.1,4.1,0,0,0-.2-1.7,0.9,0.9,0,0,1,0-.6,1.1,1.1,0,0,1,.8-0.2c0.4,0.5,1,1.1.9,1.5s-1,2.4-1.4,3.6a5.3,5.3,0,0,0,0,1.8c0.9-.1,2.1,0,2.5-0.4a48,48,0,0,0,3-4.7,3.5,3.5,0,0,1,1-.9,0.9,0.9,0,0,1,.6.4,4.4,4.4,0,0,1-.4,1.4c-0.9,1.8-1.9,3.6-2.6,5.5s0.8,1.3,1.2,1.9l0.4,0.4-0.4.3c-1.6.4-2.1-.5-2.4-1.9a0.9,0.9,0,0,0-.7-0.5C49.9,137.3,48.1,136.5,47.8,135Z" transform="translate(-1.4 -29.2)"/><path d="M68.8,132.3c-0.1-2.3-1-3.1-2.9-2.2s-2.7,4.2-1.8,5.6a3.5,3.5,0,0,0,4.8.7,3.6,3.6,0,0,1,1.4-.4,0.8,0.8,0,0,1,.3.4l-1.1.9a4.3,4.3,0,0,1-6.1-.5c-0.7-.7-0.8-2.4-0.7-3.6,0.3-2.9,2.3-4.8,4.6-4.7a2.3,2.3,0,0,1,2.4,2.5A3.5,3.5,0,0,1,68.8,132.3Z" transform="translate(-1.4 -29.2)"/><path d="M59.6,137.2c-2.4-.3-1.7-1.8-1.4-2.9a23,23,0,0,1,1.5-3.7,2,2,0,0,1,.8-0.5,2.8,2.8,0,0,1,.1,1l-1.5,4.2a1,1,0,0,0,.4.6l1,0.7Z" transform="translate(-1.4 -29.2)"/><path d="M64,124.3l-2.6,2.2c-0.4-.6-1.3-1.4-1.2-1.6a4.5,4.5,0,0,1,1.9-1.5C62.4,123.2,62.9,123.7,64,124.3Z" transform="translate(-1.4 -29.2)"/><path d="M42.2,124.9a23.3,23.3,0,0,1,1.9-2.2,5.4,5.4,0,0,1,1.2.9c-0.6.9-1.2,1.7-1.9,2.6Z" transform="translate(-1.4 -29.2)"/><path d="M114.8,109.3l-1.9,3.7-0.3,1a30,30,0,0,1,2.4-2.5,31.7,31.7,0,0,1,3.4-2.4,1.6,1.6,0,0,1,1,.5c-0.6,2.4-1.1,4.8-1.9,7.1a36.1,36.1,0,0,0-1.6,4l4.5-4.8,0.2-.3,1.4-.6a4.6,4.6,0,0,1-.4,1.3l-5,7.3a2.6,2.6,0,0,0-.2.9H117a2.9,2.9,0,0,1,.1,1.4,53,53,0,0,1-4.3,6.3l3.8-6.5-0.4-.3-2.4,2.6h0a1.2,1.2,0,0,0-.6,0l-2.8,3h-0.4a1.2,1.2,0,0,1,.1-0.5l4.2-5.8a2.4,2.4,0,0,1,.7-0.4l-1.1,1.8-0.2.5a1.4,1.4,0,0,0,.6-0.3l6.2-9.2-0.6-.5c-1,1.1-1.9,2.3-2.9,3.4s-1.1.6-1.5,1-2.2,2.9-3.3,4.4l-2.6,3.4a1.5,1.5,0,0,1-.7.2,2,2,0,0,1,.2-0.6,11.2,11.2,0,0,0,1.9-3.2l-7.4,8.7-0.3-.2,4.8-5.8c2.7-3.2,5.8-6.1,8-9.5s2-5.6,3-8.5h-0.6l-3.3,5.3-0.3-.2,2.3-4.2-0.2-.2a36.1,36.1,0,0,0-2.8,2.5c-0.9.9-1.5,2.1-2.3,3.1a8.7,8.7,0,0,1-2.8,2.5l5.8-9.2h0Z" transform="translate(-1.4 -29.2)"/><path d="M115.8,131.7c-6.6,4.6-10.2,11.7-15.1,17.7l7-10.4-1.4,1.3h-0.2l5.6-6.5-0.3.7,3.7-3.4a4.3,4.3,0,0,1,1.4-.5,3.9,3.9,0,0,1-.3,1.6l-9.1,12.8-0.5.2Z" transform="translate(-1.4 -29.2)"/><path d="M102.4,189.1h-0.7l1.1-3.1H103l-0.8,2.7h0.3a27.1,27.1,0,0,1,1.5-3l7-10.1a1.7,1.7,0,0,1,.9-0.2,6.4,6.4,0,0,1-.4,1.8c-1.1,1.9-2.2,3.8-3.4,5.7a4.9,4.9,0,0,1-1.3,1.6l2.5-4.4,1.6-3.1a0.5,0.5,0,0,0-.1-0.3,1.9,1.9,0,0,0-.7.4c-2.3,3.9-4.6,7.7-6.8,11.6-0.6,1-.9,2.2-1.4,3.3a0.6,0.6,0,0,1-.5.2,0.5,0.5,0,0,1-.3-0.4l1.1-2.7v-0.3Z" transform="translate(-1.4 -29.2)"/><path d="M107,177.4c0.5-1,1.1-1.9,1.6-2.9s1.1-2.5,1.6-3.7a1.8,1.8,0,0,0-.2-0.9,3.8,3.8,0,0,0-1.1.8l-5.2,7.9a0.3,0.3,0,0,1-.4.2,39.8,39.8,0,0,1,2-3.6c1.4-2,2.8-3.9,4.3-5.8a1,1,0,0,1,.9,0,0.8,0.8,0,0,1,.2.7l-2.7,6-0.8,1.5H107Z" transform="translate(-1.4 -29.2)"/><path d="M108.1,113.5a40.3,40.3,0,0,1-2.2,5.2c-1.2,2.1-2.8,3.9-4.2,5.9a2,2,0,0,1-.7.4,2.4,2.4,0,0,1,.2-0.7l4.9-7.7c0.5-.9,1-1.9,1.5-2.8Z" transform="translate(-1.4 -29.2)"/><path d="M120.6,88.2l0.7-2.5-1.8,1a16.4,16.4,0,0,1,.9-1.6,0.9,0.9,0,0,1,.6,0l2.2-3.4a1.8,1.8,0,0,1,.9-0.2,2.2,2.2,0,0,1-.1.9l-3.5,5.8h0Zm1.8-4.1h-0.2l-0.5.9h0.3Z" transform="translate(-1.4 -29.2)"/><path d="M118.9,93.7l1.8-4.3h0.3v1.1l1.4-1.6,0.7-.2a1.8,1.8,0,0,1-.1.7l-4.4,6.2a2.8,2.8,0,0,1-1.3,1.2l4.1-6.1-0.5-.3-1.8,3.2h-0.1Z" transform="translate(-1.4 -29.2)"/><path d="M105.4,123.4l-1.1,2.6c-0.5,1-.9,2-1.5,2.9l-3.7,6.2a1.6,1.6,0,0,1-.6.3,1.7,1.7,0,0,1,.1-0.7c1.3-1.9,2.6-3.8,3.8-5.8s2.1-3.8,3.1-5.7h0Z" transform="translate(-1.4 -29.2)"/><path d="M117.2,93.5l-2.5,4.1,0.2,0.2,1.7-1.9,0.3,0.2-3.3,4.2a1.4,1.4,0,0,1-.7,0,2.6,2.6,0,0,1,.2-0.9l3.6-5.7Z" transform="translate(-1.4 -29.2)"/><path d="M100.7,150l-1,1.8-3.7,6.9a2.4,2.4,0,0,1-.8.6,2.7,2.7,0,0,1,.2-0.8l5-8.6Z" transform="translate(-1.4 -29.2)"/><path d="M101.4,160.3l-3.2,5.3c-0.6,1-1.3,1.9-2,2.9a2.4,2.4,0,0,1-.8.5,3.3,3.3,0,0,1,.3-0.8l4.7-6.9,0.9-1h0.2Z" transform="translate(-1.4 -29.2)"/><path d="M115.5,154.8l-0.3-1.5a4.4,4.4,0,0,0-1.4.7c-2.3,2.5-4.6,5-7,7.4,1.6-1.9,3.1-3.9,4.7-5.8a16.7,16.7,0,0,1,2.9-2.5,3.3,3.3,0,0,1,1.5-.2Z" transform="translate(-1.4 -29.2)"/><path d="M103.6,161.9l6.5-9.6,0.4,0.2-6.6,9.6Z" transform="translate(-1.4 -29.2)"/><path d="M103.8,162.6c-0.3.5-.6,1-0.8,1.6a1.6,1.6,0,0,0,.1,1.5l-2.2,3.9-0.5-.3,3.2-6.8h0.3Z" transform="translate(-1.4 -29.2)"/><path d="M117.7,82.6l3.7-5.2,0.3,0.2L118,82.9Z" transform="translate(-1.4 -29.2)"/><path d="M103.3,111.8l-0.7,1.9h0.2l0.8-.8a0.7,0.7,0,0,1,0,.4l-1.5,1.6a1.4,1.4,0,0,1-.3-0.6l1.5-2.6h0.1Z" transform="translate(-1.4 -29.2)"/><path d="M118,91.8l0.9-2.4H119l0.9-1.4h0.7L118,91.8h0Z" transform="translate(-1.4 -29.2)"/><path d="M105.4,123.4l0.8-.8h-0.2l0.9-1.3-0.2-.5H107l0.2,0.5,0.5-.3a0.6,0.6,0,0,1,0,.3l-2.2,2.2h0Z" transform="translate(-1.4 -29.2)"/><path d="M99.6,156.4l1.4-2.2,0.4,0.4-1.1,1.4-0.3-.2-0.5.6h0Z" transform="translate(-1.4 -29.2)"/><path d="M98.6,173.7L97,175.6a5.7,5.7,0,0,1,.4-1.4A2.8,2.8,0,0,1,98.6,173.7Z" transform="translate(-1.4 -29.2)"/><path d="M114.5,150.3l-2.1,2.5-0.2-.2,2.1-2.5Z" transform="translate(-1.4 -29.2)"/><path d="M97.4,159.2l2.2-2.8h0l-2.2,2.8h0Z" transform="translate(-1.4 -29.2)"/><path d="M107.1,185.1l-1.7,3.2h-0.2l1.6-3.2Z" transform="translate(-1.4 -29.2)"/><path d="M113.1,158.2l1.2-2.6,0.4,0.3-1.7,2.3h0Z" transform="translate(-1.4 -29.2)"/><path d="M101.2,135.1l-1.9,3.1H99l2-3h0.2Z" transform="translate(-1.4 -29.2)"/><path d="M105.1,128.9l-1.8,2.7-0.2-.2,1.9-2.7h0.1Z" transform="translate(-1.4 -29.2)"/><path d="M108.8,112a2.4,2.4,0,0,1-.1,1.2,2.6,2.6,0,0,1-1.2,0Z" transform="translate(-1.4 -29.2)"/><path d="M110.5,155.2l-2.3,2.9H108l2.4-2.9h0.1Z" transform="translate(-1.4 -29.2)"/><path d="M97.4,159.2l-1.2,2.6-0.3-.2,1.5-2.3h0Z" transform="translate(-1.4 -29.2)"/><path d="M104.7,138.7l-1.6,2.6h-0.2l1.7-2.6h0.1Z" transform="translate(-1.4 -29.2)"/><path d="M102.7,158.2l-1,1.6-0.2-.2,1-1.6Z" transform="translate(-1.4 -29.2)"/><path d="M103.8,183.5l1-1.7h0.2l-0.8,1.8Z" transform="translate(-1.4 -29.2)"/><path d="M106.6,135.4l1.4-1.9h0.2l-1.4,1.9h-0.2Z" transform="translate(-1.4 -29.2)"/><path d="M113.8,127.8l-1,2.3h-0.2l1.3-2.2h0Z" transform="translate(-1.4 -29.2)"/><path d="M104.9,148.1l1-1.9,0.3,0.2-1.3,1.7h0Z" transform="translate(-1.4 -29.2)"/><path d="M113.1,117.4l1.3-1.8h0.2l-1.3,1.8h-0.1Z" transform="translate(-1.4 -29.2)"/><path d="M102.9,185.6l0.7-1.6h0.2l-0.5,1.6h-0.3Z" transform="translate(-1.4 -29.2)"/><path d="M118,91.8l-0.6,1.4L117,93l1-1.2h0Z" transform="translate(-1.4 -29.2)"/><path d="M101.3,143.6l1.1-1.5h0.2l-1.1,1.5h-0.2Z" transform="translate(-1.4 -29.2)"/><path d="M103.7,110.5l1-1.8h0.1l-0.9,1.8h-0.2Z" transform="translate(-1.4 -29.2)"/><path d="M114.7,149.7l0.5-.8h0.3l-0.5.8Z" transform="translate(-1.4 -29.2)"/><path d="M112.2,111.4l-0.6,1.2h-0.3l0.7-1.2h0.2Z" transform="translate(-1.4 -29.2)"/><path d="M119.9,88.2l-0.8.6,0.7-1.6v1h0Z" transform="translate(-1.4 -29.2)"/><path d="M112,159.1l1.1-1h0l-1,1h0Z" transform="translate(-1.4 -29.2)"/><path d="M113.3,103.6l0.7-1.4h0.1l-0.6,1.4h-0.3Z" transform="translate(-1.4 -29.2)"/><path d="M95,162.8l0.5-1,0.3,0.2-0.6.9H95Z" transform="translate(-1.4 -29.2)"/><path d="M123.2,78.7l-0.4.8-0.3-.4,0.6-.3h0Z" transform="translate(-1.4 -29.2)"/><path d="M112,159.1l-0.8,1.5-0.2-.2,1-1.3h0Z" transform="translate(-1.4 -29.2)"/><path d="M113,109.7l-0.4,1.3-0.3-.2,0.7-1.1h0Z" transform="translate(-1.4 -29.2)"/><path d="M104.5,111.8l-0.6.7h-0.1l0.5-.8Z" transform="translate(-1.4 -29.2)"/><path d="M113,109.7l0.9-1.3h0l-0.9,1.3h0Z" transform="translate(-1.4 -29.2)"/><path d="M103.9,156.2l0.3-.9,0.3,0.3-0.7.6h0Z" transform="translate(-1.4 -29.2)"/><path d="M108.9,123l0.7-1.1h0.1l-0.7,1.1h-0.2Z" transform="translate(-1.4 -29.2)"/><path d="M103.9,156.2l-0.4,1.2-0.3-.2,0.7-1h0Z" transform="translate(-1.4 -29.2)"/><path d="M120.1,102.4l-0.8.9h-0.1l0.8-.9h0.1Z" transform="translate(-1.4 -29.2)"/><path d="M19.8,190.3c0.5-1.2,1-2.4,1.4-3.6s0.6-2.3,1-3.4a1.4,1.4,0,0,1,.6-0.4,1.3,1.3,0,0,1,.2.5l-2.5,12.9a0.9,0.9,0,0,0,.3.8c0.7-2.3,1.3-4.7,2.1-7s1.6-5,2.4-7.5a3,3,0,0,1,.7-0.8,3.1,3.1,0,0,1,.2,1.3,49,49,0,0,0-1.6,5.6c-0.4,3-.5,6-0.8,9.1a5.6,5.6,0,0,0,.2,1l1.2-5.3h0.2c-0.1.8-.1,1.6-0.2,2.4a16.7,16.7,0,0,1-.6,2.7,2.7,2.7,0,0,1-.9.8,2.6,2.6,0,0,1-.6-1c0.1-2.3.2-4.6,0.3-6.8a0.7,0.7,0,0,0-.3-0.6c-0.3,1-.6,1.9-0.9,2.9s-1.1,4.3-1.7,6.5a2.3,2.3,0,0,1-.8.7,2,2,0,0,1-.3-0.8c0.6-3.1,1.2-6.2,1.8-9.3,0.2-1.3.4-2.5,0.5-3.8a1,1,0,0,0-.2-0.4l-0.2.2-1.3,4.7-1.1,3.8a1.1,1.1,0,0,1-.5.3,1.3,1.3,0,0,1-.3-0.6L20.9,184c0.2-1,.5-1.9.7-2.9a1.9,1.9,0,0,0-.4-0.7L22,179l0.4-.2a1.2,1.2,0,0,1,.2.5c-0.5,1.7-1,3.3-1.5,5s-0.9,4-1.3,6L19.2,192h0.4Z" transform="translate(-1.4 -29.2)"/><path d="M33.4,196.6c-0.2,1.1-.4,2.2-0.7,3.3a1.6,1.6,0,0,1-.7.4,4.8,4.8,0,0,1-.2-1.3c0.3-3.1.6-6.3,1-9.4l0.4-.5-0.9,8h0.5c0.4-2.3.8-4.7,1.3-7a10.7,10.7,0,0,1,.9-2,13.5,13.5,0,0,1,.1,2.1c-0.3,2.8-.7,5.7-1,8.5a5.9,5.9,0,0,0,.2,1.2l1.7-5.2h0.3c-0.5,1.8-.9,3.5-1.5,5.3a4.7,4.7,0,0,1-.8,1.2,5.9,5.9,0,0,1-.4-1.4c-0.1-1.1,0-2.2,0-3.3H33.4Z" transform="translate(-1.4 -29.2)"/><path d="M39.9,196.7l0.6,0.7a2.4,2.4,0,0,0,.5-0.8c0.3-1.9.6-3.8,0.8-5.7a1.1,1.1,0,0,1,.4-0.7c-0.1,1.4-.2,2.8-0.2,4.2a2.3,2.3,0,0,0,.3.8,1.7,1.7,0,0,0,.3-0.6L43.9,183a1.8,1.8,0,0,1,.3-0.5,1.8,1.8,0,0,1,.2.5c0.1,2.5.1,5,.1,7.5a1,1,0,0,0,.2.4,1.3,1.3,0,0,0,.2-0.4l0.7-5.5,0.2-.4a0.8,0.8,0,0,1,.2.3c-0.3,2.4-.6,4.8-0.9,7.2a0.9,0.9,0,0,1-.5.5l-0.4-.2-0.5-.7-0.5,1.5c-0.4,1.2.6,3.1-1.7,3.2a1.3,1.3,0,0,0-.5.6l-0.7,1-0.7-1.3h0.2Z" transform="translate(-1.4 -29.2)"/><path d="M39,193.4l-1.1,3.8a0.6,0.6,0,0,1-.5.2,0.5,0.5,0,0,1-.3-0.4c0-.9,0-1.9-0.1-2.8a4.6,4.6,0,0,0-.1-0.7l-0.8.4,0.6-1.9H36.5c0.2-1.4.5-2.8,0.7-4.1a1.6,1.6,0,0,1,.5-0.6,1.6,1.6,0,0,1,.3.7c-0.2,2.5-.5,5-0.7,7.5a2,2,0,0,0,.3.8,2,2,0,0,0,.4-0.6c0.2-.8.4-1.5,0.6-2.3H39Z" transform="translate(-1.4 -29.2)"/><path d="M11,186.2l-1.7,5.1a23.4,23.4,0,0,1-1,2.3l-0.5.2a0.4,0.4,0,0,1-.2-0.3,44.7,44.7,0,0,1,2.1-6.9L9,189.6H9.1l1.6-3.6H11Z" transform="translate(-1.4 -29.2)"/><path d="M12.8,185.3a1.9,1.9,0,0,1-.1-0.6l3-11.6a1.2,1.2,0,0,1,.6-0.3,1.2,1.2,0,0,1,.2.6c-0.7,2.2-1.5,4.4-2.2,6.6s-0.8,3.3-1.2,4.9Z" transform="translate(-1.4 -29.2)"/><path d="M12.4,188l-0.2-.3,0.8-.2c-0.7,2.5-1.4,4.9-2.1,7.4a2.1,2.1,0,0,1-.7.7,2.6,2.6,0,0,1-.1-0.9l1.9-5.9A3.1,3.1,0,0,1,12.4,188Z" transform="translate(-1.4 -29.2)"/><path d="M10.7,181a1.2,1.2,0,0,0,.4-0.6,56.9,56.9,0,0,1,2.5-7.4L9.9,186.2H9.7Z" transform="translate(-1.4 -29.2)"/><path d="M16.6,192.5l1.6-7.8c0.2-1.1.4-2.2,0.6-3.3a1.6,1.6,0,0,1,.6-0.5,1.3,1.3,0,0,1,.1.5l-2.4,10.1Z" transform="translate(-1.4 -29.2)"/><path d="M17.4,192.5L16.2,198H15.9a0.6,0.6,0,0,1-.2-0.3l0.9-5.4Z" transform="translate(-1.4 -29.2)"/><path d="M27.4,189.9c0.1-.8.3-1.7,0.4-2.5s-0.1-1.2-.1-1.8l0.5-.3a1.3,1.3,0,0,1,.2.6l-0.9,4.1h0Z" transform="translate(-1.4 -29.2)"/><path d="M15.7,179.4l1.7-3.9h0.4l-1.8,4H15.7Z" transform="translate(-1.4 -29.2)"/><path d="M11.5,165.3l-0.8,5H10.2l1-4.9h0.2Z" transform="translate(-1.4 -29.2)"/><path d="M14.9,184.5l1-2.7h0.2l-0.9,2.8H14.9Z" transform="translate(-1.4 -29.2)"/><path d="M31.5,195.4l-0.2,1.3H31.1c0-.4.1-0.8,0.1-1.2h0.3Z" transform="translate(-1.4 -29.2)"/><path d="M42.4,185.1a1.3,1.3,0,0,1-.3-0.5,1.1,1.1,0,0,1,.3-0.4l0.4,0.5Z" transform="translate(-1.4 -29.2)"/><path d="M25.8,190.9l0.3-1.3h0.2L26.1,191H25.8Z" transform="translate(-1.4 -29.2)"/><path d="M76.7,195.8H76.1a1.3,1.3,0,0,1-.4-0.6L76,195Z" transform="translate(-1.4 -29.2)"/><path d="M95.8,187.2l0.7,3H96.3l-0.6-3h0.2Z" transform="translate(-1.4 -29.2)"/></svg>