<svg id="mining_at-risk_Image" data-name="mining(at-risk) Image" xmlns="http://www.w3.org/2000/svg" viewBox="0 0 218.7 204.6"><title>mining(at-risk)</title><path d="M160.3,96.6l0.9,1.4a2.8,2.8,0,0,1,.2.7,1.8,1.8,0,0,1-.9-0.1L156,93.5a1.1,1.1,0,0,0-.9-0.4,3.7,3.7,0,0,0-.9,1.1,4.6,4.6,0,0,1-.2.8l-3.6,3.7-1,.8c1,1.3,2.1,2.7,3.2,3.9a1.3,1.3,0,0,0,1.2-.2c1.1-1.4,2-2.9,3-4.3l1.1,0.5-0.3.8,1.9-1h0.1a10.5,10.5,0,0,0-1.6,1.1,9,9,0,0,0-1,1.5l-0.4.5a5,5,0,0,1,0-.6,2.4,2.4,0,0,0-.1-1.4l-0.4.6c-0.6.8-1.2,1.6-1.9,2.3s0.1,1.7.7,2.4c1.8,2.2,4,4.3,5.4,6.7a40,40,0,0,1,3.1,8.3c1.3,4.4,2.5,8.9,3.5,13.4a61.1,61.1,0,0,1,.7,7.2,9.9,9.9,0,0,0,.4,1.5l-0.9-.4c0.1,2.3.3,4.4,0.3,6.6s-0.5,3.7,0,5.5a14.6,14.6,0,0,0,2.6,5c2.1,2.9,4.6,5.5,6.8,8.4s1.8,12.4-2.6,15.8c-2.1,1.6,0,2.2.7,3.1l6.4,7.9,9.4,11.2a49.1,49.1,0,0,0,5.7,6.2c2.2,1.8,1.8,3.9,1.6,6.1a1.1,1.1,0,0,1-.4.4,3.4,3.4,0,0,1-.2-0.7c-0.1-.8-0.2-1.6-0.3-2.6-0.6,3-1.7,5.5-4.2,7a0.8,0.8,0,0,1-.7,0c-2.6-2.4-5.3-4.7-7.8-7.2a45.5,45.5,0,0,1-3.3-4.3,2.3,2.3,0,0,0-.7-0.5l-6.5-9.9-0.4.3,2.2,3.1-0.3.2-3.2-4.5-6.9-9.1-0.3-.6h1a3.9,3.9,0,0,0-1.1-.7c-3.4-.4-6.7-0.6-10.1-1.1a90.2,90.2,0,0,1-10.6-2.6,38.9,38.9,0,0,1-6.5-2.9c-3.8-2-7.6-4.2-11.4-6.2s-6.9-3.4-10.4-5l-13.6-6.2c-2.1-.9-4.3-1.4-6.3-2.4s-5.6-3-8.4-4.6-5.7-3-8.3-4.8a34.4,34.4,0,0,1-5.9-4.9,32.6,32.6,0,0,1-7.6-12.4,48.5,48.5,0,0,1-1.9-9.3c-0.1-1,.2-2.9,2.3-2.5,0.2,0,.7-1.1.9-1.7,2.5-7.4,6.9-13.5,12.3-19a63.3,63.3,0,0,0,6.4-8.2c0.3-.4-0.5-1.7-1.1-2.4-2.4-2.9-4.8-5.7-7.3-8.5l-7.3-8.1a50.4,50.4,0,0,0-3.2-4.1c-2-1.9-2.1-1.8-3.7.2a6.4,6.4,0,0,0-1.3.9c-2.8,3.3-5.7,6.7-8.5,10.1s-4.6,6.1-6.8,9.2-4.4,6.3-6.4,9.6-2.9,5.4-4.5,8.1a1.8,1.8,0,0,1-1.6.6,27.2,27.2,0,0,1-5.7-2.2c-1.8-1.1-2.8-4.4-1.3-6.8,2.5-4.2,4.7-8.6,7.2-12.8,1.5-2.5,3.4-4.7,4.9-7.2A22.3,22.3,0,0,0,40.1,79a6.9,6.9,0,0,1,1.2-1.7L51.5,65.6l0.5-.5c0.9-1.4,1.8-2.8,2.5-4.3s-0.4-1-.6-1.5c-2-3.4.5-5.4,2.6-7.3s3.5-2.2,5.3-3.3a1.5,1.5,0,0,0,.3-0.5,1.7,1.7,0,0,1,.4-0.6c1.7,0.2,3.4.6,4,2.6a5.8,5.8,0,0,0,.8,1.3,8.4,8.4,0,0,0,1.5-.9c4.7-4.7,9.4-9.4,14.2-14A84.6,84.6,0,0,1,90,31.1l-1,1.3,2.7-1.9-1.7.5,4-2.4a117,117,0,0,1,10.4-5.6c4-1.7,8.2-2.8,12.3-4.2H117l-3.2,2.5-3.2,2.7c-0.7.7-1.2,1.6-1.9,2.2-4.1,3.2-8.4,6.1-12.2,9.5A133.6,133.6,0,0,0,86.1,46.1a93.6,93.6,0,0,0-6.5,8.1c-1.8,2.4-3.3,5-4.9,7.5a2.3,2.3,0,0,0,.6,1.7L86.3,78.9c1.9,2.6,3.6,5.4,5.4,8a7.7,7.7,0,0,0,1.2,1.9,1.8,1.8,0,0,0,1.7-.2c2.8-2.3,6.3-2.8,9.7-3.3a18,18,0,0,1,6.3.4h-1.3v0.3h1.5a3,3,0,0,0,.4-0.9c2.5,0.5,5.1,1.2,7.8,1.6s4.1,0.3,6.2.4l4,0.3c6.1,0,10.4,3.5,14.6,7.4l4.2,3.7h0.5l3.2-3.6c0.5-.6,1.5-1,1.6-1.7s0-3.2.7-4.4a13.2,13.2,0,0,1,3.8-3.8l-2.9,3.8a2.2,2.2,0,0,0-.1.9,3.1,3.1,0,0,0,.8-0.5c1.6-1.8,2.9-4,4.7-5.5,3.7-3.1,7.8-5.7,11.5-8.7a68.6,68.6,0,0,0,5.6-5.9,4.3,4.3,0,0,1,1.1-.6l-1.8-1.8c-1.5-1.3-3-2.6-4.4-4a17.5,17.5,0,0,1-2.2-2.7,9.2,9.2,0,0,1-.8-1.8c-0.6-1.5-1.2-3-1.7-4.5a18,18,0,0,1-.1-2.1c-0.4-2.1-.5-2.1,1.9-4.3,4.8-4.3,9.5-8.7,14.6-12.8s8.6-6.4,13.1-9.4a74.8,74.8,0,0,1,10-5.5c3.2-1.4,6.5-1,9.8.1s8.7,2.7,13,4.2c1.6,0.6,3,1.8,4.6,2.7l3.5,1.9,0.6,0.5,1.2,1.2a4.4,4.4,0,0,0-1.4-.6,1.1,1.1,0,0,0-.9.7,1.5,1.5,0,0,0,.5,1.3,3.6,3.6,0,0,1,1.9,4.1,4.2,4.2,0,0,0,.4,2.6V31.9h0.7a24.3,24.3,0,0,0,0,3.9c0.9,5.4-.4,10.6-1.2,15.9-0.5,3.4-.4,7.1-1.7,10.1s-4.1,6.3-6.6,9.1-7,6.9-10.5,10.3l-0.7.3a2.4,2.4,0,0,1,.4-0.7l2.8-2.5-0.4-.4-6,5c-1.7,1.5-3.4,3.1-5.2,4.4a61.3,61.3,0,0,1-6.4,3.7L196.8,95a27.2,27.2,0,0,0-2.2,1.6,1.4,1.4,0,0,1-.7-0.1,1.8,1.8,0,0,1,.4-0.6l1.8-1a1.1,1.1,0,0,0,.5-0.8c-0.3-.6-0.8-1-1.2-1.6a24.1,24.1,0,0,0-1.5-2.5c-1.3-1.5-2.7-2.9-4-4.4l-0.5.4,4.1,6.2-0.3.2L190,87.8l-5.4-7.3a1.3,1.3,0,0,0-1.2.2l-9.1,8.8a4.6,4.6,0,0,0-.6.9l0.5,0.4-5.7,4.6A12.3,12.3,0,0,0,166,98a2.2,2.2,0,0,1-3.4.6l-2.3-2,0.4-.7,0.7,0.5c0.8,0.5,2.1,1.5,2.3,1.3,4.1-3.7,8-7.6,12-11.5,1.1-1.1,2-2.3,2.9-3.5h0.2l-2.8,3.7,0.3,0.2L185.9,76l0.6,0.5L183.3,80a4.4,4.4,0,0,1,1.8-.1,5,5,0,0,1,1.3,1.4l-0.2.2,4.9,5.3a0.8,0.8,0,0,0,.1-1l-3.9-6.5a1.4,1.4,0,0,1,.1-0.7l0.5,0.5,5.7,9.3,3.6,5.6c1.4-.7,3.1-1.7,4.9-2.4,3.9-1.5,5.7-5.9,10.1-7,1.8-.4,3.3-2.3,4.9-3.6s1.4-1.6,2.2-2.2,2.1-.8,2.9-1.5c3.4-2.7,7.1-5.1,8.9-9.3a5.4,5.4,0,0,1,1.4-1.1l-1.3,2.8c6.1-5.7,7.1-13.1,7.4-20.8l-0.3.2a12.6,12.6,0,0,0,.6-2.5c0.1-3.2.1-6.4,0-9.6a20.6,20.6,0,0,0-.4-3.5,2.2,2.2,0,0,0-.9-0.7,3.8,3.8,0,0,0-.2.9c0.1,1.6.2,3.1,0.2,4.7a1.3,1.3,0,0,1-.2.5l-0.3-.3c-0.1-1.2-.2-2.3-0.3-3.5s-0.2-3.6-1.1-4.7-2.9-1.9-4.5-2.5-4-1.2-6.1-1.7l-3.3-.8V25.1l11.5,1.3a23.5,23.5,0,0,0-3.2-1.2l-12.1-2.5c-2.2-.5-4.3-1.4-6.5-1.5a21.3,21.3,0,0,0-6.6,1.1,23.1,23.1,0,0,0-4.3,2.3c-2.6,1.4-5.3,2.6-7.7,4.3s-7,5-10.3,7.8-7.5,6.6-11.2,10a3.9,3.9,0,0,0-.6.9l1-.4,1-.6a0.5,0.5,0,0,1-.2.4c-1.3,1.3-2.6,2.4-3.8,3.8s-0.1,4.1.9,5.6c2.8,4.2,6.1,8.1,9.2,12.1l0.8,1.2-1.3-.2-0.4.2a5,5,0,0,1-.6,1.7l-7.6,6.9-9.3,8.1a1.2,1.2,0,0,1-.7.2l-0.2-.3,0.4-.5,3.7-2.7-0.9.2c-2,1.8-4.1,3.6-5.9,5.6a3.3,3.3,0,0,0-.7,2.9c0.5,1.1,1.9,1.8,2.8,2.9A9.6,9.6,0,0,1,160.3,96.6ZM90,34.7L91,33l0.7,0.4,1.2-2.9A55.3,55.3,0,0,0,88,33.7c-0.5.4-.5,1.4-0.8,2.2l0.2,0.2,0.8-1.6,0.3-.7,0.4-.4a1.8,1.8,0,0,1,.3.7c0,0.7-.1,1.4-0.2,2.1L90,34.7l-0.7,2.2-1.5,5.5a2.1,2.1,0,0,1-.7-0.9c0.2-1.3.6-2.6,1-3.8l0.7-2.8H88.5L87,37.3h0.2l-1.8,6.2H85.2L87,35.2l-0.6.3h0l-0.5-.3-1.4,2.8V36.5l-0.6,1.1-0.6-.3c-1.1,1-2.2,2-3.2,3.1a6.8,6.8,0,0,0-1.6,2.3,16.8,16.8,0,0,0-.4,3.4H77.9v-3l-0.4,1.3-0.2-1.2c-2.3,1.7-.9,4.1-1.6,5.9h0V45.2l-1.2.8c-1,.8-0.6,9.6.5,9.6l-0.2,2.6a58.8,58.8,0,0,1-1.6-8.3c-0.1-.7,0-1.5,0-2.2l-0.5-.2-1.4,1.6c-0.4.4-1.2,0.8-1.2,1.1a9.3,9.3,0,0,0,1.2,2.5V49.2a1.8,1.8,0,0,1,.5.7c0.1,1.4.1,2.7,0.2,4.1s0.3,1.8.4,2.7h0.3l0.3-3.4h0.3v7.6a19.3,19.3,0,0,0,2.2-2.2c2.6-3.6,5-7.4,7.6-11,1.4-1.9,3-3.5,4.6-5.3,4.8-2.5,6.6-6.7,6.8-11.9L92,37.6H91.7l2.2-7.1-0.6-.2-3.8,9.6H89.2l1.4-5.1Zm50.2,89.1,2.8,4.1,0.4-.3-3.3-3.8-2.1-2.9a2.9,2.9,0,0,1-.3-0.6h0.6l2.3,1.7c-1.3-1.7-2.9-3.8-4.5-6a14.5,14.5,0,0,1-1-2.4,17.6,17.6,0,0,0-1.2-2.3,12.7,12.7,0,0,1-1.2-1.1c-1.1-2.5-2.1-5.1-3.1-7.6a2.6,2.6,0,0,0-.7-0.7,2.6,2.6,0,0,0-.1.8c0.1,0.9.4,1.8,0.5,2.7s0.1,1.4.2,2.1H129l-3-5-0.3,1.5a11.9,11.9,0,0,1-1.1-1.6c-0.5-1.1-1-2.3-1.4-3.4-0.2,1.4-.3,3,0.4,3.8,2.1,2.5,4.8,4.5,6.8,7.1a85.3,85.3,0,0,1,6.8,10.7c1.9,3.6,3.7,7.2,3.7,11.5s0.4,3.2,1.7,3.7c-0.3-1.7-.6-3.4-1-5.1a14.3,14.3,0,0,0-.8-2.1l0.3-.2,1.6,1.4-4.2-7.1Zm45.7,90.5,0.8,0.6-0.3.3-0.6-.6-1.1-.8a6.3,6.3,0,0,0,2.4,2.4,5,5,0,0,0,.8-0.8l-2-1.1a3.3,3.3,0,0,0-.2-0.8l-2.9-5a1.7,1.7,0,0,1-.1-0.6l0.5,0.3,3.9,5.6a0.8,0.8,0,0,0,0-.8l-2.9-6.3a1.8,1.8,0,0,1,0-.7,1.8,1.8,0,0,1,.8.1,11.1,11.1,0,0,0,.3,1.4l3.8,6.8a3,3,0,0,0,0-1c-1.1-2.5-2.3-4.9-3.4-7.4a3.4,3.4,0,0,1,.2-1.5,7.3,7.3,0,0,1,1.3,1.1c0.7,0.9,1.3,1.9,1.9,2.8a31.4,31.4,0,0,0-3.6-6.9c-2.7-3.5-5.8-6.8-8.7-10.2-1.3-1.6-2.5-3.3-3.8-4.9a1.4,1.4,0,0,0-1.3-.3l-5.2,2.9a1,1,0,0,0-.2.9,16,16,0,0,0,1.2,1.4l9,11.8c1.2,1.6,2.2,3.4,3.3,5a0.9,0.9,0,0,0,.9.1l2.9-3.4,1.9-1.9a9.8,9.8,0,0,1-2.2,3.3c-0.9.9-2.2,1.5-.8,3.1S184.7,212.6,185.9,214.3ZM47.5,81.5h0l0.4,6.2V87.5l9-10.9c1.3-1.6,3.3-3,1.3-5.7l-1.8,4.9-0.4.5a1.6,1.6,0,0,1-.4-0.6c0.1-1.9.2-3.9,0.5-5.8s0.9-4.3-.7-6.3a0.8,0.8,0,0,0-.6-0.2,37.9,37.9,0,0,0-3.1,3.5c-0.9,1.2-2.3,2.3-1.6,4.2a6.1,6.1,0,0,1-.2,2.2L49.5,70c-2.2,1.9-4.3,3.8-3.9,7.1V74.8l-0.8,1.9V76.1H44.1l-1,8.8H42.9l0.5-6.5c-2,2.1-4.3,4.2-4.9,6.7s0.1,6.2.3,9.3h0.3V93.5a39.7,39.7,0,0,1,.2,4.8,1.2,1.2,0,0,1-.3.5,1.3,1.3,0,0,1-.3-0.5c-0.2-2.3-.3-4.7-0.4-7l-0.3-5c-3.4,2.6-.9,5.8-1.2,8.7v6.8a27,27,0,0,1-.6-5.9c-0.1-1.9-.4-3.9-0.6-6.1-1.4,1.2-1.5,6.3-.5,7.7V95.9c0.3,2.4.5,4.8,0.6,7.2a3.2,3.2,0,0,1-.2.8,3,3,0,0,1-.4-0.8L34,92.9a1.1,1.1,0,0,0-.4-0.4,28.5,28.5,0,0,0-1.7,4.2,11,11,0,0,0,.2,3.2H31.8l-0.4-2.9c-1.8,1.3-1.6,8.6.3,11h0a5.1,5.1,0,0,0,2,.9,3.1,3.1,0,0,0,2.1-1.1c0.9-1.3,1.5-2.9,2.3-4.3s2.8-4.5,4-6.8,2.2-3.6,2.4-5.6c0.4-3.8.1-7.6,0.1-11.5a2.5,2.5,0,0,1,.5-1V90.5l0.6-2v1.7h0.8L47,84.5v0.4Zm83.8,8.1a6.8,6.8,0,0,0-2.1-1c-1.7-.2-3.5,0-5.2,0a3.4,3.4,0,0,0,1.5.8l5.6,2.2h-0.4l0.8,0.8c3,2.5,6.1,4.8,8.9,7.4a62.1,62.1,0,0,1,5.1,6h-0.8l2.1,2.6a1.3,1.3,0,0,0-.3-0.9l-1-1.8c2.3,3.1,4.8,6.2,7,9.4,0.9,1.4.9,3.3,1.8,4.8,2,3.4,2.9,8.4,1.7,11.6a2.6,2.6,0,0,1-.9.8,1.5,1.5,0,0,1-.2-0.5c0.1-2.5.6-5.2,0.1-7.6s-2-4.4-3.1-6.6l-0.4-.8h0.9a13.2,13.2,0,0,0-1.3-2.5c-1.4-1.8-3.1-3.4-4.5-5.2s-2-2.9-3.2-4.1c-3-3-6-6-9.2-8.9s-3.6-3.7-5.8-4.8a59.9,59.9,0,0,0-11.3-4c-2.7-.7-5.6-0.5-8.4-0.7l-0.6-.3,0.4-.5a3.5,3.5,0,0,0-1.4-.1l-9.9,3.1-0.6.2-2.5,1a5.9,5.9,0,0,0,.3,1.1,1.7,1.7,0,0,1,0,.4H94.2c-1.2-1.5-1.9-.1-2.7.6l-0.3.4h0.6a42.8,42.8,0,0,1,4.7-.9c3-.3,6.1-0.3,9.2-0.5A0.5,0.5,0,0,1,106,91a59.9,59.9,0,0,1,8,1.6,43.2,43.2,0,0,1,6.8,3.3c2.7,1.4,5.7,2.7,8,4.6a58.6,58.6,0,0,1,7.8,8.3c2.2,2.8,4.1,5.9,6.1,8.9a1,1,0,0,1,0,.5l-0.4-.2-1.2-1.5h-0.3l2.8,7.7a2.8,2.8,0,0,0-.1-1.3,3.4,3.4,0,0,1,.2-1,2.2,2.2,0,0,1,.7.6c0.3,0.6.5,1.3,0.7,2a1.6,1.6,0,0,0,.4.4,1.2,1.2,0,0,0,.2-0.6c-1-2.5-2-5.1-3.1-7.6a12.6,12.6,0,0,0-1.2-1.9l-1.2-1.8,0.6-.3a104.8,104.8,0,0,1,4.7,9.8,104.6,104.6,0,0,1,2.7,10.5,15.8,15.8,0,0,1,3.1-.5c1.8,0,4-.2,5.2.7s2.7,3.6,4.2,5.3,2.2,2.3,3.2,3.4l0.4-.4-2.5-3.9,0.3-.2,2.4,2.1,0.2-.2-2-2.5,2.1,1.7,0.6-.7-3.1-2.7-0.5.5,1,1.4h-0.2l-4.4-5.1,5.7,4.3,0.2-.2-6.5-6,0.3-.4,3.3,2v-0.2l-3.6-3.1c1.5,0.9,2.8,1.9,4.2,2.9a9.1,9.1,0,0,0,1.6.7,6.4,6.4,0,0,0-.8-1.2l-6.4-5.9,1.5,0.7,4.1,3.4h0.5a0.8,0.8,0,0,0-.1-0.4l-2.8-3.1-2.8-2.6,0.2-.3,5.5,4.5,0.3-.4L162,125l2,2.1-1.3.6,2.2,4.6c0.1,0.1,0,.3,0,0.5l0.7,1.8a31.1,31.1,0,0,0-.8-6.5,38.6,38.6,0,0,0-1.6-4.8c-0.5-1.3-.8-3-3-2.7a3.3,3.3,0,0,1,.5.6c0.5,1.1,3.1,1.5,1.2,3.4a0.7,0.7,0,0,0,.1.3l-5.2-4.2a0.7,0.7,0,0,1,.6.1l3.9,2.6H162a1.5,1.5,0,0,0-.2-0.6c-1.2-1.3-2.5-2.6-3.8-3.8s-3.2-2.6-4.7-4l0.3-.4,4.4,2.5,0.3-.4-1.7-2,0.2-.2,5.2,5.8,0.5-.4a23.1,23.1,0,0,0-1.3-3c-2.2-3.5-4.1-7.2-6.7-10.4s-6.6-6.6-10-9.9-5.8-5.3-9.6-6.6a10.5,10.5,0,0,1-1.7-1.3,1.9,1.9,0,0,0-1.3-.4A2.2,2.2,0,0,0,131.3,89.5Zm-64,39.7c0,1.2-.4,2.4.1,3.1,1.6,3,3.1,6.1,5.4,8.6a56,56,0,0,0,8.8,7.3c2.2,1.6,4.7,2.7,7,4a47.5,47.5,0,0,0,5.3,3.3c2.9,1.2,5.9,2,8.9,3.1l8.1,2.8,8.6,2.4c0.7,0.2,1.8.4,2,.1,2.6-4.5,5.3-9,7.5-13.7a26.7,26.7,0,0,0,1.8-7.9c0.6-5,1.2-10.2-1.1-15a91,91,0,0,0-6.7-12.9,34.7,34.7,0,0,0-8.1-8.2,29,29,0,0,0-9.5-4.6c-4.7-1.3-9.4-1-13.7,2.1s-8.3,4.9-12,7.8a40.6,40.6,0,0,0-7.2,7.6,40.9,40.9,0,0,0-3.8,7,23.3,23.3,0,0,0-1,3.1Zm98.9,37.3-0.2.4c-2.3,1.6-4.4,3.4-7.3,3.9s-5.7,1.5-8.6,1.6-6.7-.5-10.1-0.9-8.2-1.3-11.6-4.2c-0.2-.2-1,0-1.1-0.2-1.7-2.8-.2-5.5.4-8.1a34.4,34.4,0,0,1,3.4-8.3c1.5-2.8,2.2-6.1,4.8-8.4s2.8-2.6,4.2-4a0.7,0.7,0,0,0,.3-0.4c-0.4-3.6-.2-7.3-1.4-10.6-3-8.5-7.4-16.4-14.6-22.3a68.3,68.3,0,0,0-11.8-8.1,29.2,29.2,0,0,0-10.1-2.5c-2.3-.3-5-0.2-6.9,2H95l-1.1.6a3.8,3.8,0,0,1-.6.6c-1,.3-2,0.3-3,0.6s-1.9,1-2.9,1.4-2.5.5-3.6,1a9.4,9.4,0,0,0-2.1,2.3l-0.4-1.3L72,113.3l0.6,0.5h0.9a21,21,0,0,0-3.4,2.9,17,17,0,0,0-1.9,4,30.4,30.4,0,0,0-1.4,4.3,42.1,42.1,0,0,0-.6,4.3h0.6l1.4-5.9h0.4L68,125.1c2.1-3.3,4.2-7.1,6.9-10.4s4.9-4.2,7.5-6.1a56.8,56.8,0,0,1,5.4-3.1c2.7-1.5,5.1-3.6,8-4.4a19.7,19.7,0,0,1,15.1,1.7c4.7,2.5,9.1,5.5,12.2,9.9a46.9,46.9,0,0,1,4.5,7.5,57.4,57.4,0,0,1,3.9,10.4,32.3,32.3,0,0,1,.5,8.9c-0.2,4.1.1,8.3-2.5,12.1s-3.9,7.1-5.8,10.7l-2,3.5-3.7-.3a0.9,0.9,0,0,0,0-.4l-3.5-1.5c-0.6-.2-1.2-0.1-1.8-0.3l-12.6-4.3c-2.8-1-5.7-1.7-8.2-3.1a141,141,0,0,1-13.2-8.6,44.7,44.7,0,0,1-7.7-7.1,21.9,21.9,0,0,1-5.3-13.9,2,2,0,0,0-.4-0.7,1.7,1.7,0,0,0-.6.5,3.2,3.2,0,0,0-.5,1.7,87.4,87.4,0,0,0,3,10.3,31.8,31.8,0,0,0,10.3,13.5c2.8,2.1,6.2,3.4,9.3,5.2s5.4,3.6,8.3,5c5.8,2.7,11.6,5.2,17.5,7.5s13.9,6.6,20.7,10.4a86.8,86.8,0,0,0,13.2,5.8,68.6,68.6,0,0,0,10,2.2,44.4,44.4,0,0,0,6.5,1c3.7,0.2,6.6-2,9.3-4.1s5-3.6,5-7.1,0.2-6.7-2.3-9.5-3.6-4.2-5.3-6.3-1.8-2.6-2.6-3.9c-0.2,1.5-.3,3.2-0.6,4.9s-0.9,3.2-1.3,4.6Zm-7.3,3.7a4.6,4.6,0,0,0,1.5-1.2,24.4,24.4,0,0,0,1.8-5.8c0.4-3.6.3-7.3,0.5-11a20.2,20.2,0,0,0,.2-4.1,21.4,21.4,0,0,0-1.6-5.3,59.3,59.3,0,0,0-3.4-6.1c-0.7-1.2-1.5-3-2.5-3.2-2.8-.5-5.8-0.8-8.3,1.3s-2.5,1.8-3.8,2.7-4.9,3-6.6,5a37,37,0,0,0-5.2,8.9c-1.6,3.7-2.5,7.6-3.7,11.3-0.5,1.4-1.3,2.8.9,3.6s5.3,2.4,8,3.5c0.5,0.2,1.3-.3,2-0.5h0.4c1.6,0.4,3.1,1.2,4.7,1.3a93.5,93.5,0,0,0,10.3-.2,33.8,33.8,0,0,0,5.1-1.1Zm-80-87.3h0.2c0.2-1,.5-2.1.8-3.1a2.1,2.1,0,0,1,.6-0.7,1.8,1.8,0,0,1,.3.7c0,1.5,0,3,0,4.4a1.4,1.4,0,0,0,.4.5c1.7-1.5.8,0.2,0.9,0.8s0.1,0.9.1,1.8l1-2.7a2,2,0,0,1,.5-0.5,2.2,2.2,0,0,1,.2.7c0,0.9,0,1.9,0,2.8a4.6,4.6,0,0,1,1.2-.7,1.1,1.1,0,0,1,.6.7c0.1,0.7.1,1.4,0.1,2.1s0.2,1.7.3,2.6L87.1,90l0.4-.4a0.9,0.9,0,0,1,.2.4c0,0.9-.1,1.9-0.1,2.8a2.4,2.4,0,0,0,.2.7l0.6-.2a36.2,36.2,0,0,0,3-2.7,1.7,1.7,0,0,0,.3-1.6q-6.4-9.6-13-19.2c-1.7-2.4-3.5-4.7-5.4-7.1a9.8,9.8,0,0,1-.9,1.2L70,66.1l-0.5.5a3.8,3.8,0,0,1,.1-0.7l0.4-1.1-0.4-.2L68,67.7l-0.3-1-0.8,2.5a2,2,0,0,0,0,.5l-0.4-.3c-0.6-1,1.1-5.1,2.4-5.5a3.6,3.6,0,0,0,2-5.2l-0.4-.3a2,2,0,0,0-.1.5c0,1.3,0,2.5,0,3.8H69.7V58.3a2.6,2.6,0,0,0-.5.9l-0.6,1a6.5,6.5,0,0,1-.1-1.2c0-.6.2-1.3,0.3-1.9a10.6,10.6,0,0,0-1.2,2.8,2.3,2.3,0,0,1-.5.6,2,2,0,0,1-.2-0.7c0.1-1.3.2-2.7,0.3-4a1.5,1.5,0,0,0-.3.7,6.2,6.2,0,0,1-.5.9c-0.1-.3-0.1-0.5-0.2-0.8s-0.1-1-.2-2.2c-0.3,1.3-.4,1.8-0.5,2.4a1.7,1.7,0,0,1-.4.5,1.9,1.9,0,0,1-.1-0.6c0.1-.8.3-1.6,0.4-2.4a1.4,1.4,0,0,0-.2-0.5,1.3,1.3,0,0,0-.4.5c-0.2.9-.3,1.9-0.5,2.8a1.5,1.5,0,0,1-.4.5,1.1,1.1,0,0,1-.3-0.4c-0.1-.9-0.2-1.9-0.4-3.2-1.6,1.5-3.1,2.8-4.4,4.2s0.2,1.3.3,2,0.2,2.7.4,4.6c0.3-1.8.5-3,.8-4.1a1.8,1.8,0,0,1,.4-0.6,1.8,1.8,0,0,1,.4.7c0,0.8,0,1.5,0,2.4s0.6-.6,1.5,1l0.6-.3,0.7,2.2,0.7-1.4,0.8,2.6,0.5-.8c-0.2,1.7-1,3.4,1.5,4.3,0-.5-0.1-1-0.1-1.5a3.3,3.3,0,0,1,0-.6h0.3a1.5,1.5,0,0,1,.2.6c0,0.9,0,1.8,0,2.7a10.7,10.7,0,0,0,1.2-2.9,2.2,2.2,0,0,1,.5-0.6,1.6,1.6,0,0,1,.4.6c0,1,0,1.9,0,2.9a1.2,1.2,0,0,0,.6-0.7l0.5-1.1a5,5,0,0,1,.4,1.2c0.1,1.2.1,2.4,0.2,4.1L73,72.5l0.4-.5a2.6,2.6,0,0,1,.2.7c0,1.2,0,2.3,0,3.8l0.6-.9,1.2-1a10.7,10.7,0,0,1,.4,1.5,7.2,7.2,0,0,1-.2,1.1c0,0.7,0,1.3,0,2.4l1.2-2.7,0.4-.4a1.5,1.5,0,0,1,.3.5c0,1.1,0,2.1,0,3l0.9-.7a6,6,0,0,1,.3,1.1C78.8,81.3,78.8,82.1,78.9,82.9ZM192.9,210.8l-5.5,7a13.9,13.9,0,0,1,3,2.3c1.1,1.4,2.4,2,2.8,1.4a57.7,57.7,0,0,0,2.7-5.7C196.9,212.9,193.8,212.4,192.9,210.8ZM55.7,59.9l0.8-.7c2.7-3,5.4-6,9.4-7.2a0.5,0.5,0,0,0,.1-0.4l-2.9-2.2H62.7c-2.4,1.8-5,3.5-7.3,5.5a2.9,2.9,0,0,0-.3,4.1,5.2,5.2,0,0,0,1.2-.5Zm0.8,4.5,1.8,3.3-0.3.2L57,66.5l-1,8.3a14.1,14.1,0,0,0,2.1-3.6,1.3,1.3,0,0,1,.6-0.6,0.7,0.7,0,0,1,.5.4c0.4,2.7,1.4,1.8,2.3.3l0.3-.3,0.6-.4,0.3,1.2,0.5-2.2h-1a3.5,3.5,0,0,1-1.7-.3C59.3,67.9,58.1,66.4,56.5,64.4ZM98,32l0.6,0.4a35.2,35.2,0,0,0,3.1-2.4,6.3,6.3,0,0,0,1.2-2.1,7.4,7.4,0,0,0,.3-1.7l1.1,1.3,2.7-2.2H107l-2.5,1.6a6.5,6.5,0,0,1,1.9-2.2,28.3,28.3,0,0,1,3-1.6h-1l-5.6,1.9-0.5.4c-0.2.3-.2,0.7-0.4,1Zm44.5,101.7-0.3.2c0.5,0.8,1,2.2,1.4,2.2,2-.1,3.4-2.8,2.7-4.6a2,2,0,0,0-.7-0.9,8.4,8.4,0,0,1-1.3-.5c-1.1-1.1-2.1-2.3-3.1-3.4l-0.3.2,5.1,7.3-0.5.3-3.3-3.8a7.3,7.3,0,0,0,1.1,2.5l0.7,1.3-1.2-.4ZM120.5,98.7l-0.6.9a4.1,4.1,0,0,1-.7-0.7l-1.4-2.6-0.5.9-0.7-.7a4.4,4.4,0,0,0-.5-0.9l-2.2-1.4-0.5.2,1.1,2.3c0-.8-0.1-1-0.1-1.2s0-.4,0-0.7c0.7,4.3,4.3,5.3,7.7,7Zm45.8,47.7c1.2-2.6-.9-7.1-3.1-7.2,0.2,1.1,2.3,1.8,1.2,3.8Zm-38-40.8c0.7-2.8-.8-5.2-3.6-6.6l-0.8-.2,0.6,1.9,0.3,0.2a3.5,3.5,0,0,1,1.4.7C127,102.9,127.6,104.1,128.4,105.6ZM69.9,50.5l-1.4,1.3a2.8,2.8,0,0,0-.6,1,1.2,1.2,0,0,0,.5.6l3.3,2.5H71.6a18.1,18.1,0,0,0-.4-2.8A21.6,21.6,0,0,0,69.9,50.5Zm93.8,115.3a3.2,3.2,0,0,0,1.1-.9,6.5,6.5,0,0,0-.8-1.9,0.9,0.9,0,0,0-.6,0l-1.7,5.5C162.7,167.6,166.1,168.1,163.7,165.8Zm0.1-13.4,0.8,1.7,0.7,1.8-1.6-1h-0.3a17.9,17.9,0,0,0,.7,1.8c0.4,0.7.8,1.3,1.3,2a10.5,10.5,0,0,0,.6-2.4C166,154.7,166,153.1,163.8,152.4Zm1.3,12.2h0.6l0.5-5.1-2.6-.4,1.1,2c0.2,0.5.4,1,.6,1.5l-1.4-.2ZM29.8,101.4H29.6c0,2.2-.1,4.4.1,6.5,0,0.4,1,.7,1.5,1a0.7,0.7,0,0,0,.2-0.3ZM215.9,20.3V19.7l-9.6.7v0.8Zm-84.7,83.5-0.3.2a3.4,3.4,0,0,0,.3,1.1l2.3,2.8c0.3,0.5.5,1.1,0.8,1.6a2.1,2.1,0,0,0,.9.4,2.6,2.6,0,0,0,0-1.1,10.4,10.4,0,0,0-1.2-1.6ZM92.4,95.6a7.9,7.9,0,0,0,1.6-.6l2.1-1.6-0.4-.2-2.6.4-1.6.5Zm5-66.5-0.7-.3L94.2,36l0.7,0.3Zm124-6.3,0.2-.8-6.3-1.7-0.2.8ZM75.4,75.4H74.9l-1.5,3L75,80ZM189.9,213.2l0.6-.3-3.7-6.8-0.5.3Zm-25-66.9,0.6-.4-3.1-5.1-0.7.5Zm1.6-6.6,0.5-.2-0.7-3.4-1.6.8Zm-20.8-9.7,0.5-.2-1.5-4.1-0.3-.2a1.3,1.3,0,0,0-.1.4c0,0.4.1,0.8,0.2,1.2l-1.1-.4ZM85.2,92.2V87.5C83.8,88.2,83.9,90.9,85.2,92.2Zm-8-14.7H76.4c0,1.5,0,3,0,4.5a0.8,0.8,0,0,0,.4.3l0.2-.2C77.1,80.5,77.1,79,77.1,77.4ZM183.3,213l0.3-.2-2-4-0.5-.3a1.8,1.8,0,0,0-.4.8Zm-43.9-94.5,0.5-.4c-0.7-.9-1.3-1.8-2-2.6a1.8,1.8,0,0,0-1.1-.1,0.5,0.5,0,0,0-.1.4ZM98.8,30.6l1.3-3.3a7.6,7.6,0,0,0-2.2.8c-0.4.3-.4,1.1-0.6,2l1.5-1.7v2.2ZM122,100.3l0.7-.4L121,96.7l-0.7.4ZM69.9,69.7H69c0.1,1.3.2,2.6,0.3,3.8a0.8,0.8,0,0,0,.4.3l0.2-.2C69.9,72.3,69.9,71,69.9,69.7Zm3.4,3.6c-1.4,2.3-1.4,4.2,0,4.4V73.3Zm62.9,38.1a5.9,5.9,0,0,0,.2,1.7,9,9,0,0,0,1.3,1.6h0.4a15.2,15.2,0,0,0-.5-1.5,2.9,2.9,0,0,0-.5-0.7,1.7,1.7,0,0,0,.1-0.7Zm-29.8-18V92.7h-3.5a1.9,1.9,0,0,0,.4.7h3.1ZM164,146.2l1.8,2.7a0.9,0.9,0,0,0,.5-0.3C167.1,146.3,164,147.2,164,146.2ZM111.8,21.8V21.4l-3.4.8c1.4-.2,2.1-0.2,1,1.8ZM62.4,63.1H61.8c-0.1,1.6-.2,3.2-0.3,4.8H62ZM102,25.8l-0.2-.5L96.3,28v0.3ZM69.3,55.9l0.5,0.6,0.3-.4-1.9-1.8-0.4,3.2ZM89.2,95.8c0.3,1.4.6,2.4-1.2,0.9l-0.5.4a9.3,9.3,0,0,0,.5,1.2l2-.9ZM108.6,93v0.4a6.9,6.9,0,0,0,1.5,1.1,3.6,3.6,0,0,0,1.4,0,1.3,1.3,0,0,0-.1-0.6ZM60.1,67h0.6l0.3-5.4H60.6ZM79.5,86.1h0.8l-0.2-4H79.7ZM71.3,71.6H71c-0.2,1-.5,2-0.6,3.1a1,1,0,0,0,.5.6h0.4C71.3,74,71.3,72.8,71.3,71.6ZM87.6,98l-0.8-1.6-1,1.2a6.1,6.1,0,0,0,1,.8A1.8,1.8,0,0,0,87.6,98Zm-4.3-8V86.9C82,88.2,82.1,89.7,83.3,90.1Zm81.8,45.5,0.6-.6-2.8-2.7-0.3.3ZM28.4,106.6h0.5l-0.7-3.7H27.6ZM240.1,40.3h-0.4l-0.2,3.6h0.6V40.3ZM164.2,149.6l-0.6.3,1.9,3.1,0.4-.3Zm-3.9-29.8,0.4-.5-3.1-2-0.3.4ZM63.5,64.8H63.2c-0.2,1-.4,2-0.5,3a1.6,1.6,0,0,0,.4.7,2,2,0,0,0,.4-0.7C63.5,66.8,63.5,65.8,63.5,64.8ZM65,66H64.6c-0.1.9-.2,1.7-0.2,2.6a1.6,1.6,0,0,0,.4.6,1.1,1.1,0,0,0,.3-0.4C65,67.8,65,66.9,65,66Zm31.4-32L97,34.1l1.3-3.9H98ZM58.1,64.1c-0.1-1.2-.2-2.2-0.4-3.2a0.9,0.9,0,0,0-.7-0.3,0.7,0.7,0,0,0-.4.5Zm14.5-4,0.4-.3L71,56.9l-0.4.2ZM95.1,32.1h0.2l0.9-2.6a2.1,2.1,0,0,0,0-.7,1.8,1.8,0,0,0-.7.5C95.2,30.3,95.2,31.2,95.1,32.1Zm-4.6,65,0.5-.2-0.8-2.2-0.6.4Zm-61.3,8.7h0.2l-0.4-4.7H28.6Zm84.6-9.4-1.7-2.7a3.9,3.9,0,0,0-.2,1.7A6.3,6.3,0,0,0,113.8,96.4ZM96.7,88.1l0.2,0.3,3.4-1.6-0.2-.4ZM141,138.3l1.3-1.6-1-.8Zm22.7,8-0.4.2,1.5,2.4,0.5-.3ZM78.2,81.4H77.8V84h0.6Zm82.3,50.2-0.2.3,2.9,2.6,0.2-.3ZM81.2,88.1h0.5l-0.4-2.3H80.8Zm33-67.4-0.2-.5-2,.6,0.2,0.5ZM83.8,99.5l0.6,0.6,1.7-1-1-.9Zm80.3,49.6,1.6,2.2,0.2-.2-1.5-1.9h-0.3ZM56.3,62.9c-0.3-.4-0.2-0.1,0-0.1h0.9l-0.4-1.6ZM138.2,114l1.3,2.1h0.2l-0.5-1.7Zm51.1,92.3-0.4.2,1.5,2.3,0.3-.2Zm-48.3-84.8-0.3.3,1.5,1.8,0.3-.3ZM58.9,65.2H59V61.8H58.9v3.5Zm105,92.9h0.4l-0.7-1.8-0.4.2ZM58.5,58.8H58.3V61h0.2V58.8Zm43.7,34.8,0.2-.4-1-.5-0.3.4ZM232.8,28v0.4l1.6,0.4V28.5ZM46,92h0.2l1.5-2.5H47.5Zm55.5,1.2-1.3-.6-0.5.3,0.8,0.6A3.3,3.3,0,0,0,101.5,93.3ZM91.4,95.2l-0.4.2,0.6,1.3H92Zm28,3.1h0.3l-0.5-1.7h-0.4ZM37.7,85l-0.3-.2-1,1.9h0.2Zm49.4,8H86.7l-0.3,1.4h0.4ZM43,76.7l0.4,0.2,0.7-1.4H43.8ZM97.6,93.8h0.4a6.6,6.6,0,0,0-.1-0.9H97.3Zm-55.6-16-0.4-.4-0.9,1L41,78.8ZM106.6,23v0.3l1.2-.6V22.4ZM64.5,49.2l0.5-.5-1-.4-0.3.2Zm74.6,64.8,0.2-.2-0.9-1.1-0.2.2ZM104.9,23.5v0.3l1.3-.4V23.1ZM43.5,95.7h0.2l0.9-1.3-0.3-.2ZM230.4,26.4v0.3l1.1,0.3V26.7ZM99.2,93.9V93.6l-0.7-.4a1,1,0,0,0-.1.5Zm91,116.9-0.3.2,0.6,0.8,0.2-.2Zm-25.8-56,0.2-.2-0.8-1.1-0.2.2ZM135.3,112h0.3l-0.4-1.1h-0.3ZM34.9,109.7l-0.5-.2-0.4.4,0.3,0.3ZM235.7,28.8l-0.2.2,0.9,0.6V29.4Z" transform="translate(-22.4 -18.8)"/><path d="M76.3,168.1l-0.5-.7a2.9,2.9,0,0,1,1.2-.6l3.4,0.5a2.3,2.3,0,0,0,1-.8l6.5-5.6a1.9,1.9,0,0,1,1,.1l-0.6.6c-2,1.9-4,3.7-5.9,5.7-0.1.2,1,1.8,1.8,2.5s2.6,3.2.6,5.3-5.7,4.9-8.4,7.5-4.8,4.1-6.4,6.6-4.6,8.6-7.2,12.6-4.5,5.6-6.8,8.3-2.1,3.1-3.6,3.9-4,5-7.6,5.6c-1.7.3-3.1,2.2-4.7,3.3a3.7,3.7,0,0,1-1.5.2l-1.8.2H36.1a6.7,6.7,0,0,0-.2-1.1c-0.3-.6-0.6-1.5-1-1.7-4.1-1.1-5.9-4.5-8.1-7.6a23.6,23.6,0,0,0-3.8-4c-1-.9-0.8-3.8.7-5.1l7.6-6.7c1-.9,1.7-2.1,2.7-2.9s2-.7,3-1.3,2.9-2,4.5-2.9l12.2-6.4c3.7-1.9,7.7-3.3,11.1-5.7s7.6-6.5,11.3-9.8Zm0,0.5v0.4h1.1l-0.9.8-7.6,5.6c-2.9,2.2-5.1,5.5-8.9,6.7-1.4.4-2.5,1.5-3.9,2s-3,.5-4.3,1.2c-3.7,2-7.4,4-11,6.4s-5.8,4.3-8.7,6.5a55.5,55.5,0,0,0-5.2,4.4,46.2,46.2,0,0,0-3.7,4.6,0.6,0.6,0,0,0,.1.6,0.7,0.7,0,0,0,.6,0c2.3-1.6,4.6-3.1,6.8-4.9s2.8-2.9,4.5-4.1a84.8,84.8,0,0,1,8.6-5.5c4.3-2.3,8.6-4.5,13.7-4.4,1.2,0,2.8-.1,3.5.5s1.4,4.1.5,6.2-1.5,2.8-2.2,4.3A28,28,0,0,1,51,210.4c-2,1.6-3.8,3.5-5.9,5s-4.7,2.9-7,4.5c-0.4.3-.3,1.4-0.2,2a1.4,1.4,0,0,0,1.2.4,7.8,7.8,0,0,0,2.5-1.3c1.7-1.4,3.2-3.1,4.9-4.5l6.9-5.6c0.3-.2.5-0.6,0.8-0.9s3.3-2.1,4.2-3.6c2.3-3.7,4.2-7.7,6.4-11.6s3.7-6.5,6.8-9.1,6.9-6.8,10.3-10.2a1.5,1.5,0,0,1,.7-0.2,2.4,2.4,0,0,1-.2.6l-0.7,1,0.6,0.4c0.9-1.5,2.2-2.9,2.7-4.5s-0.9-2.1-1.7-2.9a14.3,14.3,0,0,0-2.9-1.8l-2-1.1,0.9,1.7a4.2,4.2,0,0,1,.2.8l-0.6-.4ZM36.4,198.4l-2.7,2.9-1.3,1.6,2.1,1.2c1.7,1.1,3.8,2,4.8,3.6s2.2,4.9,3.3,7.4a0.6,0.6,0,0,0,.6.2,72,72,0,0,0,7.3-5.7,43.7,43.7,0,0,0,7.2-8.5c1.6-2.7,2.2-6.1,3-9.2a2.3,2.3,0,0,0-1-1.9,48,48,0,0,0-7.9.5,12.6,12.6,0,0,0-4.4,2c-3.3,2.1-6.5,4.3-9.7,6.5a6.2,6.2,0,0,0-1,1.1Zm4,14.1H40.1c-0.3.7-.6,1.4-0.9,2a4.2,4.2,0,0,1-.7.8,6.2,6.2,0,0,1-.1-1c0.1-.7.2-1.4,0.3-2.5l-0.6.7-1,.7a3.9,3.9,0,0,1-.2-1c0.1-1,.3-2,0.4-3a1.3,1.3,0,0,0-.1-0.5l-0.3.4c-0.3.8-.6,1.7-1,2.6a1.7,1.7,0,0,1-.7.5,4.6,4.6,0,0,1,0-.6L36,207a6.9,6.9,0,0,0-1.5,2.5,4.9,4.9,0,0,1-.9,1.1,4.1,4.1,0,0,1-.2-1.2c0.2-1,.4-2,0.6-2.9a14.1,14.1,0,0,0-1.6,2.8,1.5,1.5,0,0,1-.7.4,2.5,2.5,0,0,1-.2-0.8,9.7,9.7,0,0,1,.2-1.3l-1.4.9v-2.1H30.2l-0.3,1.5a2.4,2.4,0,0,1-.6-0.9,7.7,7.7,0,0,1,.2-1.7l-1,.7a30.3,30.3,0,0,0-3,3.3c-0.2.3,0.5,1.2,0.8,1.8h0.3l0.4-.5,0.4,0.6a27,27,0,0,0,2.2,3.6,32.5,32.5,0,0,0,4,4.1c0.7,0.6,2.3,1.5,2.7,1.2s4.1-2.1,3.7-5.1A7.1,7.1,0,0,1,40.4,212.5ZM37.9,211c1.2-1.3,1.9-1.1,1.6,1.5,0.5-1,.9-1.6.8-1.8a26.4,26.4,0,0,0-1.9-2.8l-0.3.2C38.1,209.1,38,210,37.9,211Zm3.4,3.1H40.6v2.7a3.5,3.5,0,0,0,1.1-.4A19.6,19.6,0,0,0,41.3,214.1Zm-8.8-7.5h0.4l1-2.1-0.7-.4Zm4.7,0.1H36.5l-0.2,1.8h0.4Zm24.2-13.5H61.2l-0.4,2.3h0.3ZM31,217.1l1.5,1.9,0.3-.3ZM31.3,205h0.3l0.6-1.2H31.9Zm3.4,1.7H35l0.4-1.1H35.1Z" transform="translate(-22.4 -18.8)"/><path d="M93.7,164l0.9,0.5a1.5,1.5,0,0,1-.4.9c-0.5.4-1.2,0.5-1.7,0.9l-5.2,4.5a1.7,1.7,0,0,1-.7.2,1.5,1.5,0,0,1,.1-0.7l6.1-5.9Z" transform="translate(-22.4 -18.8)"/><path d="M66.7,47.9l0.8-1.4h0.2L67,48.1Z" transform="translate(-22.4 -18.8)"/><path d="M200.6,52.5l-2,3.5a1.8,1.8,0,0,1-.8.4c0-.3.1-0.6,0.1-0.8a2.4,2.4,0,0,0,0-1.4L196.5,57l-1.3,2.4a1.4,1.4,0,0,1-.6.3,1.2,1.2,0,0,1-.1-0.6,6.8,6.8,0,0,0,.6-2.4,38.1,38.1,0,0,0-1.9,3.8c-0.4,1.2-.9,1.3-1.9.7a1.9,1.9,0,0,0-1.3.4l-1.6,1.1-0.5.2-1.1.6,1-1.6,3.6-5a1.5,1.5,0,0,1,.9.2,2.1,2.1,0,0,1,0,.7h0.3l3-3.3a3.2,3.2,0,0,1,1.3-.4,1.4,1.4,0,0,0,.7-0.3c1.3-2.2,3.6-3,5.6-4.2a18.4,18.4,0,0,1,3.4-1.8,27.6,27.6,0,0,1,3.8-.7,11.6,11.6,0,0,0,1.8-.8c-1.2,1.1-1.8,1.7-2.6,2.3a19.7,19.7,0,0,1-2.7,1.5,2.1,2.1,0,0,1-1-.1l-0.3-.2L204,51.4l-0.7.7-0.3-1.2-1.7,2.8a4.6,4.6,0,0,1-.8.7c0-.4,0-0.9.1-1.3a1.7,1.7,0,0,1,.2-0.5h-0.2Zm-5.2,5h0.2l1-1.9h-0.2Z" transform="translate(-22.4 -18.8)"/><path d="M211.9,52.9l-6.4,5.9c-2.8,2.5-5.5,4.9-8.3,7.3s-3.5,2.5-5.3,3.7l-1.4.9a12.9,12.9,0,0,1,1.2-1.4l14-11.9,4.3-3.5A9.8,9.8,0,0,1,211.9,52.9Z" transform="translate(-22.4 -18.8)"/><path d="M178.9,82.4l0.6-1.2h0.3l-0.6,1.1h-0.2Z" transform="translate(-22.4 -18.8)"/><path d="M140.6,94.8l3.7,3.9a14.2,14.2,0,0,1,1.7,1.2c0.9,1.3,1.6,2.8,2.6,4.1a11.8,11.8,0,0,0,2,1.9l5.9,5a13.3,13.3,0,0,1,1.5,1.7,3,3,0,0,1,.3.8,2.9,2.9,0,0,1-1.1.1,17.2,17.2,0,0,1-4-1.7l4.1,1.5,0.2-.5-8.1-5.2h0.9a21.9,21.9,0,0,0-1.9-2.9,20.5,20.5,0,0,0-2.5-1.9,9.6,9.6,0,0,1-1-1.1h0.2l1.4,1.1,0.9,0.6,0.2-.2-0.7-.8-6.2-5.3a5.1,5.1,0,0,1-.8-1.6Zm10.8,13-0.2.3,3.5,2.2,0.2-.4Zm-9.5-10.8,0.2-.2-0.5-.6-0.2.2Z" transform="translate(-22.4 -18.8)"/><path d="M131,91.4l1.8,0.4-1.5-2.3,1.3,1.3a8.9,8.9,0,0,0,3.2,2.1l-0.6-1,0.2-.2,2.8,2.6,0.2-.2-0.6-1.1h-0.2l0.2,0.5-0.5-.3-0.7-1.8,3.3,2.9a2.1,2.1,0,0,1-.6.6Z" transform="translate(-22.4 -18.8)"/><path d="M149.9,109.4l1.5,1.1v0.2l-1.5-1.1v-0.2Z" transform="translate(-22.4 -18.8)"/><path d="M152.5,113.8l0.9,0.8-0.2.2Z" transform="translate(-22.4 -18.8)"/><path d="M152.8,111.6l-1-.5v-0.3l1,0.6v0.2Z" transform="translate(-22.4 -18.8)"/><path d="M33.2,95.6l0.9,8.7v-1.4h0.4a22.6,22.6,0,0,1-.1,3.6c-0.1.5-.9,0.9-1.3,1.3a12.7,12.7,0,0,1-.5-1.6,10.7,10.7,0,0,1-.2-2.6l0.6,3.1h0.3L32.8,95.7h0.4Z" transform="translate(-22.4 -18.8)"/><path d="M51.7,72.3l-0.3,1.1H51.2l0.7-4.7h0.3a1.5,1.5,0,0,1,.4.7c-0.1,1.6-.4,3.3-0.5,4.9s-0.2,4-.3,6a3.3,3.3,0,0,1-.4,1,3.7,3.7,0,0,1-.2-1C51.3,77.7,51.5,75.3,51.7,72.3Z" transform="translate(-22.4 -18.8)"/><path d="M55.2,73.3c-0.3,1.9-.5,3.3-0.7,4.8a1.4,1.4,0,0,1-.4.5,1.2,1.2,0,0,1-.2-0.5c0.2-2.6.5-5.1,0.8-7.6s0.3-2.3.5-3.6l-1.2.5,0.9-1a2.8,2.8,0,0,1,.5,1.2c-0.3,2.5-.7,5-1.1,8Z" transform="translate(-22.4 -18.8)"/><path d="M42.9,92.6V85.4h0.2v1.7h0.2l0.2-1h0.2l-0.3,6.4H42.9Z" transform="translate(-22.4 -18.8)"/><path d="M47.5,81.5V73.3h0.2l0.4,2.3L48.6,72h0.2l-1.3,9.5h0Z" transform="translate(-22.4 -18.8)"/><path d="M50,77.7l0.2,1.4L51,74.4c-0.3,2.8-.5,5.2-0.7,7.5a0.9,0.9,0,0,1-.3.3,1.3,1.3,0,0,1-.3-0.5c0-1.3,0-2.6,0-3.9H50Z" transform="translate(-22.4 -18.8)"/><path d="M40.7,90.7l0.2,2.9,0.3-1.7c0,0.9,0,1.7,0,2.4a0.9,0.9,0,0,1-.3.3l-0.2-.2c-0.1-1.2-.2-2.5-0.3-3.7h0.3Z" transform="translate(-22.4 -18.8)"/><path d="M40.5,83l0.3,3.3H40.6L40.1,83h0.4Z" transform="translate(-22.4 -18.8)"/><path d="M35.4,93.7v1.4H35.4V93.7h0.1Z" transform="translate(-22.4 -18.8)"/><path d="M81.2,43.2l0.9-3.6,0.8,0.4-1.4,8.2a1,1,0,0,1-.3.4,1.4,1.4,0,0,1-.2-0.6c0.2-1.6.4-3.3,0.7-5H81.2Z" transform="translate(-22.4 -18.8)"/><path d="M75.8,49.2v3.3h0.4l0.4-2.3h0.1l-0.4,4.7a2.1,2.1,0,0,1,0,.4l-0.4,1.2a3.1,3.1,0,0,1-.4-1c0.1-2.1.2-4.1,0.3-6.2h0Z" transform="translate(-22.4 -18.8)"/><path d="M79.8,46.9v1.6l0.8-1.7h0l-0.9,5.4H78.9l0.9-5.2h0Z" transform="translate(-22.4 -18.8)"/><path d="M77.4,55l0.4-4.3H78l0.8-3.5h0.1L77.7,55H77.4Z" transform="translate(-22.4 -18.8)"/><path d="M79.8,46.9c0-.6-0.1-1.1-0.1-1.7s0-2.5,0-3.7h0.7l-0.6,5.4h0Z" transform="translate(-22.4 -18.8)"/><path d="M83,46.2l1.1-4.5h0.3l-1.1,4.5H83Z" transform="translate(-22.4 -18.8)"/><path d="M86.4,35.5l-0.9,3.3H85.2l1.2-3.2h0Z" transform="translate(-22.4 -18.8)"/><path d="M81.2,43.2l-0.7,3.6h0l0.7-3.6h0Z" transform="translate(-22.4 -18.8)"/><path d="M75.1,52.8V55H75V52.8h0.1Z" transform="translate(-22.4 -18.8)"/><path d="M79.4,44.8l-0.2,1.1H79l0.2-1.1h0.3Z" transform="translate(-22.4 -18.8)"/></svg>