<svg id="playstructure_ptwood_Image" data-name="playstructure(ptwood) Image" xmlns="http://www.w3.org/2000/svg" viewBox="0 0 376.4 269.7"><title>playstructure(ptwood)</title><path d="M214.2,160.4l-8.5-2c-1.3-.4-2.6-1-3.9-1.4a2.5,2.5,0,0,0-1.8,0l2.3,1.3v0.2l-8-2.7,1,1-4.3,2.6-0.3-.5,1.9-1.4c-1.6-1.5-6.2-1.6-7.8-.4-3.8,2.7-7.8,5.2-11.5,8s-7.6,5.9-11.4,8.9a3.8,3.8,0,0,1-1,.4,2.4,2.4,0,0,1,.2-1,17.5,17.5,0,0,1,2.6-2.5l14.3-9.9,7-5.1-8.2-1.4a3.6,3.6,0,0,1-.6,1.2l-5.1,3.3-0.6.4-1.2.7a6.4,6.4,0,0,1,1.3-1.6c1.5-1,3.2-1.8,4.8-2.7v-0.8a39.2,39.2,0,0,0-6.3-.8,28.9,28.9,0,0,0-5.5,1.2l1.9-1.6c-1.8-.5-3.3-0.8-4.7-1.3s-2.6.6-3.7,1.6a28.1,28.1,0,0,1-4,2.6c-0.7.5-1.3,1.2-2,1.7a1.5,1.5,0,0,1-.8.5c-2.3,0-3.6,1.4-4.9,3s-1.7.9-2.5,1.5l-8.1,6.4a14,14,0,0,1-1.7,1c-0.2-2.1,2-2.1,3.2-3l0.9-.9h0l1.8-1.5-0.3-.4,17.8-12v-0.6c-2.2,0-4.6-.4-6.7.1a17.4,17.4,0,0,0-5.3,2.7q-6,3.8-11.8,7.9c-1.7,1.2-3.2,2.9-4.9,4s-1.2,3.3-1.2,5c-0.2,5.3-.1,10.6-0.2,15.8,0,1.1-.7,2.1-1.2,3.7,0-2.7,0-4.9,0-7s-0.1-2-.1-3.1c0.1-3.7.3-7.4,0.3-11.2a0.9,0.9,0,0,0-.4-0.7c0.1-3.6.4-6.8,0.4-10s-0.6-6.4-.5-9.7,0.5-7.2.6-10.8,0-5.9,0-8.8,0.3-7.9.5-11.9c0.1-1.7.3-3.4,0.3-5.1a4.2,4.2,0,0,0-.5-1.7,18.4,18.4,0,0,0,.7-3.3c0-3.6-.2-7.2-0.3-10.8s0-6.4.1-9.6c0.2-4.7.4-9.5,0.6-14.2l0.3-.5,0.4,1.1h0.4c0-.9,0-1.8,0-2.6a7.4,7.4,0,0,1,.3-1.5h0.5c0,0.4,0,.8,0,1.2,0,4.6,0,9.3-.1,13.9,0,1.7-.6,3.3-0.6,4.9-0.1,4.8-.1,9.7-0.1,14.5a0.8,0.8,0,1,1-.1-0.2l4.5-.4,13.3-.4V103l-16.1-.7v-0.7a10.6,10.6,0,0,1,2.4-.5c1.9,0,3.7.3,5.6,0.3l16.3-.3a13.8,13.8,0,0,1,4.8.5,24.9,24.9,0,0,0,2.9.3c0.9,0,1.8-.3,2.7-0.4h1.9a7.8,7.8,0,0,1,1.5.5,2.1,2.1,0,0,0,.8.3,0.9,0.9,0,0,0,.4-0.6c0.5-5.5,1.1-11,1.5-16.6,0.3-3.9.5-7.7,0.7-11.6s0.3-5.1.3-7.7a1.8,1.8,0,0,0-1.4-1.1c-4.2.3-8.4,1-12.6,1.1s-5.7-.6-8.5-0.9a40.5,40.5,0,0,0-6.9-.3c-1.8.1-3.5,1.1-5.2,1.4a15.7,15.7,0,0,1-3.8-.3L133,64c1.1,1.2,1.6.5,2.7-.1s3.4-.7,5.1-0.7a35.7,35.7,0,0,1,8,.6c5.5,1.3,10.8.5,16.3-.2,3.7-.5,7.5-0.5,11.2-0.7l-3.6-5L160,40.2l-3.9-5.4a39.2,39.2,0,0,0-2.7-3.7,2,2,0,0,0-1.9.4c-2,2.7-3.9,5.4-5.6,8.3-4.3,6.9-8.5,13.8-12.7,20.8l-2.1,3.5c-0.9,1.3-1.8,2.6-2.6,4s-3,4.5-3.8,7a21.3,21.3,0,0,0-.9,7.1c0.1,4.5.6,8.9,0.7,13.4,0,2.1-.6,4.2-0.7,6.3s-0.3,7.2-.4,10.8a4,4,0,0,1-.5,1.2,3.3,3.3,0,0,1-.5-1.1q0.1-4.7.2-9.3c0.1-2.5.3-5,.3-7.5,0-7,0-14.1,0-21.1,0-1.8-1.3-1.3-2.1-1.2a1.9,1.9,0,0,0-1.3,1.3q-0.4,8.2-.5,16.3a11.3,11.3,0,0,0,.8,2.9l-1.4-1.3-0.2,2.5h0.5l0.6,7.5H119L117,140.8h-0.8a12.7,12.7,0,0,1-.4-2.6q0.5-8.8,1.2-17.5c0.2-2.6.4-5.1,0.8-7.6s-0.5-1.9-1.9-1.8l-9.1.7a1.4,1.4,0,0,1-1.1-.6,10.3,10.3,0,0,1,2.3-.7c2.6-.2,5.2-0.4,7.9-0.4s2.2-.5,2.2-2.2-0.6-2.8-3.2-2.5a75.8,75.8,0,0,1-8.8.4,2.1,2.1,0,0,1-.9-0.5,2.3,2.3,0,0,1,.9-0.6l10.5-.5a0.9,0.9,0,0,0,.8-0.4c-4.1-1.1-8.5-.3-12.7-0.9v-0.6l2.5-.3c3-.1,6,0,9-0.3a2.1,2.1,0,0,0,1.3-1.6c0.1-4.3.1-8.6,0-12.9s-0.3-9.7-.5-14.6a1.3,1.3,0,0,0-.9-0.9h-6.2a26.2,26.2,0,0,0-3.6.3,1.5,1.5,0,0,0-.8,1,25.6,25.6,0,0,0-.4,2.9c-0.2,1.8-.5,3.7-0.7,5.6-0.3,4.6-.5,9.3-0.8,13.9s-0.6,10-.7,15c-0.1,3.4.1,6.7,0.2,10.1a1.4,1.4,0,0,1-.4,1c-1.8,0-1.2,1.1-1,2s-0.1,1.4.1,2a16.5,16.5,0,0,0,.9,2.3,1.7,1.7,0,0,1,.2.7c-0.1,1.4-.3,2.7-0.5,3.7a2.7,2.7,0,0,1,.7,1.1c-0.2,1.1-.5,2.2-0.7,3.4a10.4,10.4,0,0,0,.1,1.6c0,2.7-.1,5.4,0,8,0,0.7.4,1.9,0.9,2s3.6,0.6,5.3,1l5.9,1.3-0.2,1-11.5-1.8v0.8l-2.9-3.2,0.3,1.5a5.4,5.4,0,0,1,.3,1.7,1.6,1.6,0,0,1-1,.5,3.7,3.7,0,0,1-.9-1.6,26.6,26.6,0,0,1-.3-3.2l-0.7-.2L96.6,151H96.2a7,7,0,0,1-.3-1.6c0.3-6.3.7-12.6,0.9-18.9,0.1-1.7-.6-3.4-0.8-5.1a8.6,8.6,0,0,1,.4-2.1l0.5,1.3h0.3a36.7,36.7,0,0,1-.2-4.6c0.5-7.6,1.3-15.1,1.7-22.7S99,81.4,99,73.3a1.6,1.6,0,0,0-1.2-.9,34.3,34.3,0,0,0-3.8.5c0.2,4,.5,7.8.6,11.7s-0.3,5.7-.5,8.5-0.2,7.7-.4,11.6-0.6,5.1-.6,7.7,0.4,8,.5,11.9-0.4,6.6-.5,9.8,0.1,7.2.2,10.9c0.1,1.8.3,3.5,0.3,5.3a2.5,2.5,0,0,1-.6,1,3.1,3.1,0,0,1-.6-0.9,5.4,5.4,0,0,0-.5-2,11.6,11.6,0,0,0-.2,1.7c0.1,1.9-1.1,2.9-2.9,3.2s-1.9,1.2-2.9,1.9a1.4,1.4,0,0,1-1.3.4l2.2-1.7c1.2-.8,2.4-1.2,2-3.3s0.8-3.2,1.2-4.8a2.5,2.5,0,0,1,.8-1.3l-0.3,2h0.3l1-3.5H91.4l-0.5.8c0.3-2.5.8-5,.9-7.5,0.2-6.4.3-12.8,0.3-19.2,0-2.8-.3-2.8-2.9-1.5L76,122.2c-2.3,1.2-4.6,2.5-6.9,3.8l-2.3,1.1,2.7,0.2L64.7,129l-2.1.5,1.8-1.9,1.5-1.8c-1.8,0-4.2,2.6-4.3,4.2s-0.3,4.9-.5,7.4-0.5,7.7-.6,11.6c-0.1,5.6,0,11.2,0,16.8l0.8,0.2,2.3-1.5,12.9-6.8H77c1.7-2,3.7-2.2,6-1.1a1.6,1.6,0,0,1,1,.4l-3.5,1.4-4.7,2.5L72,162.9c-2.3,1.3-4.8,2.5-7,4s-3.9.8-3.7,3.5l-0.8.3c0-1.1-2-1.1-1.2-3s0.7-4.5.7-6.8c0-3.8-.4-7.7-0.3-11.5,0.1-7.8.5-15.6,0.7-23.4,0.1-2.9-.3-5.8-0.3-8.7s0.2-8.7.3-13.1,0-7.1,0-10.6,0-8.8,0-13.2a14.9,14.9,0,0,0-.1-2.5,3.4,3.4,0,0,0-.7-1.1,8.8,8.8,0,0,0-1.4,1.1c1.4,2.5-.9,4.8-0.4,7.1a4.8,4.8,0,0,0,.8,1.3,2,2,0,0,1,.4.9q-0.4,9.9-.8,19.9c-0.1,1.7-.2,3.4-0.2,5.1H57.2c0-3.4,0-6.8,0-10.2s0-4.6-.1-6.9-0.2-3-.4-4.5l0.9,0.2,0.2-.7-1.3-.2c-0.5-3.1-1.2-6.2-1.4-9.4-0.1-1.1.9-2.2,1.4-3.4H49.5a2.5,2.5,0,0,0-1.6.5,9,9,0,0,0,.2,2.2c0,1.3,0,2.2,0,3-0.1,4.9-.5,9.8-0.4,14.7s0.7,10.1.9,15.2,0.1,8.5.2,12.8c0.2,6.7.6,13.4,0.7,20.2s0,11.5,0,17.3c0,1.8.2,3.6,0.3,5.4s-0.5,5,.1,7.3-1.8,4.3-2.9,6.3c-3.2,5.5-6.6,10.9-10,16.4-0.7,1.2-1.8,2.1-2.4,3.4s-2.7,4.5-2.9,6.8c-0.3,4.3-3.9,6.5-5.3,9.9a33,33,0,0,1-3.1,5.5c-1.3,1.9-2.8,3.5-4.1,5.3s-2,3.1-3.4,5.3c3.2-.1,5.6-0.2,8-0.4a1.8,1.8,0,0,0,1.1-1.4c0-2.7-.2-5.3-0.1-8a12.4,12.4,0,0,1,.9-2.9l0.8,1.5c3-1,6.7-4.3,6.5-8.5-0.1-1.1.9-2.6,1.8-3.5s4.4-3.7,6.3-5.8a7.7,7.7,0,0,0,1.6-3.9c0.3-2.1.3-4.4,0.4-6.5a3,3,0,0,1,.3-0.9l0.6,0.5,1.5-1.6a46.1,46.1,0,0,0,4.9-5.8,7.8,7.8,0,0,0,1.2-5.1c-0.6-2.8,1.7-4.2,2.5-6.3A5.6,5.6,0,0,0,54,177a2.6,2.6,0,0,0,.3,1.5,2.2,2.2,0,0,0,1.9.1c1.9-1.9,3.7-1.9,5.2-.1a3.4,3.4,0,0,1,1.4-.5l12.7,4a1.7,1.7,0,0,0,1.6-.7l-5.6-2,1-.2,10,1.4c2.1,0.4,4.2,1.2,6.3,1.4,4.1,0.5,8.3.8,12.4,1.1,0.5,0,1-.5,2.1-1-5.7-1.5-10.3-4.1-15.8-3.9-2.3.1-4.6-1-7-1.5a8.5,8.5,0,0,0-3.6,0l3.2,1.3-0.2.4a64.7,64.7,0,0,0-7.3-2.4c-2.2-.5-4.7-1-6.8-0.3s-5-.1-7.3-1.4a21.4,21.4,0,0,0-3-1.1,12.7,12.7,0,0,0,.7-2.3c0.2-3.4.4-6.8,0.5-10.2a18,18,0,0,1,.2-4.3l1-1.8c0,4,0,7.6,0,11.2a14.4,14.4,0,0,0,.5,4.9c0.3,0.8,2,1.4,3,1.4a39.4,39.4,0,0,0,6.1-1l-1.1,1.4a5.5,5.5,0,0,1,1.4.1l2.4,1.1,2.9,1.3-1.9-2.5,4.1,2.1,0.3-.5-0.7-.5,14.2-8.9c1.1-.7,2.1-1.7,3.2-2.3,2.7-1.4,5.6-2.6,8.2-4.1s6.1-3.8,9.2-5.7l1.4-.8,0.2,1.3-25.3,15v0.2l-2.1,1.1v2.1l-0.8-1.7-6.5,5,4.8,0.9,0.3-.4-1.8-.8,0.4-.7c2.2,0.5,4.2,3.4,6.8,1l-0.9,1.1,24.2,6.7h0l-1.7-.6a4.3,4.3,0,0,1-1.7-.9,3.1,3.1,0,0,1,1.4-.3c1.5,0.5,2.9,1.3,4.3,1.8a9.5,9.5,0,0,0,2.5.1v-1.9l0.6-8-4.6,3.8-4.4,3.7a2.2,2.2,0,0,1-1,.1,2.4,2.4,0,0,1,.4-0.9l8.2-6.5c1.7-1.3,1.7-2.6.6-4.4s0.4-1.8.7-3.1c1.8,2.3.8,4.8,0.8,7s-0.2,6-.2,9c0,0.7.5,1.3,0.4,1.9s-0.5,2.7-.6,4.1-0.3,5-.4,7.5,0,4.5-.1,6.8a6.2,6.2,0,0,1-.8,2.8v-10l-0.5-.2c-0.3,1.1-.6,2.2-1.1,3.3a20.2,20.2,0,0,1-1.3,2.8l-5.6,9.6c-1.4,2.4-2.7,4.8-4.2,7.2-2.7,4.2-5.9,8.2-8.3,12.5a146.7,146.7,0,0,0-6.4,13.7,8,8,0,0,1-6.8,4.3,46.5,46.5,0,0,0-6.2.8,1.2,1.2,0,0,1-.8-0.1,2.3,2.3,0,0,1-.2-0.8,1.7,1.7,0,0,0-.4-1l-13.6-3.5h-1l1.8,0.6v0.4l-31.8-9.2v0.3l1.5,0.8v0.5a7.7,7.7,0,0,1-2.4-.4,10.8,10.8,0,0,0-8.3-1,10.5,10.5,0,0,1-3.8-.1,1.2,1.2,0,0,1-.3-1c2.4-4.4,4.9-8.8,7.2-13.2,1-1.8,1.5-3.9,2.4-5.7s2.4-3.9,3.6-5.9c3.7-6,7.5-12.1,11.1-18.1q4.1-6.9,7.9-13.9a8,8,0,0,0,.8-3.4c0.1-2.4,0-4.8,0-7.4l0.5,0.9c-1.8-8-1.4-16-1.3-24l0.8,1.1v-2l-0.8,1c0.3-3.4.7-6.8,0.8-10.1,0.1-5.5-.1-11.1-0.3-16.6-0.2-7.5-.5-15-0.7-22.6-0.1-5.5.1-10.9,0.1-16.4a1.5,1.5,0,0,0-1-1c-1.4-.1-2.8,0-4.8,0l1.8-1.4V75.4L39.5,77a2.6,2.6,0,0,1-.1-1.3c0.5-.9,1-2.2,1.8-2.5s2.6-1,2.4-3a3.3,3.3,0,0,1,1-1.9c1.6-2.1,3.4-4.1,5-6.2,3-4.1,5.7-8.4,8.9-12.3s6.8-7.3,10.1-11c1.3-1.5,2.4-3.3,3.6-4.8a21.2,21.2,0,0,1,2.4-2.2h0l0.3,0.3,0.8-1.3c0.6-.9,1.1-2.6,1.9-2.7,3.3-.5,6.7-0.5,10-0.7,4.9-.2,9.8-0.3,14.6-0.6,2.8-.2,5.6-0.9,8.4-1.3l10.2-1a1.7,1.7,0,0,1,.7.3l-1.2,1,3.2-.4-0.8-1.4,18.6-1.5V23h-1.4a5.3,5.3,0,0,0,1.5.7l4-.2,7.3-.3a3.3,3.3,0,0,1,1.1,1.1,7.3,7.3,0,0,1,1.7-.3,14.8,14.8,0,0,1,2.7.7l-1.2.5c-2.9.8-3.7,2.6-2.1,5.1s4.2,6.6,6.5,9.9,4.2,5.8,6.2,8.7l5.7,8.1c1.5,2.1,2.8,4.4,4.7,6.1s2.4,3.2,4.7,2.1c-2.9-4.4-5.7-8.8-8.6-13.1S166.7,41.5,163,36.1L158,28.7a8.4,8.4,0,0,1-.6-1.7h0a7.3,7.3,0,0,1,1.9,1.4l13.6,19.8,11.4,16.3,1.8,2.4a0.9,0.9,0,0,1,0,.8,1.4,1.4,0,0,1-1,.2l-4.5-.9,0.9,2-1.9,1-0.2-1.3h-0.3c0,1.2,0,2.5,0,3.7-0.1,6.5-.3,13.1-0.5,19.6a58.5,58.5,0,0,1-.5,6.2c-0.3,2.3.7,3.1,2.9,3.1l14.6,0.3c4.5,0.2,9.1.5,13.6,0.9l8.9,0.9,12.7,1,1.1,0.4h-5.6l-6.3-.4c-3.7-.3-7.4-0.8-11.2-1.1s-5.8-.1-8.7-0.3c-0.7,0-1.8-.9-2.2-0.6-1.9,1.4-3.8.2-5.7,0.2-4.7,0-9.4,0-14.2.4,1.3,0.2,2.7.6,4,.7l20.9,1.5,9.7,0.7,13.9,0.9,13.5,1.1c2.4,0.2,4.7.8,7,1.1a10.3,10.3,0,0,0,2.6-.4c-2.2-3.5-5-1.8-7.5-1.5h-0.1l-8.8-1.4a2.1,2.1,0,0,1-.7-0.8,2.9,2.9,0,0,1,1.1-.4l13.5,1.3,4.1,0.3h0.8l2.3,0.9c0.3-1.2.7-2.4,0.9-3.7,0.5-3.3,1-6.7,1.5-10,0.1-1,.2-1.9.3-2.9a9.1,9.1,0,0,0,.5-1.8,7.7,7.7,0,0,0-.2-2.5,2,2,0,0,0-1.2-.8l-1.6-.3-3.4-1.5,0.7-2.6c-0.6-.8-0.1-1.1,1.2-1.8s2.6-2.5,3.8-3.8L267.5,64c4.7-4.9,9.4-9.9,14.1-14.7s7.2-6.9,10.7-10.5,6.2-6.7,9.3-10.1a30.9,30.9,0,0,1,2.6-2.2l-1.4-.4V25.7l2.6-.3-0.2.2,1.8-.4c4.2-1.9,8.6-2.3,13.1-2.6l12.1-.8,7.5-.2c1.3,0,2.7.4,4,.4s3.1-.6,4.6-0.8a1.7,1.7,0,0,1,1.3.4l3.9,3.9a3.7,3.7,0,0,1,1.2,1.4l-1-.3a4,4,0,0,0,.8,1,1.7,1.7,0,0,0,.8-0.2c-0.4,3.4,3,4.3,4.6,6.4s5.2,5.3,7.5,8.1,4.4,6.1,6.7,9.1,5.8,7.1,8.7,10.7l1.2,1.3,0.7,0.8-0.9.7c2.1,1.3,5.6,1.2,7.1-.3l0.4,0.5c-0.6.5-1.2,1.3-1.8,1.4-5.8.4-10.7,4-16.2,5.1-2.8.6-3.1,2.4-3.2,4.9-0.6,7.9-1.5,15.7-2.2,23.6-0.3,2.7-.5,5.3-0.9,8s-1.5,5.6-1.9,8.4c-1.4,9.9-2.8,19.9-4,29.8-0.8,6.9-1.1,13.8-1.9,20.7s-2,13.4-2.9,20.1-1.9,15.8-2.8,23.7a14.5,14.5,0,0,1-.8,1.7,28.2,28.2,0,0,1-.9,3.6c-0.9,2-1.5,4.7-3.1,5.7s-1.3,2.3-1.7,3.6a0.9,0.9,0,0,1-.7.4,17.9,17.9,0,0,1-4.4.1c-0.6-.1-1.2-1.4-1.3-2.2a25.9,25.9,0,0,1,.4-4.1c0.3-3.5.5-7,1-10.4,0.7-5.5,1.7-11,2.5-16.5,0.2-1.2.4-2.4,0.6-3.6l-6,4.2c-2.3,1.7-4.6,3.3-6.7,5.1s-1.5,2.3-2.2,3.5l-0.8,1.2-1-1.1c-0.1,1-.2,2.1-0.4,3.2-1.2,8.5-2.3,17-3.5,25.5-0.6,3.9-1.4,7.8-1.9,11.7-0.3,2-.1,4.1-0.5,6.1s-1,1.4-1.5,2.1-2.1,2.8-3.3,4.1a5.8,5.8,0,0,1-2.2,1.3l-4.7,1.6h-0.1c-0.7-4.5.4-8.8,1-13.2s1.4-9.1,2.2-13.7,1.2-7.1,1.8-10.7,0.6-5,1-8.3L296.1,228v-0.5l-0.4-.2-1.7,3.5V231c-4.1,4-2.9,9.4-3.4,14.3s-0.8,10.1-1,15.1c-0.1,2.7,0,5.5,0,8.2a3.6,3.6,0,0,1-.4,1l-0.7-.5c-0.4,4.3-.7,8.6-1.4,12.9-0.3,1.7-1,3.4-3.4,3.7-0.9.1-1.6,1.8-2.4,2.7l-2.3,2.4-3.3-1.9-1,1.4-0.4-.2,0.6-2.3,0.6-.4a3.6,3.6,0,0,0,.8,1.3,2.7,2.7,0,0,0,4.2-2c0.5-6.5.7-13,1.4-19.5,0.4-3.5,1.5-6.9,2-10.4s1-8.8,1.4-13.2,0.6-10.6,1.3-15.9c1.2-9.5,2.7-19,4-28.5,0.2-1.3,0-2.6.2-3.9s-0.9-2.4.8-3.5,0.6-2.4.7-3.7c0.5-4.4,1-8.7,1.5-13.1,0.2-1.9.4-3.8,0.7-5.7,0.7-4.4,1.6-8.9,2.4-13.3a4,4,0,0,1,.7-1.2c-2.3-.9-3.8-0.2-4.1,2.1-1.2,8.5-2.5,17-3.6,25.5-0.1.6,0.6,1.3,0.9,2-3.9.5-1.7,4-2.4,6.2a34,34,0,0,0-.9,6.5,9,9,0,0,0,.2,2.1c-0.5,1.8-.9,3.4-1.3,5s-1.1,5.3-1.6,8c-0.2.9-.3,1.9-0.3,2.1-1.6-.4-3-0.9-4.4-1.1l-18.2-2.6a1.7,1.7,0,0,1,.7-0.5,28.5,28.5,0,0,1,3.7.3l16.9,2.8a1.2,1.2,0,0,0,1-.6,33.6,33.6,0,0,0,.6-4.1,1.1,1.1,0,0,0-.7-0.8c-2.2-.6-4.3-1.2-6.5-1.5l-21.3-3.4a42.3,42.3,0,0,1-4.2-1.1,3.9,3.9,0,0,1,2.3-.5l7,1c4.2,0.6,8.4,1.1,12.6,1.8s6.5,1.7,9.8,2.4a2.1,2.1,0,0,0,1.5-1.3c0.5-2.3.7-4.6,1-7l0.9-6.7L269,187.9v-0.7l1.2-.6c-2.7-1.9-4.8-2.1-6.6.8l1-1.6h-1.1l3.1-3.4,8.6-9.2a8.5,8.5,0,0,1,1.6-1.1l-1.2,1.8-0.9,1.4,0.6,0.4,2.9-3.3-1.4-.3a18.6,18.6,0,0,0,1.6-1.9,1.2,1.2,0,0,0-.1-1.1l-3.5-1.1,0.2,0.8-13.7-2.5v0.7l2.4,0.8c-2.1.9-3-.5-4.2-1.5a4.4,4.4,0,0,0-1-.5,4,4,0,0,0-.5,1c-0.2,1.6-.4,3.2-0.6,4.7l-0.4,3.7,3.3-2.1c-1.2,1.3-2.9,2.7-3.7,4.4s-0.8,4-1.2,6l0.6,0.3c4.3-4.2,8.5-8.5,13.9-11.2-2.9,2.8-5.9,5.5-8.8,8.3a38.3,38.3,0,0,0-6,7.1c-0.9,1.5-.5,3.8-0.7,6.2l7.6-6.7c0.2,0.9.7,1.6,0.5,1.8l-9.3,10.8-0.7-.8-4.2,5.2a5.7,5.7,0,0,1-1.2.8l0.5,0.5-2.6.7c4.6,0.8,8.8,1.6,13,2.5a20.1,20.1,0,0,1,3.9,1.8l-12.7-2.4-6-1.3c1,2.9-1.5,3-2.4,4.1a20.4,20.4,0,0,1-2.6,2.2l10.5,1.3c2.4,0.4,4.8.9,7.3,1.4h0c-1.4,1.3-2.9.4-4.4,0.2-3.7-.5-7.6-0.5-11.2-1.5a5.6,5.6,0,0,0-5.8,1.3c-2.8,2.4-5.8,4.5-8.5,6.9-0.7.7-.9,2-1.2,3.1a1.8,1.8,0,0,0,.9.5l7.2,0.5c4.2,0.3,8.5.7,12.7,1.2s7.4,1.2,11.2,1.7a61.4,61.4,0,0,0,8.3.8c4.9,0,9.8-.3,14.6-0.6a2.9,2.9,0,0,0,1.9-1.6c0.5-1.3.1-1.7-1.5-1.9-3.9-.3-7.8-1.1-11.6-1.6a27.7,27.7,0,0,0-3.5,0v-0.6l16.8,1.6a53.3,53.3,0,0,0,.8-5.6c0-.4-1.1-0.9-2.2-1.6,3.9,1.4,2.2-2,3.4-3.3,0,5.9-1.8,11.5-1.3,17.2a14.9,14.9,0,0,1-.1,2.6c-0.3,1.3-.9,2.6-1.1,4-0.6,5.4-1.1,10.9-1.7,16.4s-1.3,10.3-2,15.4-1,7.9-1.5,11.9c-0.2,1.4-.2,2.9-0.3,4.3h-0.7c0-1.7-.1-3.4,0-5,0.7-6.9,1.3-13.8,2.1-20.7,0.4-3.6,1.3-7.2,1.8-10.8s0.9-8.9,1.2-13.3a1.2,1.2,0,0,0-.8-0.8L262,235l-11.7-1.1c-1.3-.1-1.7.3-1.7,1.6-0.2,3.5-.3,7.1-0.8,10.6a18.3,18.3,0,0,1-2.2,5.9c0.3-2.7.5-5.4,0.8-8.1s0.8-5.9,1.2-8.8-0.8-1.6-1.8-1.5a1.8,1.8,0,0,0-.9,1.3c-0.6,4.7-1.2,9.4-1.7,14.1-0.3,2.7-.4,5.3-0.7,8.4l4.2-5.8,0.7,0.3a7.9,7.9,0,0,1-.6,2c-1.5,2.5-3.2,5-4.7,7.5a14.2,14.2,0,0,0-.8,3.3l-5.2-4c0-1.1,0-1.5,0-2s0.1-3.7.3-5.5c0.4-3.6,1-7.2,1.3-10.8a71.5,71.5,0,0,0,.3-7.4,1.9,1.9,0,0,0-1.1-1.4q-5.3-1.1-10.6-1.9a1.7,1.7,0,0,0-1.3,1c-0.3,2.5-.3,5.1-0.7,7.6s-0.9,3.4-1.1,5.1c-0.5,3.7-.7,7.3-1.1,11s-0.8,6.8-1.1,10.2,0.2,4.6-.2,6.8a40.8,40.8,0,0,1-2.3,6.5,31.3,31.3,0,0,1-1.9,4.7c-0.3.5-1.5,0.7-2.3,0.8s-2.5-1.3-3.7.3a2.3,2.3,0,0,1-.8-0.9c0.1-2.7.2-5.5,0.5-8.2q1.1-11.6,2.3-23.2t2.8-25.6c0.9-7.9,1.9-15.8,2.8-23.6,0.1-.9.1-1.7,0.1-2.5-6.6-1.4-13.2-2.5-19.7-2.5,1.5-1.9-.2-1.3-1.6-1.5-2.9-.4-5.8-1.5-8.7-1.9s-7-.7-10.5-1.1c-1.9-.2-3.7-0.6-5.6-0.6s-5.4.3-8.1,0.2a63.3,63.3,0,0,1-7.4-.7,52.4,52.4,0,0,1-6.2-1.3,7.7,7.7,0,0,1-1.9-1.2l0.3-.5c-5.8-.4-11.7-0.7-17.5-1.2a7.6,7.6,0,0,1-3.4-1.8l41.5,4.6V192l-1.5.2v0.3l5.5,0.8c1.5,0.2,3,1.2,4.4-.5s2.1,0.6,3.3.9l10.2,2.4a41.9,41.9,0,0,0,4.2,1,7,7,0,0,0,2.3-.6h0.7l5.2,0.8a3.5,3.5,0,0,0,1,.8l9.3,1.9,3.9,0.7a1.2,1.2,0,0,0,.8-0.8,1,1,0,0,0-.6-0.8c-4.5-1.2-9-2.6-13.6-3.5s-9.5-1.5-14.2-2.4c-1.5-.3-2.9-1.5-4.4-1.7-3.2-.4-6.4-0.4-9.6-0.7s-8.7-.5-12.9-1.1c-6.7-1-13.4-2.3-20-3.4l-4.1-.5a1.5,1.5,0,0,0-.9.3l-12.1-2.5,4.1-3.9,4.7-4.2h0l-2,2.6-4.2,4.6,5.9-.5a1.2,1.2,0,0,1,.8.1c1.5,2,2.5.3,3.5-.4l5.6-4.4,4.7-3.4c-2.9,4.1-8.2,5.2-9.4,10.2,2,0.3,3.8,1,5.4.7s2.8-1.7,4.1-2.7l8-6.4h1l-10.9,9.1,0.2,0.8h8.9a3.9,3.9,0,0,1,2,.5c1.9,1.2,3.9.7,5.9,0.4a16.7,16.7,0,0,1,5.1.3l-3.5.2v0.3c2,0.4,4.1,1,6.1,1.3,3.9,0.4,7.8.7,11.7,1a28.2,28.2,0,0,0,5.8.2,7.3,7.3,0,0,0,3.3-2c2.3-2,4.5-4.1,6.7-6.1h0c-1.2,1.5-2.3,3-3.6,4.5s-1.9,1.7-2.8,2.6a14.7,14.7,0,0,0-1.1,1.4,7.4,7.4,0,0,0,1.9,1.1c1.4,0.3,3,.9,4.3.5s1.8-1.8,2.7-2.8a9.7,9.7,0,0,1,.5-1l7.9-6.7a1.3,1.3,0,0,1,.8-0.1l-6.4,6.5h0.1c-1.1,1.2-2.2,2.3-3.2,3.5a1.3,1.3,0,0,0,.3,1.2c3.5,0.7,7,1.3,10.5,2.1a4.7,4.7,0,0,0,5.5-1.9,2.4,2.4,0,0,1,1.8-.9l-1.8,1.9-1.3,1.6,1.9,0.6a1.1,1.1,0,0,1,.8.6h-3.9l0.8,0.5c3.6,1,3.5,1,3.7-.1s0.5-2.8.7-4.2,0.2-2.1.3-3.1c0.5-5.5,1-11.1,1.4-16.6a3.4,3.4,0,0,0-.6-1.2c0.3-1.2.8-2.7,1.1-4.2s1.1-3-.4-4.7a20.2,20.2,0,0,0-2.5-1.1l-5.2-1.3h0Zm122.1,28.5L341,186l-4.2-.3,2.1,1.1a11.2,11.2,0,0,1-2-.1l-4-1.4a2.1,2.1,0,0,0-1.4.1c-0.9,2.9-1.6,5.7-2.4,8.6l0.8,0.2,6.3-5.2-0.2.2h0.3v-0.4Zm-98.9,67c-0.2,1.8-.9,3.8,2,4.7l-2.2.4,3.8,2.2a12,12,0,0,1-.3-2.6c0.3-3.5.8-7.1,1.2-10.6s0.9-8.9,1.4-13.3c0.3-2-1.1-1.7-2.1-1.8a1.7,1.7,0,0,0-1.3.8c-0.9,6.7-1.7,13.4-2.5,20.2h0ZM76.8,119.7l-0.2,1.5,2.2-1.9a6,6,0,0,1,1.4-1.2l11.4-4.3A1,1,0,0,0,92,113c0.1-.9.1-1.8,0.2-2.7s-0.6-2.4-2.5-1.4L79,114.7l-15.1,8.1v-0.4c-2.2.8-2.7,1.9-1.8,4.5,1.5-.9,2.8-2,4.3-2.8s2.2-2.5,4-1.1l-1.7,1.2a4.8,4.8,0,0,0,2.7-.8ZM101,81.4h0V80.8a2.1,2.1,0,0,0-.5,1.4c-0.1,4.1,0,8.2-.5,12.3s0,6.5-.8,9.9c-1.3,5.7-.8,11.9-1.1,17.8s-0.5,11.5-.6,17.2a35.9,35.9,0,0,0,.3,5,2.9,2.9,0,0,0,.9,1.1,5.1,5.1,0,0,0,.5-1.3c0-.5-0.2-1.1-0.2-1.6,0.4-4.6.9-9.2,1.3-13.8,0.6-6.7,1.1-13.3,1.6-20s0.8-11.6,1.2-17.4c0.3-3.7.7-7.4,1.1-11.2,0.2-2,.1-4,0.4-5.9s-0.2-2.9-2.4-2.4l-2.8.6,0.5,4.6h0.5l0.8-2c0.1,1.3.2,2,.2,2.7S101.1,80.2,101,81.4ZM297.2,192.8a2.7,2.7,0,0,0-.6.9c-0.7,4.6-1.4,9.3-2,13.9a1.3,1.3,0,0,0,.8.9l4.4,0.7,7.1,1.7a5.6,5.6,0,0,1-2.9.2c-2.7-.4-5.4-0.7-8.1-1.3s-1.8-.2-1.8,1.2-0.3,2.2-.2,3.3a4.4,4.4,0,0,0,1,1.6l0.5-.3-0.5-1,5.2,1.9-0.2.7c-1.6-.3-3.2-0.7-4.8-0.9a2,2,0,0,0-1.6.8c-0.3,2.4-.4,4.8-0.5,7.7l4.3-3-2.4-.6c2.7-.3,5.6-0.2,5.9-3.2l13.7-11.1-6.1-1.7-7.8-2.8a2.6,2.6,0,0,1-.7-1.1h0l3.9,1.4,12.6,3.5a1.2,1.2,0,0,0,1-.5c0.4-1.7.7-3.4,0.9-5a1.3,1.3,0,0,0-.7-1c-1.6-.4-3.3-0.6-4.9-1.1s-5.9-1.8-8.8-2.8-4.5-2-6.7-3l6.3,1.7,6.7,1.5,6.3,0.9-1.4,1c1.7,0.1,3,2.1,4,0s0.7-3.5,1-5.3a0.8,0.8,0,0,0-.2-0.7c-2.8-.7-5.7-1.5-8.6-2.1s-4.8-.7-7.1-1.2-3.2-.9-4.8-1.4l-1.9-.6ZM101.1,204.1l-0.9,1.5L101,206c-1.1.8-2.6,1.5-3.4,2.7s-2.3,4.4-3.5,6.5L81.7,236a11.2,11.2,0,0,0-.7,3c-2.6,1.6-3.7,4.9-5.5,7.9l7.1-.4a2.5,2.5,0,0,0,1.7-.5c1.7-2.9,3.4-5.9,5-8.8s3.2-6.3,4.8-9.4,3.7-5.7,4.6-8.9c2.1-7,7.6-11.8,10.8-18.1,1.1-2.1,2.6-4.1,3.9-6.2l-0.2-.2-0.6,1.4-0.6-.5a36.2,36.2,0,0,0,2.3-3.1,34.1,34.1,0,0,0,1.6-3.5l-0.6-.2-1.4,1.3a5.4,5.4,0,0,1,1.2-2.1c1-1.2.6-2.6-.9-2.9l-5.7-1.1-3.8-1a2.7,2.7,0,0,0-1.2.4,2.2,2.2,0,0,0,.7.9l5.1,1.3a0.9,0.9,0,0,0-.4.5,1.2,1.2,0,0,0,.8.8c2.2,0.5,1.9,1.8,1.1,3.2s-2.2,3.6-3.4,5.3l-5.3,7.3a12.2,12.2,0,0,0-.9,1.8h-0.1ZM79.7,231a1.7,1.7,0,0,1-.7.5l-4.2-1c-3.8-1.1-7.5-2.4-11.3-3.3-5.3-1.2-10.7-2.1-16.1-3.1L34.5,222a0.9,0.9,0,0,0-.7.5,9,9,0,0,0-.4,1.5l-0.8-1.6-0.4-1-5.1,3.1a22.2,22.2,0,0,1,2.9.8,19.9,19.9,0,0,0,2.5,1.5l14.1,3.7a72.6,72.6,0,0,0,7.7,1.9c3.9,0.6,7.9.4,11.8,1.2s8.3,2.4,12.4,3.5a1.2,1.2,0,0,0,1.1-.4c1-1.8,1.9-3.7,2.9-5.4s3-4.8,4.8-7.8c-4.1-.6-7.9-1-11.7-1.8s-9.3-2.2-14-3.3c-1.4-.3-3.1-1.4-4.1-0.9s-2.8-.3-4.1-0.7l-0.9-.3-16-3.5c-2-.5-2.2.6-2.1,2a2.4,2.4,0,0,1,0,.7c-0.7,2.3.2,4.1,2.5,4.7l6.4,1.3,4.7,1.2,3.3,1,0.9,0.3,7.8,2.3v-0.3l-1.5-.9V225l12.8,2.6v0.4l-1.3.3,5.8,1.5,3.7,1.1h0ZM62.2,103.8l-0.9,15.7a36,36,0,0,1,4-2.4c2.2-.9,4.6-1.7,6.8-2.5h0l1.1-2.1,17.5-8v0.2L71.5,115.4l0.4,0.9,3-1.3c5.3-2.7,10.6-5.4,15.9-8a2.4,2.4,0,0,0,1.6-2.5c0.1-5.4.2-10.7,0.4-16.1s0.3-9.2.5-13.8c0-1.3-.4-2.2-2.1-2s-5,.4-7.5.8c-6.5,1-13.1,2.3-19.6,3.2-2.2.3-3.5,0.3-3,3.1s-0.1,4.1-.2,6.1h0.7l0.2-4.3h0.2V98.3H61.9l0.5,2.2a3.2,3.2,0,0,0-.7,1.2,17,17,0,0,0,.5,2.3H61.3v0.4Zm271-33.1a3.2,3.2,0,0,0-1.3-.8l-13,.2-14.1.4c-1.6,0-1.9.8-2.1,2.1-0.5,3.9-.9,7.9-1.6,11.8-1.3,8.1-2.8,16.2-4.1,24.3a1.5,1.5,0,0,0,.9,1.1l5.8,0.5,13.9,1.8c3.8,0.5,7.6,1.1,11.3,1.8,1.5,0.3,2.1.3,2.3-1.4,0.5-3.9,1.4-7.8,2-11.8s0.9-5.5,1.1-8.2,0.1-4.4.3-6.6a6.5,6.5,0,0,1,1.1-2.1h-0.1a2.9,2.9,0,0,1,.3,1.2,11.9,11.9,0,0,0-.7,1.2c-0.1,3.3.1,6.6-.3,9.8-1,7.2-2.3,14.4-3.4,21.6-0.7,4.3-1.3,8.7-2,13a3.7,3.7,0,0,1-.5,1,1.5,1.5,0,0,1-.4-1.2c0.4-3.4.9-6.9,1.3-10.3a1.3,1.3,0,0,0-.6-1.1,26.1,26.1,0,0,0-3-.6,1.2,1.2,0,0,0-.8-1c-6.7-.8-13.3-1.4-20-2.3-3.1-.4-6.2-1.2-9.4-1.8-0.5,2.2-.9,4.2-1.3,6.3a1.1,1.1,0,0,0,.7.4l11.4-.7a4.2,4.2,0,0,0,.5,1.4,43.4,43.4,0,0,0,4.9,1l12.8,1.4a2.1,2.1,0,0,1,.8.7l-0.2.3,2.9,0.8a2.4,2.4,0,0,1-1.5.4c-2.5.3-4.3-1.9-7.1-1.6-4.3.5-8.8-.2-13.1-0.6a65.3,65.3,0,0,1-7-1.6,11.5,11.5,0,0,0-2.5-.2l-3.3.2c-0.4,2.1-1.1,4.8-1.6,7.5s-1.1,7.9-1.7,11.8-1.9,10.2-2.7,15.3-1.2,7.7-1.7,11.5a1.1,1.1,0,0,0,.4,1l3.1,1.3,2.2-15.6-1.2.6c0.1-4.7,4.7-5.5,6.8-8.3h0.5v1c1.5,0.4,3.1.3,4.2,1.1a3.8,3.8,0,0,0,4.8.1l7.4-4.4,12.4-7.9a2.4,2.4,0,0,0,.8-1.3c0.3-1,.4-2.1.5-3.2h0.5v3.3l1.3-.4a20.7,20.7,0,0,0-2,3.5,17.5,17.5,0,0,0-.3,3.4c-0.3,2.5-.7,4.9-1,7a7.1,7.1,0,0,0-1.9.4c-0.9.5-1.6,1.3-2.5,1.8l-12.4,8.1c-0.5.3-.7,1-1.2,1.4-2.5,1.6-5.1,3.1-7.6,4.8a3.9,3.9,0,0,0-1.4,2.3c-0.4,2.4-.4,4.8-0.8,7.1s-0.7,3.3,2.6,4h0.2c2.6,0.7,5.1,1.6,7.8,2.1s6.5,0.7,9.7,1.2c1.2,0.2,1.5-.3,1.7-1.3,0.5-2.6,1.3-5.3,1.7-7.9s0.7-6.6,1.2-9.8,1.5-8.9,2.3-13.3a2.2,2.2,0,0,1,.3,1.5L325.4,164c-1.1,7.4-2.2,14.8-3.2,22.3s-1.7,12.7-2.5,19.1c-0.2,1.3-.1,2.6-0.4,3.8-0.7,3.1-1.6,6.2-2.3,9.4a16.4,16.4,0,0,0-.2,1.9c-0.9,7.5-1.9,15-2.8,22.4-0.3,2.8-.5,5.6-0.6,8.5a13.6,13.6,0,0,0,.1,1.8h1.9a1.1,1.1,0,0,0,.8-0.6c0.6-2.9,1.2-5.7,1.7-8.6s0.7-6.6,1.2-9.9,1.4-9.3,2.2-13.9a3.3,3.3,0,0,1,.3,1c-0.1,1.1-.3,2.2-0.4,3.3-0.4,3.8-.7,7.5-1.1,11.3s-1.1,8.9-1.7,13.3a2.8,2.8,0,0,0,.3,1,1.3,1.3,0,0,0,.6-0.3c0.8-1.7,2-3.5,2.2-5.3,1-7.5,1.6-15,2.6-22.5,0.4-3.4,1.3-6.7,1.7-10.1,0.8-5.5,1.2-11,2.1-16.5,1.3-8.3,3-16.6,4.3-25,0.5-3.3.4-6.7,0.8-10.1,1-7.4,2.2-14.8,3.4-22.1l0.9-6c0.3-1.9.9-3.7-.3-5.6-0.2-.2.5-1,0.7-1.5a3.2,3.2,0,0,0,.5-0.9c0.2-1.9.3-3.9,0.7-5.8,0.6-3.7,1.4-7.5,2.1-11.2h-0.3l-1,3.5a1.4,1.4,0,0,1-.4-1.3c0.4-1.9.9-3.7,1.2-5.6,1.3-7.8,2.6-15.5,3.7-23.3,0.1-.7-0.5-1.6-0.8-2.4a1.4,1.4,0,0,0-.8,1c-0.6,3.5-1.1,6.9-1.7,10.4-1.6,8.6-1.8,17.4-4.2,25.8a79.5,79.5,0,0,0-2.3,12c-1.2,9.5-2.2,19-3.3,28.5-0.7,5.9-1.3,11.8-2.1,17.6-0.6,4.1-1.6,8.1-2.3,12.2s-0.9,6.8-1.5,10.2-1.1,4.6-1.4,6.9c-0.6,5.1-1.1,10.2-1.7,15.3a6.6,6.6,0,0,1-1.1,2,8.8,8.8,0,0,1-.3-2.4c0.4-2.9,1.1-5.8,1.5-8.7,1-7.3,2-14.7,3-22,0.8-5.6,1.6-11.1,2.3-16.7s0.9-9.9,1.4-14.8c0.2-2,.6-4,0.9-6.2l0.4,2.3L340.2,86h-0.3l-1,4a5.6,5.6,0,0,1-.2-1.3c0.7-3.4,1.3-6.8,2.2-10.2s-0.7-2.5-1.8-3.6l-1.9,5.2-1,2.6a3.3,3.3,0,0,1-.4-1.3c0.4-2.2.9-4.5,1.3-6.7a2.2,2.2,0,0,0-.2-1.7,39.8,39.8,0,0,0-3.7-2.2V69.7H333Zm17.4,113.2a3.4,3.4,0,0,1-.4-1.2c0.2-2.5.6-4.9,0.8-7.4s0-3.1,0-4.3l-0.3.4c0.3-1.8.5-3.1,0.8-4.4,0.9-3.8,2-7.5,2.6-11.3s0.6-7.8,1.2-11.6c0.8-5.5,2-10.9,2.9-16.3s2.1-13.4,3.1-20.2c0.7-4.8,2.1-9.6,2-14.4s0.6-8.9,1.2-13.2c0.2-1.7.5-3.3,0.6-5a1.5,1.5,0,0,0-1.2-.7l-6.7,3a3.6,3.6,0,0,1-1.4,0V76.8L346.4,79l0.3,0.6,0.7,0.8-1.3.9-0.5-.4c-0.7,3.8-1.5,7.5-2,11.3-1,6.9-1.7,13.9-2.8,20.9-0.3,2,.2,3.1,2.1,3.6s3.1,1.1,4.7,1.7l3.5,0.9a4.5,4.5,0,0,1,1.2.8c1.4,1.1,2.3.8,2.5-1,0.8-5.2,1.8-10.4,2.4-15.6,0.4-3.3.4-6.7,0.8-10.1s0.8-6.5,1.2-9.7l0.8-6.3c0.4,0.9,1,1.5.9,2s-0.8,3.5-.9,5.2c-0.3,3.7-.2,7.3-0.6,11s-1.4,8.7-2,13.1-0.8,6.4-1.1,9.5l-0.4,3.7a25.5,25.5,0,0,1-1,5.3c-1.3,6.7-2.7,13.5-3.8,20.2s-1.8,12.2-2.5,18.4c-0.3,2.9-.2,5.8-0.5,8.7s-0.9,4.1-1.1,6.2c-0.7,5.1-1.3,10.1-1.9,15.2-1,8.8-2,17.5-2.9,26.3a2.2,2.2,0,0,0,1.4,1.5c2.1,0.4,2.5-.5,2.3-2.7s0.2-5.1.3-7.6H347l-0.4,7.5,1.8-1.6c2.4-2,1.4-4.8,1.9-7.3s1-7.9,1.5-11.8,0.9-5.1,1.2-7.6c0.7-5.4,1.2-10.8,1.9-16.2,0.5-3.5,1.4-6.9,1.9-10.3,0.9-5.8,1.7-11.6,2.5-17.4s1.3-10.9,2-16.3,1.6-10.8,2.3-16.3,1.1-11,1.9-16.4c0.4-2.7,1.4-5.3,1.9-7.9s0.3-4.4.5-6.5c0.4-4.1,1-8.1,1.5-12.7l-3.4,1.6c1.6,1.4-.3,2.6-0.3,4a39.3,39.3,0,0,1,0,3.9,94.1,94.1,0,0,1-1.3,10.8c-1.6,7.4-1.3,15.2-3.5,22.5-0.3.8,0.1,1.9-.1,2.7-1.2,5.1-.5,10.5-2.8,15.5-1.2,2.5-1.1,5.6-1.4,8.4-0.7,6.1-1.3,12.3-2.1,18.4-0.4,2.8-1.4,5.6-1.9,8.4-0.8,5.1-1.4,10.2-2.1,15.3h0ZM320,44.3l-0.2-1h-0.4l0.5,0.9a13.1,13.1,0,0,1-2.7-1.7c-1.1-1.1-1.8-2.5-2.9-3.7s-2.5-2.1-3.6-3.2-3.4-3.9-5.1-5.8-2.2-.9-3,0.4a33.2,33.2,0,0,1-2.2,3c-0.4.5-1.2,0.7-1.6,1.2l-5.8,5.9-9.9,10.2c-5.6,5.8-11.2,11.5-16.7,17.3-3.7,3.9-7.2,7.9-10.7,11.9a1.9,1.9,0,0,0,0,1.8c0.6,0.4,1.8.9,2.2,0.5,4.2-3.2,8.4-6.5,12.5-9.9,2.1-1.7,3.8-3.9,6.6-4.4a22.1,22.1,0,0,1,4.1.2,4.1,4.1,0,0,0,1.4.6,47.1,47.1,0,0,0,5.1.4h16.9l12.3-.4c1.3-.1,2.7-0.5,4-0.4s5.1,0.4,7.7.5a11,11,0,0,0,2-.2V65.1l14.6,10.6-1.8-.3a2.1,2.1,0,0,0,1.5,1.4,19.7,19.7,0,0,0,3.4-1l0.7-1.3L331.9,58.2V58l2.2,1.6h0.1ZM146.6,106h0l-0.8.2-12.2.6-4.3.3c-1.3.1-2.3,0.3-2.3,2.2s-0.6,6-.7,9,0,8.8-.1,13.2-0.4,8.3-.5,12.4,0.1,10.4.2,15.6c0,2.5,0,4.9,0,7l21.1-14.2-6-.3h-4.6l-7,.5a2.1,2.1,0,0,1-.8-0.8,3,3,0,0,1,.9-0.5l3.4-.3-1.5-1.4h1.7c2.4,0.3,4.7.8,7.1,0.9s5.1-.2,7.7-0.1l11.6,0.5a17.9,17.9,0,0,1,3.3.1,24.9,24.9,0,0,1,3.6,1.5c-0.1-1.5-.3-2.4-0.3-3.3,0.2-6,.3-12,0.6-18,0.1-3,.6-6,0.7-9,0.3-5.1.4-10.3,0.6-15.4a1.4,1.4,0,0,0-.6-1.1l-4.6.2-4.4.2h-12Zm121,7.9c-2.4-.7-3.5.8-3.7,2.6-1.4,9.8-2.6,19.6-3.8,29.5-0.7,5.2-1.2,10.5-1.8,15.7-0.2,1.7-.1,3.3,2.3,3.5s4.6,0.8,7,1.1,6.6,0.5,9.9.7a0.9,0.9,0,0,0,.6-0.7c0.4-2.8.6-5.6,1.1-8.3a55.3,55.3,0,0,1,1.8-5.9,0.8,0.8,0,0,1,.4.7c-0.8,4.4-1.6,8.8-2.4,13.2a2.2,2.2,0,0,0,.2,1.6,12.5,12.5,0,0,0,3.3.6,2.4,2.4,0,0,0,.6-1.4c0.6-5.6,1.2-11.3,1.8-16.9s1.5-12.4,2.6-18.6c0.7-4.3,2-8.4,3-12.6,0.3-1.4.4-2.8,0.6-4.3L295.8,90l3.1-16.3c0.3-1.6.3-3.1-1.9-3.1h-3.3l-5.6-.3h-7.1l-0.2.6,1,0.4c-0.7.7-1.4,1.6-1.6,1.5-2.3-1.2-4.1-.3-5.8,1.2a12.2,12.2,0,0,1-2.4,1.9c-2.4,1.1-4,2.7-3.9,5.5l-0.3.5V78.7l-5.3,3.6,0.3,1,2-1.2c0,0.6,0,1-.1,1.3-1.2,9.1-2.5,18.3-3.6,27.4-0.7,6-1,12.1-1.7,18.1s-1.6,11.7-2.4,17.6a8.1,8.1,0,0,1-.8,2l-0.2-.2,6.6-58.8v0.4h0.3V87.4l-0.6.7V82.2a3.2,3.2,0,0,0-1.1.7,22.5,22.5,0,0,0-1.7,4.8c-1.2,8.4-2.3,16.8-3.3,25.2-0.6,4.8-.8,9.6-1.2,14.3,0,0.4-.1.8-0.2,1.4l-0.7-1.6-0.6,4.5,1.4-2.2a6.1,6.1,0,0,1-.2,1.3c-0.5.8-1.3,1.6-1.5,2.5-0.6,3.8-1,7.5-1.5,11.3s-1.2,8.6-1.8,12.9-0.6,6.8-1,10.2c-0.6,5.3-1.4,10.6-2.1,15.9s-1.1,9.2-1.5,13.9c-0.2,1.6,0,3.3,0,4.9h0.2l-0.5,2,0.8,0.4,3.6-5.4,0.3,0.5,0.3-3.6-0.6.3v-0.8c0.6-4.3,1.2-8.5,1.8-12.8s0.2-7.3,2.3-10.5a49.3,49.3,0,0,1-.7,5.3c-0.4,2.6-.6,5.1-0.9,7.7s-0.7,6.7-.9,10a4.4,4.4,0,0,0,.7,1.7,6.9,6.9,0,0,0,1-1.9c0.2-1.6.3-3.2,0.4-4.9s-0.1-1.3-.1-2.5,0.9-3.6,1.2-5.7q1-5.8,1.8-11.6c0.5-3.7,1-7.4,1.4-11.1s0.7-7.1,1.2-10.7c0.7-5.4,1.5-10.7,2.2-16.1s1.5-12.9,2.3-19.3a22.5,22.5,0,0,0,.4-2.6,42.3,42.3,0,0,1-.2-4.8c0.5-4.3,1.2-8.6,1.8-12.8,0.3-2,.8-3.9,1.3-6.4l0.7,5.6a18.6,18.6,0,0,0,.1,2.4,1.5,1.5,0,0,1-.2.8,3.4,3.4,0,0,0-.8,1.2,12.9,12.9,0,0,0,.7,2.5h-0.3l-0.2-.9a35.9,35.9,0,0,0-1.4,8.4c-0.1,1.4.6,1.9,2.1,1.8a25.5,25.5,0,0,1,5.2.6c4.4,0.8,9.1.3,13.3,2.2a2.3,2.3,0,0,0,1-1.3c0.1-1.2-.3-2.6.1-3.7,2-5.7,1-12.1,3.9-17.7,1-2.1,1.1-4.6,1.6-7s1-5.5,1.5-8.2c0.8,0.5-6.4,44.6-7,44.9s-0.5-3-1.1-3.1c-3.3-.7-6.7-1-10.1-1.4l0.3,1-7.3-1.2a1.2,1.2,0,0,0-.5.4h0ZM54,58.6c-1.1,1.6-2.1,3.3-3.3,4.9l-8,10.4a1.7,1.7,0,0,0,.1,1.1l8.8-.3a2.3,2.3,0,0,0,1,.5c0.9,0.1,1.7-.1,2.6-0.1a25,25,0,0,0,3.6.1c4-.6,8-1.6,12-2.1s8.5-.7,12.8-1c1.9-.2,3.8-0.6,5.7-0.7s3.5,0.4,5.2.2c4.5-.5,9-1.2,13.5-1.7a26,26,0,0,1,4.1.3l7,0.3c1.4,0,3.1.8,4.1-1.2a9.4,9.4,0,0,1,1.6-1.4c2.6-2.9,5.3-5.7,7.6-8.8s3.3-5.8,5.1-8.7,5.3-8.4,7.9-12.6c0.9-1.5,1.7-3.1,2.7-4.6s3.5-4.8,5.4-7.4c-4.1,0-7.8-.2-11.5,0-5.4.3-10.8,1-16.3,1.4-2.6.2-5.2,0.1-7.9,0.1l-4.9.2-11.6,1.1-8.3.9v0.4L99,30.5a14,14,0,0,1-3.7.3c-3.9-.1-7.6-1.8-11.6-0.6-1.4.4-3,.4-4.4,0.7a2.1,2.1,0,0,0-.8,1.1,3.8,3.8,0,0,1-.5,1.2,2.7,2.7,0,0,1-1.3,0l-0.3-1.5-1.9,2.3-14,16.6-1.9,2.5-4.6,5.5h0Zm197.2,69.8a16.6,16.6,0,0,0,.9-2.8c0.2-2,.2-4,0.4-5.9s0.9-5.1,1.3-7.7a1.2,1.2,0,0,0-.7-0.9l-15.3-1.7-19-1.6c-4.2-.3-8.3-0.8-12.5-0.9-2.6-.1-5.4.6-7.9,0.2a71.2,71.2,0,0,0-17.1-1.1,5.1,5.1,0,0,1-1.8-.6,2.6,2.6,0,0,0-1.1-.3,1.1,1.1,0,0,0-.5.8c-0.3,2.6-.6,5.3-0.7,8-0.4,7.9-.6,15.8-1,23.7-0.2,4.7-.6,9.4-0.9,14.1-0.1,1-.1,1.9,1.4,1.8a32.6,32.6,0,0,1,4.8.2c0.9,0.1,1.8.5,2.7,0.6a4.5,4.5,0,0,0,1.5-.7,20.6,20.6,0,0,0,5,1.3,86.2,86.2,0,0,1,19.9,3.2c3.2,0.9,6.4,1.7,9.6,2.3,1.6,0.3,2.6.1,3.1-2.2s-1.8-7.4,2.5-9.9a39,39,0,0,0,5-4.1c0.4,1.8,1.8,2.4,3.3,2.9s2.9,0.8,1.2,2.7a5.1,5.1,0,0,0-.9,1.6c-0.3.9-.5,1.8-0.7,2.8a14.4,14.4,0,0,0,2.4-1.3l13.3-10.8a5.1,5.1,0,0,0,1.8-2.4c0.6-2.6.9-5.3,1.2-7.9a27.5,27.5,0,0,0,0-3.2h-0.9ZM370,70.4h0.1l15.1-4.6-2.7-1.1-0.4,1-0.4-.4c-1.7-3.7-4.5-6.5-7.6-9.1a40,40,0,0,1-5.2-5.1c-2-2.4-3.5-5.3-5.5-7.7q-5.2-6.4-10.8-12.5c-2.3-2.5-3.1-6.9-7.7-6.8l-3.8.2c-2,.4-4.1,0-6.2,0s-3.5.8-5.2,0.9l-14,1.2c-0.7.1-1.3,0.6-2,.6h-7.6c2.4,1.8,4.3,3.1,6,4.7s5.8,6.3,9.1,8.9a55.6,55.6,0,0,1,8,7.8c3,3.5,5.3,7.7,9.6,10,0.4,0.2.3,1.2,0.5,1.9a1.8,1.8,0,0,0,.2.7l8.4,10.2a21.7,21.7,0,0,0,2.5,2.9c0.7,0.6,1.8,1.3,2.6,1.1,3.3-.8,6.6-1.8,9.9-2.8a27.8,27.8,0,0,0,3.7-1.8l0.3,0.7ZM36.3,210.7l0.4,0.5c2.2,0.3,4.3.5,6.5,1l25.6,5.9c3,0.7,6.1.8,9.1,1.4l9.7,2.1a1.5,1.5,0,0,0,1.1-.7c0.8-1.4,1.5-2.8,2.3-4.2l4.9-8.7c0.6-1,.6-1.7-0.8-2l-8.4-1.9-14.9-2.8-2.5-.6-6.7-1.7-6.3-1.3c-2.4-.6-4.7-1.5-7.1-1.9a24.9,24.9,0,0,0-4.7-.1l-1.1,14.8H42.6a17,17,0,0,0-.4-1.9,2.7,2.7,0,0,0-.6-0.9Zm316.4-77.2a34.3,34.3,0,0,0-3.5,2l-9.7,7.5a3.3,3.3,0,0,1-1.4.2,2.8,2.8,0,0,1,.4-1.4c3.6-2.7,7.4-5.2,10.9-7.9,1.5-1.1,3.8-1.4,4-3.9s0-2.4,0-3.7a5.1,5.1,0,0,0-1.2.5l-8.7,7.1-3.2,2.3c-1,.7-2.8,1.3-2.9,2.2-1,5.2-1.8,10.5-2.5,15.8s-1.1,9.7-1.6,14.6l-0.7,6.3,3.1,0.6,6.1,1.7a32.8,32.8,0,0,0,3.9.8,1.3,1.3,0,0,0,.9-0.9c0.4-2.4.6-4.9,0.9-7.3,1.1-8.4,2.2-16.8,3.3-25.2C351.2,141.2,352,137.7,352.7,133.6ZM222.9,205.1c0.1-1.9.1-3.8,0.3-5.7,0.7-6.3,1.3-12.7,2.2-18.9s1.8-9.9,2.5-14.9c0.3-1.8,0-3.7.2-5.5s0.9-3.2,1.1-4.9a4,4,0,0,0-.5-2.9c-0.6-.7-1.9-0.8-3-1a1.2,1.2,0,0,0-1,.6,57.5,57.5,0,0,0-.9,6.1c-0.4,4.5-.5,9-0.9,13.6-0.6,6.6-1.3,13.2-1.9,19.8-0.3,3.3-.4,6.7-0.8,10s-1.2,7.7-1.6,11.5c-0.7,6.1-1.1,12.3-1.8,18.4s-1.5,11-2.1,16.5-1.1,13.7-1.7,20.6c-0.4,4.5-.8,9-1.1,13.5a1,1,0,0,0,.3.8c2.1,0.9,3.7-.2,3.7-2.4s-0.2-6.1.1-9.1c0.5-5.9,1.4-11.7,2-17.5q1.3-11.8,2.5-23.5a23.1,23.1,0,0,0-.3-3.8c1.9-2.9.7-6.9,1.2-10.6s1.2-7.4,1.8-11.1Zm7.5-10.4-1.5,2.3,2.6,0.4,0.9,0.3c2.8,0.8,5.6,2.1,7.8-1.1a2.5,2.5,0,0,1,.7-0.4c1.9-1.3,3.3-2.8,3.4-5.3s0.6-4.2.9-6.3-0.4-1.7-.2-2.4c0.6-3,1.5-6,2.1-9a32.3,32.3,0,0,0,.6-4.4c0.1-1.4,1.1-3.4-1.6-3.5s-2.9.3-4.4,0.1-1.5-.8-2.3-1.1a1.6,1.6,0,0,0-1.2,0,33.1,33.1,0,0,0-4.1,2.6c-1.3,1-2.5,2.1-2.7,4.1s-0.7,6-1.2,8.9c-0.2,1.4-.4,2.7-0.7,4.5l15.9-11.8a3,3,0,0,1-.8,1.4c-4.8,4.4-10.8,7.3-14.8,12.7a1.8,1.8,0,0,0-.5.6c0,2.6,0,5.2,0,7.8Zm-60.7-85.1H170c-0.3,4-.7,8-1,12s-0.4,6.2-.5,9.4,0.3,3.4.2,5c-0.3,4.8-.7,9.6-1,14.4-0.1,1.7.7,2.1,2.1,2l1.2-32.2h0.2v2.6h0.6v-4.8h-0.3l-0.4,1.3c0.2-2.6.5-4.6,0.5-6.7,0.1-3.8-.2-7.6,0-11.4s0.7-5,1-7.5,0-3.3,0-5H173l0.2,0.7a15.9,15.9,0,0,0,.7-4.1,2.3,2.3,0,0,1,.5-0.8,1.5,1.5,0,0,1,.5.6c-0.1,2.6-.3,5.2-0.5,7.7s-0.9,5.1-.9,7.6c0.1,6.1-1,12.2-.7,18.4s-0.7,11.8-1.1,17.7c-0.2,2.5-.1,5-0.2,7.5s-0.5,4.6-.4,6.9c0,0.7,1.4,1.3,2.1,2a3.7,3.7,0,0,0,.7-1.3c0.3-4.9.6-9.9,0.9-14.8q0.8-13.5,1.5-27,0.4-7.7.8-15.3c0.3-6.9.6-13.8,0.9-20.7,0.1-1.9.2-3.9,0.3-5.8a7.2,7.2,0,0,1,.3-1.3l-2.6-.3a1,1,0,0,0-.6.7,38.3,38.3,0,0,0-.4,4.1c-0.1,2.8-.1,5.7-0.1,8.5s-0.1,2-1.6,1.7H173c0.2-2.7.4-5.3,0.6-7.9s0.6-4.1.9-6.1a1.6,1.6,0,0,0-.1-1.2A2.2,2.2,0,0,0,173,66a1.4,1.4,0,0,0-.5.9c-0.2.9-.2,1.8-0.3,2.7l-1.6,19.3c-0.2,2.6-.5,5.2-0.7,7.8s0,4.2,0,6.3h0.3l-1,7.3h0.3ZM52.3,189.4l-4.5,4c-0.9.8-.5,1.3,0.6,1.4a18.7,18.7,0,0,1,3.3.2c2,0.6,3.8,1.5,5.8,2s4.9,0.7,7.3,1.3l18.8,4.1,10.8,2.6c1.2,0.3,3.1.6,3.7,0a90.9,90.9,0,0,0,5.7-8.1,20.3,20.3,0,0,1-3.8,0l-13.5-3.1-5.5-1.1c-3.3-.6-6.5-1.4-9.8-1.9s-7.6-.7-11.4-1Zm46.1,5.5v-0.7l5.2,0.5a2.3,2.3,0,0,0,1.7-.4c1.1-1.8,2-3.7,3.2-6.1l-9.4-.6v-0.5h2v-0.5l-3.6-.6a4.1,4.1,0,0,1-1.6.1,20.1,20.1,0,0,1-3.5-.1l-14.3-3.1a5.8,5.8,0,0,0-1.6.4l-22.6-3.9-0.9,4.8c-0.3,1.6-.7,3.2,1.9,3.1a26.7,26.7,0,0,1,4.1.5l11.8,1.6c2,0.2,4,.1,6,0.4s5.8,1.3,8.7,1.9,4.4,0.7,6.6,1.3l11.1,3.2a1.9,1.9,0,0,0,.9-0.3v-0.4ZM26.4,233.5c1.2,0.4,2.2.8,3.3,1l8.7,1.7a26.6,26.6,0,0,1,3,1.3c0.4,0.2,1-.1,1.5,0l11.5,3.2,17.3,4.8c1,0.3,2.8.5,3.2,0a55,55,0,0,0,3.8-6.8,0.9,0.9,0,0,0-.4-0.9,30.2,30.2,0,0,0-3.9-1.3l-15.1-3.4-1.9-.3v0.4l13.9,3.1a33.3,33.3,0,0,1-7-.6l-13.6-3-8-1.7-15.1-3.7a1.5,1.5,0,0,0-1.1.9C26.3,230,26.4,231.8,26.4,233.5Zm274.3-78.3-0.5-.2c-0.8,1-2.2,1.8-2.5,2.9-1,4.9-1.7,9.9-2.4,14.9-0.4,2.6-.5,5.2-0.9,7.8s-1.3,7.1-1.8,10.7-0.8,8.3-1.3,12.4c-0.8,5.9-1.8,11.8-2.7,17.7-0.1.9,0.2,1.9,0.1,2.8s-1.1,4.2-1.4,6.4-0.2,4.2-.4,6.3-0.7,4.7-.9,7.1c-0.5,5.5-.8,11-1.2,16.5s-1.1,13-1.7,19.5a11.1,11.1,0,0,1-.9,2.3L281,286l0.7,0.2,0.4-2.2,1.2,1.4,2.1-12.1a8.1,8.1,0,0,0,1-2.2c0.2-3.1,0-6.2.6-9.2,1.3-6.6.4-13.3,1.8-19.8s1.4-11,2.1-16.5,1.5-9.7,2.3-14.5c0.2-1.2.7-2.6-1.6-2.4a5,5,0,0,0,1.6-1.3,16.1,16.1,0,0,0,.8-3.5q1-8.1,1.9-16.3c0.4-3.5.8-7.1,1.1-10.6s0-4.9,0-7.3h0.8l0.3,3.4Zm-6.2-50a32,32,0,0,0-1.6,4.4c-0.7,3.3-1.1,6.7-1.8,10s-1.4,5.4-1.9,8.1c-0.8,4.5-1.4,9.1-2.1,13.7-0.4,2.3-1.4,4.6-1,6.8a8.1,8.1,0,0,1-.4,4,16.3,16.3,0,0,0-.7,2.8c-0.2,2.8-.4,5.6-0.6,8.5-0.1,1.3-.1,2.6-0.1,3.9a3,3,0,0,0-.1.9,4.2,4.2,0,0,0,1.5.5,1.6,1.6,0,0,0,.5-0.9c1.1-7.9,2.1-15.9,3.3-23.8,0.7-5,1.7-9.9,2.4-14.8,0.3-2.1.4-4.3,0.6-6.4s0.6-4.9.9-7.3,0.5-2.9.8-4.3h0.4l-0.9,6.6a37.1,37.1,0,0,0,1.8-6.8c0.5-3,.9-6.1,1.4-9.2s1.4-6.1,1.8-9.1,0.4-5.8.8-8.7,0.8-3.8,1.1-5.7,0.6-3.3.9-4.9l0.4-2.4a2,2,0,0,0-1-.1,10.8,10.8,0,0,0-1.2,2,3.9,3.9,0,0,0-.2,1.2c-0.4,3.1-.7,6.3-1.3,9.3S296.7,90.4,296,94s-0.8,4.7-1.2,7S294.6,103.9,294.5,105.1Zm27,77.8-4,.3,0.8,0.9c-2.8-.5-5.5-0.9-8.2-1.6s-6.7-2-10.1-2.9a1.7,1.7,0,0,0-1.4.4,37.8,37.8,0,0,0-.6,4.6,1.2,1.2,0,0,0,.6,1,49.8,49.8,0,0,0,6.9,2.3,68,68,0,0,0,7.4.7,13,13,0,0,1,2.7.4l4.4,1.7a0.7,0.7,0,0,0,.6-0.4C320.9,187.9,321.2,185.5,321.5,183Zm-98.4,39.9,0.6,0.2a6.2,6.2,0,0,0,1.3-1.9c0.4-2.1.5-4.4,0.8-6.5a86.8,86.8,0,0,0,1.3-21.3c-0.3-3.5.6-7.2,1.2-10.8s1.7-10,2.4-15.1c0.2-1.7-.3-3.4-0.1-5.1s0.8-4.9,1.2-7.4a4.2,4.2,0,0,0-.2-1.3l-0.8-.2a18.4,18.4,0,0,0-1.4,3.8c-0.6,4.3-1.1,8.6-1.5,13s-0.8,7.9-1.2,11.9q-0.9,9.4-1.6,18.8c-0.4,4.5-.7,8.9-1.1,13.4C223.8,217.1,223.5,219.9,223.1,222.8ZM344.1,184c-1.5,1.6-2.9,3.2-4.5,4.6s-1.9,1.2-2.8,1.9-2.9,3.3-4.6,3.7-2.9,2.6-3.3,4.7a2.6,2.6,0,0,0,.2.9l0.6-.2,9.9-8.2c3.2-2.7,6.7-5.1,6.3-10.1-0.1-1.7.1-1.7-1.4-1.5l-0.6-.2-3.7-1.1-5.9-1.9a3.7,3.7,0,0,0-1.8,0c-0.5,2.5-.9,5-1.4,7.8C335.5,183.7,339.7,186.3,344.1,184Zm-42.9-20.2c2.9-2,5.4-4,8.1-5.7,4.7-3,9.4-5.9,14.2-8.6s4.9-4.5,3.8-8l-1.5.9-8.4,5.3-9.1,5.7-4.5,3.1a4.6,4.6,0,0,0-1.8,1.8A44.7,44.7,0,0,0,301.1,163.8Zm-22.4,9.6a9.4,9.4,0,0,0,1.8,1.1l6.5,1.9a4.9,4.9,0,0,1,1.2.8,3.7,3.7,0,0,1-1.5.4c-2.4-.5-4.8-1.2-7.3-1.6s-3-.9-3,1.5a1,1,0,0,1-.5.5l-2.3,1.7,13.1,3.6c1.3,0.4,1.8.1,1.9-1.2,0.4-3.3.9-6.6,1.3-10a0.9,0.9,0,0,0-.4-0.7l-3.6-.9a12.2,12.2,0,0,1-1.9-1l-0.2.3,1.4,0.9a12.2,12.2,0,0,0-3.4.5A19.2,19.2,0,0,0,278.8,173.4Zm-50.5,30.9-1.9,16.4L242.7,207Zm-11.2,75.3c2.1-1.9,2.2-4.4,2.4-6.8,0.5-5.8,1-11.5,1.5-17.3s1-9.8,1.4-14.7c0.3-2.7.4-5.5,0.6-8.2a3.1,3.1,0,0,0-.6-1.2,1.4,1.4,0,0,0-.6.4,64.1,64.1,0,0,0-1.5,6.5c-0.3,2.3-.3,4.7-0.5,7s0.1,4.6-.5,6.6-0.4,6.1-1.6,9.2-0.6,6.3-.7,9.4S217.1,276.5,217.1,279.6ZM268,184.7l2.1,0.8c5.1,1.3,10.4,2.3,15.4,4,2.3,0.8,1.9-.5,2.2-1.6s0.2-1,.3-1.5,0.2-2-1.3-2.4c-3.5-.8-6.9-1.9-10.4-2.7-1.5-.3-3.1-1.5-4.6.3A31.9,31.9,0,0,1,268,184.7Zm5.8,49.9,0.2-.7-7.6-2.3a15.7,15.7,0,0,0-1.9-.1c-4-.6-8-1.5-12-1.8a98.2,98.2,0,0,0-13.4-.2,28,28,0,0,1-12.8-2.3,6.6,6.6,0,0,0-3.1-.3c-0.3,0-.6,1-0.8,1.6a1.1,1.1,0,0,0,.4.8,0.7,0.7,0,0,0,.7-0.1c0.8-1.5,1.1-.6,1.5.3a1.2,1.2,0,0,0,.8.6l4,0.4,5.7,0.6H239a6.4,6.4,0,0,1,1.4-.2l6.1,1.7,0.2-.7-1.9-.9c2.6,0.4,5.4.9,8.2,1.2s5.1,0.3,7.7.5l3.6,0.3Zm-41.2-67,1.8-2.5a0.7,0.7,0,0,1-.1-0.9l4.5-3.2,2.8-2.1c1.2-.9,2.2-2.2,3.5-2.6a6.2,6.2,0,0,0,4.3-8,20.9,20.9,0,0,0-3.2,1.9c-1.7,1.4-3.2,3.1-4.8,4.5s-3.5,3.5-5.7,4.5S231.6,164.7,232.6,167.6Zm64.5-57.2-0.4,1a7.9,7.9,0,0,0,2.1,1.2c1.8,0.4,3.7.6,5.5,0.9l4,0.6,6.4,0.7,12,1.6,0.5,0.2a18.6,18.6,0,0,0,3,.9,2.5,2.5,0,0,0,.8-1.6,1.5,1.5,0,0,0-1-1l-5.2-.6-7.8-1.2c-1.8-.3-3.7-0.6-5.5-0.7s-3.9.1-5.8-.2S299.9,111,297.1,110.4ZM243.2,206a2.7,2.7,0,0,0,1-.9,2.4,2.4,0,0,0-.5-1.8c-1.2-.5-2.6-0.6-3.7-1.1s-4.4-.2-6.4-1.8-2.9-.6-4.4-0.6-0.7,1-.8,1.6a1.2,1.2,0,0,0,.7.9l5.8,1.3Zm59.5-49.7c1.6-1.1,2.9-2.2,4.3-3.1l18.5-11.6c2.2-1.4,3-2.6,2.2-4.4a6.8,6.8,0,0,0-1,1.4,4.8,4.8,0,0,1-3.6,3.1l-1.1.5-10.8,6.2c-2,1.2-3.9,2.7-6,3.7S302.4,153.9,302.6,156.3Zm-26.8-44.8-9.5-2.1a3.4,3.4,0,0,0-1.3.3,2.7,2.7,0,0,0,.5,1.3,28.8,28.8,0,0,0,3.9,1.9,5,5,0,0,0,2.1.2,37.7,37.7,0,0,1,5.4-.5c2.8,0.2,5.5.8,8.3,1.2a1.3,1.3,0,0,0,1-.5,1,1,0,0,0-.3-0.9l-9.4-1.7A2.6,2.6,0,0,0,275.9,111.5Zm74.5,11.7-5.3-1-5-1.3c-1.5,2.6-1,4.5,1.7,5.3s3,1,4.1.5S348.6,124.6,350.4,123.2ZM239.8,162.9l7.3,1.2a0.9,0.9,0,0,0,.8-0.3c0.4-2.7.7-5.4,1-7.9Zm100.3-46.3c0.3,1,.3,2.6,1,2.9s3,0.9,4.5,1.3,4,1.2,6,1.6a8.7,8.7,0,0,0,2.4-.1v-0.7Zm-2.2,18.6,0.6,0.5,15.2-10.8a2.1,2.1,0,0,0-2-.1c-0.7.4-1.3,1.1-2,1.5s-3.9,2-5.7,3.3a59.1,59.1,0,0,0-5.2,4.1A5.3,5.3,0,0,0,337.9,135.2ZM302.4,150c-1.6-.3-3.2-1-4.6-0.7s-2.2,1.5-3.3,2.3l-1.2,1.2,1.9,0.3,3.1,0.5a2.3,2.3,0,0,0,1.5,0A41.2,41.2,0,0,0,302.4,150Zm3.5,67.5,0.3,0.2,6.9-6a9.1,9.1,0,0,1,1.1-.5,11.8,11.8,0,0,0,2.6-1.8c0.3-.3-0.1-1.3-0.2-2l-1.8,1.1-5,4.2c-1.2.9-2.4,1.7-3.9,2.7l0.8,0.4Zm-56.3-73.4L236,155.3a1.3,1.3,0,0,0,1.3,0c3.7-2.7,7.3-5.7,11.2-8.1C249.9,146.3,250.3,145.8,249.6,144.1Zm42.2,86.2,12.9-11.7-0.5-.6C300.1,221.9,294.2,223.9,291.8,230.3ZM243.3,195c-1.1,1-2.3,2-3.4,3.1a2,2,0,0,0-.4,1.3l3.7,1.9a0.9,0.9,0,0,0,.1-0.3C243.3,199,243.3,197,243.3,195ZM227,149.7a23.9,23.9,0,0,0,4.4,1c0.7,0,1.4-1.1,2.3-1.8l-3.8-1.9,0.7-.5a0.9,0.9,0,0,0-1.2.1Zm45.5,82.8v0.7l7.8,1.7a1.6,1.6,0,0,0,.7-0.9,1.3,1.3,0,0,0-.8-0.6,26.8,26.8,0,0,0-3.8-.8A34.9,34.9,0,0,0,272.5,232.5Zm71.2-104-0.3-.6c-1.6.3-3.4,0.4-4.8,1.2s-0.4,2.2-.6,3.9ZM268.8,77.3l6.4-5C272.1,72.3,268.8,75.2,268.8,77.3Zm-203,40.6h0.1l-3,1.3a2.4,2.4,0,0,0-1.1.8,2.2,2.2,0,0,0,.1,1.1,4.8,4.8,0,0,0,1.2-.3l4.2-2.7,1.3-.9-0.4-.3Zm86.5,72.8v0.7l7.3,1.9v-0.6Zm201,9.7h-0.7l-1.2,8.1h0.5Zm-194.9-97v0.7l7.1,0.6v-0.4ZM240.2,233l-0.2.8,3.2,0.6a0.9,0.9,0,0,0,.3-0.6,0.6,0.6,0,0,0-.4-0.5Zm10.3-122.7h3.4a1.2,1.2,0,0,0,.5-1,1.1,1.1,0,0,0-.9-0.6C252.6,109.1,251.8,109.6,250.5,110.3ZM239.6,201l0.2-.6-5.1-1.4-0.2.6ZM54.5,242.2l0.2-.5L49.3,240v0.4Zm79-216.9V24.4l-3.5.4v0.5h3.5ZM277.9,171.4l0.3,0.3,3-1.6-0.5-.8Zm9.7-61.9H288l0.6-6.1h-0.4Zm-9.8,122.1V232h2.8a0.8,0.8,0,0,0,.4-0.6,0.9,0.9,0,0,0-.6-0.5ZM60.7,179.3v-0.5l-3.6-.3V179ZM118.5,72.2h3.4a3.4,3.4,0,0,0,0-.4l-2.5-.2ZM46.5,180.9l0.6,0.3,1.3-2.5-0.6-.3ZM125.2,72.4l0.2-1.9-1.8.6ZM323.5,24.5V24.2h-2.7v0.4h2.7ZM235,157.7l-0.5-.5-1.6,1.9,0.4,0.4ZM355,182.4h0.3l0.7-4.3h-0.4ZM137.1,23.3v0.5l2.4-.4V22.9ZM257.8,87l0.5,0.2,0.6-2.1-0.6-.2Zm-3.2-3.5,0.4-.4-1-1.2-0.4.3ZM100.5,142.6h-0.1l-0.2,3.3h0.3v-3.3Zm212.8,46.9v0.4h1.5v-0.5h-1.5ZM167.3,103.9l-0.2.6,1,0.5,0.3-.8ZM92.9,185.3v-0.4l-2.2-.5v0.4Zm223.7-161V23.9l-1.8.2v0.4h1.8ZM69.1,116.5l0.4,0.2,0.7-1.4-0.3-.2Zm14.1,65.9v-0.3l-1.7-.5V182Zm89.1-80.8h-0.2V104h0.2v-2.3Zm-70.6,43.1h-0.3v2.4h0.2v-2.4Zm-40.1-57H61.2v1.4h0.3ZM268.2,76.9l-0.7-.6a7.3,7.3,0,0,0-.4,1.1l0.5,0.4ZM127.9,25v0.3H129V25h-1.2Zm-1.1,43.7h-0.5l-0.3,1h0.4ZM249,143.1v0.3l1.2-.5-0.2-.4Zm1.7-33.9v-0.4h-0.9v0.3h0.9ZM27,225.6l-0.2.4,1,0.4v-0.3Zm322.7-149-0.5-.4-0.6.4a0.9,0.9,0,0,0,.4.3ZM119,25.8V25.6h0ZM214,284v0.2h1.3V284H214ZM153.7,103v-0.3h-1.2V103h1.2Zm-51.9,18h0.3l0.2-1H102ZM79.6,29.7v0.3h0.8V29.8H79.6Zm92.1,96h-0.3c0,0.4,0,.8,0,1.2h0.2v-1.2Zm92.6-46.1,0.3,0.3,0.8-.7-0.2-.2Zm-2.5,109.2-0.3-.2-0.3.7h0.2ZM102.5,134h-0.3v0.9h0.3V134Zm-29,86.4v-0.2l-1.2-.2v0.3Zm13.6,2.7,0.3,0.2,0.3-.6H87.3A2.9,2.9,0,0,0,87.1,223.1Zm144.7,5v0.4h0.8v-0.3ZM304.9,217l-0.5-.2-0.2.2,0.3,0.3ZM76.1,220.9v0.2l0.7,0.2V221H76.1ZM319.8,24.7l-0.3-.3-0.3.2,0.2,0.2ZM102.5,128.8h-0.2v0.7h0.2v-0.7ZM222.2,162h0.3v-0.6h-0.3A5,5,0,0,0,222.2,162ZM325.6,45.7l-0.2.2,0.5,0.5H326ZM272.5,187.6h0.2l0.2-.8h-0.2Zm-6.3-96.5h0.3V90.6h-0.2v0.5Zm25.3,104.8h-0.3v0.8h0.2v-0.8ZM278.4,71.1V70.9l-0.6.2v0.2Zm-8.4,160v0.3h0.5v-0.2Zm4.6-55.3-0.3-.3-0.2.2,0.2,0.3Zm69.6,12.9-0.4-.3-0.5.6,0.2,0.2Zm-189.4-86v0.2h0.4v-0.2h-0.4ZM91.9,28l-0.2.3,0.2,0.2,0.2-.2ZM254.8,195.5h-0.2l-0.2.6h0.2ZM61.3,107H61.1l-0.2.4h0.3V107Zm13.7,14.4v0.2h0.4v-0.2ZM364.3,41.4h0.2l-0.2-.4h-0.2ZM89.1,28.5l0.2-.2H89.1l-0.2.2Zm35.9,40.8h-0.2l-0.3.4h0.2ZM40.6,74h0.2l0.3-.3-0.2-.2Zm254,96.3h-0.1v0.5h0.1v-0.5ZM250,200.8h-0.1l-0.3.4h0.1Z" transform="translate(-15.1 -21.2)"/><path d="M120.5,225.3a7.9,7.9,0,0,0,4.1-7.8c-0.2-4.8.5-9.6,0.5-14.4s-0.3-6.7-.5-10a1.5,1.5,0,0,1,.3-1,129.7,129.7,0,0,1,.7,27.9l2.4-.4a16.2,16.2,0,0,1-1.3,1.7c-1.6,1.6-3.4,3.1-5,4.8a4.7,4.7,0,0,1-5.9.9c-0.5-.3-0.5-1.6-0.5-2.4-0.2-3.4-.4-6.9-0.5-10.3s0-5.5,0-8.2H116c0,5.4.1,10.7,0,16.1,0,1.8.6,2.8,2.3,2.8a1.6,1.6,0,0,0,1.3-.8c0-2.7-.2-5.3-0.2-8a6.7,6.7,0,0,1,.7-2.1,2,2,0,0,0,.2-0.7c-0.1-5.8-.3-11.7-0.3-17.5s-0.6-10.6.3-15.6,0.4-10.9.5-16.3c0-.6.1-1.1,0.1-1.7a1.9,1.9,0,0,0-.1-1.1,5.6,5.6,0,0,0-2-.2l1.5-1.4a2.6,2.6,0,0,0,.9-1.1c0.2-3.1.2-6.1,0.3-9.2a16.3,16.3,0,0,0,.1-3.7l-0.4,1.5,0.4-6.3h-0.3l-0.5,1.1,1.3-25,0.6,0.4-0.4-2.5,0.4-.2a2.4,2.4,0,0,1,.5.9c-0.1,3.2-.1,6.5-0.3,9.7s-0.8,6.8-1.1,10.3a32.5,32.5,0,0,0,0,4.7c0.2,3.1.6,6.3,0.6,9.4s-0.5,5.7-.5,8.5,0.3,3.4.3,5.1-0.1,5.7-.2,8.6,0,4.2-.1,6.3c-0.2,4.5-.6,9.1-0.7,13.6s-0.2,6.7-.1,10c0.1,5.8.3,11.7,0.3,17.5A41.2,41.2,0,0,1,120.5,225.3Zm-2.6.3a6.5,6.5,0,0,0-1.8,0,3.2,3.2,0,0,0-.1,1.2Zm1.1,0.7,0.8,0.2,0.2-.3h-1ZM122.5,126h-0.2v0.3h0.2A1.3,1.3,0,0,0,122.5,126ZM122,149.5v0.2l0.2,0.2v-0.4Z" transform="translate(-15.1 -21.2)"/><path d="M97.1,175.5l4.9-3.5,5.2-3.9c1.5-1.1,3-2.3,4.6-3.3s2.6-1.3,3.7-2.1a1.9,1.9,0,0,0,.5-1.5c-0.1-1.3-.3-2.7-0.5-4.6L99.1,167.4l-0.3-.5,4.8-3.3c1.5-1.1,2.7-2.4,4.3-3.3s4.1-2.1,6.1-3.2a3.1,3.1,0,0,0,1.5-1.9c0.2-3.9.3-7.9,0.4-11.8a2.4,2.4,0,0,1,.6-1.5c0.1,1.8.3,3.7,0.3,5.5s-0.3,4.7-.2,7,0.6,5.3.7,7.9c0,0.9-.6,1.9-1.2,3.4l-0.2-2.4L95.6,177.6l1.5-2.1h0Z" transform="translate(-15.1 -21.2)"/><path d="M98,155.9l-0.2-.8c-1,.7-2,1.6-3.1,2.2l-6.4,3.8-2.6,1.6,0.2-1.2-10,5.6-0.4-.6c1.2-.9,2.4-1.9,3.7-2.7s2.5-1.1,3.6-1.8l12.1-6.6,5.3-2.9a4.1,4.1,0,0,1,1.7,0,7.1,7.1,0,0,1-.9,1.1Z" transform="translate(-15.1 -21.2)"/><path d="M263.2,224.8l-5.4-.4-15.5-1.8-10.4-1a5.4,5.4,0,0,1-1.5-.7l0.2-.7,12,1.6,9.8,1.1,10.4,1.2a1.2,1.2,0,0,1,.4.5h0Z" transform="translate(-15.1 -21.2)"/><path d="M255.9,215.9a7,7,0,0,1,2.1-.4l13.2,1.9a15.4,15.4,0,0,1,4.5,1.2l-5.1-.7-10.3-1a39.9,39.9,0,0,1-4.4-1h0Z" transform="translate(-15.1 -21.2)"/><path d="M135.2,175.4c1.4-1,2.9-1.9,4.3-3s4.3-3.8,6.5-5.6a2.9,2.9,0,0,1,2.2-.2l-10.7,8.3a6.3,6.3,0,0,1-2.4.6h0Z" transform="translate(-15.1 -21.2)"/><path d="M66.2,168.6l6.6,0.5-0.6,1.4H70.5C67.9,171.2,66.2,170.5,66.2,168.6Z" transform="translate(-15.1 -21.2)"/><path d="M57.1,142.4V126.7h0.5v15.6H57.1Z" transform="translate(-15.1 -21.2)"/><path d="M156.6,168.5l9.5-6.9,0.3,0.4-9.1,7.4Z" transform="translate(-15.1 -21.2)"/><path d="M57.4,116.3v9.2H56.7v-9.2h0.7Z" transform="translate(-15.1 -21.2)"/><path d="M197.9,172.5l9.9-7.5,0.4,0.4-9.8,7.6Z" transform="translate(-15.1 -21.2)"/><path d="M187.6,161.2a31.7,31.7,0,0,1-2.7,2.9c-1.6,1.3-3.3,2.5-4.9,3.8l-0.4-.6,8.1-6.1h0Z" transform="translate(-15.1 -21.2)"/><path d="M159.8,158.4l-6.8,6C152.4,163.5,157,159.1,159.8,158.4Z" transform="translate(-15.1 -21.2)"/><path d="M204,158.8l-7.2,5.2a2.3,2.3,0,0,1,.2-1.1l6.8-4.5Z" transform="translate(-15.1 -21.2)"/><path d="M221.1,173.1l-5.5,5.1-0.8-.8,5.2-5.4Z" transform="translate(-15.1 -21.2)"/><path d="M169.9,185.2l5.9-5.2,0.3,0.3-5.7,5.4Z" transform="translate(-15.1 -21.2)"/><path d="M213.4,188.2l-4.6,4.1a1.3,1.3,0,0,1-.6,0,1.4,1.4,0,0,1,.1-0.7l4.5-4Z" transform="translate(-15.1 -21.2)"/><path d="M210.4,172l3.9-2.9,0.5,0.8-4.1,2.7Z" transform="translate(-15.1 -21.2)"/><path d="M57.4,153.2v-5.3h0.3l0.3,5.3H57.4Z" transform="translate(-15.1 -21.2)"/><path d="M192.8,166l-2.9,3.5a1.4,1.4,0,0,1-.7,0,1.7,1.7,0,0,1,.2-0.8l3.4-2.7h0Z" transform="translate(-15.1 -21.2)"/><path d="M216.3,167.6l4.1-3.8,0.5,0.5-3.2,4.7Z" transform="translate(-15.1 -21.2)"/><path d="M185.9,184l-3.7,3-0.4-.6,3.8-2.8Z" transform="translate(-15.1 -21.2)"/><path d="M212.1,179.4l1.7-2.6,0.7,0.5-1.8,2.5Z" transform="translate(-15.1 -21.2)"/><path d="M159.7,183.7l2.1-1.8,0.5,0.6-2.1,1.9Z" transform="translate(-15.1 -21.2)"/><path d="M67,178.3l4.4,0.5v0.5l-4.4-.5v-0.5Z" transform="translate(-15.1 -21.2)"/><path d="M212.9,162.2l-2.5,1.9-0.4-.6,2.6-1.8Z" transform="translate(-15.1 -21.2)"/><path d="M187.6,161.2l2.3-1.6a1.1,1.1,0,0,1,.8,0,0.7,0.7,0,0,1,.1.5l-0.7.3-2.5.9h0Z" transform="translate(-15.1 -21.2)"/><path d="M183.9,172.8l2.7-2,0.3,0.4-2.6,2.1Z" transform="translate(-15.1 -21.2)"/><path d="M149.1,165.7l1.9-1.3,0.6,0.7-2.3.8Z" transform="translate(-15.1 -21.2)"/><path d="M167.4,100.7l-2.1-.4V99.8h2.1v0.8Z" transform="translate(-15.1 -21.2)"/><path d="M196.3,163.9l-1.9,1.6-0.4-.5,2-1.6Z" transform="translate(-15.1 -21.2)"/><path d="M164,156.9l-1.5,1.2-0.4-.5,1.5-1.2Z" transform="translate(-15.1 -21.2)"/><path d="M278.8,219.3l-2.4-.2v-0.3h2.4v0.5Z" transform="translate(-15.1 -21.2)"/><path d="M164.4,180.2l-2,1.6,1.4-2.3Z" transform="translate(-15.1 -21.2)"/><path d="M97.1,175.5l-1.5.7-0.2-.3,2-1.4-0.3,1h0Z" transform="translate(-15.1 -21.2)"/><path d="M163.7,100.3h-2v-0.2l2-.2v0.4Z" transform="translate(-15.1 -21.2)"/><path d="M120.1,176.1l-0.2,1.3h-0.6l0.2-1.3h0.5Z" transform="translate(-15.1 -21.2)"/><path d="M153.1,171.6l-1,1.3a1.1,1.1,0,0,1-.2-0.5c0.1-.5.3-1,0.5-1.4Z" transform="translate(-15.1 -21.2)"/><path d="M154.9,170.1l1.4-1,0.2,0.4-1.5.9Z" transform="translate(-15.1 -21.2)"/><path d="M94.3,171.1l1-.9,0.3,0.3-1.1.9Z" transform="translate(-15.1 -21.2)"/><path d="M293,166.9l-0.3,1.4h-0.3l0.3-1.4H293Z" transform="translate(-15.1 -21.2)"/><path d="M83.4,163.6l-1.3,1.2-0.3-.5,1.7-.8h0Z" transform="translate(-15.1 -21.2)"/><path d="M214.2,160.4l-0.3,1.5-0.6-.3,0.9-1.2h0Z" transform="translate(-15.1 -21.2)"/><path d="M148.1,191.5h-1.4v-0.3h1.4v0.3Z" transform="translate(-15.1 -21.2)"/><path d="M99.3,157.6l0.9-.9,0.3,0.2-0.8,1Z" transform="translate(-15.1 -21.2)"/><path d="M150.2,173.7l0.9-.6,0.2,0.2-0.9.7Z" transform="translate(-15.1 -21.2)"/><path d="M176.9,179.3l0.9-1.1,0.3,0.2-0.9,1.1Z" transform="translate(-15.1 -21.2)"/><path d="M57.1,115.2v-1.4h0.3l-0.2,1.4H57.1Z" transform="translate(-15.1 -21.2)"/><path d="M182.6,174.2l0.6,0.9h-0.9l0.3-.8h0Z" transform="translate(-15.1 -21.2)"/><path d="M216.1,168.4l-1,.4-0.2-.3,1-.5Z" transform="translate(-15.1 -21.2)"/><path d="M96.4,169.1l-0.6-.2,1.1-1.2-0.5,1.5h0Z" transform="translate(-15.1 -21.2)"/><path d="M160.5,100.5l-1.3.4v-0.3l1.3-.3v0.3Z" transform="translate(-15.1 -21.2)"/><path d="M93.9,170.4l-0.8.7-0.3-.3,0.8-.7Z" transform="translate(-15.1 -21.2)"/><path d="M95.3,149.1l-0.9.4-0.2-.3,0.8-.6Z" transform="translate(-15.1 -21.2)"/><path d="M213.2,187l0.7-.7,0.4,0.4-0.7.8Z" transform="translate(-15.1 -21.2)"/><path d="M74.6,31.8l-0.2-.9h0.5l-0.3.9h0Z" transform="translate(-15.1 -21.2)"/><path d="M83.4,163.6l1-.7v0.4l-1.2.2h0Z" transform="translate(-15.1 -21.2)"/><path d="M102.1,122.9v-1h0.2v1h-0.2Z" transform="translate(-15.1 -21.2)"/><path d="M263.1,224.8l1-.5v0.5h-1.1Z" transform="translate(-15.1 -21.2)"/><path d="M182.6,174.2l0.5-.8,0.3,0.3-0.8.4h0Z" transform="translate(-15.1 -21.2)"/><path d="M57.1,142.9v0.7H56.9v-0.7h0.3Z" transform="translate(-15.1 -21.2)"/><path d="M195.6,184.7l-0.6.4v-0.2l0.6-.5v0.2Z" transform="translate(-15.1 -21.2)"/><path d="M291.3,186.3l-0.2.7H291v-0.7h0.3Z" transform="translate(-15.1 -21.2)"/><path d="M202.5,179.2l0.6-.4V179l-0.6.4v-0.2Z" transform="translate(-15.1 -21.2)"/><path d="M192.8,166h0Z" transform="translate(-15.1 -21.2)"/><path d="M157.4,27l-0.6-.9H157l0.3,1.1h0Z" transform="translate(-15.1 -21.2)"/><path d="M189.4,181.2l-0.3.2-0.2-.3h0.3Z" transform="translate(-15.1 -21.2)"/><path d="M87.4,152.4l0.5-.4v0.2l-0.5.4v-0.2Z" transform="translate(-15.1 -21.2)"/><path d="M98.2,167.5l-0.5.5H97.5l0.5-.5Z" transform="translate(-15.1 -21.2)"/><path d="M199.9,181.7h0Z" transform="translate(-15.1 -21.2)"/><path d="M140.3,163.5l0.3-.4h0.2l-0.2.4h-0.2Z" transform="translate(-15.1 -21.2)"/><path d="M56.6,92.1l-0.2.6H56.2l0.3-.6h0.2Z" transform="translate(-15.1 -21.2)"/><path d="M137,166.9h0Z" transform="translate(-15.1 -21.2)"/><path d="M212,180.3l-0.5.2h-0.2l0.2-.2Z" transform="translate(-15.1 -21.2)"/><path d="M129.3,189.5l-0.3-.2,0.3-.2,0.2,0.2Z" transform="translate(-15.1 -21.2)"/><path d="M160,174.6l-0.4.8,0.2-.9H160Z" transform="translate(-15.1 -21.2)"/><path d="M73.8,168.1H73.7v-0.2h0Z" transform="translate(-15.1 -21.2)"/><path d="M56.7,89.7v0.8l-0.6-.4Z" transform="translate(-15.1 -21.2)"/><path d="M209.3,164.5v-0.3h0.2l0.2,0.2h-0.2Z" transform="translate(-15.1 -21.2)"/><path d="M102.5,123.6h0.2l-0.2.2v-0.3Z" transform="translate(-15.1 -21.2)"/><path d="M193.9,185.6v0.2h-0.1v-0.2h0.2Z" transform="translate(-15.1 -21.2)"/><path d="M153.8,171.2v0.3h-0.2l-0.2-.3h0.2Z" transform="translate(-15.1 -21.2)"/><path d="M122.5,154.6v0.5h-0.1v-0.5h0.1Z" transform="translate(-15.1 -21.2)"/><path d="M181.1,175.8l-0.2.2h-0.1l0.2-.2h0.2Z" transform="translate(-15.1 -21.2)"/><path d="M96.4,169.1v0.7H96l0.4-.7h0Z" transform="translate(-15.1 -21.2)"/><path d="M336,83.8l0.2-1.2-0.3,1.2H336Z" transform="translate(-15.1 -21.2)"/><path d="M72.2,114.6l-0.2-.9h0.3v1h0Z" transform="translate(-15.1 -21.2)"/><path d="M53.9,58.6l0.9-.5v0.5H53.9Z" transform="translate(-15.1 -21.2)"/><path d="M55.1,57.4l0.6-.6,0.4,0.4-0.6.7Z" transform="translate(-15.1 -21.2)"/><path d="M245.7,115.3l5.8,0.8v0.4a8.7,8.7,0,0,1-1.8.4c-3-.1-6.1,0-9.1-0.3s-7.2-1.3-10.8-1.7-4.8-.1-7.1-0.3l-10.8-.7c-4.7-.4-9.5-0.9-14.2-1.2l-17-.8a2.6,2.6,0,0,1-1.9-.9h2.5c2.3,0,4.6-.1,6.9.1s4.3,0.6,6.5.8l6.5,0.3c3.9,0.1,7.8.2,11.6,0.4s6.3,1.5,9.3,1c6.6-1.1,12.8.8,19.1,1.3l4.7,0.2v0.4Z" transform="translate(-15.1 -21.2)"/><path d="M284.2,125.1a18.6,18.6,0,0,0,.9-3.1,1.7,1.7,0,0,0-1-1.3,20.7,20.7,0,0,0-4.5-.8c-2.3-.1-4.7.4-7,0.1a73.6,73.6,0,0,1-8.3-2.2v-0.7l1.4-.2a31.6,31.6,0,0,1,4.7-.5,28.7,28.7,0,0,1,4.2.9l6.7,1.3a18,18,0,0,1,3.7,1.4,1.8,1.8,0,0,1,.5,1.4,18.1,18.1,0,0,1-.6,3.2,1.9,1.9,0,0,1-.9.5h0ZM270.6,118v0.5l3.5,0.5v-0.6Z" transform="translate(-15.1 -21.2)"/><path d="M281.6,142.1l2.6-16a9.1,9.1,0,0,0,.1-1.1h0c-0.1,2.1.1,4.2-.2,6.2s-1,6.6-1.6,9.9a2.5,2.5,0,0,1-.9.9h0Z" transform="translate(-15.1 -21.2)"/><path d="M281.6,142.1c0,1.3,0,2.5-.1,3.8s-0.1,1.2-.2,2.1l1.2-1.5-0.9,5.1c-2.2-2.9-.8-5.5-0.1-8a12.8,12.8,0,0,0,.2-1.4h0Z" transform="translate(-15.1 -21.2)"/><path d="M255.3,150.2v6.1h-1.2l1.2-6h0Z" transform="translate(-15.1 -21.2)"/><path d="M254.1,157l0.5,1.4,0.4-1h0.2c-0.2,1.6-.3,3.2-0.5,4.8l-0.6.2a1.1,1.1,0,0,1-.4-0.7C253.8,160.3,253.9,158.9,254.1,157Z" transform="translate(-15.1 -21.2)"/><path d="M254.4,166.5l-0.8,2.4-0.6-.2,0.8-2.4Z" transform="translate(-15.1 -21.2)"/><path d="M254,164.3v-1.4h0.5l-0.2,1.4H254Z" transform="translate(-15.1 -21.2)"/><path d="M267.6,113.9l-0.8,1.3-0.5-.4,1.3-.8h0Z" transform="translate(-15.1 -21.2)"/><path d="M294.2,72.4v-1h0.6l-0.3.9h-0.4Z" transform="translate(-15.1 -21.2)"/><path d="M278.8,156.3v-1.1h0.2l-0.2,1.1h-0.2Z" transform="translate(-15.1 -21.2)"/><path d="M255.4,150.3l0.5-.7,0.2,0.3-0.8.4h0Z" transform="translate(-15.1 -21.2)"/><path d="M254.3,165.9l-0.5-.2,0.2-.2,0.4,0.2Z" transform="translate(-15.1 -21.2)"/><path d="M266.9,82.3l-0.2-.5h0.2l0.2,0.5h-0.2Z" transform="translate(-15.1 -21.2)"/><path d="M267,83.2l0.2,0.5H267l-0.2-.5H267Z" transform="translate(-15.1 -21.2)"/><path d="M266.6,85.8a1.4,1.4,0,0,1,0,.4l-0.4.5,0.2-.9h0.2Z" transform="translate(-15.1 -21.2)"/><path d="M253.7,169.7v0.4h-0.1v-0.4h0.1Z" transform="translate(-15.1 -21.2)"/><path d="M282,146.1v-0.4h0.1V146H282Z" transform="translate(-15.1 -21.2)"/><path d="M322,174c-3.2,0-6.6.7-9.5-.2s-6.9-.6-10.2-1.4a3.4,3.4,0,0,1-1.3-1.3c1.4-3.6,3.3-1.5,5-.7h-2.9v0.7l3.6-.2,1.9,0.2,12,1.7,1.5,0.4V174Z" transform="translate(-15.1 -21.2)"/><path d="M322.7,172.8h0.1v0.2l-0.2.2v-0.2Z" transform="translate(-15.1 -21.2)"/><path d="M129.6,111h17.6v0.6H129.6V111Z" transform="translate(-15.1 -21.2)"/><path d="M136,153.5l-6.8,4.8-0.9.3a1.8,1.8,0,0,1,.2-0.9l6.3-4.4A2.7,2.7,0,0,1,136,153.5Z" transform="translate(-15.1 -21.2)"/><path d="M156.1,111.2h7.7v0.4h-7.6v-0.4Z" transform="translate(-15.1 -21.2)"/><path d="M147.8,110.9h6.6a1.5,1.5,0,0,1,.6.4,1.2,1.2,0,0,1-.5.4h-6.8v-0.9Z" transform="translate(-15.1 -21.2)"/><path d="M128.5,111.5h-0.7v-0.3h0.7v0.2Z" transform="translate(-15.1 -21.2)"/><path d="M164.2,110.6l0.7,0.7h-0.5A4.4,4.4,0,0,1,164.2,110.6Z" transform="translate(-15.1 -21.2)"/><path d="M166,111.5l-0.2-.2,0.2-.2h0.2v0.3Z" transform="translate(-15.1 -21.2)"/><path d="M313.8,40.3l-2.4-1.9,0.3-.4,2.4,1.9Z" transform="translate(-15.1 -21.2)"/><path d="M350.6,183.9c-0.4,2.9-.9,5.8-1.2,8.8-0.3,4.7-.5,9.4-0.7,14.2a3.3,3.3,0,0,1-.5,2v-5.2h-0.3l-1,8.5h-0.5c0.1-1.3.2-2.6,0.3-4q1.4-11.1,2.9-22.2a8.5,8.5,0,0,1,.9-2h0Z" transform="translate(-15.1 -21.2)"/><path d="M62.1,80.5V79.6h0.2v0.9H62.1Z" transform="translate(-15.1 -21.2)"/><path d="M62.5,101.9l-0.2.2H62.2l0.2-.2Z" transform="translate(-15.1 -21.2)"/><path d="M259,194a4.4,4.4,0,0,1,1.4-.3l8,1.2a19,19,0,0,0,2.4,0h0.5c1.3,2.4,3.6.8,5.4,1.4s5.4,1.2,8.1,1.9a2.5,2.5,0,0,1,.8.8,2,2,0,0,1-.9.4c-2.2-.6-4.4-1.3-6.6-1.7s-4.4-.5-6.5-0.8l-8.9-1.8-3.4-.6Z" transform="translate(-15.1 -21.2)"/><path d="M262.8,171.4l4.3-3.7,0.5,0.7-4.9,3h0Z" transform="translate(-15.1 -21.2)"/><path d="M268.5,187.3l-2.4-.7,0.2-.5,1,0.5,1.3,0.4v0.3Z" transform="translate(-15.1 -21.2)"/><path d="M262.8,171.3l-0.7,1-0.4-.4,1.1-.5h0Z" transform="translate(-15.1 -21.2)"/><path d="M44.8,206.3l0.8-1.5,6.4,1.7,6.4,1.6c3.6,0.9,7.3,2.6,10.8,2.3s7.2,1.7,11,1.2,5.3,0.6,8,.9a3.3,3.3,0,0,0,1-.2l2.9,0.8a4,4,0,0,1-1.4.8c-2.6,0-5.1,0-7.7-.2a64.1,64.1,0,0,1-6.9-1l-19.1-3.8Z" transform="translate(-15.1 -21.2)"/><path d="M75.5,229.4l-3-1.2V228l3.1,0.9Z" transform="translate(-15.1 -21.2)"/><path d="M79.7,231h1.4v0.2l-1.4-.2h0Z" transform="translate(-15.1 -21.2)"/><path d="M71.2,227.2h0Z" transform="translate(-15.1 -21.2)"/><path d="M238.5,170.8l-6,4.3-0.5-.7,6-4.2Z" transform="translate(-15.1 -21.2)"/><path d="M240.3,187l-2.1,1.6-0.2-.3,2.1-1.6Z" transform="translate(-15.1 -21.2)"/><path d="M242.5,185.3l-0.7.6h-0.2l0.6-.7Z" transform="translate(-15.1 -21.2)"/><path d="M173.4,82.9v0.7h-0.2l-0.2-.7h0.3Z" transform="translate(-15.1 -21.2)"/><path d="M174.8,83.7l-0.3-.3,0.3-.4,0.2,0.2A1.7,1.7,0,0,1,174.8,83.7Z" transform="translate(-15.1 -21.2)"/><path d="M109.5,191.9l-0.4.4H109l0.3-.5Z" transform="translate(-15.1 -21.2)"/><path d="M98.7,186.7l-0.3,1H98.1l0.3-1h0.4Z" transform="translate(-15.1 -21.2)"/><path d="M331.3,161.4h0Z" transform="translate(-15.1 -21.2)"/><path d="M332.7,149.5V150h-0.1v-0.5h0.2Z" transform="translate(-15.1 -21.2)"/><path d="M302.2,215.9h-2v-0.4l2-.2v0.5Z" transform="translate(-15.1 -21.2)"/><path d="M299.9,201.3l-1.6.5-0.2-.5h1.8Z" transform="translate(-15.1 -21.2)"/><path d="M299.5,207.9l-1.4-.3v-0.2l1.4,0.2v0.3Z" transform="translate(-15.1 -21.2)"/><path d="M296.9,200.9l-0.4.3-0.3-.4,0.3-.2Z" transform="translate(-15.1 -21.2)"/><path d="M317.2,203.5v-0.7h0.3l0.2,0.7h-0.3Z" transform="translate(-15.1 -21.2)"/><path d="M297.1,207.3l-0.2-.2h0.2l0.2,0.2h-0.2Z" transform="translate(-15.1 -21.2)"/><path d="M295.2,109.2l-0.2,1.2h-0.4l0.3-1.2h0.3Z" transform="translate(-15.1 -21.2)"/><path d="M101.1,91.7v3.9h-0.5l0.2-3.9h0.2Z" transform="translate(-15.1 -21.2)"/><path d="M100.9,90.5V86.7h0.3v3.8h-0.3Z" transform="translate(-15.1 -21.2)"/><path d="M101,81.4l0.4,1.6H101q0-.8,0-1.7h0Z" transform="translate(-15.1 -21.2)"/><path d="M78.7,119.3l-2,.5Z" transform="translate(-15.1 -21.2)"/><path d="M237.4,255.9l2.4,0.6-0.2.7-2.1-1.2h0Z" transform="translate(-15.1 -21.2)"/><path d="M307.5,214.8l0.9-.4,0.2,0.4-0.9.5Z" transform="translate(-15.1 -21.2)"/></svg>