<svg id="rice-milk_kids-food_Image" data-name="rice-milk(kids-food) Image" xmlns="http://www.w3.org/2000/svg" viewBox="0 0 165.8 234.4"><title>rice-milk(kids-food)</title><path d="M109.2,74.9a14.7,14.7,0,0,1,2.7-.6h7l12.7-.4c3.9-.2,7.8-0.8,11.7-0.9s7.5,0.4,11.3.3,4.9-.7,7.3-0.8,5,0.2,7.9.4c-1.2-1.9-2.3-3.6-3.5-5.2-2.8-3.8-5.7-7.5-8.7-11.2L143.2,38.8c-1.4-1.7-2.6-3.6-3.9-5.5a2.1,2.1,0,0,1,0-1,3.4,3.4,0,0,1,.8.6l3.7,4.8c1.6,2.2,3.1,4.6,4.8,6.7s5.9,6.7,8.7,10.1,4.5,5.8,6.8,8.6,3.3,4,4.8,6A24.1,24.1,0,0,1,171,73c0.1,0.2-.6.8-0.6,1.2s0.2,3.5.2,5.3c0.1,7.1.1,14.2,0.1,21.3,0,2.2-.4,4.5-0.5,6.7s0,6.1-.1,9.1c-0.2,5.7-.5,11.4-0.8,17s-0.9,11.9-1.5,17.9-1.3,10.7-1.9,16.1c-0.2,1.8.3,3.7,0.2,5.5s-0.9,6.5-1.3,9.7-0.8,6-1.2,8.9c-0.6,4.8-1.4,9.5-1.8,14.3-0.3,3-.2,6.1-0.4,9.2s-0.5,5.8-.7,8.7c-0.1,1-.2,2-0.3,3a2.5,2.5,0,0,1-.6.9,2,2,0,0,1-.4-0.8c0-1.8-.9-0.6-1.5-0.5-3.1.8-6.3,1.4-9.4,2.3s-4.6,1.8-7,2.5-6.2,1.3-9.2,2.1c-5,1.2-10.1,2.4-15,3.9s-9,3.2-13.5,4.6c-3.1.9-6.3,1.3-9.4,2s-4.6,1.4-6.9,1.9a38.6,38.6,0,0,1-5,.7h-3l-0.3-.2c-0.1-2.3-2.3-2-3.5-2.6q-8.6-4-17.5-7.5c-6.9-2.7-13.9-5.1-20.8-7.7l-9.8-3.8H26.9l0.8,1.1-1.2-.4L9,216l-1.1-.4,0.4,1.1a1.8,1.8,0,0,0-.7-0.5l-1.2.2-1.1-.2,0.2-1L6.2,216,6.9,215a1.3,1.3,0,0,1,.2-0.4l0.5,0.2,1,0.5a3.7,3.7,0,0,0,.2-1c-0.1-1.8-.4-3.6-0.4-5.4q0-5.4.3-10.8t0.9-13.2c0.2-2.1.7-4.1,0.8-6.2s-0.1-4.3-.1-6.5c0.1-4.1.4-8.3,0.6-12.4s0.4-7,.7-10.5,0.8-7.3,1.2-10.9,0.8-7.2,1.1-10.8,0.5-9.3.9-13.9c0.1-1.7.7-3.4,0.9-5.2,0.5-4.3.9-8.5,1.4-12.8s1.2-9.4,1.8-14.1c0.3-2.6.6-5.2,0.9-7.9l-0.6.2a110.9,110.9,0,0,1,2.9-10.9c0.6-1.5,2.2-2.8,3.7-3.9,4.3-3.1,8.6-6.1,13.2-8.8s7.3-3.5,11-5.3l5.6-3,3.1-1.5a1.3,1.3,0,0,0,.4-0.9c0.5-3.6.9-7.2,1.5-10.8s3.6-4.8,6.8-5.3c5.1-1,10.3-1.8,15.4-2.9s11.3-2.9,17-4.1c3.5-.7,7.2-0.5,10.8-1s9.1-1.9,13.7-2.7,7.6-1.2,11.3.2a7,7,0,0,1,2.3,1.8c3.4,3.6,1.5,7.9,1.4,11.9,0,1.3-.1,2.5-0.2,3.8a2.4,2.4,0,0,1-.7.9,2.4,2.4,0,0,1-.4-0.9c0.2-3.6.5-7.1,0.7-10.7a4.3,4.3,0,0,0-.3-1.2c-0.9-3.4-3-5.6-6.6-5.3s-8.3,1.1-12.5,1.7l-10.5,1.6L95.9,18.5,85.5,20.6,73.8,23.1,66,24.9l-3.1.9L64,26.4c-2.7.3-2.8,2.6-2.9,4.3s0.6,3.6,1.1,5.8l0.6-3.4H63l-0.4,5.1H62.1L61,32H60.7c-0.3,2.2-.6,4.5-0.9,6.7s0.7,1.4,1.7,1.1a26.7,26.7,0,0,0,3.8-1.4c0.4-.2.3-1.2,0.4-1.9a19.7,19.7,0,0,0,0-3.9l-0.8,4.1a2.5,2.5,0,0,1-.4.6,1.8,1.8,0,0,1-.4-0.7c0-1.9.2-3.7,0.2-5.6A14.3,14.3,0,0,0,64,29a0.9,0.9,0,0,1,.1-0.4h0.2a1.1,1.1,0,0,1,.3.5c0,1.9,0,3.8-.1,5.8a1.7,1.7,0,0,0,.1,1L66,30.4l0.5-1.6h0.2a1.9,1.9,0,0,1,.1.5,62.4,62.4,0,0,0-.5,7.1L67,33.4h0.3l-0.8,3.4c-0.2.9-.6,1.5,1,1.2,3.1-.6,6.3-0.9,9.4-1.5a77.5,77.5,0,0,0,8.3-1.8c0.6-.2.9-1.5,1.3-2.4l3.4-8.6a7.9,7.9,0,0,0,.2-1.2l-1.7,1.9L88,24.3l2.1-2a3.1,3.1,0,0,1,.3,1.3c-0.3,1.2-.7,2.3-0.9,3.6L90.8,25H91c-0.8,1.5-1.6,3-2.3,4.5s-1.3,3.1-1.9,4.7a0.9,0.9,0,0,0,.5.6l8.3-1.2,3.7-.3,6.1-.4h7.5l11.9-.5,12.2-.6,0.6,0.2a0.5,0.5,0,0,1,0,.5l-0.6.2-8.4.4h-3.7l-11.9.5c-2.2.1-4.4-.2-6.6,0-3.9.3-7.8,0.7-11.8,1.1s-8.3,1-12.4,1.7L64.6,39.7a12.2,12.2,0,0,0-2.9.9,1.6,1.6,0,0,0-.6,1.3c1.8,2,3.7,3.9,5.7,5.8l6.7,6.5c2.3,2.2,4.7,4.2,6.9,6.6a58.5,58.5,0,0,1,3.8,5.5c1.7,2.4,3.8,4.5,5.1,7.1a39.6,39.6,0,0,1,3,8.3c0.3,1.3-.1,2.7-0.2,4.1s0.5,2.1,2,1.3a2.4,2.4,0,0,1,1.3-.3l-0.9.4c-2.7.5-2,2.6-2.1,4.3-0.3,4.5-.5,9-0.7,13.6s-0.3,10.2-.8,15.3-1.4,9-2.1,13.6c-0.2,1.5-.2,3-0.4,4.5s-0.7,5.2-.9,7.8-0.2,6.6-.6,9.9-1.1,5.6-1.6,8.3c-0.2,1,0,2.1-.2,3.1-0.5,4.2-1.1,8.4-1.5,12.6s-0.5,7.4-.7,11.1c-0.3,5.7-.6,11.3-0.9,17a2.2,2.2,0,0,0,.9.9l0.5,0.2a0.4,0.4,0,0,1-.1.4c-2.3.9-1.2,2.8-1.3,4.4-0.3,5.4-.7,10.8-0.8,16.2-0.1,2.7.2,5.5,0.2,8.2a28.9,28.9,0,0,1-.4,4.2c-0.4,2.5,0,2.9,2.5,2.4l10.9-2.5c4.6-1.2,9.2-2.4,13.8-3.7s7.8-2.8,11.8-4,8.4-2,12.7-3c2.6-.6,5.2-1,7.8-1.7,5.4-1.5,10.7-3.2,16.2-4.5,3.3-.8,3.1-3,3.2-5.5s0.5-6.9.8-10.4,1.1-9.3,1.7-13.9l1.5-12.3c0.5-3.9,1.3-7.8,1.2-11.6-0.2-8.2,1.9-16.2,2.2-24.4,0.1-3.3.4-6.7,0.7-10s0.9-6.2,1-9.3-0.2-4.9-.2-7.3,0.2-4,.3-6c0.2-3.5.6-7.1,0.6-10.6,0.1-5.3-.1-10.6-0.1-16s-0.1-9.3-.2-13.9a14.5,14.5,0,0,1,.2-1.7c-2.8,0-5.4-.1-8,0s-4.7.6-7,.7-4.9,0-7.3,0h-3.9l-3.2.2-14.3,1c-1.8.1-3.5-.3-5.3-0.4s-2,.4-2.9.1c-3-1-5.6,1.2-8.5.7h0ZM76.9,230.4l-0.6-.4c-0.8-.9-1.4-1.7-2.7-0.5a19.8,19.8,0,0,1-3.7,2.6c-1.7,1-.7,1.8,0,2.6a1.5,1.5,0,0,0,1.3-.1A51.7,51.7,0,0,0,76,232a4.6,4.6,0,0,0,1-1.6,2,2,0,0,0,.9.6c1-.3,2.4-0.5,2.8-1.2s0.2-2.4.1-3.6a1.1,1.1,0,0,0-.9-0.5l-4.2,2.5a0.6,0.6,0,0,0-.1.6Zm-4.5-15.2c0-.6.3-1.5,0-1.7s-1.1-2.7-3-1.3c-3.4,2.5-6.9,4.8-10.3,7.2-1.4,1-4,1.6-1.8,4.2h0c0.5,0.1,1.2.5,1.6,0.3s2.1-1.7,3.2-2.4,3.2-.8,1.3-2.8a2.3,2.3,0,0,1-.3-0.5,1.3,1.3,0,0,1,.7.7c0.7,1.6,1.6.7,2.3,0.1s-0.1-1.1-.2-1.7-0.3-1.1-.5-1.6c0.8,2.1,1.9,2.7,3.9,1.5a5.4,5.4,0,0,0-1.1.8,1.6,1.6,0,0,0-.5,1.1,11.6,11.6,0,0,0,1.6,1.9,0.6,0.6,0,0,0,.6.1l4.9-2.9a3,3,0,0,0,.8-0.8C74.9,216.3,74.5,214.6,72.5,215.2Zm6.3,5.5-1.1-.9c-0.6-.5-1.5-1.7-1.8-1.5a60.9,60.9,0,0,0-5.5,3.2,0.4,0.4,0,0,0-.1.4c0.9,2.3,2.1,2.7,4.2,1.3a21.7,21.7,0,0,1,2.4-1.2,7.7,7.7,0,0,1-2.7,1.8c-2.1.7-1.1,1.7-.3,2.7s1.2,1.9,2.5.8a8.8,8.8,0,0,1,3-1.8c1.8-.5,1.9-1.8,1.9-3.2,0.1-3.4.1-6.8,0.1-10.2a8.1,8.1,0,0,0-.3-1.6l-3,1.6a2.7,2.7,0,0,0,.3,1.1l1.4,2.6c-1.6-.3-0.8-4.2-4.2-2.5A5.7,5.7,0,0,0,77,212a26.2,26.2,0,0,0-1.6-3l-3.9,2.5c1.2,0.9,1.5,3.7,3.9,1.9a4.6,4.6,0,0,0-1,1.2c1,1.5,1.8,3.6,4.3,1.6l-0.6.5a6.2,6.2,0,0,0-1.3,1.1,34.1,34.1,0,0,0,2,2.9h0ZM34.7,58.8h0V56.3l-1.2,1.9-0.2-1.8-0.7.2,1.6,6.8h0.4V61.1a9.7,9.7,0,0,1,.3,2.3,5.5,5.5,0,0,1-.1.8,2,2,0,0,1-.7-0.6c-0.4-1.1-.8-2.3-1.2-3.5a15,15,0,0,0,0,3.9,1.4,1.4,0,0,0,.8,1l5.6,0.9L42,66.8a11,11,0,0,1-4.4.1l-7.5-1.7-5.8-1.2a1.1,1.1,0,0,1-.4-0.4l0.3-.2,2.9,0.5,5.5,1.1-1.4-3.7,0.2-.2,1.1,2.2c0-.7,0-1,0-1.2l-0.6-5.2H31.6c-0.3.8-.6,1.6-0.9,2.4a4.2,4.2,0,0,1-.7.9l-0.3-.6-1.7,1.2a3.4,3.4,0,0,0-.5,1l-0.5-1.1-1,1.7-0.9-1.4c-2.5,1.1-2.4,3.9-3,6.1a80.3,80.3,0,0,0-1.7,10.2Q18.7,89.5,17.2,102c-0.6,5.4-1.2,10.8-1.7,16.2a10.6,10.6,0,0,0,.1,1.7l0.5-.3c-3.6,21.9-4.7,44.4-5.4,67.5l2-2.8,0.3-.3h0.2a1.2,1.2,0,0,1-.2.4c-0.5.8-1.4,1.4-1.6,2.3-0.6,2.6-.9,5.3-1.3,7.9-0.2,1-.2,2.1-0.4,3.3l1.6-1.8h0c-1.7,2.5-2.6,5.2-1.9,8.3L10,211a4.4,4.4,0,0,0-.2,1,15.9,15.9,0,0,0,.2,1.8c0.1,0.3.2,0.6,0.2,1l1-.6a15.1,15.1,0,0,0,1.8-1.6c0.7-.8,1.3-1.7,2-2.7l0.6-.3,0.9-.8,0.7-.8h0.1l-5,5.6a24.7,24.7,0,0,1-2.1,2,0.8,0.8,0,0,0,.3.3,23.3,23.3,0,0,0,3.1,1.2,3.3,3.3,0,0,0,2.3,0,17.6,17.6,0,0,0,2.9-2.9,6.8,6.8,0,0,0,.8-1.4l0.5,0.5L17,217a9.1,9.1,0,0,0-.9,1.6c3,1.5,5.9,3.3,9,4.5s9.1,3.3,13.6,4.9l11.8,4.3c3.4,1.2,6.8,2.4,10.2,3.8s5.5,2.5,8.2,3.7l9.3,4a6.8,6.8,0,0,0,1.8.2c0.1-2.6.3-5.2,0.3-7.7s-1-1.6-2.1-1l-2.5,1.6c0.3-.8.9-1.7,1.5-1.8,2.8-.2,3.3-2,3.3-4.3a1.6,1.6,0,0,0-.2-0.5l-2.7,1.3a2.8,2.8,0,0,1-.9.4l-4.7,2.7-1.2.8,1,1.4,3.4,3.9-0.7-.3L69.6,235c-0.5-.5-1.2-1.4-1.6-1.3s-1.4.9-2.5,1.7l-1.6.4-0.5-.2,0.2-.3c1.9,0,1.6-.8.6-1.7s-1.4-3.2-3.5-1.3-2.6,1.3-3.2-.8l1.8,1.5-1.7-3.6c0.7,1,1.1,2.2,1.7,2.4s1.8-.7,2.7-1.1a4.5,4.5,0,0,1,1.6-1,1.7,1.7,0,0,0,.8-0.7,9.8,9.8,0,0,0-1.2-2,2.1,2.1,0,0,0-1.1.5c-0.5.4-.9,1-1.3,1.5a2,2,0,0,1-.8.2,1.3,1.3,0,0,1,.1-0.6l1.8-1.5c0.5-.4.5-3.5-0.1-3.9H61.4l-3.1,2.2a6.5,6.5,0,0,0-1.6,1.2,3.7,3.7,0,0,0-.2,1.7h0l-0.9-.9a3,3,0,0,0-.2,1.5,21.6,21.6,0,0,0,2,2.6L55.9,230c-0.7-.8-1.1-2.4-2.7-1a3.1,3.1,0,0,1-1.2-.1,7.1,7.1,0,0,0,1.3-.7,4.8,4.8,0,0,0,.6-0.9H52.4c-1-1.2-2-1.3-3.1-.2a1.3,1.3,0,0,1-.7,0l0.4-.6a12,12,0,0,0,1.2-1.1,12.1,12.1,0,0,0-2-2.3,8.2,8.2,0,0,0-1.4,1H46.2a1.5,1.5,0,0,1,.2-0.5l3-3.2a32.1,32.1,0,0,0,2.9-2.2c1.8-1.7-.7-2.5-0.8-3.9a0.7,0.7,0,0,0-.5-0.3l-3.8,3a1,1,0,0,1-.6.4l-4.1,3.2a2.6,2.6,0,0,0-.7.8l2.7,3.7,1,1.4a0.9,0.9,0,0,1-.2.4l-0.9-.9-1.2-1.7-2.1-3.2,2.4-1.6,2.4-2.1a9.8,9.8,0,0,0,1.1-1.4v0.3l4.4-3.3H51.4c0.6,1.2,1.1,2,1.4,2.9s1,1.1,1.8.4a45.7,45.7,0,0,1,3.5-3.1c1.7-1.2,3.6-2.2,5.3-3.3a1.6,1.6,0,0,0,.3-1.4,3.4,3.4,0,0,0-.8-1.1l-0.3.3,2,1.6L58.2,214c0.2-.1-0.2-0.1-0.6.2a14.1,14.1,0,0,0-2,1.6c-0.6.5-1.5,1.2-1.5,1.8a2.2,2.2,0,0,0,3.4,2.2,29.3,29.3,0,0,0,3.3-3.3h0c2.1,0.6.9-.7,0.7-1.2a3.6,3.6,0,0,0,1.2.8c1.7-1,3.3-2.1,5.5-3.6l-2.8-2.2a16.1,16.1,0,0,0,2.9,1.8c0.4,0.2,1.2-.5,1.9-0.8a0.6,0.6,0,0,0,0-.5l-4.4-6.2c-0.8-1.1-1.4-2.3-2.1-3.4a10.9,10.9,0,0,1,2.8,3.9,1.8,1.8,0,0,0,2.8,1l2.7-1.8a0.7,0.7,0,0,0,.2-0.7l-4.9-6.3a1,1,0,0,0-.9-0.2l-3.3,2.1a8.1,8.1,0,0,1,1.8-1.8c0.6-.5,1.5-1.5,1.3-1.7a54.4,54.4,0,0,0-3.3-4.3l2.2-1.6a13.1,13.1,0,0,0,2.2-1.4,3.4,3.4,0,0,0-.6-1.4l-2.8-4.9,0.3-.2-1.5-2.1-1,.8-2,2.4-0.5-.5,3.5-3.8,0.7-.2c-0.7,1.2-.6,1.9,1,2l2,0.2c-1,.4-2.1,1.3-0.4,3.1a3.9,3.9,0,0,1,.1.4c0.8,1.2,1.3,3.1,2.4,3.5s2.5-1.1,3.7-1.7l-1.2-1.7-0.4-.4h0.1l0.8,0.7a1.6,1.6,0,0,0,0-.6l-2.5-3.7a1.7,1.7,0,0,0-.6-0.5l-0.3.3a2.4,2.4,0,0,0,.3.8l1,1.3a12.2,12.2,0,0,1-1.9-1.9,0.9,0.9,0,0,1,.1-0.5,3.6,3.6,0,0,0,.2-1.4c-0.3-1.1-.8-2.2-1.3-3.4l-0.5-.9,1.4-1a9,9,0,0,0-.1,2.9,19.5,19.5,0,0,0,2.1,3.8c0-.5-0.1-0.2,0-0.1l3.7,5.6h0.6l3.8-1.7a19.6,19.6,0,0,1-2.9,1.9,1.4,1.4,0,0,0-.7.9,10.4,10.4,0,0,0,1.7,2.5,2.3,2.3,0,0,0,1.8.5,26.3,26.3,0,0,0,3.4-1,4.8,4.8,0,0,1-1.8,1l-2,.8,2.6,4c1-.7,2.5-1.3,2.9-2.3s-0.1-2.5-.2-4.2c-0.1.2,0.2-.1,0.2-0.4s-0.2-1.6-.1-2.3,0.6-3.2.8-4.8c0.5-4.4.9-8.9,1.4-13.4s1.4-8.7,1.8-13.1,0.8-11.7,1.4-17.6c0.3-3.2.9-6.4,1.2-9.6,0.6-6.2,1.1-12.4,1.6-18.7s0.8-10.7,1.1-16.1c0.1-2.4,0-2.4-.7-2.5a19.1,19.1,0,0,0,.4-4c-0.3-3.2-.4-5.2-3.6-5.9S79.9,77.2,76.1,76L65.4,73l-4.8-1.5c0.5-.5-0.1-0.3-0.6-0.4L45.3,67.6a26.5,26.5,0,0,0-3-.4,13.1,13.1,0,0,1,4.4.2l12.4,3a27.2,27.2,0,0,0,3.7.4l-0.9.6,28.7,8.3a6.1,6.1,0,0,0-.2-1,4.1,4.1,0,0,0-.8-1.7c-0.9-.8-2-1.3-2.8-2.1a5.6,5.6,0,0,1-.9-1.8c0,0.8.1,1.7,0,2.5a5.9,5.9,0,0,1-.4,1.3,3.6,3.6,0,0,1-1.4-.8c-0.7-1.3-1.3-2.7-2-4.4,0.2,1.4.3,2.5,0.4,3.6a0.6,0.6,0,0,1-.2.5,0.8,0.8,0,0,1-.6-0.2,5.8,5.8,0,0,1-1-1.3l-2.8-6V69H77.3l0.2-1.2a3.7,3.7,0,0,1,.8.8c0.3,0.7.5,1.4,0.8,2.1l2.4,4.8,0.7-.3-1.1-4.6a4.4,4.4,0,0,1,0-.9,2.9,2.9,0,0,1,.6.7c0.7,1.6,1.4,3.3,2.2,5a5.3,5.3,0,0,0,1.2,1.2,3.4,3.4,0,0,0,.3-1.6c-0.9-2.3-1.9-4.7-3-6.9s-1.9-4.1-4.5-4.9c-0.9-.3-1.5-1.5-2.2-2.2a1.9,1.9,0,0,1-.4.8,1.2,1.2,0,0,1-.9-0.3l-3.1-3.5a1.2,1.2,0,0,1-.4.5,0.7,0.7,0,0,1-.6-0.3l-2.4-4-1.7-3-0.5.3,2.8,5.4a3.6,3.6,0,0,1-1.8-1.5L66.3,55l-0.2.3-0.5,1.4A11,11,0,0,1,64,55.2c-0.7-.9-1.2-1.9-1.9-2.9a0.9,0.9,0,0,0-.1.6c0,0.4,0,.8,0,1.2a3.5,3.5,0,0,1-.9-0.8c-0.4-.8-0.8-1.7-1.4-3.1,0,1.5,0,2.4,0,3.3a1.4,1.4,0,0,1-.3.5,1.2,1.2,0,0,1-.5-0.4l-1.2-3.5c-0.1,1-.1,1.7-0.3,2.5a2.8,2.8,0,0,1-.6.9,3.8,3.8,0,0,1-.5-0.9c-0.2-.8-0.4-1.6-0.5-2.5l-1.1,2.8-0.6-2.5a9.7,9.7,0,0,1-.3,1.8,4.3,4.3,0,0,1-.7,1,7.1,7.1,0,0,1-.2-0.9c-0.1-.6-0.1-1.3-0.1-2l-1.1,2.6-0.7-1.6L50,54.7V52l-1.4.8c-0.5.4-.4,2.2-2,0.3H46.4l-1.4.5a10.8,10.8,0,0,0-3.6.5,10.2,10.2,0,0,0-2.3,2l-0.3-.4-1.7.9-0.5.6-0.7-2-0.4,4.3ZM76,196.5l-0.2-.2a8.3,8.3,0,0,0,1.7-1,2.1,2.1,0,0,0,.8-1.5,11.6,11.6,0,0,0-1.4-1.9c-0.6-.9-1.1-1.6-2.3-0.8s-2.9,1.7-2.8,1.9a32.2,32.2,0,0,0,2.9,4.8,13.4,13.4,0,0,0,1,1.9,11.7,11.7,0,0,0,1.5,1.6c-0.2,2.2,2,3.4,3.2,5.2a3.8,3.8,0,0,1-1.5-1.1c-2.3-3.6-2.3-3.6-5.4-1.7a1.8,1.8,0,0,0,.1,1.3,7.1,7.1,0,0,0,.7,1.3c-0.9-1-1.3-2.6-3.2-1.2s-2.7,1.7-2.6,2a9.2,9.2,0,0,0,2.4,3.4c0.2,0.2,1.5-.3,2-0.8s3.3-.8,1.4-2.9v-0.2l0.3,0.2c0.6,1.1,1.2,1.3,2.2.4a4.6,4.6,0,0,1,1.5-.7v0.3l-1.3.9c-0.4.4-1.2,0.9-1.1,1.2a9.9,9.9,0,0,0,1.2,2.4,0.7,0.7,0,0,0,.7.2l1.8-1.1c0.5-.4,1.4-0.9,1.5-1.4,0.3-2.4.4-4.7,0.5-7.1s-0.3-2.3-.3-3.4,0.4-3.1.6-4.6a0.6,0.6,0,0,0-.2-0.4L79,194.9H79ZM73.4,198c0.4-1.8-1.2-2.8-2.1-4.1a2.9,2.9,0,0,0-2,.5c-0.8.6-2,1.7-1.8,2.1A17,17,0,0,0,70,200c0.9,1.1,1.6,2.6,2.8,3.4s2.6-1,2.9-1.9-0.8-2.2-1.4-3.3A1.4,1.4,0,0,0,73.4,198Zm1.5,30c-1-.8-1.8-2-2.7-2a7.2,7.2,0,0,0-3.7,1.3c-3.2,2-3.2,2.1-1,4.6a1.9,1.9,0,0,0,1.8.2,12.6,12.6,0,0,0,2.5-1.6Zm-8-32,1.6-1.3c1.5-1,2.9-1.9.9-3.8s-1.4-3.2-3.5-1.2-3.1,1.5-1.3,3.5c0.3,0.3.4,0.7,0.6,1ZM50.2,221.5c1.1,1.2,1.3,3.1,2.9,1.6s3.2-1.6,1.4-3.7a3.6,3.6,0,0,0-1.6-1.2c-1,.6-1.7,1.7-2.6,2.3s-2.1,2.5-.2,3.9h0a1.7,1.7,0,0,0,.7.2,1.4,1.4,0,0,0,.4-0.9A13.9,13.9,0,0,0,50.2,221.5Zm22.5-35.1-4.2,2.2c0.9,1.3,1.6,3.3,2.8,3.6s2.6-1.3,4-2.1ZM84.9,70.9h0.2l0.4,0.7L88.2,76a2.2,2.2,0,0,0,1,.4,2.4,2.4,0,0,0,0-.8,20.5,20.5,0,0,0-1.6-3.3c-1.8-2.6-3.7-5-5.5-7.5l-2.2-3-0.4.2,5.5,10.1h0.2ZM70.3,225.5c-2.8-2.1-2.8-2.1-5.5-.2l-0.5.3a2.7,2.7,0,0,0-.6,1.2c0.5,0.7,1.5,1.8,1.8,1.6A46.7,46.7,0,0,0,70.3,225.5Zm-14.6.8h0c0.7-.5,2-1.1,1.9-1.4a9.8,9.8,0,0,0-1.6-2.8,2.6,2.6,0,0,0-1.2.5c-1.2.9-3.1,1.6-1.4,3.7a2.6,2.6,0,0,0,1.2.9A3,3,0,0,0,55.7,226.3Zm6-3.3,1.5,2.8,3.5-2.6c-0.7-.8-1.5-2.3-2-2.2S62.8,222.2,61.7,222.9Zm6,10.3,0.7-.9a25.6,25.6,0,0,0-3.8-2.5c-0.4-.2-1.3.8-2,1.3a0.7,0.7,0,0,0,.1.6,22.8,22.8,0,0,0,1.8,2,2,2,0,0,0,1.3.7A7.4,7.4,0,0,0,67.7,233.2Zm-0.5-10.1,2-1.6A26,26,0,0,0,67,219a3.8,3.8,0,0,0-1.5,1.3A14.9,14.9,0,0,0,67.2,223.1Zm2.5-1.3-1.6,1.4c0.8,0.7,1.6,1.3,2.5,1.9a2.2,2.2,0,0,0,1-.4ZM61.3,48.6a3.7,3.7,0,0,0,0,1l3.5,6L65.4,56a1.3,1.3,0,0,0,0-.6Zm-5.9-5.2L55.1,43l-4.6,3.2,0.2,0.3Zm1.2,8.1h0.5l0.5-3.2H56.9ZM59,52.7h0.4l0.2-2.9H59v2.9Zm11.3,5,0.4-.2-1.8-3.1-0.5.3Zm-18.1,167-0.7.9,1.2,1.1,0.4-.3Zm21.8-166-0.6.3,1.3,2.1,0.4-.3ZM79,62.8l0.4-.4-2.3-2-0.2.2ZM38.2,66.7V66.4l-3.1-.6v0.3ZM35.7,54.1l0.4,0.2,0.8-1.7H36.6ZM39.9,67V66.7l-1.5-.3v0.3Zm9.8-20.8-0.4-.2-0.5,1.3h0.2Zm-2.4,1.3-0.3-.2-0.7.6,0.4,0.3Zm22,4.3-0.2.2,1.2,1V52.8ZM42.6,49.2l-0.8.6a1.5,1.5,0,0,0,.2.6Z" transform="translate(-5.2 -12)"/><path d="M109.3,169.4l-1.7,6.3,1.6-1.2-0.6-.8a2.6,2.6,0,0,0,1.2,0l3.2-2.1,1-.4-0.5.9-0.7.8,0.6,1h-0.9l-3.1,1.2-1.3.4-0.3.2c0,0.8-.1,2,0.2,2.2s2.6-.3,3.4-1.5l0.2-.4,0.6-1.4v2.5l-0.2.6a38.5,38.5,0,0,0-1.5,3.7c-0.1.3,0.5,0.8,0.8,1.3a6.2,6.2,0,0,0,1.5-1.9,10,10,0,0,0-.1-2.7,1.5,1.5,0,0,1,.3-0.6,1.3,1.3,0,0,1,.4.4,3.8,3.8,0,0,1,.1,1.6c-0.5,1.9,1.6,1.8,2.3,2.9a38.1,38.1,0,0,0,3.5,4.7l1-.4a16.8,16.8,0,0,0,0,2.8,21.6,21.6,0,0,0,.9,2.5,1.7,1.7,0,0,1-.2.8,1.8,1.8,0,0,1-.8-0.4,14.1,14.1,0,0,1-.6-1.9l-1.3,1.6,7.3,4.4c-0.8-1.4-.9-3.7-3.4-2.5,2.3-2.4.1-3.7-.9-5.3a2.8,2.8,0,0,1-.2-0.6,1.6,1.6,0,0,1,.7.2l2.1,2.6,1.6-.6c-1.6,2.7,1.4,7.1,5.5,7.4l-4.5-5-0.7-.6,1.2-.5c-1.2-1.1-2.8-2.2-3.8-3.7s-2.9-5.7-4.4-8.6a3.6,3.6,0,0,0-.8-0.7,1.8,1.8,0,0,1-.7-0.8,37.7,37.7,0,0,1-.5-5.7c0-.9.8-1.7,1.3-2.6l2.5,1.7c1.3-.5,1.7-2.9,1.3-5.5a60.9,60.9,0,0,1-.4-10c0-.7,1.3-1.4,2.1-2,3.5-2.4,6.9-5.1,10.7-6.9,2.2-1,5.1-.7,7.6-0.6s6.9,0.2,10,1.3a13.5,13.5,0,0,1,8.5,7.8c0.2,0.6,0,1.3.2,1.9a8.5,8.5,0,0,0,.8,1.2,1.8,1.8,0,0,1,.1.9c-0.4,4.4-.8,8.7-1.3,13.1s-1.2,10.9-1.9,16.4c-0.3,2.6-.8,5.2-1.1,7.8q-0.8,6.9-1.5,13.8c-0.2,2.2-.1,4.5-0.5,6.6a8.9,8.9,0,0,1-6,6.5,36.4,36.4,0,0,1-11.2,2c-2.5.1-5-1.3-7.5-2l-1.8-.5c-3-.7-3.6-2.8-3.5-5.5a15.5,15.5,0,0,0-.4-3.3,0.7,0.7,0,0,0-.6-0.3l-8.5,1.2-4.1.3-0.4-.2a0.6,0.6,0,0,1,.1-0.5c2.2-4.1,6.6-5,10.1-7.2,1.4-.8,3.4-1.1,2.8-3.5a1.1,1.1,0,0,0-.9-0.4c-4.4.9-8.9,2-13.3,2.6a35.1,35.1,0,0,1-18.9-2.3,24.8,24.8,0,0,1-3.3-1.6,2.2,2.2,0,0,1,.1-1.4l6.3-.6,10.7-.9,4.7-.3-0.5-.6h0.9v-0.5h-3l-3.9.6c-2.7.2-5.4,0.5-8.1,0.5s-6-.4-8.4-2.5a20.1,20.1,0,0,1-2.7-3.8,2.9,2.9,0,0,1,1.2-.7c1.2,0.6,2.4,1.4,3.5,2.1l-0.3-2.1a17.5,17.5,0,0,0,2.1,4c1,1.1,2.5,1.7,3.8,2.4l0.5-.8-2-1.4-4.1-4.7,1.7,1.1,1.1,1.2,0.9-2.1a29.5,29.5,0,0,0,2.3,2.4q2.2,1.9,4.6,3.5a2.7,2.7,0,0,0,1.4-.1,2.1,2.1,0,0,0-.3-1.1l-2.7-1.5-0.7-.6,0.5-.3,0.3,0.3,3.5,1.6c0.2,0.1.2,0.7,0.4,0.7l4.1,0.8a8.7,8.7,0,0,0,1.8-.3c-8.2-2-13.9-6.3-16.1-14-0.6-1.9-2.7-4.8,0-6.7l0.2,4.9,1-.2-0.7-3.1c0-.2-0.1-0.4-0.1-0.7l0.7,0.4c1.6,1.4.5,2.9,0.1,4.4s-0.1.4-.2,1c0.7-1.1,1.1-1.8,1.5-2.4a2.2,2.2,0,0,1,.9-0.4l-0.4.7c-1,1.5-2.2,3-1,5a1.9,1.9,0,0,0,.6.4,4.9,4.9,0,0,0,1.1-1.7,6.2,6.2,0,0,0-.6-2,2.1,2.1,0,0,1,0-.7,1.1,1.1,0,0,1,.5.2c0.3,0.8.5,1.7,0.8,2.4a1.8,1.8,0,0,0,.7.7,12.5,12.5,0,0,0-.6,2.1c-0.3,3.5,2.2,4.9,4.8,6.2l2.4,0.9c-0.5-1.1-.9-2.2-1.4-3.3a8.2,8.2,0,0,0-1-1.3l1.5,0.8c2.2,0.9,2,3.7,3.6,5a6.8,6.8,0,0,0,4.2,1l-4.3-3.2-0.6-.5,0.6-.4-4.6-4h-0.3a4.1,4.1,0,0,0-.7,1.5,9,9,0,0,1-.2,2.9,12.6,12.6,0,0,1-.3-2.6c0-.7.7-1.3,0.7-2a6,6,0,0,0-.9-1.8,48.5,48.5,0,0,1-2.3-5.4c-0.7-2.2-1-4.5-1.6-7a5.6,5.6,0,0,1,.3-1.4c0.8-1.8,1.7-3.5,2.7-5.2a1.9,1.9,0,0,1,1.4-.3,1.9,1.9,0,0,1,.3,1.1c-0.1,1.3-.2,2.6-0.3,3.7a3.2,3.2,0,0,1,1.3.2,4.9,4.9,0,0,1,.1,2.6c-0.2.7-.9,0.9,0.3,1.5s1.3,2.9.6,4.4a32.1,32.1,0,0,1-2.9,4.1c0.5,0.7,1.4,1.9,2.4,3.1a1.2,1.2,0,0,0,1.1-.1,6.8,6.8,0,0,0,.9-2.4,9.6,9.6,0,0,0-.5-2.2,1.9,1.9,0,0,1,.3-0.8,2.4,2.4,0,0,1,.4.6c0.2,0.7.3,1.4,0.5,2.1h0.5c1-1.7,1.6,0,1.8.4a33.5,33.5,0,0,1,2,3.8l1.2-2.9,0.4,0.2-0.5,1.2a3.4,3.4,0,0,0,.9,4.2,11.6,11.6,0,0,1,1.1,1.9,1.5,1.5,0,0,0,.6.3,1.5,1.5,0,0,0,.1-0.7l-2.2-4.6a2.1,2.1,0,0,1-.1-0.7,1.5,1.5,0,0,1,.7.4c0.8,2,1.5,4,2.4,5.9,0.2,0.4,1.1.5,2.1,0.8-0.6-1.1-1-1.8-1.4-2.6a2.5,2.5,0,0,1,.1-1l0.5,0.7,2.6,3.4,0.4-.4-2-3-0.3-.6h0.8l2.6,5.5a0.9,0.9,0,0,1-.5.4,2.8,2.8,0,0,1-.9-0.3l0.5-.4a0.6,0.6,0,0,0,.2-0.5,0.7,0.7,0,0,0-.5-0.4l-3.5-.5h-0.3l0.3,0.3a17.8,17.8,0,0,0,2.6,2.7c0.6,0.4,1.6.1,2.3,0.2l4.8,0.7a1.5,1.5,0,0,0,.6-0.3c-0.8-1.3.2-2.9-1.8-4.1s-6.5-4.8-9.6-7.4a20.4,20.4,0,0,1-6.2-10.3c-0.4-1.4.1-3.2,0.4-4.8a24.2,24.2,0,0,1,.9-3.4,2.4,2.4,0,0,1,1.2-1.5l-0.3.9h0Zm44.1-3.5,4.7-5.3a0.8,0.8,0,0,0,0-.6l-1.5-.4a4.9,4.9,0,0,1,.3.8,4.9,4.9,0,0,1,0,.9h-0.3A47.2,47.2,0,0,0,150,158c-1.7-.5-3.6-0.2-5.4-0.1s-2.9.4-4.4,0.4-3.5-.5-5.2-0.2a34.5,34.5,0,0,0-5.8,1.8,5,5,0,0,0-1.8.8,12.8,12.8,0,0,0-1.5,2l4.4,3L131,166l-0.8.8,3.3,0.3c1.8,0.3,3.6,1,5.5,1.2a18.1,18.1,0,0,0,5.6-.2,46.3,46.3,0,0,0,7.1-2.4,21.9,21.9,0,0,0,3.2-2l-1.4,2.4-2.4.6,0.2,0.6Zm-7.6,38.9c0.1-.3.1,0-0.1,0.1-2,1.4-4,3.1-6.2,4.1-3.9,1.8-8,3.1-12,4.6a2.1,2.1,0,0,0-1.3.9,16.2,16.2,0,0,0,.4,3.4c0.2,1.2.2,2.8,1,3.6s2.4,1.2,3.6,1.5,5.4,1.9,8.1,2,5-.6,7.4-1.2a9.5,9.5,0,0,0,6.8-5,1.2,1.2,0,0,0,0-.4h-1.4l0.4-1,0.8-2-1.7.9-0.3.2H151a0.9,0.9,0,0,1,.1-0.4l2.8-1.1a0.8,0.8,0,0,1,.3.5l-0.8,1.6-0.3.8a3.6,3.6,0,0,0,1.2-.7,2.9,2.9,0,0,0,.3-1.4l1.6-15.3c0.2-2.5.4-4.9,0.7-7.4s0.6-4.7.8-7l-0.4-.2-4.3,5.3,0.3,0.3,2.9-1.9a43,43,0,0,1-4.3,3.4h-0.5a0.5,0.5,0,0,1,0-.4l5.1-6.2a5.8,5.8,0,0,0,1.3-1.9,34.3,34.3,0,0,0,.5-3.8l2.4-17.1c0.1-1,.3-2,0.5-3.3l-0.6.4-0.3-.6-1.4,2.9,1.5-.6-0.8,1.4-2.8,4a7.1,7.1,0,0,0,1.8-1.2h0.4a0.9,0.9,0,0,1,0,.4l-4.5,6.3a3.8,3.8,0,0,1-.8.7l0.7-1.1,3-3.7a1.4,1.4,0,0,0,.1-0.7l-0.5.3-1.6,2-0.5-.4,3.3-5.1a11.4,11.4,0,0,0-2,2.2,2.1,2.1,0,0,1-.8.4,2.8,2.8,0,0,1,.2-0.7l1.9-2.9A60.7,60.7,0,0,1,151,168c-1.5.7-3.4,0.6-5.1,0.9a7.6,7.6,0,0,1-1.5.5c-2.7-.2-5.4-0.9-8.1-0.6a14,14,0,0,1-8.2-1.6,39.4,39.4,0,0,1-5.3-4c0.1,0.7.1,1.8,0.2,2.8s0.6,3.8.9,5.7-1.1,2,.7,2.1a0.4,0.4,0,0,1,0,.3l-0.4.2-1.5,1.1a4.3,4.3,0,0,1-.7.8c-1.1.5-2.3,3.6-1.3,5.3l3.7-5.7a0.6,0.6,0,0,0-.1-0.4l-0.2-.7a1.6,1.6,0,0,1,.8,0,0.9,0.9,0,0,1,.4.8c-0.2.6-.6,1.2-0.8,1.8a0.7,0.7,0,0,0,.1.6l0.8,0.6H124a29.7,29.7,0,0,0-2.6,4.1c-0.2.5,0.4,1.5,0.8,2.2a1.5,1.5,0,0,0,1.4-.1c0.7-1.3,1.3-2.7,1.8-4.1a1,1,0,0,0-.2-0.4l-0.3-.7h0.9c0.2,1,.8,2.2.4,2.9s-0.5,3.7,0,5.6a4,4,0,0,1-.2,1.3h0.2a1.9,1.9,0,0,0,1-.7c0-1.6-.2-3.2-0.3-4.8a2.4,2.4,0,0,1,.3-0.8,1.6,1.6,0,0,1,.5.5c0.4,1.7.7,3.5,1.2,5.3s1.1,3.4,1.7,5.1a1,1,0,0,0,.7-0.1c1-2.2-.1-3.9-1.4-5.5l-0.4-.8a1.9,1.9,0,0,1,1,.3c0.9,1.4,1.7,2.9,2.4,4.2,1.8-2-.2-4.2-0.4-6.5l-0.5.8c-0.1-.3-0.1-0.6-0.2-0.9s-0.2-2.1-.3-3.2-0.6-4.5-.8-6.8a4.7,4.7,0,0,1,.5-1.7,6.8,6.8,0,0,1,1.8,1.4,10.6,10.6,0,0,1,.8,2.6,2.8,2.8,0,0,1,.5-0.8l1.4-.8,0.3,0.2-0.8.8a4.3,4.3,0,0,0-.7,1l-1.2,3.1-0.3.8a1.8,1.8,0,0,0,.9,0c0.6-1.1,1.2-2.3,1.8-3.4l0.6-1.3v1.2c0.1,0.9.4,1.9,0.1,2.5s-2,3.2-2.9,4.9,0.2,1.3.4,1.9a1.7,1.7,0,0,0,1-.3,6.1,6.1,0,0,0,1-1.9c0.3-1.1.4-2.3,0.7-3.4a1.7,1.7,0,0,1,.5-0.6c0,0.3.1,0.5,0.1,0.8s-1.2,1.7.5,2a1.1,1.1,0,0,1,.3.5h-0.8c-0.5,2-1,4-1.5,6l0.8,0.2,1.6-5.2a5.9,5.9,0,0,1-.3,2.9,0.5,0.5,0,0,0,.2.5c2.3,0.9,4.9,1.5,7,2.8a13.9,13.9,0,0,1,4.5,4.4c1.5,2.4,2.3,5.1,3.4,7.7l0.3,0.4,0.4-.4,1.3-2.3,0.3,0.2-1.6,2.9,1,0.6-3.2,5.9-0.4-.2,2.9-5.2a5,5,0,0,1-1.1-.6c-0.4-.5-0.7-1.3-1.2-1.4-4.7-1-8-4.2-11.1-7.6-1.3-1.5-2.1-3.4-3.3-5.3-0.9,2.8,2,4,2.3,6.3l-3.4-4.5a8.7,8.7,0,0,0,1.5,3.6,24.2,24.2,0,0,0,2.4,2.5,0.8,0.8,0,0,1,.2.5,0.6,0.6,0,0,1-.2.5l-5.6-.2c-0.9,0-1.9-.5-2.5-0.1s-3.5,2.2-5.2,3.2-1.3.2-1.3,0.5a7.7,7.7,0,0,0,.2,2l1.7-.3c0.9-.3,1.7-0.7,2.5-1a73.7,73.7,0,0,1,8.3-1.8,21.4,21.4,0,0,1,5.8.4C144.5,203.4,145,204.2,145.8,204.8Zm13.8-47.5a6.5,6.5,0,0,0-.3-1.6,12,12,0,0,0-7.7-6.8,57,57,0,0,0-12.7-1.4c-5.3-.2-9.4,2.9-13.2,6s-3.6,4.5-.7,7.9h0.5a34.1,34.1,0,0,1,4-2.4,23.5,23.5,0,0,1,3.9-.9,18.2,18.2,0,0,1,2-.5h2.4l1.4-.2h3.8l5.3,0.2c1.1,0,2.2-.2,3.3-0.2s2.9-1.1,4.4.3,2.1,0.5,3.1.6A7.9,7.9,0,0,0,159.7,157.3ZM90.7,202.2v-0.4l-1.7.5a3.5,3.5,0,0,0,.9.8l6.3,2.2c4.4,1.6,8.9,1.2,13.4.6a129.7,129.7,0,0,0,12.8-2.6,76.7,76.7,0,0,0,7.5-2.3,3.4,3.4,0,0,0,1.1-1.3,0.5,0.5,0,0,0-.1-0.5l-5.3-1.6-0.3.3c0.1,0.9.3,1.9,0.4,2.8a1.9,1.9,0,0,1,.1.7,2.1,2.1,0,0,1-1.1.2,9.3,9.3,0,0,0-1.3-.5c-5.3-.1-10.7-0.3-16-0.1S96.3,201.8,90.7,202.2ZM112.2,215c12-.1,22.9-2.9,32.8-10.1l-2.8-.5,0.3-.4a3.2,3.2,0,0,0-1.1-.3,25.5,25.5,0,0,0-4.2.5c-4.3,1.1-8.6,2.2-12.8,3.6-2,.7-3.9,2-5.8,3.1l-4.7,2.7A18.9,18.9,0,0,0,112.2,215Zm26.6-24.9a3.9,3.9,0,0,0-.3,1.4,22.2,22.2,0,0,0,1.6,3.3,24.3,24.3,0,0,0,9.8,8.4l1,0.3a3.4,3.4,0,0,0-.1-1.1c-1.4-3.6-2.9-7.1-6.5-9.2ZM117,184.5l-1,.2,0.5,5.1a11.7,11.7,0,0,1-1.3-2.5,5.6,5.6,0,0,0-.3-0.8,0.8,0.8,0,0,0-.5.2,1.8,1.8,0,0,0-.3,1.2c1,1.3,2,2.6,3.1,3.9l0.5-.5-0.2-.8,0.7,0.4a2.6,2.6,0,0,0,.7-1.1C118.3,187.9,117.6,186.2,117,184.5Zm-7.3,15.3h6a1.3,1.3,0,0,0,.1-0.9l-3.2-2.4-0.8-.5,0.5,1.1,0.6,0.9-1.2-.6a5.1,5.1,0,0,1-.4-0.6l-3.7-3.3-0.4.5a23,23,0,0,1,2.9,2.7,10.2,10.2,0,0,1,1.1,2.7Zm-1.3-8.3c-0.5-1.4-.9-2.7-1.4-4a4.4,4.4,0,0,0-1.3-1.1c-0.2.6-.7,1.3-0.6,1.8a20.1,20.1,0,0,0,1.6,3.5,7.5,7.5,0,0,0,1,1.2Zm-6.7-13.3-0.4-.8a1.4,1.4,0,0,0-.6.4c-0.6,1.9-1.2,3.7-1.8,5.6a1,1,0,0,0,.4.7H100c0.9-1.6,1.8-3.2,2.6-4.9a1.6,1.6,0,0,0-.6-0.8h-0.2Zm-1.6-4.4-0.9.2c-0.7,1.4-1.5,2.9-2.1,4.4a1.6,1.6,0,0,0,.5,1.1,1.1,1.1,0,0,0,.8-0.4c0.7-1.4,1.4-2.7,2.1-4.2A2.2,2.2,0,0,0,100.2,173.8Zm-3.9-.2,1.6,0.7,1.9-5.2a2.2,2.2,0,0,0-.1-0.9,2.3,2.3,0,0,0-.8.4,1.4,1.4,0,0,0,.1.7l-0.6-.3Zm37.9,16.1c-1.8,3.7-.7,6.2,1.9,8.9-0.5-1.9-.8-3.2-1.2-4.6s-0.6-1.2-.7-1.8A14.3,14.3,0,0,1,134.2,189.8ZM116,184.5l-1.6-2.4c-0.5.5-1.5,0.9-1.5,1.4a8.1,8.1,0,0,0,.8,2.7Zm15-6.8a18.6,18.6,0,0,0,.1,1.9,7.6,7.6,0,0,0,.5,1.4,14.2,14.2,0,0,0,.7-1.3,3.1,3.1,0,0,0,.4-1.5,25.6,25.6,0,0,0-.9-3.3l-0.5-.2ZM112,186.5l0.5-.2a12.5,12.5,0,0,0-.6-2.6c-2.5,0-1.3-2.7-2.7-3.4l0.3-.4,0.6-.8-2.2.5Zm-15.3,13a4.5,4.5,0,0,0,.4-1.2,6.3,6.3,0,0,0-.8-1.4l-3-3.1H92.6a1.4,1.4,0,0,0-.1.7l1.3,1.8Zm-8.6-1.2,1.3-1.3-4.1-3.8H84.8a0.6,0.6,0,0,0,0,.5ZM119,177.8c0.1-1.5.3-2.8,0.4-4.1s0-1.8,0-2.7l-0.2-.2-0.3.2A7.6,7.6,0,0,0,119,177.8Zm1.2-1.6-0.4-.6a12.4,12.4,0,0,0,2.7-1.8c0.3-.4,0-1.4,0-2.1a3.2,3.2,0,0,0-1.3.9A30.2,30.2,0,0,0,120.1,176.2Zm4.6,8.8-1.8,1.2L125,189l0.4-.2Zm7.5,8.7c-0.2.5-.7,1.3-0.5,1.6a24.8,24.8,0,0,0,2.5,2.8l0.2-.2Zm-1,2.1-0.7.8c0.9,0.8,1.8,1.6,2.8,2.3a4.5,4.5,0,0,0,1.7.3,4.3,4.3,0,0,1-1.3-.6C132.8,197.7,132,196.7,131.2,195.8Zm7.3,4.2-1.8-2.6-0.7,2.4Zm-26.9-5.3-2.4-3C108.5,193.1,109.9,194.8,111.6,194.7Zm13.6-31.4-0.3.4,4.2,2.9,0.3-.5ZM104.4,188c-0.4.8-1,1.4-.9,1.7a8.7,8.7,0,0,0,1.7,1.9ZM95,189.5h0.6v-2.3H95v2.2Zm33-.3a3.4,3.4,0,0,0-.8,1.2,10.5,10.5,0,0,0,1.6,1.8Zm24-31.5v0.4l3.4,0.7v-0.5ZM98.2,182.3l0.6,0.2,0.8-2.1a0.5,0.5,0,0,0,0-.3H99.2Zm34.8,2.3h0.3l0.4-1.3h-0.7v1.3Zm2.4,4.3-0.4-.2-0.5.8,0.5,0.3Zm-18.1-15.7h0.3l0.3-1.4h-0.4ZM90,197.1l-0.2.2,0.7,0.9,0.2-.2Zm67.4-38.2v0.3h0.8v-0.2Zm-33.5,2.8h0.3l-0.3-.9h-0.2Z" transform="translate(-5.2 -12)"/><path d="M100.9,52.3c0.9-2.3,1.8-4.4,2.5-6.6,1.1-3.9,4.3-5.3,7.4-7.2a12,12,0,0,1,9.6-1.3c2.7,0.7,5.8,1.4,7.9,3s5.1,5.4,4.1,9.4a29.3,29.3,0,0,1-3.1,7.7c-1.6,2.8-4.8,3.3-7.7,4.1s-6,1.3-8.9-.3l-8.4-4.4a4.3,4.3,0,0,1-.9-1.2ZM108.7,41l-0.7-.3c-0.5,1.1-1.5,2.3-1.5,3.4s0.2,5,1.3,7,3.1,2.7,4.9,3.6c3.8,1.9,7.8,1.8,12,.9s5.3-3.6,6.6-6.7-2.2-7.6-4.6-8.6a29,29,0,0,0-7-2.1,18.6,18.6,0,0,0-6.7.5c-1.6.4-3,1.7-4.4,2.5V41Zm-4.8,13.3c3.4-3.8.1-7.6,1.2-11l-2.6,7.6h0.2l1.7-3.6h0.2l-1,3.7a1,1,0,0,0,.7-0.4l0.7-.7a4.8,4.8,0,0,1-.1,1Zm15.3,3.2-6.4-1.3-0.2,1.6,1.1-.6L114,59c1.3-2.1,2.1-.4,2.9.4Zm-9.3-1.7-1,2.8,2.7,0.8,0.6-2.3-1.9,1.6Zm10.1,3.4,1.4-.9-1.2,2.2a1.5,1.5,0,0,0,0,.6,1.4,1.4,0,0,0,.6-0.3,16.6,16.6,0,0,0,.7-1.9c0.1-.4.2-0.8,0.3-1.2a2.1,2.1,0,0,0-.9-0.2A8.9,8.9,0,0,0,119.9,59.1Zm-13.1-2.9,0.6,0.2c0.3-.7.7-1.5,1-2.2a1.4,1.4,0,0,0-.5-0.7h-0.4Zm21.2-.9c-0.9.5-1.7,0.7-2,1.1a7.5,7.5,0,0,0-.6,2.2h0.3Zm-7.9,2.9-0.4-.6-1.9,1.7a2.8,2.8,0,0,0,1.1.5A9.5,9.5,0,0,0,120.1,58.3Zm-11.9-.9h0.3l1.5-2.2a0.8,0.8,0,0,0-.1-0.7,0.9,0.9,0,0,0-.6-0.1Zm20.6-1.3a0.7,0.7,0,0,0-.2-0.3h-0.4l-1.2,1.8a3,3,0,0,0-.2.9,2.3,2.3,0,0,0,.9-0.5A22.6,22.6,0,0,0,128.7,56.1Zm-18.1-.3v2.1c0.4-.7.9-1.4,1.3-2.1l-0.9-.6Zm14.4,2-0.5-.2-1,2.2,0.7,0.3Zm-19.4-3.6h0.5l0.7-2.6-0.6-.2Zm24.3-.7c-0.6.9-1.2,1.5-1.1,1.8s0.8,0.4,1-.2A8,8,0,0,0,129.9,53.4Zm-11.3,7.8V60.8L117,61a2.3,2.3,0,0,0,0,.4h1.5Zm-4.3-2a2,2,0,0,0,.7.4,0.6,0.6,0,0,0,.4-0.4,2.6,2.6,0,0,0-.4-0.7Zm-9-6.4a5.2,5.2,0,0,0-.6,1.3,1.6,1.6,0,0,0,.4.7ZM123,59.2l-0.4-.2-0.5,1.2h0.3Zm0.1-1.9-0.3-.2-0.7,1.4,0.2,0.2Z" transform="translate(-5.2 -12)"/><path d="M105.8,112.6l3-.6c2.5-.4,1.9,2.1,2.7,3.2a20.2,20.2,0,0,1,1.8,3.9c0.8-2.5,1.8-4.6,2.1-6.8s1.8-1.2,2.9-1.5a2.1,2.1,0,0,1,1.1,1.4c0.6,5.2,1.1,10.5,1.8,15.7,0.2,1.8-.8,2.4-2.1,2.9l-2.1.9a0.8,0.8,0,0,1-.7-0.4c-0.2-1.6-.3-3.3-0.4-4.9a4.2,4.2,0,0,0-.3-1l-0.9.5-0.3.2c-1.2-1.3-1.7-.1-2.4.6l-0.8-1.4-0.4-.6a2.2,2.2,0,0,0-.2.7c0,1.6-.3,3.4.1,4.9s-1.1,2.3-2.4,2.7l-2.5.8a0.7,0.7,0,0,1-.5-0.4c0.4-3.6.8-7.2,1.1-10.8s0.2-5.6.3-8.4a2.2,2.2,0,0,1,.4-0.8,2.1,2.1,0,0,1,.4.7c0.1,1.9.2,3.8,0.1,5.6s-0.4,4.4-.6,6.5-0.3,3.6-.4,5.4a0.6,0.6,0,0,0,.4.5,2.6,2.6,0,0,0,3-2.1c0-2.3,0-4.7-.1-7a15.6,15.6,0,0,0-.5-2,2,2,0,0,1,.2-0.8,2.2,2.2,0,0,1,.7.6c0.5,1,.9,2.1,1.4,3.2a1.4,1.4,0,0,0,.9.8,3.8,3.8,0,0,0,1.9-1.1,14.3,14.3,0,0,0,1-2.9,0.5,0.5,0,0,1,.4-0.3,2.8,2.8,0,0,1,1.3.7c0,1.5-.2,3-0.2,4.5a19.7,19.7,0,0,0,.1,3,6,6,0,0,0,.5,1.4c0.8-.6,2.5-1.3,2.4-1.8-0.4-5.4-1.1-10.7-1.8-16.1a0.7,0.7,0,0,0-.5-0.5,1.9,1.9,0,0,0-1.2.5c-0.9,2.6-1.6,5.3-2.5,8a2.7,2.7,0,0,1-.6.7,4.5,4.5,0,0,1-1.1-1.1c-0.8-1.7-1.5-3.5-2.1-5.3s-2-1.9-3.5-1.4H106Z" transform="translate(-5.2 -12)"/><path d="M146.1,110.5a19.4,19.4,0,0,0,3.2-2.6c1.2-1.4,1.9-.7,2.9.1a1.7,1.7,0,0,0,1.1-.1l0.9-.4a1.9,1.9,0,0,1,0,.9c-1.9,2.7-4,5.3-5.7,8.2-0.4.7,0.7,2.3,1.3,3.4s2.1,3.2,3,4.9-0.1,1.4-1.2,1.6a15.9,15.9,0,0,0-2.4,1.2,1,1,0,0,1-1-.3c-0.8-1.7-1.4-3.3-2.3-5.6,0,1.8,0,3,0,4.2s-0.2,2.3-1.9,2.1-1.9.3-2.4-.1-0.5-1.5-.5-2.3c0.3-5.5.6-11,.9-16.5,0-1-.3-1.9-0.3-2.9a1.1,1.1,0,0,1,.8-0.6,11.1,11.1,0,0,1,3.1-.1,2.3,2.3,0,0,1,.6,1.6A28.6,28.6,0,0,1,146.1,110.5Zm-3.9,15.3a1.8,1.8,0,0,0,.6,1,5.8,5.8,0,0,0,2.1-.1c0-2.3-.1-4.5-0.2-6.8a3.1,3.1,0,0,1,.4-1.1,2,2,0,0,1,.9.5c0.8,1.8,1.4,3.6,2.2,5.3s1,1.5,1.4,1.4c2.6-.3,2.7-0.8,1.2-2.9a4.8,4.8,0,0,1-1-1.3c-0.5-2.2-4.5-3.5-1.8-6.7,1.3-1.5,2.5-3.2,3.7-4.9a3.3,3.3,0,0,0,.5-0.9c-0.6-.4-1.4-1.2-1.7-1.1A10.7,10.7,0,0,0,147,111c-0.7.9-.6,2.4-1,3.5a3.2,3.2,0,0,1-.8,1l-0.4-.2c0-1.1-.1-2.2,0-3.3s0.4-3.2.4-4.7a3.2,3.2,0,0,0-1.5-.6,0.8,0.8,0,0,0-.4.5c0.2,2.8.8,5.4-.1,8.3S142.5,122.1,142.2,125.8Z" transform="translate(-5.2 -12)"/><path d="M112.5,93.7l1.8,4.2c0.9,2,1.9,4,2.7,6a1.2,1.2,0,0,1-.6.9l-2.8.3c-2.6.4-2.4-1.5-2.9-3.1a25.7,25.7,0,0,0-2-4.2,1.3,1.3,0,0,0-.6-0.3,3.5,3.5,0,0,0-.2.6c-0.3,2.1-.5,4.3-0.9,6.4a2.2,2.2,0,0,1-1.5.9c-3.7.7-2.8-1.7-2.3-3.6a59.7,59.7,0,0,0,1.5-6.8,62.6,62.6,0,0,0,.1-8.7,2.9,2.9,0,0,1,2.4-3.2,20.6,20.6,0,0,1,7.3-.1c2.7,0.5,2.8,4.1,1.3,6.6A37.2,37.2,0,0,1,112.5,93.7Zm-2.6.2-1.3-.4a2.5,2.5,0,0,1,1-.6c1.8,0.1,3.4-.3,4.2-1.9a14,14,0,0,0,1.5-5.3c0-.6-1.8-1.6-2.9-1.8-5.3-1.1-6.5-.1-6.8,5-0.1,3-.5,6-0.8,9s-0.3,3.5-.5,5.2a5,5,0,0,1-.5,1.2l2.1,0.3a1,1,0,0,0,.4-0.7c0.4-2.9.7-5.7,1-8.6a4.1,4.1,0,0,1,.5-1.1l0.4,0.2c0.9,1.2,1.9,2.5,2.7,3.8a6,6,0,0,1,.4,1.8,2.3,2.3,0,0,0,.2.7l1.2,1.9c0.3,0.5.4,1.4,0.7,1.5a6.3,6.3,0,0,0,2.2-.1l-0.8-1.4h0c-0.5-1.7-.8-3.4-1.4-5.1s-0.9-3.1-3-2.4h-0.6A2.5,2.5,0,0,1,109.9,94Zm2.1,9.2h0.3l-0.5-1.6h-0.3Z" transform="translate(-5.2 -12)"/><path d="M141.9,98c0-5,0-10.1,0-15.1a1.4,1.4,0,0,1,1-.9l9.2-1.2a1.3,1.3,0,0,1,.8.9,26.8,26.8,0,0,1-.6,3.8,1.3,1.3,0,0,1-.9.4l-4.6.5a1.9,1.9,0,0,0-.1,1.2,1.3,1.3,0,0,0,1,.4h2.1a20.9,20.9,0,0,1-.6,3.8c-0.1.3-1.4,0-2.2,0.2a1.6,1.6,0,0,0-.9.6c0.2,0.7.5,1.9,0.9,1.9s3.8,0.3,4.5-2l0.3-.3,0.3,0.3a28.1,28.1,0,0,1,.3,4c-0.1,2.5-1.2,3.1-3.8,3s-4.3.2-6.5,0.2c-0.3,0-.7-0.9-1-1.3Zm3.6-10.8L145,87c0.4-.8.6-2.1,1.1-2.1s3.3,0.2,4.8-.2,0.7-1.8,1.1-2.8a4.5,4.5,0,0,0-1.2-.2l-7.4,1a0.8,0.8,0,0,0-.5.6c0,1.8.3,3.6,0.2,5.4s-0.5,5.8-.7,8.7a1.2,1.2,0,0,0,.8.9c1.9,0.1,3.9-.1,5.9.1s2.4-.4,2.3-2.1,0-.7,0-1.1a1,1,0,0,0-.1-0.6,1.2,1.2,0,0,0-.7.1l-4.6.9a0.9,0.9,0,0,1-.7-0.3c-0.1-1.4-.2-2.8-0.3-4.3a0.8,0.8,0,0,1,.4-0.5c0.1,0,.3.3,0.5,0.3a5.2,5.2,0,0,0,2.3-.1c0.4-.2.4-1.2,0.5-1.8h-1.4l-1.6.4h-0.7a0.5,0.5,0,0,1-.1-0.4Z" transform="translate(-5.2 -12)"/><path d="M126.5,95.2a17,17,0,0,1,2.8-10.3c1.3-2.2,5.6-3.2,7.9-1.8,0.7,0.4,1.9,1.3,1.8,1.6a25.3,25.3,0,0,1-2,4.1h-0.5c-1.7-2.9-3.1-.8-4.7.2s-1.8,5.5-.9,6.8a2.2,2.2,0,0,0,1.7.9,9.7,9.7,0,0,0,2.2-1.8,2.6,2.6,0,0,1,.6-0.6,0.8,0.8,0,0,1,.7.3c0.6,0.9,1.7,1.8,1.6,2.6-0.1,2.5-1.7,4.1-4,5.1s-6.6-1.2-6.9-4.6C126.8,96.8,126.6,96,126.5,95.2Zm7.1-12c-0.9.5-2.4,0.8-3.2,1.7-2.6,3.4-4.4,9.8-1.8,14.3,0.6,1.1,2.3,2.5,3.3,2.4a5,5,0,0,0,4.7-4.2,3.4,3.4,0,0,0-.7-1.5,3.6,3.6,0,0,0-.9.5c-1.5,1.5-4.1,1.7-5,.3s0-8.9,3.2-10a4.4,4.4,0,0,1,2.9-.1c2.1,1,1.1-1.5,2-1.6a3.2,3.2,0,0,0-.9-0.7Z" transform="translate(-5.2 -12)"/><path d="M134.4,112.9c-0.2,3.4-.4,6.3-0.6,9.3a1.5,1.5,0,0,0,.9,1,6.9,6.9,0,0,0,1.6.1c1.9,0.2,2.3,1.3,2.1,4.3s-1.1,2.3-2.8,2.3a14,14,0,0,0-3.9.7c-2,.6-2.2-0.3-2.1-1.9q0.5-7.2.9-14.5c0.1-1.2-.5-2.9.1-3.5s2.6-1.1,3.9-1.5,0.1,1.7.1,2.5A9.8,9.8,0,0,1,134.4,112.9Zm-3.9,15.7c-0.2.9,0.4,1.3,1.9,0.8s2.5-.4,3.7-0.7a1.8,1.8,0,0,0,1.1-1.1c0.2-3.6,0-3.8-2.8-3.4a1.4,1.4,0,0,0-.6.7,3.2,3.2,0,0,0-.2.8,2.1,2.1,0,0,1-.8-0.8c0.1-3.9.5-7.7,0.4-11.6,0-.9,2.2-3.5-1.3-3.1-0.3,0-.5,1.1-0.6,1.8s0,2,0,3C131.1,119.3,130.8,123.6,130.5,128.6Z" transform="translate(-5.2 -12)"/><path d="M123.1,110.5a15.3,15.3,0,0,1,3-.2,1.7,1.7,0,0,1,1,1.2c-0.1,3.9-.4,7.8-0.6,11.7s-0.1,4.8-.3,7.2c0,0.4-1.1.7-1.8,0.9a9.9,9.9,0,0,1-2.3.1,0.6,0.6,0,0,1-.3-0.5,94.2,94.2,0,0,0,1-9.7c0-3.4-.6-6.7-0.9-10.1a2.6,2.6,0,0,1,.5-1.1Zm2.6,1.9c0.6-2.3-1.2-.7-1.9-1.2a3.9,3.9,0,0,0-.4,1.3,27.8,27.8,0,0,1,.4,2.8c-0.2,4.1-.4,8.2-0.7,12.3-0.1.9-.2,1.7-0.3,2.6a1,1,0,0,0,.7.3c0.6-.4,1.6-0.9,1.7-1.4,0.3-3,.4-6,0.4-8.9S125.8,115,125.8,112.4Z" transform="translate(-5.2 -12)"/><path d="M92.5,23.3l-1.1,1.3-0.2-.2,1.4-1.7h0.3a3.8,3.8,0,0,1,0,1.4c-0.4,1.2-.9,2.4-1.4,3.6a0.5,0.5,0,0,0,.1.5l1.7-3.5c0.5-.9,1.1-1.8,1.7-2.7l0.4-.2a1.2,1.2,0,0,1,.3.6c-0.2,1-.5,1.9-0.9,3.5l1.8-2.6,1.9-3a2.1,2.1,0,0,1,.8-0.4,1.9,1.9,0,0,1,.2.9l-2.6,7a4.7,4.7,0,0,0-.3,1.6c0.8-1.4,1.6-2.8,2.3-4.2s1.3-2.9,2-4.3l0.5-.3a1.3,1.3,0,0,1,.1.6L99.7,26a6.4,6.4,0,0,0-.2,1l1-.6-2.2,4.7H97.9a1.6,1.6,0,0,1-.2-0.8A17.9,17.9,0,0,0,98.8,26l-2.4,5.2-0.7,1.6a1.4,1.4,0,0,1-.6.3,1.7,1.7,0,0,1-.2-0.8L98,23.7a6.9,6.9,0,0,0,.6-3,42.1,42.1,0,0,0-2.5,4c-1.4,2.8-2.5,5.6-3.8,8.4a1.3,1.3,0,0,1-.6.3,1.2,1.2,0,0,1-.1-0.5l3.1-8.6a1.1,1.1,0,0,0-.1-1c-0.8,1.5-1.6,3-2.3,4.5s-1.8,4.2-2.7,6.2a1.4,1.4,0,0,1-.5.4,1.5,1.5,0,0,1-.2-0.7l3.2-9.3A8.9,8.9,0,0,0,92.5,23.3Z" transform="translate(-5.2 -12)"/><path d="M118.1,103.6c0.5-4.2,1-8.1,1.3-12s0.2-5.1.3-7.7a1.1,1.1,0,0,1,.8-0.6h2.8a2.7,2.7,0,0,0,1-.6l0.4-.3a1.7,1.7,0,0,1,.4.7c-0.4,3.4-.8,6.8-1.1,10.2s-0.4,6.7-.9,10c0,0.3-1.6.4-2.5,0.7a6,6,0,0,1-1.7.3A2.3,2.3,0,0,1,118.1,103.6Zm3.5-.7a1.9,1.9,0,0,0,.9-1c0.6-5.5,1.1-11,1.6-16.6a1.5,1.5,0,0,0-.9-1.1c-2.6-.9-2.4,1.4-2.5,2.6q-0.8,6.7-1.3,13.5C119.3,101.4,118.4,103.3,121.6,102.9Z" transform="translate(-5.2 -12)"/><path d="M104,20.7l-3.5,5.6h-0.2l1-1.8,2.6-4.2a1.8,1.8,0,0,1,.9-0.3,1.8,1.8,0,0,1,.1.8l-2.8,7.7-0.4,1.2,4.9-7.9,0.6-.6a1.9,1.9,0,0,1,.2.8c-0.2.8-.5,1.6-0.8,2.7l2.5-3.5a2.5,2.5,0,0,1,.8-0.5,2.5,2.5,0,0,1,.3,1.1c-0.4,1.6-.9,3.2-1.5,5.1l2.1-3.6H111l-2.7,5.4-0.2.4-1,1.5a8.2,8.2,0,0,1,.2-2c0.7-2.1,1.6-4.2,2.4-6.3a2.6,2.6,0,0,0,0-.8,1.7,1.7,0,0,0-.7.4L105.3,29a6.1,6.1,0,0,1-1.5,2.1l3.1-8.5-0.3-.2-2.4,4.1-3,5.5h-0.4a1,1,0,0,1-.2-0.6l3-8,0.9-2.6Z" transform="translate(-5.2 -12)"/><path d="M83.3,23.9l0.6-.5a4.7,4.7,0,0,1,.3,1.4,10.8,10.8,0,0,0-.4,1.8c0.6-.9,1.1-1.9,1.7-2.7a2.7,2.7,0,0,1,.9-0.5,2.4,2.4,0,0,1,.3,1c-0.4,1.8-.9,3.5-1.5,5.6l2.7-5.1h0.3c-0.4.8-.9,1.6-1.2,2.5L84,34.1a1.8,1.8,0,0,1-.6.5,1.7,1.7,0,0,1-.1-0.7c0.8-2.6,1.8-5.2,2.6-7.8a13.9,13.9,0,0,0,.2-2.7c-1,1.8-1.8,3.1-2.5,4.5s-1.4,3.1-2.1,4.6a1.6,1.6,0,0,1-.6.4,2.1,2.1,0,0,1,0-.7l2.6-7.5a1.9,1.9,0,0,0-.2-0.9h0Z" transform="translate(-5.2 -12)"/><path d="M127.6,20.3l-1.2,1.6-0.3-.2,1.8-2h0.3a3,3,0,0,1,0,1.2,12.2,12.2,0,0,0-1,3.3l3.1-5.2a3,3,0,0,1,.6-0.6,2.1,2.1,0,0,1,0,.8c-1,2.5-2,5.1-2.7,7.8l2.7-4.5h0.2l-3,5.2h-0.5a0.8,0.8,0,0,1-.2-0.6l1.8-5.2a3.2,3.2,0,0,0,0-.9l-0.5.7-4,7a7.8,7.8,0,0,1-.9,1.1,9.1,9.1,0,0,1,.4-1.7l3.3-7.2A2.4,2.4,0,0,0,127.6,20.3Z" transform="translate(-5.2 -12)"/><path d="M109.3,169.5a4.7,4.7,0,0,0,1.4-.9,4.2,4.2,0,0,0,.3-1.6l0.5,0.6c2.3-1.6,4.4-.2,6.5.4a0.4,0.4,0,0,1,.2.3l-0.4.3-1.3-.3-4-.4,0.3-.4-0.2-.2a2.4,2.4,0,0,0-.6,1,1.7,1.7,0,0,0,1.1,1c1.2,0.2,2.4.1,3.5,0.2l0.7,0.3-0.6.4c-1.4,1.1-2.9,0-4.3.1s-1.6,1.3-2.5,2l-0.8.5a1.9,1.9,0,0,1,.1-0.8l1.8-2.1,0.5-.6a2,2,0,0,0-.8.2l-1.3,1.3c0-.4,0-0.8,0-1.2h0Z" transform="translate(-5.2 -12)"/><path d="M76.8,29.6c1-1.8,1.7-3.3,2.5-4.6a3.1,3.1,0,0,1,1.2-.7,3.8,3.8,0,0,1,.2,1.1c-0.1.9-.3,1.8-0.5,2.7a1.1,1.1,0,0,1-.4.4,1.5,1.5,0,0,1-.1-0.5l0.6-2.8a0.9,0.9,0,0,0-.1-0.4,1.1,1.1,0,0,0-.5.3L76,34.1a4,4,0,0,1-.7.9,4.7,4.7,0,0,1,0-1,71.5,71.5,0,0,0,1.4-7.5l-1.1,2.3H75.5L77,25.3a1.5,1.5,0,0,1,.5-0.4,2.3,2.3,0,0,1,.3.9C77.5,27,77.2,28.1,76.8,29.6Z" transform="translate(-5.2 -12)"/><path d="M135.4,16l-2.2,2.9-0.3-.3,2.7-3.3H136a1.2,1.2,0,0,1,.1.7l-4.4,9.8h-0.5a2.1,2.1,0,0,1,0-.8l4.2-8.6A2.7,2.7,0,0,0,135.4,16Z" transform="translate(-5.2 -12)"/><path d="M113.8,28.7l0.9-1.6h0.2l-1.4,3.1a1.2,1.2,0,0,1-.6.2,1.3,1.3,0,0,1-.1-0.6l4.2-9.6a17.8,17.8,0,0,0,.6-2.3L115,21.2l-0.2-.2,2.9-3.5a2.6,2.6,0,0,1,.3,1.2c-1.1,2.6-2.3,5.1-3.4,7.6l-0.9,2.3h0.2Z" transform="translate(-5.2 -12)"/><path d="M113.8,23.5l-3.5,7.3-0.5.2a1,1,0,0,1-.2-0.5l2.4-6.3a13.6,13.6,0,0,0,1-3.7l-0.8,1H112l1.2-1.4h0.5a4.4,4.4,0,0,1-.2,1.4l-2.7,6.6a11,11,0,0,0-.3,1.3l3.1-6h0.2Z" transform="translate(-5.2 -12)"/><path d="M121.8,29.2l0.9-1.8a17.5,17.5,0,0,1-.6,2.2,1.6,1.6,0,0,1-.7.4,1.7,1.7,0,0,1-.3-0.8c0.5-1.8,1-3.6,1.6-5.4s1.1-3.3,1.7-4.9a1.8,1.8,0,0,1,.7-0.5,2.2,2.2,0,0,1,0,.8l-3.4,8.9a7.3,7.3,0,0,0-.2,1h0.2Z" transform="translate(-5.2 -12)"/><path d="M74.2,25.8l0.4-.3a2,2,0,0,1,.4.9,41.8,41.8,0,0,0-.6,5.1l0.9-2.2h0.3l-1.7,4.4H73.4a1.8,1.8,0,0,1-.2-0.8l1.3-6.4A2.5,2.5,0,0,0,74.2,25.8Z" transform="translate(-5.2 -12)"/><path d="M73.3,28.4l-2,6.9H70.7c0.3-1.4.5-2.7,0.8-4.1s0.5-2.9.8-4.4L72,31.6l1.1-3.3h0.2Z" transform="translate(-5.2 -12)"/><path d="M69.3,26.8l-1.1,2.3a7.5,7.5,0,0,1,.4-1.6,3.2,3.2,0,0,1,.8-0.7,2.3,2.3,0,0,1,.3.9c-0.2,1.8-.5,3.6-0.7,5.4,0,0.1,0,.3,0,0.8l0.8-2.5H70L68.6,36H68.3a1.5,1.5,0,0,1-.1-0.5c0.4-2.2.8-4.3,1.1-6.5A18.2,18.2,0,0,0,69.3,26.8Z" transform="translate(-5.2 -12)"/><path d="M102.8,75l-9.9,2.7a2.5,2.5,0,0,1-1.3-.2,1.3,1.3,0,0,1-.1-0.6H92l4.2-.6,6.6-1.5V75Z" transform="translate(-5.2 -12)"/><path d="M123.7,20.1L119,30.3h-0.2l4.5-10.3Z" transform="translate(-5.2 -12)"/><path d="M80.4,30.2l-1.5,3.4a2.2,2.2,0,0,1-.6.6,1.7,1.7,0,0,1-.3-0.8,19.6,19.6,0,0,1,1.8-4.5l-0.6,1.9a2.8,2.8,0,0,0,0,.7l0.6-.5,0.6-.7h0Z" transform="translate(-5.2 -12)"/><path d="M99.3,190.4a0.9,0.9,0,0,1,0,.3l-0.6,1.6a8.1,8.1,0,0,0-.3-1.4c-0.4-1-.8-2-1.3-3a1.9,1.9,0,0,1-.1-0.4,1.8,1.8,0,0,1,1,.2c0.6,0.8,1,1.7,1.5,2.6Z" transform="translate(-5.2 -12)"/><path d="M116.1,28l3.4-8.6,0.4,0.2-3.6,8.5h-0.3Z" transform="translate(-5.2 -12)"/><path d="M136.1,19.6l-1.3,3.9L134,26.2l-0.2.4a0.8,0.8,0,0,1-.2-0.3l2-6.8h0.4Z" transform="translate(-5.2 -12)"/><path d="M137.9,21.7l-2.1,5.8-0.5-.2,2.3-5.7h0.4Z" transform="translate(-5.2 -12)"/><path d="M102.8,181.9l1.2,0.7a1.1,1.1,0,0,0-.6.1l-2,3.2a2.1,2.1,0,0,0-.1.8,1.7,1.7,0,0,1-.4-0.7C101.5,184.7,102.1,183.4,102.8,181.9Z" transform="translate(-5.2 -12)"/><path d="M123.1,20.1l0.7-2.9-0.3-.2-0.8,1.2-0.3-.3,1.2-1.7a6.8,6.8,0,0,1,.7,1.2,1.5,1.5,0,0,1-.3.7l-0.7,2h-0.2Z" transform="translate(-5.2 -12)"/><path d="M80.4,30.2a23,23,0,0,1,1-3.1,33.3,33.3,0,0,1,1.9-3.2h0l-2.7,5.7-0.2.7h0Z" transform="translate(-5.2 -12)"/><path d="M122.6,27.7l2.9-4.7h0.2l-2.9,4.7h-0.2Z" transform="translate(-5.2 -12)"/><path d="M109.2,74.9l-2.4.5V74.9h2.4Z" transform="translate(-5.2 -12)"/><path d="M67.9,30.7l-0.5,1.9H67.2l0.5-1.9h0.2Z" transform="translate(-5.2 -12)"/><path d="M70.9,29l-0.8,1.9H70l0.7-2h0.2Z" transform="translate(-5.2 -12)"/><path d="M76.4,167.6a21.3,21.3,0,0,1-1.9-3.3c-0.9-2.5-2-1-3-.3l-0.8.8-1.1.9a0.9,0.9,0,0,1-.2-0.4,5.6,5.6,0,0,1,1.1-1.4c0.7-.5,1.6-0.9,2.3-1.4A2.7,2.7,0,0,0,72,161c-1-1-2-2.3-3.3-2.8s-2.1.6-3.1,1a1.1,1.1,0,0,1-.6.2l2.6-2.1a0.8,0.8,0,0,0,.1-0.7c-1-1.3-2-2.6-3-3.8a1.4,1.4,0,0,0-1.4-.2c-1.5,1.3-3,2.7-4.4,4.1a3.9,3.9,0,0,0-.6,1.1,1,1,0,0,0-.7,0l-3.2,3.4H54.2c-1.3,1.2-2.7,2.4-3.9,3.6a30.5,30.5,0,0,0-2.2,3l-0.6.6,0.9-1.8-0.6.5V166l0.6,0.4,3.3-3.4h0.1l2.1-2.3c1-1.1,2-2.2,3.1-3.2s4.3-3.8,6.3-5.8c0.2-.3-0.3-1.6-0.8-2.2s-2.4-3.1-3.6-4.7a1.1,1.1,0,0,0-1,0l-2.7,2.3a4.7,4.7,0,0,1,1.1-1.3c2.1-1.3,1.8-2.6.3-4.1l-0.2-.3-1.4-1.9,1.5,1.7,1.2,1.7,0.2-.6,0.3,0.6,2.7-1.4-0.2.3c-1.6,1.1-1.9,2.2-.5,3.8s2.3,3.1,3.5,4.6a1.3,1.3,0,0,0,1.2,0,49.8,49.8,0,0,1,4.6-3.4,45.8,45.8,0,0,1-3.6,3.1c-1.6,1.1-1.1,2.1-.2,3.3s1.5,2,2.3,2.9a2.5,2.5,0,0,0,1.2.3,2.2,2.2,0,0,0,.1,1.1,23.7,23.7,0,0,0,2.2,2.4c0.6,0.6,1.5,1.7,2.1,1.6a22.1,22.1,0,0,0,4.7-1.8,1.2,1.2,0,0,0,.5-1.1,43.7,43.7,0,0,0-2.4-4.1,2.2,2.2,0,0,0-1.3-1c-2,.9-3.9,1.9-5.9,2.9l3.8-2.5,2.2-1.2-2-3.3H73.3L69,143h0l2.1,2.4a3.9,3.9,0,0,0,.7.8L70.2,142a2.4,2.4,0,0,1-.1-0.6,1.5,1.5,0,0,1,.7.3l1.7,3.1,1.2-.4c-2,2.3.4,3.9,1.1,5.7a12.2,12.2,0,0,0,1.6,2.5h0.5l5.5-2.4h0.7a2.8,2.8,0,0,1-.4.7l-1.2.9-0.8.6a2.7,2.7,0,0,0,.1-0.7l-0.4-.3a23,23,0,0,0-3.4,1.6,1.7,1.7,0,0,0-.3,1.6,27.6,27.6,0,0,0,3,4.4c0.3,0.3,1.3.1,1.5,0.1a2,2,0,0,0-.6,1,8.5,8.5,0,0,0,.7,1.6c-1.6-3-3.4-.9-4.9-0.2s-2.3,2.3-.6,4.7a6,6,0,0,1,.5,1.7h0Z" transform="translate(-5.2 -12)"/><path d="M85.1,106.8l-3.1,2.3L77.6,112a0.8,0.8,0,0,0-.2.7h0.3l5.9,8.7H83.4l-2.3-3.3a2.3,2.3,0,0,0-.7-0.4h0c-0.6-1-1.3-2-1.8-3.1s-1.7-1.5-2.5-.9l1-1.3-2.5,1.2a1.6,1.6,0,0,0,.1.6c-2.1,1.9,1.3,2.5,1,3.9l-1.4-1.7-1.6-1.4v-0.6h0a23.5,23.5,0,0,0,3.7-2.6c0.2-.2-0.8-1.7-1.3-2.5s-2.3-3.3-3.6-4.8a1.6,1.6,0,0,0-1.4-.4c-3.1,2.4-6.2,4.9-9.1,7.4s-5.1,4.6-7.6,6.9c-0.1.1-.3,0.1-0.8-0.3L57,115l-0.5-.4,0.8-.3,8.2-7.1c1.4-1.2,2.9-2.2,4.2-3.4s0.1-1.2.1-1.6a2.3,2.3,0,0,0,1.2.5,19.5,19.5,0,0,0,3.2-3.2,8.4,8.4,0,0,0,2.3-1.9,4.6,4.6,0,0,0,.1-2.2c0.3,0.2,1.2,1.3,1.4,1.1a19.2,19.2,0,0,0,4.2-3.1c0.2-.2-0.9-1.7-1.1-2.7l0.5,0.7c1.8,2.1,2.4,2,5.1-.2,0.9-.7,1.9-1.3,3.3-2.3a4.1,4.1,0,0,1-.5.9l-5.5,3.8a1.5,1.5,0,0,0,0,1.4,11.4,11.4,0,0,0,1.7,1.9l0.7-.2,0.2,1.3a5.1,5.1,0,0,1-1.1-.7c-0.7-.8-1.4-1.8-2.2-2.5a1.5,1.5,0,0,0-1.3,0c-0.8.4-1.5,1.2-2.3,1.5s-1,1.8-.1,2.8a7.7,7.7,0,0,1,.8,1.3h0c-0.7-.8-1.5-1.7-2.3-2.4a1.3,1.3,0,0,0-1.1-.2c-0.9.9-2.9,1.4-1.5,3.2-2-1.6-2.3.9-3.3,1.5s0.1,2.4.6,3.4a33.1,33.1,0,0,0,3.5,5,1.3,1.3,0,0,0,1.2.4l7-4.5h0.5Z" transform="translate(-5.2 -12)"/><path d="M18.2,154.3v-0.3l0.9-1.6a9.1,9.1,0,0,0-1.7,1.3,32.4,32.4,0,0,0-3.1,4.2c-0.9,1.5-1.4,3.1-2.7,4.4a80.2,80.2,0,0,1,3.8-7.1c0.9-1.3,2.4-2.3,3.9-3.6l19.9-24.3,0.5,0.4-8,9.1,0.4,0.4,21.4-20.8h0.1L37.9,133.8l-0.3-.3,2.2-2.4-0.3-.3L27.3,143.5H27.1l1.7-2.4-0.6-.3-1.3,3.1-0.3.5a15.1,15.1,0,0,0-1.8,1.9,3.1,3.1,0,0,0-.2,1.4c-1.2-1.1-1.5.5-2,1.1s-2.9,3.8-4.3,5.8Z" transform="translate(-5.2 -12)"/><path d="M70.4,131.6l0.6-2.1c1.7,1.7,2.5-.8,3.9-1.2s0.9-1.5.2-2.3-2.5-2.9-2.8-2.8-4.6,1.6-2.2,4.7c-0.9-.8-1-3-2.9-1.3,1.1-.9,2.1-1.9,3.3-2.7s1.9-2.5.2-3.9a0.9,0.9,0,0,1-.4-0.9c0.7,0.9,1.3,2.3,2.3,2.6s2.1-.6,3.5-1.1l-1.6,1a2.7,2.7,0,0,0-1.2,1c-0.1.4,0.6,0.8,0.9,1.3l1.7,2.7v-1.3c1.2,2.9,2.3.6,3.3,0.3a0.8,0.8,0,0,0,.2-0.7l1.8-.6c1.8-.8,3.6-1.6,5.5-2.2L81,124.9,77.2,127a0.8,0.8,0,0,0-.2.8c0.6,0.9,1.4,1.8,2,2.7a5.3,5.3,0,0,1,.4,1.5l-0.4-.3-0.3.2,4.7,7.2h0.1l1.3,2.3c-0.9-1-1-3.1-2.7-1.7,1.3-.5.2-1.3-0.3-2.3s-2.3-3.6-3.3-5.5-1.2-2.5-1.8-3.6a1,1,0,0,0-1-.2,11,11,0,0,0-2.1,1.4,2.6,2.6,0,0,0-1,1.3c0.5,0.8.5,2.6,2.3,1.5h0.4c-2.5,1.9.2,3.4,0.6,4.8a70.8,70.8,0,0,0,3.6,8.1h0L78.3,143,74.1,135a4.9,4.9,0,0,1-.2-0.9H72a3.1,3.1,0,0,0,.7-1c-0.5-.8-0.8-2.3-2.3-1.3h0Z" transform="translate(-5.2 -12)"/><path d="M76.4,167.6l0.6-.2a27.9,27.9,0,0,0,2,3.4,25.4,25.4,0,0,0,2.7,2.6l-0.6.6a17.7,17.7,0,0,1-2.5-3.1c-1-2-2.2-1-3.4-.5a6.8,6.8,0,0,0-1.6.8,1.5,1.5,0,0,0-.6,1.1c1.7,2.6,3.5,5.1,5.3,7.6a40.3,40.3,0,0,1,2.9,3.9l-1.8-1.6a2.4,2.4,0,0,0-.3-0.6l-3.1-4.4c-1.3-1.7-2.6-3.4-4-4.9s-1.3.6-1.9,0.9a2,2,0,0,1-1.3.3l2.2-1.4a1,1,0,0,0,.3-1c-0.9-1.5-1.9-3-2.9-4.4a1.3,1.3,0,0,0-.9-0.6l-1.6,1.1-5.2,3.4h0.1L57,173l-0.2-.2,9.1-6c0.6,0.2.6,0.1,1.4-3.5l0.9,2.4v-0.3l2.1,3.5c0.5,0.8.8,1.8,1.6,2.2s1.6-.2,2.4-0.5,1-.6,1.6-0.8,1.1-1.3.4-2.2h0Z" transform="translate(-5.2 -12)"/><path d="M67.3,98.7a3.1,3.1,0,0,0,1.4-.2c1.1-.8,2.1-1.7,3.4-2.8a0.9,0.9,0,0,0,.8-0.2c0.8-.9,3.7-0.7,1.4-3.2,2.1,1,2.1,1,5.7-.7l-3.2,2.1a24.4,24.4,0,0,1-3.3,1.9c-1.5.7-1,1.3-.2,2.2a1.2,1.2,0,0,1,.3.6c-0.9-.7-1.3-2.4-2.8-0.9a11.2,11.2,0,0,1-3,1.9L52.3,111.7l-0.2-.3,3.7-3.2c1.3-1.2,2.6-2.4,4-3.5s3-1.8,4.1-3S67.5,100.8,67.3,98.7Z" transform="translate(-5.2 -12)"/><path d="M68.8,71.7a7.6,7.6,0,0,0,.6-1.8c0-1.4-.1-2.9-0.1-4.3a3.8,3.8,0,0,1,.2-0.9,2.7,2.7,0,0,1,.6.7l2.4,7.1a5.7,5.7,0,0,0,.8,1c-0.1-2.1-.2-3.8-0.3-5.5a3.2,3.2,0,0,1,.3-0.9,3.2,3.2,0,0,1,.8.9c0.6,1.5,1,3.1,1.7,4.6A6.5,6.5,0,0,0,77,74c0.1-.7.3-1.5,0.4-2.2a8.2,8.2,0,0,1,.3-2.3c0,1.5,0,3.1,0,4.6a0.8,0.8,0,0,1-.6.4,1.6,1.6,0,0,1-1-.6c-0.8-1.9-1.5-3.8-2.2-5.7,0-.1-0.1-0.2-0.5-0.3s0.3,2.6.3,3.9a9,9,0,0,1-.3,1.8,4.7,4.7,0,0,1-1.3-1.3c-0.7-1.9-1.3-3.9-1.9-5.9l-0.4-1c0,2.2,0,4,0,5.8a1,1,0,0,1-.5.7A0.9,0.9,0,0,1,68.8,71.7Z" transform="translate(-5.2 -12)"/><path d="M45,179.1c-1.6-2.2-1.6-2.2-3.6,0a2.7,2.7,0,0,1-1.2.9l3.6-4,3.6-3.8,1.2-1.1c1.4-1,1.2-2,.3-2.8s1.3,1.1,1.4,1,2.3-2,3.4-2.7l9.4-5.9-0.9,1.9c-2-1.1-3,1.3-4.4,2.2s-4.6,3.2-6.9,4.8a1.7,1.7,0,0,0-.5.6l-2.6,2.2h0.1c-1.3,1.3-2.6,2.7-3.8,4.1a2.7,2.7,0,0,0,.4,1.3l0.5,1.2h0Z" transform="translate(-5.2 -12)"/><path d="M44.6,201.7c-0.5-.8-1.1-1.5-1.6-2.3s-1.1-1.5-2.1-.4l-3.3,3.3-1.5,1.3c-2.1,2.1-4.3,4.2-6.3,6.5s-4.1,4.6-6.1,6.9H23.2a2,2,0,0,1,.2-0.9l4.9-5.1,7.4-7.6,5.1-4.8a6.6,6.6,0,0,0,.9-1.7h0.3l2.5,4.6h0Z" transform="translate(-5.2 -12)"/><path d="M37.8,222.3c0.9,1.8,1.9.3,3.1-.6l-1.5,2-2.2,1.7-1.5,1,0.7-1.3-1.1-.9h0.8l-1-2.1H34.7l-0.5.9-1.2.3,2.9-3.6c1.4,0.4,1.6-1.7,2.7-2.3a5.5,5.5,0,0,1,1.5-.9l-1.3,1.3a15.9,15.9,0,0,0-1.5,1.7,3.1,3.1,0,0,0-.5,1c-0.8.8-1.5,1.3-1.4,1.5a26.3,26.3,0,0,0,1.4,3C38.7,224.2,38.8,223.2,37.8,222.3Z" transform="translate(-5.2 -12)"/><path d="M68.1,71.1l-2.4-7.5H65.3c0.1,1.6.2,3.2,0.3,4.7s0.2,1.3.2,1.9a2.1,2.1,0,0,1-.4.8,1.6,1.6,0,0,1-.7-0.5l-2.1-6.2c-0.2-.5-0.3-1.1-0.5-1.8l-0.6,1,0.3-1.7h0.3l2.7,8.6h0.5c-0.1-1.4-.2-2.8-0.2-4.2s0.1-1.8.1-2.7l0.3-.3a2.3,2.3,0,0,1,.7.7c0.5,1.4.8,2.9,1.3,4.3l1,2.9H68.1Z" transform="translate(-5.2 -12)"/><path d="M58.5,62c0,2.4,0,4.4,0,6.5a3.9,3.9,0,0,1-.4,1.2,2.7,2.7,0,0,1-.7-0.7,6.4,6.4,0,0,1-.5-2.9L58,69.3c0-2.3,0-4.1,0-5.8a7.6,7.6,0,0,1,.1-1.3,8,8,0,0,1,.4-1.1,4.8,4.8,0,0,1,.7,1.2c0.4,1.7.8,3.3,1.2,5a3.1,3.1,0,0,0,.8.9,3.8,3.8,0,0,0,.4-1.1,21.6,21.6,0,0,1,.2-3.1c0,1.4,0,2.8,0,4.2a0.9,0.9,0,0,1-.6.5,1.5,1.5,0,0,1-.8-0.7c-0.5-1.6-.9-3.3-1.4-5Z" transform="translate(-5.2 -12)"/><path d="M36.7,122.9v0.2l0.6-.5h0.1L25,133.2c1.5-1.7,2.6-3,3.8-4.1s2.7-2.1,4-3.2Z" transform="translate(-5.2 -12)"/><path d="M56,62.6l-1-1.4c0.1,2,.2,3.8.3,5.6a4,4,0,0,1-.3,1.2,2.6,2.6,0,0,1-.9-0.8c-0.6-2.1-1.1-4.3-1.7-6.5V60.3l-0.2-1a9.1,9.1,0,0,1,.7,1.5c0.5,2,1,4,1.5,6a1.6,1.6,0,0,0,.4.5,1.7,1.7,0,0,0,.2-0.6c-0.1-1.7-.2-3.4-0.2-5.2a3,3,0,0,1,.3-0.9,7.1,7.1,0,0,1,.7,1,5.5,5.5,0,0,1,.3,1h0Z" transform="translate(-5.2 -12)"/><path d="M48.1,60.5l0.8-1.6a3.2,3.2,0,0,1,.5.8l1.4,6.1a9.9,9.9,0,0,0,.8,1.5V60.4H52c0,2.2,0,4.4,0,6.5a2.1,2.1,0,0,1-.6.8,2.5,2.5,0,0,1-.6-0.8c-0.5-2.2-1-4.4-1.5-6.6a8.3,8.3,0,0,0-.4-0.9Z" transform="translate(-5.2 -12)"/><path d="M35,213.2L32,216l-4.3,4.7a2,2,0,0,1-.8.3c0-.4,0-0.8,0-0.7l7.9-7.4Z" transform="translate(-5.2 -12)"/><path d="M69.1,132.4l-1.7,2.5-6.2-10.2,0.5-.3,5.4,9.5,0.4,0.2,1.6-1.7h0Z" transform="translate(-5.2 -12)"/><path d="M48.4,64.6V61.2h0.2c0.1,1.7.2,3.3,0.3,5a0.9,0.9,0,0,1-.3.4,1.5,1.5,0,0,1-.4-0.5c-0.4-1.7-.7-3.4-1.1-5a12.4,12.4,0,0,0-.6-1.6L46,60.7H45.8l0.5-1.7a5,5,0,0,1,.8,1.3c0.4,1.5.6,2.9,1,4.4h0.3Z" transform="translate(-5.2 -12)"/><path d="M40.2,127.1l3.9-3.4H44l4.4-3.8,0.2,0.2-7.9,7.4Z" transform="translate(-5.2 -12)"/><path d="M51.8,130.7l1.8-.8-3.3,3.7-2.8,2.3-0.2-.3a23.6,23.6,0,0,0,2.2-1.9,2.6,2.6,0,0,0,0-1.2,1.3,1.3,0,0,1,.2-0.6H50a5.1,5.1,0,0,0,0,.8h0.3l1.5-1.9h0Z" transform="translate(-5.2 -12)"/><path d="M51.9,173.2c0.8,1.1,1.1,3.1,2.8,1.3L54,176.6c-1-2.1-1.9.4-2.9,0.9s-1.4.9-2.2,1.3a17.4,17.4,0,0,1,2.9-2.3c1.4-.7,1.2-1.4.5-2.4A6,6,0,0,1,51.9,173.2Z" transform="translate(-5.2 -12)"/><path d="M39.3,143.4L31,152.3l-0.4-.4,8.5-8.8Z" transform="translate(-5.2 -12)"/><path d="M22.3,210.5l7.3-7.9,0.2,0.2-7.2,7.9Z" transform="translate(-5.2 -12)"/><path d="M60.4,176.4a3,3,0,0,0,1.6.1c0.6-.3,1.6-1.1,1.5-1.5s-0.9-1.6-1.3-2.4l0.7,1.1a3.3,3.3,0,0,0,.9,1,2.7,2.7,0,0,0,1.2,0l-0.4.6-3.5,2.2,0.2,0.2-1.3.4Z" transform="translate(-5.2 -12)"/><path d="M46.9,182.6c2.3,2.3,2.8,5.4,5.3,7.4v1.5Z" transform="translate(-5.2 -12)"/><path d="M79.2,83.4l5.1,4.4,0.5-.4-0.6-2a2,2,0,0,1,.5.6,12.5,12.5,0,0,1,.2,1.6,6,6,0,0,1-2.1-.6c-1.3-1-2.5-2.3-3.7-3.4Z" transform="translate(-5.2 -12)"/><path d="M46.9,205.8a11,11,0,0,0,1.1,1.7,3.5,3.5,0,0,0,1.1.6,13.6,13.6,0,0,0,.5,2.1,27.6,27.6,0,0,0,1.5,2.7c-1.6-1.3-1.4-3.6-3.1-3.7l-1.1-3.5h0Z" transform="translate(-5.2 -12)"/><path d="M68.8,136a9.4,9.4,0,0,0-1.8,1.1,5.9,5.9,0,0,0-.9,1.5l-1.3-.4,0.5-1.4,0.5,0.5,2.6-1.7Z" transform="translate(-5.2 -12)"/><path d="M59.2,120.7l1.2,1.1,1.2,0.9-0.3.6-4.2,3.2c1.6-2,4.9-3,2.1-5.8h0Z" transform="translate(-5.2 -12)"/><path d="M42.6,64.4L42.9,60h0.2l-0.2,4.6H42.2a30,30,0,0,1-.9-4.9l1,4.7h0.3Z" transform="translate(-5.2 -12)"/><path d="M15.9,169.4l-1.4,2.7L13,175.2l-0.3.2a0.8,0.8,0,0,1-.1-0.4l2.9-5.7Z" transform="translate(-5.2 -12)"/><path d="M24.8,159.9l-2.4,4a1.6,1.6,0,0,1-.8.2,3.6,3.6,0,0,1,.3-0.6l2.2-3.3a1.7,1.7,0,0,1,.8-0.3h0Z" transform="translate(-5.2 -12)"/><path d="M78.5,118.8c-3.2,1.7.3,3,.3,4.4L76,119.7Z" transform="translate(-5.2 -12)"/><path d="M47,136.2l-5.3,5.4-0.3-.3,5.3-5.4Z" transform="translate(-5.2 -12)"/><path d="M15.2,201.6l-3,4.4H11.8a0.4,0.4,0,0,1-.1-0.4l3.4-4.2Z" transform="translate(-5.2 -12)"/><path d="M70,81.9l4.3-3,0.4,0.6L70,81.9h0Z" transform="translate(-5.2 -12)"/><path d="M20.8,114.5L17.1,119l-0.3-.3,3.8-4.5Z" transform="translate(-5.2 -12)"/><path d="M35.8,60.1l0.9,3.5h0.3V61.3h0.3l0.2,2.9H36.8l-1.2-4h0.3Z" transform="translate(-5.2 -12)"/><path d="M24.8,159.9a4.3,4.3,0,0,1,.4-1.4,22.6,22.6,0,0,1,3.1-3.4l-3.5,4.8h0Z" transform="translate(-5.2 -12)"/><path d="M40.6,214.7l4-3.1,1.1-.3-4.5,4Z" transform="translate(-5.2 -12)"/><path d="M59,183.5l0.8,0.3,4.1,4.4-0.2.2L59,183.5h0Z" transform="translate(-5.2 -12)"/><path d="M46.2,82.5l5-3.8-1.3,1.8V80.3l-3.5,2.5Z" transform="translate(-5.2 -12)"/><path d="M39.1,63.7l-1.2-3.9-0.5-1.8-0.2,1.9V59.7l0.4-1.9c0.3,0.7.6,1.4,0.7,2.1s0.6,2.5.8,3.8h0Z" transform="translate(-5.2 -12)"/><path d="M44.9,63.4L43.5,58l-0.4,1.3H43l0.4-1.5a8.1,8.1,0,0,1,.7,1.4c0.4,1.4.8,2.8,1.1,4.2H44.9Z" transform="translate(-5.2 -12)"/><path d="M45,179.1l0.5,0.2c0.4,1.7,1.1,1.3,2.1.4h0.2l-1.2,2.3-0.6-.5-1-2.3h0Z" transform="translate(-5.2 -12)"/><path d="M85.1,106.8l2.3-1.9,0.6-.3,0.7-.6a3,3,0,0,1-.6,1.2c-0.9.6-2,1.1-3,1.6h0Z" transform="translate(-5.2 -12)"/><path d="M52.8,192.1l3.3,4.5-0.3.6-3.1-5.1h0.1Z" transform="translate(-5.2 -12)"/><path d="M46.2,63.4c0,0.9,0,1.8,0,2.7H45.8a6,6,0,0,1-.5-2.2l0.6,1.2V63.4h0.2Z" transform="translate(-5.2 -12)"/><path d="M69,143l-2.3-3.7,0.5-.2L69,143h0Z" transform="translate(-5.2 -12)"/><path d="M40.1,209.2l-0.4-.4,3-2.6L42,208.1a0.9,0.9,0,0,0-.6-0.1A7.7,7.7,0,0,0,40.1,209.2Z" transform="translate(-5.2 -12)"/><path d="M20.1,123.2l-3.9,4.5H16l3.9-4.5Z" transform="translate(-5.2 -12)"/><path d="M59.2,120.7l-2.1-4.5,0.4-.2,1.7,4.7h0Z" transform="translate(-5.2 -12)"/><path d="M57.4,199.1l3,4.4H60.3l-3.1-4.4h0.2Z" transform="translate(-5.2 -12)"/><path d="M17.5,155.7l-1.2,3.2H15.9a1.3,1.3,0,0,1-.2-0.8C16.1,157.4,16.7,156.8,17.5,155.7Z" transform="translate(-5.2 -12)"/><path d="M39.1,63.7l0.5,0.4V59.6h0.3V65l-0.8-1.3h0Z" transform="translate(-5.2 -12)"/><path d="M78.3,86.8l2.6,3.8-0.3.2-2.5-3.8h0.2Z" transform="translate(-5.2 -12)"/><path d="M57.6,195.2l3.5-2.6,0.2,0.2-3.5,2.6Z" transform="translate(-5.2 -12)"/><path d="M70.7,112.6l-2.5-3.2,0.2-.2,2.6,3.2Z" transform="translate(-5.2 -12)"/><path d="M88.1,87.5l-1.9-2.7,2.4,2.2Z" transform="translate(-5.2 -12)"/><path d="M11.5,196.2l1.8-3.5,0.5,0.3-2.2,3.2h0Z" transform="translate(-5.2 -12)"/><path d="M54,129.5l2.9-3h0.1l-3,2.8H54Z" transform="translate(-5.2 -12)"/><path d="M44.6,201.7l2.4,4.1h0l-2.4-4.1h0Z" transform="translate(-5.2 -12)"/><path d="M65.4,120.3l-2.6,1.3H62.7l3.6-2.4-0.9,1.2h0Z" transform="translate(-5.2 -12)"/><path d="M39.2,80.6l1.5-.5-0.8,1.3H38.9Z" transform="translate(-5.2 -12)"/><path d="M36.7,134.5l-1.4,2.7H34.9a1,1,0,0,1,0-.5l1.7-2.3h0.1Z" transform="translate(-5.2 -12)"/><path d="M68.3,172.6l0.9-1.4h1.1l-0.4.8Z" transform="translate(-5.2 -12)"/><path d="M63.6,139.6l-2.3,1.9-0.3-.3,2.4-1.8v0.2Z" transform="translate(-5.2 -12)"/><path d="M53.5,205.6l-2,.6,2.7-2Z" transform="translate(-5.2 -12)"/><path d="M44.5,195.5l2.8-2.4-0.5,1.2Z" transform="translate(-5.2 -12)"/><path d="M70,81.9l-2.7,1.7-0.2-.4L70,81.9h0Z" transform="translate(-5.2 -12)"/><path d="M53.8,149.2L53,150.6l-1.9.8,2.7-2.1h0Z" transform="translate(-5.2 -12)"/><path d="M15.5,181.1l-1.8,2.5-0.2-.2,1.8-2.5Z" transform="translate(-5.2 -12)"/><path d="M54.6,76.6l-2,1.4-0.2-.3,2-1.4Z" transform="translate(-5.2 -12)"/><path d="M38.5,192.1l1.9,2.4-0.4.2-1.5-2.7h0Z" transform="translate(-5.2 -12)"/><path d="M57.2,181l-1.2-.2,0.2-1.1L57,180l0.2,1h0Z" transform="translate(-5.2 -12)"/><path d="M21.5,90.6l-2.6,2.9-0.2-.2,2.6-2.9h0.1Z" transform="translate(-5.2 -12)"/><path d="M41.5,185.4L39.4,187l0.2,0.2,1.4-2.3Z" transform="translate(-5.2 -12)"/><path d="M13.9,192.4l0.9-1.6,0.5-.3h0.1l-0.3.4L14,192.5H13.9Z" transform="translate(-5.2 -12)"/><path d="M72.3,143.5l-1.3-2,0.2-.2,1.3,2Z" transform="translate(-5.2 -12)"/><path d="M66,178.2l-1.3-1.7,0.3-.2,1.3,1.8Z" transform="translate(-5.2 -12)"/><path d="M35.2,212.5l1.9-1.5,0.2,0.2-1.9,1.6Z" transform="translate(-5.2 -12)"/><path d="M28.3,154.4l1.3-1.2h0.1l-1.1,1.5Z" transform="translate(-5.2 -12)"/><path d="M82.3,102.7l1.6,2-0.3.2-1.3-2.2h0Z" transform="translate(-5.2 -12)"/><path d="M25.3,101.2l-1.9,2H23.3l1.8-2h0.1Z" transform="translate(-5.2 -12)"/><path d="M69.6,138.2l1.4,2.6H70.8l-1.5-2.5h0.2Z" transform="translate(-5.2 -12)"/><path d="M56,62.6l0.7,3H56.3L56,62.6h0Z" transform="translate(-5.2 -12)"/><path d="M57.2,181l1.9,2.5h0L57.2,181h0Z" transform="translate(-5.2 -12)"/><path d="M25.9,160.7l-1.5,1.5-0.5-.5,1.5-1.5Z" transform="translate(-5.2 -12)"/><path d="M43.7,182.8l1.4-1.2,0.3,0.4-1.7.8h0Z" transform="translate(-5.2 -12)"/><path d="M80.4,100.6l1.9,2.1h0l-1.9-2.1h0Z" transform="translate(-5.2 -12)"/><path d="M62.9,79.7l1.7-1.2v0.2L63.1,80Z" transform="translate(-5.2 -12)"/><path d="M56.7,75.8l-1.2-.2,1.3-.9v1.2h0Z" transform="translate(-5.2 -12)"/><path d="M58.3,111.4l1.6-1.3,0.2,0.3-1.6,1.2v-0.2Z" transform="translate(-5.2 -12)"/><path d="M62.9,108.4l-1.7,1.1v-0.2l1.6-1.2Z" transform="translate(-5.2 -12)"/><path d="M82.9,163l-1.5-1.3,0.3-.3,1.1,1.6h0Z" transform="translate(-5.2 -12)"/><path d="M62.6,132.4l0.6,1.2-0.3.2-0.7-1.1Z" transform="translate(-5.2 -12)"/><path d="M77.4,85.7L76.3,85l0.3-.5h0.5Z" transform="translate(-5.2 -12)"/><path d="M61,82H60.4L62,80.5h0.1Z" transform="translate(-5.2 -12)"/><path d="M30,89.2l-1.6,1.4-0.2-.2L29.8,89Z" transform="translate(-5.2 -12)"/><path d="M60.7,87.4l-0.2.8L59.9,88V87.2h0.8Z" transform="translate(-5.2 -12)"/><path d="M35.2,72.7l1.9-1-1.8,1.6V72.7Z" transform="translate(-5.2 -12)"/><path d="M52.4,119.2l-1.2,1.5-0.2-.2,1.3-1.4h0.1Z" transform="translate(-5.2 -12)"/><path d="M23.3,170.7l1-1.5,0.3,0.2-1.1,1.4H23.3Z" transform="translate(-5.2 -12)"/><path d="M55.3,114.6L54,115.8l-0.2-.2,1.3-1.2Z" transform="translate(-5.2 -12)"/><path d="M38.5,82l-1.8,1.5-0.2-.2,1.9-1.4h0.1Z" transform="translate(-5.2 -12)"/><path d="M41.3,142l-1.5,1.4-0.2-.2,1.4-1.5Z" transform="translate(-5.2 -12)"/><path d="M18.2,107.5l1.4-1.1,0.2,0.3-1.5,1v-0.2Z" transform="translate(-5.2 -12)"/><path d="M76.6,103.2l1.3,1.3-0.3.3-1-1.6h0Z" transform="translate(-5.2 -12)"/><path d="M63.8,134.5l0.9,1.2-0.3.2-0.9-1.2h0.2Z" transform="translate(-5.2 -12)"/><path d="M55.4,114.1l0.8-1.1,0.3,0.2-0.8,1.1Z" transform="translate(-5.2 -12)"/><path d="M19.6,132.3L18.1,134l-0.3-.3,1.8-1.4h0Z" transform="translate(-5.2 -12)"/><path d="M71.1,134.5l-1.5.8v-0.2l1.4-.9Z" transform="translate(-5.2 -12)"/><path d="M43.7,182.8L41.8,185h0l2-2.2h0Z" transform="translate(-5.2 -12)"/><path d="M78.8,106.7l-0.9-1.4,0.3-.2,0.7,1.5H78.8Z" transform="translate(-5.2 -12)"/><path d="M56.9,84.5l1.2-1,0.3,0.3-1.3.8V84.5Z" transform="translate(-5.2 -12)"/><path d="M19.6,132.3l1.1-2,0.3,0.2-1.4,1.8h0Z" transform="translate(-5.2 -12)"/><path d="M42.7,85.6l-0.4,1H42l0.4-1h0.3Z" transform="translate(-5.2 -12)"/><path d="M21.3,85.2l-0.9.4V85.3l0.9-.5v0.3Z" transform="translate(-5.2 -12)"/><path d="M41.2,79.6l1.4-1.1v0.2l-1.5,1V79.6Z" transform="translate(-5.2 -12)"/><path d="M39.1,88.2l1.3-1,0.2,0.2-1.3,1Z" transform="translate(-5.2 -12)"/><path d="M72.5,114.8l-1.1-1.3,0.4-.2,0.7,1.5h0Z" transform="translate(-5.2 -12)"/><path d="M17.8,100.7l1.4-1.3v0.2L18,100.8H17.8Z" transform="translate(-5.2 -12)"/><path d="M40.5,57.2l0.7,1.6H41l-0.7-1.5h0.2Z" transform="translate(-5.2 -12)"/><path d="M34.9,197.7v-1.3a2.5,2.5,0,0,1,.5.8A1.3,1.3,0,0,1,34.9,197.7Z" transform="translate(-5.2 -12)"/><path d="M17.1,167.4l-0.9,1.4H16l1-1.3h0.1Z" transform="translate(-5.2 -12)"/><path d="M54.1,182v1.1l-0.6-.8Z" transform="translate(-5.2 -12)"/><path d="M47,156.5a2,2,0,0,1,.1-0.8l0.9-.5Z" transform="translate(-5.2 -12)"/><path d="M33,102.7l-1.5,1.2-0.2-.2,1.5-1.1H33Z" transform="translate(-5.2 -12)"/><path d="M32.1,182.4h0.8v1.2Z" transform="translate(-5.2 -12)"/><path d="M65.3,120.3L67,121l-0.8.7-0.9-1.5h0Z" transform="translate(-5.2 -12)"/><path d="M47.1,210.1l-1,.9,0.8-1.1v0.2Z" transform="translate(-5.2 -12)"/><path d="M65.1,78.1l1.2-.7h0.1l-1.1.8Z" transform="translate(-5.2 -12)"/><path d="M50.5,200.4l0.2,1.3-0.7-1Z" transform="translate(-5.2 -12)"/><path d="M69.8,92.9L70.6,94l-0.2.2-0.8-1.1Z" transform="translate(-5.2 -12)"/><path d="M55.3,174l1.3-.8v0.2l-1.3.9Z" transform="translate(-5.2 -12)"/><path d="M76.6,103.2l-0.9-1.5h0.3l0.5,1.6h0Z" transform="translate(-5.2 -12)"/><path d="M42,173.9l-0.8-.3v-1.1Z" transform="translate(-5.2 -12)"/><path d="M61.5,205.1h0.8l-0.2,1Z" transform="translate(-5.2 -12)"/><path d="M51.1,152v1.6l-0.5-1.6h0.4Z" transform="translate(-5.2 -12)"/><path d="M82.9,163l1,1.4a2.8,2.8,0,0,1-.8-0.5,3.7,3.7,0,0,1-.2-0.9h0Z" transform="translate(-5.2 -12)"/><path d="M20.4,141.2l-0.8-1.5h0.2l0.7,1.5H20.4Z" transform="translate(-5.2 -12)"/><path d="M64.6,105l-0.4-.8h0.3l0.3,0.8H64.6Z" transform="translate(-5.2 -12)"/><path d="M39.9,218.2l0.7,1.5H40.5l-0.8-1.5h0.2Z" transform="translate(-5.2 -12)"/><path d="M62.4,91.1l0.9,1.2H63.2l-0.9-1.2h0.2Z" transform="translate(-5.2 -12)"/><path d="M19.7,175.1l0.5-1a1.1,1.1,0,0,1,.2.4l-0.6.7H19.7Z" transform="translate(-5.2 -12)"/><path d="M66.8,89.1l0.7,1v0.2l-0.8-1Z" transform="translate(-5.2 -12)"/><path d="M54.2,101.2a4.5,4.5,0,0,1-.4-0.8l0.4-.3v1.2Z" transform="translate(-5.2 -12)"/><path d="M60.8,216.4l-1.5-1.3,0.2-.2,1.3,1.5h0Z" transform="translate(-5.2 -12)"/><path d="M54.9,177.4l0.4,1H55.1l-0.5-1h0.3Z" transform="translate(-5.2 -12)"/><path d="M39.5,121.5l-1.5,1v-0.2l1.5-.9h0.1Z" transform="translate(-5.2 -12)"/><path d="M79.5,145.2l0.7,1-0.3.2-0.3-1.2h0Z" transform="translate(-5.2 -12)"/><path d="M53.4,198.6l-1.2.7v-0.2l1.1-.8Z" transform="translate(-5.2 -12)"/><path d="M49.6,191.6l-0.5.6-0.3-.3,0.6-.5Z" transform="translate(-5.2 -12)"/><path d="M83.5,158.2l-1.2.5v-0.3l1.2-.4v0.2Z" transform="translate(-5.2 -12)"/><path d="M22.9,181.7l-1,1.1H21.7l0.9-1.2Z" transform="translate(-5.2 -12)"/><path d="M66.7,207.9l-1.4.7H65.2l1.4-.8v0.2Z" transform="translate(-5.2 -12)"/><path d="M41.9,118.6l-1,.9-0.2-.3,1.1-.7h0.1Z" transform="translate(-5.2 -12)"/><path d="M50.8,171.1l0.8,1.2H51.4l-0.8-1.2h0.2Z" transform="translate(-5.2 -12)"/><path d="M55.8,203.8H55l0.2-.8Z" transform="translate(-5.2 -12)"/><path d="M27.8,98.9l-1.3,1.2H26.3l1.4-1.2h0.1Z" transform="translate(-5.2 -12)"/><path d="M36.4,188.5l0.6,0.9H36.8l-0.5-.9h0.2Z" transform="translate(-5.2 -12)"/><path d="M44.7,83.9l1.1-.9H46l-1.1.9V83.9Z" transform="translate(-5.2 -12)"/><path d="M38.5,192.1l-0.9-1.2,0.3-.2,0.6,1.4h0Z" transform="translate(-5.2 -12)"/><path d="M20.4,122.3l0.9-.4-0.6.7Z" transform="translate(-5.2 -12)"/><path d="M56.5,209.7l-0.7.5-0.2-.3,0.7-.5Z" transform="translate(-5.2 -12)"/><path d="M69.1,132.4l1.3-.8h0l-1.3.8h0Z" transform="translate(-5.2 -12)"/><path d="M54.8,208.2l-0.9-1.6h0.2l0.8,1.6H54.8Z" transform="translate(-5.2 -12)"/><path d="M86,80.5l0.8-.2a1.2,1.2,0,0,1,0,.4H86V80.5Z" transform="translate(-5.2 -12)"/><path d="M53.8,149.3l0.8-1.3,0.3,0.2-1,1.1h0Z" transform="translate(-5.2 -12)"/><path d="M56.9,198.8l-0.7-1h0.2l0.8,1Z" transform="translate(-5.2 -12)"/><path d="M21.6,211.5l-0.8.9H20.7l0.8-1Z" transform="translate(-5.2 -12)"/><path d="M34.7,58.8v1.7H34.5l0.2-1.7h0Z" transform="translate(-5.2 -12)"/><path d="M64.5,165.1l0.6,0.9H64.9l-0.6-.9h0.2Z" transform="translate(-5.2 -12)"/><path d="M51.8,130.7l0.2-1.2h0.3l-0.5,1.1h0Z" transform="translate(-5.2 -12)"/><path d="M23.5,78.2l-0.8.2V78.1l0.8-.2v0.3Z" transform="translate(-5.2 -12)"/><path d="M29.2,221l0.5,1.3H29.3V221Z" transform="translate(-5.2 -12)"/><path d="M75.1,79.4h1v0.2h-1V79.4Z" transform="translate(-5.2 -12)"/><path d="M63.2,85l1.1,0.3-0.5.4Z" transform="translate(-5.2 -12)"/><path d="M67.6,236.6l1-.7a1.8,1.8,0,0,1-.4.6A1.3,1.3,0,0,1,67.6,236.6Z" transform="translate(-5.2 -12)"/><path d="M39,181.4l-0.3.9H38.5l0.4-.8H39Z" transform="translate(-5.2 -12)"/><path d="M80.4,118l-1.4.6v-0.3l1.4-.4h0Z" transform="translate(-5.2 -12)"/><path d="M75.9,168.3l-1,.6H74.8l1-.8v0.2Z" transform="translate(-5.2 -12)"/><path d="M34.2,198.3l-0.7.8-0.4-.4,0.9-.6Z" transform="translate(-5.2 -12)"/><path d="M31.3,88l-0.8.6V88.4l0.9-.5V88Z" transform="translate(-5.2 -12)"/><path d="M46,61.3v1.2H45.9V61.3H46Z" transform="translate(-5.2 -12)"/><path d="M56.7,75.8l1,1.3H57.5l-0.8-1.4h0Z" transform="translate(-5.2 -12)"/><path d="M22.7,120.2l0.9-1.1h0.1l-0.9,1.1H22.7Z" transform="translate(-5.2 -12)"/><path d="M51.5,206.5l-0.7.5-0.2-.2,0.7-.5Z" transform="translate(-5.2 -12)"/><path d="M21.2,161.8l-0.8,1H20.3l0.8-1h0.2Z" transform="translate(-5.2 -12)"/><path d="M44.2,196l-0.8.6,0.7-.8V196Z" transform="translate(-5.2 -12)"/><path d="M60.8,160.9L60,159.8h0.2l0.8,1.1H60.8Z" transform="translate(-5.2 -12)"/><path d="M45.8,107l0.5-.6,0.2,0.2-0.5.6Z" transform="translate(-5.2 -12)"/><path d="M23.1,158.8l0.9-.6-0.7.9Z" transform="translate(-5.2 -12)"/><path d="M66.7,97.7l-0.4-.6,0.2-.2,0.5,0.5Z" transform="translate(-5.2 -12)"/><path d="M69.2,117.9l-0.6-.4,0.7-.4v0.7Z" transform="translate(-5.2 -12)"/><path d="M78.2,167.2l1.1-.3v0.2l-1.1.3v-0.2Z" transform="translate(-5.2 -12)"/><path d="M78.7,221.7v-1H80l0.5,0.2-0.4.4-1,.7-0.5-.2h0Z" transform="translate(-5.2 -12)"/><path d="M78.7,221.7H78.2l-1,.3a1.3,1.3,0,0,1,.1-0.4h1.3Z" transform="translate(-5.2 -12)"/><path d="M72.5,215.2l-3,2.1Z" transform="translate(-5.2 -12)"/><path d="M157.5,177.1l-1.7,2.6h0.1l1.8-1.1-1.3,1.9-2.8,3.8,2-1.3v0.2l-2.5,2.1h-0.4a1.1,1.1,0,0,1,0-.5l3.3-4.9-3.3,2.7-0.3-.3,5-5.4h0Z" transform="translate(-5.2 -12)"/><path d="M158.7,169.4c-1.3,2.4-2.4,4.3-3.6,6.2a4.8,4.8,0,0,1-2.4,1.8Z" transform="translate(-5.2 -12)"/><path d="M157.3,175.1l-2.2,2.1,1-.3-3.1,2.8h-0.2a0.6,0.6,0,0,1,0-.4l4-4.7Z" transform="translate(-5.2 -12)"/><path d="M152.9,203.1l1.3-.8v0.2l-1.6.8a16.5,16.5,0,0,1,.6-2c0.3-.7.8-1.3,1.3-2.2l-2.1.9a1.2,1.2,0,0,1,.2-0.5l1.9-1.2,0.4,0.5Z" transform="translate(-5.2 -12)"/><path d="M156.7,182.9H156v-0.2l1.3-.4a5.1,5.1,0,0,1-.4,1.2l-1.9,2.7c-0.3.5-.5,1.2-0.8,1.8a1.5,1.5,0,0,1-.6.3,1.7,1.7,0,0,1,.1-0.7l2.8-4.1A3.7,3.7,0,0,0,156.7,182.9Z" transform="translate(-5.2 -12)"/><path d="M152.9,197.2l3.1-1.4V196l-4.3,1.9a1.1,1.1,0,0,1-.1-0.6l2.6-2.5,0.4,0.4-2.3,1.4Z" transform="translate(-5.2 -12)"/><path d="M156.7,190.6l-3.2,4.4h-0.3a1,1,0,0,1,0-.5l3.4-4.1Z" transform="translate(-5.2 -12)"/><path d="M151.9,212.2l1.6,0.3-2.2,1.3-0.2-.3,0.8-1.4h0Z" transform="translate(-5.2 -12)"/><path d="M157.5,177.1l0.4-1.2-1,.3V176l1.4-.5,0.3,0.3-1,1.3h0Z" transform="translate(-5.2 -12)"/><path d="M151.9,212.2l1.4-2.2,0.4,0.3-1.8,1.9h0Z" transform="translate(-5.2 -12)"/><path d="M115.4,199.1a1.6,1.6,0,0,1-.6.4,2.4,2.4,0,0,1-.7-0.4l0.9-.4Z" transform="translate(-5.2 -12)"/><path d="M107.8,89s-0.1-.8-0.2-1.5,1.3-.8,1.9-1.1a3.8,3.8,0,0,1,2.5.2,2,2,0,0,1,.6,3.6,8.8,8.8,0,0,1-2.7,1.5C108,92.3,107.7,92,107.8,89Zm4.7,0-0.2-1.1a7,7,0,0,0-2.6-.6c-2.1.3-.8,2-1,3.1a0.9,0.9,0,0,0,.5.5Z" transform="translate(-5.2 -12)"/></svg>