<svg id="ricebowl_rice_Image" data-name="ricebowl(rice) Image" xmlns="http://www.w3.org/2000/svg" viewBox="0 0 178.5 147.8"><title>ricebowl(rice)</title><path d="M128.9,160.3c2.1,2.8-.3,6.7-3.5,7.4l-8.4,1.9c-4,.8-8,1.7-12.1,2.1a70.9,70.9,0,0,1-13,.3c-5.9-.5-11.7-1.7-17.6-2.7-3.2-.5-6.3-1.3-9.4-2.1a8.3,8.3,0,0,1-2.2-1.5,1,1,0,0,0-.6-0.2c-3.6.8-5.2-1.7-6.1-4.6-0.3-1-.4-2.1-0.7-3.2a0.4,0.4,0,0,1,0-.2c1.8-1.9-.5-1.8-1.2-2.3-2.7-2.2-5.4-4.2-8.1-6.3-5.4-4.2-9.6-9.4-13.4-15s-6.3-8.6-9.1-13.1-5.8-10.6-8.9-15.7-4.1-10.5-5.4-16S7,79,5.7,74.1,6,64.4,8.6,60.1,16.1,51.4,20.7,48c2.5-1.8,5-3.6,7.6-5.2s6-3.2,9-4.7,7.1-3.3,10.8-4.7a53.2,53.2,0,0,1,7.5-2.2c3-.7,6.1-1.2,9.2-1.8a0.8,0.8,0,0,0,.6-0.5c0.1-1.6.9-2.8,2.5-2.6s1.9,1.2,2.9,1.9a1.9,1.9,0,0,0,1,.3l1.4-.3,8.9-1.7c0.6-.1,1.3.5,1.9,0.6l2.9,0.2c0.6,0.1,1.2.5,1.8,0.5a5.9,5.9,0,0,0,2.5-.3L98,24.3a0.7,0.7,0,0,1,.6.3,1.2,1.2,0,0,1,.1.9c-0.4.9-1,1.8-1.4,2.6,2.5,0.6,5,1.5,7.5,1.9s4.8,0,7.1.4c5.4,1.1,10.7,2.3,15.9,3.8a77.1,77.1,0,0,1,8.3,3.4l6.3,2.6a8.6,8.6,0,0,1,1.5,1.2c1.1,0.3,3.3.3,4.4,1.3s4.8,2.5,7.1,4c4.3,2.9,8.8,5.5,13.1,8.4a112.9,112.9,0,0,1,9.2,7.1c2.7,2.3,5.3,4.9,5.8,8.7a31.2,31.2,0,0,1,0,7.1,76,76,0,0,1-1.5,9.8,34.6,34.6,0,0,1-2.5,6.2c-1.5,3.3-2.9,6.5-4.6,9.7s-4.9,9.3-7.5,13.9-3.6,6.1-5.6,9-3.8,5-5.8,7.5-4.3,5.5-6.6,8.2a71.3,71.3,0,0,1-7.4,7.8C137.8,153.8,133.3,157,128.9,160.3Zm-12.1-27.6-0.2.7,1.1,0.5a1.5,1.5,0,0,0,0-.8,2.2,2.2,0,0,0-.9-0.3,1.3,1.3,0,0,0,.5-0.4,8.4,8.4,0,0,0-.4-1.3l-0.8.7-2.4,1.6,0.2,0.4ZM114.1,158l2.2-.2,1.9-.5a1.2,1.2,0,0,0-.1-0.5c-0.9-2.1-2.2-.5-2.7-0.5l-1.2,1.8-0.5-.4-1.3-.6-0.3,1.4h1.2ZM128.2,124l0.4-.8h-0.8l-0.9.4-1,.9h1.3l1-.5-1.7,1.5,1.4,2.2a2.7,2.7,0,0,0,.8.5,5.1,5.1,0,0,0,.2-1.1,0.9,0.9,0,0,0-.3-0.5v-1.9ZM26.1,54a3.2,3.2,0,0,1-1.2-.5,21.5,21.5,0,0,1,.3-2.6,1.4,1.4,0,0,0-.2-0.5,1.1,1.1,0,0,0-.5.2l-1.3,4.1a0.5,0.5,0,0,0,.2.3l2.7-1.1,0.8-2.2H26.2V54ZM125,150.7l-1.6-.4a12.5,12.5,0,0,0,1,2.5c0.8,1.2,1.5,2.3.1,3.6v-0.8l-0.7,1.2,0.9,0.2,0.4-.3,5.5-3.5a1.9,1.9,0,0,0,.4-0.6,2.4,2.4,0,0,0-1.1-.3l-2.6,1.2v-0.2l-2.3-2.7a7.2,7.2,0,0,0,1.4,1,1.7,1.7,0,0,0,1.4.1,2.1,2.1,0,0,0,.3-1.5c-0.4-2.2-1.7-.4-2.5-0.5A3.1,3.1,0,0,0,125,150.7ZM30.2,103.2l-0.5.8h0.9l-0.4-.7,0.5-1.2a8.5,8.5,0,0,0,1.2,2,2.8,2.8,0,0,0,1.6.3,14.3,14.3,0,0,1,3.3.1,27.6,27.6,0,0,1,4,1.9l0.3-.7-0.6-.5-9.9-5.5c-0.9-.5-2.2-1.5-2.7-1.2s-1.3,2.5-.4,4S29,104,30.2,103.2ZM148,117.5a1.5,1.5,0,0,0,.6-0.4,14.3,14.3,0,0,0,.6-1.6,2.6,2.6,0,0,0-1.1,0l-3.7,1.7,0.4-.3,4.5-3.2a0.6,0.6,0,0,1,.6,0,7.1,7.1,0,0,1,.7,1h-0.6l-0.5.2a12.8,12.8,0,0,0,0,1.7h0.5l0.9-1.5a28.9,28.9,0,0,0,3.4-1.1c2.2-1,1.7-3.3,2.2-5.1a1.1,1.1,0,0,0-.7-0.6l-5.4,2.5c-2.7,1.1-5.5,2-8.1,3.2s-4.6.5-5.2,4a7.8,7.8,0,0,0,0-1.5,1.2,1.2,0,0,0-.4-0.7l-6.4,1.3v0.8l1.6-.2,2.2-.5v0.3a6.7,6.7,0,0,1-2.1.8c-1.4,0-2,.4-0.8,1.6a1.9,1.9,0,0,0,1.6,0l4.4-1.9a3.5,3.5,0,0,0,1.4-.4,6.6,6.6,0,0,0,1.2-1.5l1.7,2.1c0-.1-0.1.1-0.1,0.2l0.7,0.8V120l2.2,1.5,0.3-1.3,0.9,1-0.3-1.9h-1.1a13.3,13.3,0,0,1-.1-1.5,2,2,0,0,1,.3-0.7,9.4,9.4,0,0,0,2.1.8,3.4,3.4,0,0,0,1.4-.5,1.1,1.1,0,0,1-.2.4l-2.1,1.4,1.7,0.3v0.2c-2.4.2-.9,1.7-0.7,2.6s1,2.8,3,1.2c-0.5.4-1,.4-1.3,0.7s-0.2,3.1.8,2.6a6.6,6.6,0,0,0,1.6-1.7l0.2,1.1a7.1,7.1,0,0,1,1.6-1c2.5-.7.4-2.1,0.5-3.2l-1.3-.3a12,12,0,0,0,2.5-1.5,9.4,9.4,0,0,0,1.4-2.3l-0.5-.3-2.8,2.5a10.2,10.2,0,0,0-.7-1.1,0.8,0.8,0,0,0-.7,0,1.9,1.9,0,0,0-.5.5l0.2,0.2,0.8,0.3-0.7.8-0.5.6h-0.9l-0.5-.2v-0.4l0.6-1.4-1.5.3h-0.4l1.6-1.1Zm-39.4,10.6-0.2.9a7.3,7.3,0,0,0,1.6-.3,2.7,2.7,0,0,0,.8-0.8h-2.1c0.3-.9,2.5-0.5,1.5-2.2a1.9,1.9,0,0,0-.9-0.4l0.5-.8h-2c1.7-.4,1.8-1.7,1.1-3.3a1.2,1.2,0,0,1,.1-0.9,5.5,5.5,0,0,1,1.4,0v0.3h-0.6c0.6,1.2.5,3.3,2.8,1.6l-0.9.6a1.2,1.2,0,0,0-.5.7,1,1,0,0,0,.4.7l4.1-1.3v-0.2h1.1l-0.5.5-4.6,1.6,0.7,0.9a4.6,4.6,0,0,0,1.1,1.3,14.2,14.2,0,0,0,2.6-1.6,1.6,1.6,0,0,0,.1-0.8l0.4,0.9,1.4-.8c1.2-.7,2.5-1.6,3,0.8a0.9,0.9,0,0,0,.6.5,1.8,1.8,0,0,0,.9-0.8,15.9,15.9,0,0,0-.6-2.6v-3.4l-3.6,1v-0.3l3.8-1.4a8,8,0,0,0-3.6-.3,2.4,2.4,0,0,0-.5,1.2l-1.5-.3V121H116l-0.4,1.1-1.8-.3c0.6-.5.6-0.5-1.4-2l3.5-1.3-0.2-.6-5.6,1.4,2.6-1.5a21.3,21.3,0,0,1-2.8.7l-5.5.3c-0.9.1-1.9,0.3-1.1,1.8s1.5,2.7,3.4,1.3a2.3,2.3,0,0,1,.9-0.2c-0.5,1.2-3.6,0-2.4,2.6s1.4,2.6,3.3,1.7l-1.7.8Zm35.9-18.6c-1-.5-2.9-0.9-2.9-1.4-0.4-3.2-1-2.5-2.7-.7a29.7,29.7,0,0,1-6.1,4.4c-1.4.8-3,2.5-4.7,0.2l-0.5.2c-1.8.5-3.5,1-5.3,1.4a2.5,2.5,0,0,1-.9-1.3,98.8,98.8,0,0,1,7.2-7.3c2-1.7,4.5-2.8,6.5-4.5a42.4,42.4,0,0,0,4.2-4.6l-9.4,3.4,0.7-1.2L129.4,97l-1.2,3.6c-1.1,3.1-2.5,5.9-5.8,7.1l-3.5,1.5a2.2,2.2,0,0,0-.6.6l0.7,0.3,1.3,0.5a5.4,5.4,0,0,1-.6,1.5c-0.9,1.1-1.9,2.1-3.1,3.4l3.8-.3a60.8,60.8,0,0,0,8.1-.8c4.5-1,8.9-2.4,13.3-3.7a17.9,17.9,0,0,0,2.6-1.2H145c2.2-1,4.6-1.8,6.7-2.9,5.1-2.7,10.5-5.1,14.7-9.4,1.1-1.2,2.4-2.1,4.1-3.6-7.6,2.8-14.1,8.1-22.4,4.9l4.1,2.9a0.8,0.8,0,0,1,.2.6c-0.1,2.3-2.1,2.1-3.5,2.2a15.5,15.5,0,0,1-3.9-.8C146.4,105.5,146,107.6,144.5,109.5ZM91.2,134.7a1.7,1.7,0,0,1-.8-0.2c-0.9-1.2-1.6-2.5-2.5-3.6a2.6,2.6,0,0,0-1.7-.2,3.8,3.8,0,0,0-.2,1c0,0.3,0,.6-0.1,1H85.5l-1.7-2.2H84l1.1,0.9-1.2-4.4a0.6,0.6,0,0,0-.4-0.4l-1.5.5,0.3,0.5h0l-2.3.3,0.7,1.3,0.8,1.1,2.5,3.1,0.6,0.3-0.2.4a1.4,1.4,0,0,1-.8-0.3l-1.9-2.5c-1.2-1.5-1.6-4.2-4.5-2.8a1,1,0,0,1-.8,0,0.9,0.9,0,0,1-.2-0.7l3.6-2.8,0.3,0.4-0.9.5a9.2,9.2,0,0,0,.8,1.3l4.8-2.3h3v-0.4h0.9l0.2,2c-0.3-.3-0.7-1.2-1-1.1s-2.9.4-3.1,0.9,0.5,2.3.8,3.4l0.5-.3v0.9l1.4-.5-0.4-.5-1.2-2.9,1.9,2.1c0.1-.1-0.1.1-0.1,0.2a1.5,1.5,0,0,0,.4.8l1.1-.5H89l1-.4a3.2,3.2,0,0,0,1-.3,1.6,1.6,0,0,0,.3-0.7H88.5l0.5-.6,1.5,0.3L89.7,124H89.6L89,121.2c-0.1.3,0.2-.2,0.1-0.3a8.7,8.7,0,0,0-1.3-1.2l3.6-1v-0.5l-4.9.4v-0.2l0.8-.3v-0.4l-3.3-.2,1.5,1.6-0.5.4-2.3.3,1.8-1h-3l-0.2.3,1.3,0.7a1.4,1.4,0,0,0-.3.6,0.7,0.7,0,0,0,.5.5l2-.5,2.1-.3-1.3,1-2.7.3,0.7,1.1-0.2.2-1-.8h0l-3.5.9,1.9,2.6,0.4,1.5c-1.5-2.6-2.6-5.2-5.3-3.4v-2a0.9,0.9,0,0,0,.3.5l1.4,0.5,4.9-1.2-2.6-2.3,0.7-.2c-0.5-2.4-2.4-2.4-4-2.5s-3,.9-2,2.5v0.2c-1.1-2.9-3.2-1-5.2-1.3a13.6,13.6,0,0,0,2.1-.3,10.2,10.2,0,0,0,1.6-.8c-0.7-.6-1.2-1.7-2-1.8a24.8,24.8,0,0,0-5-.3,5.3,5.3,0,0,0-1.5.4l-0.3.9-0.6-1.4-0.2.2a21,21,0,0,0-3.1.2,7.7,7.7,0,0,0-1.8,1.1,0.9,0.9,0,0,0-.3-0.5l-3.9.9,0.2,0.8a2.3,2.3,0,0,0-.9-0.4l-1.9.4a1.2,1.2,0,0,0-.2.6,4.3,4.3,0,0,0,1.2.2l3.2-.4a22,22,0,0,1-3.4,1l-1.6.7,1.4,2.9a1.1,1.1,0,0,1,0,.7,0.9,0.9,0,0,1-.4.3l-3.3-4.1h0l2.5,2.8,0.3-.2-2.2-5.2h0.2l0.6,1a2.5,2.5,0,0,0,.1-1,11.9,11.9,0,0,0-2.3-2.3c-0.5-.3-1.4,0-2.1,0l0.6,1.2,0.4,0.7,0.3,0.6c-1.1-2.3-2.8-3-5.4-2l2.7,4.6a2,2,0,0,1,.1.5l-0.4-.2c-0.8-1.4-1.6-2.9-2.5-4.2a2.9,2.9,0,0,0-1.4-.5,5.4,5.4,0,0,0,.1,1.1c0.2,0.6.6,1.2,0.7,1.9a2.6,2.6,0,0,1-.2,1l-0.8-.6c-0.9-1-1.7-2-2.5-3s-1.9-2.9-3-4.6l0.7,0.3,4.1,5.9,0.5,0.5a0.8,0.8,0,0,0,.2-0.4c-0.3-.8-0.7-1.5-1-2.3a10.2,10.2,0,0,1-.3-1.6,2.7,2.7,0,0,0,.6.7,1.2,1.2,0,0,0,.8,0l4.2-1.1-1.9,1.1H45v-0.3h3.8l-2.7-3.8a1.2,1.2,0,0,1,1.2.6c1,1.7,1.5,3.8,4.2,3.2a1.9,1.9,0,0,1,1.5.2c0.8,2,2.5,2.5,5,.7l-4.1-.9,2.5-.4v-0.7l1.4,1-0.4.2c1.1,2.2,2.8.7,4.2,0.7h4.5v-0.5l-4.5-.6H61.3c-2.3-.6-4.7-1-6.9-1.7s-6.3-2.5-9.4-3.7c-0.6-.2-1.5.3-2.3,0.5l0.6,1.1,0.2,1.2c-0.7-1.8-1.7-3.3-4-3l2-.2v-0.3l-4.2-1.1,1,1.9,0.9,1.7c0.3,0.6.5,1.1,0.6,1.4L38,109.5l-0.4.6-0.3-.5,1.6-.4-2.3-3.4v1.7l-0.5-2-0.2-.6-0.6.4a11.9,11.9,0,0,1-.8,1.1c-1.2,1.1-1.2,1.9.2,2.4s0.1,0.6.1,1a3.5,3.5,0,0,1,0,.8,2.1,2.1,0,0,0-.2.7l2.5,5.1a1.3,1.3,0,0,1-.2.8H36.5l-2.1-3.8,0.7,0.6a7.2,7.2,0,0,0-1-2.7,1.8,1.8,0,0,0-.6-0.4l-0.2.7h0l-2-.3-0.6-.2,0.2-.5a3.4,3.4,0,0,0,.3-1.7,21.9,21.9,0,0,0-1.9-2.8,4.4,4.4,0,0,1,1.4,1.4l1.3,1.6c0.1-.6.6-1.4,0.4-1.9s-1.4-2.6-3.2-2.4v0.9l-0.6-.2-1.7,1.9h0a0.6,0.6,0,0,0,.1-0.3l-0.9-2.6-1.2.6-1.9,1.3a0.7,0.7,0,0,1-.6-0.1,1.1,1.1,0,0,1-.1-0.9l1.8-3a1.1,1.1,0,0,0-.1-0.8,0.7,0.7,0,0,0-.6.1l-2.4,3.2c-0.4.6-1.3,1.5-1.1,1.8a49.3,49.3,0,0,0,3.8,7.5c2.5,3.8,5.4,7.3,8,11,4,5.7,7.8,11.6,12,17,2,2.6,4.9,4.5,7.5,6.6l6.5,5.3a21.5,21.5,0,0,0,3.1,2.1,11.8,11.8,0,0,0,2.3.6l6,1.7,6.1,1.3,10.8,2.2a9,9,0,0,0,1.7,0l-0.7-1.2a1.4,1.4,0,0,1,0-.6h0a12,12,0,0,0,1.4,1.6,2.3,2.3,0,0,0,1.3.3,1.1,1.1,0,0,0,.2-0.7c-0.2-1.3-.5-2.5-0.7-3.8a1.5,1.5,0,0,1,.1-0.5,1.1,1.1,0,0,1,.6.2,41.2,41.2,0,0,0,2.3,3.9,5.2,5.2,0,0,0,2,1,3.8,3.8,0,0,0,.5-1.3,6.3,6.3,0,0,0-.4-2.1c-0.6-1.4-1.2-2.8-1.8-4.2a9.9,9.9,0,0,1-.4-1.1l0.2-.2a2.5,2.5,0,0,1,.8.7,25.2,25.2,0,0,0,1.2,3.1,41.5,41.5,0,0,0,3,4.2,1.3,1.3,0,0,0,.9-0.3,2.6,2.6,0,0,0,.4-0.9c0.5,0.6.8,1.3,1.3,1.4a22.7,22.7,0,0,0,4.9.3c2.9-.2,5.7-0.7,8.6-1l4.8-.4c-1.8-2-3.6-1.6-5.6-.9a7.7,7.7,0,0,1-2,.2v-0.9l-2.1-.8,0.8,2-2.8.4a2.4,2.4,0,0,0-.8,0c-0.7,1.7-1.6.8-2.4,0.1a15.5,15.5,0,0,1-1.5-1.5,9.5,9.5,0,0,1,0,1.4,3.3,3.3,0,0,1-.4.8l-1.6-1.4,0.3-.4,0.8,1,0.3-.2-0.4-1.7-1,.4H98.8a25.6,25.6,0,0,1-.1-2.8l0.4,1.4c2.8-.9.4-2.4,0.6-4.1,0.5,1.2.7,2.3,1.3,2.8s1.5-.3,2.8-0.7l0.8,1.6c-0.2.3,1,2.3,2.4,2.7a1.2,1.2,0,0,0,1.1-.2,1.3,1.3,0,0,0-.1-1.2,0.6,0.6,0,0,0-.6-0.1v-2.4l-1.2-1-1.7-4,2.6,3.7-0.4.4,2.4,0.9-0.5.7a2.3,2.3,0,0,0,1,.6,7,7,0,0,0,1.7-.8l-1-1,0.3-.5-1.6-1.1v-0.4l3.3-.6a21.3,21.3,0,0,0,2.5-1,22.5,22.5,0,0,0-1.6-2.7c-0.2-.2-0.9.1-1.4,0l-1.5-.2,1-1a1.9,1.9,0,0,0,.6-1.1,16.1,16.1,0,0,0-1.3-2.3l0.2-.2,0.7,1.1,1.8-2.5,0.5,1.2,2.7-.6a16.4,16.4,0,0,0,2.1-1l-1.9-3.6v-0.3h-0.9l0.2-1.9-4.8,1.8a1.7,1.7,0,0,1-.8-0.2,1.3,1.3,0,0,1,.3-0.5l2.9-1.4-1.1,1.2,6.4-2.7a1.6,1.6,0,0,0,.3-0.8h-0.6l-4.9,2.3,3-1.7a1.7,1.7,0,0,0-1.6-.5l-2,.5h-1.9a3.6,3.6,0,0,0,.6-1.3c-0.3-1.3-.7-2.5-1.1-3.8a0.6,0.6,0,0,0-.5-0.2c-1.8.4-1.5,1.3-.6,2.4l1.5,1.9a4.1,4.1,0,0,1-1.6-1.4c-0.6-.7-1.2-1.9-1.7-1.9s-3,.9-1.5,2.9a2.7,2.7,0,0,1-.1,1.4h-0.5l-3.9-4.7c0.7,0.2.9,0.8,1.3,1a1.7,1.7,0,0,0,1.2-.7,11.2,11.2,0,0,0-.9-2.1l-2.3,1a1.6,1.6,0,0,0-1,0c-0.7.3-1.8,1-1.7,1.4s0.9,2.1,1.2,3.2a11.3,11.3,0,0,1,.2,2.5l-1.5-.7H100l-1.8-5a1.1,1.1,0,0,1,0-.8l3.1-1.5-2-2.8a0.5,0.5,0,0,1,.7.1l1.9,2.6,1.8-1.3v0.4l2.3-.5v-0.4h-1.3l1.1-.5c-0.6-.8-1.3-2.3-1.8-2.3-2.3.3-.2,1.9-0.6,3a12.7,12.7,0,0,0-1.2-3.2c-0.8-1.1.1-3.4-2.3-3.4l0.2-.2,0.9-.9H99.9a1.8,1.8,0,0,0-.9.1c-0.7.4-3-.9-1.9,1.6h0.1c-0.6-.4-1.2-1-1.7-0.9a28.1,28.1,0,0,0-4.2,1.4,1.1,1.1,0,0,0-.6.8c0.7,1.4,1.4,2.8,2.2,4.2l-1,.4,0.5-.6-1.4-1.9-1.1-2.6-0.7.2,2.5,7.1,0.2-.2a6.3,6.3,0,0,0-1.3.9c0.5,1.2,1.1,2.4,1.7,3.6a1.7,1.7,0,0,0,.1-1.4,0.9,0.9,0,0,1,.2-0.4l0.3,0.2a10.3,10.3,0,0,1,.5,1.6,6.6,6.6,0,0,1,0,1.3,3.2,3.2,0,0,1-.9-0.7,22.1,22.1,0,0,0-2.1-3.4c-0.4-.4-1.5-0.2-2.3-0.2a0.9,0.9,0,0,0-.3.7l3,4.2h0Zm52.9-72,1.5-.7a4,4,0,0,0,1.5-.4c3-2.9,6-5.9,8.9-8.9,0.3-.3.1-1.1,0.1-1.7a3.3,3.3,0,0,0-1.6.1c-2.3,1.9-4.6,3.8-6.8,5.9s-2,2.9-3.3,4a26.4,26.4,0,0,1-5.5,3.7c-1.1.5-2.5,0.3-3.8,0.4a1.4,1.4,0,0,1-.6-1c0.6-.8,1.4-1.6,2.1-2.4a2.7,2.7,0,0,1-.7,1.1,2.7,2.7,0,0,0-.6,1.3,1.3,1.3,0,0,0,1,.6,13.4,13.4,0,0,0,4.1-1.7c2.2-1.7,4.2-3.8,6.3-5.7l-0.7-.9-8.8,4.9h0.1c2.1-1.5,4.2-3.1,6.4-4.6s2.6-1.5,3-1.2,1.6-.2,2.3-0.6,0.5-.9.9-1.2l5-3.7c-1.9-1.2-4-3.2-6.4-3.8s-5.2.1-7.7,0.2l1.2,1.6a10.1,10.1,0,0,1-1.8,1.2l-6.4,2.3a1.8,1.8,0,0,1,.6.4,6.8,6.8,0,0,1,.8,1.8,1.2,1.2,0,0,1-.8.8l-10.9,2.6a0.8,0.8,0,0,0-.5.6c-0.2,1.1-.3,2.3-0.4,3.5H123l6.8-2a9.2,9.2,0,0,1,2.9-.3,8.8,8.8,0,0,1,2.1.7h0.7a1.5,1.5,0,0,1-.2.7l-5.8,4.3-0.6.4,0.7,0.4,2.6,1a28.3,28.3,0,0,1,2.5,1.5l-2.3,2.9a1.1,1.1,0,0,0-.3.4,10.6,10.6,0,0,1-3.9,6.7l-5,4.4h1.2l5.6-1c0.7-.1,1.8-1.2,1.9.6h0.3l3.5-1.7a1.3,1.3,0,0,0,.7-0.8c-0.1-1.7-.5-3.4-0.5-5.1a30,30,0,0,1,.8-4.6c0.5-.2.4-0.4,0.2-0.6l-0.4-.7,0.4-.3a1.7,1.7,0,0,1,.8.5c0.5,0.8.8,1.6,1.3,2.3l0.3,0.3a0.6,0.6,0,0,0,.3-0.3l1-1.8,2-3.5,1-1.6,0.6-.8h0.3l-0.3.8,1.7-1.1ZM99.6,78.4a21.2,21.2,0,0,1-2.8.6,5.3,5.3,0,0,1-1.9-.4,1.1,1.1,0,0,1-.1-0.7c0.2-1,.5-2,0.6-3,0.5-2.9.9-5.9,1.3-8.8a5.9,5.9,0,0,0,0-.7l-0.5.2a27.2,27.2,0,0,0-2.4,1.6c-0.6.5-1.4,1.1-1.4,1.6a7.6,7.6,0,0,0,.9,2.8c1.3,2.9,1.4,5.9-.2,8.7-0.7,1.2-2,1.9-3.1,2.9-0.5-1.1-1.1-2.2-1.5-3.3a16.5,16.5,0,0,1-.5-2.2,6.5,6.5,0,0,1-.5,1.9c-0.9,1.2-.3,2,0.6,2.6s2.3,3.4,1.9,5.7-1,2.1-2.6,1l-3-1.9-1,2.9c-1-.5-2.6-0.7-3-1.5-1.4-2.6-2.3-5.4-3.6-8-0.2-.5-1.2-0.6-1.8-0.8a1.1,1.1,0,0,0-.2.5c0.8,1.4,1.7,2.9,2.4,4.3s2.4,4.5,3.4,6.9c0.2,0.5-.4,1.4-0.8,2a1.9,1.9,0,0,1-1.5.5,49.1,49.1,0,0,1-4.5-5.7,25.2,25.2,0,0,1-1.8-4.7,22.9,22.9,0,0,1-1.5,1.9c-0.8.8-1,1.3,0.3,1.9s3.4,3.7,3.8,6.2,0.9,2.2,2.5,1.7l8.8-2.7a2.3,2.3,0,0,0,.8-1.2c0.3-.6.6-1.8,0.7-1.8a9.1,9.1,0,0,1,3.3,1.2,58.8,58.8,0,0,1,4.5,4,16.1,16.1,0,0,1-.1-1.9c0-.8.2-1.7,0.3-2.5l1.4,0.7h0.6a2.7,2.7,0,0,1,1.3.8c0.8,1.9,1.5,3.8,2.3,5.8,0-.2,0-0.4,0-0.5-0.1-2.2-.2-4.3-0.1-6.5,0-.6.9-1.2,1.4-1.8l1.1,0.9c-0.5.3-1.4,0.6-1.4,0.9,0,2.9.1,5.7,0.3,8.6a1.3,1.3,0,0,0,.7.9,1.2,1.2,0,0,0,.8-0.5c2-2.7,1.7-5.8,1.7-9s-1.9-2.1-3-2.5-4.6-1-6.8-1.6c-0.5-.1-0.8-1-1.2-1.5l1.5-.9a2.2,2.2,0,0,0,.8-0.5ZM61,64.2l1-.5a7.4,7.4,0,0,1,.1.8,2.1,2.1,0,0,0,0,.7,35.5,35.5,0,0,1,2.1,3.4c0.8,1.8,1.3,3.6,2,5.5a1.7,1.7,0,0,0,.8.3,3.2,3.2,0,0,0-.1-0.7c-1-3.2-1.9-6.3-2.9-9.5A2.4,2.4,0,0,0,63,63c-1.5-1-4.7,0-4.3-3.5l-6.3,2.2a2.3,2.3,0,0,1-1.4-.5,0.9,0.9,0,0,1,.1-0.8l7.2-6.3a0.9,0.9,0,0,0,.1-0.9c-1-1.7-1.6-3.4.7-4.8s4-2.9,6.2-4.2,2-.3,3.1-0.5,0.1,1,.1,1.6a0.7,0.7,0,0,0,.3.3l1.7-1.3L77,37.9a1.6,1.6,0,0,0,.2-0.7,33.9,33.9,0,0,0-5.9.4c-0.5.1-.7,1.9-1,2.9l-0.8,2.7-1.9-1c-0.7-.4-1.9-0.8-2-1.3-0.4-2.6-.6-5.2-0.8-7.9a0.7,0.7,0,0,0-.5-0.4l-3.3.6-8.6,1.4a1.3,1.3,0,0,0-.5.5l0.4,0.3a11.7,11.7,0,0,0,2.8-.1c1.7-.4,3.3-1,5-1.5h0.8a3.1,3.1,0,0,1,.4,1.4,5.1,5.1,0,0,1-.3,1.3,11.2,11.2,0,0,1,2.8.1,3.2,3.2,0,0,1,.1,2c-1.1,4.5-3.9,8-6.8,11.3-0.4.5-1.5,0.4-2.3,0.6l-0.3-2a2.9,2.9,0,0,0-.2-0.8H50.9c0.5,0.9,1.3,1.8,1.2,2.4-0.7,2.8-1.7,5.6-2.5,8.4s-2.4,2.6-.3,4.1,3.6,3,1.9,5.7a1.7,1.7,0,0,0,.7.4H54l2-.3-0.5-1.5A6.8,6.8,0,0,1,55,65a5.4,5.4,0,0,1,.2-2.4,2.5,2.5,0,0,1,1.9-.1C58.4,63,59.7,63.7,61,64.2ZM74.7,166.6v-0.4c1.6,0.4,3.1.8,4.7,1.1,4.4,0.7,8.7,1.3,13.1,1.8a46.2,46.2,0,0,0,8.1.3c3.7-.3,7.4-0.9,11.1-1.4a20.8,20.8,0,0,0,2.8-.3c1.1-.3,2.1-0.9,3.1-1.2,2.9-.9,6.6.2,8.3-3.5a11.1,11.1,0,0,0,.5-1.4h-0.5c-1.9.7-3.8,2-5.8,2.1-7.9.5-15.6,2.7-23.6,1.9-3.2-.3-6.6.4-9.7-0.1s-8.7-1.8-13-2.9l-13-3.4a0.7,0.7,0,0,0-.6.1,0.8,0.8,0,0,0-.1.7c1.2,1.8,2.4,3.6,4.8,4.1S71.5,165.7,74.7,166.6Zm19.5-61.7,2.9,1.3,1.2,0.9a6.9,6.9,0,0,1-1.3,1l-3.3,1.2,2.1,2.3h0.5l4.5-5.2a31.9,31.9,0,0,1,2.5-3,36.6,36.6,0,0,1,3.7-2.8,1.4,1.4,0,0,1,.9,0,0.6,0.6,0,0,1,.1.5l-0.5.4-0.8.6c0.8,0,1.8-.3,2.3.1a3.3,3.3,0,0,0,4-.3,15.2,15.2,0,0,1,2.6-1.6,13.9,13.9,0,0,1,2.7-.6c-0.1,1.1.2,2.4-.3,3.2a16.9,16.9,0,0,1-3.3,2.9,14.2,14.2,0,0,0,3.8-.2,5,5,0,0,0,1.3-.1c0.8-3.2,1.6-6.5,2.4-9.8a8.3,8.3,0,0,0-2.8,1.4c-2.4,1.6-4.9,3-8,2.1a2.9,2.9,0,0,1-1.3-1.2,1.8,1.8,0,0,1,.6-1l3.6-3.3a39.1,39.1,0,0,1-3.9-1,8.5,8.5,0,0,1-1.9-1.3,7.4,7.4,0,0,1,1.4-1.3l3.3-1.6a1.7,1.7,0,0,0,.6-1c0.3-1,.1-2.7.7-3,2.2-1.3,1.8-3.4,2.5-5.5L112.7,84c-0.9,1.1-1.3,2.7-3.4,2.6a15.4,15.4,0,0,0-3.9.7h0.7c-0.2,3.6-.2,7.1-0.8,10.6-0.2,1-1.8,1.8-2.8,2.7a1.2,1.2,0,0,0-.4.5,2.6,2.6,0,0,1-2.3,3.2c-0.7.1-1.5-.4-2.2-0.7a3,3,0,0,0-1.5-.4A9,9,0,0,0,94.1,104.9Zm52.9-9.6,4.6,0.4c2.9,0.3,5.6.2,8.1-1.6a17.6,17.6,0,0,1,4.5-2.2,37.8,37.8,0,0,1,4.5-1l4-1a4.7,4.7,0,0,0,1.9-.9c2.5-2.4,2.8-5.6,3.1-8.8,0.1-1.6,0-3.3,0-5.5l-0.4.7-0.4-3.2-3.3,1.4V72.8c-1.6,1.9-2.7,3.9-4.4,5.1s-2.5,4.3-2.1,6.9l4.9-3a12.3,12.3,0,0,1-2.1,1.9l-1.5,1.5,2.3,1.6a1.8,1.8,0,0,1,.7,1.1,1.3,1.3,0,0,1-.7.8,14.1,14.1,0,0,1-3.3,1.4c-2.3.4-4.7,0.7-7,.9-0.7.1-1.5-.5-2-0.3-2.7,1-5.3,2.1-7.9,3.1ZM42.9,66.8V66.6l-0.8.6c-1.8,1.5-3.5,3.1-5.5,4.4s-2.3.1-3.1,0.7-1.3,2-2,2.9S31,77,32,77.8a3.1,3.1,0,0,1,.3,2.3,30.3,30.3,0,0,1-5.6,1.4,39.1,39.1,0,0,1-5,0v0.8H23l4.8,0.3c3.3,0.2,6.7-.8,9.7,1.5l0.8,0.7-1.6,1.6-0.9.2c1.7-1.2,1.7-1.7,0-2.2a49.1,49.1,0,0,0-7-.8L24.3,83v0.8c4.8,3.1,10,4.7,16,3.1-1.5-1-.6-3.7-3-4.3a2.6,2.6,0,0,1-.2-2.1,51.5,51.5,0,0,1,3.2-4.2l1.2-1.7A19.2,19.2,0,0,1,37.6,77c-0.7.2-1.7-.5-2.6-0.8a1.1,1.1,0,0,1,.1-0.9,38.2,38.2,0,0,1,3.8-3.7c0.8-.6,2.4-0.6,2.8-1.3s2.6-2.4,4.5-2.6a0.6,0.6,0,0,0,.4-0.3,0.7,0.7,0,0,0-.3-0.5l-2.6-2.3c-1.5-1.4-1.5-1.5-2.7-.7a20.2,20.2,0,0,0-2.9,2.6c-1.3,1.3-2.5,2.8-3.7,4.2a1.2,1.2,0,0,0,.2.8,4.2,4.2,0,0,0,1.7-.4ZM82.7,97.5l-2.8,1.4a6.8,6.8,0,0,0-2.2,1c-0.9,1-1.4,2.8-2.5,3.4a76.9,76.9,0,0,1-9.7,4.1c-0.9.3-2-.1-3-0.3s-0.9-1.6-.7-2.5H61.7l-2.6,1.5c-1.3.7-1.9,0.4-1.5-1.2-0.9.2-1.8,0.8-2.5,0.6a46.9,46.9,0,0,1-7.9-3.4c-1.1-.6-2.5-2-1.4-4H42.4c-2.3-.1-4-1.7-3.5-3.2l-6.9-2c0.3,0.9.2,2.7,1,3.2a49.7,49.7,0,0,0,7.7,4.2c5,2.3,10.1,4.5,15.3,6.5a77.2,77.2,0,0,0,9.3,2.3l13,3,4.6,1.1-0.4-.7,2-2,0.5-.7a9.7,9.7,0,0,0-2.5-.6c-1.5,0-3.1.6-4.6,0.4s-3.7-.9-3.6-3.1,1.8-2.3,3.5-2.1a1.1,1.1,0,0,0,.8-0.2ZM60,82.8l1.1-.6,1.6-.3a6.8,6.8,0,0,1,0,1.7,10.5,10.5,0,0,1-1,2.7,73.4,73.4,0,0,1-4.2,6.9A32.1,32.1,0,0,1,53.9,97a2.1,2.1,0,0,0-.7,1,1.5,1.5,0,0,0,.5,1.2l4.7,2.8a0.7,0.7,0,0,0,.7-0.1l2.9-5.3c-1.5-1.5.5-2.1,0.7-3a3.6,3.6,0,0,1-1.1-.8,3.9,3.9,0,0,1,.3-4.9c1.3-1.6,2.2-3.6,3.8-4.7s4.2-1.8,6.5-2.7c0-.1.1-0.8,0.1-1.4a6.7,6.7,0,0,0,0-1.7c-0.3-1.4-1.2-.7-2.1-0.6s-4.2.1-6.1,0.7S59.8,80.4,60,82.8ZM77.6,65.5L80,62.9l0.7,0.4-1-1.5-0.8,1-0.6.3a1.2,1.2,0,0,1-.1-0.6l1.1-1.9c-2.9-1.3-1.6-3.4-.9-5.7l-1.8,1.9-1.5,1.1a8.3,8.3,0,0,1-.1-2.3c0.8-3.2,3.3-5.5,3.8-9,0.2-1.9,2.6-3.7,4.1-5.3a30.2,30.2,0,0,1,3.4-2.8l-0.7-1.4c-1.3.5-2.9,0.7-4.2,1.6s-1.8,2.2-2.6,3.4a2.6,2.6,0,0,0-.7,1.2,4.1,4.1,0,0,0,.5,1.4l-1.4-.3H76.9c-0.9,1.4-3.2,2.1-2.6,4.5a16.1,16.1,0,0,1,0,3.3H74.1l-0.3-5-0.3.5a3.7,3.7,0,0,0-1.3.6c-0.9,3.2-1.8,6.5-2.6,9.7-0.1.4,0.9,1,1.5,1.5a0.8,0.8,0,0,0,.6-0.3,24,24,0,0,0,1.5-3c0.4-1.1.6-2.3,1-3.4a43,43,0,0,1-1.5,6,1.5,1.5,0,0,0,.6,1.1c1.7-.2,2.5.7,2.9,2.1S77.2,64.4,77.6,65.5Zm32.3-19.7c1-.8,2.2-1.7,3.4-2.4s3.3-2.4,4.3-2,2.5-.2,3.7-0.5l1.2-.4,7.9-2.1V37.7l-20.4-5.5-2.4,6.3,8.4-3.8a1.7,1.7,0,0,1,1.5.4,1.5,1.5,0,0,1,.3,1.4,13.2,13.2,0,0,1-6.8,6.4l-2.1.6ZM12.1,69.3c0.2,0.8.4,1.6,0.5,2.4a2.5,2.5,0,0,1-.2,1.1,3.2,3.2,0,0,0-.5,1.2c0.2,0.8.8,1.5,1.1,2.3a3.8,3.8,0,0,1-.2,1.5l-0.8-.4a1,1,0,0,1-1.2.2c-0.6-2.2-1-4.5-1.5-6.7a6.3,6.3,0,0,0-.5-1.1,4.3,4.3,0,0,0-.2,1.3,16.9,16.9,0,0,0,.8,3.6c1.1,2.6,1.9,5.5,3.6,7.7s5,6.7,9.2,8.4A51,51,0,0,1,27.8,94a3.5,3.5,0,0,0-.2-0.9,3.9,3.9,0,0,0-1.1-1.7c-0.8-.4-2.1-0.1-2.7-0.6A67.2,67.2,0,0,1,17,84.6c-1.1-1.1-1.7-2.8.2-4.1l-1.3-.8c-1.9-.8-2.8-2.3-2.1-4.1s2.3-.5,3.5-0.8l0.5-.3a1.4,1.4,0,0,0-.4-0.4,14.7,14.7,0,0,1-2.4-.8,2.6,2.6,0,0,1-.9-1.4,1.1,1.1,0,0,1,.4-1c1.5-.7,2.4-1.6,1.7-3.4-0.1-.1.1-0.4,0-0.5l-0.5-.5a6.1,6.1,0,0,1,0,1.1c-0.1.7-.2,1.3-0.3,1.6l-1.8,1.4-0.2.8H13.1a5.8,5.8,0,0,1-.3-1c-0.4-2.6-.8-5.3-1.2-7.9a1.6,1.6,0,0,1,.2-0.6l0.7,1.1,0.7-4.2C11.2,60,7.2,68.3,8.7,69.7l1.5-3.2,0.6,0.3-0.3-.7-0.3-.8,0.4-.2L10.9,66l0.4,1.3,0.5-.4,0.4,0.4-1.1.5h0ZM149,135.2c1.3-1.7,2.3-3.2,3.5-4.7,2.8-3.5,6-6.7,8.5-10.5a139.5,139.5,0,0,0,7.1-12.8,3.8,3.8,0,0,0-.2-1.9h-0.3c-0.6.7-1.7,1.4-1.8,2.2-0.5,2.5-1.7,3.9-3.5,3.3l-0.2,1.1c-0.4,1.4-.7,2.8-1.1,4.2a1.4,1.4,0,0,1-1,.3,6.6,6.6,0,0,0-1.3-.2,4.2,4.2,0,0,0-1.9.9,6.8,6.8,0,0,0-1,1.9l1.5-.4,1-.5h0.8a2.9,2.9,0,0,1-.6.7c-0.6.4-1.5,0.6-1.8,1.1a24.5,24.5,0,0,0-1.5,3.6l1.5,0.5-2.6,1.4c-1.6.7-3.7,0.9-3,3.5a4.5,4.5,0,0,1,.1.5h0.6l1.2-.2a2.9,2.9,0,0,1-.7.8,24.3,24.3,0,0,0-2.9,1.2,2.6,2.6,0,0,0-1,1.7A8.4,8.4,0,0,0,149,135.2ZM71.1,48l-1.4-1.6-6.1,5.4,2.4-.7h2.2a0.8,0.8,0,0,1,.2.6l-2.3,2.8-0.6-.5a6.9,6.9,0,0,0,1.3-.9,8.9,8.9,0,0,0,.9-1.4,4.4,4.4,0,0,0-1.8,0c-1,.5-1.9,1.2-3,1.7s-4.1,1.4-5.8,2.5a38.9,38.9,0,0,0-5,4.5,1,1,0,0,0-.1.4h0.4c2.5-.9,4.9-1.7,7.3-2.7a51.7,51.7,0,0,0,4.9-2.8h0.1l-2.5,1.8,4.5,0.3c1.3,0.2,2.6.6,2.6-1.5a8.2,8.2,0,0,1,.3-1.9Zm33.3-2.8c-2.6,2.9-2.3,7.1-4.6,10.2,3.8-.2,4,3.7,6.2,5.4a4.1,4.1,0,0,1,.5-1.4c0.6-.7,1.4-1.3,2.1-2a1.9,1.9,0,0,1,.7-0.6,1.4,1.4,0,0,1,.8.7c0.5,0.9.8,1.8,1.3,2.9,0.7-1.9,1.2-3.6,1.8-5.2s0.7-2.8,2.7-2.3a2,2,0,0,1,1.8,2.6,1.6,1.6,0,0,0,.5.7l0.5-.4a5,5,0,0,1,.9-1.6c1.7-1.1,3.4-2,5.1-3L124,49.9c-1.1.7-2.1,1.8-3.3,1.9-3.5.3-7.1,0.1-10.7,0.2-1,0-2.4.3-2.9,1s-0.4,2.1-.6,3.2a2.9,2.9,0,0,1-1,1.6,1.7,1.7,0,0,1-1.4-.7,21.2,21.2,0,0,1-1-5.7A36.8,36.8,0,0,1,104.4,45.2Zm55.4,21-1.5-.8a3.4,3.4,0,0,0,.1,1.2c0.3,0.7.6,1.6,1.1,1.8a41.4,41.4,0,0,0,6.3,1.7,2.3,2.3,0,0,0,1.6-1.3,2,2,0,0,0-.6-1.7,14.2,14.2,0,0,0-9.6-4.2,1.5,1.5,0,0,1-.6-0.6,3.3,3.3,0,0,0-.8-0.9,1.2,1.2,0,0,0-1,.2L151.3,65l-1.6,1.6,2.2,0.6,6.3,1.3a13.3,13.3,0,0,1-1.1-2.4,5.9,5.9,0,0,1,.2-2.1,1.1,1.1,0,0,1,.7,0Zm16.6,4.4H160.3c1.1,2.4-1.2,1.4-2.6,1.7l9.6,6.3a1,1,0,0,0,.6-0.4c1.2-1.6,2.1-3.5,3.5-4.9S174.5,71.6,176.4,70.6Zm-63.3,57.8h0.1l-0.3-.5-1.4.6a0.5,0.5,0,0,0-.1.4l1,3.1a12.5,12.5,0,0,0,.6,1.2,4.9,4.9,0,0,0,.9-0.7l1.2-1.7a3.4,3.4,0,0,0,1.5-.1,0.8,0.8,0,0,0,.4-0.7l3.9-1.7a20.5,20.5,0,0,0-2.6,1.8,3,3,0,0,0-.3,1.5h0.8l1.9-1a11.5,11.5,0,0,1-1.9,1.5,2.3,2.3,0,0,0-.4,1,1.8,1.8,0,0,0,.9,0,18.4,18.4,0,0,1,2.5-1.6c1.4-.5,2.8-0.7,2.3-2.7a0.7,0.7,0,0,1,.2-0.3l0.4,0.3a9.2,9.2,0,0,0,.7,1,10.1,10.1,0,0,0,2.4-1.3,4.4,4.4,0,0,0-.8-1.6,5.5,5.5,0,0,0-1.1-.9l-0.6-1.4-2.4,1.2h1.9l-0.2,1.3-0.6-.6a4.5,4.5,0,0,0-.7,1.5,10,10,0,0,0,.4,1.6,12.1,12.1,0,0,1-1.9.7,5.3,5.3,0,0,0-.1-1.9c-0.1-.2-1.1-0.1-1.7-0.1H119a2.6,2.6,0,0,1,.6-0.8c1.4-.7.8-1.8,0.4-2.7a2,2,0,0,0-1.5,0,21.1,21.1,0,0,0-3.3,1.7A18.4,18.4,0,0,0,113.1,128.5ZM50.8,49.8a3,3,0,0,1-.9-0.5c-0.9-1.3-1.7-.8-2.2.2-1.4,3.1-2.4,6.3-.5,9.6a1.3,1.3,0,0,0,1,0,76.6,76.6,0,0,0,3-9c0.2-.8-1-2.5-2-2.9a52.9,52.9,0,0,0-7-1.7c-0.4-.1-0.8-0.5-1.2-0.6a2.5,2.5,0,0,0-1.1,0,1.5,1.5,0,0,0-.5.4,1.6,1.6,0,0,1-.2-0.6c0.1-.8.2-1.7,0.4-2.5a2.5,2.5,0,0,0,0-.5,1.2,1.2,0,0,0-.5.3L38,45.7a2.4,2.4,0,0,1-.5.8H37.1a1.9,1.9,0,0,1-.1-0.8c0.2-1,.4-2.1.6-3.1l-0.5-.2-1.6,4.5h0.6l8.8,1.9c0.7,0.2,1.8.4,2.2,0S49.7,47.5,50.8,49.8ZM90.6,37.3c1.6-2.9,4.2-3.8,7.1-4.3a7.6,7.6,0,0,1,2.3.3c-0.2.8-.1,1.9-0.6,2.4a25.9,25.9,0,0,1-3.4,2.8l-0.9.6,2.2,1.3L108,32.4a5.7,5.7,0,0,1-2.1.4l-7.8-1.5a8.9,8.9,0,0,0-4.2,0,22,22,0,0,0-4.9,3,3.8,3.8,0,0,0-.7,1.6l1,0.2h1.2v1.3Zm-65,43.9,0.2-.5a35.4,35.4,0,0,0,4-.4A7.2,7.2,0,0,0,31.6,79a7.5,7.5,0,0,0-1.5-1.4c-1.7,1.1-2.4-.3-3.7-0.8s-5.6-1.2-8.5-1.5c-1-.1-2.1.5-3.1,0.8s0.6,2.3,1.3,2.5C19.2,79.6,22.4,80.3,25.6,81.2ZM131.9,97.3l3.3-.7a13,13,0,0,0,9.3-6.5,1.9,1.9,0,0,0,.2-1.4,1.4,1.4,0,0,0-1.3-.3,46.8,46.8,0,0,0-6.5,2.5,27.8,27.8,0,0,0-5,3.6,3.8,3.8,0,0,0-.8,2.1A2.2,2.2,0,0,0,131.9,97.3ZM123.7,70v0.2a2.6,2.6,0,0,1,1.1-.4,16.4,16.4,0,0,0,2.2.5,21.9,21.9,0,0,0,4.9-.4c0.7-.2,1.3-1.2,1.9-1.8a5.6,5.6,0,0,0-1.1-1,11.2,11.2,0,0,0-2.4-.9l-3.8-.6,1.3,1.7-3.7.9V67.8l1.1-.3a47.5,47.5,0,0,0-5.6-1.1,3.3,3.3,0,0,0-2.4,1.1,1,1,0,0,0,.9,1.7,1.1,1.1,0,0,1,.3.5,2.7,2.7,0,0,0,.7,1.2,9.6,9.6,0,0,0,2.6-.2ZM71.1,98.5v0.7l1.2,0.3a2.9,2.9,0,0,1,1,.7,1.1,1.1,0,0,1-.4.7l-1.2-.4a2.1,2.1,0,0,0-1.1-.2,54.3,54.3,0,0,0-6.1,3c-0.7.4-1,1.6-1.4,2.5a8.9,8.9,0,0,0,2.6.7c3.9-.1,6.9-2.3,9.9-4.4,0.6-.4.7-1.6,1-2.4ZM47,75.3H46.7a11.9,11.9,0,0,0,.9-1.8,5.8,5.8,0,0,0,0-1.6,3,3,0,0,0-1,.3l-3,2.6-1.2,1L42,75.2c-1.3,1.7-2.6,3.3-3.8,5a6.5,6.5,0,0,0-.6,1.8,14.2,14.2,0,0,0,2.1.6,3.3,3.3,0,0,0,1.3-.3l0.5-.3-0.4-.4c-0.3-.6-0.9-1.5-0.8-1.7a9.3,9.3,0,0,1,2.3-1.8l3.4-1.7a2.7,2.7,0,0,0,.6-0.6l0.3,0.7c3-.6,6.1,1.7,9.1-0.5a7,7,0,0,1,2.2-.4l-1.3-.4c-2.5-.6-5-1-7.3-1.9s-1.6-.8-1.9.7A6.7,6.7,0,0,1,47,75.3Zm68.4-1.6h-0.3c0-.3,0-0.5.1-0.8l0.2-1.3-1.4,1a1.8,1.8,0,0,0-.5.8c-1,3-2.1,6-3,9.1-0.1.4,0.6,1.1,1,1.7h0.4c3.1-3.5,6.7-6.8,6.2-12.1a2.8,2.8,0,0,0-.8-1,3.4,3.4,0,0,0-.8.7C116,72.2,115.7,73,115.4,73.7Zm35.8-14.2c5.2-2.7,10.7-2.2,16.3-1.8l-9.7-6.7c-1.1,1.7-2,3.2-3,4.5S152.4,58.3,151.2,59.6ZM16.3,61l1.2,1c1,1.1,1.9,2.3,3,3.3a61,61,0,0,0,5.2,4.5c0.6,0.5,1.7.4,2.6,0.6a6.1,6.1,0,0,0,.1-2.1A7.6,7.6,0,0,0,27,66.2a14.4,14.4,0,0,0-2.4-2.9,51.7,51.7,0,0,0-5.4-3.4,2.7,2.7,0,0,0-2-.5A3.4,3.4,0,0,0,16.3,61ZM91,62.4c-2.4-.2-4.6-1.9-6.1-4.6H84.2a26.1,26.1,0,0,0-2.7,2,2.3,2.3,0,0,0-.9,1.5c0.3,1.7.8,3.3,1.2,4.9a4.1,4.1,0,0,0,.3,1.1,3.5,3.5,0,0,0,1.6-.4Zm4.5,10.5L96,73.1a1,1,0,0,0,0,.3l0.7,2,1.4-.8a12.5,12.5,0,0,0,2.6-2,17.8,17.8,0,0,0,2.1-3.6c0.8-1.6,0-2.6-1.4-3.5s-2.1-2-2.7-.8A64.3,64.3,0,0,0,95.5,72.9Zm1.4-32C96,40.5,95.4,40,95,40.2a17.7,17.7,0,0,0-3.5,2c-2.6,1.9-4.8,4.1-5,7.7a1.2,1.2,0,0,0,.1.5c1.4-.3,3.1-0.2,4.1-1a18.4,18.4,0,0,0,3.5-4.2C95.1,43.9,95.8,42.6,96.8,40.9Zm58.2,33.4a4,4,0,0,0,.5,1.5l4.5,1.9,2.2,0.8a14.4,14.4,0,0,0,2.3,1.2,4.2,4.2,0,0,0,1.8-.5,3.7,3.7,0,0,0-.7-1,50.3,50.3,0,0,0-4.9-3.1c-2.6-1.3-5.3-2.5-7.9-3.7a11.6,11.6,0,0,0-2.9-.8,1.4,1.4,0,0,0-1.1.7c-0.4,1.1-.7,2.3-1.1,3.5l-0.3,1C150,73.6,152.5,72.9,155.1,74.3Zm-46.2,28.2,0.7,0.4a5,5,0,0,0-2.1,0,26.7,26.7,0,0,0-6,3.5,35.5,35.5,0,0,0-4.7,6.1,2.4,2.4,0,0,0,.2,1.7,1.5,1.5,0,0,0,1.2-.1c2.6-2.5,5.3-4.9,7.7-7.6A34,34,0,0,0,108.8,102.5Zm-5.6-60.9v0.2l0.6-.2c2.7-1.3,3.7-3.8,4.4-6.5,0.2-.8.7-2.1-1-1l-1.1.6c-2.8,2.2-5.6,4.3-8.2,6.7-0.5.5-.3,1.7-0.4,2.6a13.2,13.2,0,0,0,2-.5Zm1.2,72.2-1.1-.2c0-.8-0.2-2.1.3-2.4,2-1.4,4-3.1,6.3-3.7a14.5,14.5,0,0,0,7.3-5c0.4-.5.3-1.4,0.4-2.1a3.9,3.9,0,0,0-1.4.3l-5.6,3.9c-2.1,1.5-4.2,3-6.1,4.7s-4.3,4-6.5,5.9C100.3,116.3,104.4,115.4,104.4,113.8Zm63.5-50.7,2-1.4c-0.8-1-1.6-2.6-2.6-2.8a43.9,43.9,0,0,0-8.4-.6c-1.2,0-2.7.5-2.5,2s1.4,1.4,2.3,1.5C161.7,62.4,164.8,62.7,167.9,63.1ZM89.4,80.4L90.2,82a5.5,5.5,0,0,0,1.1-.7c3.3-3.4,2.9-7.3,1.1-11.2-0.3-.7-0.4-2.4-2-1.2s-1.5,1.5-.5,2.6a1.2,1.2,0,0,1-.1.8,24.5,24.5,0,0,0-1.1,4A19.2,19.2,0,0,0,89.4,80.4ZM44.3,64.1h0.1a4.8,4.8,0,0,0,.6.8l3.5,3.3,0.6,0.2A9.8,9.8,0,0,0,51,65.8a2,2,0,0,0-.9-1.8c-1.1-.4-1.2-2.6-3-1.8a1,1,0,0,1-.9-0.2A14.9,14.9,0,0,0,44.9,59a20.7,20.7,0,0,0-3.4-3,2.6,2.6,0,0,0-1.2-.1l1,4.9,0.5-.8h0.4a0.4,0.4,0,0,1,.1.3l-0.4,1H43l2.5,1-0.3.7L43.2,62a1.4,1.4,0,0,0-.7.3ZM64.2,74.7l0.8-.3c-0.1-.7-0.1-1.3-0.3-2-1-4.2-3.3-7.3-7.4-8.8a5.7,5.7,0,0,0-1.4-.2,2.6,2.6,0,0,0,0,1.2A83.7,83.7,0,0,0,60.6,72C61.5,73.2,62.9,73.8,64.2,74.7Zm58.3,8.6-0.3-.9c-2.4.9-4.9,1.8-7.3,2.8-0.2.1-.1,1.1-0.1,1.7l1.4-.2,0.7-.2,4.8-.4c3.2-.4,6.5-0.3,8.6-3.4a2.9,2.9,0,0,0,.2-0.9h-0.9Zm29.3,4.5c2.1,1.3,1.3,2.3.3,3.2a2.4,2.4,0,0,1-1.1.4h-1.3a0.7,0.7,0,0,1-.1-0.3l1.1-.4,0.9-.6a0.8,0.8,0,0,0,0-.4,3.5,3.5,0,0,0-1.1.1l-5.1,2.5a3.6,3.6,0,0,0-.8.9h1c1,0.1,2.3-1.4,2.9.6H149l8.3-3.1c1.5-.6,3.3-0.8,3.1-3l-1.9.4,0.7-1.9Zm2.1-9.7-1.4.7c0.3,0.6.5,1.7,1.1,1.9,3.2,1.3,6.6,2.3,9.8,3.6s1.9-.8,2.1-1.7a1.9,1.9,0,0,0-.9-1.6c-2.3-.8-4.7-1.5-7.1-2.1Zm9.4-14.1,1.6,0.8c1.1,0.8,2.8,1.6,3,2.6,0.5,2.8,2.5,2.2,4.2,2.4l2.7,0.2c1,0,2.3.2,2.9-.3s-0.9-3.3-2.9-3.7l-7.2-1.3c-0.7-.1-1.3-0.8-1.9-0.9A9.6,9.6,0,0,0,163.3,63.9ZM70.7,30.1a14.4,14.4,0,0,0-2-2.6,1.8,1.8,0,0,0-1.8.1,2,2,0,0,0-.1,1.9c0.9,1,1.4,1.8,0,2.8a2.7,2.7,0,0,0-1.1,1.5c-0.1.5,0.7,1.1,0.6,1.6-0.1,2.3-.1,4.5,2.1,6l0.5,0.2a1.6,1.6,0,0,0,.2-0.5,29.2,29.2,0,0,1,.1-3.8C69.6,34.9,70.2,32.5,70.7,30.1Zm62,12a14.1,14.1,0,0,0,1.2,1.7c0.5,0.6,1.1,1.4,1.7,1.5,3.4,0.1,6.8.1,10.2,0,0.7,0,1.3-1,2-1.5s-1.1-1.1-1.7-1.1c-3.4-.1-6.9-1.2-10.3.2h-0.6l3.3-1.7a3.1,3.1,0,0,0-2.3,0l-1.2.5Zm-27.5-.3a5.1,5.1,0,0,0-1.4.7,1.7,1.7,0,0,0-.2,1.1,0.6,0.6,0,0,0,.5.3c2.8-.8,5.7-1.3,8.2-2.6s3-3,4.5-4.6a1.3,1.3,0,0,0,0-.9,0.6,0.6,0,0,0-.5-0.3,17.3,17.3,0,0,0-10.9,7.3l-0.4.8h-0.3Zm15,63.5a7.4,7.4,0,0,0,1.2,1.6c1.1-.4,2.6-0.6,3.1-1.4,1.8-3.1,3.2-6.5,4.7-9.7a0.9,0.9,0,0,0-.5-0.4c-1.9.3-1.9,1.9-2.1,3.3a1.9,1.9,0,0,1-.6.6c0-.3,0-0.6,0-0.9a1.1,1.1,0,0,0-.1-0.6h-0.6a11.7,11.7,0,0,0-2.2,2c-0.2.3-2,.8-0.3,1.6l-0.3.5ZM79.9,91.9a4,4,0,0,0,0-.7L73.5,79.7H73.1a14.3,14.3,0,0,0-.2,2.4,15.6,15.6,0,0,0,4.4,10.2,1.9,1.9,0,0,0,1.4.7A4.2,4.2,0,0,0,79.9,91.9Zm56.1-45.4-1,1.8-0.7-.9-0.6-.2-3.8.2-3.3.6a10.8,10.8,0,0,0-1.8.8c0.6,0.7,1,1.7,1.8,2.1s1.6-.1,2.4-0.4a6.7,6.7,0,0,0,1.4-.9h0.2c0,1.9,1.3.5,1.9,0.6a4.4,4.4,0,0,0,1.4-.3l-0.4.3v0.4l7.6-2.5-0.2-.5-1.9.8,1.7-1.3ZM109.4,77.2l-0.3-.7-5.7,2-0.6.3a3.2,3.2,0,0,0-1.4,0,39.7,39.7,0,0,0-3.3,3.2,1.3,1.3,0,0,0,.1,1c4.5,0.8,8-1.4,11.5-3.7a3.7,3.7,0,0,0,.7-1.6h-1.3Zm-61-7.4c0.1,0.7,0,1.6.4,1.9a12.5,12.5,0,0,0,4,2.3,44.8,44.8,0,0,0,6.6.8,1,1,0,0,0,.5-0.3c-0.7-1.2-1.1-2.9-2.2-3.5s-4.2-1.4-6.4-2a0.9,0.9,0,0,0-.6.5c-0.5,1.1-1.2,1.6-2.2.5H48.4ZM109,72.5l0.5,0.3-0.6.5-1.6,1.6,2.1,1.2c1.6,0.7,2.2,0,2.6-1.5s1.6-3.8,4-4.1a0.8,0.8,0,0,0,.4-0.7c0-1-.1-1.9-0.2-2.9s-0.1-.4-0.1-0.6l-0.6.2c-1.2.5-2.1,2.5-3.9,0.9h-0.3ZM30.7,49.7L31.5,50c0.4-1.1.8-2.3,1.1-3.4a5.2,5.2,0,0,0,0-1.5l-0.9,1.2H31.4l1.5-2.4,0.8,0.4,0.9-1.6a2.3,2.3,0,0,0-.9.1,56.3,56.3,0,0,0-5.5,3.3c-4.4,3.2-8.7,6.6-13,10-0.6.4-.7,1.4-1.1,2.4l1.6-1.4,0.4,0.5,0.2-.3a9.1,9.1,0,0,1,1.1-1.5c0.4-.3,1-0.4,1.4-0.7L22,51.5h0.3a9.2,9.2,0,0,0,1.5-.8,15.8,15.8,0,0,0,1.4-1.4l0.5,1.6a1.1,1.1,0,0,1,0,.2,21.5,21.5,0,0,1,1.2-1.9,19.2,19.2,0,0,1,1.5-1.5L30,46.1a10.2,10.2,0,0,1,.3,1.3,13.5,13.5,0,0,1-.2,1.9l1.1-2.3h0.2ZM123.5,113l0.5,0.5c2.1-1.4,4.4-2.5,6.2-4.2s3.5-2.1,2.4-4.5a0.8,0.8,0,0,1,.2-0.3l0.4-.8a1.9,1.9,0,0,0-.9.1l-9.3,7.5a3.6,3.6,0,0,0-.6,1.3Zm-16.6-.9v0.3l2.4,0.8a0.9,0.9,0,0,1,.2.4h-0.5a18.2,18.2,0,0,0-3.1.1,3.2,3.2,0,0,0-1,1.3,4.4,4.4,0,0,0,1.6.7c2-.1,3.9-0.4,5.8-0.4A8.2,8.2,0,0,0,119,112a3.3,3.3,0,0,0,.3-0.8,2.1,2.1,0,0,0-.8-0.3l-7.9,1.1A33.9,33.9,0,0,1,106.8,112.1Zm5-46.8c0.3,0.5.6,1.5,0.8,1.5a3.3,3.3,0,0,0,1.8-.9,2.4,2.4,0,0,0,.5-1.3,21.6,21.6,0,0,1,.5-3.1c0.8-2.2,2.5-4.3,1.1-6.9a2,2,0,0,0-.9-1,1.3,1.3,0,0,0-1.1.6C112.9,57.8,111.6,61.4,111.9,65.4ZM73.2,35.3L73.4,36l10.6,0.7a4,4,0,0,0,2.4-.7,4.1,4.1,0,0,0,1.1-2.1,2,2,0,0,0-1.2-.8,14.8,14.8,0,0,0-4.7-.2C78.8,33.4,76.1,34.5,73.2,35.3Zm37.7,26.4-0.9.7a3.6,3.6,0,0,0-.1-1.1c-0.4-.9-0.9-1.8-1.4-2.7-0.5.6-1.3,1.2-1.4,1.9-0.3,2.9-.5,5.8-0.5,8.7a3.1,3.1,0,0,0,1.1,1.6,0.8,0.8,0,0,0,.8-0.1C110.8,68.3,111,65.1,110.9,61.8Zm11.5,73.4-1.6.9c-0.5-.4-1.2-1.2-1.7-1.1a8.6,8.6,0,0,0-2.6,1.4l1.7,2.7c0.1-.1-0.1,0-0.1.1a2.4,2.4,0,0,0,3.2,2.5,2.2,2.2,0,0,0,.8-0.3,1.5,1.5,0,0,0,.5-1.1,15.6,15.6,0,0,0-1.2-2.2c1.4,1.2,2.8,1.1,2.9-.1s-0.6-1.5-.9-2.2l-1.7-3.1h-0.1l-1.7.8a0.6,0.6,0,0,0,.1.3h1.1l-0.6,1.4h2Zm10.6-47.7h-1.2c-2.5,1.4-5.2,2.5-7.3,4.4s-1.4,3.3-2,5.1l0.6,0.4a3.2,3.2,0,0,1,3-2.1c1.9-.3,3.6-2.2,5.1-3.6s0.2-1.6.3-2.4a1.6,1.6,0,0,1,.3-0.8ZM74.8,60.8c0,0.9,0,1.1,0,1.4L75,64.1l-0.8-1L74,63a1.3,1.3,0,0,0-.3.5,22.8,22.8,0,0,0-.1,2.7c0.1,3.3.3,6.7,0.5,10a4.1,4.1,0,0,0,.3,1A3.9,3.9,0,0,0,75.8,76a46.1,46.1,0,0,0,1-5.2C77.3,67.6,76.6,64.5,74.8,60.8Zm72.3,27.7h1l8.9-4.6a0.9,0.9,0,0,0-.1-0.6l-3.2-.5h-0.7a2.6,2.6,0,0,0-1.3-.2l-6.2,3.8a0.8,0.8,0,0,0-.2.8Zm4.7-13.9h-0.7c-3.2.9-4.9,3.5-6.5,6.1a1.1,1.1,0,0,0-.1.8c1.4,0.7.5,1.2,0,1.9a5.9,5.9,0,0,0-.6,2,1.8,1.8,0,0,0,.9-0.2c2.3-2.7,4.7-5.3,6.9-8.2C152.1,76.7,153.6,75.4,151.8,74.6Zm-99,19.7,1.7-3c0.9-1.5,1.8-3,2.6-4.5s0.2-1.4.5-1.9,1.5-1.7,2-2.7a5.3,5.3,0,0,0,0-2.3l-2.7.3C54.4,84.7,52.3,89.2,52.8,94.3Zm63.5-13.5,0.5,0.4,0.3,0.9h0.3a36.9,36.9,0,0,0,4.2-3.2c1.8-1.8,3.8-3.6,3.1-6.6a1.9,1.9,0,0,0-.4-0.5l-0.3.5-1.5,3.3h-0.4a0.9,0.9,0,0,1-.1-0.4c0.3-.8.6-1.5,0.8-2.3a5.7,5.7,0,0,0,.1-1.3c-0.5.1-1.3,0.1-1.5,0.4C119.7,75,118,77.9,116.3,80.8Zm-8-30.5,0.2,0.9h2.3c3.4-.1,6.9-0.1,10.3-0.3,0.5,0,.9-0.9,1.4-1.4l-1.2-.7-2.2-.7c-0.6-.2-1.2-0.8-1.7-0.7-2,.6-4,1.4-6,2.1Zm30.1,95.2h-0.1a3.6,3.6,0,0,0,1.1-.5l7.1-7.7a2.3,2.3,0,0,0-.2-1.1l-1.7,1.1-1.6.7a4,4,0,0,0-.7,0l-3.6,3.1a3.7,3.7,0,0,1-1.5.3v-0.6c-1.4.6-.9,3.6,1,5.9l1.1-1.3Zm-33.6-32.8a47.5,47.5,0,0,1,5-1.7c3-.7,6.4,0,8.8-2.6l1.3-1.6a4.4,4.4,0,0,0-2-.5L107.2,110l-3,1.3ZM41.9,82.4L53,96.7a5.4,5.4,0,0,0-.2-1.6c-0.2-.5-1-0.9-1-1.2,0.4-3.1,1-6.3,1.5-9.4a3.2,3.2,0,0,0,0-.7l-1.1.2a1.8,1.8,0,0,1,.2.7,18.8,18.8,0,0,1-.8,3.5,1.9,1.9,0,0,1-1.6.9c-2.2-.3-2.5-2.3-3.2-3.9s-0.4-2.6-1-2.8A12.2,12.2,0,0,0,41.9,82.4ZM143.8,65.7c0.1,1.6.6,2.4,2,1.8a17.2,17.2,0,0,0,3.8-2,59,59,0,0,0,4.9-4.5,1.8,1.8,0,0,0-.5-0.9,20.7,20.7,0,0,0-4.8,1.3,31.4,31.4,0,0,0-4.8,3.3A3,3,0,0,0,143.8,65.7ZM69.3,82.1l-0.2-.2c-1.3.9-2.9,1.6-3.9,2.8a27.3,27.3,0,0,0-3.4,5.9,2.8,2.8,0,0,0,1.2,2c1.8-.3,4.2-4.3,3.8-6.1a2.7,2.7,0,0,1,.2-1l1,0.2a2.2,2.2,0,0,0,1.4,0,15.3,15.3,0,0,0,1.9-2.5,1.9,1.9,0,0,0,0-1.1H70.8l-1.4,2.1c-0.1.1,0.2,0.5,0.1,0.5l-0.8.5a4.5,4.5,0,0,1-.2-1.5A5.9,5.9,0,0,1,69.3,82.1Zm20.3,3-3.1-3.5H86.1A3.3,3.3,0,0,1,82,79a0.9,0.9,0,0,0-.5-0.5,1.8,1.8,0,0,0-.8.6c0.9,2,1.5,4.2,2.8,5.9s3.2,2.3,4.9,3.4a0.8,0.8,0,0,0,.6-0.3C89.2,87.3,89.3,86.5,89.6,85ZM78.5,58.7c0.5,0.2,1.5.9,1.8,0.6,2.9-2.2,5.7-4.6,8.5-6.9a0.9,0.9,0,0,0,0-.5H88.2a17.3,17.3,0,0,1-2.3.7c-0.7.1-1.5-.1-2.2,0s-0.9.6-1.4,0.7C80.2,53.7,78.5,55.8,78.5,58.7Zm43.3,32.8a2.2,2.2,0,0,0,.9-0.1l1.4-1.1a5.8,5.8,0,0,0-1.3-.5l-5.4-.6c-0.6-.1-1.3-1.1-1.8-0.9a46.7,46.7,0,0,0-5.4,2.2,1.9,1.9,0,0,0-.2,1c2,0.4,4,1.3,5.9,1.1S119.5,90,121.8,91.5ZM36.8,89.1l-0.3.4a25,25,0,0,0-3.3.5,1.5,1.5,0,0,0-.5,1.3c1.7,2.3,4.3,2.4,6.8,2.5a24.8,24.8,0,0,0,4.6-.5,0.9,0.9,0,0,0,.5-0.5,0.5,0.5,0,0,0-.2-0.5ZM95,59.8l0.2-.2a2.2,2.2,0,0,0-.6-0.5l-7.4-2a4,4,0,0,0-1.2.1,6,6,0,0,0,.3,1.3c1.3,2.7,8.4,4.9,12.2,3.2l0.6-.5-1.9-2.1-0.5.3-1.3.9Zm-5.3,4.6-0.2-.4-4.6,3.1a4.4,4.4,0,0,0-.7.8,2.7,2.7,0,0,0,1.1.5l7.1-.9h0.1L97,64a2.8,2.8,0,0,0,.5-0.6H96.7c-1.3.3-2.5,0.7-3.8,0.9a16.2,16.2,0,0,1-1.9-.3A4.4,4.4,0,0,0,89.6,64.4ZM69.9,62.8l0.9-.3-1-.7a1.1,1.1,0,0,1-.5-0.4c0.1-1.4-.9-1.3-1.8-1.4a2.6,2.6,0,0,1-1-.7h1l1.2-.2a1.3,1.3,0,0,0-.5-0.5,33.6,33.6,0,0,0-6.1-.5c-0.9.1-1.7,1.3-2.6,2,0.8,0.6,1.5,1.7,2.4,1.8C64.4,62.4,67,62.5,69.9,62.8ZM126.8,43l8.2-2.3a0.7,0.7,0,0,0,.1-0.5c-1-.4-2.2-1.4-3.1-1.2-3.7.8-7.3,1.8-10.9,2.9a4.6,4.6,0,0,0-1.3,1.1,4.1,4.1,0,0,0,1.6.7C123.1,43.6,124.7,43.3,126.8,43ZM86.4,80.3c2-5.3-.2-8-2.8-11a1.8,1.8,0,0,0-1.2.3c-0.1,1.3,0,2.5,0,3.8C82.4,76.4,84,78.6,86.4,80.3Zm-31,24.4a10.4,10.4,0,0,0,1.9-.9,1.3,1.3,0,0,0,.1-1.2,13.1,13.1,0,0,0-3.3-2.2,59.1,59.1,0,0,0-6.2-1.7H47a3.7,3.7,0,0,0,0,1.1C47.5,101.3,53.1,104.7,55.4,104.7ZM26,89.8a3.1,3.1,0,0,0-.1-0.9c-1.5-3.2-3.2-6.1-6.9-7.1a9,9,0,0,0-2-.1c0.2,0.9.2,2,.7,2.6a66.8,66.8,0,0,0,5.6,5.2,9.2,9.2,0,0,0,2.3,1ZM24.2,70.4c-2.8-1-5.6-.1-8.4.8a1.9,1.9,0,0,0,.2,1.3,7,7,0,0,0,2.7.9c2.7,0.2,5.4.1,8.1,0.2a1,1,0,0,0,.3-0.6,14.9,14.9,0,0,0-2-1.5,3.1,3.1,0,0,0-1.2-.1ZM145,94.5l-0.6,1.3h-0.4a3.1,3.1,0,0,0-1.4-.4,6.6,6.6,0,0,0-2.3,1.3c-1.8,1.7-3.6,3.5-5.4,5.3a3.8,3.8,0,0,0-.5,1.5,10.1,10.1,0,0,0,2.1-.5,18.3,18.3,0,0,0,1.9-1.3l3.7-2.3a4.1,4.1,0,0,1-.2-1.1l0.7-.2c1.2,0.2,3.7-1.9,3.9-3.2Zm-7.9-8.8a2.3,2.3,0,0,0-.9.4L133,90.8a2.7,2.7,0,0,0-.2.8h0.8c3.7-1.4,6.5-4.1,9-7,0.4-.5.3-1.5,0.4-2.2a1,1,0,0,0-.6-0.1l-4.6,2.6a3.5,3.5,0,0,1-.2.9,4.7,4.7,0,0,1-.8.9Zm-9.8-25.3c-2.5.6-5.1,1-6.5,3.6a7.1,7.1,0,0,0-.4,1.1h0.8a22.7,22.7,0,0,1,3.2-.9c1.4-.2,3,0.4,4.2-0.2a34.8,34.8,0,0,0,5.3-3.5l-0.3-.8-5.5,1.4-0.6.2v-1ZM96.1,98.3a11.6,11.6,0,0,1-2-2.7c-1-2.8-3.4-3.8-5.7-4.9H87.7c0.3,1,.6,2.1.9,3.1s0.7-.1,1.1-0.1a3.7,3.7,0,0,1,1,.5c-1.4,2.2.2,3.6,1.5,4.8s1.9,0.7,2.9.9A6.3,6.3,0,0,0,96.1,98.3ZM66.4,94.5c-1,.6-2.2,1-2.8,1.9-1.7,2.6-3.1,5.4-4.7,8.1a1.2,1.2,0,0,0,0,.6h0.6c3.6-1.8,5.5-5.1,7.7-8.2a2.5,2.5,0,0,0-.1-1.6A2.3,2.3,0,0,0,66.4,94.5Zm24.2,16.1v1.1l-0.9-.5a7.6,7.6,0,0,0-1.6-.7,3.1,3.1,0,0,0-3.7,1.5,5.1,5.1,0,0,0,2.3,1.5,56.2,56.2,0,0,0,7.5.6,2.1,2.1,0,0,0,1-1.7C94.3,110.3,92.7,109.6,90.6,110.6ZM122,93.3l-0.2-.4-3.4.6a1,1,0,0,0-.5.5,1.5,1.5,0,0,0,0,.6h-0.5c-0.2-.2-0.2-0.5-0.4-0.7l-0.6-.5-4.8,3.4a3.7,3.7,0,0,0-.6.9,3.9,3.9,0,0,0,1.1.7c2.7,0.6,5-.4,7.1-2a13.4,13.4,0,0,0,1.5-1.6l-0.4-.3Zm19.4,27a2,2,0,0,0,0-.7,2.4,2.4,0,0,0-4.2-.3,2.3,2.3,0,0,0-.1,1.1h0.7l1.1-.7,1.5,0.9a5.4,5.4,0,0,0,0,1.4c0.3,0.9.7,1.8,1,2.7s1,2,2.1,1.7h0.4l1.8-.9a1.9,1.9,0,0,0,.1-0.9l-0.8.6-0.2-.2,1.2-1v1.5a3.3,3.3,0,0,0,.9-0.8,25,25,0,0,0-.9-2.4l-1,.4ZM81.5,27.2l-4.7,2.2c-0.4.2-.6,0.8-1.1,1-2.2,1.1-4.8,1.8-4.8,4.9,0,0.2,0,.4,0,0.7l0.7-.2L79.8,31a2,2,0,0,0,.9-0.8C81,29.3,81.2,28.3,81.5,27.2ZM77.7,98.9c2-.9,3.9-1.5,5.6-2.4a41.5,41.5,0,0,0,4-2.6,0.4,0.4,0,0,0,.2-0.3,0.4,0.4,0,0,0-.2-0.3,6.8,6.8,0,0,0-1.8,0c-3,.7-6.1,1.4-9.1,2.3a2.2,2.2,0,0,0-.6,2C76.1,98.3,77.1,98.5,77.7,98.9Zm10.8-4.1c-1.5.9-2.7,1.3-3.5,2.1s-3.4,3.8-5.1,5.8a2.3,2.3,0,0,0-.3.7h1a11.4,11.4,0,0,0,7.6-5.5,5.5,5.5,0,0,0,.7-1.9A2.5,2.5,0,0,0,88.6,94.8ZM122.5,57l-1.6-.6c-1.4-.4-2.3-0.1-2.4,1.6a21.5,21.5,0,0,1-.7,4.1c-0.2.9-.9,1.6-1.2,2.5a2.2,2.2,0,0,0,.6.8l2.8-2.2A6.4,6.4,0,0,0,122.5,57Zm-85-3.4a7.1,7.1,0,0,0,2.1.6,8.9,8.9,0,0,0,2.3-.6,3.7,3.7,0,0,0-1.3-1,28.3,28.3,0,0,0-4.9-.5,49.9,49.9,0,0,0-7.1.6c-0.7.1-1.2,1.2-1.7,1.8a2.9,2.9,0,0,0,1.3.7l6.5-1Zm64.2,23.7,0.3,0.4c1.5-1.1,3-2.1,4.4-3.3a5.6,5.6,0,0,0,1-1.9c-0.7-.2-1.5-0.7-2.1-0.5a47.4,47.4,0,0,0-5.2,2.8c-1.2.7-2.3,1.5-3.4,2.3a3.4,3.4,0,0,0-.6.8,1.7,1.7,0,0,0,.7.3ZM99.9,43.7l0.5,0.7-0.4.9c-0.9,3.2-1.8,6.3-2.7,9.5a2.7,2.7,0,0,0,.4,1.2,2.9,2.9,0,0,0,1.2-.8q1.9-4.9,3.5-9.8a2.2,2.2,0,0,0-.1-1.5A14.5,14.5,0,0,0,99.9,43.7Zm-54.8,38,1.2-1.4a1,1,0,0,0-.1-0.4l-0.3-.9a3.2,3.2,0,0,1,1,.3c0.7,0.5,1.4,1.5,2.2,1.6a35.6,35.6,0,0,0,5.5-.3,1,1,0,0,0,.6-0.4,0.9,0.9,0,0,0-.2-0.5c-1.6-2.6-4.5-2-6.8-2.5s-3,1.6-4,3.1l-0.7,1.1Zm86.2-10.5a1,1,0,0,0-.2-0.5,0.7,0.7,0,0,0-.6.1,6.4,6.4,0,0,1-.7.8,8.6,8.6,0,0,0-2,.9,17,17,0,0,0-2.5,3.1c-1.1,1.7-1.9,3.5-2.9,5.2a1.3,1.3,0,0,0,.1.6l0.6-.3,3.2-2.7C128.6,76.6,130.8,74.6,131.3,71.3Zm17.2-2.8a1.9,1.9,0,0,0-1.1-.4,3,3,0,0,0-1.6,1.3c-0.9,3.1-1.6,6.2-2.3,9.4a1.5,1.5,0,0,0,.7.7h0.4C146.3,76,148.5,72.9,148.5,68.4ZM53.3,95.4l0.7,0.5a9.5,9.5,0,0,0,2.1-1.7c1.7-2.5,3.4-5,4.9-7.7,0.3-.5-0.2-1.5-0.3-2.2s-1.5.5-1.8,1C57,88.7,55.2,92,53.3,95.4Zm80,27.7,0.9,0.6,1.5,0.8-0.2-1.8,0.5-.6,0.4-.5c0.1-.2,0-0.4,0-0.6h0.5a3,3,0,0,1,.1.7c0,0.8,0,1.7,0,2.5l0.9,2.5,3.1-1.3a0.7,0.7,0,0,0,.1-0.3h-0.1l-1.6-2.6c0.1-1.3-.9-1.1-2.3-0.4l1.1-.6a3.6,3.6,0,0,0,.6-0.7l-0.9-.3-1.5-.4v-0.8l-3.8,1.8a1.4,1.4,0,0,0-.6.6A8.7,8.7,0,0,0,133.3,123ZM37.9,55.5c-1.5-.6-4.7.4-5.9,1.9s-2.8,2.7-4.1,4.2a7.3,7.3,0,0,0-.9,2.1c0.6,0,1.5.4,1.9,0.1C32,61.1,35,58.3,37.9,55.5ZM97.7,34.4l-0.2-.3-0.6.2c-0.9.6-1.7,1.3-2.6,1.8s-1.2,0-1.6.3-3,2.9-4.5,4.5a4.7,4.7,0,0,0-.6,1.3,4.5,4.5,0,0,0,1.8-.2c2.3-1.4,4.6-2.8,6.8-4.4a22.3,22.3,0,0,0,3.1-3.3,0.6,0.6,0,0,0-.1-0.6H98.7Zm70,51c-2.3,1.4-5.4.4-6.9,3.6-0.6,1.3-.1,1.4.6,1.3,2.9-.6,5.8-1.4,8.7-2.2a0.7,0.7,0,0,0,.2-0.4Zm-41,3,0.3,0.5,2-1.2c2.8-1.5,5.6-3,8.3-4.7,0.2-.1-0.2-1.3-0.3-1.9a0.7,0.7,0,0,0-.5-0.3c-2.4,1.4-4.8,2.8-7,4.4-0.4.3-.4,1.2-0.8,1.7A12.5,12.5,0,0,1,126.6,88.4Zm-77,5.5c-1.4-2-2.7-4.1-4.3-5.9a60.3,60.3,0,0,0-4.8-4.7,1.3,1.3,0,0,0-.7.2,7.5,7.5,0,0,0,.6,2.3,11.9,11.9,0,0,0,1.8,1.8l3,3.2a2.2,2.2,0,0,1,.7.7A2.8,2.8,0,0,0,49.6,93.9Zm-30,3c-1.5.3-2.9,3.1-2.1,4.8a21,21,0,0,0,1.7,3,0.9,0.9,0,0,0,.8.2l2.8-3.4,1-.8-0.6-.4-0.4.6a1.2,1.2,0,0,0-.1-0.5l-2.5-2.5a1.7,1.7,0,0,0-.9.7,26.1,26.1,0,0,0-1,2.5H18.2Zm77.1,10.1c-2.7-1.8-5.8-2.6-10.3.3l-1,.4v-1l-1.3,1.5,1.8,0.4h0.3C90,110.1,93.4,108.7,96.7,107.1ZM55.9,45.5a8.5,8.5,0,0,0-1.7-1,72.7,72.7,0,0,0-7.9-1.4c-1.4-.1-2.8.5-4.3,0.9a0.5,0.5,0,0,0-.1.4,0.7,0.7,0,0,0,.4.4c3.3,0.6,6.7,1.2,10,1.7C53.3,46.5,54.3,45.9,55.9,45.5Zm29.1,60.9c-1.1-.6-1.6-1.2-2.2-1.2-2.3,0-4.5.1-6.8,0.3a1.3,1.3,0,0,0-.8,1,1.7,1.7,0,0,0,.6,1.3,4.8,4.8,0,0,0,2.2,1.1,8.6,8.6,0,0,0,3.8-.2,9.9,9.9,0,0,0,2.7-2.3,10.2,10.2,0,0,0,.9-1.2l-2.1-1.4Zm40.3-59.8v0.2c1.5-.3,3-0.5,4.4-0.9a10,10,0,0,0,2.3-1.2l0.9-.8a2.3,2.3,0,0,0-.9-0.7,40.4,40.4,0,0,0-4.9.9l-7,2.2a0.6,0.6,0,0,0-.2.6,0.7,0.7,0,0,0,.6.3Zm-36,54.6-3.7,1.7a0.9,0.9,0,0,0-.1.7,14,14,0,0,0,3.4,1.2c2.8,0.3,5.5,0,7.5-2.2l0.6-.7-0.8-.6a3.2,3.2,0,0,0-.5.4,3.5,3.5,0,0,1-1.5.5Zm3.7-53.3c-1.1,1.6-1.9,2.8-2.8,3.9l-3.2,3.8a1.6,1.6,0,0,0-.2.7L89.8,57a4.4,4.4,0,0,0,1.8.1,1.9,1.9,0,0,0,1.3-.8C93,53.7,92.9,51.1,92.9,47.8Zm15.4-3a0.5,0.5,0,0,0-.3-0.3h-2.1v0.2l-0.5,1.5c-1.2,3.3-2.2,6.6-.7,10.1l0.4,0.5a1.7,1.7,0,0,0,.4-0.5c0.4-1.5.6-3,1-4.5S107.6,47.3,108.3,44.8ZM44.9,50.6V50.1c-1.4-.6-2.7-1.7-4.1-1.8s-5.3-1.4-7.6.9a8.4,8.4,0,0,0-1.1,1.7l0.5,0.3,2.2-.2V50.6H44.9ZM66.3,64.8c-1.4,2.9,1,10,3.3,11h0.5a7.5,7.5,0,0,0,.6-2.8,9.8,9.8,0,0,0-1.4-3.1Zm15.3,4.7c-0.4-1.3-.8-2.9-1.3-4.4a1.5,1.5,0,0,0-.6-0.4c-0.5,1-1.4,1.9-1.5,2.9a43,43,0,0,0,.4,6.4,1.4,1.4,0,0,0,.8,1,1.3,1.3,0,0,0,1.1-.6C80.8,72.9,81.1,71.4,81.6,69.5Zm41-14.6c0.6,0.6,1,1.2,1.3,1.1l9.8-2.2a1,1,0,0,0,.7-0.6,1.1,1.1,0,0,0-.5-0.9,5.1,5.1,0,0,0-2.1-.4l-5.8.7a6,6,0,0,0-2.2.2C123.2,53.1,123,54,122.6,54.8Zm8.5,72.5c-1.8.7,0.9,1.7,0.5,2.6a1.9,1.9,0,0,0,.9.1c0.7-.4,1.8-0.9,1.9-1.4s-0.7-1.7-1.3-2.9l0.2-.7,1.7,0.2v-0.6l-2.3-.6,0.4-.4-0.8-.7-0.9-.9-0.6-.6-1.8,1.3h0.6a9.4,9.4,0,0,0-.2,2.9C129.7,126.6,130.6,127,131.1,127.3ZM58.4,50.5c0.1,2.4,1,3.1,2.6,2s4.5-3.3,6.7-5.1a3.1,3.1,0,0,0,.6-0.9,2.7,2.7,0,0,0-1.3-.2l-6.4,2.9A22.8,22.8,0,0,0,58.4,50.5Zm71.9,61.6,0.7-.2,9.1-7a3.3,3.3,0,0,0,.5-1.5,2,2,0,0,0-1-.2,7.2,7.2,0,0,0-1.9,1.1l-7.6,6.7a3.1,3.1,0,0,0-.5.7Zm12-34.1c0.5-2,.8-4.1,1.4-6.1a5.1,5.1,0,0,0-.6-5,1,1,0,0,0-.5-0.4,0.7,0.7,0,0,0-.5.4,17,17,0,0,1-1.3,2.8C138.5,72.9,142.2,75.1,142.4,78ZM45.7,68.7l-0.2-.3L43,70l-6.5,5a2.9,2.9,0,0,0-.5,1,3.8,3.8,0,0,0,1.8.2,14,14,0,0,0,2.9-1.9L46.7,69a1.3,1.3,0,0,0,.2-0.6l-0.6.2Zm-18.6-10v0.4a13.1,13.1,0,0,0,2.2-.8,2.6,2.6,0,0,0,.7-1.2,0.5,0.5,0,0,0-.2-0.4,11.4,11.4,0,0,0-3.6-.7,40.7,40.7,0,0,0-6,1.5,1.2,1.2,0,0,0-.5.9c0.4,0.5,1,1.2,1.5,1.1S25.2,59,27.1,58.7ZM104,65.5l0.4,1a8.5,8.5,0,0,0,.6-1.3c0.9-3.3-1.1-5.6-2.9-7.8s-2.5-.9-2.5.8a12.4,12.4,0,0,0,.8,3.5,1.5,1.5,0,0,0,.6.8C103,61.9,104.1,62.8,104,65.5ZM94,56.9a6.5,6.5,0,0,0,1.2-1.6c0.2-.7,0-1.5.2-2.2,0.5-2.2,1.1-4.5,1.5-6.7a4,4,0,0,0-.7-1.8,4.7,4.7,0,0,0-1,.9C93.1,49,93.5,52.8,94,56.9Zm1.6,35.6c0.6,2.8,1.1,5.4,1.9,8a13.5,13.5,0,0,0,3-.4,0.8,0.8,0,0,0,.2-0.7c-0.8-2.2-1.6-4.4-2.6-6.5a6.9,6.9,0,0,0-1.7-1.7ZM75.7,39.9l-4.5,4.9a2.9,2.9,0,0,0-.2,1.3,4.8,4.8,0,0,1,1.2-.6h2.2l6.1-7-0.5-.6-2.9,2.1-1.1.4ZM34.2,67.3a11.3,11.3,0,0,0-1.4,1.3c-1.7,2.1-3.3,4.2-4.9,6.3a2.5,2.5,0,0,0,.3,1.3c0.7-.3,1.8-0.4,2.1-0.9,1.7-2.7,3.3-5.5,4.9-8.3a2.5,2.5,0,0,0,.1-1,3.9,3.9,0,0,0-1.1.5A1.5,1.5,0,0,0,34.2,67.3ZM98,25.6l-0.4-.5a13.4,13.4,0,0,0-2.3,1.2c-1.2.9-3.4,0.6-3.6,2.9-0.1.5-1.1,0.9-1.7,1.3a7.3,7.3,0,0,0-1.1.5,11,11,0,0,0-1.1,1.5,3.8,3.8,0,0,0,1.7.3,19.8,19.8,0,0,0,4-2.1A17.1,17.1,0,0,0,95.8,28ZM89,38l-0.4-.3A15,15,0,0,0,87,38.9L79.9,46a1.7,1.7,0,0,0-.2.7h0.5a6.9,6.9,0,0,0,2.5-.9,46.5,46.5,0,0,0,4.1-4.6A38.2,38.2,0,0,0,89,38ZM74.2,96.8c0.1-4.1-1.4-7-4.5-8.9a1.3,1.3,0,0,0-1.1-.2,1.9,1.9,0,0,0-.5,1.3c0.2,1.2.5,2.4,2.3,1.7a2.4,2.4,0,0,1,1.7.6,1.8,1.8,0,0,1-.4,1.3c-1.5,1.3-1,2.2.4,3.1l1.2,0.9,1,0.4V96.8ZM48,40.3c1.7,1.7,9,1.5,10.6-.3a0.6,0.6,0,0,0,.2-0.5l-0.5-.2a6.8,6.8,0,0,1-1.9-.2C53.2,37.6,50.6,38.2,48,40.3ZM30.5,65.6a3.9,3.9,0,0,0,.8,1.5,1.5,1.5,0,0,0,1.1-.4c0.7-.6,1.3-1.3,2-1.9a7.2,7.2,0,0,1,1.9-1l3.2-.9c1.9-.5,1.1-1.7.7-2.7a1.3,1.3,0,0,0-.8-0.8,15.1,15.1,0,0,0-2.1,1.1h1.4a2.9,2.9,0,0,1,1.2.5,1.6,1.6,0,0,1,0,.8l-1.1-.2H38.1a33.9,33.9,0,0,0-4.5,1.7A21.3,21.3,0,0,0,30.5,65.6Zm126.8,6,2.1-.5-1-1.3a1.7,1.7,0,0,0-.8-0.5l-7.2-1.6h-1.1c0.2,0.6.2,1.6,0.5,1.7C152.4,70.3,155.1,71,157.3,71.7Zm-16.8,8.9-0.2-1L139,74.7l-0.9-3.7h-0.5c-0.4,2.1-.8,4.2-1,6.3S137.1,80,139,80A4.6,4.6,0,0,1,140.5,80.5Zm18.8,14.1c1.7,0.8,3,1.9,3.8,1.6,3.2-1.4,6.2-3.2,9.3-4.9a1.3,1.3,0,0,0,.3-0.5H172a2.3,2.3,0,0,0-.4.4,3.3,3.3,0,0,1-1.2.7,4.6,4.6,0,0,1-1.3,0,4.6,4.6,0,0,1-.8,1.3c-1-.1-2.1-0.6-3-0.4A60.6,60.6,0,0,0,159.3,94.6ZM30,63.6l0.3,0.4,1.1-.3L39.6,59a0.5,0.5,0,0,0,.2-0.4l-0.6-2.5-1.6.8-0.7.5ZM159.7,97.6a18.7,18.7,0,0,0-3.6-1.2,52.4,52.4,0,0,0-6.6-.2,8.4,8.4,0,0,0-2.5.9l2,0.8h0.4C152.8,99.1,156,98.8,159.7,97.6ZM102,83.9l-3.3,1.7a3.8,3.8,0,0,0-.8.7,2.6,2.6,0,0,0,1,.5l7.1-.2,1-.2a2.8,2.8,0,0,0-.2-1.5C105.3,84.6,103.8,84.3,102,83.9Zm14.8,64.4,0.7,0.6c1.1,3,3.1.7,4.8,0.8a5.2,5.2,0,0,0-.2-1.8c-0.6-1.1-.6-3.2-2.9-2.1-0.6.3-1.4,0.3-2,.5a3,3,0,0,0-.8.7h1l3.6-.2h0l-4,.7v0.4h-0.6l0.9,2,0.5,0.6h0.2ZM78.1,79.2a5,5,0,0,0-.2,1.8c1,2.3,2,4.6,3.2,6.8,0.3,0.6,1.4.7,2.1,1a4,4,0,0,0-.1-1.5c-0.8-1.8-1.7-3.5-2.7-5.2A31.1,31.1,0,0,0,78.1,79.2Zm65,29.5c1.5,0,2.5-2.2,2-3.6l-1.7-4.8a2.5,2.5,0,0,0-.6-0.7,3,3,0,0,0-.5,1.1c0,0.8.2,1.6,0.2,2.5s-0.2,2.9-.2,4.3A2.7,2.7,0,0,0,143.1,108.7ZM16.2,62.6l-0.4.8-2-2.2,1.3,4.8a1.8,1.8,0,0,1,.3-0.8,1.4,1.4,0,0,1,.9-0.3c0.5,0.5.1,1.9,1.6,1.2l0.5,0.5c1.2,2.3,2.4,2.9,5.2,2.4Zm129,35.5c-0.3,1-.4,1.4-0.4,1.7a1.8,1.8,0,0,0,0,.9,4.2,4.2,0,0,0,4.2,2.6c0.6,0,1.1-.3,1.7-0.4s0.8-.7-0.4-1.5Zm-21.9,51.1,3.1-.4c1.3-.1.9-0.7,0.5-1.4a8.9,8.9,0,0,1-.8-1.4c-0.5-1.3-1.2-1.9-2.6-1.4l-0.9.2a2,2,0,0,0-1.1.5,1.4,1.4,0,0,0,.4,1.2,5.2,5.2,0,0,0,1.8.4h-1.1a4.5,4.5,0,0,0-.2,1.5,3,3,0,0,0,.8,1v-0.3ZM72.2,97.8c-0.4-.5-1.1-1.6-1.9-2.7a1.1,1.1,0,0,0-1.1,0l-4.3,5.8a1.9,1.9,0,0,0-.2.6h0.7a17.1,17.1,0,0,1,2.4-1.8C69.5,98.8,71.3,98.2,72.2,97.8Zm3.6-42.1,0.3,0.2a17.1,17.1,0,0,1,1.6-1.4c2.2-1.6,4.3-3.3,4.5-6.3a0.9,0.9,0,0,0-.3-0.7,1.2,1.2,0,0,0-1,.1,36.3,36.3,0,0,0-2.9,3.8C77.2,52.8,76.6,54.3,75.9,55.7ZM51.5,98.1a31.2,31.2,0,0,0-3.4-2.5,21.9,21.9,0,0,0-3.3-1.1,1.4,1.4,0,0,0,1,.8L47,95.8a0.6,0.6,0,0,1,0,.4,1.9,1.9,0,0,1-.9,0,7,7,0,0,0-1.7-.8c-1.6-.1-3.1,0-4.7,0v1.1Zm65.6-56.2-3.3,2c-1.5,1-3.1,1.9-4.6,3.1a4.2,4.2,0,0,0-.7,1.8H109c2.9-1.8,6.5-2.8,8.6-5.8a1,1,0,0,0,.2-0.7A1.9,1.9,0,0,0,117.1,41.9ZM31.6,95.1a37.6,37.6,0,0,0-.9-5.5c-0.4-1.2-1.1-2.8-2.5-2.3s1.9,1.8-.3,2.9a0.5,0.5,0,0,0,0,.3C28.3,92.5,28.8,94.6,31.6,95.1ZM83.8,47.5l-0.6-.8,0.5,4.5A4.7,4.7,0,0,0,85.5,50c0.9-1.8,1.6-3.7,2.4-5.5l0.5-1.1c-0.7.1-1.6,0-2,.4A34.8,34.8,0,0,0,83.8,47.5ZM47.4,83.1H47a16.6,16.6,0,0,0,.9,2.7,20.3,20.3,0,0,0,1.8,2.4c0.5-.5,1.6-1,1.5-1.4a7.6,7.6,0,0,0-1-3.5c-0.5-.8-1.6-1.2-2.4-1.7l0.7,3.7H48.4ZM61.2,39.5l-0.9-.3-4.8,9a2.6,2.6,0,0,0,0,1.1,2.1,2.1,0,0,0,.9-0.4c0.5-.6.8-1.3,1.2-2a22.1,22.1,0,0,0,2.1-3A37.5,37.5,0,0,0,61.2,39.5Zm67.2,96.4,3.7-2c1.7-.8.1-1.6,0-2.4a1.8,1.8,0,0,0-1.4-.3,19.3,19.3,0,0,0-3.1,1.5,1.1,1.1,0,0,0-.5.9A20.7,20.7,0,0,0,128.4,135.9Zm25.8-49.5,1.4-.2h7.7a2.2,2.2,0,0,0,.8-0.5l-0.5-.6C161.2,83.3,157.1,83.8,154.2,86.4ZM41.8,55.1l2.7,1.3a1.1,1.1,0,0,0,.9-0.2c0.2-1.6.4-3.3,0.6-4.9a0.5,0.5,0,0,0-.3-0.4l-4.9.7C41.7,52.4,45.1,52.5,41.8,55.1Zm90.8,89.9h0.1l-1.7-3.3a0.9,0.9,0,0,0-.6-0.5l-2.3,1.1,0.9,0.3,0.3,0.3c0.7,1.2,1.3,2.5,2.1,3.6a1.4,1.4,0,0,0,1.1.4,1.1,1.1,0,0,0,.8-0.8A3.3,3.3,0,0,0,132.6,145.1Zm-17.5,10.3c0.2-.2,2.9.8,1.2-1.7-0.4-.6-0.9-1.6-1.4-1.6a8.7,8.7,0,0,0-3,.8,9.9,9.9,0,0,0-1.5.8,2.8,2.8,0,0,0,.9,1.1A33.5,33.5,0,0,0,115.1,155.4Zm11.4-23.8-0.3.8a2.9,2.9,0,0,0,1.2.2,6.9,6.9,0,0,0,2.1-1,4,4,0,0,0,1.6-1.9,2.2,2.2,0,0,0-1.2-1.6,7.8,7.8,0,0,0-2.5,1.3l-1.9,1.4ZM110.9,48.6l0.2,0.5L121.2,45l-2.6-1.7a0.7,0.7,0,0,0-.6.2c-1.4,1.2-2.8,2.5-4.3,3.6A20.9,20.9,0,0,1,110.9,48.6Zm32.3,81.1c-0.4-1-.7-1.9-1.1-2.7a1.5,1.5,0,0,0-1-.8,4.2,4.2,0,0,0-2.1,1.1,2.4,2.4,0,0,0,0,1.9,2.3,2.3,0,0,0,1.2.7l0.9,0.2-0.7.7-0.4.3,0.3,0.3,2.7-1.8h0.2ZM56.7,76.4l-1.9,1.1,1.5,0.8a1.9,1.9,0,0,0,.8-0.2c0.7-.2,1.9-0.7,2.2-0.4s2.8-.2,4.1-0.6a1.2,1.2,0,0,0,.4-0.4l-0.5-.3H56.7Zm14.9-5.9,0.5-3.9c0.3-2.5-.6-3.4-3-3l2.1,2.6a0.9,0.9,0,0,1,0,.8,1.5,1.5,0,0,1-.7.4l-0.2-.3-2.4-3.5H67.4a2.5,2.5,0,0,0,.2.6c0.6,0.8,1.3,1.6,1.8,2.4Zm49.6,80.3-2.3.4c0.4,0.9.8,1.9,1.3,2.8a1.7,1.7,0,0,0,.8.3V154l-0.7-.4,0.3-.2c0.9,1,1.7-1.5,2.7-.1h0.3a22.7,22.7,0,0,0-.7-2.7,2.8,2.8,0,0,0-1.2,0l-0.7.4h0Zm12.5-6.7,0.4,0.8c0.6,1.2,1.5,1.9,2.7.9s-0.1-1.5-.3-2.2a20.2,20.2,0,0,0-.8-2.1l-2.9,1.8ZM80.4,31.9h6.5c0.4,0,.7-0.8,1-1.2a0.4,0.4,0,0,0-.2-0.3C85.2,29,82.3,30.2,80.4,31.9Zm93.1,65.3c-1.2,1.3-1.8,2.4-2.8,3a4.1,4.1,0,0,0-2.1,5.1l0.3,0.4,0.4-.3,1.9-3.4ZM128,136.1c-0.6-1-1.1-2.5-1.5-2.5s-1.9.8-2.8,1.3l1.8,2.9Zm45.7-72.9-3.4-3c1.2,2.4,0,3.1-2.1,3.6l4.9,1.3Zm-91.9,11L78.7,76l-0.6.3L79.2,80l0.7-.3-0.8-2.1c1-.2,2.7,0,3-0.6S82,74.8,81.9,74.2ZM151.8,116l0.5,1.1,0.6,1.4c0.8-.5,1.9-0.8,2.4-1.5s0.3-1.8.4-2.7H155Zm-27.4,4.5V121l1.5-.2c-1,.4-2.1.6-0.9,1.9a3.8,3.8,0,0,0,.9.8,13.4,13.4,0,0,0,2.6-1.9,2,2,0,0,0-.4-1.4A36.2,36.2,0,0,0,124.4,120.5Zm9.1,13.8-0.3-.5-5,3,6.1-1.4h2.4l-0.9-2.5ZM47.3,41.8v0.3l1.7,0.5c2.1,0.4,4.2.7,6.2,1.2a1.8,1.8,0,0,0,2.5-2,46.5,46.5,0,0,1-5.2.5A46,46,0,0,1,47.3,41.8Zm98.4,83.9,0.5,0.3a24,24,0,0,0-3.1,1.8c-0.2.1,0.3,1.2,0.5,1.8l3-1.5v-0.2l1.5-.8a6.1,6.1,0,0,0-1-1.6A2.6,2.6,0,0,0,145.8,125.7Zm21.8-24.1c-4.3,2.3-5.3,3.6-4.3,5.8l3.8-3.4-0.3-.4ZM44,38.1a16.7,16.7,0,0,0-1.6,2.2,8.5,8.5,0,0,0-.5,2l1.7-.3c2.6-.3,3.9-1.7,3.7-4.4A11.6,11.6,0,0,0,46,39.5a7.9,7.9,0,0,1-1,1l-0.3-.3-1.2.8ZM68.1,95.7c0.4-.7,1.2-1.4,1.1-1.9s-1.2-2.4-2.8-1.2-0.9.3-1.3,0.6l-3,2.3,0.5,0.6a2.7,2.7,0,0,1,.7-0.6L67.7,94Zm99.5,5.8c1.4,0.8,7.8-6.1,8-8.6Zm-80.8-.7,5.3-.4L90,97.2a0.8,0.8,0,0,0-.7.1ZM22.2,61.2c1.5,0.7,2.7,1.7,3.7,1.5S27.5,61,28.4,60H23.1l1.5,0.7Zm106.3,87.3c2.2-.7.4-1.9,0-3.6l0.9,1.5,0.7,0.7h0.2l-0.4-.8a3.9,3.9,0,0,0-1.2-1.5,16.8,16.8,0,0,0-3.2-.6ZM41.8,89.5a0.6,0.6,0,0,0,.1-0.4,3.9,3.9,0,0,0-1.7-1.1c-2.6-.1-5.2.1-7.7,0.1H31a3,3,0,0,0,.6,1.1,1.8,1.8,0,0,0,1.1.1,18.1,18.1,0,0,1,3.1-.4C37.7,88.9,39.6,89.3,41.8,89.5Zm63.8-21.9c-3.2-.3-1.6,3-3.4,4C105,71.9,106,70.6,105.6,67.6Zm16.1,89.5c-0.6.9-3.1-.5-2.3,2l0.2,0.9,3.1-1.1c-0.4-.7,1.5-2.2-0.8-2.3l-0.6-.2v0.2Zm37.3-44.6c-1.4-.2-3,1.6-2.9,2.9s0.6,1.1,1.4.5a3.7,3.7,0,0,0,1-.5,15.9,15.9,0,0,0,.9-2.1H158Zm3.2-5.6-0.3-1a2.2,2.2,0,0,0-1-.1l-2.7,1.6a1.1,1.1,0,0,0-.4.6l1.2,1.5Zm-26,24.8c-0.7-.9-1.2-2-1.6-2.1s-1.6.7-2.4,1.1,0.9,2,1.6,2.3S135.1,132.3,136.1,131.7Zm-3.7,17.5-0.8-1.3-0.5.4a9.2,9.2,0,0,0,.8,1.9,1.1,1.1,0,0,0,.9.1l2.6-1a7.8,7.8,0,0,0,1.3-1.1l-1.4-1a0.8,0.8,0,0,0-.7.1ZM43.1,38l-7.7,3.7,0.8,1.1,0.4-.5,1.9-.9,0.4-.2,1.6-.8,0.4,1.2Zm58.4,62.5a21.3,21.3,0,0,0-3.1,1.6,2.9,2.9,0,0,0-.2,1.5c0.9-.1,2.1.2,2.6-0.3S101.2,101.7,101.5,100.5ZM144.6,135l0.2,0.6,1-.7-1.2-1.6-0.4.9a2.3,2.3,0,0,0-.9-0.7,2.7,2.7,0,0,0-.9.6,4.1,4.1,0,0,0-.4,1.4,11.9,11.9,0,0,0,1,1.3Zm-19.4-11.1c-0.7-1-1.1-2.6-1.8-2.7s-1,1.5-1.2,2.3a2,2,0,0,0,.8,1.4A11.3,11.3,0,0,0,125.2,123.9ZM29.7,47H29.2l-1.5,4.6a1.8,1.8,0,0,0,.1.7l0.6-.2,1.7-.5,1-.7-0.2-.2-0.9.5a4.1,4.1,0,0,1-.3-1C29.7,49,29.7,48,29.7,47Zm75.4,35.6c1.7,0,3,.3,4.1-0.1s0.9-1.5,1.3-2.3a1.4,1.4,0,0,0,0-.6h-0.3ZM85,69.4l2.6,4.4,0.3-1.1,0.7-2.6,0.3-.6H85Zm47,69.5v-0.2l-1.3.9a1.2,1.2,0,0,0,.4.8l2.1,0.3a2.3,2.3,0,0,0,1.3-.3,5.5,5.5,0,0,0-.3-1.9h-1Zm1.4-2.4h0l-3.1.9a2,2,0,0,0-.5.9,3,3,0,0,0,1.4.4,37.4,37.4,0,0,0,3.5-1.4l0.5-.2a1.8,1.8,0,0,0-.3-0.8h-0.5ZM53.6,115.8a3.4,3.4,0,0,1-1.1-.9c0-1.9-1.2-1.5-2.3-1.2l-0.7.3a8.5,8.5,0,0,0,1.6,2.5C51.5,116.8,52.6,116.2,53.6,115.8Zm81.9,12.7c2.2-.9,2.5-2,0.7-3.8-0.6.5-1.7,0.9-1.8,1.5S135.1,127.7,135.5,128.5Zm5.6,3.5v1.6l1.5-.4a2.9,2.9,0,0,0,1-.4,1.2,1.2,0,0,0,.5-0.8c-0.3-1.7-1.1-1.3-2.1-.5l1-1.2-2.4,1.6,0.2,0.3h0.3Zm-33.9-2.9c-0.2-.7-0.2-1.6-0.6-1.9a2.4,2.4,0,0,0-1.8.3,1.9,1.9,0,0,0,.1,1.3,3.3,3.3,0,0,0,.8,1,1.2,1.2,0,0,0,.7.4l1.5-1Zm29.1,1.6v0.4c0.8-.2,1.8-0.2,2.2-0.7a2.4,2.4,0,0,0-.6-2.1,2,2,0,0,0-1.8.4,4.7,4.7,0,0,0-.5,2h0.6ZM50.9,37.5h4.8a6.3,6.3,0,0,1,1.5.5L58,35.2a3.2,3.2,0,0,0-.6.9c-0.4.7-.6,1.7-1.6,0.3s-1.7-.2-2.6-0.1a3.9,3.9,0,0,0-1.2.6l-0.3-.6Zm54.5,122.3h-1a2,2,0,0,0,.1-0.8c-0.2-.6-0.4-1.3-0.6-1.9l-1.8.6a9.8,9.8,0,0,0,.5,1.3,3,3,0,0,0,.8,1,9.7,9.7,0,0,0,1.6.7Zm39.9-30.4a3,3,0,0,0-1,1.2,3.9,3.9,0,0,0,.8,1.6l2.6-1.4C146.9,130.1,147.1,128.1,145.3,129.4ZM49.7,81.6c1.1,0.5,1.5,3,3.4,1.4a9.2,9.2,0,0,0,1-1.3,4.5,4.5,0,0,0-1.2-.3ZM60.4,47.9h1l5.8-2.5a1.6,1.6,0,0,0,.4-0.7,1.5,1.5,0,0,0-.7-0.2l-2.2,1Zm64,70.5-0.8.4a5.4,5.4,0,0,0,.8,1.4,38.1,38.1,0,0,0,3.9-1.3,0.9,0.9,0,0,0,.2-0.4h-4.1Zm-94.9-54-1.6.8,2.4,4.2a2.5,2.5,0,0,0,.7-1.2A39,39,0,0,0,29.5,64.4Zm86.3,87.1,1.3-.8a17.2,17.2,0,0,0-1.7-2.6,5.3,5.3,0,0,0-1.4.6Zm3-63.6v0.3l6.2,1.1a0.5,0.5,0,0,0,.3-0.3,1,1,0,0,0-.4-0.7,9.5,9.5,0,0,0-2.2-.5h-3.9ZM98.8,59a7.9,7.9,0,0,0-.9-2,6,6,0,0,0-1.5-.9L96,55.9l-1.3,1.7ZM23.2,99.6a13.4,13.4,0,0,0,.2-2.6,7.7,7.7,0,0,0-.8-1.7l-1.3.8C21.7,97,22.3,98,23.2,99.6ZM72.9,68.9c-1,1.6-.6,7.6.5,8.1ZM95,119v-0.5l-4,.8a1.9,1.9,0,0,0-.7,1,0.9,0.9,0,0,0,.5.4Zm52.3,12.6a17.7,17.7,0,0,0-1.5,2.3,1.8,1.8,0,0,0,1,1C148.5,134.4,148.2,133.2,147.3,131.6Zm-45.8-11.2,1.6,2.9,1-.6-1.8-3.4Zm19.1,21.8-0.3,1.5,1.7-.2,1.2-.4,0.9-.6a4,4,0,0,0-1.3-.7,3.2,3.2,0,0,0-1.2.4l0.2,0.4h-0.1Zm-75.6-64-0.4-.5-3,2a2.5,2.5,0,0,0,.4,1.1h0.6Zm117.2,33.7-1.1-.6c-0.4.8-.9,1.7-1.3,2.5a3.4,3.4,0,0,0,.8.7Zm-43,32.1-0.7-1.1-0.3.4a1.9,1.9,0,0,1-.6.5c-0.7.2-1.5,0.3-2.2,0.6a2.6,2.6,0,0,0-.7,1,2.7,2.7,0,0,0,.9,0l3.5-1.3h0ZM58.9,38.6h0.7a2.1,2.1,0,0,0,.5-0.7c0.1-.7.2-1.5,0.3-2.2s0.1-.8.1-1.2a5.5,5.5,0,0,0-.9.9,6,6,0,0,0-.9,1.8A3.6,3.6,0,0,0,58.9,38.6Zm45.6,44.6v0.2a19.7,19.7,0,0,1,2.7.8,8.7,8.7,0,0,1,1.6,1.4,5.4,5.4,0,0,0,.4-1.2,1.8,1.8,0,0,0-.2-1.2h-4.5Zm25.2,55.5a3.4,3.4,0,0,0-1.2-.9A19.9,19.9,0,0,0,126,139a4.2,4.2,0,0,0,.6,1Zm9.3-2.9a4,4,0,0,0,.6,1.2,9,9,0,0,0,1.5.8v-2h-0.7l0.4-.8ZM148.4,83l3.6-1.6,0.5-.3-1-1.3H151Zm-12,55,1,1.7h0.4a1.3,1.3,0,0,0,.6-0.7,7.5,7.5,0,0,0-.5-1.5l-0.3-.9-1.5,1Zm11.9-10.4-0.8.2,0.4,2.8,1.7-.5Zm-19.5-7.1,0.7,1.5,1.7-1-1.3-1.9Zm-11,33.7,1-.7a27.3,27.3,0,0,0-1.7-2.2,4.7,4.7,0,0,0-1.1.6ZM35.3,104.8l-0.3-.4-2.8.6,1.1,1.9Zm-22.2-16,1.2,4.2,0.2,0.3,0.2-.2C15.8,91,14.8,89.7,13.1,88.7Zm110.4,69.9v0.3l5.5-3a0.7,0.7,0,0,0-.2-0.4,0.8,0.8,0,0,0-.6,0Zm5.4-88a17.4,17.4,0,0,0-3.5.9c-0.2.1,0.1,1.3,0.3,2.1ZM74.9,78.3a2.1,2.1,0,0,0,.8.2c0.7-1.1,1.2-2.3,1.8-3.5l-0.2-.3-0.3.4Zm43.3,4.2h2c2,0.2,1.2-1.3,1.4-2.2h-0.3Zm22,5.5,3.1-.4L143,86.2a1.5,1.5,0,0,0-.3-0.6l-0.4.2Zm0.2-14-0.8.2,1.1,4.7,0.7-.2ZM22.9,105.2l0.4,0.5,1.9-1.4a1.1,1.1,0,0,0,.3-0.9,2.3,2.3,0,0,0-.8-0.7ZM126.3,133a3.4,3.4,0,0,0-.9-0.8l-2.6,1.3a2.5,2.5,0,0,0,.9.7A24.1,24.1,0,0,0,126.3,133Zm-91.4-89h0.4a0.8,0.8,0,0,0-.2-0.4l-0.4.2L33.6,47a0.5,0.5,0,0,0,.3.3,1.7,1.7,0,0,0,.9-0.4C35,46,34.9,45,34.9,43.9Zm87.2,110-1.2.9,2,1.5a2.3,2.3,0,0,0,.7-0.6ZM64.6,92.8l2.4-1.1a1.5,1.5,0,0,0,.8-0.7,4.8,4.8,0,0,0-.6-1.3l-0.9.9Zm79.6-.7,3.6-2.7C146,88.7,145.3,89.1,144.2,92.1ZM38.9,64.2l-0.8-.6-2.4,3.3,0.6,0.4Zm122.2,45.5a1.2,1.2,0,0,0,.5-0.4,1.4,1.4,0,0,0-.3-0.7l-2.4,2.1h0.8l-0.9,1.1,2.9-1.6ZM19.9,54.2l-0.4,2.3,0.2,0.2a10.3,10.3,0,0,0,2.7-1.4c0.2-.2-0.4-1.4-0.6-2.1a16.5,16.5,0,0,1-.6,1.9,1.7,1.7,0,0,1-.7.4ZM152.7,77.4h2.9C154.6,77.5,153.8,73,152.7,77.4ZM16.1,98.4l1.4-2.8a0.7,0.7,0,0,0-.1-0.5l-0.4-.2a22.8,22.8,0,0,0-1.5,2.4A2.3,2.3,0,0,0,16.1,98.4Zm9.8,0.4,0.7-1.2-2.1-1.3a2.5,2.5,0,0,0-.4,1A13.2,13.2,0,0,0,25.9,98.8Zm-6.6-2.6,1.9-1.8a3.4,3.4,0,0,0-1-.6,12.2,12.2,0,0,0-1.7,1.7Zm110,0.1,0.7-.2,2.1-3a1.1,1.1,0,0,0-.4-0.6h-0.5Zm6,43.3-0.2.2,0.6,0.9h0.5a0.9,0.9,0,0,0,.4-0.6,6.8,6.8,0,0,0-.9-1.6,2.8,2.8,0,0,0-1-.5,3.5,3.5,0,0,0,0,1A2.3,2.3,0,0,0,135.4,139.6Zm-65-48.5-1.4.8L70,93.4l1.3-1.5Zm85,29.2c-2,1-2.2,2.2-.8,3.3ZM125.4,132v-0.5a2.4,2.4,0,0,0-1.1-.5,17.8,17.8,0,0,0-2,1.7Zm-3.3-66.8v0.7l4.1-.4a1.8,1.8,0,0,0,0-.4h-4.1ZM157,112a7.5,7.5,0,0,0,.9-1.6,2.8,2.8,0,0,0-.2-1.3,1.2,1.2,0,0,0-.6-0.2l-0.6,3.1H157Zm-29.4,29.4,1.9-.3a1.5,1.5,0,0,0,.7-0.6,0.8,0.8,0,0,0-.4-0.5l-2.9.6ZM16.3,99.2l0.3,0.2,2.3-2.6a1.5,1.5,0,0,0-.4-0.7H18ZM62,40.7a20.9,20.9,0,0,0,.8-2.3,7.9,7.9,0,0,0,0-1.5l-1.6,1.4L62,38.8v1.8Zm41.5,24.1-1.3-1.9a2.1,2.1,0,0,0-.5.9,15.5,15.5,0,0,0,1.3,1.8Zm47.4,62.9-1.3-.7a1.1,1.1,0,0,0-.5.7,17.6,17.6,0,0,0,1.1,1.8ZM95,158.8a20.5,20.5,0,0,0,.6,3,2.3,2.3,0,0,0,1.3.3,0.6,0.6,0,0,0,.2-0.4Zm28.5-17.6,2.3-1.1a3.3,3.3,0,0,0-.2-0.8l-2.1.6v1.2Zm16.6-8.2-1.7,1.7a1.9,1.9,0,0,0,.4.6l1.9-1.1A6.5,6.5,0,0,0,140.1,133Zm-26.4,11.8-1.5,1.1a3.7,3.7,0,0,0,.7.9,10.6,10.6,0,0,0,1.6-.9Zm7-73.1h-2v2.3ZM98.4,85.2V84.5H95.8a3.1,3.1,0,0,0,.5,1A13,13,0,0,0,98.4,85.2Zm23.2-37.4,0.2,0.8,3.4-.9V47.1Zm-62.9,30-1.8,1.4a1.2,1.2,0,0,0,.6.3l2.2-.8Zm31.7,81.5-0.4.2c0.4,0.9.7,1.7,1.1,2.6a1.8,1.8,0,0,0,.8.1,1.5,1.5,0,0,0-.1-0.6Zm39.2-11.1-1,.8a2.7,2.7,0,0,0,1,1,2.6,2.6,0,0,0,1.2-.7Zm37.4-65-0.8-.6-1.2,2.1,0.4,0.3Zm-1.4,24-0.4-.2-1.4,1.2,0.6,0.8ZM81,116.8l-0.4.9,2.1,0.6,0.3-.4ZM83,79l-0.4.5,2.5,1.7,0.4-.6Zm43.5,62v-0.3l-2.4.9v0.2l1.4-.4-0.6.7,0.3,0.2,1.8-.7v-0.3l-1.1.2Zm-3-20.8-1.1-1.4c-0.2.6-.4,1.1-0.5,1.7a0.7,0.7,0,0,0,.3.4ZM19.1,69.4l-1.7-2.2v2.3h1.7Zm123.6,9.4-0.5,2,1.4,0.3Zm-6.2,5.8-0.3-.3-3.1,2.4,0.4,0.5ZM50.3,36.1l-1.9,2.2,0.3,0.2,1.8-1V36.1Zm85.3,104.8-0.7-.6-1.7,1.6,0.3,0.2ZM63.2,74.8l-2.9-2.1a5.6,5.6,0,0,0,.8,1.9C61.4,74.8,62,74.7,63.2,74.8Zm72.6,29.8-0.3-.3-2.5,2.5-0.3.5,0.6-.2ZM79.6,126.9a4,4,0,0,0-1.4-.7,8.2,8.2,0,0,0-1.4,1.2,1.1,1.1,0,0,0,.4.3ZM49.9,35.8l-0.2-.5-3.3,1.5,0.2,0.4Zm76.4,50.6-1.6.7a2.5,2.5,0,0,0,1.2.6,3.4,3.4,0,0,0,1.1-1ZM72.2,115.1a4.9,4.9,0,0,0,1.4,1.2,4,4,0,0,0,1.5-.4v-0.4Zm31.6,16.2,1.7,1.8a2.7,2.7,0,0,0,.1-1.4A4.3,4.3,0,0,0,103.8,131.3Zm17.4-75.6h1.3a2.7,2.7,0,0,0-.1-1.2,1.6,1.6,0,0,0-.9-0.1ZM72.7,62a1.2,1.2,0,0,0,.3-0.4l-0.8-.8-1,1.1h1.5Zm63.2,84.5V147l1.5,0.5v-1.3Zm-19.4,12.1,2.3,0.8v-1.3Zm-97-64.9-0.5-.6-1.4,1.3,0.5,0.4Zm5-18.7v0.5l2.6,0.2a2.3,2.3,0,0,0,.1-0.5H24.4Zm113.3,58.1,1.7-1.4-0.3-.4-1.7,1.3ZM131,152a3.9,3.9,0,0,0,.3-1.3,2.9,2.9,0,0,0-.7-0.9,2.4,2.4,0,0,0-.8.7C129.8,150.7,130.3,151.1,131,152Zm-19.9-27.1a2.9,2.9,0,0,0-.7.7,7.1,7.1,0,0,0,.7,1.2,1.7,1.7,0,0,0,.6-0.7A4.1,4.1,0,0,0,111.1,124.9Zm47.2-29v0.6h2.5a0.8,0.8,0,0,0,.2-0.3l-1.7-.2h-1Zm-23.7,54.6-0.2-.4-2.1,1.1,0.2,0.6Zm5.3-17.6-0.3-.5-2.1,1.2,0.2,0.5ZM24.3,98.2H23.7l0.4,1.8h0.6Zm116,39.8-1.4-1a1,1,0,0,0-.3.4l0.7,1.3ZM85.9,106l0.3,0.6,1.8-1-0.3-.5Zm35.1,38.4v0.3l3.1-.6a2.2,2.2,0,0,0,.5-0.7Zm-8.5,12.1,1.1-.5a2.2,2.2,0,0,0-.8-0.7,1.9,1.9,0,0,0-.9.5Zm-1.9-29,0.6,0.6,1-.8a2.2,2.2,0,0,0-.5-0.5Zm14.9,16.3,2-.7h-2.1l-0.3.2Zm13-61.4,0.4,0.4,1.3-1.5a0.9,0.9,0,0,0-.1-0.4Zm-20.2,73.4-0.3.4,1.8,1.3,0.3-.4Zm-2.7-91.9H116l0.7-2.4a1.5,1.5,0,0,0,0-.5h-0.3Zm-5.7,93.5v0.5l1.5,0.2v-0.8h-1.5ZM16.7,91.8l-0.5-.4-1,1.7,0.3,0.2Zm84.8,65.1v0.3l2-.7-0.2-.5ZM25.8,86.1l-0.2.3,1.2,1.1,0.3-.6Zm17.9,21.1v-0.5l-1.9-.6-0.2.5Zm89.9,33.9a3.7,3.7,0,0,0-1.5,0,1.9,1.9,0,0,0-.1,1Zm-3-94.8v0.3l3.2-.5V45.7Zm-68.9,38,0.4-1.2a0.4,0.4,0,0,0-.2-0.3l-1,.2Zm36.4-38h0.4l0.7-1.7-0.6-.2Zm61.5,31.8v0.4l2.3,0.6a0.9,0.9,0,0,0,0-.3Zm-49.5,5.7-0.5.2,0.4,1.4a1.3,1.3,0,0,0,.5-0.4A7.3,7.3,0,0,0,110.2,83.9Zm-0.5,39.8h0.5c-0.1-.4-0.2-0.9-0.3-1.3l-0.4-.2Zm29.4-42.8h-1.5l0.3,1ZM69.4,68.4l-0.3.2,1.3,2.1,0.3-.2Zm37.2,38.3,0.2,0.2,1.6-1.3-0.3-.3Zm13.9,49.9a4.8,4.8,0,0,0-.7-1.3,2.4,2.4,0,0,0-1.1.2Zm29.8-37.2,0.9-1-0.2-.2-1,.8ZM50.7,96.1l0.2-.4-1.4-.8-0.2.3ZM27.3,71.9l1.1,0.6,0.5-.9ZM110.8,125l0.2-.3-0.7-.9a2.8,2.8,0,0,0-.3.6ZM26.9,98.7l-0.4-.2L26,99.6l0.4,0.2ZM17,93.2l0.3,0.3,1-.8-0.3-.4ZM55.2,68.6v0.3l1.8,0.7V69.3Zm62.8,49.5v-0.3l-1.3.2v0.4Zm24.2-24.4v0.3l1.1-.5a1.8,1.8,0,0,0-.1-0.4ZM162.9,109h-0.3l-0.3.8h0.6A2.2,2.2,0,0,0,162.9,109ZM25.1,100.2a1.5,1.5,0,0,0-.4.6,1.5,1.5,0,0,0,.4.5,2.3,2.3,0,0,0,.3-0.6A1.4,1.4,0,0,0,25.1,100.2Zm103.6,51.5L129,152l0.6-.7-0.5-.3ZM151,117.4l-0.2-.4-1,.5a1.3,1.3,0,0,0,.1.3ZM25.7,102.9h0.4l-0.3-1.1H25.5Zm93.7,51.7v-0.3h-1.5v0.3h1.5Zm13.2-6.5,0.7-.8-0.3-.2-0.7.5ZM41.5,74.2l0.2,0.3,1.2-1-0.2-.2Zm106.6,61.3-0.6-.5a5.7,5.7,0,0,0-.3.9l0.4,0.3ZM34.7,110l-0.9-.3-0.4.2a1.4,1.4,0,0,0,.5.4A2.3,2.3,0,0,0,34.7,110Zm124.2,1.7-0.2-.3-1,.7,0.2,0.3ZM132,152l-0.6-.3-0.4.3,0.5,0.4ZM70.7,60.5l-0.6-.4a0.5,0.5,0,0,0-.3.4,0.5,0.5,0,0,0,.3.4A1.7,1.7,0,0,0,70.7,60.5ZM135.8,136l-0.6.4,0.4,0.4,0.5-.4Zm-22.5,20.5v0.3l0.9,0.2a2.6,2.6,0,0,0,0-.5h-0.8ZM67.4,75.8V75.5l-0.8-.2v0.5h0.9ZM135,146.7l-0.7-.2a1.3,1.3,0,0,0-.4.4l0.3,0.2ZM11.8,70.8H11.5l0.2,1.5h0.3ZM88,51.2V50.9l-1.2.7v0.2Zm77.3,29.3a2.5,2.5,0,0,0,.9.3,1.8,1.8,0,0,0,.4-0.7ZM147,131.9v-0.2l-1.6.9v0.2ZM72.2,31.6V31.3l-0.8.2,0.2,0.3Zm1.2,14.8V46l-1.2.5v0.2Zm48.5,81.2,0.8,0.8v-1ZM95.3,114.8l1.1,0.4-0.7-1ZM83.4,103.1v0.3h0.8v-0.4ZM13.3,65.6H13l0.3,1.2h0.3ZM28,104l-0.2.4,0.5,0.5,0.2-.3Zm5.3,4.5H32.9a1.5,1.5,0,0,0-.1.6l0.4,0.2v-0.8ZM64.6,65.2h0.3V64.5H64.6C64.6,64.7,64.6,64.9,64.6,65.2ZM120,92V91.7L119,92v0.3Z" transform="translate(-5.2 -24.3)"/><path d="M27.1,107.2a2.6,2.6,0,0,0-.3,1.3,6.3,6.3,0,0,0,1.2,1.4c0.2-.1-0.1.2-0.4,0.1a3.6,3.6,0,0,1-1.4-.6,17.3,17.3,0,0,1,.9-2.2h0Z" transform="translate(-5.2 -24.3)"/><path d="M53.5,121.7l1.6,0.7a4.4,4.4,0,0,0,1.3,0l-0.8-.7a1.6,1.6,0,0,0,.8.3,1.5,1.5,0,0,0,.3-0.7l1.5,0.4L55,123.1v0.3l7.4-1.5h0l4.2-.9c0.1,0,.1-0.7.1-0.4l6-.7h0l2-.3v-0.2l2.7,0.3-5.6.9-4,1-4.4.7-0.5.2,0.2,0.4a6.2,6.2,0,0,0,1.3,1.7,3.7,3.7,0,0,0,1.8.1l0.4-.2,0.2,0.3-0.4.3a2.4,2.4,0,0,0-1,.7l3.9-1.1-0.7-.4L67.9,122c1.1,0.9.8,3.3,3.1,2.4a8.6,8.6,0,0,1,4-.5l-2.5.6-2.1.6a0.7,0.7,0,0,0-.1.6,11.5,11.5,0,0,1,1.4,2.8c-0.7-.9-1.2-2.2-2.2-2.7s-2.5-.5-2,1.6a1.6,1.6,0,0,0-1-1,0.7,0.7,0,0,0-.6.3,0.9,0.9,0,0,0,.1.7l2.3,2.9a6,6,0,0,0,0-.7l-0.3-1.2,0.9,1.2a3.3,3.3,0,0,1,.4.8,13.3,13.3,0,0,1,.4,1.5l-0.3.2-1-1.1a47.2,47.2,0,0,0-3.3-3.8c-0.3-.3-1.2.1-1.9,0.2l0.2,1.3,0.6,2.8a19.2,19.2,0,0,1-2.1-2c-1.2-1.6-2.4-3.3-3.6-4.9a3.7,3.7,0,0,0-1.2-.7,5.5,5.5,0,0,0,.3,1.4l2.2,4.2a1.6,1.6,0,0,1-.2.8,1.5,1.5,0,0,1-.6-0.3l-3.6-5.1c-0.6-1-1.2-2-1.7-3h0Zm4.8,1.8,4.8,6.1a0.7,0.7,0,0,0,.1-0.8c-0.9-1.2-.9-2.3.1-2.8a2.7,2.7,0,0,0,.8-0.6c-0.6-.9-1.1-2.3-1.9-2.5S59.9,123.1,58.4,123.4Zm-0.2,4.7,0.3-.2-0.2-.5-1.4-3a1.9,1.9,0,0,1,0-.4H56a0.6,0.6,0,0,0-.3.4Z" transform="translate(-5.2 -24.3)"/><path d="M116.1,138.3l-1.2.9h1l-0.4,1.1h-2.3l-0.4-.2a3.8,3.8,0,0,1,.4-0.8l1.3-1.1h1.6Z" transform="translate(-5.2 -24.3)"/><path d="M44.8,120.3l1.7,0.3-1-2.1,0.5-.2,1.2,4-0.5.2Z" transform="translate(-5.2 -24.3)"/><path d="M93.5,122.3l5.5-2h0.3a0.9,0.9,0,0,1-.3.3c-1.5.1-1.5,0.9-.7,1.9l0.3,0.4L99,124H98.8a4,4,0,0,1-.6-1,2.2,2.2,0,0,0-3.4-1.1l-1.1.4v-0.2Z" transform="translate(-5.2 -24.3)"/><path d="M73.7,130.8l2,1.8a3.8,3.8,0,0,0,1.1.4,3.9,3.9,0,0,0,.1-1.3,6.8,6.8,0,0,1-.4-2.9l0.7,4.5a25.1,25.1,0,0,1-2.6-1.3,4.7,4.7,0,0,1-1-1.2h0Z" transform="translate(-5.2 -24.3)"/><path d="M96.7,151.5l2,4.3H98.4l-2.2-4.2Z" transform="translate(-5.2 -24.3)"/><path d="M94.4,128.9l-1.3-1.7v-1.3l1.4,2.8H94.4Z" transform="translate(-5.2 -24.3)"/><path d="M110.4,146l-1.4,1.9h-0.4a1.1,1.1,0,0,1,0-.7Z" transform="translate(-5.2 -24.3)"/><path d="M94.8,129.3l1.8,2.6a0.6,0.6,0,0,1-.1.3l-0.3-.2-1.6-2.6h0.2Z" transform="translate(-5.2 -24.3)"/><path d="M85.3,122.8l1-.8,0.7,1.4Z" transform="translate(-5.2 -24.3)"/><path d="M60,116.8v0.9L58,117Z" transform="translate(-5.2 -24.3)"/><path d="M46.9,108.6H44.1v-0.2h2.8v0.2Z" transform="translate(-5.2 -24.3)"/><path d="M73.8,130.7l-2.2-1.5,0.7-.7,1.4,2.2h0Z" transform="translate(-5.2 -24.3)"/><path d="M45.6,118.1l-1.3-3h0.2l1.4,2.9H45.6Z" transform="translate(-5.2 -24.3)"/><path d="M98.2,149.5l1,2.3H98.8L98,149.6h0.2Z" transform="translate(-5.2 -24.3)"/><path d="M113.1,142.1l-1.1-2,0.3-.2,1.1,2Z" transform="translate(-5.2 -24.3)"/><path d="M65.1,115.9l0.8,1.9H65.8l-1.1-2h0.5Z" transform="translate(-5.2 -24.3)"/><path d="M98.4,125.9l-2.2.7,0.7-1Z" transform="translate(-5.2 -24.3)"/><path d="M56.4,120.9l-1.2-2.1h0.2l1.3,2Z" transform="translate(-5.2 -24.3)"/><path d="M40.1,111.2l1.1,1.9H41l-1.1-1.9h0.2Z" transform="translate(-5.2 -24.3)"/><path d="M110.6,151l-1.5-2.4h0.2l1.5,2.5h-0.2Z" transform="translate(-5.2 -24.3)"/><path d="M91.2,134.7l0.9,1.4H91.4a11.3,11.3,0,0,1-.2-1.4h0Z" transform="translate(-5.2 -24.3)"/><path d="M96.3,123.7l0.4,1.6-1-.8Z" transform="translate(-5.2 -24.3)"/><path d="M109.5,140.9l1,2.3h-0.2l-1.1-2.3h0.2Z" transform="translate(-5.2 -24.3)"/><path d="M82.3,127.5l1.4,2.2-0.3.2-1.1-2.4h0Z" transform="translate(-5.2 -24.3)"/><path d="M77.2,119.2h1.7v0.3H77.2v-0.3Z" transform="translate(-5.2 -24.3)"/><path d="M48.8,119.1l-1.5-1.8,0.3-.2,1.2,2.1h0Z" transform="translate(-5.2 -24.3)"/><path d="M44.3,111l0.4,1.7H44.4L44,111h0.3Z" transform="translate(-5.2 -24.3)"/><path d="M91.8,133.9l-1-1.5,0.7-.3Z" transform="translate(-5.2 -24.3)"/><path d="M83.6,123.6l-1.9.9v-0.3l2-.6h0Z" transform="translate(-5.2 -24.3)"/><path d="M33.4,111.5l1,1.3H34.1l-0.7-1.4h0Z" transform="translate(-5.2 -24.3)"/><path d="M92.1,130.3l0.4-.6a2.7,2.7,0,0,1,.3.7,1,1,0,0,1-.3.4Z" transform="translate(-5.2 -24.3)"/><path d="M61.2,120l1.1,1.2-0.2.2L61,120.1Z" transform="translate(-5.2 -24.3)"/><path d="M53.6,121.7l-1-1.7,0.3-.2,0.6,1.9h0Z" transform="translate(-5.2 -24.3)"/><path d="M60.9,113.3H59.4V113h1.5v0.3Z" transform="translate(-5.2 -24.3)"/><path d="M83.6,123.6l1.3-.8-0.7,1.1-0.6-.4h0Z" transform="translate(-5.2 -24.3)"/><path d="M42.3,109H40.9l1.5-.2V109Z" transform="translate(-5.2 -24.3)"/><path d="M100.5,124.7l1.3-.7v0.2l-1.3.7v-0.2Z" transform="translate(-5.2 -24.3)"/><path d="M108.7,152.4l-0.9-1.2h0.1l1,1.2Z" transform="translate(-5.2 -24.3)"/><path d="M99.1,152.2l0.4,0.7-0.2.3-0.4-.5A1.3,1.3,0,0,1,99.1,152.2Z" transform="translate(-5.2 -24.3)"/><path d="M87.2,160.3l-1.3-.6,0.2-.3,1.1,0.9h0Z" transform="translate(-5.2 -24.3)"/><path d="M71,115.2l-1.7.3v-0.2l1.7-.2h0Z" transform="translate(-5.2 -24.3)"/><path d="M139.1,54.5l-1.7-.3a4.3,4.3,0,0,1,.6-1.3,78.6,78.6,0,0,1,6.6-6c0.7-.5,2.1.1,3.3,0.2a6.5,6.5,0,0,1-.5,2.3,11.5,11.5,0,0,1-3.2,3,18.4,18.4,0,0,0,1.7-2.2,19.3,19.3,0,0,0,1.1-2.6c-1,.1-2.3-0.1-3,0.4a54.1,54.1,0,0,0-5.2,4.8A3.6,3.6,0,0,0,139.1,54.5Z" transform="translate(-5.2 -24.3)"/><path d="M144.3,53L138,57.4l-0.2.2-1.7.9a7.6,7.6,0,0,1,1.3-1.5l6.1-4h0.8Z" transform="translate(-5.2 -24.3)"/><path d="M172.4,81.4l1.6-1.4,0.2,0.2-1.5,1.5Z" transform="translate(-5.2 -24.3)"/><path d="M116.8,122.7l2.1-.8,0.7,0.5Z" transform="translate(-5.2 -24.3)"/><path d="M121.1,123.5l-0.9.4v-0.2l0.9-.5Z" transform="translate(-5.2 -24.3)"/><path d="M116.5,120.7l0.8-.4v0.2l-0.7.5Z" transform="translate(-5.2 -24.3)"/><path d="M143.7,116.3l1.3-1.5-0.9-.4,1.8-.2,0.3,0.2a1.2,1.2,0,0,1-.3.6l-2.2,1.2h0Z" transform="translate(-5.2 -24.3)"/><path d="M155.3,111.8l-1.4.8-0.5-.2,1.7-1Z" transform="translate(-5.2 -24.3)"/><path d="M143.7,116.3l-2.2,1v-0.4l2.4-.6h0Z" transform="translate(-5.2 -24.3)"/><path d="M152.8,113.1l-1,.4v-0.3l1-.5v0.3Z" transform="translate(-5.2 -24.3)"/><path d="M114.3,130.1l-0.6-.7,0.3-.2,0.5,0.8Z" transform="translate(-5.2 -24.3)"/><path d="M150.4,123.4l-0.6-.3,0.6-1C152.8,122.1,149.5,123.2,150.4,123.4Z" transform="translate(-5.2 -24.3)"/><path d="M127.7,131l2-.7v0.3l-2,.6V131Z" transform="translate(-5.2 -24.3)"/><path d="M163.3,106.2l1-.9h0.1l-1,1v-0.2Z" transform="translate(-5.2 -24.3)"/><path d="M165.1,104.5l0.8-.5v0.2l-0.8.5Z" transform="translate(-5.2 -24.3)"/><path d="M61.3,123.6l0.6,1.2H61.6l-0.5-1.3h0.2Z" transform="translate(-5.2 -24.3)"/></svg>