<svg id="ricecereal_kidsfood_Image" data-name="ricecereal(kidsfood) Image" xmlns="http://www.w3.org/2000/svg" viewBox="0 0 132.8 197.9"><title>ricecereal(kidsfood)</title><path d="M3.2,176.5c0.5-3.8,1.2-7.3,1.3-10.8s-0.2-9.5-.1-14.2,0.4-12.2.8-18.4c0.2-3.8.7-7.7,1.1-11.5s0.3-4.9.5-7.3,0.8-7.4,1-11.1,0.3-5.5.3-8.3,0.2-6.6.2-9.9S8.1,80.5,8,78.2s-0.2-6.7-.5-10S6.2,58.6,5.9,53.9A52.8,52.8,0,0,1,8.4,33.3c1.3-3.8,2.7-7.7,4.4-11.4a11.7,11.7,0,0,1,3.6-4,23,23,0,0,1,6.1-3.7c2.5-.9,5.2-0.9,7.8-1.4a42.8,42.8,0,0,1,5-1.1c3.8-.2,7.7-0.1,11.5-0.4s6.7-.8,10.1-1.1S63,10.1,66,9.8s5.2-1,7.8-1.4l9.4-1.1L96.8,5.9c2.9-.3,5.9-0.9,8.8-0.6a66.8,66.8,0,0,1,10.6,2.5c2,0.6,4.3,1,5.7,2.3a80.1,80.1,0,0,1,8,8.5c0.7,0.9.9,2.2,1.4,3.2a2.3,2.3,0,0,0,1.1.8c1.4,0.6,2.7,1,2.4,3.2s0.8,3.1.9,4.6-0.2,4.5-.1,6.7,0.4,5.3.4,8-0.4,6.7-.6,10-0.4,5.9-.8,8.8-1,6-1.5,9-1,6.9-1.7,10.3-1.7,6.4-2.2,9.6-1.1,8.6-1.4,12.9-0.1,8.5-.4,12.7-1.2,11-1.7,16.5-1.1,10.2-1.6,15.4-0.9,8.7-1.1,13.1-0.1,6.6,0,9.9,0.6,6.2.6,9.3c0,1.4-.9,2.8-1.4,4.3h0c-2.8.7-2.8,3.8-4.6,5.4s-5.8,6.6-10.3,7.6c-2.7.6-5.5,0.8-8.2,1.1s-7.4,1.2-11.1,1.5-7.8.3-11.8,0.4-8.7.2-13,.1a40.6,40.6,0,0,1-6.2-.9l-14.2-2.6c-2.2-.4-4.5-1-6.7-1.3s-5-.4-7.5-0.8-2.4-1-3.7-1.5a6.2,6.2,0,0,0-2.6-.4c-3.9.5-6.4-1.7-9.2-3.9a28.6,28.6,0,0,1-7.5-8.4A45.4,45.4,0,0,1,3.2,176.5Zm92.1,12.4-1.8,2.7,0.4,0.2,1.4-2.9,0.7-1.2-0.5-.2ZM19.3,39.3l2.4,4.3H22L15.4,28.1l-0.4.2v0.9l-0.8-1a1.9,1.9,0,0,0-.2.9,21.5,21.5,0,0,0,.9,2.1l-1.5-.4c-0.3.8-.7,1.7-0.9,2.6a1.8,1.8,0,0,0,0,1.2l4.6,7.9,1.5,2.3a9.2,9.2,0,0,0-.2-1l-4.4-9.8a1.2,1.2,0,0,1,.1-0.6l0.5,0.2,5.3,11.3L20.1,45a0.6,0.6,0,0,0,.1-0.3c-0.3-1-.5-2.1-0.8-3.1s-0.9-2.3-1.7-4.1L19,39.4l0.3,0.3V39.3h0Zm94.3-1.8,0.6,1.3c0.7,1.6,1.3,3.3,2,4.8a4.4,4.4,0,0,0,1.3,1.1l-0.2-1.3-0.6-2.9c0.6,1.1.7,2.4,1.4,3.3s2,1.1,3.6,2l-3.2-8.6c1,1.9,1.8,3.9,2.6,5.9a10.7,10.7,0,0,0,1.3,1.8c-0.1-.7-0.3-1.4-0.4-2.1q-0.6-4.4-1.1-8.7a0.6,0.6,0,0,1,.3-0.5,0.6,0.6,0,0,1,.5.2l2.6,6.3-0.7-.8-1.8-4.6-0.4-.4a1.2,1.2,0,0,0-.3.5c0.5,3,1,5.9,1.5,8.8s1.7,2,3.4,2l-2-5.3h0.3l2.3,5.8H127L126.3,42l0.5,1.1c0.4,1.9,1.1,3.5,3.5,3.4s2.8,0.5,2-1.7-1.2-1.3-1.4-2c-1-2.7-1.8-5.5-2.8-8.2-0.3-.8-0.2-2.6-2.3-1.6a3.1,3.1,0,0,1,.6-0.8,0.7,0.7,0,0,1,.7.1,11.3,11.3,0,0,1,1.3,2.3c0.8,2.3,1.5,4.6,2.3,6.9a2.8,2.8,0,0,0,.6.7,2.6,2.6,0,0,0,.3-1q-1-7-2.1-13.9a1.2,1.2,0,0,0-.8-0.8c-2-.1-4.1.1-6.1-0.1s-4.7-1.1-7.1-1.1c-5.9,0-11.7.3-17.6,0.7-1.2.1-3.1,0.2-2.8,2.3a5.3,5.3,0,0,1-2.3,5.4c-0.7.5-.8,1.8-1,2.8a6.9,6.9,0,0,0,.6,2c0.2,1,.3,2.1.6,3.2s0.9,2.4,1.4,3.7a3.1,3.1,0,0,0,.6.7,3.1,3.1,0,0,0,.2-1c-0.2-1.3-.5-2.6-0.8-4a2.4,2.4,0,0,1,.5,1.5c0.1,2.5.9,3.4,3.1,3.2a0.8,0.8,0,0,0,.4-0.7c-0.6-2.1-1.2-4.2-1.8-6.4,0.9,2.1,1.6,4.3,2.4,6.5a1.9,1.9,0,0,0,.8.5,2.1,2.1,0,0,0,.2-0.7c-0.1-.8-0.2-1.5-0.3-2.3a5.8,5.8,0,0,1,.7,1.6,2,2,0,0,0,.7,1.2,5,5,0,0,0,1.8-.1,5,5,0,0,0-.1-1c-0.7-2-1.5-4-2.1-6s-1-3.3-1.7-5.3l-0.3.8L98.2,34l0.5-1.3a4.4,4.4,0,0,1,.7,1.1c0.4,1.3.7,2.6,1.1,3.9s1.6,4.5,2.4,6.8a1.5,1.5,0,0,0,.5.4,1.6,1.6,0,0,0,.1-0.5c-0.1-.8-0.3-1.5-0.4-2.3a0.6,0.6,0,0,1,.5.4c0.4,1.5.2,3.5,2.8,2.7a0.9,0.9,0,0,0,.4-0.7q-1.5-4.2-3.1-8.5a25,25,0,0,0-1.2-2.3l-0.2,1.9-0.2.3a11.7,11.7,0,0,1-.1-2.1,3,3,0,0,1,.7-1,4.1,4.1,0,0,1,.7,1c0.4,1.4.7,2.8,1.2,4.2s1.6,3.7,2.5,5.5a17.1,17.1,0,0,0,1.1,1.7h1.7c1.1,0.1,1.6-.1,1-1.4s-0.8-2.2-1.2-3.3a34.2,34.2,0,0,1,1.8,4.1,1.9,1.9,0,0,0,.8.5,2.6,2.6,0,0,0,.2-0.9,17.6,17.6,0,0,0-.4-1.8c0.5,1.3.4,3.1,2.7,2.6l1.6-.2-0.5-1.2-2.2-5.8h0ZM29.3,109.6c0.8,1.3,1.5,2.5,2.4,3.7l5,6.9c1.1,1.4,2.3,2.8,3.3,4.3s1.6,3.1,2.5,4.6,2.9,3.6,3.6,5.7a103.7,103.7,0,0,1,2.6,11.1c0.4,2,.4,4.1,1.1,5.9a75.9,75.9,0,0,0,5.3,10,13,13,0,0,0,8.4,5.4c5.1,1.2,9.7-.6,13.7-3.7a5.9,5.9,0,0,0,2.5-6.2,26.5,26.5,0,0,0-2.9-6.8c-2.3-3.9-6-6.5-9.8-8.7s-5.6-2.5-8.2-4.1A38.5,38.5,0,0,1,47,125.8c-2.7-4.1-5.6-7.9-8.6-11.8l-9.9-12.8c-1-1.3-2.5-2.7-2.5-4a37.5,37.5,0,0,1,1.5-8.6c0.8-3.4,1.9-6.7,3-9.9a4.3,4.3,0,0,1,1.3-1.3c0,0.3-.1.6-0.1,0.9a2.3,2.3,0,0,0,.1.5,17.9,17.9,0,0,1,.4,2.9c-0.1,3.5-.2,7-0.3,10.5s-0.1,5-.2,7.5-0.6,3.6.9,5a12.2,12.2,0,0,1,1.3,1.6l7.3,10c2,2.7,4.1,5.3,6,8.1,2.9,4.3,6,8.3,10.5,11.1a10.9,10.9,0,0,1,1.3,1l0.4-.5-1.2-.9-0.9-1a2.9,2.9,0,0,1,1-.8l10.2-1.5A42.2,42.2,0,0,1,88.6,133a128.2,128.2,0,0,1,13.3,4.7c2.8,1.2,5.2,3.2,7.8,5s3.1,2.1,4.5,3.3a15,15,0,0,1,5.7,11,13.8,13.8,0,0,1-.1,1.8,5.8,5.8,0,0,0,.7-2.3c0.5-5.4.9-10.9,1.4-16.3,0.4-3.8.8-7.6,1.3-11.4s0.9-7.4,1.1-11.1-0.1-6.3.2-9.5,1-9.1,1.7-13.6c1.1-6.7,2.4-13.4,3.5-20.1,0.7-4,1.6-8,2.1-12.1s0.6-7.5.8-11.2a1.7,1.7,0,0,0-.5-1.3c-3.1-.4-6.2-0.9-9.3-1s-6,.1-9,0.1-5.1-.1-7.7,0c-4.5.2-8.9,0.8-13.4,1s-7.7-.1-11.5.2-7.8,1.5-11.8,2c-7.1.8-14.3,1.3-21.4,2.1L35.4,55.6a20.1,20.1,0,0,1-4.4.4c-1.6-.2-2.8-0.8-3,1.8-0.5,6.4-1.5,12.8-2.2,19.2-0.4,4.2-.8,8.4-0.9,12.7a80.3,80.3,0,0,0,.3,9.3c0.2,2.3-.8,4.9,1.1,7a33.2,33.2,0,0,1,2.7,4.1ZM62.8,138v0.4l1.7,0.9c3.4,2.3,7.2,4.3,10.2,7a18.3,18.3,0,0,1,5.8,9.5c0.5,2.2-.2,6.5-1.8,7.9a22.5,22.5,0,0,1-9.4,4.5c-4.6,1.2-8.5-.3-11.8-2.8-5.9-4.4-8.1-11.1-9.7-17.9a0.8,0.8,0,0,0-.5-0.5l-3.7.5a0.7,0.7,0,0,0-.3.6c0.6,3.6-1.7,5.9-3.9,8.2s-2.1,1.5-2.4,2.4a13.3,13.3,0,0,0-.2,4.4,5.1,5.1,0,0,0,.5,1.5,6.5,6.5,0,0,0,.7-1.1c0.8-2.2,3.2-4,5.4-3.8a1.1,1.1,0,0,1,.5.8l-2.9,5.1a0.5,0.5,0,0,0,0,.4l2.4,0.8a17,17,0,0,1,2.9,1c1.8,1,3.4,2.6,5.3,3.1s5.5,0.8,8.2,1.3,7.6,1.8,11.5,2.3,10.7,1.1,16.1,1.6c1.1,0.1,2.2-.1,3.2-0.1s1.4,0.6,2.1.4l10.4-2.2c4.3-.8,7.9-2.5,9.6-7a27.6,27.6,0,0,1,2.3-3.8,10.8,10.8,0,0,0,.8-2,7.4,7.4,0,0,0-.5-6.6c-1.8-3.1-3.8-6.1-7.3-7.6-5-2.1-9.8-5-15-6.3s-13.6-2.3-20.5-3.1A84.5,84.5,0,0,0,62.8,138ZM11.4,113.7c-0.6,4.7-1.4,9.4-1.9,14.1s-0.6,7.4-.8,11.1S8.2,149.3,8,154.4c-0.1,3.6,0,7.3-.1,10.9s-0.7,4.5-.6,6.7a25.7,25.7,0,0,0,.9,7.1,14.3,14.3,0,0,0,3,5.1,82.6,82.6,0,0,0,7,6.9,19.5,19.5,0,0,0,3.7,2.1,26.7,26.7,0,0,1-1.5-4.7c-0.3-2.6-.2-5.2-0.4-7.8s-0.5-2.7-.5-4.1,0.4-5.1.4-7.6c0.1-5.4.1-10.9,0.1-16.3s0-12.3,0-18.7c-1.4,0-3.1.3-4.6-.1s-2.7-1.7-4-2.6a2.2,2.2,0,0,1-.4-0.8l1-.2c2,0.1,4,.4,5.9.4a8.9,8.9,0,0,0,2.6-.9l0.5-4.1H20.1c-0.7-.3-1.6-1-2-0.8-2.1,1.3-3.9.4-5.8-.3a1.6,1.6,0,0,1-.4-0.5h0.7l4.2,0.6a11.5,11.5,0,0,0,3-.2,1.4,1.4,0,0,0,1-.9c0.1-2.6.1-5.2,0.1-7.8,0-.7.1-1.8-0.3-2a5.1,5.1,0,0,0-2.3-.1h-5a4.1,4.1,0,0,0-1.1,0,2.2,2.2,0,0,0-.2.9ZM64.6,43.3c1,2,1.7,3.4,2.5,4.7a3,3,0,0,0,1.7.6,0.7,0.7,0,0,0,.4-0.5c-0.7-1.8-1.5-3.6-2.3-5.4s-1.8-3.6-2.7-5.5l0.5-.2,5.1,10.9a3.2,3.2,0,0,0,.3-2c-0.3-2.3-.6-4.5-0.9-6.8a2,2,0,0,1,.3-0.8l0.4,0.2,1.5,5.4c0.2,0.7.5,1.4,0.8,2.3a3.5,3.5,0,0,0,.4.7l1,0.9a3.1,3.1,0,0,0,.4-1.1c-0.1-1.8-.4-3.7-0.5-5.5a2.4,2.4,0,0,1,.3-0.9,2.1,2.1,0,0,1,.7.6l2.2,5.8a1,1,0,0,0,.8.3,0.7,0.7,0,0,0,.4-0.6c-0.2-1.9-.5-3.9-0.7-5.8a6.2,6.2,0,0,1,.3-1.7,1.3,1.3,0,0,1,.6.1L80,44.8c0.2,0.5.4,1.5,0.7,1.5a20.4,20.4,0,0,0,3.4,0,10.2,10.2,0,0,0-.5-1.5l-2-3.9a3,3,0,0,1-.1-1.3l0.3-.2a0.9,0.9,0,0,1,.5.4l1.4,4c0.3,0.8.4,2,1,2.3s1.4-.4,1.3-1.4-0.2-3.1-.3-4.7a35.8,35.8,0,0,1,.7,4.6A1.9,1.9,0,0,0,87,46a6,6,0,0,0,2-.2,8.9,8.9,0,0,0-.2-1.2c-0.6-1.8-1.1-3.7-1.7-5.5a5.5,5.5,0,0,0-.8-1.2l-0.4,1.5a4.5,4.5,0,0,0,0,.6,2.6,2.6,0,0,1-.3-0.8c0.3-1.2-.2-1.4-1.4-1.3a83.8,83.8,0,0,1-10.6.3A6.7,6.7,0,0,1,69.2,36c-1.2-1.6-1.7-3.8-2.5-5.7a1.2,1.2,0,0,0-1-.5c-3.4.6-6.7,1.3-10.1,1.7s-7.9.9-11.9,1.2-6.8.3-10.2,0.4a1.9,1.9,0,0,0-1.1.2,34.1,34.1,0,0,0-1.8,5.5c-0.8,4.6-1.5,9.1-2.1,13.7a2.3,2.3,0,0,0,.4,1.5,23.1,23.1,0,0,0,3.5-.2,0.7,0.7,0,0,0,.4-0.5l-2.1-4.2-0.5-.9a1.6,1.6,0,0,1,.8.2c0.4,0.8.7,1.6,1.1,2.5l1,1.9c-0.4-2.8-.7-4.9-0.9-7.1a3.2,3.2,0,0,1,.4-1.2,2.6,2.6,0,0,1,.8.6c0.4,0.7.6,1.5,1,2.3l2.4,5.2a1,1,0,0,0,.3-1c-0.5-3.9-1.1-7.7-1.6-11.6a1,1,0,0,1,.5-0.8,0.8,0.8,0,0,1,.8.3l3.1,7,1.8,4.4,0.4-.2-0.2-1.8a5.5,5.5,0,0,1,.7,1.7,1.9,1.9,0,0,0,.7,1l7.5-1.3-1.8-4.2h0.2l1.3,2.6h0.3l-1.3-5c0.7,1.4.9,2.9,1.5,4.4s0.2,3,2.4,2.5l1.3-.3,5-.2c0.8-.1,2.2-0.2,2.3-0.5a10.4,10.4,0,0,0-.3-3l-0.3.3-1-2.8h0.2l0.8,2h0.3l-0.7-3.2a39.2,39.2,0,0,1,1.3,3.9,5.3,5.3,0,0,0,1.3,2.6c0.5,0.4,1.7-.1,2.5-0.2ZM29.9,26.5l0.2-.2L28,20.8a3,3,0,0,1,0-1,3.5,3.5,0,0,1,.9.7l5.6,8.8a2.1,2.1,0,0,0,.8.4,1,1,0,0,0,.1-0.5L31.6,20a2.1,2.1,0,0,1,0-.7,1.4,1.4,0,0,1,.7.2c1,1.8,2,3.7,3.1,5.6s1.8,2.8,2.7,4.1a2.2,2.2,0,0,0,.3-1.9l-2.8-8.1a1.9,1.9,0,0,1,0-.7,1.4,1.4,0,0,1,.6.3c0.7,1.4,1.3,2.8,2,4.1s1.4,2.4,2,3.6l0.7-.3-2.1-7.7a4.2,4.2,0,0,1,0-1,3.2,3.2,0,0,1,.9.8L42.6,25,43,25.4a1.4,1.4,0,0,0,.1-0.5l-1.9-6.4a2.2,2.2,0,0,1,0-.7,1.8,1.8,0,0,1,.9.3c0.5,1,1,2.1,1.5,3.1l3.3,7c0.4-.4.5-0.5,0.4-0.7-0.9-2.8-1.8-5.5-2.7-8.3a8.2,8.2,0,0,1-.1-2.3l0.6-.2a8.9,8.9,0,0,1,.6,1.1l-0.7.2c0.1,0.4.2,0.9,0.3,1.3s1,2.8,1.4,4.2,0.9,3.3,1.3,5l0.2,0.3,1.7-.3a0.6,0.6,0,0,0,0-.3c-0.6-1.2-1.3-2.3-1.8-3.6s-1.6-4.2-2.4-6.2A8.1,8.1,0,0,1,47,20.6l2.5,5.8,0.3,0.7a2.2,2.2,0,0,0,.1-0.8c-0.7-1.9-1.4-3.7-2-5.6a15.8,15.8,0,0,1-.4-2.4H48l3.4,7.1-0.2-2.3a16.2,16.2,0,0,1,.9,2.4,6.2,6.2,0,0,1-.1,1.6,7.3,7.3,0,0,1-1.3-1.2,19.7,19.7,0,0,1-1.1-2.4,3.2,3.2,0,0,0-.2,1.1,28.8,28.8,0,0,0,1.4,3.4,1.6,1.6,0,0,0,1.2.8,43.3,43.3,0,0,0,4.3-.9,0.6,0.6,0,0,0,.1-0.5c-1.6-2.5-3.2-4.9-4.7-7.5a24.5,24.5,0,0,1-1.3-3.8,1.2,1.2,0,0,0-.7-0.8l-10.3.3-4.5.2c-2.6.3-5.2,0.5-7.8,1a20.4,20.4,0,0,0-4.6,1.7,11.6,11.6,0,0,0,.8,2.3c1.8,4.2,4.1,8.1,8.6,10a10.9,10.9,0,0,0,2.8.4l-1.4-1.7L30.4,25,32,28.5a0.7,0.7,0,0,1,0,.5,1.2,1.2,0,0,1-.7.2l-4.2-5.8,0.4-.3ZM22.2,73.2a2.3,2.3,0,0,0,.2-0.6c0.6-4.7,1.2-9.4,1.8-14.1,0.1-.7.2-1.8-0.2-2.1-2.9-2.4-6-4.7-8.9-7.1s-2.8-2.8-4.4-4.3c0,0.6-.1.9-0.1,1.2a65,65,0,0,0-.3,7.7c0.3,3.6,1,7.3,1.4,10.9,0.1,0.9-.2,2.2.3,2.6a24.2,24.2,0,0,0,4.7,3.3C18.4,71.7,20.2,72.3,22.2,73.2Zm80.1,124.7c3.1-1.1,6.5-1.7,9.1-3.5s4.9-4.7,7-7.4a9.7,9.7,0,0,0,1.9-5.4c0-4-.7-7.9-0.8-11.9s0.3-7.2.6-11A147.4,147.4,0,0,1,102.2,197.9ZM89,19.8c0-2.1,0-3.6,0-5.1a1,1,0,0,1,.6-0.7,1.2,1.2,0,0,1,.8.6c0.4,1.4.7,2.7,1.2,4.1a8.9,8.9,0,0,0,.8,1.5c-0.1-1.4-.3-2.6-0.3-3.9a14.2,14.2,0,0,1,.5-2.5l1.5,1.8,0.3,0.4a15.5,15.5,0,0,0,.4-3.6c-0.1-.8-0.8-2-1.4-2.1a22.1,22.1,0,0,0-4.8.3L74.4,12.4c-2.8.4-5.6,1.1-8.5,1.5s-7.1.6-10.7,0.9a0.9,0.9,0,0,0-.5.6l4.4,7.6c-0.4-2-.8-3.5-1.1-5a2.3,2.3,0,0,1,.1-0.8,1.8,1.8,0,0,1,.8.4c0.6,1.4,1.1,2.8,1.7,4.3l0.8,1.6a0.6,0.6,0,0,0,.2-0.6c-0.6-1.8-1.3-3.6-1.8-5.4a2.2,2.2,0,0,1,.2-0.9,1.2,1.2,0,0,1,.6.2c0.7,1.7,1.4,3.4,2.1,5s1.1,2.1,1.9,3.5c-0.5-2.7-1-4.9-1.4-7.1a3.5,3.5,0,0,1,.2-1.1,1.7,1.7,0,0,1,.7.5c0.4,1,.7,2.1,1.1,3.1l1.7,4.3a30.8,30.8,0,0,0-.6-6.1,3.5,3.5,0,0,1,.4-1.3l1,0.8a4.6,4.6,0,0,1,.3.7l0.5,0.5,0.2-.6,0.2-1.6L70,18.4a3.8,3.8,0,0,1,.4.9l1.3,3.3c0.1-2-.2-3.9-0.3-5.8A5.5,5.5,0,0,1,72,15,4.7,4.7,0,0,1,73.1,16a8.3,8.3,0,0,1,.6,1.9l1.1,4.5c0-2,0-4.1,0-6.2a3.3,3.3,0,0,1,.5-1.2h0.4a14.2,14.2,0,0,1,1.2,2.3c0.7,2.1,1.2,4.2,1.8,6.3a1.4,1.4,0,0,0,.6.4,1.5,1.5,0,0,0,.2-0.6c-0.1-2.1-.3-4.2-0.4-6.3a4.8,4.8,0,0,1,.7-1.7,3,3,0,0,1,1.1.8,22.5,22.5,0,0,1,.7,2.7,2.5,2.5,0,0,0,.3.7h0.3a1.6,1.6,0,0,0,.1-0.5c0-1.7,0-3.4,0-5.1a0.8,0.8,0,0,1,.5-0.5,0.6,0.6,0,0,1,.6.3L85.7,22a2.7,2.7,0,0,0,.5.7,2.7,2.7,0,0,0,.1-0.7c-0.1-1.8-.4-3.6-0.4-5.4a5.1,5.1,0,0,1,.8-1.9,7.4,7.4,0,0,1,1.3,1.7A26.6,26.6,0,0,1,89,19.8ZM36.4,151.4l4.9-3.9a0.6,0.6,0,0,0,.1-0.6l-2.9-1.9-1.6-1.3a3.6,3.6,0,0,1,.9-0.8l4.2-1.7,2.6-.8h0.7c-0.1-.3-0.1-0.6-0.2-0.9a14.8,14.8,0,0,1-.5-1.7c0-.2.5-0.6,0.4-0.7-2.9-5.5-5.8-11-8.9-16.4a81.5,81.5,0,0,0-5.8-7.7l-0.4-.3a1.8,1.8,0,0,0-.2.4l-1.2,9.8c-0.1.5-.4,1.2-0.2,1.5,1.7,1.8,3.5,3.4,5.1,5.2s0.5,1.8.7,2.7l1.2,4.4a29.4,29.4,0,0,1,3.1-3.3c0.5-.4,1.5-0.2,2.3-0.2a0.8,0.8,0,0,1,.3.7c-0.1.8-.2,1.7-0.3,2.5s-1.4,4.3-3.5,5.1-1.4,1.2-1.1,2.4a13.2,13.2,0,0,1,.3,2.9C36.4,148.6,36.4,150.2,36.4,151.4Zm-0.8,7.7-0.5.3-1,.2,0.5-.8a5.4,5.4,0,0,0,1-2c0.1-2.5,0-5-.1-7.5a0.9,0.9,0,0,0-.4-0.6c-3.2-2.3-6-4.8-7.2-8.8a8.9,8.9,0,0,1-.1-1.9,5,5,0,0,1,2-.1c1.4,0.6,2.7,1.4,4.1,2.2l0.6,0.3a2.4,2.4,0,0,0,.1-0.7l-1-6-0.6.5-6.2-5.3v0.4l-1.7,4.8a9.3,9.3,0,0,0-.9,2.8c0,3.7.3,7.3,0.3,11s-0.3,4.4-.4,6.6,0,2.6,0,4,0,2.3,0,3.5a29.2,29.2,0,0,0,1.1-4.6,2.2,2.2,0,0,1,2.6-2.1l0.4-.2a0.3,0.3,0,0,0,0-.3c-1.6-.9-1.3-2.1-0.4-3.3s2.1-3.5,4.5-3.1c0.8,0.1,1.5,1.1,2.2,1.6a14.1,14.1,0,0,0-2,2.6c-0.5,1.1-1.2,2.6-.9,3.6s1.8,2.9,2.7,4.3a21.2,21.2,0,0,1,1.1,2.4l0.5-.2v-3.7ZM22.3,45.1v1a34.7,34.7,0,0,0,.8,4,6.3,6.3,0,0,0,1.3,1.8l0.4-.2c0.6-3.7,1.1-7.3,1.9-11s1.5-5.5,2.2-8.3a1.2,1.2,0,0,0-.2-1,63.5,63.5,0,0,1-5.7-5.1c-1.2-1.4-1.8-3.3-2.7-5a16.8,16.8,0,0,0-.8-1.6,1.8,1.8,0,0,0-.9.5,26,26,0,0,0-2.4,3.4c-0.6,1.1-1.5,2.6-1.2,3.4,1.5,3.9,3.4,7.6,5.1,11.4l2.2,5h0.3l-2-5.8c1.4,3.2,2.7,6.5,3.9,9.8a2.9,2.9,0,0,1-.2,1.3,5.6,5.6,0,0,1-.8-0.9C23.2,47,22.9,46.3,22.3,45.1ZM21.2,79.4l1-.3-2.6-2.5h-4L13.8,76l-1.1-.6a2.6,2.6,0,0,0-.4,1c0.1,2.7.2,5.5,0.3,8.2a0.6,0.6,0,0,0,.2.4l0.5-.2a1.7,1.7,0,0,1,.7-0.4l5.2,0.8a1.5,1.5,0,0,1,.5.4,1.9,1.9,0,0,1-.8.3l-2.6-.4c-1.1-.1-2.7-0.5-3.2,0a4.3,4.3,0,0,0-.7,3.4c0.3,1.4-1.7,3.5,1,4.2s3,0.2,4.5.6a8,8,0,0,1,2.2,1.4l0.7,0.4a1.9,1.9,0,0,0,.3-0.7Q21.2,87.2,21.2,79.4ZM99,9.9l3,7a34.5,34.5,0,0,0,.7-5.5,1.1,1.1,0,0,1,.5-0.7,0.7,0.7,0,0,1,.6.3c0.3,1,.6,2.1.9,3.1l2,7.1a1.3,1.3,0,0,0,.6.3,1.7,1.7,0,0,0,.2-0.6c-0.3-2.8-.7-5.5-0.9-8.3a5.6,5.6,0,0,1,.8-2.1,1.8,1.8,0,0,1,.8.5c0.4,1.7.8,3.4,1.2,5.1s0.7,2.4,1.3,4.2a14.5,14.5,0,0,0,.2-1.5c-0.1-2.1-.2-4.3-0.3-6.4a0.8,0.8,0,0,1,.4-0.6,1,1,0,0,1,.8.3c0.4,1.1.6,2.3,0.9,3.4l1.3,4.5a0.9,0.9,0,0,0,.3-0.8c-0.1-1.6-.1-3.2-0.1-4.8a1.2,1.2,0,0,1,.6-0.7,0.7,0.7,0,0,1,.6.1,19,19,0,0,1,.9,2.3l1.4,4.8a1.6,1.6,0,0,0,.6.5,3.1,3.1,0,0,0,.1-0.7,12.1,12.1,0,0,1,0-2.7,6.2,6.2,0,0,1,1.2-1.8,5.5,5.5,0,0,1,1.1,1.1l2.8,5.4a1.1,1.1,0,0,0,.8.1,0.9,0.9,0,0,0,.2-0.6c-0.1-.9-0.2-1.8-0.3-2.7s0.5-2.4.1-2.8a28.8,28.8,0,0,0-6.8-5c-2.7-1.2-5.8-1.6-8.8-2.3S102.3,8.3,99,9.9ZM12.9,100.4v-0.3l0.2-1L14,99.5l1.9,0.3c0.5,0,1-.2,1.5-0.1l3.1,0.6a1.4,1.4,0,0,0,.6-0.3c-0.7-1.1,1.3-3.2-1.2-3.7-1-.2-1.4-2.4-3-0.9H16.6a15.2,15.2,0,0,0-2.6-1,1.6,1.6,0,0,0-1.4.6,10.9,10.9,0,0,0-.2,2.7L12,104.3l1.7,0.8a10.9,10.9,0,0,0,1.7.9c1.6-2.2,2.8-.2,4.2.2l1.4,0.5a12.8,12.8,0,0,0,.2-1.3c0-.9-0.1-1.8,0-2.7s-0.2-1.7-1.4-1.5-1.6.4-1.9,0.1S14.5,101.4,12.9,100.4Zm66-68.3-0.4-.9h0.9l1.7-.6a6.8,6.8,0,0,1,.9-0.6,6.6,6.6,0,0,1,6.8,2.7,2.1,2.1,0,0,0,1.5.4,1,1,0,0,0,.6-0.7c0.2-1.4.3-2.9,0.3-4.3a1,1,0,0,0-.6-0.7l-6.1.4L73,28.6a8.2,8.2,0,0,0-1.9.7,56,56,0,0,0,2.8,5.1c0.2,0.3,1.4-.1,2.2-0.2l-0.7-1.1-0.2-.5a2.6,2.6,0,0,1,1.1-.6h2.7ZM12,104.8c-0.2,2.7-.3,5-0.4,7.3a0.5,0.5,0,0,0,.3.4l3.1,0.3h3.6c0.8,0,2.1-.1,2.2-0.4a42.1,42.1,0,0,0,.6-4.9,7,7,0,0,1-1.7-.2L16.9,106a2.3,2.3,0,0,0-.9.4,2.8,2.8,0,0,1-1.5.4A16.1,16.1,0,0,1,12,104.8Zm17.7-4.2a11.6,11.6,0,0,0,.6-2.2c0.4-5.1.7-10.2,0.9-15.4a2.4,2.4,0,0,0-.3-0.9,2.4,2.4,0,0,0-1,.7,91.7,91.7,0,0,0-2.5,9.8C27,95.6,26.3,98.8,29.8,100.7Zm-5.4,30.7c2.1-2.4.5-5.3,2-8s1.5-6.4,2.2-9.6a4,4,0,0,0-1.3-4.3,0.9,0.9,0,0,0-.7,0c-0.6,3.3-1.4,6.7-1.7,10.1s0.1,5.4,0,8.2A34.2,34.2,0,0,1,24.4,131.4Zm-2.3-57a0.8,0.8,0,0,0-.3-0.3c-2.1-.9-4.2-1.7-6.2-2.7A21.7,21.7,0,0,1,12.5,69l-0.6,2.5h0c0.3,1.1.3,2.6,1,3.1s2.9,0.9,4.4,1.3a2.2,2.2,0,0,0,1.4.1c0.8-.9,1.3-0.9,1.9.2a2.5,2.5,0,0,0,1.2.7,0.9,0.9,0,0,0,.3-0.5C22.1,75.8,22.1,75.2,22.1,74.4ZM90.2,43c0.7,1.6.5,3.7,3.1,3.2a1,1,0,0,0,.6-0.7c-0.7-2.4-1.4-4.7-2.2-7a25.1,25.1,0,0,0-1.3-2.8l-0.6,1.8a2.7,2.7,0,0,0,0,.6L89,36.6c-0.5.7-1.5,1.5-1.4,2.1a59.8,59.8,0,0,0,2,6.6,1.5,1.5,0,0,0,.6.5c0-.2,0-0.4,0-0.6S90.2,43.7,90.2,43ZM46.6,178.4c-0.6,2.5-1.2,4.9-1.6,7.4a2.4,2.4,0,0,0,.5,1.8c3.5,0.5,6.3-2.8,7-5.9a0.5,0.5,0,0,0-.3-0.4c-1.7-.5-4.7,1.1-5.2,2.8a2.1,2.1,0,0,1-.6.8l-0.4-.2a2.3,2.3,0,0,1,.2-1.1l1.3-1.8ZM36.3,45.6c0.5,2.1.9,3.8,1.5,5.4A2.6,2.6,0,0,0,39,52.5c1.1-.4,3.7.1,1.9-2.5h0l-3.7-9.1a2.9,2.9,0,0,0-.9-0.8,3.2,3.2,0,0,0-.4,1.1C36,42.8,36.2,44.4,36.3,45.6Zm4.7-22.2H40.9a12.4,12.4,0,0,1,.5,2,7.7,7.7,0,0,1-.2,1.7l-1.3-.3-1-.6a6.4,6.4,0,0,1,.3,1.3c0,0.7-.1,1.5-0.1,2.2a6.7,6.7,0,0,1-1.6-.8,27.2,27.2,0,0,1-2-2.2,9.4,9.4,0,0,1,.7,2.1c0.1,1.8,1.3,1.5,2.4,1.4l2.4-.2,5.8-1.1-4.4-8.4a7.7,7.7,0,0,0,.1,1c0.5,1.7,1.1,3.4,1.6,5.1a3,3,0,0,1-.3,1.3,3.4,3.4,0,0,1-.9-0.8C42.3,26,41.7,24.7,41.1,23.4Zm-6.1,120H35c-0.1-.6-0.1-1.5-0.5-1.8a18.3,18.3,0,0,0-3.5-2.2,5.4,5.4,0,0,0-1.9-.2,5.2,5.2,0,0,0,0,1c0.6,3.4,3.3,5.3,5.7,7.3h0.4a1,1,0,0,0,.1-0.5ZM38,190.8l2.3,4.8a0.7,0.7,0,0,0,.6,0c1.9-2.9,1-5.6-.6-8.3-0.3-.5-1.1-0.6-1.7-0.8a6.4,6.4,0,0,0-.4,1.2C38.1,188.7,38.1,189.7,38,190.8Zm24.2,6.3,0.3,0.7,12.7-5.5-1.3-2.5-1.7.8,0.8,0.9H71.5l-4.7,2.6ZM36.5,155l0.3,2.1a8.3,8.3,0,0,0,1.5-1,13.5,13.5,0,0,0,2.1-2.5,20.6,20.6,0,0,0,1.7-3.8,2.7,2.7,0,0,0-.5-1.3C38.3,149.7,37.2,152.4,36.5,155ZM93.3,14.9H92.6c0.2,2.1.5,4.2,0.7,6.4a12.1,12.1,0,0,1,0,1.3,2.8,2.8,0,0,1-1-.8c-0.8-2.1-1.5-4.2-2.2-6.3l-0.3-.4a1.5,1.5,0,0,0-.2.5c0.1,1.6.1,3.1,0.3,4.7s0.4,2.8.9,2.9,2.8,0,4.3-.1c-0.1-.7-0.2-1.4-0.3-2.1ZM50.9,189.8a2.5,2.5,0,0,0-.5-0.8,1.4,1.4,0,0,0-1,.5c-0.6,2.1-1.1,4.2-1.8,6.3a2.8,2.8,0,0,1-1.3,1.1,2.5,2.5,0,0,1-.8-0.4,2.1,2.1,0,0,0-.9-0.3l-1.7.3c0-.5.1-1,0.1-1.5s-0.1-.9-0.1-1.4a2.7,2.7,0,0,0-.8.9c-0.2.7-.5,2-0.2,2.2,3.1,1.7,6.5.9,8.2-2.1C50.9,193.3,50.6,191.5,50.9,189.8Zm-16-51c0.6,1.2,1.1,2.5,1.3,2.4,2.5-.6,4.2-4,3.7-6.5a1,1,0,0,0-.6-0.4Zm30.8,51-0.5-.4c1-1.2,2-2.4,2.9-3.7a3.2,3.2,0,0,0,.2-1.6,1.3,1.3,0,0,0-.3-0.5,3.3,3.3,0,0,0-.8.5c-1.8,2.2-3.4,4.6-3.4,7.6,0,0.5-.1.9-0.1,1.4a4.7,4.7,0,0,0,1.6-.9c0.9-1.3,1.6-2.7,2.4-4l-0.6-.4Zm-38.7-12h0a60,60,0,0,0,1.4-7c0.1-.7-1.1-1.6-1.6-2.4a6,6,0,0,0-.7,1.6,34.6,34.6,0,0,0-.4,5.6C25.6,176.2,26.5,177,26.9,177.7Zm12.7-2.5c-4,1-4,4.6-5.2,7.5C37.1,182.3,40.3,177.8,39.6,175.3ZM108.4,21.8c2.7,0.4,1.8-.6,1.4-1.8s-1.3-5-2-7.6a1.7,1.7,0,0,0-.4-0.5,1.6,1.6,0,0,0-.3.6c0.2,2.5.4,5,.7,7.5A7.7,7.7,0,0,0,108.4,21.8ZM33.6,131.9l-2.2-2.7c-0.9-1.1-1.9-2.2-2.9-3.3a2.1,2.1,0,0,0-1.3-.2,1.1,1.1,0,0,0-.1.8c1.4,2.2,2.4,4.8,5.3,5.7A4.5,4.5,0,0,0,33.6,131.9Zm34.5-106,3.2-.7a1.1,1.1,0,0,0,.5-0.9c-0.4-1.3-.9-2.5-1.5-3.7a3.2,3.2,0,0,0-.7-0.7,2.2,2.2,0,0,0-.2.9c0.2,0.8.6,1.6,0.8,2.4a1.7,1.7,0,0,1-.3.8,1.6,1.6,0,0,1-.7-0.4l-1.9-4.6a3.9,3.9,0,0,0-.6-0.8Zm14.6-6.7a0.4,0.4,0,0,1,.2.3,36.9,36.9,0,0,0,.8,3.8c0.1,0.3.9,0.4,1.4,0.6a2.3,2.3,0,0,0,.2-0.9c-0.3-1.6-.7-3.2-1.1-4.9s-0.7-2.5-1.1-3.7H82.7v4.8Zm20.9-7.1h-0.5a32.3,32.3,0,0,0,0,3.7,42,42,0,0,0,1,5.5c0.1,0.3,1.1.3,1.7,0.4a4.5,4.5,0,0,0,0-1l-0.9-3.3ZM57.7,189.6l-3.3,1.8a2.8,2.8,0,0,0-.6,1.1,3.9,3.9,0,0,0,1.5.4l4.8-.9a2.2,2.2,0,0,0,.7-0.9Zm-26-12,1.1,2.2a1,1,0,0,0,.7.5,0.8,0.8,0,0,0,.5-0.6c-0.2-2.1-.3-4.1-0.6-6.2a2.1,2.1,0,0,0-.8-0.7,2.8,2.8,0,0,0-.8,1.1C31.6,174.9,31.7,176,31.7,177.6Zm46.2,5.4c-2.1,1-3.9,1.9-5.6,2.9s-2,1-.1,1.6a11.5,11.5,0,0,0,1.6-.2C75.1,187.5,77.9,185,77.9,183.1Zm-22.5,5.8c2.1-2.3,4.6-4.2,2.7-7.9C57.3,180.6,55.7,184.7,55.4,188.9ZM122.6,23.3l-2.8-5.9a0.6,0.6,0,0,0-.5-0.3,0.6,0.6,0,0,0-.4.5,29.4,29.4,0,0,0-.2,3.3,2.4,2.4,0,0,0,.5,1.7A16,16,0,0,0,122.6,23.3ZM87.2,15.5H86.4c0.1,2,.2,4.1.3,6.1a2.1,2.1,0,0,0,.7,1.5,3.9,3.9,0,0,0,1.7,0l-0.3-1.6c-0.1-.6-0.2-1.2-0.4-1.7ZM43.3,161.1a5.1,5.1,0,0,0-1.4-.4c-1.6.4-4.1,3.4-4.1,5.1a1.6,1.6,0,0,0,.5.6ZM95.4,19.8l0.9,2.5a0.6,0.6,0,0,0,.5.3,0.8,0.8,0,0,0,.4-0.6c-0.4-2.6-.7-5.2-1.1-7.8a1.6,1.6,0,0,0-.3-0.5,1.4,1.4,0,0,0-.3.5C95.3,16,95.4,17.7,95.4,19.8Zm16-6.5h-0.5l0.3,3.7a21.9,21.9,0,0,0,.5,4.1c0.1,0.4,1.4.4,2.2,0.5a10.8,10.8,0,0,0-.2-1.1l-0.9-2.5Zm-35,11.4h0.8a2.8,2.8,0,0,0,.8-1.3c-0.6-2.4-1.3-4.8-1.9-7.3a1.3,1.3,0,0,0-.4-0.4,1.4,1.4,0,0,0-.2.5c0.1,2,.3,3.9.5,5.9A21.8,21.8,0,0,0,76.3,24.8Zm3.4-2a4.2,4.2,0,0,0,1.1,1.2,1.7,1.7,0,0,0,1.1-.4c-0.4-2.3-1-4.6-1.5-6.9a1.3,1.3,0,0,0-.5-0.4,1.9,1.9,0,0,0-.2.6C79.7,18.8,79.7,20.8,79.7,22.8Zm35.5-.9,1.9,0.4a0.6,0.6,0,0,0,.4-0.3l-2.2-6.6a1.3,1.3,0,0,0-.4-0.4,1.1,1.1,0,0,0-.3.4,18.8,18.8,0,0,0,0,2.5C114.7,19.1,114.9,20.4,115.2,21.9ZM74.7,24.6l-2.2-8.4a1.2,1.2,0,0,0-.5,1.1,44.3,44.3,0,0,0,.6,5.3C72.9,23.6,72.7,25.3,74.7,24.6Zm52.9-1.6a1.2,1.2,0,0,0,.1-0.6,12.5,12.5,0,0,0-1-2.4,18.2,18.2,0,0,0-1.8-2.1,3.8,3.8,0,0,0-.3,1.7C125.2,21.1,124.2,23.6,127.6,23.1ZM33.4,49.7H33.2a17.3,17.3,0,0,0,1.1,3c0.2,0.3,1.1.2,1.7,0.3a0.8,0.8,0,0,0,.2-0.6l-2.7-5.8-0.4-.4a1.3,1.3,0,0,0-.2.5C33,47.7,33.2,48.7,33.4,49.7Zm-21-14.6-0.7.3L16.4,45l0.9-.4ZM29.4,188l2.7-5.3C29,183,27.6,185.3,29.4,188ZM78,46.1a1,1,0,0,0,.4.5,5.8,5.8,0,0,0,1.5-.1,0.6,0.6,0,0,0,0-.4c-0.5-1.7-1.1-3.4-1.6-5.2a3.9,3.9,0,0,0-.7-0.9,3.4,3.4,0,0,0-.3,1.1C77.5,42.7,77.7,44.2,78,46.1ZM27.3,188.8l1.1-.5-2.6-5.1a0.6,0.6,0,0,0-.6-0.1,0.6,0.6,0,0,0-.3.5ZM64.6,183L59,186.9l-0.3.4,0.5,0.2C60.5,187.7,64.3,185,64.6,183Zm20.2,15.1c-0.8.1-2.1-.2-2.4,0.3s-1.3.4-1.6-.7l-1.1,2.4h4.9ZM74.6,47.2a1,1,0,0,0,.4.4,1,1,0,0,0,.8,0,0.8,0.8,0,0,0,.1-0.7q-0.7-2.6-1.5-5.1a1.8,1.8,0,0,0-.5-0.5,3.2,3.2,0,0,0-.1,1C74,43.7,74.3,45.2,74.6,47.2ZM20.5,133.3c0-.5,0-1.3,0-2.1a0.5,0.5,0,0,0-.1-0.3H19.9l-4.6,1.5Zm9.1,22.4-0.8.6,3.7,5.1,0.7-.5ZM70.3,42.6H69.9c0.3,1.7.6,3.4,1,5.1a3,3,0,0,0,1.3.3,2.7,2.7,0,0,0,0-.7l-0.8-2.2Zm30.8-20.7h1.3a1.1,1.1,0,0,0,.7-0.5c-0.3-1-.6-1.9-1-2.8l-0.4-.5a1.5,1.5,0,0,0-.3.5C101.2,19.7,101.2,20.8,101.1,21.9ZM97.6,191.1H97.5a26.1,26.1,0,0,0-2.1,3.7c-0.3.6,0.2,1.6,0.3,2.3h0.6a0.6,0.6,0,0,0,.1-0.5,3.9,3.9,0,0,1-.1-1.2C96.7,193.8,97.2,192.4,97.6,191.1Zm-40.5,8.3V200a34.2,34.2,0,0,0,3.9-.1c0.3,0,.5-0.9.7-1.4l-0.3-.2Zm13.3-15.7a2.5,2.5,0,0,0-.9.7A19,19,0,0,0,69,187a2.2,2.2,0,0,0,.1.7l0.5-.5,1.4-1.8,0.7-.7Zm-40.9,9.7a17.8,17.8,0,0,0-1.1-2.2,6.2,6.2,0,0,0-1.2-1.1l0.2,2.7Zm36,0.4,4.7-2.4a1.9,1.9,0,0,0-.1-1.1,0.3,0.3,0,0,0-.2-0.2ZM38,182.8l-0.6-.9-2.2,1.6h2.2A1.9,1.9,0,0,0,38,182.8Zm32.2,17.5-2.4-1.6-0.8,1.9ZM65,22.2H64.8c0.3,1.2.7,2.4,1.1,3.6a2.5,2.5,0,0,0,.9,0ZM82.4,184.1H82.1l-1.5,2.9a0.6,0.6,0,0,0,.1.6h0.5Zm-40.7-6.9-0.8-.4-1.1,1.9,0.3,0.2Zm-17.5,8.3H23.8c0.1,0.8.3,1.5,0.4,2.3h0.9Zm41.7,15.3,0.3-.7-1.6-.7-0.4.8ZM49.3,23.3l0.5-.2-1.3-3.3-0.4.2Zm14,0.6-0.3,2.2,1.3,0.2ZM37.4,186.2H36.9l-0.7,2.9h0.6Zm43.7,6.1h0.3l1.7-4.2H82.9ZM82.6,23.6h0.3c-0.1-1-.2-2-0.4-3a1.4,1.4,0,0,0-.3-0.5,1,1,0,0,0-.3.4C82.2,21.5,82.4,22.6,82.6,23.6Zm6.9,163.3H89.3l-2.1,3.9,0.4,0.2ZM55.3,197.2l0.3,0.5,1.6-.7a2,2,0,0,0-.9-0.6A3.6,3.6,0,0,0,55.3,197.2Zm-18-3.9h0.5l-0.5-2.6H36.9ZM11.4,37.6l-0.6.2,1,2.6h0.4ZM34.8,174.1a8.8,8.8,0,0,0,.1-1.8,1.4,1.4,0,0,0-.8-0.5,0.7,0.7,0,0,0-.3.4ZM29.5,191l0.6,0.4,0.9-2.1H30.7Zm42.4-6.5,2.8-1.2a3.1,3.1,0,0,0-2,.2A3.8,3.8,0,0,0,71.8,184.5ZM43,187.6l-0.2-.2a2,2,0,0,0-.8.7,5.7,5.7,0,0,0,.4,1.5h0.3c0.1-.5.1-0.9,0.1-1.7H43Zm39.5-52v-0.4l-3.1-.6v0.4Zm9.3,55.6,1.3-2.4a0.5,0.5,0,0,0-.1-0.3l-0.8,1.1-0.6.8a1.7,1.7,0,0,0-.2.6ZM87.6,197H88l0.6-3.2H88.4Zm-13.2-3.9-0.3-.2-1,1.6a0.8,0.8,0,0,0,.2.5h0.3ZM14.2,42.8l0.3-.2-1.7-3.4H12.5ZM56.6,189.2A5.3,5.3,0,0,0,58,189a1.9,1.9,0,0,0,.6-0.8,0.4,0.4,0,0,0-.1-0.3H58Zm35.7,8.6-0.4-.5-1.2,1.1,0.4,0.2Zm3.3-15H95.2l-1.1,2.5,0.4,0.2ZM26,107.2H25.4l-0.2,2.3h0.4ZM20.7,47.8a6.6,6.6,0,0,0,.3,1.4l0.9,1.3,0.4-.4ZM46.8,191.1H47a3.5,3.5,0,0,0,.7-0.7,2.9,2.9,0,0,0,.3-1H47.7Zm46.7,6.6,0.4,0.5,0.7-1.1-0.3-.4ZM59,196.3l0.2,0.4,1.7-.7-0.3-.4ZM39.3,180.1H39l-1.2,1.4a2.1,2.1,0,0,0,1,0A5.7,5.7,0,0,0,39.3,180.1Zm54.4,2.8,0.7-1.1-0.5-.3a3.7,3.7,0,0,0-.6.9A1.8,1.8,0,0,0,93.7,182.9Zm-58.3-5.8h0.3l0.6-1.2-0.7-.3ZM19.8,40.3l-0.4.2,0.9,2.1h0.4ZM60.9,183.9v-0.3l-1.4.7a2.1,2.1,0,0,0-.2.9Zm2.6-.9v-0.3H61.8l-0.3.3a0.4,0.4,0,0,0,.2.3Zm14.8,17-0.6-1.5a1.2,1.2,0,0,0-.3.5,3.9,3.9,0,0,0,.5,1.1h0.5ZM61.7,25.8l0.2-.2-1.2-1.8-0.3.3ZM44.2,189.3H43.7l-0.4,1.9h0.3Zm-11.2,4a2.8,2.8,0,0,0-.3,1,0.9,0.9,0,0,0,.5.4l0.4-.3Zm51-3.1-1.1,2.1a1.1,1.1,0,0,0,.1.5,1,1,0,0,0,.4-0.3C83.6,192,83.7,191.3,84,190.3Zm-45.7,3.8H37.8c0.1,0.5.1,1,.2,1.4h0.3v-1.5ZM27.6,178.8l1.5-1.9a3.2,3.2,0,0,0-1.2.4A4.8,4.8,0,0,0,27.6,178.8Zm32.9,14.2H58.6l0.6,0.8Zm5.1-9.9,0.4,0.2,0.5-1.2H66A7.3,7.3,0,0,0,65.5,183.1ZM39.6,186l0.3-.3-0.8-.9-0.2.3Zm4.8-52.8-0.9-.7-0.2.3,0.7,0.8Zm7.4,59.3,0.2,0.3,1.1-1-0.2-.2Zm34.6,0h0.3l0.7-1.6H87.2ZM75.7,182.4l0.7,0.7,1-1-0.7-.7Zm16.1,0h0.4l0.4-1.1H92.2ZM86.6,33.7l0.5-.4-0.6-.5a1.4,1.4,0,0,0-.4.4Zm-15.3,162v-0.3l-1.7,1v0.2ZM10.9,39.9H10.6a3.1,3.1,0,0,0,.2.8h0.6ZM90,188.7H89.8L89,190.4h0.1ZM75.8,199.3H75.4l-0.2,1h0.4C75.7,200,75.7,199.6,75.8,199.3Zm-0.8-10.8,0.3,0.2,0.7-1-0.3-.2ZM128,21.1l-0.3.2,0.7,1,0.2-.2ZM87.7,199.6l0.3,0.2,0.6-1.1H88.4Zm3.5-7.2H90.9l-0.6,1.6h0.3ZM25.9,165.1h0.3v-1.4H26.1v1.4Zm7.2,17h0.3a3.9,3.9,0,0,0-.1-0.7H32.9Zm0.6,10.4h0.4l-0.4-1H33.5ZM83.9,31.3V31.1H82.7v0.3h1.2ZM18.4,46l-0.3.2L19,47.3h0.2ZM83.1,34v0.3l1.3-.2V33.9H83.1ZM55.3,194a1.7,1.7,0,0,0,.7.3,2.6,2.6,0,0,0,.6-0.7Zm12.8,3.3-1.4-.4-0.2.4h1.6ZM79,34.8V34.5H77.9v0.3H79ZM63.1,199.4H62.8c0,0.3-.1.6-0.1,0.8H63v-0.9ZM37.3,171.9l0.3-.2-0.4-.9H36.9Zm15.2,4.4v-0.3H51.3v0.3h1.2Zm-3.1,21.9v-0.4H48.4V198Zm1.6,0.2v-0.4H50.3v0.3H51ZM52.4,180v0.3h0.6v-0.5H52.4Zm1.2,10.4h0.3l0.4-1H54.1Zm-23.8,4.1,0.2-.2-0.7-.6-0.2.2Zm52-13v0.2h0.9v-0.2H81.9ZM89.2,20.6h0.2V19.6H89ZM73.5,180.4l-0.6-.2-0.2.3,0.4,0.2ZM21.9,43.9l-0.2.2,0.5,0.7h0.2Z" transform="translate(-3.2 -5.2)"/><path d="M55.1,124.7c4.8-2,9.1-5.4,14.8-4.2a14.6,14.6,0,0,1,0,2.4c-0.2,1.3-3.2,2.4-4.6,1.9s-3.3-1.6-4.9-1.4a10.4,10.4,0,0,0-4.8,2.4c-1,.7-1.4,2.1-2.2,3.4v-1.6l-1.1.8c0.8-1.4,1.4-2.4,1.9-3.5,1.8-4,3.5-8,5.2-12a3.7,3.7,0,0,0-.6-1.1,10.7,10.7,0,0,1,.5-9.1c0.4-.8,1.6-1.1,2.3-1.6l1.1,3.5v0.5l0.2,1.6,1.2-1.6a56.8,56.8,0,0,1,4.9-5.9c1.5-1.4,1.6.5,1.7,1.3s-1,3.2-2.7,4.1a13.6,13.6,0,0,0-4.6,3.5,75.2,75.2,0,0,0-4.6,8.3,5.2,5.2,0,0,0-.2.8l3.6-2,5.7-3.9a8.6,8.6,0,0,1,1.1-1,1.9,1.9,0,0,1,1.1.3l0.6,0.3,1.9,0.3a7.5,7.5,0,0,1-.8,2.1c-1.7,2.2-4,3.9-6.6,3s-3.7.6-5.4,1.3-2.4,3.3-3.5,5A10.2,10.2,0,0,0,55.1,124.7ZM62,106.1c-0.4-1.4-.7-2.4-1.1-3.4a1,1,0,0,0-.8,0,9,9,0,0,0-.9,7.8,1.6,1.6,0,0,0,.6.6l0.3-.2Zm2.8,9.3a6.6,6.6,0,0,0,5.7-3,1.5,1.5,0,0,0,0-.8c-1.5.3-2.9,0.4-4.4,0.8a3.6,3.6,0,0,0-1.5,1.1,2,2,0,0,0-.5,1.3A1.4,1.4,0,0,0,64.8,115.4Zm2.2,5L62,122.2a1.1,1.1,0,0,0,0,.6,27.9,27.9,0,0,0,4.9.9c0.6,0,1.2-1,1.8-1.6Zm-1.7-16.1,0.4,0.5c1.3-1,2.5-2,3.7-3.2a2.4,2.4,0,0,0,.1-1.3,4.3,4.3,0,0,0-1.4.6C67,102.1,66.1,103.3,65.2,104.4Z" transform="translate(-3.2 -5.2)"/><path d="M76,155.9c-0.2,1.3.1,3.1-.7,3.8a15.2,15.2,0,0,1-5.8,3.8,9.7,9.7,0,0,1-6.3-.4,21.7,21.7,0,0,1-6.9-5,19.7,19.7,0,0,1-3.9-6.9,22.1,22.1,0,0,1-.7-7.4c0-.7,1.5-1.7,2.4-1.9a18.1,18.1,0,0,1,6.2-.1c1.6,0.3,2.9,1.6,4.4,2.5a18,18,0,0,1,2.6,1.4c1.3,1.1,2.5,2.3,3.7,3.5a31.7,31.7,0,0,1,3,3.3A29.6,29.6,0,0,1,76,155.9Zm-0.9.7a40,40,0,0,0-3-4.4,35.2,35.2,0,0,0-5.9-5.9c-2.7-1.9-5.3-4.2-9.1-4.1-1.6.1-4.3,1.3-4.5,2.5-0.5,3.6.7,6.8,2.5,9.6a30.4,30.4,0,0,0,6.1,6.5c2.7,2.3,7.8,2.5,10.7.8A5.6,5.6,0,0,0,75,156.6Z" transform="translate(-3.2 -5.2)"/><path d="M45.2,80.2c-0.6.7-1.7,2-2.7,3.4a2.2,2.2,0,0,0-.4,1.8c0.9,1.5,2.1,2.8,3.1,4.3a2,2,0,0,1,.3.9,0.6,0.6,0,0,1-.4.3,2,2,0,0,1-1.2-.5c-1.2-1.9-2.3-3.9-3.5-5.9a2.3,2.3,0,0,0-.6-0.5,2.9,2.9,0,0,0-.2.7c-0.2,2-.3,4-0.5,5.9a1.6,1.6,0,0,1-.6.6,2.9,2.9,0,0,1-.5-1.1c0.1-2.2.5-4.4,0.5-6.6a45.1,45.1,0,0,0-.3-6.1c-0.2-2.1,1.6-1.7,2.5-2S45.2,76.8,45.2,80.2Zm-6.2,1c0.7,0.5,1.2,1.4,2,1.6s3-1.7,2.9-3.4a2.6,2.6,0,0,0-3-2.6C38.1,77,39.4,79.1,38.9,81.2Z" transform="translate(-3.2 -5.2)"/><path d="M52.2,125.6c-0.4-2.6-.8-4.6-1.1-6.6a0.8,0.8,0,0,0-.5-0.4,6.3,6.3,0,0,1-4.3-5.6,1.8,1.8,0,0,0-.1-0.6l-0.7-.9a7.3,7.3,0,0,1,2.1.1c1,0.4,1.9,1,2.8,1.4a1.6,1.6,0,0,0,.9-0.9c0.6-2.6,1-5.2,1.8-7.7,0.3-1,1.4-1.7,2.2-2.5l0.3-.4,0.7-1c0.4,0.5,1.4,1.3,1.3,1.6-1,2.9-2.2,5.7-3.3,8.5a0.5,0.5,0,0,1-.3.3c-3.1-.4-1.9,2.4-1.9,3.2,0,3.6.6,7.2,0.9,10.8a2.4,2.4,0,0,1-.2.9H52.3A1.1,1.1,0,1,1,52.2,125.6Zm4.6-22.4-0.4-1.3H56.1a8.9,8.9,0,0,0-3.5,6.9,4.1,4.1,0,0,0,.1.9,2.5,2.5,0,0,0,1.2-.5C55,107.2,55.9,105.1,56.8,103.2Zm-5.9,11.1-3.3-1.8-0.3.3c-0.6,1.4,1.2,4.5,2.9,4.9a0.8,0.8,0,0,0,.6-0.2C50.9,116.7,50.9,115.8,50.9,114.3Z" transform="translate(-3.2 -5.2)"/><path d="M116.5,91l-3-1.1h-1.2c-1.2.2-3,1.1-3.5,0.6a5.1,5.1,0,0,1-1.1-3.8c0.3-2.1,1.3-4,3.8-4.2a5.9,5.9,0,0,1,3,.7c0.3,0.1,0,1.5-.2,2.2s-0.9,3.6,1.7,4.3a2.3,2.3,0,0,1,.7.6Zm-6.9-1.4c2.1,0,3-1.5,3.4-4s-0.6-2.7-2.1-1.9a5.6,5.6,0,0,0-2.2,3.2C108.5,87.8,109.3,88.8,109.6,89.6Z" transform="translate(-3.2 -5.2)"/><path d="M101.9,86.8c-0.1,2.8.4,3.2,2.2,2.5a3.2,3.2,0,0,1,1.5.3,3.3,3.3,0,0,1-.9.8c-3.1,1-4.3-.2-3.9-3.6s1.1-4.2,3.2-5.2a3.9,3.9,0,0,1,2.6.3,10.2,10.2,0,0,1-.4,4c-0.1.4-1.6,0.3-2.5,0.4Zm2.7-4.9-2,2.8c0.7,0.3,1.6.9,2.1,0.7s0.8-1.2.9-1.9S105.2,82.7,104.6,81.9Z" transform="translate(-3.2 -5.2)"/><path d="M60.6,86a34.2,34.2,0,0,1,2.8-4.5c0.3-.4,1.9-0.1,2.7.2a2,2,0,0,1,.9,1.7,9.4,9.4,0,0,1-2.5,2.6c-0.4.3-1.3-.2-1.9-0.3H61.9c0,0.8-.2,2.2.2,2.4a7.2,7.2,0,0,0,3.1.5,5.5,5.5,0,0,0,1.2-.5,1.3,1.3,0,0,1,.4.7,3.4,3.4,0,0,1-1.1,1C62.7,91.1,60.8,90,60.6,86Zm1.1-1.7c2.2,0.9,3.6,1.2,4.1-.7a2.3,2.3,0,0,0-.7-1.2Z" transform="translate(-3.2 -5.2)"/><path d="M84.4,86.2c0.6,0.8,1,2,1.7,2.2s1.8-.5,2.8-0.8l0.5-.2a2.2,2.2,0,0,1,.6.7,0.6,0.6,0,0,1-.2.6c-1.7.9-3.6,2.1-5.3,0.1a4.4,4.4,0,0,1-.1-5.4,9,9,0,0,1,3.4-2.8,2.6,2.6,0,0,1,2,1.3,5.1,5.1,0,0,1-1.1,3.1c-0.2.3-1.7-.3-2.5-0.6a1.6,1.6,0,0,1-.2-0.7l0.6,0.2h2l-0.3-2.1c-0.8.3-1.8,0.3-2.2,0.8A18.4,18.4,0,0,0,84.4,86.2Z" transform="translate(-3.2 -5.2)"/><path d="M74.2,84.4c0.2,3.8,2.4,5,5.2,3.5a2.6,2.6,0,0,1,1.2.1,2.3,2.3,0,0,1-.7.9,17.1,17.1,0,0,1-4.1.6c-1.7-.1-3.1-3.1-2.7-5.3a10.1,10.1,0,0,1,3.6-6.5,3.1,3.1,0,0,1,4.5.3,0.6,0.6,0,0,1,0,.6H80.7a4.2,4.2,0,0,0-5.6,2.6Z" transform="translate(-3.2 -5.2)"/><path d="M93.5,82.3a26,26,0,0,1,3.4-1.8,2.4,2.4,0,0,1,2,.4,7.5,7.5,0,0,1,1.5,2.3,3.1,3.1,0,0,1-.7.8,3.5,3.5,0,0,1-1-1.2c-0.4-1.7-1.5-1.3-2.4-.9s-2.6,3-2.8,5.1a18.2,18.2,0,0,1-.3,2.5,1.2,1.2,0,0,1-1.1.3,1.1,1.1,0,0,1-.5-0.9c0.1-1.9.3-3.8,0.5-5.7,0-.1-0.1-0.2-0.1-0.4l0.2-1.6Z" transform="translate(-3.2 -5.2)"/><path d="M59,88.2c-1.1,2.2-2.8,2.6-4.3,2.1a3.5,3.5,0,0,1-2.1-2.6A19.2,19.2,0,0,1,54,82a2.2,2.2,0,0,1,2-.8,5.4,5.4,0,0,1,1.9,1.5,0.6,0.6,0,0,1-.1.6,1,1,0,0,1-.8,0l-1.5-1c-0.6.9-1.6,1.7-1.7,2.7a9,9,0,0,0,.5,3.8,3.3,3.3,0,0,0,1.9.2A25.7,25.7,0,0,0,59,88.2Z" transform="translate(-3.2 -5.2)"/><path d="M117.7,88.9c0.8-3.5,1.5-7.1,2.3-10.6a1.6,1.6,0,0,1,.7-0.4,2,2,0,0,1,.2.7c-0.5,3.4-1.1,6.7-1.6,10.1a3.1,3.1,0,0,0,.6,1.3,2.6,2.6,0,0,1,.4,1,0.9,0.9,0,0,1-.6.6,2.6,2.6,0,0,1-1.2-.8,6.1,6.1,0,0,1-.5-1.7Z" transform="translate(-3.2 -5.2)"/><path d="M48.5,83.2c-0.2,2.2-.4,4.1-0.4,6.1a4.4,4.4,0,0,0,.9,1.7,1.3,1.3,0,0,1,.2.6,1.2,1.2,0,0,1-.8.4c-1.2-.2-2-2.3-1.7-3.5a39,39,0,0,0,.5-4.6,2.8,2.8,0,0,1,.7-1Z" transform="translate(-3.2 -5.2)"/><path d="M47.3,81.7a6.7,6.7,0,0,1-.5-2.1,1.5,1.5,0,0,1,1.2-1,1.9,1.9,0,0,1,1.3,1,8.2,8.2,0,0,1-1.1,2.2H47.3Z" transform="translate(-3.2 -5.2)"/><path d="M80.9,173.8l-4.4-.6a1.5,1.5,0,0,1-.5-0.6,1.9,1.9,0,0,1,.9-0.5A13.9,13.9,0,0,0,88,170.8a44.2,44.2,0,0,0,6.6-5.3c2.1-1.9,3.4-4.5,2.4-7.3a19.1,19.1,0,0,0-3.6-6.3c-1.8-2-4.1-3.5-6.2-5.3a1.5,1.5,0,0,1-.2-0.8,1.3,1.3,0,0,1,.7-0.1c1.7,1.2,3.6,2.1,4.9,3.6a28.3,28.3,0,0,1,5,6.9,7.7,7.7,0,0,1-1.7,9.1c-1.6,1.7-2.9,3.9-4.8,5s-6.1,2.3-9.2,3.4H80.9Z" transform="translate(-3.2 -5.2)"/><path d="M107.9,160.5c0.6,2.3-.9,5-2.6,8s-4.4,3.4-7,4.5L93.1,175H92.5a1.7,1.7,0,0,1,.2-0.8l3.6-1.7c1.9-.8,4.3-1.1,5.8-2.4s5-5.1,4.8-9.2-2.2-7.7-5.2-10.6l-0.2-.2-1.5-1.1c0.8,0.1,1.8-.1,2.3.3A14.9,14.9,0,0,1,107.9,160.5Z" transform="translate(-3.2 -5.2)"/><path d="M110.6,167.5c0.4-.8,1.1-1.7,1.1-2.5a53,53,0,0,0-1-9.3c-0.5-1.9-1.8-3.7-2.9-5.4a15.5,15.5,0,0,0-1.5-1.6,1.6,1.6,0,0,1,.2-0.8,2.5,2.5,0,0,1,.9.2c2.7,2.1,3.8,5.2,4.9,8.2a16,16,0,0,1,.6,4.8,15.7,15.7,0,0,1-.3,4.1,10.8,10.8,0,0,1-1.4,2.6Z" transform="translate(-3.2 -5.2)"/><path d="M45.6,159l-0.8-4.3a2,2,0,0,1,0-.9,4.7,4.7,0,0,1,.6-1l0.3,1.1c0.8,2.3,1.1,4.9,2.5,6.8s4.5,4.4,6.7,6.5a2.2,2.2,0,0,1,.3.8A2.3,2.3,0,0,1,54,168a67.5,67.5,0,0,1-5.2-4.7A43.2,43.2,0,0,1,45.6,159Z" transform="translate(-3.2 -5.2)"/><path d="M81.6,149.2c1.4,1,2.8,1.9,4,2.9s2.7,5.2,2.4,8.3-2.7,5-3.9,4.9l-0.5-.2,0.2-.4c1-1.4,2-2.7,2.9-4.1s0.1-5.9-1.6-7.5l-3.5-3a2.8,2.8,0,0,1-.4-0.6Z" transform="translate(-3.2 -5.2)"/><path d="M19.3,148.3c-1.1.6-2.4,1.8-3.4,1.7a22.6,22.6,0,0,1-7.2-2.6l2.2,0.8a5.5,5.5,0,0,1-1.4-1.3,2.3,2.3,0,0,1,.4-1.1c2.7,3.2,5.6,4.1,9.3,1.7v0.8Z" transform="translate(-3.2 -5.2)"/><path d="M16.2,141l-6.1-2.2a1.8,1.8,0,0,1-.1-0.8,1.5,1.5,0,0,1,.7-0.1c0.7,0.8,1.3,1.6,2.6.9s1.5,0.6,2.4.8a11.1,11.1,0,0,0,1.8,0l1.2,0.2a3.9,3.9,0,0,1-.8.7Z" transform="translate(-3.2 -5.2)"/><path d="M9.7,134.9l3.1,0.9,5.6,1.3a3.3,3.3,0,0,1,1,.6,0.5,0.5,0,0,1-.2.3,3.8,3.8,0,0,1-1.6.2c-1.2-.3-2.3-0.9-3.5-1.3l-4.6-1.4Z" transform="translate(-3.2 -5.2)"/><path d="M13.5,120.8l-1.3-.3a0.9,0.9,0,0,1,.2-0.3h4.5l3,0.2a0.9,0.9,0,0,1,0,.4,5.4,5.4,0,0,1-1.3.5l-2.9.3-0.6-.2-1.3-1Z" transform="translate(-3.2 -5.2)"/><path d="M11.7,143.2a17.1,17.1,0,0,0,2.5.5h4.6l0.7,0.2a2,2,0,0,1-.6.8,23.6,23.6,0,0,1-3.9-.1,26.6,26.6,0,0,1-3.4-1v-0.5Z" transform="translate(-3.2 -5.2)"/><path d="M15,127.8l-2.7-.8a1.2,1.2,0,0,1-.4-0.4l0.6-.2,4,0.2h0.4a1.1,1.1,0,0,1-.3.5Z" transform="translate(-3.2 -5.2)"/><path d="M45.9,44.1c0.6,1.9,1.3,3.8,1.9,5.7a1,1,0,0,1-.5.8,0.8,0.8,0,0,1-.7-0.3L43.2,44a7.5,7.5,0,0,1-.9-3L43.6,44l2.8,5.6h0.4A0.9,0.9,0,0,0,47,49l-1.2-4.1c-0.1-.3-0.1-0.5-0.2-0.8h0.2Z" transform="translate(-3.2 -5.2)"/><path d="M57.3,44.3l0.5,1H58l-0.6-2.6h0.2l1.9,5.9a1,1,0,0,1-.2.5l-0.4-.3L57,44.4h0.2Z" transform="translate(-3.2 -5.2)"/><path d="M52.7,43.9l2,4.4L55,48.6a1.7,1.7,0,0,0,.2-0.6,1.1,1.1,0,0,1,.1-0.9L56,49.8a2.8,2.8,0,0,1-1.2-.6c-0.8-1.7-1.5-3.4-2.3-5.2h0.2Z" transform="translate(-3.2 -5.2)"/><path d="M40.7,40.3l0.3-1,0.5,0.3,0.7,1.2Z" transform="translate(-3.2 -5.2)"/><path d="M41.7,44.8l0.7,2.8H42l-0.6-2.9h0.3Z" transform="translate(-3.2 -5.2)"/><path d="M46.9,40.6L45,38.8l0.2-.2,1.6,2h0Z" transform="translate(-3.2 -5.2)"/><path d="M48.5,43.9l1,2H49.2l-1-2h0.3Z" transform="translate(-3.2 -5.2)"/><path d="M46.9,40.6l1.6,2.8H48.1l-1.3-2.9h0Z" transform="translate(-3.2 -5.2)"/><path d="M54.9,46.7L54.7,45h0.2l0.4,1.6H54.9Z" transform="translate(-3.2 -5.2)"/><path d="M54,42.5l-0.3-2.3h0.2l0.4,2.3H54Z" transform="translate(-3.2 -5.2)"/><path d="M45.5,42v1.3H45.3V42h0.2Z" transform="translate(-3.2 -5.2)"/><path d="M49.6,42.5V41.5h0.2v1.1H49.6Z" transform="translate(-3.2 -5.2)"/><path d="M94,33.7l0.5-.7a9.3,9.3,0,0,1,1.2,1.7,33.2,33.2,0,0,1,1,3.2,1.3,1.3,0,0,1,0,.4L96.3,38l-1.5-3.9A2.3,2.3,0,0,0,94,33.7Z" transform="translate(-3.2 -5.2)"/><path d="M102.4,36.3l0.7,5.2h-0.2l-0.8-5.2h0.3Z" transform="translate(-3.2 -5.2)"/><path d="M125.9,40.4l-0.3-4.2h0.2l0.3,4.2h-0.2Z" transform="translate(-3.2 -5.2)"/><path d="M115.8,36.9L115.2,33h0.2l0.6,3.9h-0.2Z" transform="translate(-3.2 -5.2)"/><path d="M99.1,38.9l0.5,2.9H99.3l-0.5-2.9h0.3Z" transform="translate(-3.2 -5.2)"/><path d="M116.3,30L114.8,32l1-2.3Z" transform="translate(-3.2 -5.2)"/><path d="M94.4,40.7l-0.3-2.7h0.2l0.4,2.7H94.4Z" transform="translate(-3.2 -5.2)"/><path d="M116.5,40.1l-0.6-2.5h0.2l0.5,2.5h-0.2Z" transform="translate(-3.2 -5.2)"/><path d="M111.3,29.6l-1.2-.7,0.4-.5Z" transform="translate(-3.2 -5.2)"/><path d="M113.6,37.5l-0.9-2.3H113l0.6,2.4h0Z" transform="translate(-3.2 -5.2)"/><path d="M98.7,38.4l-0.2-2.2h0.1l0.3,2.2H98.7Z" transform="translate(-3.2 -5.2)"/><path d="M109.2,38.4l0.4,1.3h-0.2l-0.5-1.3h0.3Z" transform="translate(-3.2 -5.2)"/><path d="M94.1,36.3v1.4H94.1l-0.2-1.4h0.2Z" transform="translate(-3.2 -5.2)"/><path d="M118.5,36.5l-0.3-1.1h0.2l0.3,1.1h-0.2Z" transform="translate(-3.2 -5.2)"/><path d="M106.7,31.8l-0.7-.2V31.3l0.7,0.2v0.3Z" transform="translate(-3.2 -5.2)"/><path d="M50.6,19.6l0.5,2.9H50.9c-0.2-1.3-.4-2.6-0.5-3.9l0.5-.2a44.1,44.1,0,0,1,2.2,5.7l-1-2.3-1-2.3H50.6Z" transform="translate(-3.2 -5.2)"/><path d="M20.5,36.1l-1.7-3.7a1.2,1.2,0,0,1,.2-0.6,3.2,3.2,0,0,1,1.2.6,11.2,11.2,0,0,1,1,1.8,16.7,16.7,0,0,0-.7-2c-0.2-.4-0.7-0.8-0.9-1.2a6.5,6.5,0,0,1-.2-1.6l1.1,0.9h0l0.2-1.5a18.4,18.4,0,0,1,1.6,2.3c0.9,1.8,1.6,3.6,2.4,5.4a0.9,0.9,0,0,1,.1.6l-0.4.2a0.9,0.9,0,0,1-.5-0.4l-2.4-6.5a0.8,0.8,0,0,0-.9-0.3l2.2,5.9c0.7,1.9,1.5,3.8,2.1,5.7a7.8,7.8,0,0,1,0,2.4,0.5,0.5,0,0,1-.3.3,1,1,0,0,1-.5-0.4l-3-7.3Z" transform="translate(-3.2 -5.2)"/><path d="M14.7,79.3a44.8,44.8,0,0,1,4.7,1.4,5.9,5.9,0,0,1,1.7,1.7,0.7,0.7,0,0,1-.2.4l-1.4-.4a12.3,12.3,0,0,0-2-1.3,30.2,30.2,0,0,0-3.5-.6,0.9,0.9,0,0,1-.3-0.4Z" transform="translate(-3.2 -5.2)"/><path d="M20.7,91.1l-1.7.3-1.5-.3-3-1,0.3-.7L17,90.3V89.8l3.4,0.8v0.5Z" transform="translate(-3.2 -5.2)"/><path d="M18,86.1l1.1,0.3v0.2L18,86.4V86.1Z" transform="translate(-3.2 -5.2)"/><path d="M16.2,31.4l1.7,3.9H17.7l-1.7-4h0.2Z" transform="translate(-3.2 -5.2)"/><path d="M19.3,39.3l-0.8-2.1h0.3l0.5,2.2h0Z" transform="translate(-3.2 -5.2)"/><path d="M15.8,31.1L15.2,30h0.2L16,31H15.8Z" transform="translate(-3.2 -5.2)"/><path d="M89.9,41.8l-0.2-3.2h0.3l0.2,3.1H89.9Z" transform="translate(-3.2 -5.2)"/><path d="M65.7,156.3l1.2,0.5a1.1,1.1,0,0,1-.2.6,2.8,2.8,0,0,1-1.5,0,60.4,60.4,0,0,1-5.5-3.4c-1.3-1-1.8-4.9-.9-6.3a1.5,1.5,0,0,1,.7-0.2c0,0.2,0,.4,0,0.7a18.4,18.4,0,0,0,.1,3.3C60.1,153.7,63.2,156.4,65.7,156.3Z" transform="translate(-3.2 -5.2)"/><path d="M65.7,154.3c-1.9,0-4.2-2.3-4.1-4a0.6,0.6,0,0,1,.4-0.4,0.5,0.5,0,0,1,.5.2,4.3,4.3,0,0,0,3.6,3.2,1.4,1.4,0,0,1,.4.6Z" transform="translate(-3.2 -5.2)"/></svg>