<svg id="trowel_fruitsveg_Image" data-name="trowel(fruitsveg) Image" xmlns="http://www.w3.org/2000/svg" viewBox="0 0 264.3 110"><title>trowel(fruitsveg)</title><path d="M107,53.9l-0.8-.4V53.1a16,16,0,0,0,3.2.2l7.6-1.2a5.1,5.1,0,0,1,1.9.7h0.7a1.5,1.5,0,0,1,.8.4c0.7,2,1.1,4.1,1.9,6.1s2.3,4.8,3.5,7.2c0.4,0.8.9,1.5,1.4,2.2a0.6,0.6,0,0,1,0,.4h-0.7c-0.5,1.8,1.1,2,2.1,2.2a34.3,34.3,0,0,0,8.1.8c2.3-.2,4.6-1.3,6.9-2.1s4.5-1.3,6.7-2.1,3.2-1.4,4.7-2.1l3.6-1.7a24.3,24.3,0,0,1,.2-3.7c0.5-2.2,2.7-1.8,4.2-2.4a20.9,20.9,0,0,1,2.6-.6,1.9,1.9,0,0,0,.1-0.8c2.4,0.4,1.3-1.6,1.6-2.6a7.6,7.6,0,0,1,5.3-4.8l-1.3-.2a26.3,26.3,0,0,1,3.2-.9l12.2-1.5a34.2,34.2,0,0,0,6.8-1.3c2.8-1,5.5-2.5,8.3-3.8a21.9,21.9,0,0,0,2.5-1c1.8-1.1,3.3-2.7,5.2-3.5,4.1-1.7,8.3-3,12.4-4.6a47.6,47.6,0,0,0,4.5-2.5,58.2,58.2,0,0,1,6.5-3.2,83.4,83.4,0,0,1,9.9-3.1c3.2-.8,6.5-1.1,9.8-1.6l0.5,0.3-0.6.5,4.9,0.8V24l1.4,0.8,4.6,3.5a5.6,5.6,0,0,1,1.9,1.7,6.2,6.2,0,0,1,.1,2.6,6.3,6.3,0,0,0,0,2.2l1.1-1.7-0.4,2a2.5,2.5,0,0,0-1.2.2,10.9,10.9,0,0,0-.5,2l1.3-.4-2.6,2.7h-0.7c-3.4,2.2-6.7,4.6-10.2,6.6A74.4,74.4,0,0,1,242,51.2c-4.1,1.6-8.4,2.7-12.7,4l-14.7,4.6c-1.5.5-3.2,0.5-4.7,0.9a19.2,19.2,0,0,0-2.8,1.2h0.4a33.2,33.2,0,0,0-5.2,1.8c-2.5,1.3-4.8,3.2-7.3,4.5a80.9,80.9,0,0,1-9.4,4.4c-1.8.7-3.9,0.7-5.8,1a1.4,1.4,0,0,0-.6.4c-2.2-.3-4.4-0.2-6.4-0.9s-4.8.5-7.1,1.5a21.6,21.6,0,0,1-4.3,1.1,0.7,0.7,0,0,1-.6-0.4,3.7,3.7,0,0,1,.4-1l0.3-.6H161l-1.6-.3a7.1,7.1,0,0,0-2.5.1,80.8,80.8,0,0,0-9,3.3c-4.1,1.9-8,4.1-11.9,6.3-1.6.9-2.2,3.7-1.3,4.7l0.5-1.9h0.5a19.1,19.1,0,0,0,0,2.7c0.4,2.4.9,4.8,1.2,7.2s-0.4,2-.2,2.9c0.7,2.9,1.7,5.8,2.5,8.8,0.3,1.1-1.4,3.8-2.6,4.3s-3.8,1.8-5.8,2.5-5.4,1.6-8.2,2.4l-14.1,4.1-8.6,2.6-11.4,3.5c-1.8.5-3.7,0.8-5.6,1.2s-4.8,1.2-7.3,1.5-6.8.7-10.1,1.1-4.7.9-7,1l-1.7-.2h0l-2.5-.3c-3.9-.3-7.8-0.4-11.6-0.9a78.6,78.6,0,0,1-9.7-2.3q-5-1.4-9.9-3.1c-2.7-1-5.4-2.2-8.1-3.2s-5.1-1.1-7.2-2.3-3.3-3.1-4.9-4.8v-0.2c-0.8-1.1-.9-1.1.5-2.8L7,107.3c2.8-3.8,5.5-7.6,8.4-11.3s5.8-7.6,9.3-10.8A97.8,97.8,0,0,1,38,75.3a57.1,57.1,0,0,1,10.7-4.9c6.5-2.4,13.2-4.6,19.8-6.9,3.2-1.1,6.4-2.3,9.7-3.3s4.8-.9,7.1-1.5l4.9-1.4,13.5-3.1ZM4.6,115.1h0c1.4,1.2,2.8,2.6,4.4,3.4a49.4,49.4,0,0,0,6.7,2.2v-0.3l-2.2-1.6a5.7,5.7,0,0,1,1.6.4c0.8,0.7,1.5,1.8,2.4,2.2,3.1,1.4,6.2,2.6,9.3,3.7s5.8,2,8.7,2.8,4.4,0.8,6.5,1.2l4.5,0.7,4.7,0.4c2.6,0.2,5.3.4,7.9,0.4a44.4,44.4,0,0,0,5.3-.6l12.1-1.5a4.2,4.2,0,0,0,1.5-1.3v-0.6h0.4l-0.2,1.6,2.7-.7c4.3-1.4,8.5-2.9,12.8-4.2s9.7-2.7,14.6-4l5.8-1.8h0l4.9-1.9,0.2,0.6,0.5-.8H120l7.3-2.1-0.9-.9,0.7-.4a2.6,2.6,0,0,0,1.1.8,13.3,13.3,0,0,0,4.1-.7,14.8,14.8,0,0,0,3.8-2.6c1-.8,1.7-2-0.6-2.3l0.6-.2h1.1a5.6,5.6,0,0,0-.8-1.8,13.3,13.3,0,0,0-2.3-1.6l0.4-.7h1.6l-1-3.2-0.3,1a10.1,10.1,0,0,0,.2-1.9,9.6,9.6,0,0,0-.5-1.9,7.9,7.9,0,0,0-.6-1.1l-0.2.8-0.5-.6a2.6,2.6,0,0,0,.1-0.7c-0.2-.7-0.8-1.4-0.6-1.9s-0.5-4.7-2-5.1-5.2-1.2-7.9-1.7a27.8,27.8,0,0,0-4.2,0l-0.3-.3-3.9-1.7a1.4,1.4,0,0,1-.6-1.2c1.5-2.2,3.1-4.4,4.8-6.8l0.6,1.2,3.4-5.8,1-1.6c0.4-.5,1.2-1.1,1.1-1.4q-2.8-7-5.8-13.8c-0.4-.9-1.1-2.1-1.9-2.3a9.2,9.2,0,0,0-3.9.3l-8.6,2-1.7.3V55.8l-3.8,1H98.6l-7.4,2.2-4.8,1.4a14.5,14.5,0,0,1-2.2.3V60l-4.5,1.7-0.9.4c-0.2.1-.5-0.1-0.3-0.1C62.4,66.3,46.9,71,32.8,80.3V80l-0.8,1.4V80.9l-1.1,1.2,0.2,0.2-2,1.9a0.8,0.8,0,0,1-.2-0.9l0.7-.9a5.9,5.9,0,0,0-1.2.8c-2.7,2.9-5.4,5.8-8,8.8s-3.6,4.5-5.2,6.8-3,4.4-4.5,6.7-1.1,2-1.8,2.9-1.9,2.1-2.9,3.2l-2.4,2.9ZM171.7,52.4l-2.1,1.4,0.7,0.9a2.8,2.8,0,0,0-1,1,7.9,7.9,0,0,0,.2,2.2l-0.8-2.2c-1.1.8-1.1,1.5,0.2,2.1l0.6,0.2,5.1,5.8c0.7,0.9-.1,4.5-1,5.2a1.6,1.6,0,0,0-.4,1.3c1,0.9,2,2.2,3.2,2.3a20.3,20.3,0,0,0,5.8-.7,3.3,3.3,0,0,0,1.1-1.1l0.9,1.1H184l6.6-3.9,4.3-2.3c2-1.2,3.9-2.8,6.1-3.5,4.2-1.5,8.5-2.6,12.7-3.7,6-1.7,12-3.2,18-5,1.8-.5,3.4-1.7,5.2-2.4a39.3,39.3,0,0,1,4.2-1.1,7.2,7.2,0,0,0,1.8-.6c1.1-.7,2.2-1.6,3.3-2.1s2.7-.6,3.9-1.2,5.1-3,7.5-4.7a12.2,12.2,0,0,0,5.7-10.3,3.8,3.8,0,0,0-.4-1.2v1.8h-0.1a16,16,0,0,0-1.7-3.5c-2.4-2.8-5.8-3.5-9.1-4.1a9.9,9.9,0,0,0-2.9.3v0.7l0.5,0.2-0.8,1.2a5.8,5.8,0,0,1-1.1-.7,0.7,0.7,0,0,1-.1-0.5h-0.1a1.5,1.5,0,0,0,1.1-.2,0.5,0.5,0,0,0,0-.5,1.6,1.6,0,0,0-.9-0.6l-4.8,1.2a4.7,4.7,0,0,0-1.1,1.1h-1.9l0.9,1.3a3.5,3.5,0,0,0-1.3-.5l-4,1.1-0.4.4,0.6,0.5,2.4,1.7c-2.1-2.3-8.8-1.8-11.2,1.2a7.6,7.6,0,0,1,1.2.9,4.6,4.6,0,0,1,.6,1.1c-1-.5-2-1.5-3-1.4s-2.4,1-3.6,1.5l1.4,1.6a6.7,6.7,0,0,1-2.6-.7l-0.6-.2-0.8.9,0.7,0.5,2.4,1.1-0.2.4-3.2-1.1,1.5,1.6c-1.7-.5-2.8-3-4.7-0.7l3.9,1.7v0.4l-3.1-.9c-3.7-1.3-6.4,1.2-9.3,2.3l-13.6,6V46.5l-2.3.9V47.3l-5.3,2.1v0.8l-1.8-1.4-5.4.8a5.8,5.8,0,0,0-1.7-.1,22.9,22.9,0,0,0-2.7.9l-1.3.5c0.3,0.5.5,1.1,0.9,1.6a7.5,7.5,0,0,0,.8.9l-0.5.4-1-1.2-1.1-.8a1.3,1.3,0,0,0-.7.1Zm-15.8,15,0.3-.6a4.5,4.5,0,0,0-.8.6,43.1,43.1,0,0,1-3.9,1.8l-5,1.7c-2.7.9-5.4,2.1-8.3,2.8s-3.3.1-5,.2a7.6,7.6,0,0,1-1.1.4c-0.4-.1-0.7-0.6-1.1-0.8s-2.3-.5-3.4-1-2.4-1.5-3.5.9-3.5,4.4-5.3,6.5L117,82.3l-1.2,1.6,17.9-7.3,0.2,0.6L131,78.3c-0.7.6-1.5,1-2.3,1.5a23.5,23.5,0,0,1-2.8,1.9c-0.8.4-1.8,0.1-2.6,0.4s-3.4,1.2-5.1,2a6.1,6.1,0,0,0-1.4,1.2,6.1,6.1,0,0,0,1.4.4,38.3,38.3,0,0,1,4,0c2.9,0.4,5.7,1,8.5,1.5h0l0.4,0.2,1.9-3.3,0.3,0.4c3.1-3.5,4.2-4.9,8.3-6.3a72.9,72.9,0,0,0,6.8-3l4.4-2.1h-0.8a1.1,1.1,0,0,1-.3-0.5,13,13,0,0,1,3-1.7c2.1-.6,4.3-0.9,6.7-1.4,0.3-1,.4-2.6-1.9-2.8a10.5,10.5,0,0,0-2.7.4l-0.2-.4Zm9.8-8a20,20,0,0,0-3.2.8,5.7,5.7,0,0,0-2.4,1.7c-0.3.4,0.1,1.5,0.4,2.2a3.2,3.2,0,0,0,1,1.5,4.2,4.2,0,0,1,1.9,4.5c-0.3,2.5-.2,2.4,2.3,2.2s3.7-2.5,5.4-4.1,2-3.2,1.1-5.1a31.8,31.8,0,0,0-2.1-3.1c-0.9-1.3-3.8-1.9-5.2-1Zm6.6,13.1,0.3-.3-0.7-.8-0.4.2Zm91-35.2h0.2l0.8-1.7H264Zm-46.5-1.4V35.5l-1.4.4v0.3Zm-83,50.7h-0.3l-0.5.9,0.4,0.2ZM232,28.3V28.1l-1.4.6v0.2Z" transform="translate(-2.2 -22.1)"/><path d="M261.1,41.8l0.9-1,0.2,0.2-0.9,1Z" transform="translate(-2.2 -22.1)"/><path d="M47.5,124.3l-5-3.9-0.3.4,0.2,0.6-0.3.2-1.5-1.8a0.6,0.6,0,0,1,.2-0.4,2.8,2.8,0,0,1,1.3.2l5,3.8A2.2,2.2,0,0,1,47.5,124.3Z" transform="translate(-2.2 -22.1)"/><path d="M44.7,118.4l2,2.6-0.4.3-2-2.3a2.5,2.5,0,0,1,.8-0.8,1.3,1.3,0,0,1,.8.3l3,2.1a1.3,1.3,0,0,1,.2.6,2,2,0,0,1-.8-0.1Z" transform="translate(-2.2 -22.1)"/><path d="M104.3,104.5l-1.4-1.3,0.2-.2-0.5-.4,0.9-1.8,2.7,1.6a0.3,0.3,0,0,1,0,.3h-0.4l-1.6-1h-0.5a2.2,2.2,0,0,0,.1.5l0.9,2Z" transform="translate(-2.2 -22.1)"/><path d="M40.4,120.9H38.9v-0.5l-0.7.2a0.8,0.8,0,0,0,0,.4l0.2,0.3H38.2l-1.3-1.5a0.8,0.8,0,0,1,0-.7,0.9,0.9,0,0,1,.8-0.2Z" transform="translate(-2.2 -22.1)"/><path d="M89.1,111.4l-3.5-2.9a1.1,1.1,0,0,1-.2-0.5H86l3.2,3.1A0.7,0.7,0,0,1,89.1,111.4Z" transform="translate(-2.2 -22.1)"/><path d="M62.8,116.6l2.8,2.6,0.3-.3,1.2,1.2-0.3.4,0.7,1.1-0.5.5-4.7-5Z" transform="translate(-2.2 -22.1)"/><path d="M120,103.2l-2.8-2.2-0.2.3-0.9-1.2,0.3-.4a29.3,29.3,0,0,1,2.5,1.8A7.9,7.9,0,0,1,120,103.2Z" transform="translate(-2.2 -22.1)"/><path d="M115,105l-2.4-1.2-1.3-.8,0.5,1h-0.1l-0.9-1.2a0.6,0.6,0,0,1,.2-0.4,5.9,5.9,0,0,1,1.7.6A26.4,26.4,0,0,1,115,105h0Z" transform="translate(-2.2 -22.1)"/><path d="M84.6,113.7l-0.4.3-3.5-2.6,0.4-.5,3.6,2.8h0Z" transform="translate(-2.2 -22.1)"/><path d="M50.8,120.7l2.7,4a2.1,2.1,0,0,1,.1.8l-0.6-.3L50,121.6Z" transform="translate(-2.2 -22.1)"/><path d="M127.4,101.5h-0.2l-2.7-2a1.6,1.6,0,0,1,0-.8,2.3,2.3,0,0,1,.9.3Z" transform="translate(-2.2 -22.1)"/><path d="M92.5,107.6l-0.3-2.3,1.9,1.3-1.6-.4,0.7,1.3Z" transform="translate(-2.2 -22.1)"/><path d="M35.2,121.7a9.1,9.1,0,0,0-1.6-1.3,6,6,0,0,0-1.3.1,1.9,1.9,0,0,1-.3-0.8,1.9,1.9,0,0,1,1-.1l2.4,1.9Z" transform="translate(-2.2 -22.1)"/><path d="M100.7,105l-2.1-1.3v1a3,3,0,0,1-.6-0.8A2.3,2.3,0,0,1,98,103a3.9,3.9,0,0,1,1.1.3l1.7,1.4V105Z" transform="translate(-2.2 -22.1)"/><path d="M89.3,106.8l0.8,0.4a1.1,1.1,0,0,1-.1.5l-0.7-.2-0.8-.4a3.9,3.9,0,0,1,.1.7,0.8,0.8,0,0,1-.2.3,11.7,11.7,0,0,1-.8-1.3,0.7,0.7,0,0,1,.4-0.5l1.2,0.4h0.1Z" transform="translate(-2.2 -22.1)"/><path d="M75.8,113.2l-0.3,1.3-1-2.4h0.7a8.4,8.4,0,0,1,.7,1.2H75.8Z" transform="translate(-2.2 -22.1)"/><path d="M133.3,108.4l-0.2-.7,1.3,0.8-0.2,1.2-2.1-1Z" transform="translate(-2.2 -22.1)"/><path d="M39.8,125.7l3.2,1.7a1,1,0,0,1,.1.5H42.5L39.7,126v-0.2Z" transform="translate(-2.2 -22.1)"/><path d="M71.2,117l-2.3-1.9a1.8,1.8,0,0,1,.2-0.5l2.4,2.1Z" transform="translate(-2.2 -22.1)"/><path d="M56.6,119.7l3.7,3.1a0.4,0.4,0,0,1-.1.3H59.9l-3.3-3.3h0Z" transform="translate(-2.2 -22.1)"/><path d="M126.9,109.6l0.4-.7,1,1.6-0.3.2a6.3,6.3,0,0,1-2-1.8Z" transform="translate(-2.2 -22.1)"/><path d="M122,100.2V98.3l1.4,1Z" transform="translate(-2.2 -22.1)"/><path d="M73.2,114.2l-0.8-.2v1.1l-1-1.9a1.9,1.9,0,0,1,1-.2,5.3,5.3,0,0,1,.9,1.2h0Z" transform="translate(-2.2 -22.1)"/><path d="M42.9,123.9l-1.9-2.2,0.2-.2,1.2,0.8,0.6-.6v2.2Z" transform="translate(-2.2 -22.1)"/><path d="M113.5,99.8l2.9,2-0.3.4-2.8-2Z" transform="translate(-2.2 -22.1)"/><path d="M94.6,104.3v1.1a7.6,7.6,0,0,1-.8-1.3,0.9,0.9,0,0,1,.6-0.5,3,3,0,0,1,1.5,1.1Z" transform="translate(-2.2 -22.1)"/><path d="M76.6,111.3a0.9,0.9,0,0,1,0-.5,0.9,0.9,0,0,1,.7-0.1l1.7,1.3Z" transform="translate(-2.2 -22.1)"/><path d="M38.2,124.6l-2.4-2.2L36,122l2.4,2.3Z" transform="translate(-2.2 -22.1)"/><path d="M100.4,102.7a5.5,5.5,0,0,1-.1-1.3,1,1,0,0,1,.8-0.2,5.9,5.9,0,0,1,1.1,1.2l-1.5-.6v0.7h-0.4Z" transform="translate(-2.2 -22.1)"/><path d="M58.8,118l0.7,1.6-0.3.2-1.3-1.9h0.9Z" transform="translate(-2.2 -22.1)"/><path d="M75.8,113.2h0.1l1.4,0.5,0.9,0.6h0a3.3,3.3,0,0,1-1.1-.1A7.5,7.5,0,0,1,75.8,113.2Z" transform="translate(-2.2 -22.1)"/><path d="M106.2,99.1l2.9,1.6-0.2.4-2.8-1.7Z" transform="translate(-2.2 -22.1)"/><path d="M49.4,117.7a3.6,3.6,0,0,1,.5,1.1,4.1,4.1,0,0,1-.3,1,6.1,6.1,0,0,1-.7-1.1A2.8,2.8,0,0,1,49.4,117.7Z" transform="translate(-2.2 -22.1)"/><path d="M63.4,121.8l-2.1-2.1,0.3-.3,2.1,2.1Z" transform="translate(-2.2 -22.1)"/><path d="M48.7,125.7l2.8,2.1-0.3.4-2.7-2.3Z" transform="translate(-2.2 -22.1)"/><path d="M62.1,116.5l1.4,2.2-0.2.2L61.8,117A1.4,1.4,0,0,1,62.1,116.5Z" transform="translate(-2.2 -22.1)"/><path d="M17.2,118l2.4,1.7-0.2.3L17,118.3Z" transform="translate(-2.2 -22.1)"/><path d="M119.2,98.7l-0.3.8a6,6,0,0,1-.6-1.1,0.9,0.9,0,0,1,.4-0.5l1.2,0.8a0.6,0.6,0,0,1-.1.3Z" transform="translate(-2.2 -22.1)"/><path d="M113,99.7l-1.4.5,0.3-1.2Z" transform="translate(-2.2 -22.1)"/><path d="M55.6,119.2l0.6,1.9-1.5-1.8a0.7,0.7,0,0,1,0-.4l0.8,0.2h0Z" transform="translate(-2.2 -22.1)"/><path d="M95.6,121.7l1.3-.6a6.2,6.2,0,0,1,.4.9,0.8,0.8,0,0,1-.6.3Z" transform="translate(-2.2 -22.1)"/><path d="M69.9,127.8l-1-.8,0.3-.3,1.3,0.7Z" transform="translate(-2.2 -22.1)"/><path d="M115,105l1.9,2.3-0.4.3L115,105h0Z" transform="translate(-2.2 -22.1)"/><path d="M57.2,129.5L55.3,127l2.4,1.9Z" transform="translate(-2.2 -22.1)"/><path d="M56,123.7L54.1,122h0.5l1.7,1.4Z" transform="translate(-2.2 -22.1)"/><path d="M58.8,118l0.2-.4,2.2,1.6-0.2.2L58.8,118h0Z" transform="translate(-2.2 -22.1)"/><path d="M51.9,119.8l-1.9-1,0.3-.4,1.8,1.3Z" transform="translate(-2.2 -22.1)"/><path d="M119.5,112.6l1.9,0.8h-1.2A2.9,2.9,0,0,1,119.5,112.6Z" transform="translate(-2.2 -22.1)"/><path d="M72,117.4l1.3,1.1a0.7,0.7,0,0,1,.1.3H72.8l-1-1.3H72Z" transform="translate(-2.2 -22.1)"/><path d="M65.3,127.4l1.3,1-0.3.3-1.2-1Z" transform="translate(-2.2 -22.1)"/><path d="M80.7,108.1h0.6l0.6,1.1a0.8,0.8,0,0,1-.2.3Z" transform="translate(-2.2 -22.1)"/><path d="M23.3,117.5l-0.5,1.6-0.4-1.5Z" transform="translate(-2.2 -22.1)"/><path d="M129.3,94.8l-0.6-1.3,0.3-.2,0.6,1.3Z" transform="translate(-2.2 -22.1)"/><path d="M80.5,124.4v0.4l0.8,0.5-0.2.3-1.2-.5a3.9,3.9,0,0,1,.3-0.8h0.2Z" transform="translate(-2.2 -22.1)"/><path d="M13.8,119.1l-1.4.2a2.6,2.6,0,0,1,0-.3l1.4-.2v0.4Z" transform="translate(-2.2 -22.1)"/><path d="M127,97.2V96.2h0.7l-0.2,1H127Z" transform="translate(-2.2 -22.1)"/><path d="M86.8,116.3l-1.3-1a1.1,1.1,0,0,1,.1-0.5l1.4,1.3Z" transform="translate(-2.2 -22.1)"/><path d="M96.3,118.5l1.4,0.6-0.3.3-1.3-.7Z" transform="translate(-2.2 -22.1)"/><path d="M64.8,123.3l-1.3-1.2,0.2-.3,1.3,1.2Z" transform="translate(-2.2 -22.1)"/><path d="M129.9,92.3h-0.3l-0.4-1.6,0.6,0.9A2.3,2.3,0,0,1,129.9,92.3Z" transform="translate(-2.2 -22.1)"/><path d="M45.7,126.1l1.8,1.2-0.2.3-1.8-1.3Z" transform="translate(-2.2 -22.1)"/><path d="M89.6,111.3l0.9,1.3H90.3l-1.1-1.2Z" transform="translate(-2.2 -22.1)"/><path d="M22.8,120l-1.2-1.3,1.3,0.7A2.3,2.3,0,0,1,22.8,120Z" transform="translate(-2.2 -22.1)"/><path d="M73.8,118.8l0.9,1.2H74.4l-0.9-.8Z" transform="translate(-2.2 -22.1)"/><path d="M121.8,111.2l1.2,1.2-0.4.4-1.1-1.3Z" transform="translate(-2.2 -22.1)"/><path d="M37.5,125.7l0.7,1.1-0.3.2-0.7-1.2Z" transform="translate(-2.2 -22.1)"/><path d="M125.1,97.4l-0.2-1.1h0.3l0.3,1.1h-0.4Z" transform="translate(-2.2 -22.1)"/><path d="M78.2,114.2l0.3,1.2-0.6-.2a4.9,4.9,0,0,1,.2-1h0Z" transform="translate(-2.2 -22.1)"/><path d="M91.7,120.7l1.3,1.8a5.6,5.6,0,0,1-1.2-.8A3.1,3.1,0,0,1,91.7,120.7Z" transform="translate(-2.2 -22.1)"/><path d="M71.8,125.3l-0.8-.7,0.3-.3Z" transform="translate(-2.2 -22.1)"/><path d="M80.1,116.6l0.9,1-0.4.3-0.5-1.3h0Z" transform="translate(-2.2 -22.1)"/><path d="M65.4,117.2L65,116.1h0.4l0.4,1H65.4Z" transform="translate(-2.2 -22.1)"/><path d="M73.2,114.2l0.5-.3,0.2,1H73.5l-0.4-.8h0Z" transform="translate(-2.2 -22.1)"/><path d="M80.1,116.6l-1.2-.6,0.3-.4,0.9,1h0Z" transform="translate(-2.2 -22.1)"/><path d="M102,106.2l-1.1-.7v-0.3l1.1,0.7Z" transform="translate(-2.2 -22.1)"/><path d="M84.6,113.7l0.2,0.7h0.5a1.7,1.7,0,0,1-.3.5l-0.4-.2a8.5,8.5,0,0,1,0-1.1h0Z" transform="translate(-2.2 -22.1)"/><path d="M113.6,114.2l1,0.6-0.2.2-1-.5Z" transform="translate(-2.2 -22.1)"/><path d="M132,110.1l-0.5.3-0.6-.4,0.4-.2Z" transform="translate(-2.2 -22.1)"/><path d="M132.4,111.7l1-.2v0.3l-1.1.2v-0.3Z" transform="translate(-2.2 -22.1)"/><path d="M29.5,119.4l1,0.9H30.4l-1.2-.7Z" transform="translate(-2.2 -22.1)"/><path d="M131.6,92.5v1.2l-0.4-.3A3.3,3.3,0,0,1,131.6,92.5Z" transform="translate(-2.2 -22.1)"/><path d="M91.1,108l-0.4.3-0.5-.4a0.9,0.9,0,0,1,.4-0.3A1.5,1.5,0,0,1,91.1,108Z" transform="translate(-2.2 -22.1)"/><path d="M55.6,119.2h0v-0.3l0.9,0.8h0Z" transform="translate(-2.2 -22.1)"/><path d="M123.2,112.5l-0.6-1,0.2-.2,0.7,1h-0.3Z" transform="translate(-2.2 -22.1)"/><path d="M63.6,126.3l1,0.8v0.2l-1.1-.8Z" transform="translate(-2.2 -22.1)"/><path d="M117.9,114.4l0.8,0.4-0.2.2-0.7-.4Z" transform="translate(-2.2 -22.1)"/><path d="M29.2,120.7l-0.7-.8,0.2-.2,0.7,0.8Z" transform="translate(-2.2 -22.1)"/><path d="M68.4,118.2l-0.8-.3v-0.3l0.9,0.2v0.4Z" transform="translate(-2.2 -22.1)"/><path d="M117.2,103.2l-0.9-.9h0.1l0.9,0.9Z" transform="translate(-2.2 -22.1)"/><path d="M23.7,120.7l-0.4-.7h0.4l0.3,0.6H23.7Z" transform="translate(-2.2 -22.1)"/><path d="M61.8,128.4l0.7,0.5-0.2.2-0.7-.5Z" transform="translate(-2.2 -22.1)"/><path d="M106.2,106.8l-0.4-1.2H106l0.4,1.1h-0.2Z" transform="translate(-2.2 -22.1)"/><path d="M120.9,103.6l0.9,1.1-1.1-.6A2,2,0,0,1,120.9,103.6Z" transform="translate(-2.2 -22.1)"/><path d="M19.6,117.5l0.8,0.7v0.2l-0.8-.7Z" transform="translate(-2.2 -22.1)"/><path d="M110.4,103l-0.4-.5,0.4-.2,0.2,0.6h-0.2Z" transform="translate(-2.2 -22.1)"/><path d="M73.9,115.1h0.7a2,2,0,0,1,.2.7Z" transform="translate(-2.2 -22.1)"/><path d="M95.1,107.4l0.9,1.3-1.1-1Z" transform="translate(-2.2 -22.1)"/><path d="M107.5,104.5l-0.3-.8h0.3l0.3,0.8h-0.3Z" transform="translate(-2.2 -22.1)"/><path d="M95.6,118.5l-0.5-.7h0.1l0.7,0.6Z" transform="translate(-2.2 -22.1)"/><path d="M110.9,115.7l0.6,0.3v0.3l-0.6-.3v-0.3Z" transform="translate(-2.2 -22.1)"/><path d="M86.4,122.8l0.8,0.6v0.2l-0.8-.6Z" transform="translate(-2.2 -22.1)"/><path d="M106.3,102.9h0.6a0.8,0.8,0,0,1,0,.4l-0.6-.2v-0.3Z" transform="translate(-2.2 -22.1)"/><path d="M134.6,98.8a2.1,2.1,0,0,1-.2.7h-0.7Z" transform="translate(-2.2 -22.1)"/><path d="M4.6,115.1h0Z" transform="translate(-2.2 -22.1)"/><path d="M230,31.9l0.6,0.5-0.2.3-1.7-1.4a1.1,1.1,0,0,1,.3-0.4l1.2,0.4Z" transform="translate(-2.2 -22.1)"/><path d="M233.4,30.3l2.3,3.1L233,30.6Z" transform="translate(-2.2 -22.1)"/><path d="M227.2,35.8l-1.6-1.4a4.5,4.5,0,0,1,1.2.3,3,3,0,0,1,.7.8Z" transform="translate(-2.2 -22.1)"/><path d="M234.7,33.4l-1.9-1,0.2-.2,1.8,1Z" transform="translate(-2.2 -22.1)"/><path d="M239.5,28.8l-1.2-.5a1.3,1.3,0,0,1,.1-0.3l1.3,0.4Z" transform="translate(-2.2 -22.1)"/><path d="M173.6,56.5l-0.9-.8,0.3-.3,0.9,0.8Z" transform="translate(-2.2 -22.1)"/><path d="M222.3,39.2l0.5,0.6-0.3.3-0.6-.6Z" transform="translate(-2.2 -22.1)"/><path d="M231.9,33.5l-0.7-.6,0.2-.2,0.7,0.5Z" transform="translate(-2.2 -22.1)"/><path d="M231.4,38.7l0.4,0.8h-0.3l-0.4-.7Z" transform="translate(-2.2 -22.1)"/><path d="M213.2,42.3l-0.6-.7,0.3-.2,0.5,0.4A1.1,1.1,0,0,1,213.2,42.3Z" transform="translate(-2.2 -22.1)"/><path d="M233.9,35.7l-0.6-.6,0.6-.6,0.6,0.6Z" transform="translate(-2.2 -22.1)"/><path d="M174.6,52l-1-.3V51.4l1,0.2V52Z" transform="translate(-2.2 -22.1)"/><path d="M185.9,52.8l-0.6-.6V52l0.7,0.5Z" transform="translate(-2.2 -22.1)"/><path d="M243.6,32.8l0.6-.4,0.5,0.7Z" transform="translate(-2.2 -22.1)"/><path d="M187.3,50.2l0.6,0.8h-0.5V50.2Z" transform="translate(-2.2 -22.1)"/><path d="M245.3,25.1l-0.5.3-0.4-.3,0.4-.2Z" transform="translate(-2.2 -22.1)"/><path d="M252.9,28.7l-0.8-.3V28.2l0.8,0.3v0.3Z" transform="translate(-2.2 -22.1)"/><path d="M139.1,74.8l-0.2.7a2.4,2.4,0,0,1,.7-0.6h0.8a0.8,0.8,0,0,1-.1.4,2.9,2.9,0,0,1-1.2.6l-4-.2a4.4,4.4,0,0,0-1.4.7l-0.3-.6a4,4,0,0,1,1.6-1.1A36.1,36.1,0,0,1,139.1,74.8Z" transform="translate(-2.2 -22.1)"/><path d="M132.3,76.1l-1.9,1.3-0.2-.4,2-1.2Z" transform="translate(-2.2 -22.1)"/><path d="M133.8,78.8l1.2-.6v0.4h-1.3Z" transform="translate(-2.2 -22.1)"/><path d="M133.8,78.8L133,78l0.4-.2,0.3,1h0Z" transform="translate(-2.2 -22.1)"/><path d="M137.6,77v1.4h-0.2l0.2-1.4h0.1Z" transform="translate(-2.2 -22.1)"/><path d="M145.6,74.3l-0.9.3V74.5l0.8-.4v0.3Z" transform="translate(-2.2 -22.1)"/></svg>