<svg id="chicken_meat_Image" data-name="chicken(meat) Image" xmlns="http://www.w3.org/2000/svg" viewBox="0 0 254.4 331.1"><title>chicken(meat)</title><path d="M260.6,52.5a7.9,7.9,0,0,0,1.6.5c5.6,0.3,9.6,3.4,13,7.4a15.4,15.4,0,0,1,2.5,5c0.2,0.5-.6,1.3-1.1,1.9a1.1,1.1,0,0,1-1.1.2c-1.8-1.5-3.8-.9-5.6-0.4-3.9,1-7.7,2.3-11.6,3.4-0.7.2-1.6-.1-2.2,0.2a3.8,3.8,0,0,0-1.8,1.7c-2,5.2-4.3,10.3-5.4,15.7-0.7,3.2.7,6.9,1.1,10.3,0.1,1,1.7,2.3-.7,2.7a2.1,2.1,0,0,0-.3,1.5c1.5,8.9,3.3,17.7,4.6,26.6,0.7,4.6.5,9.3,0.7,14,0.5,14.6-1.8,28.9-4.5,43.1-1.5,7.9-3.5,15.8-7.9,22.7-2.2,3.4-4.5,6.8-6.9,10-0.5.7-1.7,1-2.6,1.5a12.1,12.1,0,0,0-2.8,1.4c-6.6,6.1-14.3,10.5-22,14.9-1.2.7-2.4,1.6-3.5,2.4a1.1,1.1,0,0,0-.4.5c1.5,2.3-.6,3.8-1.3,5.5a81.4,81.4,0,0,1-4.9,11,47.6,47.6,0,0,1-6.9,8.8c-2.5,2.6-5.5,4.6-8.3,7a2.1,2.1,0,0,0-.5,1.8c2.1,5.3,3.9,10.7,6.5,15.7s6.2,10.5,9.5,15.6c1.7,2.6,3.4,5.4,5.8,7.4s4.9,2.5,7.5,3.3,5,0.9,7.5,1.4l14.3,3.3a17.2,17.2,0,0,0,3.4-.1,1.7,1.7,0,0,1,1.2.3,15.9,15.9,0,0,1,.7,4.2c0,0.5-1.2,1.2-1.9,1.4-5.6,1.6-11,.7-16.5-0.8l-11.1-2.9c1.3,2.6,2.5,4.9,3.7,7.2s3,3.5,1.8,6a2.5,2.5,0,0,1-.8,1.1,21.6,21.6,0,0,1-3.9,1.8,1.9,1.9,0,0,1-1.8-.7c-2.1-5.1-4.1-10.2-8.3-14-0.8-.7-1.6-1.3-2.5.1a53.4,53.4,0,0,1-3.7,5.5c-1.7,2.2-3.3,4.6-6.4,5.3s-3.4-.1-3.3-2.6c0.1-4.2,2.2-7.5,4.2-10.9,0.9-1.5,2.3-2.9,2.5-4.4a11.4,11.4,0,0,0-.9-5.8,100.2,100.2,0,0,0-5.3-10.4c-1.4-2.5-3.3-4.8-4.9-7.2s-4.2-6.6-6.5-9.8-3.7-4.5-5.2-7a8.3,8.3,0,0,0-5-3.8,20.6,20.6,0,0,1-11.9-10,1.3,1.3,0,0,0-1.2-.2l-14.1,7.6c-3.5,1.9-7,3.7-10.7,5.4-1.5.7-3.4,0.7-5,1.1a1.2,1.2,0,0,0-.8.7c-0.6,4.2-1.5,8.4-1.6,12.7a114.5,114.5,0,0,0,.8,13.6,86.9,86.9,0,0,0,1.5,10.9,10.7,10.7,0,0,0,2.8,5c0.9,0.9,2.8.9,4.2,1.3a65.6,65.6,0,0,0,20.7,2.4,62.2,62.2,0,0,1,10.5.9c0.7,0.1,1.3,1,1.9,1.5s-1.2,1.7-1.8,1.8a146.9,146.9,0,0,1-15.4,1.3c-5.8,0-11.7-.6-17.5-0.9a15.5,15.5,0,0,1-2.8-.7,61.2,61.2,0,0,1,4.9,6.1,10.8,10.8,0,0,1,1.4,4.8c0,0.6-1.3,2-1.8,1.9a10.2,10.2,0,0,1-4.5-2c-2.5-2.2-4.6-4.8-7-7.1a2.5,2.5,0,0,0-2.2-.3c-2.9,1.2-5.7,2.9-8.8,3.9-1.5.5-3.3-.2-5-0.5A14.2,14.2,0,0,1,96,333a3.2,3.2,0,0,1-1.3-1.2,2.8,2.8,0,0,1,.9-1.2,7.6,7.6,0,0,0,1.4-1.1c1.4-2.4,3.8-2.9,6.1-3.9s4.9-4.8,5.2-8.4a86.2,86.2,0,0,0,0-9.6c-0.1-5.2-.4-10.3-0.6-15.5-0.1-1.9.2-3.9,0.1-5.8a10.4,10.4,0,0,0-.6-2.8c-1.2-3.8-2.8-7.5-3.5-11.3-0.4-2.3-1.6-2.9-3.1-4s-5-3.9-7.6-5.8c-4.2-3.1-8.6-5.9-12.7-9a159.6,159.6,0,0,1-12.8-10.3c-3.5-3.2-5-7.8-6.2-12.3-0.2-.6-0.4-1.7-0.8-1.7-2.6-.3-2.3-2.1-2.3-3.9a9.8,9.8,0,0,0-.8-3.9c-2.6-5.1-4.9-10.4-8.1-15.2a98.4,98.4,0,0,0-10.3-12.3,32.8,32.8,0,0,1-8.3-15c-0.8-3.4-2.2-6.6-2.9-10s-1.6-9.3-2.4-14a4.5,4.5,0,0,1,.2-1.9c0.7-2.3,0-4.3-.5-6.6-1.1-4.5-1.1-9.3-1.5-14-0.1-.9,0-1.8-0.1-2.6a4.3,4.3,0,0,1,1.8-3.7,17.2,17.2,0,0,0,3.9-5.3c0.7-1.5,1.5-2.5,3.2-2.8l7.8-1.6a2.5,2.5,0,0,1,1.7.3L52,124.1a35.1,35.1,0,0,0,4.6,3c5.3,2.6,10.7,5.3,16.1,7.7a97.4,97.4,0,0,0,12.1,4.2c5.1,1.4,10.3,2.6,15.5,3.7,8.3,1.6,16.7,3.1,25,4.5,3.7,0.6,7.4,1.6,11.1,1.3A14.3,14.3,0,0,0,144,145a42.9,42.9,0,0,0,8-8.8c3.9-5.8,7.5-11.9,10.8-18.1,4.9-9.2,9.6-18.6,14.1-28.1,2.3-4.7,4-9.6,6.2-14.3,3.2-7,6.3-14,9.9-20.7a48.4,48.4,0,0,1,15.9-17.3c3.4-2.3,7-4.3,10.4-6.5a1.5,1.5,0,0,0,.6-1.1c-0.2-3.3-.5-6.7-0.8-10s-0.7-4.3,1.4-5.4a5.5,5.5,0,0,1,6.6.8c1.8,1.7,3.9,1.5,5.7,1.1s1.6-2,2.2-3.2,0.6-1.8,1-2.7,1.9-2.2,3-.9a45.4,45.4,0,0,1,3.6,5.9l0.9,1.6c0.5-.5,1.4-0.9,1.6-1.4s0.7-3.5,1.2-5.2a2.6,2.6,0,0,1,1.9-1.5,3,3,0,0,1,2.3,1.4c0.7,2.7,1,5.4,1.5,8.1a9.7,9.7,0,0,0,.4,1.2,4,4,0,0,0,1.2-.7c0.7-.9,1.1-2.2,1.9-2.8,2.5-1.7,4.9-.2,5.3,3.2,0.2,1.3.3,2.7,0.6,4a1.3,1.3,0,0,0,1.1.6c0.9-.5,1.6-1.4,2.6-1.7s2.9-.7,4-0.2,1.8,4,1.2,5.9c-1,3.4-1.7,6.9-2.4,10.4s-0.2,4.4-.8,6.5A11.1,11.1,0,0,1,260.6,52.5ZM87.6,189.6l-2-.7-0.2,2.4,2.2-1.8c1.7-.2,1.9-0.9,1-2.4ZM240.9,86l1.1,3.5,0.7-.3-0.9-1.6L240.8,86,239,82.7a1.4,1.4,0,0,0-.7-0.4,0.6,0.6,0,0,0-.4.4C237.7,83.6,239.9,86,240.9,86Zm8.2-64.1,0.2,0.8h0.3V20.8h-0.2L249.1,22l0.5-6.9h-0.8c-0.4,3-.8,5.9-1.1,8.9s-0.5,6.3-.7,9.4a4.5,4.5,0,0,0,1,1.5c0.3-3.3.4-5.9,0.7-8.6a10.9,10.9,0,0,1,.8-2.2Zm-18.5,6.3h0l-0.2,3a21.4,21.4,0,0,0,1.3-3c0.6-2.5,1.1-5,1.6-7.5a2.8,2.8,0,0,0-.2-1l-0.7.5a7.4,7.4,0,0,0-1.6-.3,1,1,0,0,0-.5.7c-0.3,2-.7,4-0.9,6.1a34,34,0,0,0,0,3.6h0.4Zm14.1-4.8h0l-0.6,1,0.5,0.4-0.6.5a7.7,7.7,0,0,1,.2,1.5c-0.2,1.7-.4,3.4-0.6,5.1a2.4,2.4,0,0,0,.4,1,3.3,3.3,0,0,0,.5-0.9c0.3-1.3.5-2.6,0.7-3.9h0c0,1.5-.1,3-0.1,4.5a2.4,2.4,0,0,0,.7,1,2.9,2.9,0,0,0,.5-1c0-2.6,0-5.2,0-7.8h0.5l0.8-6.2-0.4-.4L245,20.9l-0.3-.2h-0.5ZM135.8,178.5a20,20,0,0,1-.2,2c-0.2,1.2-.5,2.4-0.8,3.7,3-.7.3-3.1,2-4.3a4.9,4.9,0,0,0,.2,1.3,7.3,7.3,0,0,0,1.2,1.9,22.1,22.1,0,0,0,2.6,1.8l8.3-4.5a19.2,19.2,0,0,1-3.3,2.6,1.2,1.2,0,0,0-.4,1.1,1.1,1.1,0,0,0,1,.4,8.1,8.1,0,0,0,3-1.5c4-4.4,7.8-8.9,11.7-13.4l0.6-.5a3.5,3.5,0,0,1-.7,2.4c-3.8,4.1-7.6,8.2-11.5,12.3a22.3,22.3,0,0,1-3.7,2.8,2.3,2.3,0,0,1-1.2-.6,2.5,2.5,0,0,0-.7-0.6,1.2,1.2,0,0,0-.9.5c-0.3,1.2-.5,2.5-0.8,4.4l8.5-6.6c-0.4,2.7-13.1,12.9-15,12.4-0.6,1.2-.7,2.3,1.1,1.9s5.8-1.6,8.7-2.5a1.5,1.5,0,0,0,.4-0.8l0.9-2.3,0.9,1.9,0.4,0.3a7,7,0,0,0,1-1.3c0.5-1,.8-2,1.3-3a4,4,0,0,1,1.1-.9,6.6,6.6,0,0,1,.8,1.1,20,20,0,0,1,.7,2.1l0.7-1.7c1.3-2.8,1.3-2.8,3.1-.6h0.5c0.3-1.7.5-3.5,1-5.2a12.9,12.9,0,0,1,1.2-2.5l1,2.4,0.3,0.3a2.2,2.2,0,0,0,.2-0.6c0.2-3.1.3-6.1,0.5-9.2a6.8,6.8,0,0,1,.3-1.3l0.9,1,7.5-8.8,0.6,0.4a2.1,2.1,0,0,1-.2.7l-3.7,4.6a19.8,19.8,0,0,0-2.9,3.8,20,20,0,0,0-.9,4.7h0.8c0.4-.8.8-1.6,1.2-2.4a1.5,1.5,0,0,1,.8-0.5,0.7,0.7,0,0,1,.4.5,2.2,2.2,0,0,1-.3.9l-1.9,3.1c7.1-2.7,10.9-8.5,14.9-14.1-2,8.7-8.6,12.9-15.6,16.7a2.6,2.6,0,0,1-1.3-.3l-1.6,3.2-0.9-3.5h-0.6l-0.6,5.4a32.1,32.1,0,0,1,5-1.9c0.8-.2,1.8.6,2.7,0.9a4.1,4.1,0,0,1-1,1.3c-4.5,2.5-8.1,6.4-13.1,8.1a1,1,0,0,0-.4.8l3.2,3.9h0c2.8,1.8,5.7,1.5,8.4.2,8.3-3.8,15.4-9.5,22.6-15a73.6,73.6,0,0,0,14.5-15.5,25.5,25.5,0,0,1,9-7.5c0.5-.3,1.5.3,2.3,0.5a5.8,5.8,0,0,1-.7,1.4c-1.5,1.7-3.3,3.3-4.6,5.1-3.4,4.5-6.6,9.3-10.1,13.7a37.6,37.6,0,0,1-6.5,5.9c-5.2,4-10.4,8.1-15.9,11.7s-8.8,5.2-14.3,4.8-7.7-1.8-10.1-5.2-2.7-3.3-5.1-1.5a2.1,2.1,0,0,1-1.2.3h-16c-0.8,0-1.6-.8-2.5-1.2s-3.2-2.2-4.8-2.3c-4.3-.1-8.6.6-12.8,0.4-1.6-.1-3.4-1.4-4.6-2.6a2,2,0,0,0-2.6-.6c-2.2.9-4.4,2.2-6.7,2.4a51.8,51.8,0,0,1-10.2-.6,10.1,10.1,0,0,1-8.9-7.4c-1.1-3.7,1.1-6.7,3.6-8.9,4.1-3.6,8.6-6.7,13-9.9,7.1-5.2,15.3-8.3,23.5-11.4,4.4-1.7,8.5-3.9,12.8-5.8a6.6,6.6,0,0,0-2.9-1c-6.7-1-13.5-1.7-20.2-2.9s-11.8-3.2-17.8-4.3c-8.6-1.6-16.4-5-24-8.9a68.6,68.6,0,0,1-17.5-12.2,19.8,19.8,0,0,1-1.8-2.9,2.1,2.1,0,0,0-1.3-1c-2.2.4-4.4,1-6.4,1.5l-0.7,7.9a19.7,19.7,0,0,0,2.2-3.4,2.6,2.6,0,0,1,.7-0.6,3,3,0,0,1,.1,1c-0.2,1-.6,1.9-0.9,2.9a6.7,6.7,0,0,0,1.6-1.8,4.2,4.2,0,0,1,.9-0.7,3.8,3.8,0,0,1,.1,1.3c-0.6,1.9-1.2,3.8-1.8,5.7a16.9,16.9,0,0,0,2.2-3.9,7.8,7.8,0,0,1,1.4-1.5c0,0.7,0,1.3,0,2a2.4,2.4,0,0,1-.2.3l-1.3,6.3,0.6,0.2,3.1-5.4a2.5,2.5,0,0,1,.8-0.6,3.2,3.2,0,0,1,0,.9l-2.2,6.3,0.5,0.3,3.6-5.5,0.5,0.3-1.7,6.4,0.4,0.2,3.2-5.2,0.6,0.3-2.3,6.5,0.6,0.2,3.4-5.4,0.3,0.2-1.7,6.6,0.5,0.2,3.1-5,0.5,0.3-1.7,5.8,0.5,0.2,3.7-5.3,0.6,0.2c-0.3.9-.6,1.8-0.9,2.7s-1.4,2.9.3,4.2a23.2,23.2,0,0,1,3.2,2.8c1,1.1,2.3,2.5,2.3,3.8s-2.8,2.7-4.5,1.7l-12.4-6.8c-5.7-3.2-10.4-7.3-13.3-13.3-0.9-1.8-1.5-3.8-2.3-6a4.3,4.3,0,0,0-1.1,1.5c0,4.1-1.2,8.3,1.5,12.3s3,6.1,4.3,9.2a18,18,0,0,1,.7,3.2l2.4-6a1.4,1.4,0,0,1,.6,1.2c-0.2,1.8-.6,3.6-0.7,5.3a12.5,12.5,0,0,0,.7,3.2h0.7l3-6.5h0.5l-1.5,8,0.7,0.2,2.9-6.2a3.1,3.1,0,0,1,.8-0.7,3.1,3.1,0,0,1,.2,1.1c-0.4,2-.9,3.9-1.1,5.9a7.4,7.4,0,0,0,.4,2.2,7.1,7.1,0,0,0,1.7-1.5c1-1.7,1.8-3.5,2.6-5.2h0.3l-0.9,6,0.6,0.2,3-5.4,0.5,0.2-1,7.2,0.8,0.3,4.2-6.6c-0.2,1.8-.4,3-0.5,4.2s0.3,3,2.8,2.3h0.7V165l-2,1,6,2.9c-1.3,2.5-3.7,4-6,3.6l-8.2-1.5a24.3,24.3,0,0,1-14.2-8.2c-1.4-1.7-2.9-3.2-4.8-5.1,0.1,1.2.1,1.9,0.3,2.6l1.9,9a6.3,6.3,0,0,0,.5,2.3,48.9,48.9,0,0,0,3.6,4.1,13.6,13.6,0,0,0,1.6,1.2l-0.9-4.3-0.3-1,0.5-.2a2.2,2.2,0,0,1,.7.9c0.2,1.4.4,2.8,0.6,4.1a4.9,4.9,0,0,0,.5,1.1,4.6,4.6,0,0,0,.9-0.9l2.4-4.6a3,3,0,0,1,.9-0.7,5.7,5.7,0,0,1,.2,1.1,8.6,8.6,0,0,1-.2.9l-0.9,6.3h0.7c0.9-1.7,1.8-3.4,2.8-5.1a5.3,5.3,0,0,1,1.3-1.1,8.4,8.4,0,0,1,0,1.8c-0.3,1.7-.7,3.4-1.1,5.1l0.6,0.2,3.8-5.8,0.6,0.2-1,7.4a1.2,1.2,0,0,0,1-.6c0.8-1.7,1.6-3.4,2.5-5a3.9,3.9,0,0,1,1.1-.9l0.2,0.5a3.3,3.3,0,0,0-1,.6c-0.7,1.5-1.3,3.2-2.1,4.7a11.2,11.2,0,0,1-1.5,1.9,16.6,16.6,0,0,1-.7-2.3,5.8,5.8,0,0,1,.2-1.7l0.5-3.2a31.5,31.5,0,0,0-2.6,3.8,8.6,8.6,0,0,1-1.7,1.5,7.9,7.9,0,0,1-.4-2.2c0.1-1.4.5-2.8,0.7-4.2a29.5,29.5,0,0,0-2.9,5.1,0.9,0.9,0,0,0,.4.7c2.5,1.3,5,2.7,7.6,3.9s5.1,1.9,7.5,3.1,2.4,1.9,2.5,3-2.5,2.6-4.1,2-3.2-1.1-4.7-1.8c-4-1.8-8-3.6-11.9-5.7-1.4-.7-2.4-2.1-3.5-3.1a28.5,28.5,0,0,0,11.9,14.9l2.1-.7a15.2,15.2,0,0,1,.2,1.5c0,0.9,0,1.8,0,2.6H51l1.4-3.9,1,0.2L54,202l2.6-3.1,0.8,4.2c2.9-1.3,1.7,1.6,2.6,2.3a25.8,25.8,0,0,1,1.8-1.9c1.1-1,2-1.1,2.2.7s0.5,2.8.7,4.1l0.5-.4,1.5,2.4,1.5,0.6a4,4,0,0,1,.7-1l1.9-1.1a7.1,7.1,0,0,1,.8,1.9c0.1,1.5,0,3,0,4.1s1.6-1,1.8-.8a5.3,5.3,0,0,1,1.5,2.6,35.3,35.3,0,0,1,.1,5.1,27.5,27.5,0,0,1,3.5-2.9,2.3,2.3,0,0,1,2.1.6,24.3,24.3,0,0,1,.3,4.3l0.8-.5c1.6-1.1,2.8-.9,2.9,1.2s0,3.8,0,5.7a4.6,4.6,0,0,0,1.9-.3c2-1.3,3,.7,4.3,1.4s-0.1,1.6-.2,2.4a1.1,1.1,0,0,0-.1.2l0.4,2,1.5-.4,1.1-.3v1.6l1.1-.5,2-.5a7,7,0,0,1,0,1.9c-0.5,1.7-1.1,3.3-1.6,4.9,1.2-1.1,2.3-2.3,3.6-3.3a5,5,0,0,1,2-.4,6.2,6.2,0,0,1-.1,1.8c-0.7,2-1.5,4-2.3,6,1.9-2.4,3.2-5.3,7.2-5.8L101,252c0.9-.9,1.2-2,1.9-3s0.7-5.6,4.7-4.2a2.2,2.2,0,0,1,1.4,1.1,26.6,26.6,0,0,1-.1,3.7,9.5,9.5,0,0,1,2.6-2c1.1-.4,3.2-0.4,3.4.1s0.5,3,.7,4.5l0.7-.3v0.6a13.3,13.3,0,0,0,2.1.5,3.8,3.8,0,0,0,1.3-.4V254a2,2,0,0,0,.2,1.1,1.6,1.6,0,0,0,1.2,0c1.7-.7,2.6-0.1,2.5,1.7s-0.2,1.8-.4,3.1c2.4-2.6,3.4-6.3,7.5-6.2l-0.6,2.5c-0.1.5-.2,1.1-0.3,1.6a7.8,7.8,0,0,0,1.6-1c1.7-1.7,3.2-3.6,5.7-2v1.9l2.5,0.5,1.4-.9,0.8,0.6-3.1,5.9,3.2-1.4-0.6-.5a6.9,6.9,0,0,1,.6-1.7c0.7-1,1.6-2,2.4-3a9.2,9.2,0,0,1,1.5-2.1c2.6-1.8,5.2-3.4,7.9-5.1a12.6,12.6,0,0,1,2.4-.9l0.3,0.6-4.2,3.9-4.2,3.7,0.3,0.3,8.6-4.9,0.8,1.1-2.4,1.4a2.8,2.8,0,0,0,1.3-.3c5.7-2.2,11.4-4.5,17.2-6.6,3.5-1.3,3.9-1.6,3.6-5.3a8.4,8.4,0,0,1-.2-0.9c0-1.1.1-2.2,0.2-3.3h0.5l1,6.7H180l-0.6-8.4a15.2,15.2,0,0,1,.9,1.8c0.7,2,1.2,4,1.9,6a1.4,1.4,0,0,0,.8.8,2.3,2.3,0,0,0,1.4-.9,4.1,4.1,0,0,0,.1-2.1c-0.2-1.4-.6-2.7-0.9-4.1s-0.6-3.8-1-5.8a1.3,1.3,0,0,1,.8,1c0.6,2.9,1.1,5.9,1.8,8.7a5.8,5.8,0,0,0,1.2,1.7c0.6-.7,1.5-1.4,1.6-2.2a16,16,0,0,0-.4-4c-0.3-1.8-.6-3.7-0.9-5.5a1.2,1.2,0,0,1,.7.9c0.6,2.8,1.2,5.7,1.8,8.5a1.5,1.5,0,0,0,.9.8,1.9,1.9,0,0,0,1-1.1,19.9,19.9,0,0,0-.1-3.7c-0.4-3.1-.8-6.1-1.2-9.2a2,2,0,0,1,.7,1.4c0.6,3,1,6,1.7,9,0.2,0.7,1.1,1.9,1.7,1.9s1.7-1.4,1.5-2.8-0.9-5.7-1.4-8.6a8.7,8.7,0,0,1,0-1.3h0.3l1.5,8.8h0.8l0.6-5.3c0.1,2.4,1.1,4.9-.8,7.2a1,1,0,0,0,0,.8,0.7,0.7,0,0,0,.6.1l3.9-1.9c-3.9-3.1-2-8-4.3-11.5l-1.1.2,1.1-1.3a5.1,5.1,0,0,0-1.8.8,2.3,2.3,0,0,1-1.3.2,1,1,0,0,1-.4-0.9c0.7-1.9,1.4-3.8,2.1-5.8l0.6,0.2-1.1,3.2c2.4,0.9,4.3.5,5.6-1.7a1.7,1.7,0,0,1,.8-0.6,3.8,3.8,0,0,0,1.2-.4c1.1-1.2,2-2.5,3-3.8l0.7,0.6-7.2,7.6a2.5,2.5,0,0,0-.9,1.2c0.4,2.9.8,5.8,1.5,8.7,0.2,0.8,1.1,1.4,1.6,2.1a11.5,11.5,0,0,0,.9-2.9c0-2.2-.2-4.5-0.3-6.8a0.7,0.7,0,0,1,.5.6c0.2,2,.4,4,0.7,6a4,4,0,0,0,.7,1.3,3.9,3.9,0,0,0,.8-1.2,24,24,0,0,0,.4-3.6c0.1-1.8,0-3.6,0-5.3H205l0.8,7.8h1l1.3-8.5h0.3l0.5,5.7a32,32,0,0,0,2.1-5.4,3.2,3.2,0,0,1,.8-0.9,3.5,3.5,0,0,1,.5,1.1c0.1,1.1,0,2.3,0,3.7l1.6-1.4a8.8,8.8,0,0,1-.5,1.4l-1,1.2a5.3,5.3,0,0,1-.6-1.4,23.8,23.8,0,0,1,0-2.7,21,21,0,0,0-1.7,4.7,9.2,9.2,0,0,1-.7,1.5l-1.5-.8-0.4,2.6,8.5-5.1a2.1,2.1,0,0,0,.6-1.5c0.1-1.3,0-2.7,0-4a31.6,31.6,0,0,1,.4,3.2,3.8,3.8,0,0,0,.6,1.1,3.9,3.9,0,0,0,1-1c0.6-1.4,1.2-2.8,1.7-4.2h0.1l-1,3.7,0.7,0.5,10.7-8.8a23.2,23.2,0,0,0-5.3,2.7l-2.8,1.7a1.1,1.1,0,0,0-.6-0.6c-2.1-.5-1.6-1.7-0.8-2.9s2.1-3,3.2-4.5a6.9,6.9,0,0,1,1.3-1.1c-0.6,1.6-1.7,2.7-2.4,4.1s-2,2,.1,2.6a2.9,2.9,0,0,0,2.3-.6c3.6-2.8,8.2-4.7,9.9-9.6l0.2-.3c4.7-5.9,7.1-12.9,8.7-20.1s3-15.8,4.4-23.7c0.4-2.1.5-4.2,0.6-5.6l-3.3-2.6-2.9,15.7-1.6-2.3a4,4,0,0,1-.7-1.4q-1.1-7.4-2-14.8a1.8,1.8,0,0,1,.7-0.7,2.1,2.1,0,0,1,.4.7c0.5,4.7,1,9.4,1.6,14.1a8.2,8.2,0,0,0,.8,1.7c0.8-3.1,1.3-5.7,2-8.1s-0.7-5,1.9-6.6l0.9,1.5-0.2-4c-3.1-1.4-2.2-4.9-4.3-7-0.5,2.1-.9,3.8-1.3,5.5a5.3,5.3,0,0,1-.6,1.1,5.5,5.5,0,0,1-1.3-.8,3,3,0,0,1-.6-1.3l-2.4-9.8a1.4,1.4,0,0,1,.3-0.7,2.1,2.1,0,0,1,.8.6c0.6,2.4,1,4.9,1.6,7.3s0.7,2.5,1,3.7a1.2,1.2,0,0,0,.8-0.8c0.8-4.4,1.6-8.7,2.5-13.1a3.4,3.4,0,0,1,.6-1,3.4,3.4,0,0,1,.1,1.1c-1.2,4.4.1,8.4,1.9,12.9l3-14.3,0.7,1.7c1.6-4.5-.1-21.6-2.7-25.6a6.1,6.1,0,0,0-.3,1.3c0,2.2.1,4.4,0.2,6.6s0.3,3.7-2.7,2.2c1,4.9.3,9.9,3.1,15l0.8-8.2a8.1,8.1,0,0,1,.1,1.4c-0.1,2.1-.2,4.1-0.4,6.2a2.7,2.7,0,0,1-.8,1,3.2,3.2,0,0,1-.7-1c-0.7-3-1.3-6-1.9-9l-2.1-9.9a29.1,29.1,0,0,0-1.2,4.1,5.9,5.9,0,0,1-1.1,1.5,7.1,7.1,0,0,1-1-1.7c-0.7-3-1.3-5.9-2-9.1l-2.2,4.6-0.8-.5-0.7-.3c-0.6,5.2-1.2,10.3,1.3,15.1l1.1-.8a7.2,7.2,0,0,1,.6,1.3c0.3,1.1.4,2.2,0.6,3.3a9.5,9.5,0,0,0,.9-3.3c0.3-2.4.5-4.8,0.8-7.3a2,2,0,0,1,.5-0.7,1.3,1.3,0,0,1,.3.5c0.1,2.7.1,5.5,0.3,8.2a26.5,26.5,0,0,0,1,4.2h0.7l1.8-10.8h0.4l-1.7,12.1-1.1.2-2.2-5.5c-0.2,1.1-.3,2.3-0.6,3.5a4,4,0,0,1-.8,1.2,5.2,5.2,0,0,1-.8-1.2c-0.3-.9-0.5-1.8-0.7-2.7l-1.4.6a8.6,8.6,0,0,1-.4-1.1c-0.1-.5-0.1-1.1-0.3-1.6a36.2,36.2,0,0,1-1.5-6,31.7,31.7,0,0,1,.3-8.6c0.6-2.8-1.8-5.2-.5-8.2s-0.2-3.6-.4-5.4h0.4l1.6,12.7h1a21.4,21.4,0,0,0,2.3-8.8c0-.4-0.1-0.9-0.1-1.4h0.5a11.6,11.6,0,0,1,.3,1.5c0.5,4.2,1,8.4,1.6,12.5a6.4,6.4,0,0,0,1.1,1.8,7.6,7.6,0,0,0,.5-1.4c0.4-3.2.8-6.5,1.1-9.7a6.2,6.2,0,0,0-.3-2.3c-0.5-1.5-1.1-2.9-1.5-4.4a45.1,45.1,0,0,1-.7-4.7l-1.2,3.8H238l0.9-10a17.3,17.3,0,0,1,.5,3.1c0.4,2.9.8,5.7,1.3,8.6a13.5,13.5,0,0,0,1.1,3.1,2.2,2.2,0,0,0,1,.5,4.9,4.9,0,0,0,.4-1c0.5-2.9,1-5.9,1.4-8.8s0.4-4.7-1.9-7.1-5.7-7.6-8.3-11.7c-1.3-2.1-2.8-4.4-3.2-6.7-0.8-5.4-.9-10.9-1.3-16.4-0.1-1.4.4-2.8,0.2-4.1a25.2,25.2,0,0,0-1.8-4.5H230a3.3,3.3,0,0,1,.6.8c0.4,1.2.7,2.4,1,3.5l1.2-.7a3.7,3.7,0,0,1,.4,1.1c0,2.3-.1,4.5-0.1,6.8s0.2,2.8.3,4.2h0.3l1.4-4.8h0.5l-1,8.9h0.5l1.2-5.4h0.5l-0.6,11.1h0.6l1.9-9H239l-1.5,14.5a2,2,0,0,0,.8-1.3l1.5-5h0l-0.5,7.3h0.5l0.6-3.3h0.3l-0.2,2h0.4l0.2-3.4h-0.3l0.5-3.5h0.7l-0.8,8h0.3l1.6-6.6h0.4l-0.8,6.4H243l0.5-2.6h0.2l-0.3,3.3H244l0.9-10,0.9,1.9,0.3-.9,0.5,0.3-0.9,6.1h0.2l0.6-2.2a9.1,9.1,0,0,1-.4,3.2,31.8,31.8,0,0,1-1.6,4.6,10.2,10.2,0,0,1-1.9,2.1l-1-1.2-0.5.3,2.6,4.5,4.8-16,0.3,0.5a16.5,16.5,0,0,0,1.7-2.5c0.9-2.1,4.1-3.3,2.8-6.4a2.1,2.1,0,0,1,.2-1.4l3.9-9.1a2.2,2.2,0,0,0,.1-1.5,41.3,41.3,0,0,0-3.6-7.1c-3.1-4.2-5.9-8.6-11.5-10.2s-11.7-3.6-18-2a6.5,6.5,0,0,0-1.7.5c-3.7,2.2-7.5,4.3-11,6.6a41.6,41.6,0,0,0-14.8,16.7c-3.3,6.9-6.1,14-9.1,21s-6.2,15.4-9.9,22.9-6.9,12.7-10.5,18.9-5.7,10.2-9.1,14.9-6.7,8-10.2,11.9c-1.9,2.1-4.9,2.6-6.4,5.4s-2.9,2.7-4.4,4-4,3.3-5.9,5.1a2.1,2.1,0,0,0-.3,1.9c0.2,0.5,1,.7,1.6,1.1v-1.6l0.7,0.2c1,0.1,2.1.4,2.8,0.1a58.6,58.6,0,0,0,7.2-3.9,36.8,36.8,0,0,0,4.5-3.8l2.1-2.2a3.9,3.9,0,0,1,1.1-.5,2.1,2.1,0,0,1,0,1.1,15.8,15.8,0,0,1-3,3.3,111.9,111.9,0,0,1-9.9,6c-4.9,2.6-6.8,2.3-8.9-1.2l-0.6,1.5a1.5,1.5,0,0,1,.2-1.7l9.3-8.5-0.3-.8a50.2,50.2,0,0,0-6.5,2.2c-6.3,3.1-12.5,6.3-18.7,9.5-4.6,2.3-9.4,4.3-13.9,6.8a86.7,86.7,0,0,0-10.3,6.8,78,78,0,0,0-8.7,7.7c-0.9.9-.8,2.6-1.1,4l1.6,2.7,0.9-.7-2.5-2,1.6,0.2-0.2-1.7h0.5l1,2.7c0.3-1.6.4-2.7,0.6-3.7a4.9,4.9,0,0,1,.6-1.2,8.1,8.1,0,0,1,.5,1.2c0.2,0.8.4,1.6,0.5,2.3h0.4l0.9-4.9h0.4l0.7,3.3h0.5l1.5-5h0.6l0.4,4.2a23.4,23.4,0,0,0,1.5-4.5,3.3,3.3,0,0,1,.9-1,6.3,6.3,0,0,1,.4,1.1c0.1,0.8.2,1.7,0.3,2.5h0.7l1.4-6.3h0.4l0.5,2.1,1.1-2.5L96.5,183l1.7-1.6-1-3.3,0.7-.4c-0.5,2.4,1.3,2.2,2.2,1.9s2.5-.8,2-2.6a13.9,13.9,0,0,1-.2-3h0.4l0.6,3.3,0.6-.2L104,178a1.2,1.2,0,0,0,.4.6,15.5,15.5,0,0,0,3.2.4c1,0,2.1-.8,3-0.6a9.9,9.9,0,0,0,8.7-2.8c1.2-1.2,1.4-1.2,1.8.4,0.5-2.3,5.8-6.9,6.7-6.3-1.6,1.8-3.3,3.6-4.8,5.5s-1.2,5.8,1.3,6.2a6.7,6.7,0,0,0,4.1-.4c5.5-3,11-6.2,16.4-9.3l1-.3a36.3,36.3,0,0,1-5.3,3.7c-1.6,1.1-3.2,2.3-4.8,3.4s-6.8,2.1-9.4,4.9-5.6,4.9-8.3,7.5a16.3,16.3,0,0,0-2.2,3.5l0.7,0.7c2.1-.9,4.3-1.7,6.3-2.9s0.6-1.5.9-2.3c2.4,1,2.9.6,3.3-2.4,0.1-.7.3-1.5,0.4-2.2a4.5,4.5,0,0,1,1.1,1.9,1.6,1.6,0,0,0,.9.6,19.7,19.7,0,0,0,2.4-3.1,13.7,13.7,0,0,0,.9-3.1h0.5l0.7,2.4Zm55.5,68.9h0.4c0.1,0.4.2,0.8,0.3,1.3a29.8,29.8,0,0,0,.4,3,2.8,2.8,0,0,0,.9.9,4.4,4.4,0,0,0,.3-1.1c0.1-1.5,0-3,.1-4.4a1.3,1.3,0,0,1,.8-0.9,11.3,11.3,0,0,1,2.1.9l1.8-4.2-1.5.5-13.7,6.2c-1.6.7-3.6,1-4.7,2.2-2.5,2.8-4.4,6.1-6.9,9.5l4.4,1.5a0.6,0.6,0,0,0,.5-0.2c1.7-2.3,3.5-4.5,5.2-6.9s1.4-2.9,2.2-4.3a2.2,2.2,0,0,1,1.1-.3,4.8,4.8,0,0,1-.3,1l-1.8,3a56.1,56.1,0,0,1-2.9,5.1c-1,1.4-2.4,2.4-3.5,3.7a5.2,5.2,0,0,0-.7,2l0.4,0.3,0.9-1.4,0.3-.2v1.6a11.3,11.3,0,0,0,1.4-2.9,5.7,5.7,0,0,1,1-1.2,13.5,13.5,0,0,1,.1,1.5c0,0.5-.1,1-0.2,1.8a2.3,2.3,0,0,0,.7-0.5l2.1-6a5.6,5.6,0,0,1,.5-0.9,3.6,3.6,0,0,1,.4,1.1c0,1.2-.1,2.3,0,3.5a3.6,3.6,0,0,0,.7,1.3,3.4,3.4,0,0,0,.8-1.3c0.1-1.7,0-3.5.1-5.3a5.3,5.3,0,0,1,.3-1.2,27.4,27.4,0,0,1,.8,3.5,3.1,3.1,0,0,0,.9,1,3.2,3.2,0,0,0,1-1.2c0.1-1.7,0-3.5,0-5.2s0-1.6,0-2.4h0.3l1.6,5.5,1-.2v-9.5ZM83.6,193.3c2.1,2.1,5-1.1,7.6,1s2.3-.8,2.4-2.4a4.1,4.1,0,0,1,.7-1.4l0.8,1.3,0.9,1.2a4.3,4.3,0,0,0,1-1.3c0.3-1.3.5-2.7,0.7-4l0.3-1.5a3.8,3.8,0,0,1,.8,1.8c0.3,1,.7,2,1,3a16.6,16.6,0,0,0,1.3-3c0.4-1.7.5-3.4,0.7-5.2h0.5l0.8,5.8h0.5l1.5-7.7h0.5l0.8,3.3,1-4.2-3.2-.7a2.4,2.4,0,0,0-1.5-.1,29.8,29.8,0,0,0-4.4,3.3c-1.6,1.6-3,3.5-4.6,5.2a2.7,2.7,0,0,1-1.4.4,2.7,2.7,0,0,0-.7,0Zm47.7,1.1,0.3,0.2c0.5,0.5,1,1.3,1.6,1.3s2.2-.8,1.9-2.3a0.6,0.6,0,0,1,.3-0.5,0.8,0.8,0,0,1,.6.3l0.9,1.1c0.3-.5.6-1.1,0.8-1.6s0.4-1.2.6-1.8l0.5-1.5,1.1,1.3,0.8,1a4.4,4.4,0,0,0,1-1.2c0.5-1.5.8-3.1,1.1-4.6a0.9,0.9,0,0,0-.6-0.5,20.1,20.1,0,0,0-8.5,4.8c-2.3,2-4.8,3.9-7.2,5.8a3.3,3.3,0,0,0-.5.8,10.5,10.5,0,0,0,3.2.8c1.6-.1,2.8-0.9,1.9-2.9Zm-10.6-13.9a1.5,1.5,0,0,0-1,.1c-4.4,3.6-8.8,7.3-13,11.1a6.4,6.4,0,0,0-1.2,2.7,1.3,1.3,0,0,0,.8.7,35.6,35.6,0,0,0,5-1.1c0.2-.1.2-1.2,0.2-2.2l1.3,1.5,0.6-1.6,0.6-1.3,0.7,1.3c2.5-.7,1.9-3,2.5-4.7a17.6,17.6,0,0,1,.7-1.7l0.8,1.3h0.3ZM258.1,32.7h0.7V43.5h0.6l0.4-5.1,1.7,0.3v5.2h0.3l1-12.3h-0.2L262.4,34c0-1.5,0-2.6,0-3.8a2.9,2.9,0,0,0-.4-0.9c-0.3-.5-0.5-1-0.8-1.5s-2.1-2.3-2.6-3.7a31.4,31.4,0,0,1-.9-5.8,2,2,0,0,0-.9,1.6c0,0.7.5,1.8,0.2,2s-0.4,1.6-.1,2.6a41.5,41.5,0,0,1,.6,7.3c0.1,1.5,0,3.1,0,4.6h0.5V32.7ZM245.7,99.9h-0.7c-0.3,2.4-.6,4.8-1,7.2a11.6,11.6,0,0,1-.7,2,8.5,8.5,0,0,0-.6,2,5.6,5.6,0,0,0,.3,1.7c0.6,2.8,1.3,5.5,2,8.3a2.6,2.6,0,0,0,1,.8,4.1,4.1,0,0,0,.4-1.2c0-2.8.1-5.7,0-8.5S245.9,104,245.7,99.9ZM177,251.8l-13.1,5a7.9,7.9,0,0,1,2.2.9,5.7,5.7,0,0,1,1.4,2.1,7.3,7.3,0,0,1,.2,2l1.1-.9H169C171.6,260.4,176.6,255,177,251.8Zm-57.1-75.2-8.5,2.9c-2.1.7-4.2,1.5-4.3,4.3a8.5,8.5,0,0,1-.8,2.4l-1-2.2h-0.4l-0.5,4.7,10.7-7.7-3.4.2v-0.4l8.5-1.9Zm127.9-27c0.1,2.1.2,4,.4,6a5.5,5.5,0,0,0,.7,1.5,4.7,4.7,0,0,0,1.1-1.7c0.2-3.5.4-7,.5-10.5s0-4,0-6.1h-0.2l-0.9,3H249l0.3-2.2h-0.4l-1.8,10h0.7Zm-9.6-135h-0.3a6,6,0,0,0-.4,1c-0.3,2-.7,4-0.9,6.1s-0.3,6-.5,8.9a2,2,0,0,0,.5.8,2.3,2.3,0,0,0,.5-0.8c0.2-1.1.2-2.3,0.3-3.5l0.7-7.7h0.2L238,26.2a1.4,1.4,0,0,0,.6-1.1,75.8,75.8,0,0,1,1.1-9,4.1,4.1,0,0,0-1-4.1v5.3h-0.4V14.6Zm2.3,16.5h0.5c0.2-1.9.3-3.7,0.7-5.6s1.1-3.5,1.6-5.1l-3.2-3.3-0.6,3.4,1.3-1.4v3.1h-0.2V20.5h-0.4l-0.5,6.9h0.4l0.4-4h0.1v7.7Zm-6.4-.8h0.3l1.2-11.5H235l-0.7,2.8-0.3-.6a58.9,58.9,0,0,0-1.1,8.2,6.6,6.6,0,0,1-.2,1l-0.9-.4a1.8,1.8,0,0,0,.9,1.1,16.7,16.7,0,0,0,1.4-1.7v1.2Zm19.9-7.8c-1.7.4-2.8,12.6-1.3,15.1l0.7-10.3h0.2v2.6h0.1l1-7.2L254,23.8ZM130.4,268.1a12.6,12.6,0,0,0-2.8-.7,4.3,4.3,0,0,0-2.4.7,31,31,0,0,0-2.7,2.7,4.9,4.9,0,0,1-1.1.6c0.5,0.2,1.2.7,1.5,0.5Zm-6.8-85.8-0.7,1.2a2.9,2.9,0,0,0-1-.8,1.8,1.8,0,0,0-1.4.3c-0.4,1.6-.6,3.2-1,5.5l6.5-5.9ZM250.3,22.8L249.4,32H250l0.6-6.8h0.3v9.5h0.3L252,23.2ZM46.4,161.1L44,164.4l6.1,1.4v-5.6c-0.7,1.2-1,2.6-1.8,3S47.2,161.9,46.4,161.1ZM236,69c-1.6,1.1.4,3.5-1.9,4a2.4,2.4,0,0,0,.1.5l0.5,3,0.7-.4,1.4,4.4a4.2,4.2,0,0,0,.6-2.4,5.1,5.1,0,0,0-.2-1.8c-0.2-.6-1-1.1-1-1.7S236,71,236,69Zm28.3-29.6h-0.3l-0.2.3c-0.6,2.9-1.3,5.7-4.5,6.9a2.1,2.1,0,0,0,.1,1.2,0.9,0.9,0,0,0,.8.2C262.4,46.9,264.7,42.1,264.3,39.4Zm0.4-12.1c-2.8.4-1.5,2.4-1.5,3.8l0.6-2.5H264v8.7h0.6V27.3Zm-36.8-8.7H227L226.1,30h0.7ZM92.7,251.2c2.4-2.4,3.1-5.8,1.4-6.4ZM51.6,165.7l3.7,0.6-1.4-4.2Zm-9.2-2.9,0.9-5.8C41.5,158.5,40.9,162.1,42.4,162.7Zm-1.7,16.9,0.7-5.4a10.7,10.7,0,0,0-1.9,4.2C39.4,178.7,40.1,179.1,40.7,179.7Zm192.7-103h0.4c-0.3-3-.6-6.1-0.9-9.1a1.8,1.8,0,0,0-.4-0.6,1,1,0,0,0-.4.4C232.5,70.4,233,73.5,233.4,76.6ZM54,146.8l1-5a22.1,22.1,0,0,0-2.3,4.3ZM38.1,136.5l1,0.2,1-5H39.5Zm-4.8-7.8h0.8l-0.7-4.3-0.9.2ZM224,16.2l0.5,4,1.6-2.9ZM44.7,136.6H44.3c-0.6,1.2-1.2,2.4-1.6,3.6a4.8,4.8,0,0,0,1.1.9ZM257.1,38.9h-0.2v5.3h0.6ZM234.3,65.2h-0.4v6.6h0.4V65.2ZM222.4,20l0.4-3.4C221.1,17,221,18.1,222.4,20ZM149.9,193.9c1.1-.6,2-0.8,2.1-1.2a5.4,5.4,0,0,0-.3-2.1h-0.5ZM227.5,27.2a30.1,30.1,0,0,0,0,3,1.9,1.9,0,0,0,.8.5,1.9,1.9,0,0,0,.4-0.9A27.2,27.2,0,0,0,227.5,27.2ZM36.1,153H35.5l-0.6,3.3h0.9ZM229.4,20H229l-0.7,5.6h0.4Zm3,45.7h0.2V60.5h-0.2v5.2Zm22.7-40.6h0.6l0.6-4h-0.6ZM50.1,145l0.9,0.2,0.6-3.3H51.1ZM181,242.5h-0.5l0.4,2.7,0.9-.2ZM253.7,40.3h0.7l-0.6-3.5h-0.4ZM42.5,134.9l-0.3-.2-1.7,3.9,0.5,0.2Zm200.8-14.4h0.6l-0.9-4h-0.4ZM240,28.3h-0.1v3.7h0.4ZM48.8,141.7H48.4l-1.3,1.8,1.4,0.2A11.9,11.9,0,0,0,48.8,141.7Zm105.9,49.7,0.4,0.3a2.6,2.6,0,0,0,1.1-.7,4.4,4.4,0,0,0-.4-1.7Zm-63-6.9H91.2L91.1,187h0.7v-2.6ZM238.9,78.2h-0.2l-0.3,3.1h0.5V78.2ZM38.6,160h0.6l0.3-2.4H39ZM265.3,30h0.3l0.2-3.3h-0.5V30ZM101.5,189.8H102v-2.4h-0.3ZM266.6,59.6l0.5,0.6,1.4-1.2-0.4-.5ZM45,141.8l0.6,0.4,1-2.2H46.3Zm150.7,81.7-0.3-.5-1.7,1.2,0.4,0.5ZM249.6,11.9l-1-.7-1,1.9ZM117.1,190.1l1.4-1-1.1-1.5Zm-33.8-.3H82.7c0.1,0.6.3,1.1,0.4,1.7h0.5ZM37.7,130.6H37.4l-1,3.5h0.3Zm60.8,59.5H97.9L97.7,192h0.7v-1.9Zm-9.7,60.9-2,.4,1.7,1Zm-16.6-9.5,0.4-1.6H70.7ZM267,25.8h-0.6l-0.2,2.1h0.6ZM134.9,197.6l-0.4-.5-1.1.9,0.4,0.5ZM254.2,32.2h0.4V29.1h-0.1Zm8.1,34.5-0.6-2.3a15.9,15.9,0,0,0-.4,2ZM248.9,33.3l0.8,2v-2h-0.9ZM177.7,244.4a10.8,10.8,0,0,0,.5,1.7l1.1-.3Zm-45.1-60.5a14.3,14.3,0,0,0,0,1.7h0.9Zm-17.8,10,0.7,0.2,0.4-1.4-0.5-.2ZM265.9,57.1l-0.3.6L267,58V57.6Zm-1.6,0,0.2-.6-1.4-.3a1.5,1.5,0,0,0-.1.4ZM132.4,198.6V198h-1.4v0.6h1.4ZM95.2,183.1H94.6l-0.2,1.5h0.6ZM30.6,147.4a3.6,3.6,0,0,0-.3,1.4,2.8,2.8,0,0,0,1.1.5Zm108,45.5,0.6,0.2,0.2-1.3H139Zm51,66.1a3.3,3.3,0,0,0,.6-1.2,3.1,3.1,0,0,0-1-.9Zm15.6-26.8-0.4,1.9a6,6,0,0,0,1.1-1A3.3,3.3,0,0,0,205.3,232.2ZM86.8,233l-0.3-.2-0.9,1.5,0.3,0.2Zm100.1,28.3h-0.6v1.1h0.5ZM257.7,66.7l-0.3.5,1,0.4,0.2-.4ZM116.9,266.6h-0.5v1.2h0.3ZM229.5,50.3h0.3l-0.3-1.3h-0.3Zm-6.1-30.4h0.3V18.8h-0.3v1.1ZM114.1,195.4l0.4-.2-0.4-.9-0.4.2ZM81.8,225.9l-0.4-.2-0.5,1.1h0.3ZM234.6,62.9h-0.3v1.1h0.3V62.9ZM223.4,21.8h0.3V21h-0.2v0.9Zm25.7,9h-0.2v0.8h0.2V30.8Zm-9.1,53h0.3v-1h-0.1ZM226,22.8h0.2V22.1H226v0.7ZM127.7,189h0.4l-0.2-.7h-0.3V189Zm49.4-16.8h0.2l0.4-.8h-0.2Zm78.6-131h-0.3v0.7h0.2V41.1ZM240.7,79.9h-0.3v0.9h0.3V79.9Zm-48,174.6a0.4,0.4,0,0,0,0-.8l-0.3.3A2,2,0,0,0,192.8,254.4ZM262.9,63.2V62.9l-0.6.3v0.2Zm-90,209.1-0.4-.5a1.1,1.1,0,0,0-.3.4,0.5,0.5,0,0,0,.2.4Zm84-234.4h0.2V36.7h-0.2v1.2ZM194.6,247.8h0.3V247h-0.2v0.8ZM249.7,13.5a1.1,1.1,0,0,0-.3-0.4l-0.3.2a1.5,1.5,0,0,0,.2.5Zm13.8,51.8h0Zm-4-21h-0.2v1h0.1V44.4Zm-218.7,86-0.9.2a2.5,2.5,0,0,0,0,.5ZM247.9,16.5h0.2V15.7H248v0.8Zm-4.5,66.6h0.1V82.4h-0.2v0.7ZM231.9,72.9h0.2l-0.2-.6h-0.2Zm14.9-47.4h-0.2v0.7h0.2V25.4ZM228,21.6h0.1V21.1H228v0.5ZM192.1,241.1a1.2,1.2,0,0,0,.3-0.4l-0.3-.3-0.2.2A1.7,1.7,0,0,0,192.1,241.1ZM270.6,60.3h-0.2l0.2,0.4h0.2Zm-7.9-23.1-0.2-.2-0.2.2v0.2Zm-37.9-6.9V30h-0.5v0.2h0.5ZM94.5,193H94.3v0.4h0.2Zm103.2,30.8v-0.2l-0.4.2h0.1Zm-86-28.2v-0.3h-0.5v0.2h0.5Zm112-170.5-0.2-.3h-0.3a0.7,0.7,0,0,0,.1.3h0.4Z" transform="translate(-23.3 -9)"/><path d="M193.4,119.2a10,10,0,0,1,1.7-1.8c4-2.4,4-7,6.4-10.6-5.4,1.6-6.9,6.9-10.6,9.7l10.5-15.4-0.4-.4-0.9.3a0.7,0.7,0,0,1,0-.3l3.2-5.7,0.2-.4,0.3-1.5,0.6,0.2a6.6,6.6,0,0,1-.3,1.8c-1.7,3.9-3.4,7.7-4.8,11.8a13.4,13.4,0,0,0,2.3-2.7c1.4-3,2.5-6.1,3.9-9.2,2.1-4.6,3.9-9.4,6.6-13.6s5.9-7.2,9-10.7a4.2,4.2,0,0,1,1.4-.8l0.3,0.4a4.2,4.2,0,0,0-1.2.9,13,13,0,0,0-.9,2,1.3,1.3,0,0,1-.3.6c-3.2,2-4.4,5.4-5.5,8.6-2,5.8-3.3,11.9-5.2,17.8s-3.9,10.4-6.1,15.6c-1,2.3-2.3,4.4-3.5,6.6l-2.6,5-0.5.6-0.5-.3,5.9-9.5-0.3-.3a16.3,16.3,0,0,0-2.2,1.8l-5.9,7a7.8,7.8,0,0,1-1.8,1.2,6.1,6.1,0,0,1,.5-1.9,53.3,53.3,0,0,0,3.5-5.3l-5.1,6-0.4-.3,1.8-3.6,4.2-5.1-0.4-.4-2.8,1.9h0Zm-0.1,6.5,0.3,0.3,4.8-5.5c1.5-1.7,3.7-3,4.5-5,2.8-6.4,5.2-13,7.6-19.5a38,38,0,0,0,1.1-4.8,3.7,3.7,0,0,0-1.5,1.5c-2.2,3.8-5.4,7-6,11.6a2.5,2.5,0,0,1-1.1.8l-0.3-.4-6.6,15.1,3.8-3.4,0.4,0.4Zm15-34.5,0.6,0.3,2.8-5.3-0.4-.2Zm4.1-3.6-0.4-.3-3.4,6.2,0.3,0.2ZM201.2,99.9h0.2l0.2-.6h-0.2Zm12.6-16.8-0.2-.2-0.3.6h0.2Z" transform="translate(-23.3 -9)"/><path d="M155.1,203.1l-0.3-.6,1.6-2.2c0.4,0.2,1.1.9,1.5,0.7a5.2,5.2,0,0,0,1.8-1.6,4.9,4.9,0,0,0,.6-1.5c0.6-1.8,1.4-1.9,2.6-.4s1.8,0.2,2.1-.6,1.1-3.6,1.6-5.4a12.4,12.4,0,0,1,.9-1.8l0.9,1.6,0.9,2,1.3-4.6c0.4-1.4.3-3.7,2.8-1.2,0.5-2.1,1-4,1.6-5.9a5.8,5.8,0,0,1,.8-1.3l0.9,1.2a3.2,3.2,0,0,0,1.3,1.5c-0.2-1.8-.5-3.5-0.7-5.3a2.4,2.4,0,0,1,.7-1.3c0.8-1,1.7-1.9,2.4-2.9l4.9-7a2.3,2.3,0,0,1,.8-0.5l-0.4.9c-2.2,4.5-4.4,8.9-6.4,13.5-0.3.6,0.7,1.8,1.2,3l7.2-4.6-0.4-.2,16.2-16.8,0.3,0.2-2.8,3.3c-3.6,4.1-6.9,8.4-10.8,12.2a63.8,63.8,0,0,1-9.4,7.1c-0.6.4-2-.3-3.3-0.6-1.4,1.9-1.3-1.1-2.4-1.8-0.3,1.4-.5,2.7-0.8,3.9s-0.6,2.7-2.9,1.3l-0.8,4.1,0.4,0.3,5.3-5,0.4,0.3a11.8,11.8,0,0,1-1.7,2.7c-2.8,2.7-6.1,4.9-8.6,7.9s-4.8,2.7-6.6,4.6-3.3.6-4.9,0.7h0Zm12.3-12-1.1,4.6C168.8,194.8,169.1,193.5,167.4,191Zm-6,6.2-1.2,2.6,0.5,0.4a18.3,18.3,0,0,0,1.8-1.6A12,12,0,0,0,161.4,197.2Zm17.7-14.5-0.3.4,1.7,1.4,0.3-.4Z" transform="translate(-23.3 -9)"/><path d="M219.2,126.6l-3,3.7-0.3-.2,2.8-4.9-0.4-.3-3.1,3.7-0.8.5a5.8,5.8,0,0,1,0-.9l0.8-4.3-1.7.8,1.3-2.9-0.4-.3-3.6,5.3-0.5-.3,2.5-4.4-0.3-.2-3.9,4.8-0.4-.3,3.6-6.1h-0.6c1-11.3,1.6-22.7,5.9-33.2-1.3,8.5-5.6,16.9-3.4,26.1l-0.8-2.7-1,7.5c3.7-1,2.7-4.1,3.1-6.3,1-6.2,1.8-12.4,3-18.6l-3.4,26.4,0.6,0.2,1.5-1.1,0.4,0.2-1.1,2.7,2-1.6,1.4-20.7h0.3l1.1,19.3h0.5l0.3-2.7-0.3.2,3.3,10.9h-0.2l-2.5-6.5a17.5,17.5,0,0,0-.8-1.6,9.2,9.2,0,0,1-.2,1.3,0.7,0.7,0,0,1-.5.3,1.1,1.1,0,0,1-.5-0.6c0-4,0-8-.1-12.1a2.5,2.5,0,0,0-.8-1.9v16.9l1.8-1.6,1.7,5.7-1.3-1.9H221v2.6l-1-.3-0.9,3h-0.5c0.3-1,.6-2,0.8-3.1a1.7,1.7,0,0,0-.3-0.8h-1v0.4ZM219,123l-0.8-.5-2.4,4.1,0.4,0.3Zm-3.8,2.4,0.5,0.2,1.9-3.2a0.6,0.6,0,0,0-.2-0.6,0.7,0.7,0,0,0-.6.2Zm-0.5-7L214,118l-2.2,3.4,0.4,0.3Zm6.7,5.4-1-.2-0.4,2.2a1.6,1.6,0,0,0,.8-0.2A14.5,14.5,0,0,0,221.3,123.7Zm-5.3-3.2-0.3-.2-0.3.3,0.2,0.2Z" transform="translate(-23.3 -9)"/><path d="M246.3,51.7c0.1,2.1-1.4,4.8-2.7,4.8-4.7.1-7-1.8-7.3-6-0.1-1.8,3.1-5.7,4.9-5.8C244.4,44.4,246,46.6,246.3,51.7Zm-5-2.3,0.2,0.4,1.2-.8-0.2-.3Zm0.2,3.9-0.2.2,0.2,0.2,0.2-.2Z" transform="translate(-23.3 -9)"/><path d="M178.5,123.8a21.3,21.3,0,0,0,3-3.2,81.6,81.6,0,0,0,4.5-8.1c2.7-5.7,5.3-11.4,7.9-17.1a0.9,0.9,0,0,1,.7-0.5l-4.5,9.7c2.2-.6,6.7-7.8,7.6-11.5s2.4-8.6,3.7-12.9l-0.7-.3a12.8,12.8,0,0,1,1-2.4c1.8-2.7,3.7-5.4,5.7-8.1a2.5,2.5,0,0,1,1.1-.4,3.6,3.6,0,0,1-.4,1.3,30.3,30.3,0,0,0-6.7,12.7,7.1,7.1,0,0,0,0,1.1l4.4-10.3,0.5,0.2c-1.1,2.7-2.2,5.3-3.2,8-1.7,4.7-3.1,9.5-5.1,14a26.5,26.5,0,0,1-5.8,8.2c-3.3,3-4.7,6.9-6.5,10.6a64.3,64.3,0,0,1-6,11.1,3.2,3.2,0,0,0-.3.9,5.5,5.5,0,0,1-.3,1h-0.5a2.2,2.2,0,0,1,.1-1.1,25.8,25.8,0,0,0,2.4-4.5l-2.4,1.5h0Z" transform="translate(-23.3 -9)"/><path d="M163.9,154l-0.5,1.9c1.6-1.5,2.9-2.8,4.3-3.9a3.4,3.4,0,0,1,1.6-.2,3,3,0,0,1-.5,1.3c-5,4.3-10,8.7-15.2,12.7-1.9,1.5-4.7,2.4-7.1.9s-1.9-2.4-2.4-3.8,1.1-1.3,1.8-1.9a12.2,12.2,0,0,0,1.8-1.5c2.3-3.2,5.8-4.3,9.4-5.3l-1.4,1c-2.7,2.2-5.6,4.4-8.2,6.8-0.7.6-.8,2.1-0.9,3.1a2.1,2.1,0,0,0,1.7,1c2-.4,4-1.1,6-1.8l-0.2-.8h-2.3C157.2,162.1,160.9,158.7,163.9,154Zm-18.1,8.3-0.5-.3a9.5,9.5,0,0,0-.6,1.1,1.5,1.5,0,0,0,.4.4Zm4.4-4.3,0.2,0.3,0.9-.7-0.2-.3Z" transform="translate(-23.3 -9)"/><path d="M209.1,48.2a50.9,50.9,0,0,0-5.1,5.3c-1.2,1.7-1.9,3.8-2.8,5.8l0.7,0.4,3.4-4.8,0.4,0.3a1.4,1.4,0,0,1-.1.6c-4.7,6-6.7,13.1-8.3,20.4s-3.5,16-8.7,22.5a0.6,0.6,0,0,1-.7.2l2.9-4.8a7.8,7.8,0,0,0,1-1.7c2-7,3.9-14.1,5.9-21.1a82.1,82.1,0,0,1,3.1-8.8,3.4,3.4,0,0,0-.1-3.3c-0.3-.6.5-1.8,0.9-2.7l0.6-1.6L200,56.8l-0.3-.2c1.5-1.7,2.9-3.5,4.5-5.1s5.5-4.5,7.5-7.3,6.2-4.9,9.5-7a2.3,2.3,0,0,1,1.9-.2c-1.5,1-3.1,1.9-4.4,3-3,2.5-5.9,5-8.8,7.6l-0.8.8-0.3-.5-0.2.2Z" transform="translate(-23.3 -9)"/><path d="M193,146.8a6.8,6.8,0,0,1-.7,1.9c-4.4,4.4-8.7,8.9-13.3,13.2-2.6,2.5-6.1,3.3-9.6,3.6-1.3.1-2.7-.5-4-0.9a1.6,1.6,0,0,1-.1-1.2c1.1-3.8,3.7-6.6,6.6-9.1a3,3,0,0,1,1.1-.3,5,5,0,0,1-.6,1.8c-1.2,1.3-2.5,2.4-3.7,3.7s0.1,2.6.7,3.6a2.1,2.1,0,0,0,2,.3,51.3,51.3,0,0,0,15.3-11.3A64.1,64.1,0,0,1,193,146.8Zm-9.3,9.9-0.4-.4-6.7,5.6,0.6,0.7Zm-14,8.4,0.2-.6-2-.5v0.5Zm-2.9-3.1-0.9,2a3.6,3.6,0,0,0,1.3-.5A4.7,4.7,0,0,0,166.7,162Zm1.3-.1-0.4.2,0.8,1.2,0.4-.2Z" transform="translate(-23.3 -9)"/><path d="M178.5,123.8l-5,6.6-0.7-.5,4-6.6-0.3-.3-5.1,6.2a2.1,2.1,0,0,1-.3.5l-1.6.9a15.2,15.2,0,0,1,.4-1.7,7.1,7.1,0,0,0,.6-2.6l-5.5,6.1-0.5-.4,1.4-2,3.3-5.6a2,2,0,0,1,.8-0.4,2.4,2.4,0,0,1-.1,1,20.9,20.9,0,0,0-1.9,3.2,17.5,17.5,0,0,1,2.4-2.7c5.4-4,7.7-10.3,11.7-15.3a19.1,19.1,0,0,0,1.8-3.7l0.7,0.3L178,120.5l0.8,0.2a3.5,3.5,0,0,1-.2,1.2l-2.8,4.2,0.5,0.5,2.3-2.9h0Zm-2.2-2.1-0.8-.4-5.4,7.4,0.8,0.7a4.3,4.3,0,0,1,.5-1l4.1-4.8A7.3,7.3,0,0,0,176.3,121.6Zm3.8-7.2-0.4-.2-1.6,2.8,0.4,0.2Z" transform="translate(-23.3 -9)"/><path d="M193.4,119.2l-3,4.2-3,4.1-0.5.4-0.6-.4,5.2-8.5v-0.2a31.2,31.2,0,0,0-2.6,2.4c-1.6,1.9-3.2,3.9-4.8,5.8a2.7,2.7,0,0,1-1.2.9,3.3,3.3,0,0,1-1.3-.2,8,8,0,0,1,.5-1c1.1-1.8,2.2-3.5,3.3-5.3a4.4,4.4,0,0,0,.1-1.7c3.8-1.2,4.8-5.2,6.4-8.4,2.8-5.4,5.3-11,7.9-16.5a0.7,0.7,0,0,1,.7-0.5c-0.9,2.1-1.6,4.3-2.7,6.4-2.4,5-5,10-7.5,15-0.4.7-1,1.3-1.3,2a1.7,1.7,0,0,0,.3,1.4,1.5,1.5,0,0,0,1.1-.1l2.3-1.4a22.6,22.6,0,0,1-1.2,2.5,25,25,0,0,0-2.1,3.4l4.1-4.4h0Zm-6,.7-0.3-.2-0.2.2,0.2,0.2Z" transform="translate(-23.3 -9)"/><path d="M211.4,212.6l-2.2,4c-0.7,1.3-.1,2.2,1.1,1.8a27.7,27.7,0,0,0,6.5-3.1c2.4-1.6,4.4-3.8,6.7-5.5,0.8-.6,2-0.4,3.1-0.6a10,10,0,0,0,1.8-.8,20.3,20.3,0,0,1-4.6.4,2.7,2.7,0,0,1-1.3-2.3A49.7,49.7,0,0,1,226,201l0.6,0.4-0.7,1.2a20.1,20.1,0,0,0-2,2.7,8.4,8.4,0,0,0-.4,2.5c1.1,0.1,2.4.5,3.2,0.1,3.2-1.9,6.2-4,9.3-6l1-.3a2.2,2.2,0,0,1-.4.9l-8.8,7.1a2.8,2.8,0,0,1-1.8.6c-2.3-.3-3.6,1.5-4.4,2.8-1.7,3-4.6,4.1-7.4,5.4a13,13,0,0,1-4.6,1.1,2.4,2.4,0,0,1-1.4-1.7,57.8,57.8,0,0,1,2.7-5.4Z" transform="translate(-23.3 -9)"/><path d="M205.8,149.7l5.4-6.1c-0.8,4.4-16.4,17.4-20,17.2l2.9-1.3c-1.1-.1-2.4,0-3.1-0.5-2.3-1.6-2.6-2.8-1.1-5.1a67,67,0,0,1,5.3-6.3,1.1,1.1,0,0,1,1,0c-3.4,1.4-3.8,4.7-5.1,7.4a10.3,10.3,0,0,0-.5,2.7,9.1,9.1,0,0,0,2.6.1c6.2-1.5,10.2-5.8,13.1-11.2a5.6,5.6,0,0,0,.2-1.7h1.5a11.6,11.6,0,0,1-.6,1.6l-1.9,3Z" transform="translate(-23.3 -9)"/><path d="M205,121.7l4.5-4.1a3.5,3.5,0,0,1,1.2-.4,4.4,4.4,0,0,1-.2,1.3l-2.7,4.9,1.8-2.1,0.3,0.3-5,6.7-0.4-.2,5.1-9.2-0.7-.5-9.1,11-0.5-.4,4.5-9.2-0.3-.3-1.4,1.5h-0.2a17.3,17.3,0,0,0,1.4-1.8c0.5-.8.8-1.7,1.2-2.5a2.1,2.1,0,0,1,.7-0.9c0.1-.1.5,0.4,0.8,0.4s1.9,0.1,2.1-.3,1-2.4,1.7-3.6c-0.4,1.6-.4,4.1-1.3,4.5s-1.8,2-2.6,3a9.9,9.9,0,0,0-1,2l-0.7.5,0.3,0.3Zm1.2-3.7-0.6-.3-2.1,4.2,0.4,0.2Z" transform="translate(-23.3 -9)"/><path d="M190.4,82.4c-0.8,3-1.1,6.1-2.4,8.8-2,4.5-4.5,8.8-6.7,13.2l-5.8,11.4-0.3.3-4.6,2.4,0.6,0.7c1.2-1.7,2.5-3.2,3.5-5s2.8-5.6,4.3-8.3,2.7-4.1,3.8-6.3c2-4,3.9-8.1,5.6-12.2a25.3,25.3,0,0,0,1-5.2Z" transform="translate(-23.3 -9)"/><path d="M232.4,187.9c-1.2,2.2-2.5,4.4-3.6,6.7-0.1.2,0.4,0.8,0.8,1.6l-0.3.6c6.2-1.1,9.9-5.1,12.9-10.1l0.5,0.5-1.4,2,0.3,0.2,1.6-1.2a2,2,0,0,1,.8-0.1,1.6,1.6,0,0,1-.3.7c-3.7,2.7-7.4,5.5-11.2,8.1a3.7,3.7,0,0,1-5.2-.5,1.1,1.1,0,0,1-.4-0.7,26.8,26.8,0,0,1,2.2-6.1l-0.2,2.2,3.3-4.2Z" transform="translate(-23.3 -9)"/><path d="M230,47.7c0.4-2-.3-2.6-2.2-1.8h-0.5c-1.6-1.5-2.9-.2-4.3.5-4.9,2.3-7.7,6.7-11.3,10.4a34.6,34.6,0,0,0-3.7,5.4l-5.3,8.3-0.6.3a95.5,95.5,0,0,1,4.8-8.5,98.6,98.6,0,0,1,7.9-9.9,56.9,56.9,0,0,1,7.9-7.1c0.9-.7,2.6-0.1,4-0.2l3.7-.5L230,47.7h0Z" transform="translate(-23.3 -9)"/><path d="M232.4,142.6c0.5,0.4,1.3.8,1.3,1.2,0,3.7-.1,7.4-0.1,11.2,0,1.4,0,2.8,0,4.4,3.4-2.7,3.3-6.6,4.7-10.5a4.6,4.6,0,0,1,.5,1.6c-0.7,2.1-1.4,4.2-2.2,6.3a5.6,5.6,0,0,1-1.4,2.2,11.6,11.6,0,0,1-2.5,1.3,10.2,10.2,0,0,1-.3-2.2c0.2-4.6.6-9.1,0.8-13.7a3.4,3.4,0,0,0-.8-1.4v-0.4Z" transform="translate(-23.3 -9)"/><path d="M231.9,43.8c1.7-2.8,6.8-4,10.2-2.9a13.1,13.1,0,0,1,7.4,5.7c1,1.6,2.7,2.7,4.1,4.1l2,2.2-0.5.5c-2.2-2.1-4.7-4-6.5-6.3-4.3-5.3-7.8-6.8-14.1-4.8A11.2,11.2,0,0,0,231.9,43.8Z" transform="translate(-23.3 -9)"/><path d="M204.6,92.4c1.6-10.5,5.4-20,12.7-28C210.7,72.6,207.6,82.4,204.6,92.4Z" transform="translate(-23.3 -9)"/><path d="M204.8,210.2c-1.9,1.5-3.7,3.1-5.6,4.5a20.5,20.5,0,0,1-3.9,2.2,2.9,2.9,0,0,1-2.4.1,2.5,2.5,0,0,1-.4-2.4c1.2-2.3,2.6-4.4,4-6.5a1.2,1.2,0,0,1,.6-0.1,1.7,1.7,0,0,1,0,.8,29.5,29.5,0,0,0-2.5,3.1,11.3,11.3,0,0,0-.8,3c1,0,2.2.4,3-.1s4.1-2.8,6.1-4.3l1.6-1Zm-10.6,6.3,0.2-.5-0.9-.3a1.8,1.8,0,0,0-.1.4Z" transform="translate(-23.3 -9)"/><path d="M200.7,202.1c-3.3-3.1-1-5.6.8-8.1a17.7,17.7,0,0,0-1.2,2.9,18.2,18.2,0,0,0-.2,3.1c1.2-.1,2.6.2,3.4-0.4s4-3.6,6-5.4a3.8,3.8,0,0,1,1.2-.5,2.8,2.8,0,0,1-.1,1.1A18,18,0,0,1,200.7,202.1Z" transform="translate(-23.3 -9)"/><path d="M215.7,197.6c-1,1.3-2,2.6-2.9,4a7,7,0,0,0-.5,2.2c0.8,0.1,1.9.6,2.5,0.3,2.4-1.5,4.7-3.2,7.1-4.8a4.2,4.2,0,0,1,1.3-.3,1.8,1.8,0,0,1-.2.9,68.1,68.1,0,0,1-7.7,5.2c-0.9.5-2.7-.4-3.8-1s0.2-2.1.7-3a36.3,36.3,0,0,1,3-3.9Z" transform="translate(-23.3 -9)"/><path d="M218.8,185.7l-1.5,3.3c-0.7,1.4-1.4,2.8-2,4.2a1.7,1.7,0,0,0,.9.9c4.1-1.2,7.8-3.2,10.4-6.8a2.6,2.6,0,0,1,1.1-.5,2.2,2.2,0,0,1-.3,1c-2.2,2-4.3,4.1-6.7,5.9-0.8.6-2.3,0.5-3.4,0.7h-0.5l-1.9.6c0-1-.4-2.1,0-2.9,1-2.4,2.3-4.6,3.5-6.9Z" transform="translate(-23.3 -9)"/><path d="M235.9,102.3l-1.4-5.2-1.6,1,2.1-6.9,1,10.8Z" transform="translate(-23.3 -9)"/><path d="M231.4,97.1l-1.6-13.3h0.5L232,97.1h-0.6Z" transform="translate(-23.3 -9)"/><path d="M198.5,61.5L193,75.3l-0.5-.2,5.7-13.7Z" transform="translate(-23.3 -9)"/><path d="M211.2,46.6l9.6-7.6,0.3,0.4-9.7,7.4Z" transform="translate(-23.3 -9)"/><path d="M56.1,181.3a5.1,5.1,0,0,1-1.9.8,2,2,0,0,1-.9-1.5,15.8,15.8,0,0,1,.3-2.9C54.8,178.7,52.2,182,56.1,181.3Z" transform="translate(-23.3 -9)"/><path d="M227,46.9l1.7,5.3h-0.3L226.7,47H227Z" transform="translate(-23.3 -9)"/><path d="M134.7,166.5h-3.7v-0.3h3.7v0.3Z" transform="translate(-23.3 -9)"/><path d="M229.2,57.9l-0.8-4.6h0.2l0.9,4.6h-0.4Z" transform="translate(-23.3 -9)"/><path d="M248.2,72.6v-1h0.2v1.1h-0.2Z" transform="translate(-23.3 -9)"/><path d="M239.9,72.9v-2h0.3l-0.3,2h0Z" transform="translate(-23.3 -9)"/><path d="M197.1,229.5v0.3h-0.1l-0.2-.3Z" transform="translate(-23.3 -9)"/><path d="M258.1,24.8v2.8h-0.5V24.8h0.4Z" transform="translate(-23.3 -9)"/><path d="M261.3,34.8V30.9h0.3l-0.2,3.9h-0.1Z" transform="translate(-23.3 -9)"/><path d="M258.3,28.8l0.3,2.1h-0.4L258,28.9h0.3Z" transform="translate(-23.3 -9)"/><path d="M261.4,36v1.5H261V36h0.4Z" transform="translate(-23.3 -9)"/><path d="M259.6,35.2V34.6h0.1v0.6h-0.2Z" transform="translate(-23.3 -9)"/><path d="M262.2,35.2V34.7h0.1v0.5h-0.1Z" transform="translate(-23.3 -9)"/><path d="M245.2,28L245,25.6h0.3V28h0Z" transform="translate(-23.3 -9)"/><path d="M244.7,23.5V22.4h0.3l-0.3,1.1h0Z" transform="translate(-23.3 -9)"/><path d="M230.6,28.3V25.9h0.6l-0.5,2.3h0Z" transform="translate(-23.3 -9)"/><path d="M231.1,21v0.5H231V21h0.1Z" transform="translate(-23.3 -9)"/><path d="M253.6,26.1l0.2-1.3h0.3v1.3h-0.3Z" transform="translate(-23.3 -9)"/></svg>