<svg id="factory_at-risk_Image" data-name="factory(at-risk) Image" xmlns="http://www.w3.org/2000/svg" viewBox="0 0 281.8 286.2"><title>factory(at-risk)</title><path d="M34.6,224.1c3.9-1.5,7.8-3.1,11.8-4.4,1.8-.6,3.3-1,3.1-3.4s0-4,0-6.3l2.1-.3c0,0.7,0,1.5,0,2.2s0,3.8,0,6c1.7-.7,3.7-0.9,4.5-1.9s0.9-3.2,1.1-4.9a22.2,22.2,0,0,0-.2-3.7l3.1-.8-0.7,7.8,12.4-4,10.5-3.1c2.7-.8,2.3-3.2,2.4-5.1,0.7-8.1,1.1-16.1,1.6-24.2a5.5,5.5,0,0,1,.5-2.8,3,3,0,0,1,2.4-.6,2.1,2.1,0,0,1,1.5,1.2q-0.1,6.5-.5,12.9c-0.4,5.9-.9,11.8-1.3,17.8-0.1,1.9,1.4,2.1,2.7,2.3,6,1.2,11.9,2.5,18,3.3,2.8,0.3,5.7-.5,8.6-0.9,0.4-.1.9-1.2,1-1.9,0.6-4,1-8,1.5-12s0.5-5.2.9-7.7a6.5,6.5,0,0,1,1.3-2c0.7,0.7,2,1.4,2,2.1-0.1,4.2-.5,8.4-0.7,12.7-0.1,2.1,0,4.1,0,6.2,2.5,0.1,3.3-.7,3.2-3.1a10.3,10.3,0,0,1,.2-2.7,1.7,1.7,0,0,1,1-1,1.5,1.5,0,0,1,1,.6c1.7,1.8,3.7,3.3,6.3,3s3.7-1.3,5.5-2a1.1,1.1,0,0,0,.3-0.7c0.9-7.9,1.7-15.8,2.6-23.8,0.6-5.9,1.5-11.7,2-17.6s0.6-11.2,1-16.8c0.2-2.6.7-5.2,0.9-7.8a3.4,3.4,0,0,0-1-1.7c-0.7-.9-1.8-1.7-2-2.6s0.1-3.3,2.2-3.9,1.4-1.4,2.2-1.8a10.8,10.8,0,0,1,3.5-1.3c1.1-.2,2.3.3,3.4,0.2a2.2,2.2,0,0,0,1.6-1.2h-3.4a14.2,14.2,0,0,0,2.6-1.2,16.8,16.8,0,0,0,2.1-2.2l-0.4-.5a13.5,13.5,0,0,1-3.3,1.7,12.7,12.7,0,0,1-4-.1,3.3,3.3,0,0,1-.1-1c0.8,0.4,1.8,1.2,2.4,1a13.7,13.7,0,0,0,3.5-2.3,7.1,7.1,0,0,0,1.9-2c1.2-2.2,2.2-4.6,3.4-6.9s3.7-6.6,5.4-10.1,3.5-7.5,5.1-11.3a7.2,7.2,0,0,0,.2-2.3h0c1.1-2.4,2.1-4.9,3.3-7.2a6.5,6.5,0,0,1,1.7-1.8c-3.6,4.7-4.1,10.6-5.9,15.9-0.7,2.1-2.1,3.9-3.2,5.8a5.2,5.2,0,0,0-.5,1.1c-1,3.7-1.6,7.7-3.2,11.1s-5,8.7-7.4,13.1a8.7,8.7,0,0,0-.8,3.5,3,3,0,0,0,1.6.8c2,0.4,1.5,2.1.9,2.8-2.9,3.7-1.5,7.9-1.7,11.9-0.2,6-1,11.9-1.4,17.8-0.6,8.5-1.1,17-1.8,25.5-0.3,4.1-.8,8.2-1.1,12.3-0.1,1.4-.2,2.9-0.2,4.3a1.1,1.1,0,0,0,.4.7c1-.2,2.4-0.1,3-0.8s0.5-1.9.4-2.8a18.8,18.8,0,0,0-.9-2.8c-0.3-.9-0.8-1.7.7-2.4s0.9-2.4,1-3.7c0.5-4.4.9-8.9,1.3-13.3s0.7-6,.9-8.9a7.3,7.3,0,0,0-.6-2.2,2.1,2.1,0,0,1,0-.8l3.1-23.2c0.3-2.4.7-4.9,1-7.3a20.1,20.1,0,0,0,0-2l-1.3,1.9c-0.5-1.1-1.4-2.2-1.2-2.7a27.5,27.5,0,0,1,2.7-4.3l2-3.1c0.4-.5.8-1.3,1.3-1.3a24.4,24.4,0,0,1,5.2.1,2.1,2.1,0,0,1,1.3,1.7c-0.4,1.9,1.1,2.4,1.9,3.3s1.7,1.3,1.6,1.6-1.1,3.3-2,3.4c-4,.7-3,3.8-3.3,6.1-1,9.9-1.9,19.8-2.6,29.7-0.5,6.2-.6,12.5-0.9,18.8a7.5,7.5,0,0,0,.2,1.2c2.4-2.5,6.5-1.3,8.2-4.7,1.4,2.6,3.6.5,5.5,0.8a66.5,66.5,0,0,0,6.9.3c0.1-1.9.2-4.5,0.3-7s0.3-5.2.5-7.8a14.4,14.4,0,0,0,.4-2.1c-0.1-.9,1.8-2.6-0.8-2.8a0.8,0.8,0,0,1-.3-0.7c0.3-1,.6-2.7,1.2-2.8a9.7,9.7,0,0,1,4.7.2c1.7,0.5.9,1.8,0.4,2.8a3.4,3.4,0,0,0-.5,1.4c-0.1,3.5-.2,6.9-0.4,10.4s-0.5,5.6-.7,8.4a1.2,1.2,0,0,0,.5.9l6.6,2.7,4.6,1.5-0.2.6-0.9-.4-0.2.3,3.2,2.9-0.6-1.9,10.4,9.1c0,3.5,0,8.1.1,12.6a1.8,1.8,0,0,0,1.2,1.2c1.3,0.2,2.6-.1,3.8.2s2.9-.6,2.7-2.6-0.1-3.2-.3-4.9,0.3-3.1,4-3.2L228,217l3.5-.2,11.9,0.7c1.6,0.1,2.6,1,2.3,2.8s0.6,1.4,1.6,1.2l8.1-1.6a34.5,34.5,0,0,0,4-1.4l0.2,1.6c0.3,2.2.6,4.3,1,6.5,0.1,0.3,1,.4,1.2.7,1.5,2.9,2.9,5.9,4.3,8.9a7.9,7.9,0,0,1,.2,2.5l-4.7.4c-0.8,0-1.6-.1-2.3,0a6.5,6.5,0,0,0-.1,1.5c-0.3,2.8-.8,5.7-1,8.5-0.8,7.9-1.5,15.9-2.3,23.8a67.5,67.5,0,0,1-.8,7.4c-0.7,3.4,1.8,4.4,3.9,5.6a17.3,17.3,0,0,0,5.1,1.9,8.5,8.5,0,0,0,4-.4c1.3-.4,5.9.1,7,1a4.1,4.1,0,0,0,1.7.8l12.5,2.5a1.2,1.2,0,0,1-.6.3c-5.1-.7-10.3-0.5-15-3.6-1.3-.8-3.7,0-5.6.1s-1.3.6-1.8,0.5l-9.7-3.5-2.2-.4a13,13,0,0,0-2.4,1.4c-2.4,2.1-4.9,1.3-6.4-1.4a16.3,16.3,0,0,0-4.8-4.9c-0.7-.5-2.4.1-3.5,0.5a26.6,26.6,0,0,0-4.7,2.8c-2,1.4-3.9,2.4-6.5,1.6a7.4,7.4,0,0,0-6.1.3,6.4,6.4,0,0,1-4,.2c-2.2-.4-4.9-0.6-6.3-2s-2.7-.3-3.9-0.2l-4.1.6a15.7,15.7,0,0,0-2.3.3,19.6,19.6,0,0,0-2.1,1,4.2,4.2,0,0,1-1.7.6c-1.4-1.7-3-1.1-4.5-.4a8.3,8.3,0,0,1-7.3-.1l-0.7,1a30.9,30.9,0,0,0-1.3-3.6,1.7,1.7,0,0,0-1.5,0c-1,1.2-1.9,1.1-3,.3s-1.8-.5-2.3.7-1.9,2.4-4.1,1.1a13.8,13.8,0,0,0-2.5-.8,0.8,0.8,0,0,1-.5-0.4c-0.4-2.7-2.3-3.9-4.5-5s-2-.5-3-0.8l-3.7-1.5,1,1.1-0.2.3a5.1,5.1,0,0,1-1-.8c-1.5-1.9-2.5-3-4.5-.7s-5.4.5-6.3-.4l-1.6-1.3c-0.6-.4-1.3-1.1-1.7-1-2,.7-2.8-1-3.7-2s-2.3-1.3-3.3-.4a11.3,11.3,0,0,1-9.3,2.6c-0.8-.1-1.8,1.1-2.7,1.7a12.1,12.1,0,0,1-2.2,1.3c-1,.4-2.1.4-3,0.8-3,1.3-5.7,1.6-8.6-.4-0.7-.4-2.1.2-3.1,0.4a7.9,7.9,0,0,1-1.8.4l-5.1-.7a2.1,2.1,0,0,1-1-.2c-1.7-2.4-3.8-1-5.7-.5H92.3c-2.5-2.2-5.5,0-8.1-.9s-3.4-.6-5.1-1a14.7,14.7,0,0,1-2.4-1,1.9,1.9,0,0,0-.8-0.3l-6.3,1a4.2,4.2,0,0,1-1.1.2l-3.1-.5L61.6,273l-1.4-.3c0.1-2.1-.9-1.3-2.2-0.9s-4.1.4-6.1,0.9a4,4,0,0,0-2.2,1.8c-1.1,1.8-1.8,1.9-3.3.4s-1.9-2.5-2.8-2.4c-3.1.3-6.5-.8-9.2,1.5a4.2,4.2,0,0,1-4.6.6c-2.2-.8-4.7-1.2-6.4,1s-6.3,2.9-9.8,3.6l-5.3,1a1,1,0,0,1-1-.7c4.2-.7,8.5-1.3,12.7-2.2,1-.2,1.7-1.4,2.6-2l3.3-2a2,2,0,0,0,.9-1.1c0.6-7.7,1.3-15.4,1.7-23.1s0.2-12.9.2-19.4a1.4,1.4,0,0,0-1-.8,7.9,7.9,0,0,1-3-.6c3-2.3,6.5-3,9.8-4.1l-2.9,1.7,0.2,0.6,30.9-10.1,0.3,0.8c-1.9.5-3.9,0.8-5.8,1.4-7.7,2.6-15.3,5.1-22.9,7.9-2.2.8-5.5,1.1-5.1,4.9a26.2,26.2,0,0,1,.3,2.7c0,6.6.1,13.1-.1,19.7s-0.6,10.4-1.2,15.6c-0.4,3.5-.7,3.5,2.7,4.4a4,4,0,0,0,5-3.6c0.2-3.2.5-6.4,0.5-9.7s1.2-4.3-1-6a1.9,1.9,0,0,1,.1-1.8,39.2,39.2,0,0,1,4.8-3.9,71,71,0,0,1,7.9-4.9c1-.5,2.6,0,3.9-0.1,5.4-.4,10.7-1.3,16.1-0.1a5.7,5.7,0,0,1,2.2.5c1.7,1.4,3.4,2.9,5,4.5l3.9,4.1c0.5,0.6,1.3,1.3,1.2,1.8-0.1,2.3-.5,4.5-0.9,7L99,259.8c0.2-2,.5-4.2.6-6.3,0.6-8.1,1.2-16.2,1.6-24.3,0.1-1.6.8-3.4-1.5-4.8s-5.5-4.8-8.2-7.2l-1-.8v0.5a75.2,75.2,0,0,0-6.3-5.5,5.1,5.1,0,0,0-3.9-.6c-3.9,1.2-7.6,2.8-11.5,4.2l-5.2,1.8a0.8,0.8,0,0,1,.4-0.8l18.2-6.5c1-.3,1.9-0.9,1.3.8,4-.8,4.4,4,7.7,4.8l-0.9-1.2c-1.3-1.7-2.5-3.5-3.9-5.1a2.9,2.9,0,0,0-2.2-1q-6.6,1.4-13.1,3.2a66.3,66.3,0,0,0-7.7,2.7c-4.2,1.7-8.3,3.8-12.5,5.4s-6,2-9.1,2.9Zm111.8,50.1,0.3-.7h-0.4v0.8l0.7,0.5v-0.4h-0.9Zm-11.6-30.7h-0.1l1.2-.9-0.2-.3-1.6,1.1,0.2,0.3ZM150,270.2h0a2.2,2.2,0,0,0-.7.4,0.7,0.7,0,0,0,.2.6,1.2,1.2,0,0,0,.6-0.1Zm0-17.8V253l0.3-.2-0.4-.4-0.3-2-0.9.5Zm-2.2,15.7,0.5-1.2-0.3-.2-0.8,1.2,0.6,0.2,0.9,1.8,0.7-.3-0.6-1.8Zm8.7-41.1,3.9-2.8-0.6-.7-3.3,3.5-0.8.3,0.4,0.5Zm-10.5,38.3,0.7-1.5h-0.7v1.6l0.7,1.6a2.4,2.4,0,0,0,.9-0.8,3.3,3.3,0,0,0-.2-1.3Zm4.6-14,0.7,0.9,0.3-.7-1-.2v-3.9C148.3,249.1,150.4,250.1,150.7,251.3Zm-16.9-42.6-0.4,1.3,0.5,0.2,0.6-1.1-0.8-.4-3-3.7-0.5,1.5a19.8,19.8,0,0,0,1.8,1.5A11.6,11.6,0,0,0,133.8,208.7Zm10.1,31.4-8.3,5.6-4,2.9a1.2,1.2,0,0,0,1.2-.2l7.6-5.3c1.2-.9,2.3-2,3.4-3l8.2-5.2a8.1,8.1,0,0,0-3.8,1A46.9,46.9,0,0,0,143.8,240.1Zm-29.6,18.5-2.2,2.3,0.4,0.5,2.4-1.8-2,2-1,1.2a1.4,1.4,0,0,0,.6.4,5.5,5.5,0,0,0,1.7-1c1.5-1.5,2.9-3.2,4.5-4.6a40.3,40.3,0,0,1,3.4-2.6l-0.2-.3-3.8,2.2,4.5-3.4a4.4,4.4,0,0,0-2.4.8l-3.3,2.2v-0.8l-6.6,4.4a2.4,2.4,0,0,0,1.8-.3Zm-30.3,5.7h1.2l0.2-.9-4.6-1.5a5.6,5.6,0,0,0,7.6,3.6L84,264.3h0Zm92.7-47a4,4,0,0,1,.2,1.1c-1.2,3.6-2.1,7.2-5.6,9.7-5.1,3.7-9.8,8-14.7,12a5.5,5.5,0,0,0-2.2,4.1c-0.2,2.3-.6,4.5-0.8,6.8q-1.2,11.3-2.4,22.6c-0.1.7-.1,1.3-0.2,2.4l1.2-.9c1.6-1,3.2-1.9,4.9.1s2.4,2.8,4.5,1.6H162c2,2.1,5.8,2.2,6.2,5.4a10.2,10.2,0,0,1,1.8,1c2.3,2.2,3.1,2,5-.4,0.4-.5,1.8-0.4,2.7-0.4s1.5,0.4,1.8.1,2.1-1.8,3.6.2c0.5-4.2,1-7.8,1.4-11.5s0.3-7.7.8-11.5c0.8-6.1,2-12.1,2.8-18.2s1.4-14.6,2.2-21.9c0.5-4.3,1.1-8.6,1.6-13a1.8,1.8,0,0,0-.1-1.2c-0.8-.8-1.9-1.3-2.7-2.1l-10.3-10c-1.2-1.2-2.2-2-4.1-1-4.7,2.5-9.6,4.7-14.3,7.2a3.8,3.8,0,0,0-1.8,2.3c-0.3,1.8-.1,3.6-0.3,5.4-0.5,4.2-1,8.3-1.6,12.4-0.3,1.9-.6,3.8-0.9,5.8,2.5-1.8,5.1-3.3,7.2-5.3s7.3-4.8,11.8-4.1l0.8,2.2-63.5,46.4v-1.5a4.2,4.2,0,0,1-1,1.4,23.4,23.4,0,0,1-5.3,1.4c-4.6.3-9.3,0.6-13.9,0.4s-8.2,1.7-12.3-.6c-0.1,1.4-.3,2.8-0.3,4.2a2.9,2.9,0,0,0,.4,1.8,34.5,34.5,0,0,0,4.1.1,8.4,8.4,0,0,1,1.6.1l12.1-1c2.9-.3,5.7-0.9,8.6-1.2s5.1-.1,7.7,0a6.6,6.6,0,0,1,1.6.5,5.6,5.6,0,0,1-1.6.7l-17.2,1.2-8.2.4H79.8a5.3,5.3,0,0,0-1.6.6l1.7-18.7a20.6,20.6,0,0,0-3.4-.6l-10.5.2c-0.8,0-2.1.5-2.2,1-1,4.6-1.7,9.2-2.5,13.8-0.4,2.2,1.2,4.5,3.1,4.5l4.4,0.3,0.7-.2,6.4-.9a4.7,4.7,0,0,1,1.6.7l2,0.6a50.7,50.7,0,0,0,5.2,1.2,12.4,12.4,0,0,0,2.9-.3c0.6-.1,1.5-0.3,1.8-0.1a4.1,4.1,0,0,0,5.2.6c1.5-.8,2.3.2,3.5,0.6a47.3,47.3,0,0,0,7.4,1.4c0.2,0,.4-0.5.7-0.6s3.1-.9,3.8-0.3c2.8,2.1,5.4,1.7,8.2.3,0.7-.4,1.6-0.4,2.4-0.7l2.6-1.3c1.2-.6,2.5-1.8,3.7-1.6a10.2,10.2,0,0,0,7.8-2.2c1.6-1.2,3.1-1.4,4.6.3a3.3,3.3,0,0,0,2.8,1c0.7-.3.8-1.7,1.2-2.7l-0.6-.4-1.1.9-1,1a4.2,4.2,0,0,1-.4-1.6c0.9-5.1,1.9-10.3,2.9-15.4,0.2-1.1.2-2.1,0.3-3.9l-27.1,19.7c9.1-7.7,18.9-14.5,28-21.2a19.1,19.1,0,0,0,3-1.7c2.2-2,4.3-4.2,6.6-6,6.1-4.8,12.4-9.5,18.6-14.2a1.9,1.9,0,0,0,.5-0.8l3-7.4A13.6,13.6,0,0,1,176.6,217.3Zm81,20.7h-0.1c0.5-2.8.9-5.6,1.5-8.4s-0.1-2.8-2.4-2.8-7.2-.1-10.8-0.3c-0.7,0-1.4-1.1-2.1-1.1l-23.2-.2c-3.8,0-4.6.1-4.1,4a1,1,0,0,1,0,.2l-2.6,21.4c-0.4,3.5-1,7-1.3,10.6-0.6,6.2-1.2,12.5-1.8,18.7-0.2,1.6-1.1,3.3,1.2,4a15,15,0,0,0,3.7.8c1.5,0.1,3.2.3,4.5-.3a8,8,0,0,1,5.9-.3,6.7,6.7,0,0,0,6-1.2,28.8,28.8,0,0,1,5.6-3.3c3.8-1.5,7.9,1,9.1,4.9a3.5,3.5,0,0,0,1.9,1.9c1.3,0.6,5.2-1.8,5.7-3.2a1.7,1.7,0,0,0,0-.8,9.1,9.1,0,0,1-.6-2.7c1.3-11.5,2.6-22.9,3.9-34.4l1-8.9h-0.4Zm-41.1-31.7a15.2,15.2,0,0,0-3.1-.8l-19.7-.3a1.4,1.4,0,0,0-1,.9c-0.6,6.5-1.2,13-1.8,19.5-0.1,1.2-.5,2.4-0.7,3.6-0.9,8.1-1.7,16.2-2.6,24.2-0.5,4-1.2,7.9-1.8,11.8-0.3,2.2-.6,4.4-0.8,6.6s-0.1,2.5-.2,3.7-0.6,4.2-.8,6.3-0.1,2.4.2,2.5a20,20,0,0,0,5.5.9c2.1,0,4.1-2.6,6.2.1a0.8,0.8,0,0,0,.7,0c1.3-3,4.4-1.2,6.5-2.6s3.7-.5,5.5-0.8a1.7,1.7,0,0,0,1.1-1.2c0.3-3.4.3-6.8,0.7-10.1s1.3-7.5,1.7-11.3c0.8-6.4,1.3-12.9,2-19.3s1.4-12.2,2.1-18.3c0.3-2.9.6-5.8,0.9-8.8h-0.5l-1.2,7.7h-0.3Zm-66.8-72.4a8.2,8.2,0,0,0-.8,1.8c-0.2,1.5-.3,3.1-0.5,4.6-0.5,5.3-1.1,10.5-1.6,15.8s-0.5,7.9-.9,11.9-1.2,10.6-1.8,15.9-0.7,9.6-1.3,14.4c-0.3,2.3-1.3,4.6,2.3,5l7.6,1.2c0.7-9.7,1.4-19.1,2-28.6,0.1-1.8-.2-3.7-0.1-5.5,0.4-4.7,1.1-9.4,1.5-14.1,0.1-.7-0.9-1.5-0.8-2.1,1.4-7.1.9-14.3,0.5-21.4a1.3,1.3,0,0,0-.7-0.9l-5,.6a3,3,0,0,0-1,.6ZM122.5,249.7c-3.6,0-7-.4-10.4.1s-4.5.3-4.6-2.4,1.2-5.5,4-5.3l7.4,0.7c1.8,0.2,3.5.5,5.3,0.5s3.7-.8,5.3-0.3c4,1.2,5.3-2.4,7.9-3.6a3.1,3.1,0,0,0-1.3.1,20.9,20.9,0,0,1-4.3.4c-3.8-.3-7.6-1.1-11.4-1.3s-7.7.3-11.6,0.3a2,2,0,0,1-1.5-1.3,16.8,16.8,0,0,1,.3-4.3,1.8,1.8,0,0,1,1.2-1.2c2.2,0,4.5.2,6.7,0.2h3.8c6.8,0.4,13.5.9,20.3,1.2,1.7,0.1,2.8.1,2.3,2.3,3.3-1.3,2.4-4.3,3.3-6.6H143l-7.4-.7a19.2,19.2,0,0,1-2,.3c-2-.4-3.9-1.2-5.9-1.4-4.5-.5-9-0.7-13.5-1s-6.8-.4-10.1-0.9c-1.6-.2-1.9.4-2,1.6-0.3,3.5-.6,7-0.8,10.5s0.1,6.5-.1,9.7-0.8,8.8-1.3,13.6c3.7-1.3,7.5.6,10.7-1.9Zm-60.3,4.4a7.6,7.6,0,0,0-1.3-1.6,58.4,58.4,0,0,0-7-4.2c-2.1-.9-3.9-3.6-6.8-1.3s-3.9,2.7-5.7,4.2a16.9,16.9,0,0,0-2.5,2.8c-0.6.8-1.6,1.7-1.7,2.6-0.4,4.8-.6,9.5-0.8,14.3a1.4,1.4,0,0,0,1,.8l6-.3a2.5,2.5,0,0,1,1.5.6c0.9,0.7,1.6,1.7,2.6,2.3a1.7,1.7,0,0,0,1.6-.3c1.1-2.1,2.9-2.5,5-2.6s3.1-.7,4.7-0.9,1.8-1.6,2-2.9,0.8-4.6,1.2-6.9l1.2-7Zm96.6-58.8a24.9,24.9,0,0,1,2.7-1.6l5.5-2.2a1.6,1.6,0,0,0,.7-1.2c0-1.4-.2-2.9-0.1-4.3s0.5-5.7.8-8.6q0.8-10,1.6-20c0.6-7.7,1.2-15.5,1.9-23.2,0.2-2-1.2-2.3-2.5-2.4s-3.1-.2-3.5,1.8c-0.8,4.5-1.6,9-2.2,13.5-0.8,7.1-1.5,14.2-2.2,21.4s-1.3,16.1-1.9,24.2a4.2,4.2,0,0,1-.3.8Zm85.9,23.5-2.3-.5c-8.1-.9-16.1-1.1-24.2.3a1.4,1.4,0,0,0-1,.9,25.3,25.3,0,0,0-.4,3.9,1.2,1.2,0,0,0,.8.9c3.6,0.2,7.2.5,10.9,0.5s7.1-.4,10.6-0.4,4.9,0.1,5.4-4.7C244.6,219.6,244.7,219.3,244.8,218.9Zm-53.6-15.1c1.6-3.7.1-7-3.3-8.8-1.3-.6-2.5-1.4-3.7-2.2l-1.5-1,1.4,2.6c-1.8-2.1-3.2-3.7-4.7-5.2s-1.2-.2-1.9-0.3,0,2,.5,2.5c2.9,2.6,5.9,5,8.8,7.6S189.8,202.2,191.2,203.8Zm25.2-.2a18.2,18.2,0,0,1-3,0c-1.4-.3-2.7-0.9-4.1-1.1l-16.3-1.9a13.8,13.8,0,0,0-.2,2.6,1.3,1.3,0,0,0,1,.8c4.7-1.6,9.5,0,14.2-.2,1.2-.1,2.4.8,3.6,1a26.3,26.3,0,0,0,3.6.1h1.2v-1.2Zm-39.6-14.3-0.6-.8c-2,.8-4.1,1.5-6,2.4s-6.7,3.6-10,5.6c-0.8.5-1.2,1.6-1.8,2.5a166,166,0,0,0,15.7-7.1C175.2,191.4,175.9,190.2,176.8,189.3Zm-63.5,23.5v0.7c1.8,0.2,3.6.3,5.3,0.6s3.5,1.1,5.3,1.5a16.9,16.9,0,0,0,3.3.1,15.9,15.9,0,0,0-.1-3.9c-0.1-.4-1.6-0.7-2.4-0.7-2.3.2-4.6,0.6-7,.9Zm59.1-77.6,2.1-1.3c1.9-1,2-2.7.3-3.9a13.4,13.4,0,0,0-2.8-1.3c-3-1.1-8.1,1.1-9.2,4.1a2.4,2.4,0,0,0,.3,1.2,2.8,2.8,0,0,0,1.4-.5,4.4,4.4,0,0,1,5-2.6C171.5,131.4,173.5,132,172.4,135.2ZM265.3,237l-4.6-8.7a35,35,0,0,0-1.3,6.9c-0.2,1.7.2,2.5,2.1,2.3ZM148.8,131a63,63,0,0,1,6.4.1c1.3,0.1,3.2-.2,2.8,2.3,1.6-1.2,1.9-3.1.8-3.3-3.3-.7-6.6-1.2-9.9-1.8l0.2,1.1-1.6,1.4a5.3,5.3,0,0,0-1.4,1.7,1.9,1.9,0,0,0,.9,1.4,2.8,2.8,0,0,0,1.5-.3l-0.9-.9,1.2-2.4V131Zm24.1-3.6a1.3,1.3,0,0,0,.4-0.7c-0.3-.5-0.9-1.3-1.3-1.3a27.1,27.1,0,0,0-4.7.8,2.5,2.5,0,0,0-.6,1.1,2.4,2.4,0,0,0,.9.4Zm-12.7-8.6c2.7-3.8,5.5-7.5,5.8-12.4Zm-10.4,8v0.6a3.5,3.5,0,0,0,1,.4h3.8a3.7,3.7,0,0,0,1.3-.6,3.4,3.4,0,0,0-1.1-1,10,10,0,0,0-2.9-.3A8.2,8.2,0,0,0,149.8,126.9ZM99.2,265.7c-1.4-1.5-6.7-1.5-7.5,0h7.5Zm67.7-42.9-0.5-.7-8.5,5.7,0.3,0.4Zm-4.8,4.7-0.4-.6-7.5,5.1,0.4,0.6ZM57.4,215.3l0.6,0.2,1-7.6H58.2Zm3.9,35.2,0.4-.4L56.3,245l-0.7.7Zm44.8,14.3v-0.5h-5.7a3.8,3.8,0,0,0-.7,1.4ZM66.2,251.4l0.4-.4-6.5-5.4-0.4.5Zm35.5,10.5,2.5,2.2a2.8,2.8,0,0,0,.5-1.3C104.4,261.5,103.7,260.7,101.7,261.8Zm46.9-26.5-0.4-.6-6.4,4.6,0.4,0.5ZM108,261.1l-0.3-.2a9.7,9.7,0,0,0-.9,1.3,14.2,14.2,0,0,0,2.2,1.6,2.2,2.2,0,0,0,.5-0.7l-1.6-1.8v-0.2Zm-18.6,4.5L90,265c-1.1-.7-0.5-3.4-3.4-2.4Zm8.8-1.7-1.7-2.3-1,.6,1.7,2.5ZM64.5,247.2l-0.6.6,4.4,4.1,0.6-.6Zm5.5,4.3,0.6-.7L66,246.4l0.4-.3Zm28.5,9.8-1,.6,1.8,2.8a2.2,2.2,0,0,0,.5-1A20.7,20.7,0,0,0,98.5,261.3Zm44.7,1h-0.6l-0.4,4.8a9.1,9.1,0,0,0,1-1.9,4.5,4.5,0,0,1,.9-0.9l-1.1-.5Zm103.2-38.5,4.7,0.2C249.5,223.1,248.2,221.6,246.4,223.9Zm-20.4-8h0.4l0.7-7.3h-0.6ZM80.2,262.8H79.7c0,0.7-.3,1.7.1,2.1s1.4,0.6,2.6,1Zm70,3.2h1l-0.4-3.8H150Zm-4.8-12.8h0.9l0.3-2.5c-0.5.2-1.3,0.3-1.4,0.7A4.4,4.4,0,0,0,145.4,253.2Zm-55.3,8.6a4.3,4.3,0,0,0-.7,1l1.6,2.1a2,2,0,0,0,.5-0.5Zm60.5,11.5-2.2,1.6,1.7,1Zm18.7-56.1v1.8l3-1.5v-0.3h-2.9Zm-68.1,47.2a3.7,3.7,0,0,0,.7-1.1l-1.3-2-0.6.5C100.3,262.6,100.7,263.4,101.2,264.5Zm50.1-5.9h0.5l0.3-4.3h-0.4l-0.8,1.7ZM149,232.2l0.2,0.2,5.5-3.8-0.3-.4Zm7.7-93.1h0.4v-4.2h-0.4v4.2ZM129,247.3l-0.2-.4-4.8,3.3,0.3,0.5ZM96.2,262.9a8.8,8.8,0,0,0-1.9-.7,2.2,2.2,0,0,0-1,.7l1.6,1.4Zm103.6-68.8-0.6.5,3,3.4,0.8-.8ZM52,244.8c0.8,0.7,1.5,2.6,2.8.4Zm94.7,18a4.5,4.5,0,0,0-.9-0.8,4.6,4.6,0,0,0-1.2,1.1,2.1,2.1,0,0,0,.6.8A10.9,10.9,0,0,0,146.7,262.8Zm-5.6-22.4c-2.2-.8-2.6.5-3.3,2Zm3.5,33.6,0.4-.3-1.1-1.9-1,.9Zm-11.5-36.9h0.7l0.5-2.6h-0.9Zm5-.6,2.3-1.1c0,0.2,0-.3-0.1-0.4a2.6,2.6,0,0,0-1.7-.1A3.4,3.4,0,0,0,138,236.5Zm-14.9-26.2v0.4l3.9-1.2-0.2-.6Zm14-3.5-0.3-.5-2.2.7a1.1,1.1,0,0,0-.4.6l0.3,0.3ZM250,221.9l-0.3.7,3,1.3,0.2-.4Zm4.7-.8-0.3.6L257,223l0.3-.5ZM92.6,264.5l0.6-.5-1.5-1.8-0.5.5ZM61.4,247.9l-0.3.3,3.1,2.7,0.4-.4Zm107.6-30-0.4-.6-2.5,1.8,0.2,0.4ZM129.7,250l-0.4-.5-3.1,2.4,0.2,0.3Zm2.2-33.4,0.3-.7-1.9-.9-0.3.7ZM86.5,264.7l0.4-.3-1.5-2.2-0.5.4Zm74.6-40.5,0.2,0.4,3.1-2.1-0.2-.3ZM126.7,236l-0.4,2h1.6Zm-21.4,25.2-0.6.3,1.3,2.1,0.6-.3Zm46.1-12.4,0.6-.2-0.7-2h-0.6Zm-7.7,12.8,0.3,0.6,1.7-1.1a2.1,2.1,0,0,0-.2-0.6Zm-26.8-27.3,0.3,0.3,1.1-.5,0.7-.3a1.8,1.8,0,0,0-.6-0.5Zm76.8-62.3H194l0.2-3.7h-0.4v3.7Zm-55,33.3v0.5l2.2-.2v-0.8Zm58.7-8.3-0.3.4,1.8,1.4,0.4-.5Zm-38.9-.3a4.7,4.7,0,0,0-1.3,1.2c-0.1.3,0.3,0.7,0.7,1.7Zm-6,36.1-0.3-.4-2.3,1.8,0.2,0.3ZM145.7,273l0.6-.3-1.1-1.9-0.4.2ZM55.8,247.6l0.4-.5-1.4-.9-0.3.5Zm89.8,7.1-0.5-.4-1.2,1.3,0.3,0.4Zm-27.6-6,0.6-.2-0.9-2.1-0.4.2ZM71.6,248l0.4-.5-1.6-1.2-0.4.5Zm80.1-20.3,0.4,0.4,1.3-1.2-0.5-.4Zm-2.9,28.7H148l0.2,1.5h0.6v-1.5Zm-23.1-20.1-0.5-.2-0.6,1.8,0.6,0.2Zm26.9,8.6h-0.6l0.4,2h0.5Zm-8.2-33-0.3.3,1.8,1.9,0.3-.3Zm48.8-30.8h0.2v-3.4h-0.2v3.4Zm64.7,41.1-0.3-1.8-1.3.8ZM69.5,248l0.3-.4L68,246.2l-0.3.4ZM29.6,227.2v-0.3l-2.7.9v0.4Zm114.7,31.2-0.7-.2-0.3,1.3,0.6,0.2ZM121,235.8h-0.5v1.6h0.5C120.9,236.9,120.9,236.3,121,235.8Zm91.8-36.2,0.3-.4-1.8-1.4-0.2.3Zm-13.6-6.3,0.3-.3-1.7-1.5-0.4.4Zm-52.8,38.3,0.4,0.4,1.5-1.6-0.3-.3Zm-19.2,15.7a2.9,2.9,0,0,0,.7-1,6.6,6.6,0,0,0-1.1-1.4Zm8-35h0.7l0.2-1.3h-0.7A6.2,6.2,0,0,0,135.1,212.2ZM121.8,253l-0.3-.5-1.8,1.3V254Zm-15.1,11.2v0.7h1.6v-0.5h-1.6Zm41.2-9.4-0.8-.6a1.4,1.4,0,0,0-.4.6,1.9,1.9,0,0,0,.5.7Zm56.1-61.2v-0.2l-1.3-1.6-0.4.4Zm-58.4,80.8-0.4.4,1.4,1.4,0.3-.3Zm4.6-60.7-0.2-.4-1.1.4,0.3,0.6ZM92.5,261v0.6l1.7-.4v-0.4Zm30.7-7.9v0.5l1.6-.5v-0.3Zm23.5,6.9h0.6l-0.3-1.4h-0.6Zm-9.3-47.2a2.7,2.7,0,0,0-.8-0.5,0.7,0.7,0,0,0-.4.6,0.7,0.7,0,0,0,.5.5A2,2,0,0,0,137.4,212.9Zm55.1-25.2h0.5v-1.6h-0.3ZM71.7,250.5l0.3-.4-1.5-1.2-0.3.3Zm58.3-46.1h-0.6l-0.2,1.3h0.4Zm15.3,10.3-0.8-.6a1.3,1.3,0,0,0-.5.4l0.6,0.6ZM62,245.3v-0.4l-1.4-.4v0.4Zm50-10.1h-0.4v1.7h0.4Zm83.7-31v0.4l1.7-.2V204Zm-66.8,11.9h0.5l-0.3-1.4h-0.5ZM39.2,250.4l0.2,0.4,1.3-.8-0.2-.4Zm96-33.7,0.2,0.6,1-.4a1.9,1.9,0,0,0-.1-0.5Zm-37.6,2.8,0.4-.4L96,217.2Zm32.3,17.3h-0.4V238h0.4Zm-8.1.8h0.5l0.2-1.7h-0.3ZM96.6,260.9v-0.3H95.2v0.3h1.5Zm54.6-47.2-0.3.3,0.9,1.1,0.4-.3Zm-28.3,33h0.4l-0.2-1.3h-0.4Zm25.6,5.2-0.4.2,0.6,1.1,0.4-.2Zm-33.2-35.3v0.4h1.6v-0.4ZM62.9,246l-0.6.6,1,0.9,0.4-.5Zm74.3-11.4h-0.5l-0.2,1.3h0.3Zm-8.4.5,0.4,0.3,0.5-.8-0.4-.2ZM146.3,270l-0.3.2,0.8,1.3,0.3-.2Zm-33-22.8h-0.4l0.3,1.4h0.5Zm31.9,10h0.5l0.3-1.1h-0.6A7.1,7.1,0,0,0,145.1,257.3Zm46.7-87.8h-0.3l-0.2,1.4h0.4Zm5.6,21.4v-0.4h-1.3v0.3ZM228.3,207h-0.5v1.1h0.4V207Zm-34.8-15.2-0.4.3,1,1,0.3-.3Zm-52.4,15.6h-0.5l0.3,1.4h0.4Zm-5.3,27.2h-0.4l-0.2,1.2h0.3Zm3.1-28.1h-0.4l-0.3,1.1h0.5Zm63.8-11.1-0.3.2,1.1,1.2,0.2-.2Zm-12.8-3.7v-0.5l-1.5-.2v0.3Zm-47.4,76.4H142l-0.2,1h0.4Zm-26.4-19.2h0.4l-0.4-1.3h-0.3Zm4.2-41.9h0.1v-2.1h-0.1v2.1Zm17.1,11v-0.5l-0.8.3v0.3h0.9Zm0.1-9.1,0.4-.2-0.5-.9-0.4.2Zm-4.3,4-0.4.3,0.6,0.8,0.3-.2Zm-1.4-1.1,0.4-.3-0.7-.8-0.3.3Zm11,9.3-0.4.3,0.6,0.8,0.4-.2Zm21.2,4.8-0.3-.3-1.1.9,0.2,0.2Zm88.3-3.3v-0.4l-1.1-.3V222ZM131.1,245.6l0.2,0.2,1-.8-0.2-.2Zm12.9,15-0.3-.3-0.8.7,0.3,0.3Zm-52,1.1v-0.4H91v0.3H92Zm47.9-51.9h0.5l-0.3-1.1h-0.4Zm-29.6,52.7-0.4.3,0.7,0.9,0.3-.2Zm4.3-15h-0.3l0.5,1.2,0.4-.2Zm9.1-13.5h-0.4l-0.2.9h0.3Zm-4,13.7h-0.4l-0.2.8h0.4A4.3,4.3,0,0,0,119.8,247.8ZM152,221.7a1.6,1.6,0,0,0-.2.6l0.3,0.3a0.5,0.5,0,0,0,.3-0.4A1.5,1.5,0,0,0,152,221.7Zm16.2-1.9,0.2,0.3,0.8-.5v-0.2Zm-34.1-4v-0.5l-0.8-.2a1.7,1.7,0,0,0,0,.5h0.7Zm11.8,8.2,0.4-.2-0.4-.7h-0.3ZM113,236.5h-0.3v0.9h0.3v-0.9Zm2.3-2.6v-0.4h-0.9v0.3h0.8Zm8-45.5a1.3,1.3,0,0,0-.3.5,0.6,0.6,0,0,0,.3.4l0.4-.2ZM245.8,224l-0.5.5,0.9,0.7,0.2-.3Zm-96,35.4-0.4.2,0.4,0.9h0.3Zm-19.7-50.7-0.3-.2-0.5.9,0.3,0.2Zm74.8-3.9v-0.3h-0.9v0.2H205Zm-61.8,7.9a1.4,1.4,0,0,0-.4.5,1,1,0,0,0,.3.4,1,1,0,0,0,.4-0.4A1.4,1.4,0,0,0,143.2,212.6Zm0.8,54.2,0.3-.2-0.5-.8-0.3.2Zm0.1-43.5,0.3-.2-0.5-.9-0.3.2Zm2.4-.3a1.5,1.5,0,0,0,.4-0.5,1,1,0,0,0-.3-0.4,0.8,0.8,0,0,0-.3.3A1.8,1.8,0,0,0,146.5,223Zm-24.9,22.3h-0.4l0.2,0.9h0.2v-0.9ZM150.3,220l-0.5.5,0.5,0.5,0.3-.3A4.3,4.3,0,0,0,150.3,220Zm-2.6,4.3,0.4-.4-0.6-.5-0.3.3Zm-23.6,23.7h0.5l-0.3-.9H124Zm-60.3-3-0.2.3,0.8,0.3v-0.3Zm58.7,2.7h-0.4l0.2,0.7h0.3C122.7,248.1,122.7,247.8,122.6,247.6Zm22.2,20.8h0.4l-0.4-.8h-0.3ZM86.3,198.7H86v0.6h0.2v-0.6Zm61.8,62.1-0.5-.3a1,1,0,0,0-.3.4,0.9,0.9,0,0,0,.3.3Zm4.3-35.7h0.4v-0.7h-0.3Zm-5.7,24.2-0.2-.3-0.7.6v0.2ZM110,233.3l-0.4-.2-0.4.4a0.9,0.9,0,0,0,.4.3A1.4,1.4,0,0,0,110,233.3Zm10.5,0.3h-0.3v0.7h0.3ZM198,194l-0.2.2,0.7,0.7,0.2-.2Zm7.1,5.3-0.2.3,0.6,0.4,0.2-.2Zm5.9,0.5-0.2.3,0.7,0.5,0.2-.2Zm-82.5,3.2-0.2.2,0.5,0.4,0.2-.3Zm20.3,59.5h-0.4l0.4,0.8H149Zm-16.9-28.3h-0.4l0.2,0.9H132v-0.9Zm22.5-19.5,0.3-.2-0.4-.5h-0.2Zm-5.5,5.2a4.4,4.4,0,0,0,.1-0.8h-0.5ZM72.8,249.9l0.2-.2-0.5-.8-0.3.3Zm71.5-30.8a2.4,2.4,0,0,0-.3.7l0.3,0.3a1.2,1.2,0,0,0,.3-0.4A2.1,2.1,0,0,0,144.3,219.1Zm37.3-30.7v0.3l0.6,0.2v-0.2Zm-34.2,61.5-0.3.3,0.2,0.4,0.2-.2A1.6,1.6,0,0,0,147.3,249.9Zm-15.2-12.2h0.3v-0.6h-0.2v0.6Zm17.1-22.1H149l0.4,0.6,0.2-.2Zm-35.2,18-0.3-.2-0.3.3,0.2,0.2Zm4.8,3.5h0.2v-0.5h-0.2Zm36.3-20.9,0.2-.2-0.4-.4h-0.1Zm-12.3-.2-0.3.3,0.2,0.3,0.2-.2A1.8,1.8,0,0,0,142.9,216Zm-1.1,1.7a1.1,1.1,0,0,0,.3-0.4l-0.3-.3-0.3.3A1.1,1.1,0,0,0,141.7,217.8Zm1.1-5.5-0.2-.3-0.3.3,0.2,0.2Zm5.2,41.6h0.3l-0.3-.5h-0.2Zm0.3-40.7-0.2-.2-0.4.5,0.2,0.2Zm-30.7,8.5v-0.2h-0.5v0.2h0.5Zm20.9-6.2a4.4,4.4,0,0,0-.1-0.7h-0.5Zm-9.1-7.4-0.4-.4-0.4.5,0.3,0.3Zm21.4,50.4-0.3-.2v0.4Zm-3-.2h-0.2v0.2h0.2v-0.2Zm-26-53.5,0.3-.2-0.2-.2v0.5Zm17.3,6.2,0.3-.3a0.5,0.5,0,0,0-.1-0.3l-0.2.2A0.7,0.7,0,0,0,139.1,210.9Zm34.2,7.4-0.2-.2-0.4.4h0.1Zm-42.4,16.6v-0.3h-0.2l-0.2.3h0.2Zm22.5-12.1-0.2.4,0.5,0.2Zm-5.5-4.3,0.2-.2-0.4-.2h-0.1Zm-4.3.4-0.3-.2-0.2.2,0.2,0.2Zm-0.1,52.4,0.2-.2v-0.3l-0.2.2A0.8,0.8,0,0,0,143.4,271.2Zm-21.7-36.8h0.2v-0.6h-0.2v0.6Zm125.1-11.9v-0.2l-0.5.3v0.2Zm-100.2,2.4-0.2.3v0.2l0.2-.2ZM89.2,177.9H89v0.5h0.2v-0.5Zm0.3-1.3-0.3-.2-0.3.3,0.2,0.2Zm-1.9-.7v0.2h0.2l0.2-.2H87.6Zm61.1,39.2-0.3-.2-0.2.2,0.2,0.3Zm-0.4,47.1,0.2-.3v-0.3l-0.3.3Zm57.9-65.2h-0.1l0.3,0.3h0.1ZM149,249.9l-0.2-.2-0.2.2,0.2,0.3Zm-9.4-30h0.2l-0.4-.5h-0.2Zm-16.2,17.6h0.2V237h-0.2v0.5Zm90.3-37.2h-0.2l0.2,0.3h0.1v-0.3ZM149.3,259l0.2-.3-0.3-.3a0.9,0.9,0,0,0-.1.3Z" transform="translate(-7.5 -5.7)"/><path d="M207.8,42.6c-1.4-2.3.3-4.1,1.4-5.7s2.6-2.4,4-3.6a5.5,5.5,0,0,0,.8-1.1c4.3-2.1,6.2-6,8.4-9.8-4,2.5-8.3,4.6-11.8,7.6s-6.6,6.9-10.2,10.6l2.3-3.1c2-2.6,3.9-5.2,5.9-7.7a6.4,6.4,0,0,1,2.4-1.9c3-1.3,6.5-1.8,8.1-5.3a5.4,5.4,0,0,1-.1.6l-0.3,1c2.3-2.1,4.6-3.8,4.7-6.6s-2.7-3.6-5.2-4c3.3-.5,5.8.8,7.2,4.2l0.6-1.4c1.8,4,.5,8.1-1.6,11.1s-5.4,8.9-11.3,10.6l5.2-3.6c-3.7-.3-6.1,2.5-9,9.8L209,42.7a23.2,23.2,0,0,1-10.7,11.6,4.3,4.3,0,0,0-1.4-.2c-0.6.1-1.1,0.5-1.6,0.7a8.3,8.3,0,0,0-5.8,6.4,5.5,5.5,0,0,1-.4,1l-0.2.3L189,59l-6.4,13.4,5.5-7-9.8,14.9h-0.1l3.8-7.2,0.3,0.3L174.9,81l-0.6-.5,4.8-6.7a10.8,10.8,0,0,0,1.7-1.6c1.8-2.6,3.6-5.1,5.2-7.8s1.1-3.8,2-5.4,3.7-5.1,5.6-7.7a4.1,4.1,0,0,1,1.1-.5l-2.1,1.9c5.3-.9,8.2-4.6,11.3-8.4l-1.2,1.9,0.2,0.2,1.4-1-2.5,3.3c3.5-1.1,4.4-4.1,6.1-6.2l-1.3,2.7a22,22,0,0,0,4-6.1c1.3-3.2,3.8-4.4,6.8-5.4,1.4-.5,2.7-1.7,4-2.5l-0.4-.6a17.8,17.8,0,0,1-2.8,1.9c-4.7,2-8.8,4.4-10.1,9.9h-0.1ZM194.2,53.9l-0.8,1.4,2.8-1.4-0.2-.5-1.8.6c-1.4-.8-3.7.7-4.1,3.1Zm27.1-25.4c-1.2.9-2.3,1.8-3.5,2.6l-5.3,3.1,0.5,0.7,8.5-5.4a2.8,2.8,0,0,0-.2-1c4-1.2,3.9-5.1,5.2-8.1,0.3-.7-0.7-1.9-1.1-2.9l-6,12.2ZM201.5,50.2l-0.2-.4-3,1.8,0.3,0.5Zm7-19.9v0.2l1.4-1-0.2-.2Zm14.8-9.5-0.3-.2-0.5.8h0.2Z" transform="translate(-7.5 -5.7)"/><path d="M166.8,91.8l-1.6,3.8-1.5,4,2-2.5,0.4,0.3a42.3,42.3,0,0,1-3.8,4.8,46,46,0,0,1-5,3.8l0.7,0.8c0.9-2.4,1.9-4.7,2.8-7.1s2.5-7.3,3.8-10.9c0.7-2,1.7-3.9,2.6-5.9s1-3.3,2-4.6c3.4-4.9,7.2-9.7,10.6-14.6s5.4-8.5,8.1-12.7a4.5,4.5,0,0,0,.3-1.1l0.6,0.6-1,1.8,5.9-4.1v0.2c-2.1,1.8-4.4,3.5-6.4,5.4a13.6,13.6,0,0,0-4.3,10.2c0,1.1-1.5,2.2-2.2,3.3a10.6,10.6,0,0,0-1.4,2.9l1.6-1.3h0.2a8.5,8.5,0,0,1-.8,1.1c-3.7,3.6-7.6,7.1-11.1,10.9-1.1,1.1-1.3,3.1-1.8,4.7l0.7,0.3,5-8.4,0.3,0.2-3.7,6.5,0.6,0.4L173,80c-2.6,5.4-7,10.2-4.9,17l0.9-1.8h0.3l-2.2,7-0.6-.2,1.1-3.1h-0.3l-4.4,6.7C166.1,100.9,167.6,96.5,166.8,91.8Zm15.6-30.3-9,13.3C175.9,74.9,183,64.4,182.4,61.4ZM163.4,95.6l0.9,0.3,2.4-8.5-0.8-.2Zm-2.8,5.9,0.8,0.5,1.7-3-0.9-.3ZM171,77.3l0.3,0.3,2.1-2-0.4-.4Zm-6.6,19.4-0.6-.3L163,98.1l0.5,0.3Zm-4.4,6.1,0.3,0.4,0.6-.6-0.4-.4Z" transform="translate(-7.5 -5.7)"/><path d="M209.6,9.5c-4.1-1.4-8.1-1.7-12.2.2a28.2,28.2,0,0,1-6,2.1c-4.8,1-7.5,4.3-9.6,8.4a27.9,27.9,0,0,1-4.1,5.8l7.1-12.4,15.8-6.2-0.5.7,4.5-.3-2.1-.7,0.2-.7c3.1,0.8,6.5,1.2,9.2,2.7s6.8,3.7,11.3,2c-2.1,1.7-7.4,1.7-9.6.2l-2.6-2a4.8,4.8,0,0,0-1.4-.4V9.6h0Z" transform="translate(-7.5 -5.7)"/><path d="M214.7,15.5l0.2-.5,1.2,1.3,0.5-.2-3.3,6.5-0.4-.2,0.5-1.2-13.2,7.2h-0.1c1.4-1,2.7-2.1,4.2-3a32.1,32.1,0,0,1,6.1-3.5c2.4-.8,1.4-3.2,2.8-4.5h-0.4L212.2,15l-1.4,1.6c0.8-2.8.7-2.9-2.4-3h-3.9a1.3,1.3,0,0,0-1,.5l-3.8,6.9-1.1,2.1-0.7-.3,0.8-1.4c1.3-2.1,2.7-4.1,3.9-6.2a3.9,3.9,0,0,0-.3-1.7l1-.6h5.8V12.2l-2.7-.8,0.2-.4,6.2,2.8,0.7,2.1,1.2-.4-0.8,1.2,0.5,0.2Zm-5.1-2.4v0.3h0.6V13.2h-0.6Z" transform="translate(-7.5 -5.7)"/><path d="M157.1,75.6l-0.7,2.2,0.8-.2a16.8,16.8,0,0,0-2.1,14.1c0.6,1.9-.2,4.1.1,6.2a13.1,13.1,0,0,1-1.6,7.3,54.1,54.1,0,0,1-3.7,5.8l1.1-2.5c2.1-4.3,4.1-8.7,3.9-13.6-0.1-3.2-1.1-6.5-.8-9.7s1.8-6.4,2.8-9.6h0Z" transform="translate(-7.5 -5.7)"/><path d="M182.9,39.7l-3.4,3.5h0l-0.3-.5c1.3-2,2.4-4.1,3.8-6.1s2.6-3.5,3.9-5.2l4.4-5.3a1.8,1.8,0,0,0,.6-0.7l-8.6,12.2a2.8,2.8,0,0,0,.1,1l2.7-4.1,0.6,0.4-3.9,4.8,0.3-1.1-0.5-.2-0.5,1.2h0.8Z" transform="translate(-7.5 -5.7)"/><path d="M184.2,53.2c1.8-3.8,6.7-5.5,10.2-8.8l-0.9-.7c7-.2,10.8-5.1,14.4-10.3l0.5,0.5c-2.1,2.4-4,5.2-6.5,7.1s-6.6,3.6-9.7,5.8S186.5,51.3,184.2,53.2Z" transform="translate(-7.5 -5.7)"/><path d="M169.3,43.1l0.9-6.2h-0.8v3.5h-0.5v-5c1.1-1.9,2.1-3.9,3.3-5.8s2-2.7,3-4h0l-1.8,2.6,1.2-.5-0.2.3c-1,1.6-1.6,3.7-2.9,4.9s-0.9,4.1-1,6.2a16.3,16.3,0,0,1-1.2,4.1h0Z" transform="translate(-7.5 -5.7)"/><path d="M175.1,56.6l-3.8,7.3,0.5,0.3,2.7-4.1,0.4,0.3-9,11.8-0.6-.4,4.9-5.8-0.5-.3,5.2-9h0.1Z" transform="translate(-7.5 -5.7)"/><path d="M157.1,75.6c0.6-1.3,1.1-2.6,1.7-3.8s1.2-2.3,1.9-3.5-0.2-4.3-.1-6.5a9.1,9.1,0,0,1,.2-2.3L161,64h0.4l0.5-2.1h0.4l-3.2,13-0.6-.2,1.1-3.3-0.4-.2-2.2,4.2h0Z" transform="translate(-7.5 -5.7)"/><path d="M189,46.5l1.6-.5c-3.1,2-5.4,4.5-9.3,3.6l3.5-2v0.2l-2.3,1.3,0.3,0.6a17.5,17.5,0,0,0,3.4-1.5c1-.7,1.6-1.9,2.5-2.7a10.9,10.9,0,0,1,3.4-1.8l-3.4,2.4Z" transform="translate(-7.5 -5.7)"/><path d="M164.7,74l1.6-1.2h0l-1.8,4.3c-0.2.6-.4,1.2-0.7,1.8l-1.4,2.5-1.1-.5,3.3-6.8h0Zm-1.8,5,0.6,0.2,1.1-3.5h-0.4Z" transform="translate(-7.5 -5.7)"/><path d="M162.7,54.2c1.6-2.3,3.3-4.6,4.8-6.9a28.9,28.9,0,0,0,1.8-4.1h0c0.7,3.7-2.7,5.4-4,8.1a11.2,11.2,0,0,1-1.4,2.2,5,5,0,0,1-1.3.8h0Z" transform="translate(-7.5 -5.7)"/><path d="M153.7,112.6c0.1,2.5-1.2,5.8,3,7.1l-0.3.5a19.8,19.8,0,0,1-3.8-1.5c-0.4-.2-0.2-1.6,0-2.3S153.4,113.6,153.7,112.6Zm-0.1,6.7,0.7-.3-1.3-2.7-0.7.3Z" transform="translate(-7.5 -5.7)"/><path d="M148.6,123c-1.1-1.2-1.4-4.8-.7-6.3s0.1-1.6.4-2.4v1.1h0.3l1.4-4c-0.2,2.7-2.1,5.1-1,8.3l-0.9-1.2h-0.4l1.1,4.4h0Z" transform="translate(-7.5 -5.7)"/><path d="M196.4,29.3l-1,1.8h0.2l-5.1,7.1L190,38l6.4-8.6h0Z" transform="translate(-7.5 -5.7)"/><path d="M178.3,55.8l-1.4,3.8c-0.3.9-.7,1.8-1.1,2.6a1.7,1.7,0,0,1-.6.4,1.1,1.1,0,0,1-.3-0.5l3.1-6.5h0.4Z" transform="translate(-7.5 -5.7)"/><path d="M196.3,36.2L196,34h0.5l0.4,0.6,2.6-5,0.6,0.3-3.7,6.4h0Z" transform="translate(-7.5 -5.7)"/><path d="M166.3,72.8l4.9-3.6c-1.2,2.3-2.6,4.4-4.9,3.5h0Z" transform="translate(-7.5 -5.7)"/><path d="M197.6,28.1l7.2-5.6,0.3,0.4L197.5,28h0Z" transform="translate(-7.5 -5.7)"/><path d="M199.8,16.6V12.6l0.8-.6c0,1.5,0,3,0,4.5l-0.8.2h0Z" transform="translate(-7.5 -5.7)"/><path d="M179.5,43.2l-1.9,2-0.5-.5,2.2-2,0.3,0.6h0Z" transform="translate(-7.5 -5.7)"/><path d="M190.4,42.2l1.4-.7h0.1L189,43.8l-0.4-.6,1.9-1h-0.1Z" transform="translate(-7.5 -5.7)"/><path d="M196.3,36.2l-2.2,3.6-0.4-.2,2.5-3.4h0Z" transform="translate(-7.5 -5.7)"/><path d="M211,18.6l-3.1,2-0.2-.4,3.2-1.7H211Z" transform="translate(-7.5 -5.7)"/><path d="M188.3,41.7l-2.8,2-0.2-.3,2.8-1.9Z" transform="translate(-7.5 -5.7)"/><path d="M155.4,108.9l0.7-4h0.3l-0.9,4h-0.2Z" transform="translate(-7.5 -5.7)"/><path d="M162.2,55.7l-1,2.9-0.5-.2,1.5-2.6h0Z" transform="translate(-7.5 -5.7)"/><path d="M177.2,52.2l1.3-1,0.3,0.5-1.4.8Z" transform="translate(-7.5 -5.7)"/><path d="M170,92l1.3-2.9h0.3L170,92h0Z" transform="translate(-7.5 -5.7)"/><path d="M195.9,22.1l-1.1,1.9-0.6-.4,1.7-1.5h0Z" transform="translate(-7.5 -5.7)"/><path d="M190.7,29.1l2.1-1.6,0.2,0.3-2.2,1.3h0Z" transform="translate(-7.5 -5.7)"/><path d="M175.2,25.5l0.7-1.3,0.5,0.4-1.2.9h0Z" transform="translate(-7.5 -5.7)"/><path d="M199.8,16.6l-0.7,2.7h-0.3l1-2.5h0Z" transform="translate(-7.5 -5.7)"/><path d="M190.2,30.5L188.5,32l-0.2-.2,1.9-1.3h0Z" transform="translate(-7.5 -5.7)"/><path d="M199.6,15.7l-1,1.8h-0.2l0.8-1.8h0.4Z" transform="translate(-7.5 -5.7)"/><path d="M209.5,9.6l0.8,1.7-0.4.2-0.3-1.9h0Z" transform="translate(-7.5 -5.7)"/><path d="M154.8,112.5l0.3-1.9h0.1l-0.2,2h-0.2Z" transform="translate(-7.5 -5.7)"/><path d="M148.6,123.1l1.6,1.1-0.5.5-1.1-1.7h0Z" transform="translate(-7.5 -5.7)"/><path d="M170,92l-0.5,2.2h-0.3L170,92h0Z" transform="translate(-7.5 -5.7)"/><path d="M176.6,54l-0.6.9h-0.2l0.6-1Z" transform="translate(-7.5 -5.7)"/><path d="M150.6,119.1v1h-0.2v-1h0.3Z" transform="translate(-7.5 -5.7)"/><path d="M149.1,111.9l-0.5,1.5h-0.3l0.8-1.3h0Z" transform="translate(-7.5 -5.7)"/><path d="M187.9,64.6l0.5-1.1h0.2l-0.4,1.1h-0.2Z" transform="translate(-7.5 -5.7)"/><path d="M182.6,52l-0.9,1-0.2-.2,1.1-.8h0Z" transform="translate(-7.5 -5.7)"/><path d="M196.4,29.4l1.2-1.3h0l-1.2,1.3h0Z" transform="translate(-7.5 -5.7)"/><path d="M202.5,5.9l-0.7.7-0.2-.2,0.8-.7V5.9Z" transform="translate(-7.5 -5.7)"/><path d="M190.4,42.2h0.1l0.3-1.1H191Z" transform="translate(-7.5 -5.7)"/><path d="M151.3,118.5v0.9h-0.1l-0.2-.8h0.2Z" transform="translate(-7.5 -5.7)"/><path d="M155.1,106.7l-0.2.7h-0.1l0.2-.7h0.1Z" transform="translate(-7.5 -5.7)"/><path d="M157.3,101.3l0.3-.6h0.1l-0.2.6h-0.2Z" transform="translate(-7.5 -5.7)"/><path d="M158,108.4v-0.8h0.1v0.8H158Z" transform="translate(-7.5 -5.7)"/><path d="M182.6,52.1l0.7-1,0.4,0.5-1,.5h0Z" transform="translate(-7.5 -5.7)"/><path d="M162.1,59.5V58.7h0.1v0.8h-0.1Z" transform="translate(-7.5 -5.7)"/><path d="M218.6,216.1a1.2,1.2,0,0,1-.2-0.4l0.2-.3,0.2,0.2A2.3,2.3,0,0,1,218.6,216.1Z" transform="translate(-7.5 -5.7)"/><path d="M162.2,55.7l0.5-1.5h0l-0.5,1.5h0Z" transform="translate(-7.5 -5.7)"/><path d="M193.6,24.4l-0.4.4-0.2-.2,0.5-.4Z" transform="translate(-7.5 -5.7)"/><path d="M180.3,53.6l-0.2.2H180l0.2-.3h0.1Z" transform="translate(-7.5 -5.7)"/><path d="M205,42.9l-0.2.2h-0.1l0.2-.3H205Z" transform="translate(-7.5 -5.7)"/><path d="M193.8,38.5l-0.2.2h0l0.2-.2h0Z" transform="translate(-7.5 -5.7)"/><path d="M190.7,29.1l-0.4,1.4h0l0.4-1.4h0Z" transform="translate(-7.5 -5.7)"/><path d="M195.9,22.2h0Z" transform="translate(-7.5 -5.7)"/><path d="M155,113.5v1h-0.1Z" transform="translate(-7.5 -5.7)"/><path d="M149.1,111.9h0Z" transform="translate(-7.5 -5.7)"/><path d="M173.4,87V86.3h0.1v0.8h0Z" transform="translate(-7.5 -5.7)"/><path d="M164.7,74.1h0Z" transform="translate(-7.5 -5.7)"/><path d="M179.3,54.9l-0.3.3H179l0.2-.3h0.1Z" transform="translate(-7.5 -5.7)"/><path d="M75,263.9H70.1a6.1,6.1,0,0,1-1.8.1c-1-.3-2.8-0.9-2.8-1.3,0.1-3.2.8-3.8,3.6-3.4l5.6,0.7c1.4,0.2,1.8.8,1.1,2.1Zm-6.2-.8v-0.5H67.6V263h1.1Zm2.8-.1,0.2-.2-0.3-.2-0.2.2ZM67,262H66.8l-0.2.7h0.2Z" transform="translate(-7.5 -5.7)"/><path d="M195.9,215.8c0-2,0-4,0-6a1.2,1.2,0,0,1,.8-0.8l5.7,0.4a2,2,0,0,0,.8,0c3.3-1.4,6.5-.2,9.7.3a1.6,1.6,0,0,1,.8,1.3c-0.3,2.1-.7,4.1-1.1,6.2a0.9,0.9,0,0,1-.4.6,37.8,37.8,0,0,1-4.6.4l-9.5-.3C196.7,218,195.7,217.5,195.9,215.8Zm11.8-5,0.2-.6-1.8-.4v0.2Zm1.7,1.7v-0.3h-0.7a1.4,1.4,0,0,0,0,.3h0.8Zm-3,1.5v-0.3h-0.8v0.3h0.8Zm-5.9,1.1-0.2-.3-0.3.3,0.2,0.2Z" transform="translate(-7.5 -5.7)"/><path d="M210.5,231.6a42.2,42.2,0,0,0-.8,4.9c0,1.4.1,2.2-1.9,1.8s-5,.1-7.5.2h-6.7a33.3,33.3,0,0,0,1-5.5c0-2.1,2-2.5,2.8-2.6a61.9,61.9,0,0,1,10-.1A9.3,9.3,0,0,1,210.5,231.6Zm-1.4,1.9h-1.2l0.7,1.5Zm-2.8,4.3v-0.5l-1.8.5v0.3Zm-0.5-5.7v-0.4h-1.2V232h1.2Z" transform="translate(-7.5 -5.7)"/><path d="M195.4,255.9l6,0.5c0.9,0.1,1.8,0,2.7.1s2.9,0.5,2.9.8a10.9,10.9,0,0,1-.7,5.2c-0.3.7-2.4,0.8-3.6,0.8-2.9-.1-5.9-0.4-8.8-0.6-1.2-.1-1.7-0.6-1.4-1.9s-0.2-1.9-.1-2.9a1.9,1.9,0,0,1,.9-1.3A11.9,11.9,0,0,1,195.4,255.9Zm-0.6,5.9,0.5,0.4,1-1.7H196Zm9.8-3.1a2.9,2.9,0,0,0-.1-1h-1.2v0.4Zm-0.5,3,0.3,0.4,1.1-.9-0.3-.4Zm-5.6-4.6h-0.4l-0.2.8h0.2Zm-4.8,4.5H194V261h-0.2v0.6Z" transform="translate(-7.5 -5.7)"/><path d="M207.8,252.4a18.1,18.1,0,0,0-2.6-.5l-9.4-.2-3.3.3a55.9,55.9,0,0,1,.9-5.9c0.1-.4,1.3-0.9,2-0.9l12.5,1.1c0.8,0.1,1.4.2,0.6,1.4s-0.3,2.2-.5,3.4S207.8,252.3,207.8,252.4Zm-2.5-4.5h-0.1v2.7h0.4Zm-11,2.9h0.3l0.5-1.9h-0.2Zm12.2,0h0.5l-0.4-1.3h-0.4Zm-8.7-.9-0.3.4,0.2,0.2,0.3-.3Zm5.3-3.1-0.3-.3-0.3.2,0.2,0.2Z" transform="translate(-7.5 -5.7)"/><path d="M185.8,271.7l-0.2,1.9h-0.3l0.2-1.9h0.2Z" transform="translate(-7.5 -5.7)"/><path d="M186.4,265.4v0.5h-0.2v-0.5h0.1Z" transform="translate(-7.5 -5.7)"/><path d="M84,264.3h0Z" transform="translate(-7.5 -5.7)"/><path d="M117.1,258l-2.1,1.5Z" transform="translate(-7.5 -5.7)"/><path d="M115.3,257.5l1.6-1Z" transform="translate(-7.5 -5.7)"/><path d="M118.1,257l-1,1Z" transform="translate(-7.5 -5.7)"/><path d="M114.2,258.6l1-1Z" transform="translate(-7.5 -5.7)"/></svg>