<svg id="hijiki_seafood_Image" data-name="hijiki(seafood) Image" xmlns="http://www.w3.org/2000/svg" viewBox="0 0 226.8 253.7"><title>hijiki(seafood)</title><path d="M30.5,139.2c-0.2.6-.4,1.3-0.5,1.9s-0.2,1-.2,1.2-2.4,1.7-2.7,2.8c-0.9,3.5-1.3,7.1-2,11.3l2.9-3.4h0.1l-2.5,3.5h1.1v0.3l-2,.3-1.3,4.3,1-.4-1,2.7h1.6c-1.6.4-3,3.6-2.4,5.6l4.1-5.5h0L23,170.2l2.2-.6c-4.6,1-3.3,5.1-4.5,7.9l3.7-4h0l-3.3,4.9,0.3,0.4c3,0.1,1.9,1.2.7,2.5a16.7,16.7,0,0,0-1.6,2.4H21l1.9-.3L22,185.7c-0.5,1.1-2.7,1.8-.6,3.5,0.2,0.1-.6,1.8-1.1,2.6a25.8,25.8,0,0,1-2.5,2.8c3.7-1.1,2.4.6,1.8,1.8l-3.2,6.8a4.5,4.5,0,0,1-1.2.9l4.5-9c-2.4-.5-3.1.7-3.4,2.6-0.9,4.5-1.9,8.9-2.8,13.3-0.1.4-.1,0.8-0.2,1.7a55.1,55.1,0,0,0,4.1-5.6c2.1-3.7,5.2-6.1,8.7-8.1s9.8-6,15.6-7.1c2.4-.5,3-1.9,2.7-5.9l-1.2,2.7,8.2-45.7h0.3v1.2l3.5-.4v-0.4l-2.6-.6v-0.3L63.2,143v0.6H61.8v0.6l3,0.4v-0.6l-1-.5h8.2v0.3l-2.9.4,1.9,1.2-0.4.8,6.3-.9v-0.9l-4.1-.9h2.9l13,1.2,10.5,0.5,20.3,1c2.8,0.1,5.7.1,8.5,0.4s6.5,1.3,9.7,1.7c5.2,0.6,10.4,1.1,15.6,1.3s10.9,0.3,16.4.3c1.7,0,3.4-.6,5-0.7s1.2,0.6,1.8.6h12.9v0.7l-2.3.7-1.1,3.3,0.7-.2a22.3,22.3,0,0,0-1.2,3.3c-0.6,3.2-1,6.5-1.7,9.6-1,4.7-2.2,9.4-3.2,14.2-1.4,6.9-2.6,13.8-3.8,20.7-0.5,2.6-.8,5.2-1.3,7.7s-1.2,3.2-1.2,4.7c-0.1,4.2-2.4,7.6-3.2,11.5s-1.1,6.8-1.6,10.2a3,3,0,0,1-1,1.9c0.1-1.1.2-2.3,0.2-3.4a5.9,5.9,0,0,0-.4-1.5l-1.2.9a8.1,8.1,0,0,0-.8,1.1l1.9-.6v0.3l-4.6,2.3,0.9-2.2a11.9,11.9,0,0,1-2,1.3,1.9,1.9,0,0,1-1.6-.3l-2.2.6a19.8,19.8,0,0,1,1.6-2,36,36,0,0,0,3.9-4l-1,.3,0.5-1.3-2.8,1.8,0.2-3.6-6.4,6.9,2.8-2.2,0.2,0.2-4.2,3.5,0.5,0.7,1.5-1.2,3.8-3.4-1.2,1.6,0.3,0.3,2.6-2.1h0l-3.2,3.2-1.9,1.6,11.2,1.4v0.5l-18.7-2.4v0.6l8.6,0.7v0.5c-1.6-.2-3.4-0.9-4.9-0.5-4.1,1-8,.3-12.1-0.2s-7.5.6-11.3,0.4c-1.5-.1-2.9.1-4.3,0-3-.3-6-1.8-8.5,1.2H116l1.8-2.1-6.8.9-4.6,9.3,9.9,0.6a14.5,14.5,0,0,1,3.1,1h0a9.8,9.8,0,0,0-1.9-.5l-10.9-.5a1.7,1.7,0,0,0-1.3.6c-2.4,3.9-6.1,6.2-9.8,8.6L87.5,262c2.3,0,4.6.1,6.9,0l12-.8a2.1,2.1,0,0,1,1.1.2c4.1,2.1,8.3,1.1,12.5.9a51.9,51.9,0,0,1,9.9.4c7.3,1,14.6,2.4,21.9,3.5,3.4,0.5,7,.6,10.5.7l13.6,0.5,1.7-.2-1.8-1h5l-1.2-1.1,0.9-.4a4.8,4.8,0,0,0,1.3.8c2.1,0.2,4.3.2,6.4,0.6a12.3,12.3,0,0,1,3,1.4c0.3-1.7.6-3.3,0.8-4.9,0.5-4.6.9-9.3,1.6-13.9s1.9-10.6,2.8-15.9c1.7-9.7,3.5-19.5,5.1-29.2s3.1-18.9,4.6-28.4c0.7-4.8,1.2-9.6,1.9-14.4,0.2-1.8.7-3.5,1.1-5.2,1.5-6.9,3.1-13.8,4.3-20.8,0.9-5.3,1-10.8,2-16.2s3.2-13.3,4.5-19.9a98.6,98.6,0,0,0,1.1-12.2c0.3-5,.2-10,0.8-15s1.9-10.2,2.8-15.3,2.1-12.4,3.2-18.6c0.2-1.3.6-2.5,0.8-3.7,0.7-3.5,1.3-7,1.9-10.4a1.1,1.1,0,0,0-.6-0.9l-16.1-1.4-25.3-1.8-30.2-1.6c-6.8-.4-13.5-1.3-20.3-1.7-4.5-.3-9.1-0.1-13.6-0.1H109.8c-9.3.1-18.5,0-27.8,0.4-5.7.2-11.3,1.3-16.9,1.8-3.5.3-7,.3-10.5,0.5l-7.4.7-1-.2a2.1,2.1,0,0,1,.8-0.6c4.5-.3,9-0.5,13.4-1s7.5-1.2,11.2-1.7a30.7,30.7,0,0,1,4-.4H86.7l13.3-.4c9.2-.1,18.3-0.4,27.5-0.1s19.7,1.2,29.6,1.8l16.4,0.9,16.8,1,15.7,1,17.8,1.6,5.7,0.3a5.4,5.4,0,0,0,1.6-.9,16.9,16.9,0,0,1,0,2.7c-0.9,5-1.8,10-2.6,15s-1.9,12.1-2.9,18.2-2.1,9.7-2.7,14.5c-0.4,2.6.4,5.4,0,8.1-1.3,9.6-1.8,19.3-4.3,28.8s-2.7,16.7-4.1,25.1c-0.6,3.4-1.7,6.7-2.4,10.1s-1.4,7.3-2,10.9q-2.1,13.4-4,26.8c-0.9,6.3-1.6,12.7-2.8,19-1.7,9.5-3.8,18.9-5.6,28.4-1.2,6.6-2.4,13.2-3.3,19.8-0.7,4.8-.9,9.7-1.3,14.5a41,41,0,0,1-1,5.1,1.4,1.4,0,0,1-.9.8,4.9,4.9,0,0,1-.8-0.6,5.9,5.9,0,0,0-2.2-.7l-15.2.5c-4,.1-7.9.1-11.9-0.1a68.1,68.1,0,0,1-9.7-1.1c-8.4-1.6-16.8-3.6-25.5-3.3-6.5.2-13,.8-19.4,0.1s-14.3-.3-21.5-0.2c-9,.2-18.1.8-27.1,0.7-5.9,0-11.8-1-17.7-1.3l-28.2-1.6a43.3,43.3,0,0,0-4.7.3l-1.3-.8,3.9-3H6.8l0.7-2.1H7.9l-1,2.2a23.3,23.3,0,0,1,2.7-1.2,4.7,4.7,0,0,1,1.5.1,5.2,5.2,0,0,1-.6,1.1l-2.2,2.2,0.4,0.6,3-1.3-0.4.9,21.6,0.9c-12.1-6.6-18.4-17.6-22.9-30H9.4L5.2,261H4.4c0.2-1.6.3-3.3,0.5-4.9,0.7-5,1.3-9.9,2.1-14.9s1.4-8.8,2.3-13.2,2.3-11.7,3.5-17.6,2.6-11.7,3.9-17.5,3.2-13.8,4.7-20.8c0.9-4.2,1.3-8.5,2.1-12.7s1.9-9.3,2.8-13.9c1.8-9.2,3.5-18.4,5.3-27.6,1.3-6.8,2.8-13.5,4.3-20.2,0.8-3.6,1.8-7.1,2.6-10.6a6.4,6.4,0,0,0-.4-2c2.6-5.9,3-12.7,3.9-19.5,0.6-4.6,1.4-9.2,1.9-13.9s0.5-7.6.7-11.4,0.6-9.5.9-14.2c0.1-1.4,0-2.8.2-4.2a8.9,8.9,0,0,1,.8-1.9l0.7,2.6h0l0.6,0.4-1.6,2.3,0.5,0.4,1.4-1.3h0l-0.5,1.6,3.6-1.6,0.2,0.8a3.7,3.7,0,0,1-1.4.3c-1.3-.3-4,2.1-3.7,3.6l2.2-1.6,0.2,0.2L46,30.3l2.1-.7c-2.5.7-2.4,2.5-2.2,4.6a26.2,26.2,0,0,1,.2,5.3,24.1,24.1,0,0,1-1.2,4.4h0.9L45,49.4l2.8-.9a2.9,2.9,0,0,1,1.2.3,3.2,3.2,0,0,1-.5,1L45.3,53a7.4,7.4,0,0,0-.9,1.6l2.9,0.4-1,1.2h0l0.5-1.4a5.1,5.1,0,0,0-1.9.7,4.6,4.6,0,0,0-.5,1.7l1,0.2h0l-1.4,2.5,0.6,0.2h2.2a8.5,8.5,0,0,1-1.2,2.2,9.1,9.1,0,0,0-2.9,6.6l2.3-2.2H44.4l-2.7,7.2a2,2,0,0,0,0,.8h0.4l-2.3,9.2h0.5l-1.1,2.4,0.4,0.3,0.8-.6-1.4,2.9h0.4l-1,2.1,0.6,0.3,2.7-3.9,0.4,0.3-4.6,6.8L38,95l2.1-.9,0.5,0.5-2.8,3.1h0L40,94.9c-3.7.8-3.8,3.6-4,5.9s-2.4,4.2-.3,6.4l1.1-.3v0.4l-2.6.4-0.8,5.8h0.3l1.1-1.9h0.2l-1.6,3.5,0.3,0.2,2.8-.4-1.8,3.2h0l1.3-2.7c-1.3.1-3,.4-3.2,1.2-1.1,4.1-1.8,8.3-2.7,12.5l0.6,0.2a23.2,23.2,0,0,1,1.6-4.4,23.6,23.6,0,0,1,3.1-3.5h0l-4.4,7.1,0.5,0.5,1.8-.9c-2.1,1.9-4.7,3-3.8,6.1l0.6-.2L29.9,135h1c-3.5,1.8-2.5,5.4-3.5,8.2l0.5,0.3,2.5-4.1h0Zm112,12.1,0.8-.4-0.3-.3-0.4.7h-1.1v0.3Zm-12.2,78.6-1.1.3v0.3l1-.5h0ZM61.7,157l-0.6.9h0.3l0.3-1h0.9v-0.3Zm-2.4-.7,1-.6-0.3-.3-0.7.9-0.8.3,0.2,0.3Zm69-.3,1-.9-0.3-.2-0.8,1.2-0.7-.2V156h0.8ZM64,148h0l-0.5,1.8a3.7,3.7,0,0,0-1.1-.6l-6.1,5,0.4,0.4L68,146.9l-0.3-.5-2.4,1.2,0.2-.8-0.4-.3Zm76.1,31.6,1.2-.8-0.4-.4-0.8,1.2-0.6.8,0.4,0.2Zm15.5,33,1.1-1.3,7.3-5-0.2-.4-2.9,1.5V207l-0.8.5v0.2l0.6-.2-7.1,5.3,0.3,0.3,1.6-.4h0Zm19.2-27.3-1.1.3,0.4,0.5,0.7-.9,1.5-1.8-0.5-.3ZM83,176.1l-2.4,2.2,0.6,0.5,1.8-2.7,2.2-1.7-0.3-.3Zm58.3-.5h2v-1.6l-2,1.7h0Zm40.8-19.7-1.6,1.5,0.5,0.4,1.1-1.9,1.2-1.3-0.3-.3-2.4,1.9,0.2,0.2ZM52.3,179.7l3.5-3.2-0.4-.4-3.1,3.7L50.2,181l0.9,0.7Zm66.1-21.1,2.8-1.1-0.3-.7-2.5,1.7V158l-0.9.6v0.2Zm6.4-7.8v-0.6l-0.4.2,0.5,0.3-2.6,2,0.2,0.2,4.1-2.7-0.2-.4Zm-33.8,2.6,3.7-2.2-0.5-.6L91,153.3l-3.9,2.2,0.4,0.6Zm37.4,5,1.5-.5-0.2-.5-1.3,1,0.2-.5a2.3,2.3,0,0,0-1.1-.1,19.7,19.7,0,0,0-2,1.4l0.2,0.3Zm-62.5-5.7-3.4,3a19.9,19.9,0,0,0,3.7-2.3l-0.4-.7,1.9-1.3-0.3-.5-3.7,2.4,0.3,0.4Zm12.4,5.5L73.9,161l0.5,0.6,3.8-3.5,1-.5-0.2-.3Zm96-4.1,0.8-1.2-3.1,2.2,0.2,0.3,2.2-1.4-1.2,2.3,3.8-2.9-0.2-.4Zm-62.8,40.3h0l1.5-1.3a4.9,4.9,0,0,0-1.8-.5,1.6,1.6,0,0,0-.6,1.2A2.9,2.9,0,0,0,111.4,194.4Zm21.1,23.1-4.6,4,0.5,0.5,4-4.5,1.6-1-0.3-.4Zm-57.1-64-5.5,4,0.4,0.5,5.1-4.5,3.5-2.5-0.5-.5Zm103.1-.6,1.5-.5,1.9-.6-0.2-.6-1.7,1.2,1.3-1.5a1.8,1.8,0,0,0-2.7,1.9l-3.1,1.8,1.1,1ZM95.8,184.9l-2.1,1.5,0.7,0.6,1.4-2.1,3.8-2.7-0.3-.5-4.4,2.8,0.3,0.5Zm43,28.2,6.4-4.6a7.2,7.2,0,0,0-3.2,1.7l-3.1,2.9-1,.4,0.4,0.5Zm-34-47.2,0.5,0.4,0.6-1.1-1.1.7,0.7-1.6c-1.7-.2-2.4,1.2-2.1,3.9Zm36.4,48.6,5.8-3.6-0.5-.7-5.2,4.3-0.8.4,0.2,0.3Zm-11.9,3.8,1.6-2.2a1,1,0,0,0,.1-0.7h-0.6l-3.1,3.9,0.3,0.3,1.6-1.1-1.6,1.9a9.4,9.4,0,0,0,1.8-.9,3.1,3.1,0,0,0,.5-1.1h-0.7ZM59.9,154.2c-1.6,1.7-4.7,2-4.9,5l4.8-4.4a1.1,1.1,0,0,0,0-.5l0.8-.2v-0.3ZM156,231.8h0l2.3-2.5a5.9,5.9,0,0,0-2.8,1.9c-0.7.8-1.1,1.9-1.8,2.7a20.9,20.9,0,0,1-2.2,2C152.5,236.5,155.8,233.2,156,231.8Zm-122.8-13-0.2.6h0.7a1,1,0,0,0,.3-0.4l-0.8-.3,0.6-1.1c-0.5-.2-1.1-0.8-1.5-0.7a38.2,38.2,0,0,0-3.6,2.2v0.3ZM134,209.3a1.5,1.5,0,0,0,.7.1l4.8-3.2,0.9-.8-0.6-.7-5.9,4.7v-0.6l-1.7,1.4,0.2,0.3Zm1.9,24.6,0.5-1.4-0.4-.2-1.9,1.6H136l-3.8,2.9c4.1-.4,5.9-3.6,8.5-5.6Zm-29.2-67.8,0.7-1.1-0.4-.3-0.7,1,0.4,0.3-1.3,3.6,0.3,0.2,5.2-7.5a14.3,14.3,0,0,0-1.8,1.2Zm-7.3-11.8a12.5,12.5,0,0,0-6.3,5.7,6.5,6.5,0,0,0,1.6-.7l4.7-4.5,0.8-.8-0.9.3,8-5.9h-1.2l-7,5.4ZM94,148.8l3.7-2.6-0.5-.7-5,3.6,1.8-.4L92,150l-4.2,2.3,0.4,0.6,9.1-5-0.2-.4ZM84.2,147l0.6-.9-0.2-.2L79,149.4l0.4,0.6,4.7-3-0.2.4h0.6l1.9-1.2,0.2,0.8,3.7-1v-0.6l-4.4-.6Zm59,72.5a12.8,12.8,0,0,0,2-1.1l3.9-3.3c-1.2-.1-2.4-0.1-3.1.5a26.3,26.3,0,0,0-2.8,3.8v-1.1l-8.1,7.3a1.1,1.1,0,0,0,1.2-.2ZM54.4,146.9l1-1.1-0.3-.3-1.6,1.3,0.2,0.3,0.8-.2-2.2,1.6v-3.5H51.8l-1.4,7.9,4.4-5.3A1.7,1.7,0,0,0,54.4,146.9Zm122,43.2,2.7-2.8-0.5-.5-7,6.5-0.2-.3-2,1.6,2.1,0.3h0c0.5-.6,1-1.3,1.6-1.8l3.3-2.9c0.1,0.6.2,1.3,0.3,1.9a1.5,1.5,0,0,0,.8-0.1c0.4-.9.6-1.8,1-3ZM107,150.5l6.3-3.3v-0.7c-1.8,0-3.5-.1-5.3.1s-0.6.9-.9,1.4h2.4l-2.4,2.6-1.5.9,0.3,0.4Zm28.4,46.3h0l2-1.7-0.6-.2-8.5,6.8c-0.2.2-.1,0.8-0.2,1.9Zm-61-38.9a2,2,0,0,0,.8-0.2l7.6-6-0.7-1.1c-4,.9-4.9,5-7.6,7.3l-1.1.6,0.3,0.3Zm49.7,65.3,2.1-1.5-0.3-.3-1.8,1.8,2.7-3.4c-1.9-.3-10.6,9.8-10.6,12.5l3.5-4.1,3.6-4.3,0.2,0.8,0.3-.9h-0.5ZM140.3,235l1.8-2.5-0.2-.3-4.8,3.1,0.3,0.5,3-1a2.5,2.5,0,0,0,1.3.2l3.9-2.8v0.2l-2.9,2.5,0.4,0.4,6.1-5.3-0.2-.3-1.2.9c0-.3,0-0.6-0.1-0.9l1-.4v-0.3l-0.9.6ZM152,218.8a4.8,4.8,0,0,0-1.8.4,64.4,64.4,0,0,0-5.5,4.4c-1.5,1.4-2.8,3-4.2,4.6l0.5,0.5c1.5-1.2,3.1-2.2,4.5-3.5s4.4-4.2,6.6-6.4l0.4-.8h-0.2ZM57.6,159.6h0l0.3-1.4-3.9,3.4,0.2,0.3,2.9-.9a7.2,7.2,0,0,1,.1,1.1,10,10,0,0,1-.2,1.2,3.5,3.5,0,0,0,1.2-.4l7.3-6-1.8,2.3,1.9-.7L62,161.7l0.5,0.5,3.8-3.2,6-5.4-1.7,2.2a6.8,6.8,0,0,0,2.1-1.3,2,2,0,0,0,.3-0.7l-0.8-.3a2.1,2.1,0,0,1,.2-1.1l8.6-6.8a2.6,2.6,0,0,0-2,.6l-7.6,5.4-2,.5,0.2,0.6,1.8-1.1-5.8,4.9v-1c-2.1,1.3-3.5,3.3-5.6,4.3l-0.4-.6,0.9-1-0.4-.5ZM20.1,236.2h0l0.8,1.6-1.8-1c-0.9,2,.3,3.3,1.2,4.8a34.5,34.5,0,0,1,2,5.1,20.2,20.2,0,0,1-3-2.2,20.4,20.4,0,0,1-5.1-14.9,22.2,22.2,0,0,1,2-8.1c2-4.3,4.5-8.3,6.8-12.5A4.2,4.2,0,0,0,23,207a26.5,26.5,0,0,1-.4-2.7c1.8-.6,3.7-0.7,5.5-1.4a25.8,25.8,0,0,0,4.8-2.8c0.6-.4.9-1.4,1.5-1.7s3.6-1.6,5.4-2.3l1.4-.3c2.6-.2,5.6.4,6.4-3.4-0.9-.2-2.1-1-3-0.7A78.5,78.5,0,0,0,33.3,196c-5.9,3-11.7,6.1-15.6,12s-7,11.1-6.4,18.1c0.2,2-.6,4.3.1,6a114.8,114.8,0,0,0,7.6,15.2c3.3,5.3,8.4,8.9,13.5,12.5a10.6,10.6,0,0,0,5.9,2.1c5.6,0.3,11.2.7,16.8,1.2,1.8,0.2,2.6-.1,2.2-2l-9.8-1.5a71.5,71.5,0,0,1-9.7-2,52.9,52.9,0,0,1-8-3.8,59.2,59.2,0,0,1-6.3-3.7,16.8,16.8,0,0,1-2.6-2.8l0.4-.4c0.8,0.9,1.7,1.8,2.6,2.6a2.4,2.4,0,0,0,1.2-.1,9.6,9.6,0,0,0-.6-2.7c-1.9-3.3-3.6-6.6-1.2-10.4a0.9,0.9,0,0,0,.2-0.5l-1.5-1.5-0.7.6Zm144.7-67.1c-0.1-1.3-.2-2.6-0.4-3.8a1.4,1.4,0,0,0-.6-1,38.1,38.1,0,0,0-6,.3c-0.7.1-1.3,1.2-1.9,1.8a5.4,5.4,0,0,1-1.1.7l-1.1.5,2.2,0.9a1.7,1.7,0,0,1-.1.9c-2.3.1-4.5,0-6.8,0.2s-3.4.2-3.8,0.9-0.4,3.4-.5,4.9l8.9,0.5v0.9c-2.3,0-4.6-.2-6.9.1a7.7,7.7,0,0,0-4.1,1.3c-0.6.5-.1,2.3,0,3.5a1.1,1.1,0,0,0,.8.3c2.2,0,4.4.1,6.6-.1s2.3-1,3.5-1a11.3,11.3,0,0,1,4.8.6c0.7,0.3.9,1.9,1.3,3h-0.2c-1.2,1.6-1.9-.4-2.9-0.4-4-.1-8.1-1-11.3,2.2-0.9.9-1.9,2.6-1.7,3.6,0.8,3.7,2.5,7.3,6.7,7.8s8-.1,12,0.1,3-1.1,2.8-3.1a1.7,1.7,0,0,0-1.1-1.1c-3.7-.4-7.4-0.7-11.1-1.2a1.7,1.7,0,0,1-1.4-2.8c1.6-2.8,8.4-3.8,10.5-1.3s1.6,0.4,2.1-.2-0.3-3.5-.5-5.3a7.8,7.8,0,0,1-.3-0.9,2.4,2.4,0,0,1,1.1-.5l5.9-.8a1.2,1.2,0,0,0,.9-0.7,38.5,38.5,0,0,0,.5-4.8,1.6,1.6,0,0,0-1.3-.8c-1.1.1-2.3,0.4-3.4,0.5a3.9,3.9,0,0,1-1.4-.5,4.8,4.8,0,0,1,1.3-.6c1.6-.3,3.3-0.1,4.7-0.8s0.8-2.2.9-3.4a1.4,1.4,0,0,0-1-.9ZM47.7,190.6v0.8a42.2,42.2,0,0,1,4.5,2c1.2,0.7,1.5.3,1.8-.8a1.7,1.7,0,0,1,1.1-1.1,3.7,3.7,0,0,1,1.6.7,4.8,4.8,0,0,0,1.8.8c3.2-.2,6.6-1.1,9.7-0.6a134,134,0,0,1,17.6,4.3A33.3,33.3,0,0,1,94,201c2.3,1.5,4.1,3.7,6.3,5.3s2.8,2.1,2.5,4.1,0.6,2.5,2.4,2.4,1.2,0.9,1.8,1.4a1.1,1.1,0,0,1-.4.7l-2.2.5a19.1,19.1,0,0,1,.9,2.3c0.4,1.7.9,3.4,1.1,5.1s-0.8,3.7,2.1,4.1a2.7,2.7,0,0,1,.2,2.1,18.4,18.4,0,0,1-2.9,2.7H108l-4.3,1.8,2.8,0.7v0.5l-2.2.3c-0.2,2-.4,3.7-0.6,5.5l-0.3.2c-1,1.2-2.1,2.3-3,3.6a5.4,5.4,0,0,0-1.2,2.6c-0.2,4.5-2,6-6.3,5.3a1.9,1.9,0,0,0-1.1.3c-3,1.8-5.8,4-9.1,5.2-6.5,2.4-13.4,2.7-20.3,2.6-0.5,0-1.1.7-1.6,1s1,1.6,1.6,1.8a11.3,11.3,0,0,0,4.2.2c7.1-1.1,14.8.8,21.4-3.1a124.6,124.6,0,0,0,13.9-9.2c2.1-1.6,3.6-4.3,5-6.7s4.3-7.6,3.9-12.1c-0.2-2.6-.9-5.2-0.8-7.8,0.4-9-3.3-16.1-9.7-22a20.1,20.1,0,0,0-3.9-2.2c-4.7-2.6-9.2-5.5-14.1-7.8-6.6-3.1-13.6-4.9-21-4C56.7,189,52.2,189.8,47.7,190.6ZM74,168.7c-1.2.9-1.8,1.2-2.3,1.7a9.1,9.1,0,0,0-2.4,9.1,12.5,12.5,0,0,0,4,6.2c1.7,1.5,4.3,2.1,6.6,2.8,4,1.1,7.8.3,10.6-2.9s2.1-4.2,3.2-6.3a15.8,15.8,0,0,1,1-1.5,7.6,7.6,0,0,1,.3,1.4c0.1,2.8,1,3.4,3.3,2l1.3-1a0.9,0.9,0,0,0,.1-0.8c-2-4.2-2.1-8.6-1.5-13.1,0.2-1.2.3-2.5,0.4-3.7a1.7,1.7,0,0,0-.4-1.3l-5.6-.8c-1.9-.3-1.5,1.2-1.5,2.1,0,2.7.5,5.5-.1,8.1a25,25,0,0,1-4,8.9c-1.2,1.5-3.9,2.6-6,2.6s-3.8-2.1-4.4-4.4,2-7.4,4.6-9.2c0.8-.5,1.7-1.8,1.5-2.5a44.4,44.4,0,0,0-2.6-6.4,1.1,1.1,0,0,0-.9-0.1c-3.5,1.5-6.9,3.3-10.4,4.6-1.9.7-3.1,1.1-2.4,3.6s0.5,1.7,1.9,1.5S71.6,169,74,168.7ZM128.9,182c-2.2,1.9-4.2,3.7-7.3,3.8-1.6,0-3.5-1.1-3.1-2.7a58.5,58.5,0,0,1,2.6-9.3c1-2.6,2.7-5,4-7.5a1.5,1.5,0,0,0-.6-1.3l-7.1-.6a1.5,1.5,0,0,0-1.1.8c-0.6,3-1.1,5.9-1.8,8.9a27.7,27.7,0,0,1-1.5,5.4c-1.3,2.9-2.2,5.7-1.9,9a4.8,4.8,0,0,0,4.5,4.6c4.9,0.4,9.2-1.8,13.5-3.5a2.7,2.7,0,0,0,.9-2.3A47.7,47.7,0,0,0,128.9,182ZM34.1,253.7l-0.2.5c0.9,0.6,1.8,1.4,2.8,1.9,4.6,2.6,9.9,2.4,14.9,3.4,0.4,0.1,1-.6,2-1.2l-4.5.3a1.7,1.7,0,0,1,1.2-1.3c2.9-.2,4.6-1.9,5.6-4.4a5,5,0,0,0,.2-1.1H55.6l-0.4,1-0.2.6-1.8-.5,0.4,1.4-1.2-.2-1.5.3a55.6,55.6,0,0,1-6.9,2.2,9.7,9.7,0,0,1-8.5-2.2A4,4,0,0,0,34.1,253.7Zm38.6,0.2,0.2,0.5h5.6l0.5-1.3,0.6,0.3c1.6,1.6,2.2,1.7,4,.4l-2.7-.5a15.2,15.2,0,0,0,2.4-1.5c0.6-.6.9-1.5,1.6-2.1s2-.7,2.6-1.4,1.1-2.5.7-2.8a11.2,11.2,0,0,0-3.3-1.8l-3.5,3.1,4.9-.6a4.6,4.6,0,0,1,1.6.5,4.6,4.6,0,0,1-1.3,1.5l-7.8,2.8C76.7,251.9,74.7,252.9,72.7,253.9ZM50.8,235.7a3.5,3.5,0,0,0-1.2-.3,3.7,3.7,0,0,0-1.3.5,2.6,2.6,0,0,0,.9.8c1.5-.5,3.6-0.6,4.4-1.7s1.7-4.2,2.4-6.3a2.4,2.4,0,0,0-.1-0.9H55.1l-6.4,1.9a5,5,0,0,0-2.3,1c-0.4.5-.3,1.5-0.4,2.3a4.6,4.6,0,0,0,1.7-.2c0.8-.5,1.4-1.3,2.2-1.7a4.4,4.4,0,0,1,2.7-.4,2.3,2.3,0,0,1,.7,2.1c-0.2.5-1.3,0.8-1.9,1.1l-1.2.6Zm0.4,12.8c4.3,2.2,10.7.4,12.2-3.4C59.1,244.9,55,245.5,51.3,248.5ZM26.5,208.7c-1.1-.5-2.2-1.1-3.2.9s-3,4-4.1,6.3-2.8,6.3-4.1,9.5l0.7,0.3a48.4,48.4,0,0,1,2.2-4.3c0.3-.4,1.1-0.4,1.7-0.6h0.7a1.4,1.4,0,0,0-.2-0.7c-1.3-.9-0.7-1.5.1-2.3a32.3,32.3,0,0,0,2.5-3.3l-0.6-.4-2.3,2.6a2.5,2.5,0,0,1,0-1ZM131,172.8l4.4-1.4a0.9,0.9,0,0,0,.5-0.5c0.5-1.4-2.4-4.5-3.8-4.2-3.2.7-3.3,0.9-2.3,3.9a6.4,6.4,0,0,0,.4,1.1A7.9,7.9,0,0,0,131,172.8ZM80.2,196l-0.5.7a7.3,7.3,0,0,0,2,1.6c1.4,0.5,3,.4,4.4,1s4.2,0.8,4.1,3.7h4.8C90.4,198.9,85.5,197.1,80.2,196ZM24.5,215.3l8.3-.6a1.6,1.6,0,0,0,1-.4,1.4,1.4,0,0,0-.2-1,6.5,6.5,0,0,0-1.3-2.1c-0.6-.5-1.9-1.1-2.4-0.9a47.8,47.8,0,0,0-5,4.2A1,1,0,0,0,24.5,215.3Zm64.3-6.6H87.9l-1.9-.9a3.2,3.2,0,0,0-1.1-.7,29.5,29.5,0,0,0-4.7.8,2.3,2.3,0,0,0-.7,1.6,1.6,1.6,0,0,0,.9.9c2.4,1.4,4.8.5,7.2-.2A3.9,3.9,0,0,0,88.7,208.7ZM66,239.4l-0.3-.5,2.4-1.3c0.9-.4,1.9-0.6,1-2a3.7,3.7,0,0,1-.2-1l-0.6-1.5a6.1,6.1,0,0,0-1.6.7c-1.5,1.3-3,2.6-4.4,4s-0.2.9-.3,1.9l-0.8.7,3.9-.9-1.5-.4v-0.3Zm15.1,17.5-2.2.4c-3.6.8-7.5,2-10.9,0.3s-3.8.3-5.5,1.3a0.6,0.6,0,0,0-.2.5,0.9,0.9,0,0,0,.6.3C69.2,259.8,75.3,259.5,81.1,256.9ZM22.8,183.9l-1.4.5-1.6.4a6.7,6.7,0,0,1,.5-1.6c0.8-1.2,1.6-2.4,2.5-3.6l-2.3-.7-3.1,14.6,0.8,0.4,1.8-2.3c0.7-.9,1.9-1.9.1-3a1.6,1.6,0,0,1,.2-1.2C20.9,186.3,21.7,185.3,22.8,183.9Zm65.8,28.9c-3.1,0-9.5,3.2-9.7,4.8C83.4,218.4,87.5,216.4,88.6,212.7Zm-1,15.6-1.2-.2L86,230.7a2.7,2.7,0,0,0,1.4,0c2.3-1.8,4.7-3.7,6.9-5.7,0.4-.3.2-1.2,0.2-1.9a0.9,0.9,0,0,0-.6-0.6c-1.5-.2-5,3.7-4.7,4.9Zm53.2-59.8,0.7-.3c-0.5-1.3-.8-3.6-1.7-3.8s-2.9.7-4.2,1.1l2,5.4,3.2-.8-2-5,0.5-.2ZM44.4,215.2a7,7,0,0,0-1,1.4,1.6,1.6,0,0,0,.7.8,16.5,16.5,0,0,1,2,1.2c2,1.8,3.4,2,5.2.5a1.4,1.4,0,0,0,.1-1.2ZM173.8,172l1.6-6.2c-1.4,1-2.6,1-2.4,3s-0.4,6-.7,9.1a5,5,0,0,0,.5,1.6c0.5-.4,1.3-0.8,1.4-1.3a37,37,0,0,0,.6-4.3l-0.7.3-0.4-.5,4-3.2-0.4-.4ZM24,220.9c-1.9-.6-2,0.7-2.1,1.7a2.3,2.3,0,0,0,.8.8l0.6-.9a3.2,3.2,0,0,1,.6-1l3.6-2.3,4.7-2.7-0.3-.9a35.4,35.4,0,0,0-5.8,1.7C24.8,217.9,23.2,218.8,24,220.9Zm17.5-8.8,2.6-1.1,1.4-.9a5.2,5.2,0,0,0-1.7-.7H36l-1,.3a6.2,6.2,0,0,0,.3,1.9,3.6,3.6,0,0,0,1.2,0H39A20.2,20.2,0,0,1,41.5,212.1Zm-5.9,20,0.3,0.6a6.6,6.6,0,0,0,2-1.3c0.2-.3-0.3-1.3-0.7-1.8a17.5,17.5,0,0,0-2.3-2.1l-1.8-1.3c-3.5,4.8,1.4,4.2,3.2,5.7H35.6ZM75.1,231l3.9-2.3a1.5,1.5,0,0,0,.7-1c-0.4-.7-1.2-1.9-1.5-1.8-2.1.7-4.2,1.7-6.5,2.7C73.1,229.4,75.5,228.2,75.1,231ZM96,247l-2.3-2.8a3.2,3.2,0,0,0-.9.4c1.5,2,0,3.4-1.1,4.8a9.4,9.4,0,0,1-2.2,1.5,4.5,4.5,0,0,0-1,.7,0.8,0.8,0,0,0,.2.8,1.7,1.7,0,0,0,1.2.3l4.8-4.1A17.9,17.9,0,0,0,96,247ZM30.2,222.7l1.5-.7a2.4,2.4,0,0,0,1.2-.8,1.6,1.6,0,0,0-.5-1.2,31.4,31.4,0,0,0-5.2.7,6,6,0,0,0-2.2,1.6,1.1,1.1,0,0,0,.2,1,4.2,4.2,0,0,0,1.5.4C27.4,221.7,29,222.9,30.2,222.7Zm50.1-23.9-1.4,1a5,5,0,0,0,1.5,1.6,5.9,5.9,0,0,0,2.3-.3,4.5,4.5,0,0,1,2.1-.2c1,0.4,1.7,1.3,2.6,1.8a5,5,0,0,0,1.8.2c-0.3-.6-0.4-1.4-0.8-1.6C85.7,200.5,83,199.7,80.3,198.8Zm-33.7,13v0.6l2.7,1.1,3.7,1.1-2.1-3.8-0.3-.2-1.8-.7V211Zm-13.8,28a9.9,9.9,0,0,1-1.7,1.8c-0.9.5-1.9,0.7-2.8,1.2a1.3,1.3,0,0,0,.1.9c1.1,0.4,1.9,2.1,3.3.7l3.1-3.2ZM171,222.2l-4.5,8.4,0.7,0.3c4.1-2.9,4.2-7.7,5.7-12.4l-2.9,4.1Zm-123.2,5c1.6-1.3,3.2-2.3,5.1-1.3a0.9,0.9,0,0,0,.6-0.2l6.2-2.9V222c-0.8.1-1.7,0-2.2,0.5s-3.4,2.3-5.7,1.6S48,225.2,47.8,227.1Zm11.8-5.5a46.3,46.3,0,0,0,1.2-5.3,4.6,4.6,0,0,0-.8-2.2,1.1,1.1,0,0,0-.9,0,3.9,3.9,0,0,0-.7,1.8,22.8,22.8,0,0,0,.3,3.2l-1.8-1.6-0.5.5Zm51.4,5.6c2-5.6,1.3-11.9-1.1-11.8Zm35.7,7.8,0.5,0.5,9.9-8.4-0.4-.5-6,4.8-0.2-1.2-0.7.3-0.9.8-4.1,3.6,0.4,0.5,4.6-3.7,0.2,0.2Zm-29.6-71.9,0.2,0.3,1.7-1.1a36.5,36.5,0,0,0,4-2.7c1.3-1.2,2.4-2.7,3.7-3.9a20.6,20.6,0,0,1,2.9-1.7,2.9,2.9,0,0,0,.6-0.9,2.4,2.4,0,0,0-1,.1l-9,6,0.6,0.6ZM71.9,222.2l-3.4,2.2a1.4,1.4,0,0,0-.5.8c0.5,0.5,1.3,1.6,1.7,1.4a28.2,28.2,0,0,0,3.9-2.1ZM111,235.7h0.9l1.8-14.5H113Zm-82.6,5.4-0.5-.4,0.6-1.8a1,1,0,0,0,.1-0.6l-2.3-1.7a24,24,0,0,0-.8,2.3,2.1,2.1,0,0,0,.1,1.2c0.3,0.7.6,1.4,0.9,2.1Zm7.1-35.7,0.6-.5,4.9-5a20.9,20.9,0,0,1,2-1.6,17.8,17.8,0,0,0-2.6.4C37.4,199.8,35.2,202.9,35.6,205.5Zm39.6,3.9,1.5-1.9a7.1,7.1,0,0,0-1.3-.9l-1.8-.4c-1.7-.5-1.7.9-2,1.8a3.5,3.5,0,0,0,1.4,1A12.2,12.2,0,0,0,75.1,209.4ZM18.4,231.7l6.6-2.2-2.2-.7C19.3,227.7,17.7,228.8,18.4,231.7Zm73-12.1-0.2-.7c-0.9.3-2.2,0.4-2.5,1a47,47,0,0,0-1.8,6h0.4Zm-61.1,10-0.5.6,3.1,2.8-0.2.2-2.8-1.7-0.4.7,4.2,2.6,0.4-.6-0.4-.7h2.6Zm131.6-4.1,0.6,0.6,10.1-9.4-0.5-.5Zm6.8-58.2c1.8,0,7.4-3.8,7.8-5.1a1.8,1.8,0,0,0-.1-0.8,3.1,3.1,0,0,0-1,.3l-3.9,3Zm2.1,53.4-0.8-.7-7.4,8.6,0.6,0.6Zm-76-74.4c-2.7-.5-6.1,1.2-9.8,5l1.8-.9,5.2-3.1,1.1-.6,0.4,0.7Zm77.5,15.5v-0.2c-2.1,1.2-4.2,2.3-6.3,3.6a2,2,0,0,0,0,1.7,1.5,1.5,0,0,0,1.3.5,2.5,2.5,0,0,0,1.3-1c0.5-.8.8-1.8,1.4-2.5A20.3,20.3,0,0,1,172.2,161.9ZM55.9,146.1l0.3,0.4a16.5,16.5,0,0,1,1.4-1.5,2.8,2.8,0,0,1,1.4-.7,2.9,2.9,0,0,1,1.2.6,8,8,0,0,1-.9,1.4l-2.1,1.8,0.3,0.3,4-2.9c-1.3-1.9-3.8-3.1-4.9-2.2s-0.2,1.4-.3,2.5Zm-1.2,61.4,1.2-2.4-1.3.8-1.9-2.4-0.2,1.6c-0.4-.8-0.6-1.3-0.8-1.8a6.8,6.8,0,0,0-.8-0.9,7.7,7.7,0,0,0-.9,1.3,0.9,0.9,0,0,0,.3.8Zm92.7-2.2-0.4-.6-10.5,7.6,0.5,0.7ZM183.8,165l-1-.2c-0.6,2.8-1.2,5.6-1.7,8.4a4.3,4.3,0,0,0,.3,1.5h0.5ZM41.9,244.1c3,2.7,4.5-.4,6.7-0.7l-0.3-1Zm105.6-7.7,0.2,0.7a19.5,19.5,0,0,0,3.4-1.4c0.7-.4.9-1.4,1.5-2s2.1-1.9,3.2-2.8l-0.6-.6-6.2,5.3,0.4,0.3ZM33.8,246.8l-0.8-.3a10.6,10.6,0,0,0-1.6,3c-0.1.6,0.8,1.4,1.3,2.1l1.9-2.5Zm146.2-92.1c1.3-.8,2.1-1.6,3-1.8a9.6,9.6,0,0,1,3,.3,7.5,7.5,0,0,0-.1-2.5c-0.1-.3-1.3-0.2-2.4-0.3l1,1.2c-0.7-.1-1.7-0.6-2-0.3A24,24,0,0,0,180.1,154.6Zm-1.6,22.2h1.4a4.2,4.2,0,0,1-.4,1.4c-0.9,1.1-1.9,2.2-3.1,3.6,1.6-1,3.3-1.5,4-2.6s0.7-2.8.9-4.2h-0.7Zm-22.2,43.9-0.6-.7-8.9,7.4,0.4,0.5ZM91,159.4l-0.4-1.6-3.7,4.1C89.7,163.6,90.1,161.1,91,159.4ZM46.6,179.1l2.4-9.4C47.1,171.1,45.7,176.7,46.6,179.1Zm9,16.3v0.4h4.5l0.3,1.5,1.4-1.1L61.5,194Zm120.7-1.3-0.7-.4-4.4,5.3,0.7,0.6,2.8-3-0.2,1.2h0.4Zm-40.4,3.7-5.8,4.7,0.5,0.6C132.3,201.5,135.5,201.4,135.8,197.9ZM59,239.5a2.9,2.9,0,0,0,1.3-.6c0.9-1.8,1.7-3.6,2.6-5.8C59.4,233.6,60.5,237.5,59,239.5Zm40.3-63.7h0.6l0.6-8.3C97.8,170.4,99.6,173.2,99.4,175.8Zm73.5,27.4,0.3,0.7c0.8-.3,2-0.3,2.4-0.8a11.4,11.4,0,0,0,1.1-3.3l-0.6-.2ZM22.5,225.5v1l4.3,0.5a1.1,1.1,0,0,0,.5-0.9,1.4,1.4,0,0,0-.8-1Zm20.5-5c-0.6.5-1.3,0.9-1.4,1.3a1.4,1.4,0,0,0,1.9,1.7c0.7-.2,1.1-1.1,1.7-1.7Zm55.2,25.1,3.4-4.1-4.2.4Zm32.2-88.2,0.4,0.4,6.5-5.7-0.3-.4-6.8,4.5v0.2l1.6-.6,0.3,0.4Zm5.8,48,0.4,0.4,8.6-7-0.6-.7ZM66.5,218c-0.9-.1-2-0.4-2.1-0.2a25.7,25.7,0,0,0-1.5,4,2.1,2.1,0,0,0,.2,1,2.2,2.2,0,0,0,.8-0.5ZM105.4,205h-0.6c-0.3-1-.4-2.2-1.1-2.8s-1.9-.8-3.2-1.2l5.2,6.2,0.8-1.3-1.3.2V205ZM80.5,244.4l-0.9-.9a27.2,27.2,0,0,1-1.8,2.1L74.1,249l0.6,0.6Zm26.2-96.9c-2.7-1.8-3.9.1-5,1.2V150Zm19,89.6c-1.3-1.3-3.2.2-4.1-2l-2.5,2h6.6ZM63.3,200a4.1,4.1,0,0,0-.7-1.2l-5.4.5a2.2,2.2,0,0,0,.3.7h5.8Zm11.7-1.3v0.3a6.4,6.4,0,0,0,1.7.3,1.2,1.2,0,0,0,.6-0.9c-0.5-1.2-5.6-2.9-7.3-2.1l6.6,2v0.4ZM52.8,246.1c-2.4-1-4-.5-5,1.5C50.1,249,51.1,246.8,52.8,246.1ZM49.1,48.7c-3.5.3-5.1,2-4.1,3.9Zm-13,202.1L35.6,252a4.9,4.9,0,0,0,1.5.5,3.2,3.2,0,0,0,1.1-.6,2.6,2.6,0,0,1,1.1-.4l2.2,0.3v-0.8H36.1Zm59.3-90.9c1.5,0.9,6.2-1.3,7.3-3.3Zm26.3,73.6-4.2,3.3a0.9,0.9,0,0,0,1,.1l4.2-3.3a5.8,5.8,0,0,0,1.2-1.3,1.6,1.6,0,0,0-.2-0.8,4.4,4.4,0,0,0-1.3.5A5.2,5.2,0,0,0,121.7,233.5Zm-72.2-47-4.3,3a1.3,1.3,0,0,0-.4.7,0.6,0.6,0,0,0,.3.4,8.3,8.3,0,0,0,3-1C48.7,189,48.9,187.8,49.5,186.5Zm35.1,53.7v0.9l4.3,0.3a9,9,0,0,0,.3-1.6Zm54.9-62.1-0.7-.8-5.4,5.5,0.4,0.4Zm-39,13.7h0.1l6.9-6.3-0.8-.7ZM63.4,210.3c-0.1-2,.6-2,1.8-1.4a2.7,2.7,0,0,0,1.2,0,4.6,4.6,0,0,0-.7-1.1,8.2,8.2,0,0,0-1.2-.6l-1.1-.8c-0.2,1-.5,1.9-0.7,2.9A2.9,2.9,0,0,0,63.4,210.3Zm52.3,0.5,0.7,0.8,4.5-4.1-0.7-.7ZM86.7,189.9H78.9C82.3,191.7,85.2,191.5,86.7,189.9Zm51.7,30.8-0.5-.5-7.2,6.9,0.4,0.4Zm-64,15.6,0.7,1.1,3.1-1.6c-0.5-.4-1.2-1.2-1.6-1A8.7,8.7,0,0,0,74.4,236.3Zm3.4-32.2-4.9.6a10.5,10.5,0,0,0,4,1.4A10.2,10.2,0,0,0,77.8,204.1Zm14,8.8,4.2-1.5-0.3-1-4.4.9ZM95,198.3c-0.4-2.3-3.7-4.4-5.3-3.5ZM170.3,230l-5.2,5-0.6-.6A8.7,8.7,0,0,0,170.3,230Zm-38.1-6.7-5.6,4.8a1.6,1.6,0,0,0,1.8.1c1.2-1.2,2.3-2.5,3.4-3.7A5.2,5.2,0,0,0,132.2,223.3Zm-58.1-9.1-3.2,4.1C73.7,218.4,74.3,217.7,74.1,214.1Zm29.7,3.5a3.1,3.1,0,0,0-2,3.8,1.4,1.4,0,0,0,.8.6,0.6,0.6,0,0,0,.5-0.3C103.4,220.4,103.6,219.2,103.8,217.6ZM67.6,244.7l2.7-4.3-0.7-.6c-0.8,1-1.7,1.9-2.4,2.9S67.3,243.6,67.6,244.7Zm-37.7,3.7-3.8-.5,1,3.6Zm48.7-28.8v0.6a27.5,27.5,0,0,0,2.7,1.3,1.1,1.1,0,0,0,1-.5,1.7,1.7,0,0,0-.4-1.3A28.7,28.7,0,0,0,78.6,219.7Zm37.5-69.3-0.4-.5-7.4,5.7,0.3,0.4Zm12.6-1.4h6.8C132.6,147.6,129.9,147.7,128.7,148.9Zm-70,26.4-0.6-.4-4.5,5.9,0.6,0.4Zm17.8,46.3-1-1.1a6.9,6.9,0,0,0-1.5,1.9c-0.1.3,0.9,0.9,1.5,1.4Zm0.7,9.9,4,0.5a1.1,1.1,0,0,0,.3-0.8,4.5,4.5,0,0,0-.8-1.4A38,38,0,0,0,77.3,231.4ZM52.9,154.3l-0.7-.3-2.4,6.1,0.8,0.3Zm103.9,33.9c-2.6-.3-4.8,1.4-4.3,3Zm-36,31.1-0.6-.4-3.2,4.7,0.8,0.5Zm50.2-5.8a2.6,2.6,0,0,0-1.2.3,1.4,1.4,0,0,0-.1,1.1,0.9,0.9,0,0,0,.6.3l3.6-3.9-0.6-.5ZM59,257.1L54,259.4C56.8,260.1,58.5,259.3,59,257.1Zm30.4-24.8,0.3,0.5,3.3-.5a3.3,3.3,0,0,0,1.1-.9,2.4,2.4,0,0,0-1.1-.5Zm12.5,3.1-0.5,3.8,0.9,0.6,0.8-4.4H102Zm40.7-78.3,0.3,0.4,6.7-4.9-0.4-.6Zm-11.9,22.8,4-3.7a3.5,3.5,0,0,0,.5-1.3,4.7,4.7,0,0,0-1.7.8C132.6,177,131.9,178.3,130.8,179.9Zm47.2-2.5-0.8-.8-5.2,6.1ZM62,229.4l4.4-.8a6.4,6.4,0,0,0-3.4-1.1C62.8,227.5,62.5,228.5,62,229.4Zm0.2-26.6,4.3,0.8C66,201.6,64.1,201.2,62.2,202.8ZM168.7,159l-0.3-.6-6.7,4.1,0.3,0.5Zm-26.7,34-0.5.9h1.4l-1.1,1.7,2.1-.3-2.1-4.4a10.1,10.1,0,0,0-.8,1.6Zm37.6-20.8-0.5-.4-4,4.7,0.7,0.6ZM47.1,250.6l0.2-.9-5.3-.9v0.7Zm8.8-62.2-2-.9-1.8.7-1.7.6,0.2,0.6Zm69-14.4-0.2-.4-0.5.2-1.4.4a9.4,9.4,0,0,1,.5-1.2l1-1.5-0.7-.4-2.2,3.8,0.4,0.4ZM72.7,236.7l0.4,0.2,1-3.2-1.8-.4Zm-23.3,2.5v-0.9l-4.9.9,0.2,0.9Zm76.3-12.5-0.6-.5c-0.1,2.3-3.8,2.2-3.3,5.4ZM72.5,161.2l-0.4-.7-4.9,3,0.4,0.6Zm82.5-7.7-0.3-.5-6.1,4.3,0.3,0.5Zm7.6,38.9-1.4-1.6-2.8,1.6h4.3Zm-8.9,25.9,0.4,0.6,4.4-2.9-0.4-.7ZM92.6,155.7l-0.5-.7-4,3,0.5,0.7Zm70.6,4.1-4.9,3.5C161.3,163.7,161.8,161.1,163.2,159.8Zm-40.5,61.8-0.7-.5-3.1,4.8,0.6,0.4ZM43.7,63.8l2.8-3.6C43.9,60.4,43.2,61.4,43.7,63.8Zm45,128.3-3.6-.5v0.9C86.1,192.3,86.9,194.8,88.6,192.1ZM141.1,216l0.3,0.3,5.6-4.2-0.4-.5Zm-34.7-59.9-0.7-1.5-2.6,2.8c0.5,0.3.6,0.3,0.7,0.2Zm-58.7,81v0.2a18.2,18.2,0,0,1,2.9,1.3c1.4,0.9,1.7.9,2.1-.7Zm93.5-57.6-2.2,3.7h2.2v-3.6Zm-21.2,51.3-0.5-.4-3.1,3.8,0.7,0.6Zm15.3-10.5,0.4,0.4,3.9-3-0.8-.8ZM29.2,233.2c0.4,0.9.5,1.5,0.8,1.7a17.9,17.9,0,0,0,2.5,1,1.7,1.7,0,0,0,0-.8Zm53.9,2a5.3,5.3,0,0,0-.2,1.5,1.4,1.4,0,0,0,1.1.4,15.3,15.3,0,0,0,1.8-1.9H83.2ZM47.4,197.7v-1H44.7a9.5,9.5,0,0,0,0,1h2.6Zm111.4-44.6,0.5,0.8,4.5-2.8-0.2-.3ZM136,201.9l-3.8,3.2C134.8,205,135.7,203.9,136,201.9Zm26.5,9.1,0.6,0.5,3.6-4-0.5-.4Zm-48.8,25.7,0.6,0.4,1.8-2.7a1.5,1.5,0,0,0-.2-0.8,1.7,1.7,0,0,0-.8.3C114.5,235,114.1,235.9,113.6,236.8ZM46,224.7l-0.5-.4L43.3,227a0.8,0.8,0,0,0,.3.7,0.9,0.9,0,0,0,.8-0.1C44.9,226.6,45.4,225.7,46,224.7Zm64-55.2-0.6-.4-3.4,5,0.4,0.3ZM71.3,158.7l0.4,0.5,4.3-3.3-0.5-.6Zm-5.9-8.2,0.2,0.4,5.5-3.8-0.4-.5Zm99.8,70.1,0.5,0.5,3.4-3.7-0.5-.5Zm-38.8-4.5-0.5-.4-3.4,3.6,0.6,0.5ZM70,214.9v-0.8H67.4a3.7,3.7,0,0,0,.6,1.4A8.1,8.1,0,0,0,70,214.9Zm89.3-26c-1.3-1.6-2.4-1.2-3.5,1.1Zm-6.1-30.2,0.4,1L157,158l-0.2-.6Zm-101,19.2-0.5-.3L48.2,183l0.4,0.3ZM95,191l0.3,0.4,4.3-3.6-0.4-.5ZM40.1,214.2l-0.2-.6-2.6.3c0.4,0.5.8,1.4,1.1,1.4A5.3,5.3,0,0,0,40.1,214.2Zm69.5,0.3h0.4c-0.2-.7-0.3-1.3-0.5-2a8,8,0,0,1,0-1.3l-1.6.5Zm-24-59.4-0.4-.6-4.7,3.4,0.3,0.4Zm26.9-.1,0.3,0.4,5.5-4.2-0.3-.4ZM84,227.1l-1.8-3.3-0.6.9a4.3,4.3,0,0,1,.7,1.2,3.9,3.9,0,0,1-.2,1.2H84Zm88.8-16.3a28.9,28.9,0,0,0,1.6-2.5,2.1,2.1,0,0,0-.5-0.9l-1.5,2.4A2.9,2.9,0,0,0,172.8,210.8Zm-21.1-9.9,0.4,0.7,3.4-1.7-0.4-.7Zm-17.4-40.3-0.2-.4-5,3.3,0.3,0.5Zm11-6-0.3-.5-5.8,3.7,0.2,0.3Zm33.3,0.7-0.4-.5-4.3,3.2,0.3,0.4ZM27.9,244.6l-0.7.8,2.4,1.7a0.7,0.7,0,0,0,.7,0,1.3,1.3,0,0,0,.1-0.9Zm96.1-9.6v0.7l4.1-.7v-0.6Zm-4.9-28.6-0.3-.3-5.1,4.6L114,211Zm24.9,16.3-0.3-.4-3.8,3.4,0.4,0.5Zm25.8-62v-0.2l-3.9,2.4a2.2,2.2,0,0,0-.4.9,2.4,2.4,0,0,0,.9-0.2Zm-19.4,47,0.7,0.7,2.3-2.2-0.6-.6Zm4.3-55.5,0.5,0.7,3.3-2.2-0.4-.6Zm-9.9,11.3-0.2-.5-3.8,1.3,0.4,1.1ZM87.8,190.9l0.8,0.8,2.9-3.3-0.4-.3Zm14.1-43.3-0.4-.6-3.6,2.7,0.3,0.5Zm3.1,83.3c1-1.1,1.8-1.9,2.4-2.8a7.4,7.4,0,0,0-1-1.1Zm-37.5.3v0.4l5.6,0.5v-0.7Zm95.5,2.4,0.3,0.4,2.9-2.1a0.6,0.6,0,0,0,0-.6,0.6,0.6,0,0,0-.6-0.1ZM35,238.1l0.5,0.7,2.8-2.1-0.4-.6Zm134.2-33.6-0.3-.4-4.4,3.2,0.4,0.5ZM185,158.4l-0.8-.3-1.3,3.8,0.5,0.2ZM65.6,183.6l-0.5-.6-3.7,2.9,0.2,0.3Zm-8.8,56.9,0.2,0.7,2.9-.7a0.5,0.5,0,0,0,.3-0.5,0.7,0.7,0,0,0-.5-0.4ZM39.2,254.8v0.6h6Zm73-46.5,0.5,0.5,3.2-3-0.4-.4Zm6.3,3.4-0.5-.6-2.7,2.3,0.6,0.6ZM72.1,148.6l-0.4-.6-3.7,2.6,0.3,0.4Zm25.2,43.7,4.8-4.7a1.9,1.9,0,0,0-.8.2Zm49.8,34.3-0.4-.4-3.5,3.3,0.4,0.4Zm-75.5-27v0.7l4.3,0.2V200ZM65.4,227l-0.9-2.8a2.2,2.2,0,0,0-1,1.8C63.5,226.4,64.4,226.5,65.4,227ZM103,228l-0.6-.5-2.2,2.9,0.5,0.4Zm15.3-72,0.4,0.6,3.8-2.9-0.3-.4ZM67.6,201.7v0.4h4.8v-0.4H67.6Zm36.5-1.9H104l4-3.8-0.3-.3Zm65.3-3.5L169,196l-4.1,3.8,0.4,0.4Zm-39.8,27.4-0.4-.4-3.3,2.6,0.5,0.6ZM45.7,179.9H45.1l-0.5,4.8H45Zm86.4,41,0.3,0.4,3.8-3.5-0.3-.4ZM79.5,177.3l0.6,0.6,3.2-3.6L83,174Zm-11.1-.6-0.7-.5-1.6,2,0.7,0.6Zm58.2,41.6-0.4-.4-3.8,4ZM107.9,198l-0.4-.5-3.3,2.8,0.3,0.4Zm45.2,28.8,0.5,0.5,3.4-2.9-0.3-.3ZM130.6,184h0.5c-0.1-.9-0.2-1.8-0.3-2.7a0.8,0.8,0,0,0-.7-0.1,0.8,0.8,0,0,0-.2.7C130,182.6,130.3,183.3,130.6,184Zm41.9,16.2-0.3-.5-3.2,2.4,0.4,0.6Zm-38.9-8.4-0.7-.6-2.9,3.3ZM52.9,244v0.8l2.7-.2V244H52.9Zm75-33.2,0.4,0.5,4.2-3.3-0.3-.3Zm-17-43.4,0.6,0.4,1.9-3.4-0.6-.3Zm13.3-13,0.3,0.4,4.4-3.6-0.2-.3ZM69.5,206.1l-0.4-.6-2.5,1.5,0.5,0.8Zm87.8-1.4v-0.2l-3.4,2.9,0.7,0.8ZM88.5,164.2l-0.3-.3-3.9,3,0.4,0.4Zm78.9,20.7-1-.9a10.5,10.5,0,0,0-.8,2,2.5,2.5,0,0,0,.8.9Zm-18.5-23.5,0.3,0.3,3.1-1.9a1.3,1.3,0,0,0,.2-0.6,1.2,1.2,0,0,0-.6-0.1ZM82.2,230.8h0.7a3.9,3.9,0,0,0,.2-1.6,2.5,2.5,0,0,0-1.2-.6Zm50-12.1,0.2,0.2,5-4.4-0.3-.3ZM29.1,203.3l2.3,1.2v-2.1ZM99.8,215v0.5l1.7,0.2a3.7,3.7,0,0,0,1-.3,1.6,1.6,0,0,0-.5-0.6Zm65.8-3,0.6,0.6,2.4-2.2-0.5-.6Zm2-48.7,0.3,0.4,3.6-2.1-0.3-.6Zm5.9-11.9V151l-3.5.7,0.2,0.8Zm-62.6,33.1-1.7-2.1h-0.4l0.4,1c0,0.1,0,.3,0,0.5l0.2,1.1Zm5.6,35.8,0.7,0.5,1.5-2.5-0.7-.4Zm-50-34.6-2.6,1.5,2.7,0.4v-1.9Zm14.9,26.4v-0.7H79.4v1.2ZM38.9,238l0.3,0.6,2.6-1.3-0.4-.8Zm66.3-17.7h-0.8c0,0.8,0,1.7,0,2.5h0.8v-2.5Zm57.3-5.1,0.5,0.6,2.4-1.7-0.4-.6Zm2.6-2.9-0.3-.4-3.1,2.2,0.5,0.6Zm-2.7-13-0.3-.6-3.8,2.2,0.2,0.4Zm-61.6-4.6-0.6-.3L99,196.9l0.8,0.3Zm83.1-38,0.6,0.3,1.4-3-0.6-.3Zm-39.6,12-0.5-.2a8.3,8.3,0,0,0-.8,1.7,4.4,4.4,0,0,0,.8,1.6Zm-12.5-10.5,0.2,0.4,3.9-2.3-0.3-.5ZM66.9,241.5l-0.3-.4-3.2,2.4,0.3,0.4Zm46.1-6.3h0.5l1.3-3.6-0.6-.2Zm-44.7-7.6,0.4-.6-2-1.5-0.5.7ZM37.9,238.8l-0.3-.4-2.4,1.1,0.6,0.8ZM150.3,165l0.5,0.6,1.8-1.7-0.6-.4ZM67.4,183.6l0.4,0.6,1.9-1-0.6-1ZM140.9,155l-0.2-.4-3.9,2.5,0.2,0.4ZM177,187.2l-0.5-.4-2.2,2.8,0.4,0.3ZM174,152l0.3,0.7,2.9-1.5-0.2-.4Zm-66.1,59,0.7-.4-1.7-2.4-0.5.3Zm29.6-38.1,0.2,0.4,3.2-1.5-0.3-.6ZM37.8,247.2l-0.3-.7-2.4,1.1,0.3,0.7Zm138.6-54.9-0.7-.5-1.1,1.9,0.6,0.2Zm-81.7,2.6,0.4,0.4,1.8-1.7-0.6-.5Zm12.6,8.3,0.5,0.6,2.1-2.3-0.3-.3Zm31.6-1.2-0.4-.4-3.2,3.1,0.2,0.3Zm32.8,3.6-0.5-.5-2,1.9,0.4,0.4Zm-62-32.7,0.4,0.2,2.3-4.3h-0.3ZM63.3,147.4l-0.3-.3L60.3,149l0.3,0.4Zm35.9,14.5,0.5,0.2,1.4-2.6-0.6-.3ZM36.7,227.9l-0.3.5,2,1.4,0.4-.7ZM162.3,213l-0.3-.4-2.7,1.9,0.4,0.6Zm6.2-3,0.5,0.5,1.9-2.2-0.5-.4Zm-14.7-7.2,0.3,0.4,3.2-2.3-0.3-.4Zm-47.7-8.3-0.4-.4-2.4,2.2,0.4,0.4Zm63.7-35.1,0.3,0.5,3.2-2.2-0.2-.3Zm-22.1-9.6v0.6h2.5V150ZM86.1,211.3V212l2.8-.4V211Zm89.8-6.4-0.6-.2-1.1,2.1,0.7,0.3Zm-20.6-41.3,0.2,0.4,3.4-2.3-0.3-.4Zm-23.1,11.9-0.2-.3-4,2.3,0.2,0.4Zm30.1,34.4-0.3-.3-3,2.4,0.4,0.4Zm3.3-12.4,0.5,0.2,0.5-3.3h-0.5ZM157,223.3l0.3,0.4,3.5-2.4-0.2-.3Zm2.7-3-0.5-.6-2.1,2,0.3,0.4Zm-41.7-64-0.7-.4-1,1.8,0.7,0.4Zm18.3,28.8-0.3-.5-2.4,1.9,0.3,0.4Zm-16.5-4.9,0.4,0.2,1.9-3.4-0.5-.2ZM116,149.4l-0.2-.5-3.2,1.6,0.2,0.3Zm42.5,1.7,0.3,0.4,2.1-1.1-0.3-.6Zm-35.3,30.1-0.4-.2-2,3.3,0.4,0.2Zm41.3,10.2,0.3,0.4,2.7-1.9-0.2-.3Zm4.3,16.7-0.4-.5-2.3,2.1,0.3,0.3ZM74.6,246.4l-0.3-.3-1.9,1.5,0.5,0.6Zm103.2-53.7-0.7-.2-0.4,2.4h0.6Zm-47.4,43.6-0.2-.6-2.2.8,0.2,0.6Zm46.4-72.6,0.5,0.4,1.3-1.9-0.5-.4Zm-30.1-2.8-0.4-.6-2,1.4,0.3,0.3Zm-1.4,23.2,0.3,0.6,1.9-1.2-0.3-.5Zm-80.9-34,0.2,0.3,3.4-2.5-0.2-.3ZM116,219.8h-0.5l-0.9,3H115Zm-42.7,23,0.6,0.4,1.2-1.6-0.5-.4Zm30-81.6-0.4-.2-1,3.8h0.4Zm72.3-5.7-0.3-.4-2.1,1.5,0.4,0.5Zm-62.9,3.9,0.3,0.4,2.7-1.9-0.2-.4Zm30.4-.7-0.4-.6-1.9,1.2,0.3,0.5Zm15.4,59.6-0.3-.4-3.4,2.2,0.2,0.3ZM96.1,154.7l0.4,0.5,2.3-1.9-0.2-.3Zm54,58.4-0.5-.6-1.7,1.3,0.3,0.5Zm29.6-28.8-0.6-.3-1.1,2,0.4,0.3ZM44.1,224c-1,0-1.7-.2-1.8,0a2.6,2.6,0,0,0-.1,1.2l0.6,0.4Zm99.3-26.8,0.3,0.6,1.5-.6-0.4-.8ZM48.1,167.3h0.3l0.7-2.3H48.4Zm122.1-12.8-0.3-.5-3,2,0.2,0.2ZM78.1,176.7l0.5,0.2,1.2-2.2-0.5-.3Zm49.2-13.7,1,0.9,1.8-2-0.6-.6Zm2.1,9-0.4-.6-2,1.4,0.2,0.3ZM141.8,162l-0.2-.4-2.5.9,0.2,0.6ZM27,233c1-.3,1.6-0.2,1.7-0.5a3.6,3.6,0,0,0-.1-1.6Zm74-53.3,0.6,0.2,0.9-2.1-0.6-.2Zm72.6-13.9,0.3,0.4,1.8-1.4-0.4-.5ZM60.9,187.4l0.3,0.4,2.1-1.4-0.3-.5Zm95.5,16.1-0.2-.4-2.8,1.7,0.2,0.4ZM66,169.7l-0.8-.8-1.5,1.6,0.5,0.4Zm103.7,12.8-0.2-.6-1.6.8,0.3,0.6Zm-46,0,0.3,0.3,1.8-1.7-0.5-.5Zm0.9-19.8,0.3,0.5,2.5-1.6-0.2-.3Zm15.5-2.4v-0.4l-2.7.7v0.5ZM121.2,164a3.7,3.7,0,0,0-1-1.2,4.7,4.7,0,0,0-1.7.6ZM15.7,227.2H15l-0.2,2h0.5Zm43.7-57.5,0.4,0.3,1.5-2.2-0.4-.3Zm111.5,27.1,0.4,0.3,2.2-2.5-0.3-.2ZM55.3,166.9l0.3,0.3,2-1.7-0.5-.5Zm50.8-4.7-0.3-.6-1.7,1.2,0.3,0.5Zm-14,47.6-0.6-.5-1.2.8,0.4,0.5ZM83,161.9h0.5v-2H83v2.1Zm86.2-10.9v-0.5l-1.8.2v0.5Zm-20.9,4.8-0.3-.4-2.6,1.9,0.2,0.3ZM42.9,219a2.9,2.9,0,0,0-1-.6,7.8,7.8,0,0,0-1.2,1l0.2,0.3Zm104.2,19.5v-0.6h-2.5v0.4Zm-7.7-51.7-0.2-.3-2.4,1.5,0.2,0.4ZM43,215.4l-0.4-.4-2,2.2,0.3,0.3Zm69.9,14.3,0.4,0.2,0.7-1.8-0.6-.2ZM68.6,187.4v0.5l2.2-.7-0.2-.5ZM83.3,223a2.8,2.8,0,0,0-.1,1c0.3,0.6.6,1.1,0.9,1.6l0.3-.2Zm-2.9-77.8v-0.5l-2.8-.2V145Zm36.3,49.3-0.3-.6-1.7,1.2,0.3,0.4Zm6.5,7.1-0.3-.3-2.2,1.6,0.3,0.4ZM70.9,185.8l0.3-.5-1.3-.9-0.4.7ZM139,209.7l-0.2-.3-2.6,1.9,0.2,0.3Zm-9-2.7,0.3,0.3,2.1-1.8-0.3-.3Zm39.3-49,0.3,0.3,2.3-2-0.3-.3ZM127,209.7l0.6,0.2,0.4-1.4-0.6-.2ZM86.8,158.5l-0.3-.6-1.5.8,0.2,0.5Zm-2,21.6,0.5,0.5,1.5-1.7-0.5-.5Zm13.5-28.5-0.2-.3-2.7,1.9,0.2,0.3ZM77.1,195.7l-0.3.3,1.7,1.5,0.4-.5ZM105.7,262v0.5l2.5,0.2v-0.6ZM85.3,226.5H86v-1.6H85.5C85.4,225.5,85.4,226,85.3,226.5Zm62.9-72.1,0.2,0.4,2.2-1.4-0.3-.4ZM97.1,197.3H96.7a8.2,8.2,0,0,0,0,1.4l1.1,0.2Zm8.7,27.8h-0.6c-0.1.5-.2,0.9-0.3,1.4h0.6Zm32.9-41-0.2-.2-1.8,1.8,0.4,0.4ZM93.9,236.6V237l2.3-.7-0.2-.5ZM56.8,167.3l-0.3-.3-1.7,2,0.3,0.3ZM91.5,191l0.3,0.3,2.1-2.5-0.2-.2ZM24.8,242.3l-0.5.3,1,1.5,0.4-.2ZM60.2,230l0.6,0.3,0.8-1.5-0.5-.2Zm-13.6-26v0.6H48a2.6,2.6,0,0,0-.1-0.7H46.7Zm-8.4,39.3,0.4,0.4,1.3-1.1-0.4-.5ZM153.5,182v0.2l2.5,0.2V182h-2.5Zm11.3-24.3-0.3-.4-2.4,1.6,0.2,0.2ZM66.7,145.1v-0.3l-2,.5,0.2,0.5Zm71.3,91.5-0.2-.6-1.9.5V237Zm5.8-86.7v-0.3h-2.2v0.3h2.2ZM178.8,183l0.6,0.3,0.8-1.5-0.5-.3ZM42.9,204.1l-0.3-.5-1.9.9,0.2,0.4Zm56.9,7.4-0.4.3,1.1,1.2,0.4-.3Zm61-21.9-0.2-.4-2.6,1.4v0.2ZM97.7,158l0.2,0.3,1.9-.9-0.3-.5Zm81,1.2,0.4,0.3,1.3-1.5-0.4-.3Zm-31.4-7.3-0.2-.3-1.8,1,0.3,0.5ZM47.2,209.1v-0.5l-1.8-.5v0.5Zm84-24.3,0.5,0.3,1-1.8-0.3-.2ZM42.7,235v0.6l1.6,0.2v-0.6Zm24.2-63.9,0.4,0.5,1.2-.9-0.3-.4Zm20.8,44.6,0.5,0.3,0.9-1.7-0.3-.2Zm25.8-.6,0.5,0.4,1-1.2-0.5-.4Zm-28.2-2.8-0.2-.5-2.2.7v0.4Zm23.7-44.5,0.5,0.2,1.1-2.1-0.3-.2Zm55.1,50.6-0.3-.4-1.6,1.2,0.2,0.3ZM40.6,244.8l-0.3-.4-1.7,1,0.3,0.4ZM73.4,188v-0.4l-1.7-.4v0.6Zm6.4-40.7,0.3,0.4,2-1.5-0.2-.3ZM51.9,176l0.3,0.3,1.4-1.8-0.2-.2Zm81.6-24.6-0.2-.4-1.6.7,0.2,0.4Zm8.2,12,0.3,0.4,1.8-1.2-0.2-.3Zm37.6,0.8,0.4,0.2,0.7-1.8-0.4-.2Zm-121.3,99a4,4,0,0,0,1.3-.1,4.8,4.8,0,0,0,0-1.4ZM98.2,237v0.3l2.1-.6v-0.5ZM96,195.9H95.3l0.5,1.6h0.4ZM50.6,162H50.2l-0.4,2h0.3Zm-9.1,67.9,0.4,0.4,0.9-1-0.4-.4Zm54.4,12.6,0.4-.3-0.8-1.4-0.4.3ZM26,245.4l-0.2.6,1.2,0.6,0.2-.5Zm26.8-64.2-0.4-.3-1.2,1.8,0.2,0.2Zm78.3-29.4-0.3-.4-1.3.7,0.3,0.5Zm25.4,40v0.3h1.5v-0.4h-1.5Zm-39.8,35.8-0.4-.2-0.7,1.8,0.4,0.2Zm25.6-73.2,0.2,0.4,1.9-1.2-0.2-.3ZM16.9,234.3H16.5l0.4,1.6,0.5-.2ZM90,170.7h0.2v-2.1H89.9ZM69.8,250.8l0.2,0.3,1.6-1.2-0.2-.3Zm72.8-63.7-0.3-.2-1.1,1.3,0.4,0.3ZM154,156.4l-0.2-.3-1.9,1.5,0.2,0.3ZM89.5,193.2l-0.4-.2-0.7,1.1,0.6,0.3ZM129.6,166v0.6l1.9-.6h-2ZM88.1,163l-0.2-.4L86.1,164l0.2,0.3Zm49.1,68.9,0.3,0.4,1.1-.7-0.2-.4Zm-19.7,3.9,0.2,0.2,1.3-1.1-0.5-.5ZM61.7,256.4l-0.6-.2-0.3,1.5h0.4ZM46.7,186l0.4,0.2,0.9-1.7-0.4-.2Zm5.1,22.5-0.6.3,0.7,1.2,0.4-.2Zm53.6-50.7,0.2,0.3,2-1.4v-0.2Zm-36,28.5v-0.6H68v0.6h1.3Zm-18.9-8-0.6-.3-0.6,1.3,0.5,0.2ZM87,238.7v0.5l1.3,0.2v-0.5Zm17.8-35,0.3,0.3,0.8-.7-0.4-.4ZM77.4,221.9l0.4-.2-0.7-1.4-0.4.2Zm21.3-1.4H98.2l0.5,1.7H99ZM127,168.9l0.8,0.8a8.9,8.9,0,0,0,.3-1.2,1,1,0,0,0-.4-0.4Zm-8.1-20.2,0.2,0.5,1.4-.5v-0.4ZM54.1,203.3h0.4l-0.4-1.4-0.5.2Zm95.7,0.2,0.2,0.2,1.9-1.3-0.2-.2ZM116.2,216l-0.3-.2-1.1,1.4,0.4,0.3Zm6.1-60.4,0.2,0.4,1.2-.8-0.2-.3Zm-19.4,12.7h-0.6v1.5h0.4Zm5.5,21.9,0.4,0.2,0.7-1.2-0.4-.2Zm12.2,24.2,0.5,0.3,0.5-1.4-0.4-.2Zm-35.5,8H84.6l0.3,1.3h0.5Zm32.5-5,0.5,0.2,0.6-1.3-0.4-.2ZM50.4,227v-0.5l-1.3.5v0.3Zm54.5-66.5,0.2,0.4,1.3-.8-0.2-.3ZM37.3,227.3v0.3l1.4,0.5v-0.4Zm109.3-61.8v0.3h1.6v-0.4Zm-21.3,44.4H125l-0.9,1.7,0.3,0.2Zm6.5-47,0.2,0.3,1.6-.8-0.2-.4Zm7.1,26.5-0.3-.3-1.4,1.3,0.2,0.3Zm20.2,24.7-0.3-.5-1.2,1,0.2,0.3Zm-105-40.6,0.3,0.2,1.1-1.5-0.2-.2ZM168,154l-0.3-.4-1.1.8,0.2,0.3Zm-29.3,3,0.2,0.3,1.5-.9-0.2-.3Zm12.7,56.6-0.2-.3-1.3.8,0.2,0.3Zm-44.8-12.9-0.3-.5-0.9.6,0.2,0.4ZM47.2,223.2l-0.3-.3-0.8,1.2h0.1Zm81.6-28,0.4,0.4,1.1-1.2-0.3-.3Zm-7.2-14-0.3-.2-1,2h0.2Zm16.3-31.8v0.3h1.4v-0.3h-1.5ZM66.3,183l0.4,0.4,0.8-1.2ZM97.2,216a1.6,1.6,0,0,0,.7.3,1.4,1.4,0,0,0,.4-0.5,1.2,1.2,0,0,0-.5-0.3A1.8,1.8,0,0,0,97.2,216Zm52.6-16.7-0.3-.4-1.1.9,0.2,0.2ZM63.1,242.3v-0.3l-1.2.4,0.2,0.5Zm-25.9-19v-0.5h-1V223Zm76.6-17.1-0.3-.3-0.8.9,0.3,0.2ZM81.1,154.6l-0.4-.4-1.1,1,0.2,0.3ZM58.1,172l-0.2-.2-1.3,1.2,0.3,0.3Zm39.4,77.5-0.2-.2-0.9,1.2,0.4,0.3Zm36.2-22.7-0.3-.3-1.2.9,0.3,0.4Zm-20.7-31,0.3,0.2,1.2-1.4-0.3-.3ZM83.2,173.1l-0.3-.3-1.3,1.2,0.2,0.2Zm58.1,1-0.3-.4-1.2.9,0.2,0.3Zm36.5-8.3,0.4,0.2,0.5-1.3h-0.3Zm-52.5,2.6h0.3l0.7-1.6h-0.3Zm45.5,28-0.4-.3-1.1.8,0.4,0.3Zm-68.8-14.5,0.4,0.2,0.5-1.2-0.4-.2Zm23.9-5.4-0.2-.4-1.3.8v0.2Zm47.4,13.9-0.4-.2-0.8,1.3,0.3,0.2Zm-9.2-.1,0.2,0.4,1.1-.8-0.2-.3Zm-86,21.1H77.5l-0.2,1.2h0.4Zm87.8,5.9,0.3,0.2,0.9-1.3-0.3-.2ZM67.9,172.7L68,173l1.1-1-0.2-.2Zm66.8,15.7,0.4,0.2,0.4-1h-0.4Zm-74.9-1.7-0.2-.2-1.1,1.2,0.3,0.2Zm63.8-8.8-0.2-.3-1.1.9,0.3,0.3ZM65.2,254.5l0.2,0.3,1.1-.5-0.2-.4Zm-2-109.1-0.4-.4-0.8.9,0.2,0.3Zm71.6,13.8h0.5l0.3-1.1h-0.4ZM65,230.5v-0.4l-1.2.4v0.4Zm35.5-48.4H101v-0.8h-0.6ZM59.6,149.3a3.1,3.1,0,0,0-.5.8,0.6,0.6,0,0,0,.4.3,0.8,0.8,0,0,0,.4-0.4A1.7,1.7,0,0,0,59.6,149.3Zm88.3,52.4,0.2,0.5,1.1-.7v-0.2Zm-91.2-.1-0.5-.2-0.3,1h0.3Zm97.9-50.7v0.2l1.3-.5-0.2-.3ZM64.2,196v0.5l0.8-.2v-0.4H64.2Zm57.6,3.6,0.2,0.3,1.4-1v-0.2ZM57.5,185.9l0.2,0.3,1.1-.9-0.3-.3Zm36.3,21.8v-0.4H92.7v0.3ZM107.9,177h-0.5l-0.2.9h0.4Zm61.3,35.9-0.4-.3-0.6,1.1,0.3,0.2Zm8.6-53.5-0.2-.3-1.1.8,0.3,0.3Zm0.7,22.1-0.3-.2-0.6.9,0.4,0.2ZM85,177.8l-0.2-.2-0.9,1,0.3,0.2Zm63,21.2-0.2-.3-1.1.7v0.3ZM90.7,163.4H90.3v1h0.4v-1Zm-29.2-1H61.4l-1.2,1.1h0.1Zm4.4,53.2-0.2.4,1.1,0.4v-0.3ZM181,170.4l-0.3-.2-0.6.9,0.3,0.2ZM21,227.3v-0.5l-1-.2V227Zm58.7-5.6-0.2.5,0.9,0.2v-0.3Zm50.5-36a2.9,2.9,0,0,0,.7.9,2.7,2.7,0,0,0,.9-0.6Zm-16.9-14.5H113l-0.4,1.1H113Zm1.2-5.6h0.4l0.3-1.1h-0.3ZM114.2,216l-0.4.6,0.5,0.2a0.5,0.5,0,0,0,.3-0.4A1.3,1.3,0,0,0,114.2,216Zm27,16.2-0.2-.2-1,.8V233Zm-37.7-76.5-0.2-.3-0.8.6,0.2,0.3Zm18,56,0.2,0.2,0.6-.8-0.3-.2ZM86.1,236.4l0.4,0.2,0.3-.9H86.5Zm74.8-82.2,0.2,0.3,0.9-.8-0.2-.2ZM69.4,211.9v0.4h1.3v-0.2Zm38.2-41.5-0.3-.2-0.5,1h0.3ZM53.4,186.3l0.2,0.2,0.8-.9-0.3-.2ZM111.8,202l0.2,0.3,1.1-.8-0.2-.3Zm64.6-16.1-0.3-.3-0.6.6,0.3,0.3Zm-67.7,21.9,0.5,0.4,1.2-1.6Zm56-24.6,0.4,0.3,0.5-.7-0.3-.3Zm13.3-31.3-0.2-.3-0.7.5,0.2,0.3ZM88.1,165.3l0.4,0.4,0.8-.8-0.3-.3Zm31.2,17.3h0.4v-0.9h-0.3v0.9Zm-18-19.3h0.3l0.3-1.2h-0.2Zm25.4,59.8h0.4l0.2-.8h-0.3ZM86.4,169.4l-0.2-.2-0.8,1,0.2,0.2ZM45,234.3l0.2,0.4,0.8-.5-0.2-.3Zm17.6-61.7H62.5l-1,.9,0.2,0.2Zm109.8,42.9,0.3,0.2,0.5-.8-0.3-.2Zm-25.4-53.4,0.2,0.3,1-.8-0.2-.3ZM76.2,255.9v-0.3H75.3v0.2h0.9ZM135,213.1l0.2,0.2,0.5-.6-0.3-.2ZM38.6,235.4l0.2,0.4,0.8-.7V235Zm-10.2-9.3,0.2,0.2,1-.5-0.2-.3Zm107.3-62v-0.3l-1.1.3v0.3ZM132,195.7l0.2,0.3,0.8-.6-0.2-.3Zm-57.6-.8v0.2l1.2,0.4v-0.2Zm0.3-46.2L75,149l1.1-.7-0.2-.3ZM84,229a1.3,1.3,0,0,0,.3-0.5,0.5,0.5,0,0,0-.3-0.3,0.5,0.5,0,0,0-.3.3A1.4,1.4,0,0,0,84,229Zm58.8-24.2-0.2-.3-0.6.5,0.2,0.3Zm-74.5-59,0.2,0.3,0.9-.4-0.2-.3Zm31.8,40.8,0.3,0.3,0.8-.7-0.2-.3ZM66.2,205.8v-0.3l-0.8.3,0.2,0.3ZM121.4,230v-0.4l-0.8.3v0.3Zm50.7-12.1h0.3l0.3-.8h-0.4ZM99.9,177.4h0.4v-0.9H99.8v0.9Zm37.9-18.8v-0.4l-0.9.4v0.3Zm-5,74v0.3l0.8-.5-0.2-.3ZM62.7,164.3l0.3,0.2,0.5-.6-0.3-.2Zm89.4,1.5v0.3l0.7-.2v-0.4Zm-14.4-2.6v-0.3l-0.8.3v0.3Zm-29.3,36,0.3,0.2,0.6-.7-0.3-.2Zm-55.5-47,0.2,0.2,0.9-.7-0.2-.3Zm1.9-2.3,0.2,0.2,0.7-.6-0.3-.3Zm6.4,54.3a1.3,1.3,0,0,0-.5-0.4,0.3,0.3,0,1,0,0,.7Zm110.4,4.5,0.3,0.2,0.5-.7-0.2-.2ZM48,253.8v-0.4l-0.7.2v0.3H48Zm86.3-43.4,0.2,0.3,0.9-.6-0.2-.3ZM82.5,180.3l-0.3-.4-0.6.5,0.2,0.3ZM36.2,221.1l-0.3-.2-0.4.6h0.2Zm7.5,13.2-0.4-.4-0.4.3a0.5,0.5,0,0,0,.2.3Zm17.5-58.7,0.2,0.3,0.6-.5-0.2-.3Zm85.3,44.3-0.4-.4-0.5.6,0.3,0.3ZM143.8,236v0.4l0.7-.2v-0.3h-0.7ZM16.3,237.2H16l0.3,0.8h0.3Zm92-31.6-0.2-.2-0.7.5,0.2,0.3ZM91.2,145.8v0.3h0.7v-0.2H91.2Zm25.3,1.2v-0.3h-0.7v0.2h0.7Zm-1.3,56.8-0.2-.2-0.7.5,0.2,0.2Zm13.2-30.3,0.2,0.3,0.7-.5L129,173Zm17.9-22.9-0.3-.3-0.7.6,0.2,0.2Zm16,0,0.2,0.3,0.7-.4-0.2-.3Zm-58.9,25.5H103v0.8h0.3v-0.8ZM82.9,153.4l-0.2-.3-0.6.4,0.2,0.2Zm24.2,40.1-0.2-.3-0.5.4,0.2,0.2ZM60.8,154.7L61,155l0.6-.6v-0.2Zm105.6,4.4-0.2-.3-0.8.7,0.2,0.3Zm-72.5-2.5,0.2,0.2,0.7-.5v-0.2Zm44.4,24.2,0.3,0.2,0.4-.7-0.2-.2Zm-69.6.4-0.4-.4-0.3.4,0.2,0.3ZM94.7,182l-0.3-.2-0.3.7h0.2Zm46.7,3.3,0.2,0.2,0.6-.4-0.2-.3ZM84.5,158l-0.3-.2-0.3.7h0.3Zm5.7,7.9,0.3-.2-0.4-.6H89.8Zm-66,46.9-0.2-.2-0.7.6h0.1Zm65.5-46.2-0.3-.2-0.3.7h0.3Zm-3.2.4-0.2-.2-0.6.5,0.2,0.2ZM58.9,210.7H58.6v0.7h0.3v-0.7Zm39.6,0.3v-0.3l-0.8-.4v0.3Zm-15,32.7-0.2-.3-0.7.5,0.2,0.3Zm35.8-27.7,0.3,0.2,0.3-.8h-0.3Zm-0.6-2.6,0.3,0.2,0.4-.6-0.3-.2Zm24.8,23.8V237h-0.7v0.3h0.7ZM120,194.2l-0.4-.4-0.5.4,0.3,0.4ZM65.7,163.3l0.3,0.3,0.5-.5-0.2-.2Zm39.2-11-0.2-.2-0.7.4,0.3,0.3Zm-21,25-0.3-.2-0.6.8,0.2,0.2ZM66,155.4l0.3,0.3,0.7-.6-0.3-.3Zm65.9,34.1a1.1,1.1,0,0,0-.3-0.4h-0.4a0.8,0.8,0,0,0,.2.4h0.5Zm-22.7-2.8,0.2,0.2,0.4-.5-0.2-.2Zm-37,56.6H71.9v0.7H72v-0.7ZM54.3,170.3l-0.4-.3-0.2.2,0.3,0.3Zm9.2,34.3,0.2-.3-0.6-.2v0.2Zm114-20.8,0.3,0.2,0.3-.6h-0.2ZM84.8,161.9h0.3v-0.7H84.7v0.7ZM104.9,184v0.2l0.7-.5-0.2-.2Zm11.6,40.8,0.3,0.3,0.6-.7-0.3-.3Zm55.6-64.2v0.2l0.5-.5h-0.1ZM152,151.5l0.2,0.2,0.5-.5-0.2-.2Zm-0.9,0v-0.4l-0.7.2v0.3H151ZM32.2,226.2v-0.3l-0.5.3v0.2Zm61.9-31.5H93.8l-0.2.7H94Zm44.1-12.6h-0.2l-0.4.5h0.1Zm2.8,54.9v-0.3l-0.5.2v0.2h0.5Zm-35.2-57.1h-0.3l-0.3.6h0.2Zm33.5-20.6,0.2-.4h-0.3l-0.2.3Zm15.4,4.9h-0.3v0.6h0.3Zm-100-.4-0.5-.2-0.3.3,0.3,0.2Zm32.5-3.7-0.2-.2-0.5.4h0.1Zm87.5,0.9-0.2-.2-0.4.5h0.1ZM88.5,171.7h0.3v-0.8H88.5v0.8Zm-4.8-2.4,0.2,0.2,0.3-.5H84.1Zm-29.5-.7H54.1l-0.4.5h0.2Zm29.1-6H83.2v0.6h0.2v-0.6ZM36.9,223.7v0.2l0.6,0.2v-0.2Zm132.4,0.2,0.2-.5h-0.3l-0.2.3Zm-6.8-.6h-0.1l-0.4.6h0.1ZM173,204.7l-0.3-.2-0.4.6,0.2,0.2Zm-90.2-59,0.2,0.2,0.3-.4-0.2-.2ZM68.5,253.5v-0.2H68v0.2h0.4Zm69.1-24.4-0.2-.2-0.4.3v0.2Zm-37.3-73.3,0.2,0.2,0.5-.4-0.2-.2ZM74.8,188.2v0.2l0.5,0.2v-0.2Zm-19-32.9H55.6l-0.4.6h0.2Zm108.7-.4v-0.2l-0.4.4H164ZM74,153.3l0.2,0.2,0.4-.4H74.5ZM34.4,244.7l-0.3-.2H34v0.3Zm33.2-39.4v-0.2h0Zm15.2-56.2,0.9-.5-0.2-.2Zm37.8,53.5a2.9,2.9,0,0,0,.2-0.6l-0.2-.2-0.3.3Zm47.8-.8-0.2-.2-0.4.5h0.2Zm-106.4-.1-0.3.3v0.2h0.3A0.8,0.8,0,0,0,61.9,201.7Zm-3.8-4.3h0.2v-0.2H58.1Zm59.7-3.3h-0.3l-0.3.2,0.3,0.2Zm-27.6-.8v-0.3H90.2v0.3h0.2Zm42.6-4.7-0.2-.2-0.4.5h0.1Zm-19.7-32.4h-0.1l-0.4.4h0.2ZM172.7,187h0.1l0.4-.3-0.2-.2ZM50.3,185.3l-0.2-.2-0.3.5h0.1Zm77.1-4.2v0.2l0.5-.3v-0.2Zm-48-2.2-0.3.4,0.2,0.2,0.3-.3Zm31.1-20.3-0.2-.2-0.4.4,0.2,0.2Zm-45.1,18v-0.2l-0.4.3v0.2Zm62.2-.9-0.3-.2-0.2.2,0.2,0.2Zm-3.3-.2h-0.1l-0.4.4H124Zm-10-15.4v-0.2h-0.3v0.2h0.3Zm-3.4.8h-0.1l-0.4.3v0.2Zm43.5,0.7,0.2,0.2,0.4-.4h-0.1Zm-2.1,5.3h0.2l-0.2-.2h-0.2Zm-20.9-2.2-0.3.2v0.2l0.3-.2A0.7,0.7,0,0,0,131.3,164.8Zm18.1-.3-0.2-.2-0.2.4h0.2Zm33.8-.7-0.4-.5v0.7Zm-39.2,57.3h-0.1l-0.3.4h0.1Zm-28.9-9H115l-0.4.4,0.2,0.2Z" transform="translate(-4.4 -15)"/><path d="M90.5,51.4c-0.3,1.2-.6,2.9-1,4.5-2.1,7.9-4.4,15.7-6.1,23.7S81.2,93,80.2,99.7a1.9,1.9,0,0,1-1.2,1.2c-0.3.1-.8-0.5-1.2-0.7a3.3,3.3,0,0,0-1.1-.4l-5.4-.4a2.5,2.5,0,0,1-1.6-3.7c2.3-4.2,2.4-8.9,2.9-13.5,0.2-1.9-1.1-3-3.4-2.9a12.3,12.3,0,0,1-2.5-.1c-2.2-.4-2.9.7-3.3,2.8-0.8,5.2-1.9,10.3-2.9,15.5L59,97.1l0.2,1.4c-2.4-.1-4.7-0.1-7-0.4a2,2,0,0,1-.9-1.7c1.2-4.9,2.6-9.8,3.7-14.7q2.2-10.1,4.1-20.3c0.5-2.7.4-5.4,0.7-8.1a18.2,18.2,0,0,1,.8-3.3,1,1,0,0,1,.8-0.4L69.3,50a1.4,1.4,0,0,1,.8,1c-1,5.2-2.1,10.4-3.2,15.6-0.5,2.5,0,3.2,2.6,3.2l4.1-.2a2.7,2.7,0,0,0,2.8-2.3c1-4.1,2.1-8.1,3.5-12.1,0.5-1.4-.8-3.6,1.2-4.2s3.2,0.2,4.8.3h4.7ZM78.7,77.6l1.1-.7-0.3-.3-0.8,1-1.1.2v0.2ZM84.6,57l-1.4,1.1,0.3,0.3L84.6,57l0.8-.2V56.6ZM66.3,72.4l-0.8,1.1L68.3,72l-0.2-.3-1.8.8,2-1.4-0.2-.3-2.9,1.4,0.2,0.4h1Zm7.5-1.2-1.7,1.5L72.5,73l3-2.2-0.2-.3-1.1.5a1.4,1.4,0,0,0-.4-0.5l-2.8.4v0.7ZM85.7,55L90,52.6c-2.7-.6-3,1.6-4.2,2.4l-0.9.3v0.2ZM63.8,69.8l1-.5a2.4,2.4,0,0,0,.9-0.8c0.6-3.8,1.2-7.6,1.7-11.4H67l-1.3,2.5,0.5,0.2-1.8,2.3,1.8-1.1-0.9,1.9h0a1.7,1.7,0,0,1,.4.7l-1.6,2.1,0.2,0.2,1.1-.7ZM59.4,88.8h0l-1.7,2.5c3.6-2.6,5-7,4.6-11.6l-2.1,3.2,0.6,0.3-2.6,3.4,0.4,0.3,1.8-1.9a7.4,7.4,0,0,1-1.2,2.8A2.1,2.1,0,0,0,59.4,88.8Zm19.1,9.5a1.7,1.7,0,0,0,.8-0.1c0.4-2,.7-4,1-6l-0.6-.3-8.6,5.3,0.5,0.8,7.2-4.1,0.4,0.4-1.1,1.7ZM60.8,88.8l-2.1,2.9-2,2.7,0.2,0.2,2.9-2.7a9.8,9.8,0,0,1-1.4,2.5l-1.8,2.6C59.4,95.3,61.4,91.3,60.8,88.8Zm15.6-8.7c5.1-1.4,7.2-3.3,7.1-5.5Zm-0.1,4.1c2.5-.2,6.2-3.7,6.1-6.1l-2.1,1.2v0.3l1-.3,0.2,0.3Zm-9.3-6.4,1.8-2.9-0.4-.4-3.5,3.5L65,78.6l4-1V77.1ZM85.2,62.4L86,62.7l2.5-6.2-0.7-.3ZM68.3,54.9l-0.6-.6-1.6,1.5,0.2-.6-0.4-.2-2.5,3.7,0.3,0.3ZM76.6,85c-1.3,1.2-4.4.7-3.6,4.1Zm-4.9-8L72,77.4l8-5-0.3-.5Zm3,0.8,0.2,0.3,5.1-3.3-0.5-.6ZM82,82.4l-0.5-.6-4.6,3.5,0.2,0.3Zm-5.4,5.8,0.2,0.3,4.5-2.7-0.4-.6Zm7.3-16h0.4l1.6-6.7H85.2Zm-1.6-15-2.9,2.6,0.5,0.5Zm-21-6.7v0.6l2.3,0.3V50.7H61.2ZM80.1,66.3l-0.4-.4-2.5,2,0.4,0.5Zm1.5-3.3L82,63.4l2.3-2.2L84,60.8ZM73.3,74.5l-0.2-.4-3.6,1.6,0.2,0.4Zm8.9-19.6-0.4-.3-1.4,2.3,0.5,0.3ZM61.6,63.5L62,63.7l2.3-3.2L64,60.3Zm-1.9.2h0.6l0.5-1.9-0.6-.2ZM53.9,92.2h0.4l1-3.3H54.8Zm17.2-14v0.4l1.5-.2a5,5,0,0,0,0-1.1Zm7.3-13.7,0.5,0.3,1-1.4-0.5-.3Zm2.2,24.2L80.3,88l-2,1,0.2,0.3ZM78.8,65.4l0.4,0.4,1.6-1.6-0.4-.4Zm1.4,25.2L80,90.2l-1.8,1.2,0.3,0.4Zm2.2-26.2L83,64.7l1-1.5L83.6,63ZM58.9,68.8h0.5l0.3-2.3H59.3Zm-2.2,11h0.3l0.5-2.3H57.2Zm5.4-7.4,0.3,0.2,1.1-1.5-0.4-.3ZM62,55.4L61.8,55l-1.1.8L61,56.1ZM74.8,72.6l-0.2-.3-1.7,1,0.2,0.3ZM66.1,54.3l-0.2-.2-1.3,1L65,55.5Zm-4.3,2.3-0.4-.3-0.8,1.2L61,57.7ZM74.1,81H73.7l-0.3,1.3h0.3ZM75,98.5l0.2,0.4,1-.7L76,97.9ZM60.9,60H60.5l-0.2.8h0.4ZM76.4,91.9l0.2,0.3,0.9-.7-0.2-.3ZM65.1,53.4l0.3,0.4,0.8-.8L66,52.7ZM76.3,81.5l0.2,0.3,0.8-.6-0.2-.2Zm1.2,5,0.2,0.3,0.8-.6L78.3,86ZM59.3,69.8L59.6,70l0.7-1L60,68.8Zm18.2,0.3-0.3-.2-0.4.7L77,70.8ZM56.8,91.2L57,91.4l0.4-.7H57.2ZM83.2,57l0.2,0.2,0.5-.5-0.2-.2ZM53.4,96.5H53.1v0.7h0.3Zm8.1-38.3,0.2,0.2,0.4-.4H62Zm19.7-5.6,0.8-.4a1.4,1.4,0,0,0-.1-0.4Zm-12.5.1-0.3-.2-0.2.2,0.2,0.2Zm11.2,9.8,0.2,0.2,0.3-.4H80.3ZM57.8,74.4H57.7v0.7h0.2V74.4Zm7.2,0.9-0.3-.2-0.2.2,0.2,0.2ZM58.5,89.2H58.3l-0.2.4,0.2,0.2Z" transform="translate(-4.4 -15)"/><path d="M171.4,81l7.5,13.6a12.4,12.4,0,0,1,1.3,2.6,2.8,2.8,0,0,1-.4,2c-0.2.3-1.1,0.2-1.7,0.1-2.1-.2-4.2-0.4-6.3-0.8a2.5,2.5,0,0,1-1.4-1.3c-2-3.9-3.8-7.8-5.7-11.7l-0.6-.5c-0.8,3.5-1.8,6.9-2.4,10.3s-1.3,2.2-3,2.1h-7.7c0.6-1.7,1.1-3.4,1.9-4.9a92,92,0,0,0,8.2-28.7,41.9,41.9,0,0,1,2-6.9,0.7,0.7,0,0,1,.5-0.3c2.3,1.6,4.9.3,7.3,0.4l1.9,0.3,0.5-.9c1.5,1.9-.1,3.1-0.6,4.5A118.7,118.7,0,0,0,169,74.4l6.7-4.3-1.2-.3V69.4l3.7,0.2,7.3,0.6a8.5,8.5,0,0,1,1.8.6,11.2,11.2,0,0,1-1.4,1.1l-13.2,7.9A7.8,7.8,0,0,0,171.4,81Zm-12.8,7,1.3-1.6,1.4-1.8-0.4-.3-1,2.1L158.6,88l-0.8.3,0.5,0.4Zm12-23.7-0.4-.3-4.9,4.1,0.2,0.3,4-2.9,0.5,0.6L162.3,73l5-3,0.3,0.5-5.7,4.7,0.4,0.5c1.1-.7,2-1.9,3.2-2.1,3-.6,3.1-2.9,3.7-5S170.1,65.7,170.6,64.3Zm-12.3,30a6.2,6.2,0,0,1-1.6.9,15,15,0,0,1-2.3,0c0.1-.5.3-1,0.4-1.5a5.1,5.1,0,0,0,0-.9,1.5,1.5,0,0,0-.7.3c-0.4,1-.8,2-1.3,3.2C154.8,96,156.8,97.2,158.3,94.3Zm9.3-8.5,4.2-.7,0.3,0.9-1.8,1.4c1-.3,2.1-0.8,2.4-1.6a3,3,0,0,0-1.4-2A19.4,19.4,0,0,0,167.6,85.8Zm-5.4-22.4,0.3,0.3,5.5-4H168l-4.5,2.1-0.3-.5Zm1.9,13.5,0.5,0.5,3.5-3.4-0.8-.8Zm0.7-12.2c-1.2-.1-2.3-0.5-2.5-0.2s-0.4,1.6-.7,3.1Zm12,32.1c0.8-.7,1.5-1,1.5-1.3a1.9,1.9,0,0,0-.8-1.2c-1.2.4-2.4,0.9-3.5,1.4l0.2,0.4,3-1ZM167.5,64l-0.4-.5-4.9,4.1,0.4,0.5Zm3.9-4.6a6.2,6.2,0,0,0-.8,1.2,2.6,2.6,0,0,0,.7.6l0.7-1.3a1.8,1.8,0,0,0,.2-0.8,4.4,4.4,0,0,0-.3-1l-0.9.3ZM158.3,93.4l0.5,0.4,2.3-3-0.5-.4Zm13.1-3.8,0.3,0.3,2.5-1.9a1,1,0,0,0,.1-0.5,1.4,1.4,0,0,0-.7-0.1Zm1.9,3.9,2.8-1.7a2.2,2.2,0,0,0-.2-0.5l-2.4,1.4A3,3,0,0,0,173.2,93.5Zm-13.7-3.7,0.6,0.3,1.6-3.3-0.5-.2Zm0.6-15.2,0.4,0.3,1.6-2.7-0.6-.3Zm7.3,3.6,0.3,0.4,3.5-2.5-0.4-.5Zm4,12.7,0.3,0.6,2.2-1.2-0.2-.5Zm5.6,6.8v0.6l2.2-.6-0.2-.6Zm-9.7-14.9-0.2-.4-2.2,1.2,0.3,0.6ZM174,94.1l0.2,0.4L177,93l-0.3-.5Zm-16.1-7.3,0.4,0.2,1.3-2.3-0.6-.3Zm0.9-7H159l1.4-2a1.3,1.3,0,0,0-.2-0.7,1.2,1.2,0,0,0-.5.3C159.3,78.2,159.1,79,158.8,79.8Zm2.3-9.5,0.5,0.5,1.5-1.7-0.4-.4Zm16,2.6-0.2-.3L174.1,74l0.2,0.5ZM158.4,95.1l0.5,0.5,0.9-1.1-0.3-.3Zm11.4-4.5,1-1.3-1.6-.2Zm5.1-1.7-0.5.2,0.5,1.4,0.5-.2ZM156.3,91h-0.4l-0.4,1.7h0.4Zm13.5-9-0.3-.4-1.6,1.1V83Zm-6.6,1.5-0.2-.3-1,.5,0.2,0.4ZM170.2,63l0.4,0.2,0.4-.8-0.3-.2Zm12.1,9.8-0.2-.3-1.3.7v0.2Zm-9.7,24.6,0.2,0.3,0.8-.6-0.2-.2Zm-2.5-4.7,0.2,0.3,0.9-.5-0.2-.3Zm4.3-20.3,0.3,0.3,0.6-.7-0.3-.3Zm-1.7,5.5V78l0.6-.5h-0.1Zm-9.5-.8-0.3-.2-0.4.6,0.2,0.2Zm12.5-5.8,0.2,0.2,0.3-.6h-0.2Zm3.8,2.6V74l0.5-.3V73.5Zm-17.7,8.5-0.2-.2-0.3.4h0.1Z" transform="translate(-4.4 -15)"/><path d="M137.8,118.3l-1-1.1a3.4,3.4,0,0,1,1.1-.2c2.9,0.4,5.7.9,8.6,1.1,4.8,0.3,9.6.2,14.4,0.4,1.8,0.1,3.6.5,5.4,0.7,4.5,0.6,9.1,1.1,13.6,1.9s11.2,2.1,15.9,5.5c1.5,1.1,2.3,3.4,2.9,5.4,1.1,4-2.2,5.5-4.9,7.1a27.1,27.1,0,0,1-14.7,3.9l-14-.2L147,142l-12.6-.9L118.5,140l-22.1-2L76,136.3c-4.8-.4-9.6-0.5-14.4-1.1a98.7,98.7,0,0,1-13.3-2.8,4.4,4.4,0,0,1-2.5-3.4A46.9,46.9,0,0,1,47,118.8c0.2-1,2.1-1.9,3.3-2.3,3.5-1.2,7-2.5,10.6-2.9s6.8,0.8,10.2,1c5,0.3,10,.3,14.9.5l32.2,1.5,15.1,0.6A26.3,26.3,0,0,1,137.8,118.3Zm59.5,15a2.9,2.9,0,0,0,.6-1.4c-0.5-1.4-.9-2.9-1.9-3.9-3.6-3.5-8.4-4.6-13.1-5.6s-7.8-1-11.7-1.5-7.7-1.1-11.5-1.4c-5.4-.4-10.7-0.6-16.1-1l-8.3-.5-13.7-.8-20.9-.9-15.3-.5c-4.2-.1-8.5.1-12.6-0.3-7.3-.8-14.5-0.9-21.5,1.2a5.8,5.8,0,0,0-4.5,5c-0.2,1.9-.3,3.9-0.5,5.8a3.9,3.9,0,0,0,2.8,4.4,35.5,35.5,0,0,0,4.3.6c3,0.5,6,1.4,9,1.7q11.2,1.2,22.5,2c5.2,0.4,10.4.3,15.5,0.7,7.9,0.6,15.7,1.5,23.6,2.2s15.2,1.2,22.8,1.6,16.9,0.4,25.4.8,16.4,0,23.5-5C196.9,135.9,198.2,135,197.3,133.3Z" transform="translate(-4.4 -15)"/><path d="M120.5,72.1l5.3-.7a13.8,13.8,0,0,0,2.1-.1c2.4-.7,2.5,1.2,2.4,2.5s-0.5,5.4-.7,8.1a1.1,1.1,0,0,0,.2.6l-3.9,8.8c-2.7,6.1-6.2,11.4-13.5,12.6a22,22,0,0,1-4.5-.2c0.9-2.5,1.6-4.6.5-6.8-0.3-.7.1-1.8,0.4-2.7a2.7,2.7,0,0,1,1.5-.1c3.6,0.6,7.3-2.4,8.3-6.8s1.9-8.9,2.7-13.3C121.5,73.5,120.9,72.9,120.5,72.1ZM120.1,95L117,97.2l0.5,0.6,2.6-2.8,2.6-2-0.5-.5Zm4.2-21.3a3.3,3.3,0,0,0-2.2,4.5l2.1-4.5h0Zm0.8,5.4,0.3,0.4,2.9-2.3,0.6,0.7-3.7,2.6a3.9,3.9,0,0,0,3.5-4.7Zm3.6-6.7-5.1,4.7C126.7,76.6,129.5,74,128.8,72.4ZM117.1,98.6c2.4-.2,4.8-1.9,5-3.8Zm9.1-14.2-0.7-.6-2.7,2.9,0.5,0.5ZM114.8,95.6l-0.2-.7-4.4,1.3,0.2,0.6Zm6.7-12,0.4,0.5,3.5-2.7-0.4-.5Zm7.7-3.7-0.5-.6-2.7,2.4,0.5,0.5ZM117,99.5l-0.3-.4-3.7,2.1,0.4,0.7Zm11.6-17.2-0.6-.5L126.1,84l0.6,0.5Zm-5.8,3.1-0.2-.3-3,2.5,0.3,0.4Zm4.8-12.6-0.4-.5-2.5,2.1,0.3,0.4Zm-8.8,17.5,0.8,0.8a10.3,10.3,0,0,0,.6-1.6,2.5,2.5,0,0,0-.5-1Zm3.5-11.6h-0.6v2h0.3Zm-10.4,23.7v-0.5l-1.4.4v0.4Zm12.2-19v0.3l0.7,0.3V83.6Zm-11,14.4,0.2,0.2,0.3-.5h-0.2ZM123.5,73V72.8l-0.4.3v0.2Zm0.7,7v0.2h0.3a0.7,0.7,0,0,0-.1-0.3Zm1.2,2.6-0.3-.2-0.3.2,0.2,0.2Zm1.1,4.4-0.3-.3-0.4.5,0.2,0.2Zm-4.3,0h-0.2l-0.2.5h0.2ZM110,101.2l0.2-.3-0.2-.2-0.2.2Z" transform="translate(-4.4 -15)"/><path d="M90.8,85.7l2.5-11a14.5,14.5,0,0,1,.8-3c1.1-2.4,3.2-.9,4.9-1h5.5a1.1,1.1,0,0,1,.6.9c-0.7,2.9-1.4,5.8-2.1,8.7-1.1,4.6-2.2,9.2-3.4,13.8s-1.5,3.4-4.9,3.2-3.8,0-5.9,0L89.2,90h0.3l-0.2,1.8h0.7l0.8-6.2h0Zm7.8-5.1c1.4,0.3,3.6-1.5,3.5-3.2l-3.5,3.3L97,81.9l0.5,0.4Zm4.7-5.6-0.6-.6-5.2,4.3,0.6,0.6Zm0.7-3-0.5-.7-4.4,3.5,0.4,0.5ZM99.6,90.8H98.9l-1.3,4.6,0.8,0.2ZM100,72l-0.4-.7-3.2,2.1,0.3,0.5ZM95.3,88.4l0.6,0.4,1.4-1.7-0.6-.4Zm-0.2,5.7-0.4-.5-2.1,1.6,0.3,0.4ZM97.6,75l-0.3-.4L95.2,76l0.3,0.4Zm-2,5.5,0.5,0.4,1.4-1.6-0.4-.4Zm-3.5,8.9H91.9L91,92.7h0.4ZM99.7,73l0.2,0.3,2.1-1.4-0.4-.5Zm-0.8,2.5-0.4-.4-1.7,1.6L97.2,77Zm-6.4,9.3L93,85l0.8-2-0.4-.2Zm5.3,7.5-0.6-.4-0.7,1.2L97,93.5Zm-3,0,0.4,0.3,1.2-1.4-0.4-.4Zm-1.6-5.8,0.5,0.3,0.9-1.5L94.1,85Zm-0.8,7.5,0.3,0.4,1.1-.9-0.3-.4Zm-1.7.1L90.2,94l-0.5,1.2,0.4,0.2Zm9.9-9.6-0.4-.2-0.7,1.5,0.4,0.2Zm-8.7,8,0.4,0.2,0.3-1.2H92.2Zm3.5-21.3v0.4l1.3-.2V71.2H95.4ZM92.9,87.1l-0.3-.2-0.4,1.2h0.3Zm5-2.2-0.2-.2-0.8.7,0.2,0.2Zm0,2.1h0.4l0.2-1.2H98.1Zm4.9-12.9-0.2-.4-0.8.6v0.2ZM96.2,94.8l0.4,0.3,0.5-.8-0.3-.2Zm0.1-4.7-0.4-.3-0.4.5,0.3,0.3Zm-1.5-1H94.6l-0.4.5,0.2,0.2Zm4.9-1.9-0.3-.3v0.4l0.2,0.2ZM99.8,89H99.6v0.5h0.2V89Zm-5.7,1.8L94,90.6l-0.3.3L93.9,91Zm1.4,3h0.2l0.2-.4H95.7Z" transform="translate(-4.4 -15)"/><path d="M135.3,95.3V94.4a10.2,10.2,0,0,0,1.5-2.1q2.3-7.3,4.5-14.6c0.1-.4-0.5-0.9-0.7-1.4a1.4,1.4,0,0,1-.2-0.9c0.5-.8,1-1.5,1.8-2.6h8.6l-0.9,4.8c-0.3,1.3-.5,2.6-0.8,3.9q-1.7,6-3.5,12a10.1,10.1,0,0,1-1,1.9h-9.3Zm8.1-6.4,2-1.8-0.7-.6L143.5,89l-0.9.8,0.3,0.2Zm5.5-10.7-0.5-.7-5.4,3.9,0.4,0.5Zm-3.4,12-4.7,3,3.7-.3Zm-3.1,1.4-0.2-.3L138.5,93l-1,.2a1.4,1.4,0,0,0,.1.5,2.2,2.2,0,0,0,1.3.1Zm7.1-16.5-0.6-.5-2.7,2.9,0.3,0.3Zm-7.1,10.7,0.4,0.6,2.2-1.7-0.4-.5Zm2.9-3,0.2,0.3,2.4-1.3-0.3-.5Zm0.8,3.5h0.4l0.7-2.3-0.6-.2Zm-2.6.2,0.3,0.4,1.9-1.4-0.3-.3Zm-0.1-10.8h-0.5l-0.4,2.3h0.4Zm0,1.3,1.8-1.1-0.3-.3ZM145,89.4l-0.4-.5-1.4,1.2,0.2,0.3Zm-6.8,1.8,0.4,0.4,1.3-1.2-0.3-.4Zm3.6-4.6-0.3-.4-1.3,1.1,0.3,0.3Zm-0.6-2.1-0.5-.2-0.4,1,0.3,0.2Zm4.4-10.4-0.3-.3-1.1,1,0.2,0.3Z" transform="translate(-4.4 -15)"/><path d="M195.2,95l-1.2.4,0.3,1.5,1.4,0.3v0.3l-1.5.3a12.5,12.5,0,0,1-3.1.5,13.4,13.4,0,0,1-3.5-1,5.4,5.4,0,0,1,.3-1.5c1.7-6.2,3.7-12.4,5-18.7,0.7-3,.2-3.1,3.3-2.7l5.1,0.6c2.2,0.4,1.1,2.2.9,3.1-0.7,2.9-1.9,5.7-2.8,8.6s-1.5,5.6-2.3,8.4a4.1,4.1,0,0,1-.9,1.2Zm-1.7-5.8c-1.4.5-3.1,0.7-3.1,2.3l3.1-2.3,1.1-.2V88.6Zm3.3,0.9-4.1,1.5v0.3h2.3l-1.9,1.3C196.3,94.7,196.7,92.6,196.8,90Zm1.9-4.9-5.2,3,0.2,0.4,3.3-1.1-0.5,1.3,0.6,0.3Zm-2-6.6,0.2,0.3a29.1,29.1,0,0,0,3.1-1.2,4,4,0,0,0,1.2-1.3,0.8,0.8,0,0,0-.4-0.6h-1.8v0.4l0.9,0.2Zm-4.5,7,0.3,0.5,6.4-3.4-0.3-.6Zm-3.8,10.3L189,97l2.6-1.4-0.5-1Zm11.9-15.5-0.6-.9L196.1,82l0.3,0.6ZM196.2,86l-0.3-.5L191.4,88l0.4,0.7Zm-1.9-4.8-0.8-.2-0.8,3,0.9,0.2Zm4.8,3.1-0.4-.8-3,1.6,0.2,0.4Zm-5.2-7.6,2.4-1.7a6,6,0,0,0-2.1.1C194,75.3,194.1,76,193.9,76.8Zm-4.1,16.8,0.3,0.5,1.2-.9-0.2-.3ZM195,77.6l-0.2-.2-0.5.5,0.2,0.2Zm1.4,12V89.4l-0.5.2v0.2h0.5Zm0.5-12.9V76.5l-0.8.3h0.8Zm-2.4,2.7h-0.3l-0.2.2v0.2Z" transform="translate(-4.4 -15)"/><path d="M214.6,48.2c-0.2.9-.3,1.7-0.5,2.6-0.6,4.1-1.2,8.2-1.8,12.3s-0.9,5.8-1.4,8.7-1,6.7-1.5,10.1-1.3,8.4-2.1,12.6c-1.1,5.9-2.4,11.7-3.3,17.7s-1.3,11.9-2.1,17.8c-0.5,3.5-1.7,6.8-2.4,10.3s-0.7,6.2-1.1,9.2c-0.8,5.7-1.5,11.5-2.4,17.2s-1.9,11.6-3.2,17.4c-0.7,3.2-1.4,6.2-.9,9.5,0.3,1.6-.7,3.4-1.1,5.1-1.2,4.5-2.4,8.9-3.5,13.4s-1.1,6.3-1.8,9.4-1.5,4.2-2,6.4c-1.4,5.5-2.7,11.1-3.9,16.7-0.6,2.6-.7,5.4-1.1,8.4-0.2-1.8-.7-3.5-0.4-5.1q1.5-8.2,3.5-16.4c0.8-3.2,2.1-6.3,3.1-9.4,0.4-1.3.4-2.8,0.7-4.1,1.1-4.4,2.3-8.8,3.3-13.2s2.6-10.2,2.1-15.6c-0.2-2.4,1.3-4.9,1.8-7.5,0.8-4.4,1.2-8.8,1.9-13.2s1.2-8.3,1.9-12.5c1-5.9,2.1-11.7,3.1-17.6s1.6-10.6,2.4-15.9,1.9-10.6,2.8-15.9,1.9-12.8,3-19.2c0.7-4.2,1.6-8.4,2.3-12.7,0.5-2.7.7-5.4,1-8.1s0.9-5.6,1.3-8.4,0.9-6.5,1.3-9.8h0.7Z" transform="translate(-4.4 -15)"/><path d="M119.6,67.2c-1.5-1.4-.9-3,0.1-4.1a17.9,17.9,0,0,1,4.2-3.4c2-1.2,3.9-.6,5.3,1.1s1.9,3.1.8,5.2c-2.6,4.6-7.4,3.8-10.4,1.2l1.2,0.5L120,64h-0.8Zm4.9-6.1V60.8a17,17,0,0,0-2.8,2.1,3.6,3.6,0,0,0-.3,1.9Zm-2.2,2.5,0.4,0.5,2.4-2-0.3-.4Zm6.4,1.6a2.7,2.7,0,0,0,.5-0.9,1.5,1.5,0,0,0-.5-0.4,1.3,1.3,0,0,0-.3.5A2.4,2.4,0,0,0,128.7,65.1Zm-3-4.6V60.3h-0.6v0.2h0.6Zm-1.4,6-0.3-.2-0.2.2,0.2,0.2Z" transform="translate(-4.4 -15)"/><path d="M142.6,70l0.5-1.7-1.9-.2,1.2-1.4-0.9-.5c0.6-1.2,1.1-2.4,1.7-3.5a6,6,0,0,1,8.4-1.6c2.1,1.6,1.5,5.5-1.5,7.1S145.5,69.3,142.6,70Zm3.3-2.8V66.5h-2.1v0.7h2Zm2.3-5.4v0.3l1.8-.4V61.3Zm-2.1,4.1v0.4l1.5-.3-0.2-.5Zm1.1,1.8-0.2-.3-1.2.7,0.2,0.3Zm4.4-4.3h0.3V62.4h-0.3v0.9Zm-1.2,3.2-0.2-.3-0.6.5,0.2,0.3Zm0.3-1.3,0.2,0.3,0.5-.4-0.2-.2ZM149,63.8v0.3l0.6-.4V63.5Zm-4.9-.1-0.3-.2-0.3.6h0.2Z" transform="translate(-4.4 -15)"/><path d="M102.7,56.8c1.5,0.3,2.8.4,2.4,2.6s0.8,2,.9,3-1.9,4.1-3.6,4.5-5.8-.6-6.5-2.4,1.6-6.3,4.1-7ZM101.3,66c2.1,0,4.2-2.6,3.5-3.8Zm-0.1-7.9-0.3-.5-3,1.9,0.2,0.4Zm-0.6,2.7-0.3-.3L99,61.7,99.2,62Zm1.3,1-0.2-.4-1,.6,0.2,0.3Zm-1.6,1.8H99.9v0.2l0.2,0.2Z" transform="translate(-4.4 -15)"/><path d="M203.7,60.8c3.2,0.1,5.2,2,5.1,4.9s-3,6.1-5.8,6-5.5-1.6-5.4-4.7S200.8,60.7,203.7,60.8ZM201.5,66l1.2-.7c-4.4.8-4.9,1.3-4,3.1l2.8-2.3a2.3,2.3,0,0,0,1,.3l5.2-1.3a2.6,2.6,0,0,0-.5-1.2,2.4,2.4,0,0,0-1.6.3Zm3.9,1.7L204.7,69l0.6,0.4L207,67l-0.5-.4-3,1.4v0.3Zm0.2-5.3c-2-1.3-3,0-4.4,1.6Zm-4.1,5.9-0.2-.3-2.9,1.2,2.4,1,0.2-.4-0.8-.8Zm5.2-2.3V65.6l-2.4,1v0.3Zm-2.7,3.3-0.2-.4-2,.9,0.2,0.4Zm1.1,0.3V69.5h-0.2l-0.2.2h0.2Zm-4.4-6.5v0.3l0.4-.3V63Z" transform="translate(-4.4 -15)"/><path d="M139.9,21.3c4,0.4,7.6-.1,8.5,3.4s1.1,5.7-.8,8.2-4.5,2.8-7.3,2.5a13.2,13.2,0,0,1-3.6-.8c-4-1.8-4.6-7.9-2.5-10S138.6,22.1,139.9,21.3Zm8.4,4.9a9.6,9.6,0,0,0-.7-1.6c-1.2-1.7-5.7-2.6-8.2-2-5.7,1.6-6.6,4.4-4.3,9.4,1.1,2.4,3.9,2.3,6.3,2.5,5,0.3,8-4.5,5.4-8.1a2.7,2.7,0,0,1-.2-0.8Z" transform="translate(-4.4 -15)"/><path d="M39.4,138.8a13,13,0,0,1,.2,2.3c-0.3,4.4-.5,8.7-1,13-0.3,2.1-1.3,4.1-1.7,6.2s-0.5,4.7-.9,7-1.3,6.9-1.9,10.3l-2.8,14.9a2.1,2.1,0,0,1-.8,1.5c0.2-1.5.4-3,.7-4.6q1.7-8.7,3.4-17.4c1.1-5.3,2.4-10.6,3.1-16s0.7-11,1-16.5a4.2,4.2,0,0,1,.2-0.7h0.4Z" transform="translate(-4.4 -15)"/><path d="M40.3,141.4l8.2-49.7h0.5l-8.2,49.7H40.3Z" transform="translate(-4.4 -15)"/><path d="M56.3,45.2l0.6,1,0.4-.2-0.7-3.1,3.6-.7c0,0.2,0,.3,0,0.3-2.3.1-2.5,1.5-2.7,3.6C57,51,55.9,55.8,55.1,60.6s-1.2,8.1-1.9,12-1.4,6.6-2.3,9.8C52.9,70.2,56.4,58.1,56.3,45.2Z" transform="translate(-4.4 -15)"/><path d="M119.6,249.1a2.8,2.8,0,0,1,1-.3l9.6,1,15.8,1.5c3.6,0.3,7.2.4,11.5,0.6-3.3,0-5.8.2-8.3,0l-24.8-2.3-4.7-.5h0Z" transform="translate(-4.4 -15)"/><path d="M110.2,40.3l-25.5,1C93.8,41,102.9,38.8,110.2,40.3Z" transform="translate(-4.4 -15)"/><path d="M158.9,251.9h17.4a2.7,2.7,0,0,1,1,.4,1.9,1.9,0,0,1-.8.7l-17.6-.9v-0.2Z" transform="translate(-4.4 -15)"/><path d="M190.3,46l22.9,0.7v0.4l-23-.9V46Z" transform="translate(-4.4 -15)"/><path d="M179.5,45.7l-16.1-1.2V44.1l16.1,1.4v0.2Z" transform="translate(-4.4 -15)"/><path d="M69.7,41.3l-8.3.5C64,40.2,67.2,41.1,69.7,41.3Z" transform="translate(-4.4 -15)"/><path d="M189.2,46.1h-8.6V45.8h8.6v0.3Z" transform="translate(-4.4 -15)"/><path d="M128.5,41.6h7.1v0.5l-7.1-.5h0Z" transform="translate(-4.4 -15)"/><path d="M35.9,110.5l3-5,0.5,0.3-3.3,4.8H35.9Z" transform="translate(-4.4 -15)"/><path d="M9.5,251.1l3.3-4.7,0.6,0.5-3.9,4.2h0Z" transform="translate(-4.4 -15)"/><path d="M32.7,133.7l1.1-.7,0.3,0.3-3.6,5.9h0c0.8-1.5,1.6-2.9,2.3-4.4a2.3,2.3,0,0,0-.2-1.1h0Z" transform="translate(-4.4 -15)"/><path d="M137.7,42.4h6.2v0.2h-6.2V42.4Z" transform="translate(-4.4 -15)"/><path d="M34.8,118.3l-1.1,2.9,2.3-1.3,0.3,0.3-0.8,1.2H33.1l1.7-3.1h0Z" transform="translate(-4.4 -15)"/><path d="M113.1,40.8l6.2,0.7v0.4l-6.2-.8V40.8Z" transform="translate(-4.4 -15)"/><path d="M10.6,241.4l2.1-.6-1.2,2.9-0.4-.2,1.3-2.5-1.6.8Z" transform="translate(-4.4 -15)"/><path d="M24.5,173.6l2.7-3.8,0.4,0.3-3.1,3.5h0Z" transform="translate(-4.4 -15)"/><path d="M144.8,42.8l4,0.4v0.4l-4-.5V42.8Z" transform="translate(-4.4 -15)"/><path d="M37.3,103.3l2.3-2.9,0.6,0.5-2.9,2.4h0Z" transform="translate(-4.4 -15)"/><path d="M79.8,40.7l3.9,0.4v0.2l-3.9-.2V40.7Z" transform="translate(-4.4 -15)"/><path d="M15.9,204.6l2.6-2.8,0.2,0.2-2.5,2.8Z" transform="translate(-4.4 -15)"/><path d="M48.5,42.5a1.7,1.7,0,0,1,.7.6,12.3,12.3,0,0,1-.5,2.3Z" transform="translate(-4.4 -15)"/><path d="M52.3,21.9L50.6,23l1-2Z" transform="translate(-4.4 -15)"/><path d="M37.8,97.7v1.5l1.8-.8a5.5,5.5,0,0,1-1,.9l-1.4.4,0.4-1.2,0.2-.7h0Z" transform="translate(-4.4 -15)"/><path d="M51.2,20.1l-2,1.5L49,21.3l2-1.6Z" transform="translate(-4.4 -15)"/><path d="M29.8,151.4l1.7-2.5,0.4,0.3-2,2.3H29.8Z" transform="translate(-4.4 -15)"/><path d="M9.9,253.5l1.8-2.3,0.3,0.3-2.1,2h0Z" transform="translate(-4.4 -15)"/><path d="M120.4,41.2h0Z" transform="translate(-4.4 -15)"/><path d="M33.5,129.5L32,131.5l-0.2-.2,1.5-2Z" transform="translate(-4.4 -15)"/><path d="M27.8,157.4l1.5-1.3,0.2,0.2-1.4,1.3Z" transform="translate(-4.4 -15)"/><path d="M43.7,82.4l0.5-1.1,0.5,0.2-0.5,1.1Z" transform="translate(-4.4 -15)"/><path d="M49.6,88.4l-0.5,2.2H48.8l0.4-2.2h0.3Z" transform="translate(-4.4 -15)"/><path d="M49.9,38.1l-0.8,1H48.9l0.6-1.1Z" transform="translate(-4.4 -15)"/><path d="M46.5,41.3L48,39.8,48.3,40l-1.6,1.5Z" transform="translate(-4.4 -15)"/><path d="M25,159.8l1.4-1.3,0.2,0.2L25.2,160Z" transform="translate(-4.4 -15)"/><path d="M9.4,251.1l-1.4,1.8-0.5-.5,1.9-1.3h0Z" transform="translate(-4.4 -15)"/><path d="M156.5,43.3l-2.4.4V43.4h2.5Z" transform="translate(-4.4 -15)"/><path d="M46.9,64.6l-0.6,1.1H46.1l0.4-1.2Z" transform="translate(-4.4 -15)"/><path d="M162.2,44.1l-1.5-.3V43.5l1.5,0.3v0.3Z" transform="translate(-4.4 -15)"/><path d="M40.8,97.5l1.2-.4v0.7Z" transform="translate(-4.4 -15)"/><path d="M156.5,43.3h2.9v0.2l-2.9-.2h0Z" transform="translate(-4.4 -15)"/><path d="M50.3,85.4l0.3-1.6h0.2l-0.3,1.6H50.3Z" transform="translate(-4.4 -15)"/><path d="M90.8,85.7l-0.4,2.2H90.1l0.7-2.1h0Z" transform="translate(-4.4 -15)"/><path d="M27.2,151l1.2-.7,0.2,0.3-1.2.6Z" transform="translate(-4.4 -15)"/><path d="M78.6,41.2h0v0.2Z" transform="translate(-4.4 -15)"/><path d="M125.2,41.3l-1.3.2V41.2h1.3v0.2Z" transform="translate(-4.4 -15)"/><path d="M25.1,163.9l1-1.4,0.3,0.2-1.2,1.1h0Z" transform="translate(-4.4 -15)"/><path d="M26.7,164l0.2-1.4,0.4,0.2L26.7,164h0Z" transform="translate(-4.4 -15)"/><path d="M46.3,56.1l-1,1.2h0l1-1.2h0Z" transform="translate(-4.4 -15)"/><path d="M31,134.9l1.7-1.2h0l-1.7,1.2h0Z" transform="translate(-4.4 -15)"/><path d="M43.2,77v0.8H43.2V77.1h0.2Z" transform="translate(-4.4 -15)"/><path d="M159.9,232.6l1.5-1Z" transform="translate(-4.4 -15)"/><path d="M47.1,37.5l0.7-.7L48,37.1l-0.8.6H47.1Z" transform="translate(-4.4 -15)"/><path d="M48.1,24.4l1.3-.7v0.3l-1.4.4h0Z" transform="translate(-4.4 -15)"/><path d="M52.2,27.9l-0.3.6H51.8V27.8h0.3Z" transform="translate(-4.4 -15)"/><path d="M71.5,41.3h0.8v0.2H71.5V41.3Z" transform="translate(-4.4 -15)"/><path d="M47.5,32.3l0.7-.6h0.1l-0.7.6H47.5Z" transform="translate(-4.4 -15)"/><path d="M46.3,47.3l0.6-.7H47l-0.7.6H46.3Z" transform="translate(-4.4 -15)"/><path d="M50.1,86.6v0.6H49.8V86.6h0.2Z" transform="translate(-4.4 -15)"/><path d="M152.4,43.3l-1.1-.2h1.1v0.2Z" transform="translate(-4.4 -15)"/><path d="M48.9,31.1l0.5-.4h0.1l-0.5.4H48.9Z" transform="translate(-4.4 -15)"/><path d="M136.8,42h0Z" transform="translate(-4.4 -15)"/><path d="M9.6,245.8l0.3-.5h0.1l-0.3.5Z" transform="translate(-4.4 -15)"/><path d="M9.9,253.5l-0.7.7V254l0.9-.5h0Z" transform="translate(-4.4 -15)"/><path d="M126.4,41.1H127v0.2h-0.6V41.1Z" transform="translate(-4.4 -15)"/><path d="M7.8,249.2v0.4H7.5v-0.4H7.8Z" transform="translate(-4.4 -15)"/><path d="M149.6,43.3h0.1v0.2h-0.2Z" transform="translate(-4.4 -15)"/><path d="M47.1,22.4l0.8-.4v0.2H47.1Z" transform="translate(-4.4 -15)"/><path d="M161.6,232.5l0.9-.3v0.2l-1,.2h0Z" transform="translate(-4.4 -15)"/><path d="M46.4,69.9v0Z" transform="translate(-4.4 -15)"/><path d="M37.3,103.2h0c-0.1.4-.1,0.2,0-0.1h0Z" transform="translate(-4.4 -15)"/><path d="M64,148l1.4-.5L64,148h0Z" transform="translate(-4.4 -15)"/><path d="M156.7,211.4l-1.2,1.3h0Z" transform="translate(-4.4 -15)"/><path d="M34.3,259.2l3.5,1.3v0.3l-3.6-1.2Z" transform="translate(-4.4 -15)"/><path d="M66.7,157.8l-0.6.5-0.2-.2,0.6-.6Z" transform="translate(-4.4 -15)"/><path d="M57.6,159.6l-1.2,1.2-0.2-.2,1.4-.9h0Z" transform="translate(-4.4 -15)"/><path d="M78.6,153.5h0Z" transform="translate(-4.4 -15)"/><path d="M28.2,249.5l-0.3-.4,0.4-.3a0.9,0.9,0,0,1,.2.4Z" transform="translate(-4.4 -15)"/><path d="M59.4,88.8l0.4-1.1H60l-0.6,1h0Z" transform="translate(-4.4 -15)"/><path d="M64.8,69.4l-1,.5Z" transform="translate(-4.4 -15)"/><path d="M156.6,125.6c-1.1,1.6-2.3,3.2-3.3,4.9s-2,3.5-3.1,5.6c-0.3-1.2-.5-2.2-0.9-3.2a10.1,10.1,0,0,0-1-1.7,7.1,7.1,0,0,0-1.8,1.2c-1.2,1.4-2.2,2.9-3.4,4.6-0.2-2.4-.4-4.5-0.7-6.5s-0.4-2.3-.5-3.4a3.2,3.2,0,0,1,.3-1.1,2.7,2.7,0,0,1,.7.9c0.3,2.3.6,4.7,0.9,7.4l2.4-2.6,2.4-2,1.3,2.8c0.1,0.3.2,0.6,0.4,1.1l5.7-8.2Z" transform="translate(-4.4 -15)"/><path d="M175.5,139l-6.3-.6a1.4,1.4,0,0,1-.2-1c1.1-3.9,2.2-7.8,3.3-11.7a4.2,4.2,0,0,1,.6-0.9c0.3,2.5,1.9,2,3.3,1.9l3.5-.2a2.1,2.1,0,0,1,.8.5,2.5,2.5,0,0,1-.8.4c-2,.1-4,0.1-6,0.3-0.4.1-.8,1.1-1.1,1.8-0.9,2.2-.5,3.3,2.2,2.8H176a3.8,3.8,0,0,1,.9.5,3.1,3.1,0,0,1-.8.4h-1.3c-2.6-.1-4.3,1.3-4.4,3.9a1.5,1.5,0,0,0,1.1.9l4.2,0.3V139Z" transform="translate(-4.4 -15)"/><path d="M180.6,139.1c0.8-2.1,1.5-4.1,2.1-6a46.4,46.4,0,0,0,1.2-4.6,4.9,4.9,0,0,0-.6-1.7c1.1-.9,2.9-0.2,3.8.6a9.7,9.7,0,0,1,3.2,4.5c0.3,0.9-.6,2.8-1.6,3.5a55.2,55.2,0,0,1-7,3.7A3.6,3.6,0,0,1,180.6,139.1Zm1.3-.9c1.8-.9,3.3-1.5,4.6-2.2,3.7-2.1,3.7-5.9,0-8-0.9-.5-1.6-0.6-1.8.8s-0.9,3.5-1.4,5.3S182.5,136.5,182,138.2Z" transform="translate(-4.4 -15)"/><path d="M63,125.5l1.9,3.1a3.5,3.5,0,0,1,.2,1.1,3.1,3.1,0,0,1-1-.6,23,23,0,0,0-1.7-2.5,8.6,8.6,0,0,0-2.1-1.2,14.4,14.4,0,0,0-.8,1.9c-0.2.8-.2,1.6-0.4,2.3a2.7,2.7,0,0,1-.7.8,3.3,3.3,0,0,1-.2-1.2c0.4-2.3.9-4.5,1.3-6.8s3-4.2,5.8-2.8a1.7,1.7,0,0,1,.7,1.4,10,10,0,0,1-1.1,3.2C64.6,124.9,63.7,125.1,63,125.5Zm1.2-5.5c-2.9,0-4,1.1-3.7,3.2a2.6,2.6,0,0,0,1.9,1.4,6.9,6.9,0,0,0,2.7-2.5C65.4,121.6,64.4,120.5,64.2,120Z" transform="translate(-4.4 -15)"/><path d="M135.4,136.7c-0.4-1.8-.8-3.7-1.3-5.5a1.8,1.8,0,0,0-1.3-1,27.6,27.6,0,0,0-3.7.2l-2.1,3.8-0.5.5a1.6,1.6,0,0,1-.2-0.8c2.1-3.2,4.2-6.5,6.4-9.6a2.6,2.6,0,0,1,1.8.5c0.6,3.5,1,7.1,1.5,10.6a4,4,0,0,1-.2,1.2h-0.4Zm-5.4-7.5,0.3,0.6c1.2-.3,2.9-0.3,3.5-1.1s0-2.4-.1-3.6h-0.7Z" transform="translate(-4.4 -15)"/><path d="M86.1,125.6c0-1,0-1.7,0-2.4s0.5-3,2.4-2.1a18.4,18.4,0,0,1,5.6,3.4c1.2,1.2.9,3.1-.8,4.4s-4,3.5-6.9,3.2a1.4,1.4,0,0,1-.9-1C85.7,129.1,86,127.2,86.1,125.6Zm0.3,3.8c0,1.9.8,2.4,2.6,1.5a26.1,26.1,0,0,0,3.5-2.5,3,3,0,0,0-.3-4.9,19,19,0,0,0-3.7-1.7,1.6,1.6,0,0,0-1.3.8C86.9,124.9,86.7,127.2,86.5,129.4Z" transform="translate(-4.4 -15)"/><path d="M50.7,130.3c-0.5-1.3-1.1-2.1-1.1-2.9,0.1-2.4.5-4.9,0.8-7.3a1.5,1.5,0,0,1,.8-1.1c1.9-.3,5.2,1.3,5.3,2.8a9.9,9.9,0,0,1-1.7,5.2C54.1,128.2,52.5,128.9,50.7,130.3Zm0-1.7a5.7,5.7,0,0,0,4.6-3.6c0.7-1.4.9-2.9-.4-3.9a11.1,11.1,0,0,0-2.8-1.2Z" transform="translate(-4.4 -15)"/><path d="M119.1,128.1l2.9,0.2a1.6,1.6,0,0,1,.6.6l-0.7.3c-1.2.2-2.8,0-3.6,0.7s-1.1,2.3-1.5,3.5a1.7,1.7,0,0,0,1.1.8c1.2,0.1,2.4,0,3.5,0v0.8H116a2,2,0,0,1-.3-1.4q1.6-4.8,3.5-9.6a1.4,1.4,0,0,1,1-.4h4.7l1.2,0.3a3.9,3.9,0,0,1-1.1.6l-2.9.2C120,124.8,119,125.9,119.1,128.1Z" transform="translate(-4.4 -15)"/><path d="M107,131.9c1.3,0.3,2.5,1,3.6.9s1.4-1.2,2.1-1.9l-1.9-1.7c-0.7-.6-2.1-0.9-2.3-1.6s-0.1-3.5,1.6-4.4a13.1,13.1,0,0,1,4.2-.8,1.9,1.9,0,0,1,1.1,1,1.9,1.9,0,0,1-.4.9,2.2,2.2,0,0,0-.6-0.9c-1.2,0-2.7-.2-3.5.4s-1.2,2.1-1.4,3.3,1.3,1.1,2.1,1.3a2.6,2.6,0,0,1,1.6,3.8,4.1,4.1,0,0,1-6,.7A2.2,2.2,0,0,1,107,131.9Z" transform="translate(-4.4 -15)"/><path d="M80.6,131.9a18.2,18.2,0,0,0-3.4-.2,7.3,7.3,0,0,0-2.2,1l-0.7.3a2.4,2.4,0,0,1-.2-0.8c0.4-3.1.7-6.3,1.2-9.4a1.6,1.6,0,0,1,1.1-1.1c1.9,0,3.8.1,5.7,0.2a1.7,1.7,0,0,1,1.4.8l-3.8.2c-3.7,0-3.7,0-3.8,3.6,0,0.1,0,.2,0,0.2s-0.5,2.9.1,3.7,2.3,0.3,3.5.4a4.8,4.8,0,0,1,1.2.5v0.5Z" transform="translate(-4.4 -15)"/><path d="M161.2,126.1c-0.3,1.2-.5,2.5-0.9,3.7s0.3,1.7,1.6,1.5l3.8-.7v0.6l-4.6,1.1a1.9,1.9,0,0,0-1.2.6,32.9,32.9,0,0,0-.3,3.5h1.2a14.1,14.1,0,0,1,3.5.3l-6,1.4a3.3,3.3,0,0,1,0-.9c0.6-3.1,1.1-6.3,1.8-9.4a5.6,5.6,0,0,1,1-1.6h0Z" transform="translate(-4.4 -15)"/><path d="M71.9,122.5c-0.5,2.9-1.1,5.8-1.7,8.8a1.8,1.8,0,0,1-.7.6,2.6,2.6,0,0,1-.2-0.8q0.7-4.8,1.4-9.7a3.2,3.2,0,0,1,.3-0.8,2.4,2.4,0,0,1,.5.7,6.3,6.3,0,0,1,.1,1.2h0.2Z" transform="translate(-4.4 -15)"/><path d="M161.2,126.1l6.8-1.5,0.2,0.7-0.8.3-5.1.8a2.6,2.6,0,0,1-1.1-.4h0Z" transform="translate(-4.4 -15)"/><path d="M80.7,125.7l1.4,0.7-1.4.4-3.1.8H76.7a1.8,1.8,0,0,1,.5-0.8Z" transform="translate(-4.4 -15)"/></svg>