<svg id="NSF_treatment_Image" data-name="NSF(treatment) Image" xmlns="http://www.w3.org/2000/svg" viewBox="0 0 275.6 120.5"><title>NSF(treatment)</title><path d="M131.7,109.2l-0.6-.3c-0.8,1.6-1.6,3.2-2.5,4.7a56.9,56.9,0,0,1-3.3,5.4,97.8,97.8,0,0,1-7.6,9.7c-2,2.1-4.8,3.6-7.2,5.4l-3.8,3a6.9,6.9,0,0,1-2.1,1l-3.1.7c-2.1.5-4.1,1.1-6.2,1.5s-2.4-.4-3.6-0.3c-3.1.4-6.1,1.1-9.2,1.7l-2.3.2c-3.9.1-7.9,0.3-11.8,0.3-1.5,0-3-.8-4.5-1.1s-4.1-.4-5.7-1.3a118,118,0,0,1-10.1-6.4,66.6,66.6,0,0,1-7.4-5.4,66.3,66.3,0,0,1-7-7.4,47.1,47.1,0,0,1-4.6-6.9,30.9,30.9,0,0,1-1.6-4.7c-0.4-1-.9-2-1.2-3a59.9,59.9,0,0,1-2.1-8.5,48.7,48.7,0,0,1-.1-9.2c0.2-3.5.9-7,1.2-10.6,0.2-1.8,0-3.8.5-5.5,1.1-4,2.5-7.9,3.9-11.8a53.6,53.6,0,0,1,2.7-6.9A41.1,41.1,0,0,1,36,48.5a59.2,59.2,0,0,1,3.6-4.8,70.5,70.5,0,0,1,5.6-5.6c2.5-2.2,5.2-4.4,7.8-6.5a38,38,0,0,1,5.4-3.9A32.2,32.2,0,0,1,65,25.1q6.7-1.9,13.4-3.3c1.5-.3,3.1.1,4.6,0.1l5.5-.3c1.9,0,3.8-.1,5.7,0s5.1,0.5,7.6.9a27.7,27.7,0,0,1,2.8.9c1.7,0.5,3.5.7,5.2,1.3s1.4,1.2,2.2,1.8,4.5,3,6.5,4.8a49.5,49.5,0,0,1,7.6,7.9,121.3,121.3,0,0,1,7.8,13.4c2.7,5.2,4.6,10.7,4.6,16.7,0,4.4-.1,8.7-0.3,13.1a67.4,67.4,0,0,1-.7,8.3,67.6,67.6,0,0,1-2.2,9C134.2,103,132.9,106,131.7,109.2ZM98,134.8H99c3.1-1.4,6.5-2.5,9.3-4.4a60.4,60.4,0,0,0,10.2-8.8c2.8-3.1,5-6.9,7.4-10.4a46.5,46.5,0,0,0,4.6-7.5,82.8,82.8,0,0,0,4-12,53.2,53.2,0,0,0,1.4-9.9,84.2,84.2,0,0,0-.1-10.8A33.6,33.6,0,0,0,132,57.3l-2.7-4.9c-1.7-3.1-3.3-6.3-5.2-9.3-0.7-1.1-2.1-1.7-3-2.6s-3.6-3.9-5.7-5.5a32.5,32.5,0,0,0-6.6-3.9c-2-.9-3-3-5.5-3.3S95.7,26.2,92,25.4C89.7,25,87.3,25,85,24.8a8.2,8.2,0,0,0-1.9-.4l-5.4,1.2L67.5,27.8a4.2,4.2,0,0,0-.8.9,3,3,0,0,1-.9.3l0.6-1H66.4l-2.2.6a1.7,1.7,0,0,1-.2.7c-2.6,1.4-5.4,2.5-7.7,4.3s-4.8,4.6-7.1,6.9c-4.9,4.8-9.3,10-12.3,16.2A127.6,127.6,0,0,0,30,74.2c-1.1,3.6-1.4,7.5-1.8,11.3a43.2,43.2,0,0,0-.1,8.8,53.8,53.8,0,0,0,2,9.1,37.2,37.2,0,0,0,3.2,8.7c1.8,3,4.4,5.6,6.6,8.4A39.5,39.5,0,0,0,43,124a25.2,25.2,0,0,0,3.4,2.5,51.7,51.7,0,0,0,6.6,4.3,63.1,63.1,0,0,0,11.4,4.5c3,0.8,6.3.3,9.4,0.5,0.6,0,1.1.7,1.7,0.8a35.1,35.1,0,0,0,4.6.1l9-.6,6.5-.9a38.6,38.6,0,0,0,3.8-1.1Zm39.6-62.1h0.5l-0.3-1.2h-0.4ZM55.5,136.9v0.3l1.5,0.7v-0.2Z" transform="translate(-23.9 -21.6)"/><path d="M160.8,90.9l0.2-1.7c-1.6,1.2-3.1,1.8-3.6,2.8a59.5,59.5,0,0,0-3,9.2,4.9,4.9,0,0,0,.8,3.2,2.4,2.4,0,0,0,2.2.6,2.9,2.9,0,0,0,1.5-1.5c0.6-1.2,1-2.4,2.5-.9a0.9,0.9,0,0,0,.6.3c2.3-.1,1.6,1.2,1.2,2.4a7.9,7.9,0,0,1-8.7,5.4c-1.4-.2-4.9-3.5-4.8-4.9a57.3,57.3,0,0,1,1-9,57.3,57.3,0,0,1,3-8.6c1.2-3.1,6.9-5.3,9.6-3.7a11.1,11.1,0,0,1,2,2.1l0.9,0.7a1.1,1.1,0,0,1,.4.8l-2.9,4.4-0.7.6-0.5-.9-0.7-1.3Z" transform="translate(-23.9 -21.6)"/><path d="M198,105.6c0,1.2,0,2.1,0,3.1a0.9,0.9,0,0,0,.4.7,1.7,1.7,0,0,0,.8-0.4l0.9-.5a4.2,4.2,0,0,1,.2.9c-0.1,1.6-.1,3-1.8,4.1s-3.5,1.1-4.5-.7-0.5-4.6.1-6.9a5.7,5.7,0,0,0-.2-2l-2.2.6h-0.5a2.1,2.1,0,0,1-.3-1c0.5-1.7,1-3.4,1.6-5a1.5,1.5,0,0,1,.9-0.1c1.2,0.1,2.6.6,2.9-1.2s0.5-3.9.9-5.8a1.3,1.3,0,0,1,.8-0.9l3.7-.3a0.9,0.9,0,0,1,.5.7c-0.5,2.5-1,5-1.5,7.6a0.7,0.7,0,0,0,.2.6c3-.2,1.9,1.7,1.6,3.2a2,2,0,0,1-.3,1,4.2,4.2,0,0,1-1.7.8c-0.6.1-1.4-.3-1.9,0A3.4,3.4,0,0,0,198,105.6Zm2.6-13H201V91.3l-0.4.2A10.4,10.4,0,0,0,200.6,92.6Z" transform="translate(-23.9 -21.6)"/><path d="M214.6,98.7c2.8,0.5,2.5-1.7,2.9-3,0.8-2.9,3.7-5.8,6.3-5.4,1,0.2,2,1.5,2.5,2.6s-0.5,1.6-.8,2.4a2.7,2.7,0,0,1-.7.9,1,1,0,0,1-.7.2,1.5,1.5,0,0,1-.3-0.6,2.5,2.5,0,0,0-.7-1.1,1.6,1.6,0,0,0-1.3.6,7.5,7.5,0,0,0-.9,2.7,1.7,1.7,0,0,0,1.2,1c1.4,0,2.4-.5,2.3,2s-1.5,2.3-3,3.1-1.2,2.3-1.6,3.5a15.7,15.7,0,0,0-.4,3.3c-0.2,2.7-2.6,2.2-4.2,2.9a3.6,3.6,0,0,1-.3-1.4c0.4-2.4,1-4.8,1.4-7.3a1.4,1.4,0,0,0-.9-0.9c-1.2-.2-2.4-0.1-1.9-1.9s0.2-2,.4-3A1.7,1.7,0,0,1,214.6,98.7Z" transform="translate(-23.9 -21.6)"/><path d="M166.6,107.3c0.4-3.3-.1-7.3,3.5-9.8a7.7,7.7,0,0,1,4.2-1.6c2.7,0.1,4,3.2,3.2,6.6s-2.4,2.3-4.2,2.2-1.8-.4-2.4-0.1a3.2,3.2,0,0,0-1.3,2.1,4.7,4.7,0,0,0,.8,2.1h0.5l0.8-.9c0.5-.6,1-1.6,1.6-1.6s2.7,0.8,2.1,2.7-2.9,4.2-4.6,3.7A6.4,6.4,0,0,1,166.6,107.3Zm5.8-5.3,1.7-1.1a6.5,6.5,0,0,0-1.2-1.1,18.5,18.5,0,0,0-2.1,1.8Zm3.8-3.8h-0.2l0.6,1.3,0.3-.2Z" transform="translate(-23.9 -21.6)"/><path d="M260.8,113.2c-3.1-.2-3.9-1.7-2.8-4.8,0.4-1.1.7-2.1,1.2-3.1s0-1.5-1-1.4c-2.8.4-1.3-1.3-1-2.1a9.3,9.3,0,0,1,1.8-2.6,7.7,7.7,0,0,1,1.3.3,1.1,1.1,0,0,0,.9-0.4c0.6-2.4,1.2-4.8,1.8-7.1a1.9,1.9,0,0,1,1.2-.2c2.3,0.4,2.6,1.1,1.6,3.3a39.4,39.4,0,0,0-1.5,4.8,2.9,2.9,0,0,0,1.1.4,7.9,7.9,0,0,1,1.5-.1c0.5,0.1,1.8-.1.7,1.3s-0.5,2.2-.8,3.3a1.5,1.5,0,0,1-.9.2,16.9,16.9,0,0,0-2.3-.1,2.3,2.3,0,0,0-.5,1.1c-0.4.9-.7,1.9-1,2.8a1.8,1.8,0,0,0,.2.8l0.7-.3h0.8a2.4,2.4,0,0,1,0,.7C264.1,112.2,263,113.4,260.8,113.2Zm0.4-6.5h-0.3l-0.7,2.4h0.4Z" transform="translate(-23.9 -21.6)"/><path d="M255.5,102.3c-0.9,3.1-1.6,6-2.6,8.7-0.2.5-2,.4-3,0.5a8.6,8.6,0,0,1-1.7-.2c-1.2-.2-3,0-3.3-0.5a7.5,7.5,0,0,1-.5-4.4c0.6-2.8,3.1-3.4,5.4-4a5,5,0,0,0,1.2-.8,2.9,2.9,0,0,0-1.1-1,5.3,5.3,0,0,0-1.8.4,4.2,4.2,0,0,1-1.2.3c-0.4-.6-1.1-1.6-0.9-2,1.3-2.1,5.5-2.9,7.3-1.2S254.8,100.8,255.5,102.3Zm-6.6,6,1.5-1.9-1.9-1.3a9.2,9.2,0,0,0-.8,2A3.9,3.9,0,0,0,249,108.3Zm1.5-4.1v0.3h1.2v-0.3h-1.2Z" transform="translate(-23.9 -21.6)"/><path d="M299.5,104c-0.5,2.3-.9,4.3-1.3,6.3s-0.2,1.7-.7,2.1a7.5,7.5,0,0,1-2.6.7,4.5,4.5,0,0,1,.2-2c1.2-1.8,1.9-6.1.6-6.8s-2.7-.1-3,0.5c-1.2,2.4-1.9,5.1-2.8,7.6a1.9,1.9,0,0,1-1,.6l-1.6.5a0.8,0.8,0,0,1-.6-0.1,1.4,1.4,0,0,1-.1-0.9l2.5-7.6a4.2,4.2,0,0,0,0-.9c0.1-1.7,1.4-2.5,3.1-1.9a2.2,2.2,0,0,0,.9,0c1.6-.2,3.2-0.7,4.7-0.4S298.9,103.2,299.5,104Z" transform="translate(-23.9 -21.6)"/><path d="M178.7,110.9c1-4.6,1.9-8.9,3.1-13.1,0.2-.6,1.9-0.7,2.9-1v0.2c-0.8,2.1.1,1,1.1,0.7a10.9,10.9,0,0,1,3.8-.3,1.7,1.7,0,0,1,1.2,2.7l-1.8,2.5a0.8,0.8,0,0,1-.8-0.1,1.9,1.9,0,0,1-.2-0.8,3.6,3.6,0,0,0-.5-1.5c-0.6-.1-1.8,0-1.9.4a71,71,0,0,0-2.4,8.3,3,3,0,0,1-3.9,2.6A1.6,1.6,0,0,1,178.7,110.9Z" transform="translate(-23.9 -21.6)"/><path d="M275.7,109.5c0.2-4.1,1.5-6.5,4.1-8.2a4.1,4.1,0,0,1,5.2.4,4,4,0,0,1,.9,5,17.7,17.7,0,0,1-3.7,5.4,4.5,4.5,0,0,1-4.1.3C277,111.8,276.2,110.1,275.7,109.5Zm8.4-3.5a2.3,2.3,0,0,0-3.3-2.2c-1.4.5-2.2,3-2.9,4.8s1.3,1.7,2.2,2S284,107.7,284.1,106Z" transform="translate(-23.9 -21.6)"/><path d="M232.8,108.8c-0.2-3.2,2.7-7.7,5.7-8.8s3.3,0.4,4.6,1.4a7,7,0,0,1-1.4,2.1c-0.2.2-1-.4-1.6-0.5s-3-.1-3.6,1.5-1.7,2.8.1,3.9,1.2-.4,1.9-0.6l1.6-.3,0.2,0.2c1.9,0.9,2,1.4.2,3a7.7,7.7,0,0,1-3.7,2.1C234.5,113.2,232.9,111.2,232.8,108.8Zm2.5,1.6h-0.3l0.3,0.8h0.3Z" transform="translate(-23.9 -21.6)"/><path d="M207.1,112a28.7,28.7,0,0,1-3.4.4,1.6,1.6,0,0,1-.5-1.2c0.5-2.9,1.2-5.8,1.8-8.7a0.7,0.7,0,0,1,.4-0.5l3.8-.3a1.5,1.5,0,0,1,.5,1.1c-0.3,1.8-.7,3.5-1.1,5.3a32.7,32.7,0,0,1-.9,3.3A1.5,1.5,0,0,1,207.1,112Z" transform="translate(-23.9 -21.6)"/><path d="M228.5,101.8a4.2,4.2,0,0,1,.7,1.4c-0.4,3-.8,6-1.3,9a1.4,1.4,0,0,1-.9.9,23,23,0,0,1-2.8.3,17.8,17.8,0,0,1,.1-2.3,53,53,0,0,1,1.5-7C226.1,103.2,227.4,102.6,228.5,101.8Z" transform="translate(-23.9 -21.6)"/><path d="M271,113.6a18.2,18.2,0,0,1-2.8-.5,4.9,4.9,0,0,1,.3-1.8l2.6-7.1a2.3,2.3,0,0,0-.2-1l1.3-.2h0.6c1.5-.5,1.7.2,1.3,1.4s-1.4,5.3-2.1,7.9A4.9,4.9,0,0,1,271,113.6Zm2.1-8.8h-0.3l-0.5,2.3h0.2Z" transform="translate(-23.9 -21.6)"/><path d="M211.1,96.8a19.4,19.4,0,0,1-.3,3.1,1.7,1.7,0,0,1-1.3.8,7.6,7.6,0,0,1-2.7.1,1.9,1.9,0,0,1-.8-1.4,8.4,8.4,0,0,1,.3-2.2c0.4-2.1,2.2-1.2,3.4-1.5a3.3,3.3,0,0,1,1.5.5Z" transform="translate(-23.9 -21.6)"/><path d="M231,100.3c-1.6,0-2.6.2-3.4-.1s-0.4-1.4-.4-2.1A3.2,3.2,0,0,1,228,96a4.1,4.1,0,0,1,2.6-.8c3,0.3.1,2.3,0.8,3.4S231.1,99.9,231,100.3Z" transform="translate(-23.9 -21.6)"/><path d="M273.3,95.8c0.9,0.2,2.6.5,2.6,0.7,0,3.1-1,4.6-2.9,4.4a2.4,2.4,0,0,1-1.7-.8C271.3,98.1,272.4,96.1,273.3,95.8Z" transform="translate(-23.9 -21.6)"/><path d="M53.3,85c-0.8,3.9-1.6,7.4-2.2,10.9s-0.6,4.6-.8,6.9h0c1,3.3-1.2,2.9-3.2,2.8l-4.5.2a1.5,1.5,0,0,1-.6-0.4,1.7,1.7,0,0,0,.4-0.5,39.1,39.1,0,0,0,1-4.1c0.7-4.7,1.4-9.4,2-14.1s1.2-10,1.7-15,0.7-7.5.8-11.3c0-2,.6-0.9,1.5-0.7a19.8,19.8,0,0,0,4.1.1h3.5a1.4,1.4,0,0,1,.4.6h-1a2,2,0,0,0,0,.6c1.1,3.1,2.3,6.1,3.3,9.2s1,3.5,1.6,5.2a7.4,7.4,0,0,0,1,1.5,11,11,0,0,0,.8-1.9c0.7-3.5,1.3-7.1,2-10.7,0.2-1.2.6-2.5,0.8-3.7a7,7,0,0,0-.1-1.3,18.9,18.9,0,0,1,3.3-.4l4.9,0.2h1.6a0.5,0.5,0,0,1,.2.4c-1.2,4.5-2.6,9-3.8,13.5S69.8,81.5,69,85.7,67.4,94.6,66.7,99c-0.2,1.5-.3,3.1-0.6,4.6a1.8,1.8,0,0,1-1.4.8l-5.5.4a1.3,1.3,0,0,1-.9-0.9c-0.4-2.1-.4-4.2-1-6.2-1.1-4-2.4-8-3.7-12Zm1.9,2.4H54.8L57.6,94l0.4-.2ZM66.6,60.7h0.3l0.3-.6H66.9Z" transform="translate(-23.9 -21.6)"/><path d="M101.3,71.3c-0.3,1.9-.6,3.9-0.9,5.8a1,1,0,0,1-.8.6h-6a0.8,0.8,0,0,1-.5-0.3,0.6,0.6,0,0,1,0-.5c1.1-1.3,0-4.8-1.7-5.4s-3.5-.2-4.4,2.9,1.2,6.5,4.2,8.8,3,3.9,4.1,6.1c2.6,5.6,1,10.7-2.5,15.3s-12.2,4.7-15,2.2-3.5-5.6-3-9.1a10.2,10.2,0,0,1,.5-2.8,2.5,2.5,0,0,1,1.7-.9,37.2,37.2,0,0,1,4.5-.4,1.2,1.2,0,0,1,.7.9c0.1,1.1-.2,3.1.1,3.3s3.2,0.8,4.2.2A5.1,5.1,0,0,0,88.6,94c-0.2-3.5-2.6-5.8-5.1-8-5.9-5-4.5-14.5-1.4-19.3,1.6-2.4,3.4-4.8,6.3-5.3s6-.7,8.1.5A9.9,9.9,0,0,1,101.3,71.3ZM77.6,104.6c0.3,1.4,3.7,3.1,4.8,2.6Zm5-5.3V99h-1s0,0.2,0,.4h1Z" transform="translate(-23.9 -21.6)"/><path d="M114.3,83.5l4.7-.2a1.2,1.2,0,0,1,.7.9c-0.6,2.4-1.2,4.8-1.9,7.1a1.2,1.2,0,0,1-.9.3h-5.7a2.2,2.2,0,0,0-.7,1.3c-0.9,4.1-1.7,8.2-2.8,12.2-0.2.8-1.6,1.5-2.6,1.9s-1.5-.4-2.3-0.4a4.2,4.2,0,0,0-1.7.6l-0.9.6a2.6,2.6,0,0,1-.4-1.1c1-4.3,2.2-8.6,3.1-13,1.8-8.4,3.4-16.8,5.1-25.2a16.9,16.9,0,0,1,.8-2.5,1.6,1.6,0,0,1,.7-0.4l0.4,0.8a0.9,0.9,0,0,0,.2.4l13-1.1c0.3,0,.5-0.3.7-0.4h2.1a17.1,17.1,0,0,1-.1,2c-0.5,2.7-1.1,5.5-1.6,8.2s-2,.7-2.2.5c-1.8-1.6-3.9-1-5.9-1a2.8,2.8,0,0,0-2.1,1.6,53.8,53.8,0,0,0-1.9,6.1,0.7,0.7,0,0,0,.4.6h1.5Zm-1.9-5.5h0.3l0.5-1.8H113Zm-3.1-7.4H109l-0.3.9H109Z" transform="translate(-23.9 -21.6)"/></svg>